<?xml version="1.0" encoding="utf-8"?>
<!-- Generator: Adobe Illustrator 23.0.0, SVG Export Plug-In . SVG Version: 6.00 Build 0)  -->
<svg version="1.1" id="图层_1" xmlns="http://www.w3.org/2000/svg" xmlns:xlink="http://www.w3.org/1999/xlink" x="0px" y="0px"
	 viewBox="0 0 114 65" style="enable-background:new 0 0 114 65;" xml:space="preserve">
<style type="text/css">
	.st0{fill:#4C7EF1;}
	.st1{fill:#29CB97;}
	.st2{fill:#FEC400;}
	.st3{fill:#B35AF1;}
	.st4{fill:#29C997;}
	.st5{fill:#FFFFFF;}
	.st6{fill:#6B6B6B;}
	.st7{fill:#444444;}
	.st8{opacity:0.1;fill:#FFFFFF;}
	.st9{opacity:0.1;}
	.st10{fill:none;stroke:#F24343;stroke-width:14;stroke-miterlimit:10;}
	.st11{fill:none;stroke:#FFFFFF;stroke-width:14;stroke-miterlimit:10;}
	.st12{fill:none;stroke:#4C7EF1;stroke-width:14;stroke-miterlimit:10;}
	.st13{fill:none;stroke:#FEAB05;stroke-width:14;stroke-miterlimit:10;}
	.st14{fill:none;stroke:#29CB97;stroke-width:8;stroke-miterlimit:10;}
	.st15{fill:none;stroke:#29CB97;stroke-width:16;stroke-miterlimit:10;}
	.st16{fill:none;stroke:#FEC400;stroke-width:16;stroke-miterlimit:10;}
	.st17{fill:none;stroke:#FEAB05;stroke-width:16;stroke-miterlimit:10;}
	.st18{fill:none;stroke:#FEC400;stroke-width:8;stroke-miterlimit:10;}
	.st19{fill:none;stroke:#676767;stroke-width:8;stroke-miterlimit:10;}
	.st20{fill:none;stroke:#FEC400;stroke-width:2;stroke-miterlimit:10;}
	.st21{fill:#E6E6E6;}
	.st22{fill:#74D889;}
	.st23{fill:#FFDC70;}
	.st24{fill:#47ABFC;}
	.st25{fill:none;stroke:#FFFFFF;stroke-miterlimit:10;}
	.st26{fill:#4C7EF1;stroke:#0B0C0E;stroke-miterlimit:10;}
	.st27{fill:#FEC400;stroke:#0B0C0E;stroke-miterlimit:10;}
	.st28{fill:none;stroke:#AAA9A9;stroke-miterlimit:10;}
	.st29{fill:none;stroke:#A5A4A4;stroke-width:2;stroke-miterlimit:10;stroke-dasharray:1.0005,4.002;}
	.st30{fill:none;stroke:#4C7EF1;stroke-width:40;stroke-miterlimit:10;}
	.st31{fill:none;stroke:#FEC400;stroke-width:40;stroke-miterlimit:10;}
	.st32{fill:none;stroke:#676767;stroke-width:20;stroke-miterlimit:10;}
	.st33{fill:none;stroke:#FEC400;stroke-width:20;stroke-miterlimit:10;}
	.st34{fill:none;stroke:#29C997;stroke-width:20;stroke-miterlimit:10;}
	.st35{fill:none;stroke:#FFFFFF;stroke-width:20;stroke-miterlimit:10;}
	.st36{fill:none;stroke:#000000;stroke-miterlimit:10;}
	.st37{fill:none;stroke:#FFFFFF;stroke-width:2;stroke-miterlimit:10;stroke-dasharray:3.941,3.941;}
	.st38{opacity:0.5;fill:none;stroke:#FFFFFF;stroke-width:0.4926;stroke-miterlimit:10;stroke-dasharray:3.941,3.941;}
	.st39{fill:none;stroke:#00B091;stroke-width:4;stroke-miterlimit:10;}
	.st40{fill:none;stroke:#EDBF00;stroke-width:4;stroke-miterlimit:10;}
	.st41{fill:#EDBF00;}
	.st42{fill:#00B091;}
	.st43{opacity:0.8;fill:#00B091;}
	.st44{opacity:0.8;fill:#EDBF00;}
	.st45{opacity:0.8;fill:#D85700;}
	.st46{fill:#4C7EF1;stroke:#4C7EF1;stroke-miterlimit:10;}
	.st47{opacity:0.65;fill:url(#SVGID_1_);}
	.st48{opacity:0.65;fill:url(#SVGID_2_);}
	.st49{opacity:0.65;fill:url(#SVGID_3_);}
	.st50{fill:#292E34;}
	.st51{opacity:0.6;}
	.st52{fill:#334469;}
	.st53{fill:#FEAB05;}
	.st54{opacity:0.4;fill:#0B0C0E;}
	.st55{opacity:0.7;}
	.st56{fill:#F24343;}
	.st57{opacity:0.42;fill:#676767;stroke:#F0F2F8;stroke-miterlimit:10;}
	.st58{fill:none;stroke:#F0F2F8;stroke-width:2;stroke-miterlimit:10;}
	.st59{clip-path:url(#SVGID_5_);}
	.st60{fill:#3B86FF;}
	.st61{opacity:0.36;}
	.st62{opacity:0.15;}
	.st63{opacity:0.43;}
	.st64{opacity:0.14;}
	.st65{fill:#1F1F1F;}
	.st66{fill:none;stroke:url(#SVGID_14_);stroke-width:0.15;stroke-miterlimit:10;}
	.st67{fill:none;stroke:#00B091;stroke-width:0.15;stroke-miterlimit:10;}
	.st68{fill:none;stroke:url(#SVGID_15_);stroke-width:0.15;stroke-miterlimit:10;}
	.st69{fill:none;stroke:url(#SVGID_16_);stroke-width:0.15;stroke-miterlimit:10;}
	.st70{fill:none;stroke:url(#SVGID_17_);stroke-width:0.15;stroke-miterlimit:10;}
	.st71{fill:none;stroke:url(#SVGID_18_);stroke-width:0.15;stroke-miterlimit:10;}
	.st72{opacity:0.5;fill:#4170ED;}
	.st73{fill:#4170ED;}
	.st74{fill:none;stroke:#4170ED;stroke-width:0.5;stroke-miterlimit:10;}
	.st75{fill:none;stroke:url(#SVGID_19_);stroke-width:0.5;stroke-miterlimit:10;stroke-dasharray:0.9965,0.9965;}
	.st76{opacity:0.4;}
	.st77{fill:url(#SVGID_20_);stroke:url(#SVGID_21_);stroke-width:0.5;stroke-miterlimit:10;}
	.st78{fill:none;stroke:url(#SVGID_22_);stroke-width:0.5;stroke-miterlimit:10;}
	.st79{fill:url(#SVGID_23_);stroke:url(#SVGID_24_);stroke-width:0.5;stroke-miterlimit:10;}
	.st80{fill:none;stroke:url(#SVGID_25_);stroke-width:0.5;stroke-miterlimit:10;stroke-dasharray:0.9965,0.9965;}
	.st81{fill:url(#SVGID_26_);}
	.st82{fill:none;stroke:url(#SVGID_27_);stroke-width:0.5;stroke-miterlimit:10;stroke-dasharray:0.994,0.994;}
	.st83{fill:none;stroke:url(#SVGID_28_);stroke-width:0.5;stroke-miterlimit:10;}
	.st84{fill:none;stroke:url(#SVGID_29_);stroke-width:0.5;stroke-miterlimit:10;}
	.st85{fill:none;stroke:url(#SVGID_30_);stroke-width:0.5;stroke-miterlimit:10;}
	.st86{fill:url(#SVGID_31_);stroke:url(#SVGID_32_);stroke-width:0.5;stroke-miterlimit:10;}
	.st87{fill:#3885E9;}
	.st88{fill:#666666;}
	.st89{opacity:0.33;}
	.st90{fill:#999999;}
	.st91{fill:none;stroke:#999999;stroke-miterlimit:10;}
	.st92{fill:none;stroke:#4170ED;stroke-miterlimit:10;}
	.st93{fill:none;stroke:url(#SVGID_33_);stroke-width:0.5;stroke-miterlimit:10;}
	.st94{fill:url(#SVGID_34_);}
	.st95{opacity:0.3;fill:none;stroke:#4170ED;stroke-miterlimit:10;}
	.st96{opacity:0.87;fill:none;stroke:url(#SVGID_35_);stroke-miterlimit:10;}
	.st97{opacity:0.53;fill:#FFFFFF;}
	.st98{clip-path:url(#SVGID_37_);fill:#BFBFBF;}
	.st99{fill:#BFBFBF;}
	.st100{clip-path:url(#SVGID_39_);fill:#BFBFBF;}
	.st101{clip-path:url(#SVGID_41_);fill:#BFBFBF;}
	.st102{clip-path:url(#SVGID_43_);fill:#BFBFBF;}
	.st103{clip-path:url(#SVGID_45_);fill:#BFBFBF;}
	.st104{clip-path:url(#SVGID_47_);fill:#BFBFBF;}
	.st105{clip-path:url(#SVGID_49_);fill:#BFBFBF;}
	.st106{fill:none;}
	.st107{fill:#1B3E60;}
	.st108{fill:#31446D;stroke:#4170ED;stroke-width:0.5;stroke-miterlimit:10;}
	.st109{opacity:0.31;fill:#EDBF00;}
	.st110{opacity:0.31;fill:#00B091;}
	.st111{fill:#31446D;stroke:#4C7EF1;stroke-width:0.5;stroke-miterlimit:10;}
	.st112{fill:url(#SVGID_50_);}
	.st113{fill:url(#SVGID_51_);stroke:url(#SVGID_52_);stroke-width:0.5;stroke-miterlimit:10;}
	.st114{clip-path:url(#SVGID_54_);fill:#BFBFBF;}
	.st115{clip-path:url(#SVGID_56_);fill:#BFBFBF;}
	.st116{clip-path:url(#SVGID_58_);fill:#BFBFBF;}
	.st117{clip-path:url(#SVGID_60_);fill:#BFBFBF;}
	.st118{clip-path:url(#SVGID_62_);fill:#BFBFBF;}
	.st119{clip-path:url(#SVGID_64_);fill:#BFBFBF;}
	.st120{fill:url(#XMLID_452_);}
	.st121{fill:none;stroke:#4C7EF1;stroke-width:0.25;stroke-miterlimit:10;}
	.st122{opacity:0.5;fill:#4C7EF1;}
	.st123{fill:url(#SVGID_65_);}
	.st124{fill:url(#SVGID_66_);}
	.st125{fill:url(#SVGID_67_);}
	.st126{fill:url(#SVGID_68_);}
	.st127{fill:url(#SVGID_69_);}
	.st128{fill:none;stroke:#4C7EF1;stroke-width:0.5;stroke-miterlimit:10;}
</style>
<g>
	<rect id="XMLID_435_" x="96.04" y="36.04" class="st0" width="1.1" height="0.07"/>
	<rect id="XMLID_434_" x="85.95" y="36.04" class="st0" width="3.19" height="0.07"/>
	<rect id="XMLID_433_" x="84.36" y="36.04" class="st0" width="0.8" height="0.07"/>
	<rect id="XMLID_432_" x="82.24" y="36.04" class="st0" width="1.33" height="0.07"/>
	<rect id="XMLID_431_" x="72.15" y="36.04" class="st0" width="3.19" height="0.07"/>
	<rect id="XMLID_430_" x="70.55" y="36.04" class="st0" width="0.8" height="0.07"/>
	<rect id="XMLID_429_" x="68.43" y="36.04" class="st0" width="1.33" height="0.07"/>
	<rect id="XMLID_428_" x="58.34" y="36.04" class="st0" width="3.19" height="0.07"/>
	<rect id="XMLID_427_" x="56.75" y="36.04" class="st0" width="0.8" height="0.07"/>
	<rect id="XMLID_426_" x="54.63" y="36.04" class="st0" width="1.33" height="0.07"/>
	<rect id="XMLID_425_" x="44.54" y="36.04" class="st0" width="3.19" height="0.07"/>
	<rect id="XMLID_424_" x="42.94" y="36.04" class="st0" width="0.8" height="0.07"/>
	<rect id="XMLID_423_" x="40.82" y="36.04" class="st0" width="1.33" height="0.07"/>
	<rect id="XMLID_422_" x="30.73" y="36.04" class="st0" width="3.19" height="0.07"/>
	<rect id="XMLID_421_" x="29.14" y="36.04" class="st0" width="0.8" height="0.07"/>
	<rect id="XMLID_420_" x="27.02" y="36.04" class="st0" width="1.33" height="0.07"/>
	<rect id="XMLID_419_" x="16.93" y="36.04" class="st0" width="3.19" height="0.07"/>
	<rect id="XMLID_418_" x="16.86" y="34.97" class="st0" width="0.1" height="0.56"/>
	<rect id="XMLID_417_" x="16.86" y="33.48" class="st0" width="0.1" height="0.93"/>
	<circle class="st0" cx="92.38" cy="36.11" r="0.98"/>
	<circle class="st0" cx="37.39" cy="36.11" r="0.98"/>
	<circle class="st0" cx="22.68" cy="36.11" r="0.98"/>
	<circle class="st121" cx="78.31" cy="36.11" r="0.98"/>
	<circle class="st121" cx="64.74" cy="36.11" r="0.98"/>
	<circle class="st121" cx="51.35" cy="36.11" r="0.98"/>
	<g>
		<path class="st41" d="M18.4,34.41v-5.73h1.59c0.84,0,1.54,0.25,2.1,0.76s0.84,1.18,0.84,2.04c0,0.89-0.28,1.6-0.84,2.14
			c-0.56,0.54-1.28,0.8-2.16,0.8H18.4z M19.12,29.34v4.42h0.81c0.71,0,1.26-0.2,1.65-0.6c0.4-0.4,0.59-0.95,0.59-1.67
			s-0.2-1.25-0.61-1.61c-0.41-0.36-0.94-0.54-1.61-0.54H19.12z"/>
		<path class="st41" d="M23.83,28.88c0-0.13,0.04-0.24,0.13-0.32s0.19-0.13,0.31-0.13c0.13,0,0.23,0.04,0.32,0.13
			s0.13,0.2,0.13,0.33c0,0.13-0.04,0.23-0.13,0.32c-0.09,0.09-0.19,0.13-0.32,0.13c-0.13,0-0.23-0.04-0.32-0.13
			C23.87,29.11,23.83,29,23.83,28.88z M23.91,34.41v-4.09h0.7v4.09H23.91z"/>
		<path class="st41" d="M29.08,30.32l-1.57,4.09h-0.71l-1.49-4.09h0.77l0.97,2.92c0.08,0.23,0.13,0.43,0.14,0.59h0.02
			c0.02-0.21,0.07-0.4,0.13-0.57l1.02-2.94H29.08z"/>
		<path class="st41" d="M29.65,28.88c0-0.13,0.04-0.24,0.13-0.32s0.19-0.13,0.31-0.13c0.13,0,0.23,0.04,0.32,0.13
			s0.13,0.2,0.13,0.33c0,0.13-0.04,0.23-0.13,0.32c-0.09,0.09-0.19,0.13-0.32,0.13c-0.13,0-0.23-0.04-0.32-0.13
			C29.69,29.11,29.65,29,29.65,28.88z M29.73,34.41v-4.09h0.7v4.09H29.73z"/>
		<path class="st41" d="M35.14,34.41h-0.7v-0.68h-0.01c-0.29,0.52-0.74,0.78-1.35,0.78c-0.5,0-0.9-0.18-1.2-0.55
			c-0.3-0.37-0.45-0.87-0.45-1.49c0-0.68,0.17-1.22,0.5-1.63c0.34-0.41,0.77-0.61,1.31-0.61s0.93,0.22,1.18,0.65h0.01v-2.52h0.7
			V34.41z M34.44,31.98c0-0.33-0.1-0.6-0.31-0.82c-0.21-0.22-0.47-0.33-0.77-0.33c-0.37,0-0.67,0.14-0.88,0.43
			c-0.22,0.29-0.32,0.68-0.32,1.18c0,0.46,0.1,0.82,0.31,1.08c0.21,0.27,0.48,0.4,0.83,0.4c0.34,0,0.62-0.13,0.83-0.39
			c0.22-0.26,0.32-0.58,0.32-0.97V31.98z"/>
		<path class="st41" d="M39.64,32.55h-2.78c0.01,0.44,0.13,0.77,0.35,1.01c0.22,0.24,0.53,0.36,0.92,0.36
			c0.45,0,0.85-0.15,1.23-0.44v0.65c-0.35,0.25-0.81,0.38-1.39,0.38c-0.57,0-1.02-0.19-1.35-0.56c-0.32-0.38-0.48-0.9-0.48-1.56
			c0-0.63,0.18-1.14,0.53-1.55s0.79-0.61,1.32-0.61c0.52,0,0.93,0.17,1.22,0.52c0.29,0.34,0.44,0.83,0.44,1.45V32.55z M38.93,31.97
			c0-0.37-0.09-0.66-0.26-0.86c-0.17-0.2-0.4-0.3-0.71-0.3c-0.28,0-0.52,0.11-0.73,0.32c-0.2,0.21-0.33,0.5-0.39,0.84H38.93z"/>
		<path class="st41" d="M42.71,31.04c-0.12-0.09-0.28-0.13-0.48-0.13c-0.27,0-0.5,0.13-0.68,0.39c-0.18,0.26-0.27,0.61-0.27,1.04
			v2.07h-0.7v-4.09h0.7v0.83h0.01c0.2-0.6,0.55-0.9,1.04-0.9c0.16,0,0.28,0.02,0.37,0.05V31.04z"/>
	</g>
</g>
</svg>
