<?xml version="1.0" encoding="utf-8"?>
<!-- Generator: Adobe Illustrator 23.0.0, SVG Export Plug-In . SVG Version: 6.00 Build 0)  -->
<svg version="1.1" id="图层_1" xmlns="http://www.w3.org/2000/svg" xmlns:xlink="http://www.w3.org/1999/xlink" x="0px" y="0px"
	 viewBox="0 0 114 65" style="enable-background:new 0 0 114 65;" xml:space="preserve">
<style type="text/css">
	.st0{fill:#4C7EF1;}
	.st1{fill:#29CB97;}
	.st2{fill:#FEC400;}
	.st3{fill:#B35AF1;}
	.st4{fill:#29C997;}
	.st5{fill:#FFFFFF;}
	.st6{fill:#6B6B6B;}
	.st7{fill:#444444;}
	.st8{opacity:0.1;fill:#FFFFFF;}
	.st9{opacity:0.1;}
	.st10{fill:none;stroke:#F24343;stroke-width:14;stroke-miterlimit:10;}
	.st11{fill:none;stroke:#FFFFFF;stroke-width:14;stroke-miterlimit:10;}
	.st12{fill:none;stroke:#4C7EF1;stroke-width:14;stroke-miterlimit:10;}
	.st13{fill:none;stroke:#FEAB05;stroke-width:14;stroke-miterlimit:10;}
	.st14{fill:none;stroke:#29CB97;stroke-width:8;stroke-miterlimit:10;}
	.st15{fill:none;stroke:#29CB97;stroke-width:16;stroke-miterlimit:10;}
	.st16{fill:none;stroke:#FEC400;stroke-width:16;stroke-miterlimit:10;}
	.st17{fill:none;stroke:#FEAB05;stroke-width:16;stroke-miterlimit:10;}
	.st18{fill:none;stroke:#FEC400;stroke-width:8;stroke-miterlimit:10;}
	.st19{fill:none;stroke:#676767;stroke-width:8;stroke-miterlimit:10;}
	.st20{fill:none;stroke:#FEC400;stroke-width:2;stroke-miterlimit:10;}
	.st21{fill:#E6E6E6;}
	.st22{fill:#74D889;}
	.st23{fill:#FFDC70;}
	.st24{fill:#47ABFC;}
	.st25{fill:none;stroke:#FFFFFF;stroke-miterlimit:10;}
	.st26{fill:#4C7EF1;stroke:#0B0C0E;stroke-miterlimit:10;}
	.st27{fill:#FEC400;stroke:#0B0C0E;stroke-miterlimit:10;}
	.st28{fill:none;stroke:#AAA9A9;stroke-miterlimit:10;}
	.st29{fill:none;stroke:#A5A4A4;stroke-width:2;stroke-miterlimit:10;stroke-dasharray:1.0005,4.002;}
	.st30{fill:none;stroke:#4C7EF1;stroke-width:40;stroke-miterlimit:10;}
	.st31{fill:none;stroke:#FEC400;stroke-width:40;stroke-miterlimit:10;}
	.st32{fill:none;stroke:#676767;stroke-width:20;stroke-miterlimit:10;}
	.st33{fill:none;stroke:#FEC400;stroke-width:20;stroke-miterlimit:10;}
	.st34{fill:none;stroke:#29C997;stroke-width:20;stroke-miterlimit:10;}
	.st35{fill:none;stroke:#FFFFFF;stroke-width:20;stroke-miterlimit:10;}
	.st36{fill:none;stroke:#000000;stroke-miterlimit:10;}
	.st37{fill:none;stroke:#FFFFFF;stroke-width:2;stroke-miterlimit:10;stroke-dasharray:3.941,3.941;}
	.st38{opacity:0.5;fill:none;stroke:#FFFFFF;stroke-width:0.4926;stroke-miterlimit:10;stroke-dasharray:3.941,3.941;}
	.st39{fill:none;stroke:#00B091;stroke-width:4;stroke-miterlimit:10;}
	.st40{fill:none;stroke:#EDBF00;stroke-width:4;stroke-miterlimit:10;}
	.st41{fill:#EDBF00;}
	.st42{fill:#00B091;}
	.st43{opacity:0.8;fill:#00B091;}
	.st44{opacity:0.8;fill:#EDBF00;}
	.st45{opacity:0.8;fill:#D85700;}
	.st46{fill:#4C7EF1;stroke:#4C7EF1;stroke-miterlimit:10;}
	.st47{opacity:0.65;fill:url(#SVGID_1_);}
	.st48{opacity:0.65;fill:url(#SVGID_2_);}
	.st49{opacity:0.65;fill:url(#SVGID_3_);}
	.st50{fill:#292E34;}
	.st51{opacity:0.6;}
	.st52{fill:#334469;}
	.st53{fill:#FEAB05;}
	.st54{opacity:0.4;fill:#0B0C0E;}
	.st55{opacity:0.7;}
	.st56{fill:#F24343;}
	.st57{opacity:0.42;fill:#676767;stroke:#F0F2F8;stroke-miterlimit:10;}
	.st58{fill:none;stroke:#F0F2F8;stroke-width:2;stroke-miterlimit:10;}
	.st59{clip-path:url(#SVGID_5_);}
	.st60{fill:#3B86FF;}
	.st61{opacity:0.36;}
	.st62{opacity:0.15;}
	.st63{opacity:0.43;}
	.st64{opacity:0.14;}
	.st65{fill:#1F1F1F;}
	.st66{fill:none;stroke:url(#SVGID_14_);stroke-width:0.15;stroke-miterlimit:10;}
	.st67{fill:none;stroke:#00B091;stroke-width:0.15;stroke-miterlimit:10;}
	.st68{fill:none;stroke:url(#SVGID_15_);stroke-width:0.15;stroke-miterlimit:10;}
	.st69{fill:none;stroke:url(#SVGID_16_);stroke-width:0.15;stroke-miterlimit:10;}
	.st70{fill:none;stroke:url(#SVGID_17_);stroke-width:0.15;stroke-miterlimit:10;}
	.st71{fill:none;stroke:url(#SVGID_18_);stroke-width:0.15;stroke-miterlimit:10;}
	.st72{opacity:0.5;fill:#4170ED;}
	.st73{fill:#4170ED;}
	.st74{fill:none;stroke:#4170ED;stroke-width:0.5;stroke-miterlimit:10;}
	.st75{fill:none;stroke:url(#SVGID_19_);stroke-width:0.5;stroke-miterlimit:10;stroke-dasharray:0.9965,0.9965;}
	.st76{opacity:0.4;}
	.st77{fill:url(#SVGID_20_);stroke:url(#SVGID_21_);stroke-width:0.5;stroke-miterlimit:10;}
	.st78{fill:none;stroke:url(#SVGID_22_);stroke-width:0.5;stroke-miterlimit:10;}
	.st79{fill:url(#SVGID_23_);stroke:url(#SVGID_24_);stroke-width:0.5;stroke-miterlimit:10;}
	.st80{fill:none;stroke:url(#SVGID_25_);stroke-width:0.5;stroke-miterlimit:10;stroke-dasharray:0.9965,0.9965;}
	.st81{fill:url(#SVGID_26_);}
	.st82{fill:none;stroke:url(#SVGID_27_);stroke-width:0.5;stroke-miterlimit:10;stroke-dasharray:0.994,0.994;}
	.st83{fill:none;stroke:url(#SVGID_28_);stroke-width:0.5;stroke-miterlimit:10;}
	.st84{fill:none;stroke:url(#SVGID_29_);stroke-width:0.5;stroke-miterlimit:10;}
	.st85{fill:none;stroke:url(#SVGID_30_);stroke-width:0.5;stroke-miterlimit:10;}
	.st86{fill:url(#SVGID_31_);stroke:url(#SVGID_32_);stroke-width:0.5;stroke-miterlimit:10;}
	.st87{fill:#3885E9;}
	.st88{fill:#666666;}
	.st89{opacity:0.33;}
	.st90{fill:#999999;}
	.st91{fill:none;stroke:#999999;stroke-miterlimit:10;}
	.st92{fill:none;stroke:#4170ED;stroke-miterlimit:10;}
	.st93{fill:none;stroke:url(#SVGID_33_);stroke-width:0.5;stroke-miterlimit:10;}
	.st94{fill:url(#SVGID_34_);}
	.st95{opacity:0.3;fill:none;stroke:#4170ED;stroke-miterlimit:10;}
	.st96{opacity:0.87;fill:none;stroke:url(#SVGID_35_);stroke-miterlimit:10;}
	.st97{opacity:0.53;fill:#FFFFFF;}
	.st98{clip-path:url(#SVGID_37_);fill:#BFBFBF;}
	.st99{fill:#BFBFBF;}
	.st100{clip-path:url(#SVGID_39_);fill:#BFBFBF;}
	.st101{clip-path:url(#SVGID_41_);fill:#BFBFBF;}
	.st102{clip-path:url(#SVGID_43_);fill:#BFBFBF;}
	.st103{clip-path:url(#SVGID_45_);fill:#BFBFBF;}
	.st104{clip-path:url(#SVGID_47_);fill:#BFBFBF;}
	.st105{clip-path:url(#SVGID_49_);fill:#BFBFBF;}
	.st106{fill:none;}
	.st107{fill:#1B3E60;}
	.st108{fill:#31446D;stroke:#4170ED;stroke-width:0.5;stroke-miterlimit:10;}
	.st109{opacity:0.31;fill:#EDBF00;}
	.st110{opacity:0.31;fill:#00B091;}
	.st111{fill:#31446D;stroke:#4C7EF1;stroke-width:0.5;stroke-miterlimit:10;}
	.st112{fill:url(#SVGID_50_);}
	.st113{fill:url(#SVGID_51_);stroke:url(#SVGID_52_);stroke-width:0.5;stroke-miterlimit:10;}
	.st114{clip-path:url(#SVGID_54_);fill:#BFBFBF;}
	.st115{clip-path:url(#SVGID_56_);fill:#BFBFBF;}
	.st116{clip-path:url(#SVGID_58_);fill:#BFBFBF;}
	.st117{clip-path:url(#SVGID_60_);fill:#BFBFBF;}
	.st118{clip-path:url(#SVGID_62_);fill:#BFBFBF;}
	.st119{clip-path:url(#SVGID_64_);fill:#BFBFBF;}
	.st120{fill:url(#XMLID_452_);}
	.st121{fill:none;stroke:#4C7EF1;stroke-width:0.25;stroke-miterlimit:10;}
	.st122{opacity:0.5;fill:#4C7EF1;}
	.st123{fill:url(#SVGID_65_);}
	.st124{fill:url(#SVGID_66_);}
	.st125{fill:url(#SVGID_67_);}
	.st126{fill:url(#SVGID_68_);}
	.st127{fill:url(#SVGID_69_);}
	.st128{fill:none;stroke:#4C7EF1;stroke-width:0.5;stroke-miterlimit:10;}
</style>
<g>
	<path class="st74" d="M94.68,40.89H19.32c-0.55,0-1-0.45-1-1V25.11c0-0.55,0.45-1,1-1h75.35c0.55,0,1,0.45,1,1v14.78
		C95.68,40.44,95.23,40.89,94.68,40.89z"/>
	<g>
		<path class="st0" d="M41.03,34.19h-0.69l-0.75-1.18c-0.15-0.24-0.29-0.4-0.41-0.48c-0.13-0.09-0.27-0.13-0.45-0.13H38.3v1.79
			h-0.59v-4.25h1.38c0.44,0,0.79,0.1,1.04,0.3s0.38,0.48,0.38,0.84c0,0.59-0.34,0.97-1.01,1.15v0.01c0.13,0.05,0.23,0.12,0.32,0.21
			c0.09,0.09,0.21,0.25,0.35,0.47L41.03,34.19z M38.3,30.42v1.5H39c0.27,0,0.48-0.07,0.65-0.22s0.25-0.34,0.25-0.58
			c0-0.22-0.08-0.39-0.23-0.52c-0.15-0.12-0.37-0.19-0.67-0.19H38.3z"/>
		<path class="st0" d="M41.64,31.37c0.32-0.19,0.69-0.28,1.12-0.28c0.78,0,1.17,0.38,1.17,1.15v1.95h-0.57v-0.47h-0.01
			c-0.22,0.36-0.56,0.54-0.99,0.54c-0.31,0-0.56-0.08-0.75-0.24s-0.28-0.37-0.28-0.64c0-0.57,0.36-0.9,1.08-0.99l0.96-0.13
			c0-0.5-0.22-0.74-0.66-0.74c-0.39,0-0.74,0.12-1.06,0.37V31.37z M42.6,32.76c-0.27,0.03-0.45,0.09-0.55,0.19
			c-0.1,0.09-0.15,0.22-0.15,0.38c0,0.14,0.05,0.26,0.16,0.35s0.25,0.14,0.43,0.14c0.25,0,0.46-0.08,0.62-0.25
			c0.16-0.17,0.24-0.37,0.24-0.62v-0.29L42.6,32.76z"/>
		<path class="st0" d="M47.69,34.19h-0.57v-0.5H47.1c-0.24,0.38-0.6,0.58-1.1,0.58c-0.41,0-0.74-0.14-0.98-0.41
			s-0.36-0.64-0.36-1.11c0-0.5,0.14-0.9,0.41-1.21s0.63-0.45,1.07-0.45s0.76,0.16,0.96,0.48h0.01V29.7h0.57V34.19z M47.12,32.39
			c0-0.24-0.09-0.45-0.26-0.61c-0.17-0.16-0.38-0.25-0.63-0.25c-0.3,0-0.54,0.11-0.72,0.32s-0.26,0.5-0.26,0.87
			c0,0.34,0.08,0.61,0.25,0.8s0.39,0.29,0.68,0.29c0.28,0,0.5-0.1,0.68-0.29c0.18-0.19,0.26-0.43,0.26-0.72V32.39z"/>
		<path class="st0" d="M48.65,30.09c0-0.1,0.03-0.18,0.1-0.24s0.15-0.1,0.26-0.1c0.1,0,0.19,0.03,0.26,0.1
			c0.07,0.06,0.11,0.14,0.11,0.24c0,0.09-0.04,0.17-0.11,0.24c-0.07,0.06-0.16,0.09-0.26,0.09s-0.19-0.03-0.26-0.09
			C48.68,30.26,48.65,30.18,48.65,30.09z M48.71,34.19v-3.03h0.57v3.03H48.71z"/>
		<path class="st0" d="M50.1,32.71c0-0.5,0.15-0.9,0.45-1.19s0.7-0.43,1.22-0.43c0.49,0,0.87,0.14,1.14,0.42
			c0.28,0.28,0.41,0.66,0.41,1.16c0,0.48-0.15,0.87-0.44,1.16c-0.29,0.29-0.69,0.44-1.19,0.44c-0.48,0-0.87-0.14-1.16-0.43
			S50.1,33.17,50.1,32.71z M50.68,32.69c0,0.35,0.09,0.62,0.28,0.83s0.44,0.3,0.76,0.3c0.33,0,0.58-0.1,0.75-0.29
			s0.26-0.48,0.26-0.85c0-0.37-0.09-0.65-0.26-0.85s-0.42-0.3-0.75-0.3c-0.32,0-0.58,0.1-0.76,0.31
			C50.78,32.05,50.68,32.33,50.68,32.69z"/>
	</g>
	<circle class="st128" cx="29.92" cy="32.5" r="3.01"/>
</g>
</svg>
