<?xml version="1.0" encoding="utf-8"?>
<!-- Generator: Adobe Illustrator 23.0.0, SVG Export Plug-In . SVG Version: 6.00 Build 0)  -->
<svg version="1.1" id="图层_1" xmlns="http://www.w3.org/2000/svg" xmlns:xlink="http://www.w3.org/1999/xlink" x="0px" y="0px"
	 viewBox="0 0 114 65" style="enable-background:new 0 0 114 65;" xml:space="preserve">
<style type="text/css">
	.st0{fill:#4C7EF1;}
	.st1{fill:#29CB97;}
	.st2{fill:#FEC400;}
	.st3{fill:#B35AF1;}
	.st4{fill:#29C997;}
	.st5{fill:#FFFFFF;}
	.st6{fill:#6B6B6B;}
	.st7{fill:#444444;}
	.st8{opacity:0.1;fill:#FFFFFF;}
	.st9{opacity:0.1;}
	.st10{fill:none;stroke:#F24343;stroke-width:14;stroke-miterlimit:10;}
	.st11{fill:none;stroke:#FFFFFF;stroke-width:14;stroke-miterlimit:10;}
	.st12{fill:none;stroke:#4C7EF1;stroke-width:14;stroke-miterlimit:10;}
	.st13{fill:none;stroke:#FEAB05;stroke-width:14;stroke-miterlimit:10;}
	.st14{fill:none;stroke:#29CB97;stroke-width:8;stroke-miterlimit:10;}
	.st15{fill:none;stroke:#29CB97;stroke-width:16;stroke-miterlimit:10;}
	.st16{fill:none;stroke:#FEC400;stroke-width:16;stroke-miterlimit:10;}
	.st17{fill:none;stroke:#FEAB05;stroke-width:16;stroke-miterlimit:10;}
	.st18{fill:none;stroke:#FEC400;stroke-width:8;stroke-miterlimit:10;}
	.st19{fill:none;stroke:#676767;stroke-width:8;stroke-miterlimit:10;}
	.st20{fill:none;stroke:#FEC400;stroke-width:2;stroke-miterlimit:10;}
	.st21{fill:#E6E6E6;}
	.st22{fill:#74D889;}
	.st23{fill:#FFDC70;}
	.st24{fill:#47ABFC;}
	.st25{fill:none;stroke:#FFFFFF;stroke-miterlimit:10;}
	.st26{fill:#4C7EF1;stroke:#0B0C0E;stroke-miterlimit:10;}
	.st27{fill:#FEC400;stroke:#0B0C0E;stroke-miterlimit:10;}
	.st28{fill:none;stroke:#AAA9A9;stroke-miterlimit:10;}
	.st29{fill:none;stroke:#A5A4A4;stroke-width:2;stroke-miterlimit:10;stroke-dasharray:1.0005,4.002;}
	.st30{fill:none;stroke:#4C7EF1;stroke-width:40;stroke-miterlimit:10;}
	.st31{fill:none;stroke:#FEC400;stroke-width:40;stroke-miterlimit:10;}
	.st32{fill:none;stroke:#676767;stroke-width:20;stroke-miterlimit:10;}
	.st33{fill:none;stroke:#FEC400;stroke-width:20;stroke-miterlimit:10;}
	.st34{fill:none;stroke:#29C997;stroke-width:20;stroke-miterlimit:10;}
	.st35{fill:none;stroke:#FFFFFF;stroke-width:20;stroke-miterlimit:10;}
	.st36{fill:none;stroke:#000000;stroke-miterlimit:10;}
	.st37{fill:none;stroke:#FFFFFF;stroke-width:2;stroke-miterlimit:10;stroke-dasharray:3.941,3.941;}
	.st38{opacity:0.5;fill:none;stroke:#FFFFFF;stroke-width:0.4926;stroke-miterlimit:10;stroke-dasharray:3.941,3.941;}
	.st39{fill:none;stroke:#00B091;stroke-width:4;stroke-miterlimit:10;}
	.st40{fill:none;stroke:#EDBF00;stroke-width:4;stroke-miterlimit:10;}
	.st41{fill:#EDBF00;}
	.st42{fill:#00B091;}
	.st43{opacity:0.8;fill:#00B091;}
	.st44{opacity:0.8;fill:#EDBF00;}
	.st45{opacity:0.8;fill:#D85700;}
	.st46{fill:#4C7EF1;stroke:#4C7EF1;stroke-miterlimit:10;}
	.st47{opacity:0.65;fill:url(#SVGID_1_);}
	.st48{opacity:0.65;fill:url(#SVGID_2_);}
	.st49{opacity:0.65;fill:url(#SVGID_3_);}
	.st50{fill:#292E34;}
	.st51{opacity:0.6;}
	.st52{fill:#334469;}
	.st53{fill:#FEAB05;}
	.st54{opacity:0.4;fill:#0B0C0E;}
	.st55{opacity:0.7;}
	.st56{fill:#F24343;}
	.st57{opacity:0.42;fill:#676767;stroke:#F0F2F8;stroke-miterlimit:10;}
	.st58{fill:none;stroke:#F0F2F8;stroke-width:2;stroke-miterlimit:10;}
	.st59{clip-path:url(#SVGID_5_);}
	.st60{fill:#3B86FF;}
	.st61{opacity:0.36;}
	.st62{fill:#4170ED;}
	.st63{fill:#999999;}
	.st64{opacity:0.15;}
	.st65{clip-path:url(#SVGID_7_);}
	.st66{fill:#1CCC96;}
	.st67{opacity:0.43;}
	.st68{clip-path:url(#SVGID_9_);}
	.st69{fill:#30C3E9;}
	.st70{clip-path:url(#SVGID_11_);}
	.st71{fill:#BCEAEC;}
	.st72{opacity:0.14;}
	.st73{clip-path:url(#SVGID_13_);}
	.st74{fill:#FBC400;}
	.st75{fill:#1F1F1F;}
	.st76{fill:none;stroke:url(#SVGID_14_);stroke-width:0.15;stroke-miterlimit:10;}
	.st77{fill:none;stroke:#00B091;stroke-width:0.15;stroke-miterlimit:10;}
	.st78{fill:none;stroke:url(#SVGID_15_);stroke-width:0.15;stroke-miterlimit:10;}
	.st79{fill:none;stroke:url(#SVGID_16_);stroke-width:0.15;stroke-miterlimit:10;}
	.st80{fill:none;stroke:url(#SVGID_17_);stroke-width:0.15;stroke-miterlimit:10;}
	.st81{fill:none;stroke:url(#SVGID_18_);stroke-width:0.15;stroke-miterlimit:10;}
	.st82{opacity:0.5;fill:#4170ED;}
	.st83{fill:#666666;}
	.st84{fill:none;stroke:#4170ED;stroke-width:0.5;stroke-miterlimit:10;}
	.st85{fill:none;stroke:url(#SVGID_19_);stroke-width:0.5;stroke-miterlimit:10;stroke-dasharray:0.9965,0.9965;}
	.st86{opacity:0.4;}
	.st87{fill:url(#SVGID_20_);stroke:url(#SVGID_21_);stroke-width:0.5;stroke-miterlimit:10;}
	.st88{fill:none;stroke:url(#SVGID_22_);stroke-width:0.5;stroke-miterlimit:10;}
	.st89{fill:url(#SVGID_23_);stroke:url(#SVGID_24_);stroke-width:0.5;stroke-miterlimit:10;}
	.st90{fill:none;stroke:url(#SVGID_25_);stroke-width:0.5;stroke-miterlimit:10;stroke-dasharray:0.9965,0.9965;}
	.st91{fill:url(#SVGID_26_);}
	.st92{fill:none;stroke:url(#SVGID_27_);stroke-width:0.5;stroke-miterlimit:10;stroke-dasharray:0.994,0.994;}
	.st93{fill:none;stroke:url(#SVGID_28_);stroke-width:0.5;stroke-miterlimit:10;}
	.st94{fill:none;stroke:url(#SVGID_29_);stroke-width:0.5;stroke-miterlimit:10;}
	.st95{fill:none;stroke:url(#SVGID_30_);stroke-width:0.5;stroke-miterlimit:10;}
	.st96{fill:url(#SVGID_31_);stroke:url(#SVGID_32_);stroke-width:0.5;stroke-miterlimit:10;}
	.st97{fill:#3885E9;}
	.st98{opacity:0.33;}
	.st99{fill:none;stroke:#999999;stroke-miterlimit:10;}
	.st100{fill:none;stroke:#4170ED;stroke-miterlimit:10;}
	.st101{fill:none;stroke:url(#SVGID_33_);stroke-width:0.5;stroke-miterlimit:10;}
	.st102{fill:url(#SVGID_34_);}
	.st103{opacity:0.3;fill:none;stroke:#4170ED;stroke-miterlimit:10;}
	.st104{opacity:0.87;fill:none;stroke:url(#SVGID_35_);stroke-miterlimit:10;}
	.st105{opacity:0.53;fill:#FFFFFF;}
	.st106{clip-path:url(#SVGID_37_);fill:#BFBFBF;}
	.st107{fill:#BFBFBF;}
	.st108{clip-path:url(#SVGID_39_);fill:#BFBFBF;}
	.st109{clip-path:url(#SVGID_41_);fill:#BFBFBF;}
	.st110{clip-path:url(#SVGID_43_);fill:#BFBFBF;}
	.st111{clip-path:url(#SVGID_45_);fill:#BFBFBF;}
	.st112{clip-path:url(#SVGID_47_);fill:#BFBFBF;}
	.st113{clip-path:url(#SVGID_49_);fill:#BFBFBF;}
	.st114{fill:none;}
	.st115{fill:#1B3E60;}
	.st116{fill:#31446D;stroke:#4170ED;stroke-width:0.5;stroke-miterlimit:10;}
	.st117{opacity:0.31;fill:#EDBF00;}
	.st118{opacity:0.31;fill:#00B091;}
	.st119{fill:#31446D;stroke:#4C7EF1;stroke-width:0.5;stroke-miterlimit:10;}
	.st120{fill:url(#SVGID_50_);}
	.st121{fill:url(#SVGID_51_);stroke:url(#SVGID_52_);stroke-width:0.5;stroke-miterlimit:10;}
	.st122{fill:url(#SVGID_53_);}
	.st123{clip-path:url(#SVGID_55_);fill:#BFBFBF;}
	.st124{clip-path:url(#SVGID_57_);fill:#BFBFBF;}
	.st125{clip-path:url(#SVGID_59_);fill:#BFBFBF;}
	.st126{clip-path:url(#SVGID_61_);fill:#BFBFBF;}
	.st127{clip-path:url(#SVGID_63_);fill:#BFBFBF;}
	.st128{clip-path:url(#SVGID_65_);fill:#BFBFBF;}
	.st129{fill:url(#XMLID_5_);}
	.st130{fill:none;stroke:#4C7EF1;stroke-width:0.25;stroke-miterlimit:10;}
	.st131{opacity:0.5;fill:#4C7EF1;}
	.st132{fill:url(#SVGID_66_);}
	.st133{fill:url(#SVGID_67_);}
	.st134{fill:url(#SVGID_68_);}
	.st135{fill:url(#SVGID_69_);}
	.st136{fill:url(#SVGID_70_);}
</style>
<g>
	<g>
		<g>
			<path class="st62" d="M29.29,21.39h7.35v1.26H33.7v7.71h-1.47v-7.71h-2.94V21.39z"/>
			<path class="st62" d="M37.18,23.86h1.67l1.36,1.98l1.34-1.98h1.67l-2.24,3.04l2.52,3.45h-1.68l-1.62-2.4l-1.63,2.4h-1.68
				l2.52-3.45L37.18,23.86z"/>
			<path class="st62" d="M46.36,21.76v2.1h1.44v1.18h-1.44v3.67c0,0.16,0.03,0.28,0.1,0.35c0.08,0.08,0.18,0.11,0.33,0.11h0.85v1.18
				h-1.09c-0.56,0-0.98-0.15-1.24-0.45c-0.25-0.28-0.38-0.67-0.38-1.19v-3.67h-1.17v-1.18h1.17v-1.51L46.36,21.76z"/>
		</g>
	</g>
	<g>
		<g>
			<path class="st62" d="M55.01,23.95h5.25v0.9h-2.1v5.51h-1.05v-5.51h-2.1V23.95z"/>
			<path class="st62" d="M60.65,25.72h1.19l0.97,1.42l0.96-1.42h1.19l-1.6,2.17l1.8,2.47h-1.2l-1.16-1.71l-1.17,1.71h-1.2l1.8-2.47
				L60.65,25.72z"/>
			<path class="st62" d="M67.2,24.22v1.5h1.03v0.84H67.2v2.62c0,0.11,0.02,0.2,0.07,0.25c0.05,0.05,0.13,0.08,0.23,0.08h0.61v0.84
				h-0.78c-0.4,0-0.7-0.11-0.89-0.32c-0.18-0.2-0.27-0.48-0.27-0.85v-2.62h-0.83v-0.84h0.83v-1.08L67.2,24.22z"/>
		</g>
	</g>
	<g>
		<g>
			<path class="st62" d="M75.51,25.23h4.2v0.72h-1.68v4.41h-0.84v-4.41h-1.68V25.23z"/>
			<path class="st62" d="M80.02,26.64h0.95l0.78,1.13l0.77-1.13h0.95l-1.28,1.74l1.44,1.97h-0.96l-0.93-1.37l-0.93,1.37h-0.96
				l1.44-1.97L80.02,26.64z"/>
			<path class="st62" d="M85.27,25.45v1.2h0.83v0.67h-0.83v2.1c0,0.09,0.02,0.16,0.06,0.2c0.04,0.04,0.11,0.06,0.19,0.06H86v0.67
				h-0.62c-0.32,0-0.56-0.09-0.71-0.26c-0.14-0.16-0.22-0.38-0.22-0.68v-2.1h-0.67v-0.67h0.67v-0.86L85.27,25.45z"/>
		</g>
	</g>
	<g>
		<g>
			<path class="st63" d="M29.29,35.28h7.35v1.26H33.7v7.71h-1.47v-7.71h-2.94V35.28z"/>
			<path class="st63" d="M37.18,37.75h1.67l1.36,1.98l1.34-1.98h1.67l-2.24,3.04l2.52,3.45h-1.68l-1.62-2.4l-1.63,2.4h-1.68
				l2.52-3.45L37.18,37.75z"/>
			<path class="st63" d="M46.36,35.65v2.1h1.44v1.18h-1.44v3.67c0,0.16,0.03,0.28,0.1,0.35c0.08,0.08,0.18,0.11,0.33,0.11h0.85v1.18
				h-1.09c-0.56,0-0.98-0.15-1.24-0.45c-0.25-0.28-0.38-0.67-0.38-1.19v-3.67h-1.17v-1.18h1.17v-1.51L46.36,35.65z"/>
		</g>
	</g>
	<g>
		<g>
			<path class="st63" d="M55.76,36.83h5.25v0.9h-2.1v5.51h-1.05v-5.51h-2.1V36.83z"/>
			<path class="st63" d="M61.39,38.6h1.19l0.97,1.42l0.96-1.42h1.19l-1.6,2.17l1.8,2.47h-1.2l-1.16-1.71l-1.17,1.71h-1.2l1.8-2.47
				L61.39,38.6z"/>
			<path class="st63" d="M67.95,37.1v1.5h1.03v0.84h-1.03v2.62c0,0.11,0.02,0.2,0.07,0.25c0.05,0.05,0.13,0.08,0.23,0.08h0.61v0.84
				h-0.78c-0.4,0-0.7-0.11-0.89-0.32c-0.18-0.2-0.27-0.48-0.27-0.85v-2.62H66.1V38.6h0.83v-1.08L67.95,37.1z"/>
		</g>
	</g>
	<g>
		<g>
			<path class="st63" d="M75.51,37.6h4.2v0.72h-1.68v4.41h-0.84v-4.41h-1.68V37.6z"/>
			<path class="st63" d="M80.02,39.02h0.95l0.78,1.13l0.77-1.13h0.95l-1.28,1.74l1.44,1.97h-0.96l-0.93-1.37l-0.93,1.37h-0.96
				l1.44-1.97L80.02,39.02z"/>
			<path class="st63" d="M85.27,37.82v1.2h0.83v0.67h-0.83v2.1c0,0.09,0.02,0.16,0.06,0.2c0.04,0.04,0.11,0.06,0.19,0.06H86v0.67
				h-0.62c-0.32,0-0.56-0.09-0.71-0.26c-0.14-0.16-0.22-0.38-0.22-0.68v-2.1h-0.67v-0.67h0.67v-0.86L85.27,37.82z"/>
		</g>
	</g>
</g>
</svg>
