<?xml version="1.0" encoding="utf-8"?>
<!-- Generator: Adobe Illustrator 23.0.0, SVG Export Plug-In . SVG Version: 6.00 Build 0)  -->
<svg version="1.1" id="图层_1" xmlns="http://www.w3.org/2000/svg" xmlns:xlink="http://www.w3.org/1999/xlink" x="0px" y="0px"
	 viewBox="0 0 114 65" style="enable-background:new 0 0 114 65;" xml:space="preserve">
<style type="text/css">
	.st0{fill:#4C7EF1;}
	.st1{fill:#29CB97;}
	.st2{fill:#FEC400;}
	.st3{fill:#B35AF1;}
	.st4{fill:#29C997;}
	.st5{fill:#FFFFFF;}
	.st6{fill:#6B6B6B;}
	.st7{fill:#444444;}
	.st8{opacity:0.1;fill:#FFFFFF;}
	.st9{opacity:0.1;}
	.st10{fill:none;stroke:#F24343;stroke-width:14;stroke-miterlimit:10;}
	.st11{fill:none;stroke:#FFFFFF;stroke-width:14;stroke-miterlimit:10;}
	.st12{fill:none;stroke:#4C7EF1;stroke-width:14;stroke-miterlimit:10;}
	.st13{fill:none;stroke:#FEAB05;stroke-width:14;stroke-miterlimit:10;}
	.st14{fill:none;stroke:#29CB97;stroke-width:8;stroke-miterlimit:10;}
	.st15{fill:none;stroke:#29CB97;stroke-width:16;stroke-miterlimit:10;}
	.st16{fill:none;stroke:#FEC400;stroke-width:16;stroke-miterlimit:10;}
	.st17{fill:none;stroke:#FEAB05;stroke-width:16;stroke-miterlimit:10;}
	.st18{fill:none;stroke:#FEC400;stroke-width:8;stroke-miterlimit:10;}
	.st19{fill:none;stroke:#676767;stroke-width:8;stroke-miterlimit:10;}
	.st20{fill:none;stroke:#FEC400;stroke-width:2;stroke-miterlimit:10;}
	.st21{fill:#E6E6E6;}
	.st22{fill:#74D889;}
	.st23{fill:#FFDC70;}
	.st24{fill:#47ABFC;}
	.st25{fill:none;stroke:#FFFFFF;stroke-miterlimit:10;}
	.st26{fill:#4C7EF1;stroke:#0B0C0E;stroke-miterlimit:10;}
	.st27{fill:#FEC400;stroke:#0B0C0E;stroke-miterlimit:10;}
	.st28{fill:none;stroke:#AAA9A9;stroke-miterlimit:10;}
	.st29{fill:none;stroke:#A5A4A4;stroke-width:2;stroke-miterlimit:10;stroke-dasharray:1.0005,4.002;}
	.st30{fill:none;stroke:#4C7EF1;stroke-width:40;stroke-miterlimit:10;}
	.st31{fill:none;stroke:#FEC400;stroke-width:40;stroke-miterlimit:10;}
	.st32{fill:none;stroke:#676767;stroke-width:20;stroke-miterlimit:10;}
	.st33{fill:none;stroke:#FEC400;stroke-width:20;stroke-miterlimit:10;}
	.st34{fill:none;stroke:#29C997;stroke-width:20;stroke-miterlimit:10;}
	.st35{fill:none;stroke:#FFFFFF;stroke-width:20;stroke-miterlimit:10;}
	.st36{fill:none;stroke:#000000;stroke-miterlimit:10;}
	.st37{fill:none;stroke:#FFFFFF;stroke-width:2;stroke-miterlimit:10;stroke-dasharray:3.941,3.941;}
	.st38{opacity:0.5;fill:none;stroke:#FFFFFF;stroke-width:0.4926;stroke-miterlimit:10;stroke-dasharray:3.941,3.941;}
	.st39{fill:none;stroke:#00B091;stroke-width:4;stroke-miterlimit:10;}
	.st40{fill:none;stroke:#EDBF00;stroke-width:4;stroke-miterlimit:10;}
	.st41{fill:#EDBF00;}
	.st42{fill:#00B091;}
	.st43{opacity:0.8;fill:#00B091;}
	.st44{opacity:0.8;fill:#EDBF00;}
	.st45{opacity:0.8;fill:#D85700;}
	.st46{fill:#4C7EF1;stroke:#4C7EF1;stroke-miterlimit:10;}
	.st47{opacity:0.65;fill:url(#SVGID_1_);}
	.st48{opacity:0.65;fill:url(#SVGID_2_);}
	.st49{opacity:0.65;fill:url(#SVGID_3_);}
	.st50{fill:#292E34;}
	.st51{opacity:0.6;}
	.st52{fill:#334469;}
	.st53{fill:#FEAB05;}
	.st54{opacity:0.4;fill:#0B0C0E;}
	.st55{opacity:0.7;}
	.st56{fill:#F24343;}
	.st57{opacity:0.42;fill:#676767;stroke:#F0F2F8;stroke-miterlimit:10;}
	.st58{fill:none;stroke:#F0F2F8;stroke-width:2;stroke-miterlimit:10;}
	.st59{clip-path:url(#SVGID_5_);}
	.st60{fill:#3B86FF;}
	.st61{opacity:0.36;}
	.st62{fill:#4170ED;}
	.st63{fill:#999999;}
	.st64{opacity:0.15;}
	.st65{clip-path:url(#SVGID_7_);}
	.st66{fill:#1CCC96;}
	.st67{opacity:0.43;}
	.st68{clip-path:url(#SVGID_9_);}
	.st69{fill:#30C3E9;}
	.st70{clip-path:url(#SVGID_11_);}
	.st71{fill:#BCEAEC;}
	.st72{opacity:0.14;}
	.st73{clip-path:url(#SVGID_13_);}
	.st74{fill:#FBC400;}
	.st75{fill:#1F1F1F;}
	.st76{fill:none;stroke:url(#SVGID_14_);stroke-width:0.15;stroke-miterlimit:10;}
	.st77{fill:none;stroke:#00B091;stroke-width:0.15;stroke-miterlimit:10;}
	.st78{fill:none;stroke:url(#SVGID_15_);stroke-width:0.15;stroke-miterlimit:10;}
	.st79{fill:none;stroke:url(#SVGID_16_);stroke-width:0.15;stroke-miterlimit:10;}
	.st80{fill:none;stroke:url(#SVGID_17_);stroke-width:0.15;stroke-miterlimit:10;}
	.st81{fill:none;stroke:url(#SVGID_18_);stroke-width:0.15;stroke-miterlimit:10;}
	.st82{opacity:0.5;fill:#4170ED;}
	.st83{fill:#666666;}
	.st84{fill:none;stroke:#4170ED;stroke-width:0.5;stroke-miterlimit:10;}
	.st85{fill:none;stroke:url(#SVGID_19_);stroke-width:0.5;stroke-miterlimit:10;stroke-dasharray:0.9965,0.9965;}
	.st86{opacity:0.4;}
	.st87{fill:url(#SVGID_20_);stroke:url(#SVGID_21_);stroke-width:0.5;stroke-miterlimit:10;}
	.st88{fill:none;stroke:url(#SVGID_22_);stroke-width:0.5;stroke-miterlimit:10;}
	.st89{fill:url(#SVGID_23_);stroke:url(#SVGID_24_);stroke-width:0.5;stroke-miterlimit:10;}
	.st90{fill:none;stroke:url(#SVGID_25_);stroke-width:0.5;stroke-miterlimit:10;stroke-dasharray:0.9965,0.9965;}
	.st91{fill:url(#SVGID_26_);}
	.st92{fill:none;stroke:url(#SVGID_27_);stroke-width:0.5;stroke-miterlimit:10;stroke-dasharray:0.994,0.994;}
	.st93{fill:none;stroke:url(#SVGID_28_);stroke-width:0.5;stroke-miterlimit:10;}
	.st94{fill:none;stroke:url(#SVGID_29_);stroke-width:0.5;stroke-miterlimit:10;}
	.st95{fill:none;stroke:url(#SVGID_30_);stroke-width:0.5;stroke-miterlimit:10;}
	.st96{fill:url(#SVGID_31_);stroke:url(#SVGID_32_);stroke-width:0.5;stroke-miterlimit:10;}
	.st97{fill:#3885E9;}
	.st98{opacity:0.33;}
	.st99{fill:none;stroke:#999999;stroke-miterlimit:10;}
	.st100{fill:none;stroke:#4170ED;stroke-miterlimit:10;}
	.st101{fill:none;stroke:url(#SVGID_33_);stroke-width:0.5;stroke-miterlimit:10;}
	.st102{fill:url(#SVGID_34_);}
	.st103{opacity:0.3;fill:none;stroke:#4170ED;stroke-miterlimit:10;}
	.st104{opacity:0.87;fill:none;stroke:url(#SVGID_35_);stroke-miterlimit:10;}
	.st105{opacity:0.53;fill:#FFFFFF;}
	.st106{clip-path:url(#SVGID_37_);fill:#BFBFBF;}
	.st107{fill:#BFBFBF;}
	.st108{clip-path:url(#SVGID_39_);fill:#BFBFBF;}
	.st109{clip-path:url(#SVGID_41_);fill:#BFBFBF;}
	.st110{clip-path:url(#SVGID_43_);fill:#BFBFBF;}
	.st111{clip-path:url(#SVGID_45_);fill:#BFBFBF;}
	.st112{clip-path:url(#SVGID_47_);fill:#BFBFBF;}
	.st113{clip-path:url(#SVGID_49_);fill:#BFBFBF;}
	.st114{fill:none;}
	.st115{fill:#1B3E60;}
	.st116{fill:#31446D;stroke:#4170ED;stroke-width:0.5;stroke-miterlimit:10;}
	.st117{opacity:0.31;fill:#EDBF00;}
	.st118{opacity:0.31;fill:#00B091;}
	.st119{fill:#31446D;stroke:#4C7EF1;stroke-width:0.5;stroke-miterlimit:10;}
	.st120{fill:url(#SVGID_50_);}
	.st121{fill:url(#SVGID_51_);stroke:url(#SVGID_52_);stroke-width:0.5;stroke-miterlimit:10;}
	.st122{fill:url(#SVGID_53_);}
	.st123{clip-path:url(#SVGID_55_);fill:#BFBFBF;}
	.st124{clip-path:url(#SVGID_57_);fill:#BFBFBF;}
	.st125{clip-path:url(#SVGID_59_);fill:#BFBFBF;}
	.st126{clip-path:url(#SVGID_61_);fill:#BFBFBF;}
	.st127{clip-path:url(#SVGID_63_);fill:#BFBFBF;}
	.st128{clip-path:url(#SVGID_65_);fill:#BFBFBF;}
	.st129{fill:url(#XMLID_5_);}
	.st130{fill:none;stroke:#4C7EF1;stroke-width:0.25;stroke-miterlimit:10;}
	.st131{opacity:0.5;fill:#4C7EF1;}
	.st132{fill:url(#SVGID_66_);}
	.st133{fill:url(#SVGID_67_);}
	.st134{fill:url(#SVGID_68_);}
	.st135{fill:url(#SVGID_69_);}
	.st136{fill:url(#SVGID_70_);}
</style>
<path class="st84" d="M95.9,41.34H20.55c-0.55,0-1-0.45-1-1V25.56c0-0.55,0.45-1,1-1H95.9c0.55,0,1,0.45,1,1v14.78
	C96.9,40.89,96.46,41.34,95.9,41.34z"/>
<g>
	<path class="st0" d="M25.56,32.76c0-0.23-0.08-0.41-0.23-0.54s-0.36-0.2-0.63-0.2c-0.19,0-0.38,0.04-0.57,0.13
		s-0.37,0.22-0.54,0.38v-0.52c0.15-0.14,0.32-0.26,0.51-0.33c0.19-0.08,0.41-0.12,0.66-0.12c0.41,0,0.74,0.1,0.99,0.31
		c0.25,0.21,0.38,0.48,0.38,0.83c0,0.31-0.08,0.58-0.23,0.81s-0.42,0.46-0.79,0.7c-0.38,0.25-0.63,0.42-0.76,0.53
		c-0.13,0.11-0.22,0.21-0.27,0.3S24,35.28,24,35.42h2.26v0.48h-2.85v-0.21c0-0.25,0.04-0.45,0.11-0.62s0.19-0.34,0.35-0.5
		c0.16-0.16,0.42-0.36,0.77-0.58c0.36-0.23,0.6-0.44,0.73-0.62C25.49,33.19,25.56,32.99,25.56,32.76z"/>
	<path class="st0" d="M26.84,33.86c0-0.75,0.13-1.32,0.4-1.7c0.27-0.38,0.65-0.58,1.15-0.58c0.96,0,1.44,0.73,1.44,2.18
		c0,0.72-0.14,1.26-0.41,1.64c-0.27,0.38-0.65,0.57-1.14,0.57c-0.46,0-0.82-0.18-1.07-0.54S26.84,34.55,26.84,33.86z M27.43,33.83
		c0,1.13,0.31,1.69,0.92,1.69c0.6,0,0.9-0.57,0.9-1.72c0-1.19-0.29-1.78-0.88-1.78C27.74,32.03,27.43,32.63,27.43,33.83z"/>
	<path class="st0" d="M32.59,32.76c0-0.23-0.08-0.41-0.23-0.54s-0.36-0.2-0.63-0.2c-0.19,0-0.38,0.04-0.57,0.13
		s-0.37,0.22-0.54,0.38v-0.52c0.15-0.14,0.32-0.26,0.51-0.33c0.19-0.08,0.41-0.12,0.66-0.12c0.41,0,0.74,0.1,0.99,0.31
		c0.25,0.21,0.38,0.48,0.38,0.83c0,0.31-0.08,0.58-0.23,0.81s-0.42,0.46-0.79,0.7c-0.38,0.25-0.63,0.42-0.76,0.53
		c-0.13,0.11-0.22,0.21-0.27,0.3s-0.08,0.21-0.08,0.35h2.26v0.48h-2.85v-0.21c0-0.25,0.04-0.45,0.11-0.62s0.19-0.34,0.35-0.5
		c0.16-0.16,0.42-0.36,0.77-0.58c0.36-0.23,0.6-0.44,0.73-0.62C32.53,33.19,32.59,32.99,32.59,32.76z"/>
	<path class="st0" d="M33.88,33.86c0-0.75,0.13-1.32,0.4-1.7c0.27-0.38,0.65-0.58,1.15-0.58c0.96,0,1.44,0.73,1.44,2.18
		c0,0.72-0.14,1.26-0.41,1.64c-0.27,0.38-0.65,0.57-1.14,0.57c-0.46,0-0.82-0.18-1.07-0.54S33.88,34.55,33.88,33.86z M34.47,33.83
		c0,1.13,0.31,1.69,0.92,1.69c0.6,0,0.9-0.57,0.9-1.72c0-1.19-0.29-1.78-0.88-1.78C34.78,32.03,34.47,32.63,34.47,33.83z"/>
	<path class="st0" d="M39.31,34.42h-1.73v-0.41h1.73V34.42z"/>
	<path class="st0" d="M39.99,33.86c0-0.75,0.13-1.32,0.4-1.7c0.27-0.38,0.65-0.58,1.15-0.58c0.96,0,1.44,0.73,1.44,2.18
		c0,0.72-0.14,1.26-0.41,1.64c-0.27,0.38-0.65,0.57-1.14,0.57c-0.46,0-0.82-0.18-1.07-0.54S39.99,34.55,39.99,33.86z M40.58,33.83
		c0,1.13,0.31,1.69,0.92,1.69c0.6,0,0.9-0.57,0.9-1.72c0-1.19-0.29-1.78-0.88-1.78C40.89,32.03,40.58,32.63,40.58,33.83z"/>
	<path class="st0" d="M44.92,35.9v-3.63c-0.09,0.08-0.24,0.18-0.46,0.28s-0.41,0.18-0.59,0.22v-0.53c0.24-0.06,0.5-0.16,0.77-0.3
		c0.27-0.14,0.48-0.26,0.63-0.39h0.22v4.34H44.92z"/>
	<path class="st0" d="M48.95,34.42h-1.73v-0.41h1.73V34.42z"/>
	<path class="st0" d="M49.63,33.86c0-0.75,0.13-1.32,0.4-1.7c0.27-0.38,0.65-0.58,1.15-0.58c0.96,0,1.44,0.73,1.44,2.18
		c0,0.72-0.14,1.26-0.41,1.64c-0.27,0.38-0.65,0.57-1.14,0.57c-0.46,0-0.82-0.18-1.07-0.54S49.63,34.55,49.63,33.86z M50.21,33.83
		c0,1.13,0.31,1.69,0.92,1.69c0.6,0,0.9-0.57,0.9-1.72c0-1.19-0.29-1.78-0.88-1.78C50.52,32.03,50.21,32.63,50.21,33.83z"/>
	<path class="st0" d="M54.55,35.9v-3.63c-0.09,0.08-0.24,0.18-0.46,0.28s-0.41,0.18-0.59,0.22v-0.53c0.24-0.06,0.5-0.16,0.77-0.3
		c0.27-0.14,0.48-0.26,0.63-0.39h0.22v4.34H54.55z"/>
</g>
<g>
	<g>
		<path class="st97" d="M86.5,34.44h0.65c0.17,0,0.31-0.14,0.31-0.31c0-0.17-0.14-0.31-0.31-0.31H86.5c-0.17,0-0.31,0.14-0.31,0.31
			C86.16,34.3,86.3,34.44,86.5,34.44L86.5,34.44z M86.5,35.73h0.65c0.17,0,0.31-0.14,0.31-0.31c0-0.17-0.14-0.31-0.31-0.31H86.5
			c-0.17,0-0.31,0.14-0.31,0.31C86.19,35.59,86.3,35.73,86.5,35.73L86.5,35.73z M90.01,29.98h-1.29v-0.34
			c0-0.17-0.14-0.31-0.31-0.31s-0.31,0.14-0.31,0.31v0.31h-2.55v-0.31c0-0.17-0.14-0.31-0.31-0.31c-0.17,0-0.34,0.14-0.34,0.31v0.31
			h-1.29c-0.7,0.03-1.29,0.59-1.29,1.29v5.11c0,0.7,0.59,1.29,1.29,1.29h6.4c0.7,0,1.29-0.59,1.29-1.29v-5.11
			C91.3,30.54,90.71,29.98,90.01,29.98L90.01,29.98z M90.65,36.38c0,0.36-0.28,0.65-0.65,0.65h-6.4c-0.36,0-0.65-0.28-0.65-0.65
			v-3.84h7.69V36.38z M90.65,31.89h-7.69v-0.65c0-0.36,0.28-0.65,0.65-0.65h1.29v0.31c0,0.17,0.14,0.31,0.31,0.31
			s0.31-0.14,0.31-0.31v-0.28h2.55v0.31c0,0.17,0.14,0.31,0.31,0.31s0.31-0.14,0.31-0.31v-0.31h1.29c0.36,0,0.65,0.28,0.65,0.65
			v0.62H90.65z M84.56,35.73h0.65c0.17,0,0.31-0.14,0.31-0.31c0-0.17-0.14-0.31-0.31-0.31h-0.65c-0.17,0-0.31,0.14-0.31,0.31
			C84.26,35.59,84.4,35.73,84.56,35.73L84.56,35.73z M88.41,34.44h0.65c0.17,0,0.31-0.14,0.31-0.31c0-0.17-0.14-0.31-0.31-0.31
			h-0.65c-0.17,0-0.31,0.14-0.31,0.31C88.1,34.3,88.24,34.44,88.41,34.44L88.41,34.44z M84.56,34.44h0.65
			c0.17,0,0.31-0.14,0.31-0.31c0-0.17-0.14-0.31-0.31-0.31h-0.65c-0.17,0-0.31,0.14-0.31,0.31C84.26,34.3,84.4,34.44,84.56,34.44
			L84.56,34.44z M88.41,35.73h0.65c0.17,0,0.31-0.14,0.31-0.31c0-0.17-0.14-0.31-0.31-0.31h-0.65c-0.17,0-0.31,0.14-0.31,0.31
			C88.1,35.59,88.24,35.73,88.41,35.73L88.41,35.73z M88.41,35.73"/>
	</g>
</g>
</svg>
