<?xml version="1.0" encoding="utf-8"?>
<!-- Generator: Adobe Illustrator 23.0.0, SVG Export Plug-In . SVG Version: 6.00 Build 0)  -->
<svg version="1.1" id="图层_1" xmlns="http://www.w3.org/2000/svg" xmlns:xlink="http://www.w3.org/1999/xlink" x="0px" y="0px"
	 viewBox="0 0 114 65" style="enable-background:new 0 0 114 65;" xml:space="preserve">
<style type="text/css">
	.st0{fill:#4C7EF1;}
	.st1{fill:#29CB97;}
	.st2{fill:#FEC400;}
	.st3{fill:#B35AF1;}
	.st4{fill:#29C997;}
	.st5{fill:#FFFFFF;}
	.st6{fill:#6B6B6B;}
	.st7{fill:#444444;}
	.st8{opacity:0.1;fill:#FFFFFF;}
	.st9{opacity:0.1;}
	.st10{fill:none;stroke:#F24343;stroke-width:14;stroke-miterlimit:10;}
	.st11{fill:none;stroke:#FFFFFF;stroke-width:14;stroke-miterlimit:10;}
	.st12{fill:none;stroke:#4C7EF1;stroke-width:14;stroke-miterlimit:10;}
	.st13{fill:none;stroke:#FEAB05;stroke-width:14;stroke-miterlimit:10;}
	.st14{fill:none;stroke:#29CB97;stroke-width:8;stroke-miterlimit:10;}
	.st15{fill:none;stroke:#29CB97;stroke-width:16;stroke-miterlimit:10;}
	.st16{fill:none;stroke:#FEC400;stroke-width:16;stroke-miterlimit:10;}
	.st17{fill:none;stroke:#FEAB05;stroke-width:16;stroke-miterlimit:10;}
	.st18{fill:none;stroke:#FEC400;stroke-width:8;stroke-miterlimit:10;}
	.st19{fill:none;stroke:#676767;stroke-width:8;stroke-miterlimit:10;}
	.st20{fill:none;stroke:#FEC400;stroke-width:2;stroke-miterlimit:10;}
	.st21{fill:#E6E6E6;}
	.st22{fill:#74D889;}
	.st23{fill:#FFDC70;}
	.st24{fill:#47ABFC;}
	.st25{fill:none;stroke:#FFFFFF;stroke-miterlimit:10;}
	.st26{fill:#4C7EF1;stroke:#0B0C0E;stroke-miterlimit:10;}
	.st27{fill:#FEC400;stroke:#0B0C0E;stroke-miterlimit:10;}
	.st28{fill:none;stroke:#AAA9A9;stroke-miterlimit:10;}
	.st29{fill:none;stroke:#A5A4A4;stroke-width:2;stroke-miterlimit:10;stroke-dasharray:1.0005,4.002;}
	.st30{fill:none;stroke:#4C7EF1;stroke-width:40;stroke-miterlimit:10;}
	.st31{fill:none;stroke:#FEC400;stroke-width:40;stroke-miterlimit:10;}
	.st32{fill:none;stroke:#676767;stroke-width:20;stroke-miterlimit:10;}
	.st33{fill:none;stroke:#FEC400;stroke-width:20;stroke-miterlimit:10;}
	.st34{fill:none;stroke:#29C997;stroke-width:20;stroke-miterlimit:10;}
	.st35{fill:none;stroke:#FFFFFF;stroke-width:20;stroke-miterlimit:10;}
	.st36{fill:none;stroke:#000000;stroke-miterlimit:10;}
	.st37{fill:none;stroke:#FFFFFF;stroke-width:2;stroke-miterlimit:10;stroke-dasharray:3.941,3.941;}
	.st38{opacity:0.5;fill:none;stroke:#FFFFFF;stroke-width:0.4926;stroke-miterlimit:10;stroke-dasharray:3.941,3.941;}
	.st39{fill:none;stroke:#00B091;stroke-width:4;stroke-miterlimit:10;}
	.st40{fill:none;stroke:#EDBF00;stroke-width:4;stroke-miterlimit:10;}
	.st41{fill:#EDBF00;}
	.st42{fill:#00B091;}
	.st43{opacity:0.8;fill:#00B091;}
	.st44{opacity:0.8;fill:#EDBF00;}
	.st45{opacity:0.8;fill:#D85700;}
	.st46{fill:#4C7EF1;stroke:#4C7EF1;stroke-miterlimit:10;}
	.st47{opacity:0.65;fill:url(#SVGID_1_);}
	.st48{opacity:0.65;fill:url(#SVGID_2_);}
	.st49{opacity:0.65;fill:url(#SVGID_3_);}
	.st50{fill:#292E34;}
	.st51{opacity:0.6;}
	.st52{fill:#334469;}
	.st53{fill:#FEAB05;}
	.st54{opacity:0.4;fill:#0B0C0E;}
	.st55{opacity:0.7;}
	.st56{fill:#F24343;}
	.st57{opacity:0.42;fill:#676767;stroke:#F0F2F8;stroke-miterlimit:10;}
	.st58{fill:none;stroke:#F0F2F8;stroke-width:2;stroke-miterlimit:10;}
	.st59{clip-path:url(#SVGID_5_);}
	.st60{fill:#3B86FF;}
	.st61{opacity:0.36;}
	.st62{fill:#4170ED;}
	.st63{fill:#999999;}
	.st64{opacity:0.15;}
	.st65{clip-path:url(#SVGID_7_);}
	.st66{fill:#1CCC96;}
	.st67{opacity:0.43;}
	.st68{clip-path:url(#SVGID_9_);}
	.st69{fill:#30C3E9;}
	.st70{clip-path:url(#SVGID_11_);}
	.st71{fill:#BCEAEC;}
	.st72{opacity:0.14;}
	.st73{clip-path:url(#SVGID_13_);}
	.st74{fill:#FBC400;}
	.st75{fill:#1F1F1F;}
	.st76{fill:none;stroke:url(#SVGID_14_);stroke-width:0.15;stroke-miterlimit:10;}
	.st77{fill:none;stroke:#00B091;stroke-width:0.15;stroke-miterlimit:10;}
	.st78{fill:none;stroke:url(#SVGID_15_);stroke-width:0.15;stroke-miterlimit:10;}
	.st79{fill:none;stroke:url(#SVGID_16_);stroke-width:0.15;stroke-miterlimit:10;}
	.st80{fill:none;stroke:url(#SVGID_17_);stroke-width:0.15;stroke-miterlimit:10;}
	.st81{fill:none;stroke:url(#SVGID_18_);stroke-width:0.15;stroke-miterlimit:10;}
	.st82{opacity:0.5;fill:#4170ED;}
	.st83{fill:#666666;}
	.st84{fill:none;stroke:#4170ED;stroke-width:0.5;stroke-miterlimit:10;}
	.st85{fill:none;stroke:url(#SVGID_19_);stroke-width:0.5;stroke-miterlimit:10;stroke-dasharray:0.9965,0.9965;}
	.st86{opacity:0.4;}
	.st87{fill:url(#SVGID_20_);stroke:url(#SVGID_21_);stroke-width:0.5;stroke-miterlimit:10;}
	.st88{fill:none;stroke:url(#SVGID_22_);stroke-width:0.5;stroke-miterlimit:10;}
	.st89{fill:url(#SVGID_23_);stroke:url(#SVGID_24_);stroke-width:0.5;stroke-miterlimit:10;}
	.st90{fill:none;stroke:url(#SVGID_25_);stroke-width:0.5;stroke-miterlimit:10;stroke-dasharray:0.9965,0.9965;}
	.st91{fill:url(#SVGID_26_);}
	.st92{fill:none;stroke:url(#SVGID_27_);stroke-width:0.5;stroke-miterlimit:10;stroke-dasharray:0.994,0.994;}
	.st93{fill:none;stroke:url(#SVGID_28_);stroke-width:0.5;stroke-miterlimit:10;}
	.st94{fill:none;stroke:url(#SVGID_29_);stroke-width:0.5;stroke-miterlimit:10;}
	.st95{fill:none;stroke:url(#SVGID_30_);stroke-width:0.5;stroke-miterlimit:10;}
	.st96{fill:url(#SVGID_31_);stroke:url(#SVGID_32_);stroke-width:0.5;stroke-miterlimit:10;}
	.st97{fill:#3885E9;}
	.st98{opacity:0.33;}
	.st99{fill:none;stroke:#999999;stroke-miterlimit:10;}
	.st100{fill:none;stroke:#4170ED;stroke-miterlimit:10;}
	.st101{fill:none;stroke:url(#SVGID_33_);stroke-width:0.5;stroke-miterlimit:10;}
	.st102{fill:url(#SVGID_34_);}
	.st103{opacity:0.3;fill:none;stroke:#4170ED;stroke-miterlimit:10;}
	.st104{opacity:0.87;fill:none;stroke:url(#SVGID_35_);stroke-miterlimit:10;}
	.st105{opacity:0.53;fill:#FFFFFF;}
	.st106{clip-path:url(#SVGID_37_);fill:#BFBFBF;}
	.st107{fill:#BFBFBF;}
	.st108{clip-path:url(#SVGID_39_);fill:#BFBFBF;}
	.st109{clip-path:url(#SVGID_41_);fill:#BFBFBF;}
	.st110{clip-path:url(#SVGID_43_);fill:#BFBFBF;}
	.st111{clip-path:url(#SVGID_45_);fill:#BFBFBF;}
	.st112{clip-path:url(#SVGID_47_);fill:#BFBFBF;}
	.st113{clip-path:url(#SVGID_49_);fill:#BFBFBF;}
	.st114{fill:none;}
	.st115{fill:#1B3E60;}
	.st116{fill:#31446D;stroke:#4170ED;stroke-width:0.5;stroke-miterlimit:10;}
	.st117{opacity:0.31;fill:#EDBF00;}
	.st118{opacity:0.31;fill:#00B091;}
	.st119{fill:#31446D;stroke:#4C7EF1;stroke-width:0.5;stroke-miterlimit:10;}
	.st120{fill:url(#SVGID_50_);}
	.st121{fill:url(#SVGID_51_);stroke:url(#SVGID_52_);stroke-width:0.5;stroke-miterlimit:10;}
	.st122{fill:url(#SVGID_53_);}
	.st123{clip-path:url(#SVGID_55_);fill:#BFBFBF;}
	.st124{clip-path:url(#SVGID_57_);fill:#BFBFBF;}
	.st125{clip-path:url(#SVGID_59_);fill:#BFBFBF;}
	.st126{clip-path:url(#SVGID_61_);fill:#BFBFBF;}
	.st127{clip-path:url(#SVGID_63_);fill:#BFBFBF;}
	.st128{clip-path:url(#SVGID_65_);fill:#BFBFBF;}
	.st129{fill:url(#XMLID_5_);}
	.st130{fill:none;stroke:#4C7EF1;stroke-width:0.25;stroke-miterlimit:10;}
	.st131{opacity:0.5;fill:#4C7EF1;}
	.st132{fill:url(#SVGID_66_);}
	.st133{fill:url(#SVGID_67_);}
	.st134{fill:url(#SVGID_68_);}
	.st135{fill:url(#SVGID_69_);}
	.st136{fill:url(#SVGID_70_);}
</style>
<linearGradient id="SVGID_1_" gradientUnits="userSpaceOnUse" x1="73.0164" y1="61.7783" x2="40.9836" y2="6.2957">
	<stop  offset="0" style="stop-color:#4170ED;stop-opacity:0.4"/>
	<stop  offset="1" style="stop-color:#292E34;stop-opacity:0"/>
</linearGradient>
<rect x="24.58" y="16.55" style="opacity:0.87;fill:none;stroke:url(#SVGID_1_);stroke-miterlimit:10;" width="64.83" height="34.97"/>
<g>
	<g>
		<path class="st62" d="M54.72,29.15c-0.2,0-0.39,0.06-0.53,0.18c-0.14,0.12-0.22,0.28-0.23,0.45v0.61c0,0.17,0.09,0.33,0.23,0.45
			c0.14,0.12,0.34,0.18,0.54,0.18c0.2,0,0.39-0.06,0.54-0.18c0.14-0.12,0.23-0.28,0.23-0.45v-0.61c0-0.17-0.09-0.33-0.23-0.45
			C55.11,29.21,54.92,29.14,54.72,29.15L54.72,29.15z M60.17,31.01c0.2,0,0.39-0.06,0.54-0.18c0.14-0.12,0.23-0.28,0.23-0.45v-0.61
			c0-0.17-0.09-0.33-0.23-0.45c-0.14-0.12-0.34-0.18-0.54-0.18c-0.2,0-0.39,0.06-0.54,0.18c-0.14,0.12-0.23,0.28-0.23,0.45v0.61
			c0,0.17,0.09,0.33,0.23,0.45C59.78,30.95,59.98,31.01,60.17,31.01L60.17,31.01z M55.64,31.56c-0.17,0.08-0.29,0.22-0.34,0.39
			c-0.05,0.16-0.01,0.34,0.09,0.48c0.27,0.36,1.03,0.98,2.11,0.98c1.07,0,1.84-0.61,2.12-0.97c0.11-0.14,0.15-0.31,0.1-0.48
			c-0.04-0.16-0.16-0.31-0.33-0.39c-0.36-0.19-0.82-0.1-1.06,0.19c0,0-0.33,0.39-0.83,0.39c-0.49,0-0.79-0.36-0.81-0.39
			C56.46,31.46,55.99,31.37,55.64,31.56L55.64,31.56z M55.64,31.56"/>
		<path class="st62" d="M65.09,26.09H58.9c-0.2,0-0.39,0.06-0.54,0.18c-0.14,0.12-0.23,0.28-0.23,0.45c0,0.17,0.09,0.33,0.23,0.45
			c0.14,0.12,0.34,0.18,0.54,0.18h6.19c0.98,0,1.78,0.66,1.78,1.46v7.97l-4.63-3.32c-0.3-0.21-0.74-0.2-1.03,0.02l-4.83,3.81
			l-3.89-3.15c-0.29-0.23-0.75-0.24-1.06-0.01l-3.41,2.6v-7.92c0-0.81,0.8-1.46,1.78-1.46h6.19c0.2,0,0.39-0.06,0.54-0.18
			c0.14-0.12,0.23-0.28,0.23-0.45c0-0.17-0.08-0.33-0.23-0.45c-0.14-0.12-0.34-0.18-0.54-0.18H49.8c-1.83,0-3.31,1.22-3.31,2.72
			v10.46c0,1.5,1.48,2.72,3.31,2.72h6.19c0.2,0,0.39-0.06,0.54-0.18c0.14-0.12,0.23-0.28,0.23-0.45c0-0.17-0.09-0.33-0.23-0.45
			c-0.14-0.12-0.34-0.18-0.54-0.18H49.8c-0.98,0-1.78-0.66-1.78-1.46v-0.83l3.92-2.98l3.9,3.16c0.3,0.24,0.76,0.24,1.07,0l4.86-3.83
			l5.11,3.66v0.82c0,0.81-0.8,1.46-1.78,1.46H58.9c-0.2,0-0.39,0.06-0.54,0.18c-0.14,0.12-0.23,0.28-0.23,0.45
			c0,0.17,0.09,0.33,0.23,0.45c0.14,0.12,0.34,0.18,0.54,0.18h6.19c1.83,0,3.31-1.22,3.31-2.72V28.81
			C68.4,27.31,66.92,26.09,65.09,26.09L65.09,26.09z M65.09,26.09"/>
	</g>
</g>
</svg>
