<?xml version="1.0" encoding="utf-8"?>
<!-- Generator: Adobe Illustrator 23.0.0, SVG Export Plug-In . SVG Version: 6.00 Build 0)  -->
<svg version="1.1" id="图层_1" xmlns="http://www.w3.org/2000/svg" xmlns:xlink="http://www.w3.org/1999/xlink" x="0px" y="0px"
	 viewBox="0 0 114 65" style="enable-background:new 0 0 114 65;" xml:space="preserve">
<style type="text/css">
	.st0{fill:#4C7EF1;}
	.st1{fill:#29CB97;}
	.st2{fill:#FEC400;}
	.st3{fill:#B35AF1;}
	.st4{fill:#29C997;}
	.st5{fill:#FFFFFF;}
	.st6{fill:#6B6B6B;}
	.st7{fill:#444444;}
	.st8{opacity:0.1;fill:#FFFFFF;}
	.st9{opacity:0.1;}
	.st10{fill:none;stroke:#F24343;stroke-width:14;stroke-miterlimit:10;}
	.st11{fill:none;stroke:#FFFFFF;stroke-width:14;stroke-miterlimit:10;}
	.st12{fill:none;stroke:#4C7EF1;stroke-width:14;stroke-miterlimit:10;}
	.st13{fill:none;stroke:#FEAB05;stroke-width:14;stroke-miterlimit:10;}
	.st14{fill:none;stroke:#29CB97;stroke-width:8;stroke-miterlimit:10;}
	.st15{fill:none;stroke:#29CB97;stroke-width:16;stroke-miterlimit:10;}
	.st16{fill:none;stroke:#FEC400;stroke-width:16;stroke-miterlimit:10;}
	.st17{fill:none;stroke:#FEAB05;stroke-width:16;stroke-miterlimit:10;}
	.st18{fill:none;stroke:#FEC400;stroke-width:8;stroke-miterlimit:10;}
	.st19{fill:none;stroke:#676767;stroke-width:8;stroke-miterlimit:10;}
	.st20{fill:none;stroke:#FEC400;stroke-width:2;stroke-miterlimit:10;}
	.st21{fill:#E6E6E6;}
	.st22{fill:#74D889;}
	.st23{fill:#FFDC70;}
	.st24{fill:#47ABFC;}
	.st25{fill:none;stroke:#FFFFFF;stroke-miterlimit:10;}
	.st26{fill:#4C7EF1;stroke:#0B0C0E;stroke-miterlimit:10;}
	.st27{fill:#FEC400;stroke:#0B0C0E;stroke-miterlimit:10;}
	.st28{fill:none;stroke:#AAA9A9;stroke-miterlimit:10;}
	.st29{fill:none;stroke:#A5A4A4;stroke-width:2;stroke-miterlimit:10;stroke-dasharray:1.0005,4.002;}
	.st30{fill:none;stroke:#4C7EF1;stroke-width:40;stroke-miterlimit:10;}
	.st31{fill:none;stroke:#FEC400;stroke-width:40;stroke-miterlimit:10;}
	.st32{fill:none;stroke:#676767;stroke-width:20;stroke-miterlimit:10;}
	.st33{fill:none;stroke:#FEC400;stroke-width:20;stroke-miterlimit:10;}
	.st34{fill:none;stroke:#29C997;stroke-width:20;stroke-miterlimit:10;}
	.st35{fill:none;stroke:#FFFFFF;stroke-width:20;stroke-miterlimit:10;}
	.st36{fill:none;stroke:#000000;stroke-miterlimit:10;}
	.st37{fill:none;stroke:#FFFFFF;stroke-width:2;stroke-miterlimit:10;stroke-dasharray:3.941,3.941;}
	.st38{opacity:0.5;fill:none;stroke:#FFFFFF;stroke-width:0.4926;stroke-miterlimit:10;stroke-dasharray:3.941,3.941;}
	.st39{fill:none;stroke:#00B091;stroke-width:4;stroke-miterlimit:10;}
	.st40{fill:none;stroke:#EDBF00;stroke-width:4;stroke-miterlimit:10;}
	.st41{fill:#EDBF00;}
	.st42{fill:#00B091;}
	.st43{opacity:0.8;fill:#00B091;}
	.st44{opacity:0.8;fill:#EDBF00;}
	.st45{opacity:0.8;fill:#D85700;}
	.st46{fill:#4C7EF1;stroke:#4C7EF1;stroke-miterlimit:10;}
	.st47{opacity:0.65;fill:url(#SVGID_1_);}
	.st48{opacity:0.65;fill:url(#SVGID_2_);}
	.st49{opacity:0.65;fill:url(#SVGID_3_);}
	.st50{fill:#292E34;}
	.st51{opacity:0.6;}
	.st52{fill:#334469;}
	.st53{fill:#FEAB05;}
	.st54{opacity:0.4;fill:#0B0C0E;}
	.st55{opacity:0.7;}
	.st56{fill:#F24343;}
	.st57{opacity:0.42;fill:#676767;stroke:#F0F2F8;stroke-miterlimit:10;}
	.st58{fill:none;stroke:#F0F2F8;stroke-width:2;stroke-miterlimit:10;}
	.st59{clip-path:url(#SVGID_5_);}
	.st60{fill:#3B86FF;}
	.st61{opacity:0.36;}
	.st62{opacity:0.15;}
	.st63{opacity:0.43;}
	.st64{opacity:0.14;}
	.st65{fill:#1F1F1F;}
	.st66{fill:none;stroke:url(#SVGID_14_);stroke-width:0.15;stroke-miterlimit:10;}
	.st67{fill:none;stroke:#00B091;stroke-width:0.15;stroke-miterlimit:10;}
	.st68{fill:none;stroke:url(#SVGID_15_);stroke-width:0.15;stroke-miterlimit:10;}
	.st69{fill:none;stroke:url(#SVGID_16_);stroke-width:0.15;stroke-miterlimit:10;}
	.st70{fill:none;stroke:url(#SVGID_17_);stroke-width:0.15;stroke-miterlimit:10;}
	.st71{fill:none;stroke:url(#SVGID_18_);stroke-width:0.15;stroke-miterlimit:10;}
	.st72{opacity:0.5;fill:#4170ED;}
	.st73{fill:#4170ED;}
	.st74{fill:none;stroke:#4170ED;stroke-width:0.5;stroke-miterlimit:10;}
	.st75{fill:none;stroke:url(#SVGID_19_);stroke-width:0.5;stroke-miterlimit:10;stroke-dasharray:0.9965,0.9965;}
	.st76{opacity:0.4;}
	.st77{fill:url(#SVGID_20_);stroke:url(#SVGID_21_);stroke-width:0.5;stroke-miterlimit:10;}
	.st78{fill:none;stroke:url(#SVGID_22_);stroke-width:0.5;stroke-miterlimit:10;}
	.st79{fill:url(#SVGID_23_);stroke:url(#SVGID_24_);stroke-width:0.5;stroke-miterlimit:10;}
	.st80{fill:none;stroke:url(#SVGID_25_);stroke-width:0.5;stroke-miterlimit:10;stroke-dasharray:0.9965,0.9965;}
	.st81{fill:url(#SVGID_26_);}
	.st82{fill:none;stroke:url(#SVGID_27_);stroke-width:0.5;stroke-miterlimit:10;stroke-dasharray:0.994,0.994;}
	.st83{fill:none;stroke:url(#SVGID_28_);stroke-width:0.5;stroke-miterlimit:10;}
	.st84{fill:none;stroke:url(#SVGID_29_);stroke-width:0.5;stroke-miterlimit:10;}
	.st85{fill:none;stroke:url(#SVGID_30_);stroke-width:0.5;stroke-miterlimit:10;}
	.st86{fill:url(#SVGID_31_);stroke:url(#SVGID_32_);stroke-width:0.5;stroke-miterlimit:10;}
	.st87{fill:#3885E9;}
	.st88{fill:#666666;}
	.st89{opacity:0.33;}
	.st90{fill:#999999;}
	.st91{fill:none;stroke:#999999;stroke-miterlimit:10;}
	.st92{fill:none;stroke:#4170ED;stroke-miterlimit:10;}
	.st93{fill:none;stroke:url(#SVGID_33_);stroke-width:0.5;stroke-miterlimit:10;}
	.st94{fill:url(#SVGID_34_);}
	.st95{opacity:0.3;fill:none;stroke:#4170ED;stroke-miterlimit:10;}
	.st96{opacity:0.87;fill:none;stroke:url(#SVGID_35_);stroke-miterlimit:10;}
	.st97{opacity:0.53;fill:#FFFFFF;}
	.st98{clip-path:url(#SVGID_37_);fill:#BFBFBF;}
	.st99{fill:#BFBFBF;}
	.st100{clip-path:url(#SVGID_39_);fill:#BFBFBF;}
	.st101{clip-path:url(#SVGID_41_);fill:#BFBFBF;}
	.st102{clip-path:url(#SVGID_43_);fill:#BFBFBF;}
	.st103{clip-path:url(#SVGID_45_);fill:#BFBFBF;}
	.st104{clip-path:url(#SVGID_47_);fill:#BFBFBF;}
	.st105{clip-path:url(#SVGID_49_);fill:#BFBFBF;}
	.st106{fill:none;}
	.st107{fill:#1B3E60;}
	.st108{fill:#31446D;stroke:#4170ED;stroke-width:0.5;stroke-miterlimit:10;}
	.st109{opacity:0.31;fill:#EDBF00;}
	.st110{opacity:0.31;fill:#00B091;}
	.st111{fill:#31446D;stroke:#4C7EF1;stroke-width:0.5;stroke-miterlimit:10;}
	.st112{fill:url(#SVGID_50_);}
	.st113{fill:url(#SVGID_51_);stroke:url(#SVGID_52_);stroke-width:0.5;stroke-miterlimit:10;}
	.st114{clip-path:url(#SVGID_54_);fill:#BFBFBF;}
	.st115{clip-path:url(#SVGID_56_);fill:#BFBFBF;}
	.st116{clip-path:url(#SVGID_58_);fill:#BFBFBF;}
	.st117{clip-path:url(#SVGID_60_);fill:#BFBFBF;}
	.st118{clip-path:url(#SVGID_62_);fill:#BFBFBF;}
	.st119{clip-path:url(#SVGID_64_);fill:#BFBFBF;}
	.st120{fill:url(#XMLID_452_);}
	.st121{fill:none;stroke:#4C7EF1;stroke-width:0.25;stroke-miterlimit:10;}
	.st122{opacity:0.5;fill:#4C7EF1;}
	.st123{fill:url(#SVGID_65_);}
	.st124{fill:url(#SVGID_66_);}
	.st125{fill:url(#SVGID_67_);}
	.st126{fill:url(#SVGID_68_);}
	.st127{fill:url(#SVGID_69_);}
	.st128{fill:none;stroke:#4C7EF1;stroke-width:0.5;stroke-miterlimit:10;}
</style>
<g>
	<path class="st74" d="M95.9,40.89H20.55c-0.55,0-1-0.45-1-1V25.11c0-0.55,0.45-1,1-1H95.9c0.55,0,1,0.45,1,1v14.78
		C96.9,40.44,96.46,40.89,95.9,40.89z"/>
	<g>
		<path class="st0" d="M38.37,35.62l1.22,0.01l2.16-0.04c-0.04,0.12-0.1,0.26-0.16,0.43l-2.04,0.02l-1.23-0.02
			c-0.7-0.02-1.19-0.24-1.46-0.66c-0.16,0.14-0.39,0.38-0.7,0.73l-0.24-0.46c0.35-0.31,0.6-0.54,0.75-0.67v-1.85h-0.7v-0.41h1.15
			v2.34C37.35,35.43,37.77,35.62,38.37,35.62z M36.64,30.88c0.2,0.23,0.47,0.57,0.82,1.04l-0.42,0.27
			c-0.32-0.46-0.58-0.82-0.78-1.07L36.64,30.88z M37.49,33.04h1.94v-0.92h-0.99c-0.12,0.28-0.24,0.53-0.37,0.75
			c-0.1-0.06-0.24-0.13-0.41-0.2c0.3-0.5,0.53-1.06,0.68-1.67l0.46,0.09c-0.07,0.23-0.14,0.44-0.21,0.65h0.84v-0.95h0.46v0.95h1.53
			v0.38h-1.53v0.92h1.81v0.38h-1.38v1.17c0,0.19,0.09,0.29,0.26,0.29h0.28c0.18,0,0.28-0.09,0.31-0.26
			c0.02-0.14,0.04-0.36,0.06-0.65c0.12,0.05,0.27,0.1,0.45,0.16c-0.03,0.25-0.06,0.46-0.1,0.64c-0.06,0.33-0.29,0.49-0.67,0.49
			h-0.43c-0.41,0-0.61-0.21-0.61-0.62v-1.22h-0.79c0,0.17-0.01,0.31-0.01,0.44c-0.02,0.68-0.43,1.19-1.23,1.52
			c-0.08-0.11-0.18-0.23-0.29-0.37c0.69-0.27,1.04-0.65,1.07-1.15c0.01-0.11,0.01-0.26,0.02-0.44h-1.14V33.04z"/>
		<path class="st0" d="M41.92,33.74c0.29-0.06,0.56-0.12,0.83-0.18v-1.3h-0.77v-0.38h0.77V30.8h0.44v1.07h0.75v0.38h-0.75v1.2
			c0.21-0.05,0.42-0.1,0.62-0.15c0.01,0.16,0.02,0.3,0.04,0.41c-0.23,0.06-0.45,0.11-0.66,0.17v1.64c0,0.41-0.2,0.61-0.59,0.61
			c-0.09,0-0.28,0-0.55-0.01c-0.02-0.15-0.04-0.3-0.08-0.44c0.22,0.03,0.4,0.04,0.52,0.04c0.17,0,0.26-0.1,0.26-0.29v-1.43
			c-0.27,0.07-0.53,0.14-0.77,0.2L41.92,33.74z M43.72,34.81h1.82v-0.64h-1.46v-0.39h1.46v-0.63h0.45v0.63h1.5v0.39h-1.5v0.64h1.78
			v0.39h-1.78v0.94h-0.45v-0.94h-1.82V34.81z M44.02,31.43v-0.38h3.35v0.37c-0.25,0.43-0.63,0.8-1.14,1.12
			c0.43,0.17,0.95,0.29,1.54,0.36c-0.1,0.17-0.18,0.31-0.25,0.43c-0.68-0.13-1.26-0.31-1.74-0.54c-0.49,0.24-1.08,0.45-1.76,0.61
			c-0.05-0.13-0.11-0.26-0.2-0.41c0.58-0.13,1.09-0.28,1.52-0.46c-0.45-0.3-0.78-0.67-0.98-1.11H44.02z M46.85,31.43H44.8
			c0.21,0.37,0.54,0.67,0.97,0.91C46.27,32.08,46.62,31.78,46.85,31.43z"/>
		<path class="st0" d="M48.76,31.14h4.18v4.98h-0.5v-0.39h-3.18v0.39h-0.5V31.14z M49.25,31.55v1.64h3.18v-1.64H49.25z M49.25,33.61
			v1.73h3.18v-1.73H49.25z"/>
		<path class="st0" d="M54.94,34.93l0.36,0.26c-0.39,0.4-0.75,0.73-1.08,1c-0.08-0.09-0.19-0.18-0.31-0.29
			C54.28,35.61,54.63,35.28,54.94,34.93z M53.96,34.45h0.55v-2.53h-0.48v-0.37h0.48v-0.67h0.43v0.67h1.22v-0.69h0.43v0.69h0.47v0.37
			H56.6v2.53h0.47v0.37h-3.11V34.45z M54.94,32.52h1.22v-0.61h-1.22V32.52z M54.94,33.48h1.22v-0.61h-1.22V33.48z M54.94,34.45h1.22
			v-0.61h-1.22V34.45z M55.71,35.19l0.28-0.27c0.27,0.19,0.53,0.38,0.77,0.58l-0.31,0.31C56.24,35.6,55.99,35.39,55.71,35.19z
			 M57.37,31.01h2.07v4.45c0,0.43-0.22,0.65-0.66,0.65c-0.22,0-0.43-0.01-0.64-0.02c-0.02-0.12-0.04-0.26-0.07-0.42
			c0.29,0.03,0.49,0.04,0.62,0.04c0.21,0,0.32-0.1,0.32-0.3v-1.15h-1.25c-0.04,0.8-0.3,1.47-0.78,2c-0.11-0.1-0.22-0.21-0.35-0.31
			c0.32-0.34,0.52-0.69,0.6-1.06c0.09-0.35,0.14-0.96,0.14-1.83V31.01z M57.79,33.88h1.23v-1.07h-1.21
			C57.81,33.28,57.81,33.64,57.79,33.88z M59.02,31.38h-1.21v1.07h1.21V31.38z"/>
		<path class="st0" d="M60.16,31.3h2.02v4.47h-0.46v-0.46h-1.1v0.52h-0.46V31.3z M61.72,31.71h-1.1v1.39h1.1V31.71z M60.63,34.91
			h1.1v-1.42h-1.1V34.91z M62.38,31.99h2.08v-1.21h0.47v1.21h0.83v0.41h-0.83v2.95c0,0.49-0.25,0.74-0.75,0.74
			c-0.23,0-0.56-0.01-1-0.02c-0.02-0.13-0.05-0.29-0.09-0.46c0.41,0.03,0.73,0.04,0.96,0.04c0.27,0,0.41-0.13,0.41-0.39V32.4h-2.08
			V31.99z M63.03,32.93c0.31,0.53,0.55,0.96,0.71,1.28c-0.1,0.04-0.26,0.12-0.47,0.22c-0.15-0.35-0.37-0.78-0.66-1.3L63.03,32.93z"
			/>
		<path class="st0" d="M66.23,31.87h0.46v4.3h-0.46V31.87z M66.54,31.06l0.33-0.28c0.3,0.26,0.57,0.52,0.83,0.77l-0.38,0.31
			C67.08,31.6,66.82,31.33,66.54,31.06z M67.59,32.25h2.48v2.71h-2.06v0.34h-0.42V32.25z M69.65,32.64h-1.64v0.77h1.64V32.64z
			 M68.01,34.58h1.64V33.8h-1.64V34.58z M68.08,31.54v-0.41h3.4v4.34c0,0.46-0.28,0.69-0.84,0.69c-0.23,0-0.52,0-0.89-0.01
			c-0.02-0.11-0.05-0.26-0.09-0.44c0.32,0.02,0.63,0.03,0.93,0.03s0.44-0.13,0.44-0.4v-3.8H68.08z"/>
	</g>
	<g>
		<path class="st0" d="M31.35,33.42h-1.7v-1.62c0-0.13-0.11-0.23-0.24-0.23c-0.13,0-0.24,0.11-0.24,0.23v1.84c0,0,0,0,0,0.01v0
			c0,0.06,0.03,0.12,0.08,0.17c0.05,0.04,0.11,0.06,0.16,0.06h1.94c0.13-0.03,0.25-0.13,0.24-0.23
			C31.59,33.52,31.47,33.42,31.35,33.42L31.35,33.42z M31.65,30.69l0.29-0.27c0.1-0.09,0.1-0.24,0-0.33c-0.09-0.09-0.25-0.09-0.35,0
			l-0.34,0.32c0,0-0.01,0.01-0.01,0.01c-0.47-0.26-1.01-0.43-1.59-0.46c0,0,0-0.01,0-0.01V29.5h0.49c0.04,0,0.08-0.01,0.11-0.03
			c0.07-0.04,0.12-0.1,0.13-0.18c0-0.01,0-0.02,0-0.02c0-0.02,0-0.03,0-0.05c0-0.01-0.01-0.03-0.01-0.04
			c-0.01-0.02-0.02-0.04-0.03-0.05c-0.01-0.01-0.01-0.01-0.02-0.02c-0.01-0.01-0.01-0.01-0.02-0.02c-0.02-0.01-0.04-0.02-0.06-0.03
			c-0.01-0.01-0.03-0.01-0.04-0.01c-0.01,0-0.02,0-0.03,0c-0.01,0-0.02,0-0.02,0h-1.46c-0.12,0-0.21,0.08-0.24,0.18
			c0,0.02,0,0.03,0,0.05c0,0.01,0,0.02,0,0.02c0,0.01,0,0.02,0.01,0.03c0,0.01,0.01,0.02,0.01,0.03c0.01,0.02,0.02,0.04,0.04,0.06
			c0.01,0.01,0.01,0.01,0.02,0.02c0.01,0.01,0.01,0.01,0.02,0.02c0.02,0.01,0.04,0.03,0.06,0.03c0.01,0,0.02,0.01,0.03,0.01
			c0.02,0,0.04,0.01,0.05,0.01h0.49c0,0,0,0,0,0v0.46c0,0,0,0.01,0,0.01c-0.58,0.04-1.12,0.2-1.59,0.46c0,0-0.01-0.01-0.01-0.01
			l-0.34-0.32c-0.1-0.09-0.25-0.09-0.35,0c-0.1,0.09-0.09,0.24,0,0.33l0.29,0.27c-0.85,0.63-1.4,1.62-1.4,2.73
			c0,1.91,1.63,3.46,3.65,3.46c2.01,0,3.65-1.55,3.65-3.46C33.05,32.31,32.51,31.33,31.65,30.69L31.65,30.69z M29.41,36.43
			c-1.75,0-3.16-1.34-3.16-3c0-1.66,1.41-3,3.16-3c1.75,0,3.16,1.34,3.16,3C32.57,35.08,31.15,36.43,29.41,36.43L29.41,36.43z
			 M29.41,36.43"/>
	</g>
</g>
</svg>
