<?xml version="1.0" encoding="utf-8"?>
<!-- Generator: Adobe Illustrator 23.0.0, SVG Export Plug-In . SVG Version: 6.00 Build 0)  -->
<svg version="1.1" id="图层_1" xmlns="http://www.w3.org/2000/svg" xmlns:xlink="http://www.w3.org/1999/xlink" x="0px" y="0px"
	 viewBox="0 0 114 65" style="enable-background:new 0 0 114 65;" xml:space="preserve">
<style type="text/css">
	.st0{fill:#4C7EF1;}
	.st1{fill:#29CB97;}
	.st2{fill:#FEC400;}
	.st3{fill:#B35AF1;}
	.st4{fill:#29C997;}
	.st5{fill:#FFFFFF;}
	.st6{fill:#6B6B6B;}
	.st7{fill:#444444;}
	.st8{opacity:0.1;fill:#FFFFFF;}
	.st9{opacity:0.1;}
	.st10{fill:none;stroke:#F24343;stroke-width:14;stroke-miterlimit:10;}
	.st11{fill:none;stroke:#FFFFFF;stroke-width:14;stroke-miterlimit:10;}
	.st12{fill:none;stroke:#4C7EF1;stroke-width:14;stroke-miterlimit:10;}
	.st13{fill:none;stroke:#FEAB05;stroke-width:14;stroke-miterlimit:10;}
	.st14{fill:none;stroke:#29CB97;stroke-width:8;stroke-miterlimit:10;}
	.st15{fill:none;stroke:#29CB97;stroke-width:16;stroke-miterlimit:10;}
	.st16{fill:none;stroke:#FEC400;stroke-width:16;stroke-miterlimit:10;}
	.st17{fill:none;stroke:#FEAB05;stroke-width:16;stroke-miterlimit:10;}
	.st18{fill:none;stroke:#FEC400;stroke-width:8;stroke-miterlimit:10;}
	.st19{fill:none;stroke:#676767;stroke-width:8;stroke-miterlimit:10;}
	.st20{fill:none;stroke:#FEC400;stroke-width:2;stroke-miterlimit:10;}
	.st21{fill:#E6E6E6;}
	.st22{fill:#74D889;}
	.st23{fill:#FFDC70;}
	.st24{fill:#47ABFC;}
	.st25{fill:none;stroke:#FFFFFF;stroke-miterlimit:10;}
	.st26{fill:#4C7EF1;stroke:#0B0C0E;stroke-miterlimit:10;}
	.st27{fill:#FEC400;stroke:#0B0C0E;stroke-miterlimit:10;}
	.st28{fill:none;stroke:#AAA9A9;stroke-miterlimit:10;}
	.st29{fill:none;stroke:#A5A4A4;stroke-width:2;stroke-miterlimit:10;stroke-dasharray:1.0005,4.002;}
	.st30{fill:none;stroke:#4C7EF1;stroke-width:40;stroke-miterlimit:10;}
	.st31{fill:none;stroke:#FEC400;stroke-width:40;stroke-miterlimit:10;}
	.st32{fill:none;stroke:#676767;stroke-width:20;stroke-miterlimit:10;}
	.st33{fill:none;stroke:#FEC400;stroke-width:20;stroke-miterlimit:10;}
	.st34{fill:none;stroke:#29C997;stroke-width:20;stroke-miterlimit:10;}
	.st35{fill:none;stroke:#FFFFFF;stroke-width:20;stroke-miterlimit:10;}
	.st36{fill:none;stroke:#000000;stroke-miterlimit:10;}
	.st37{fill:none;stroke:#FFFFFF;stroke-width:2;stroke-miterlimit:10;stroke-dasharray:3.941,3.941;}
	.st38{opacity:0.5;fill:none;stroke:#FFFFFF;stroke-width:0.4926;stroke-miterlimit:10;stroke-dasharray:3.941,3.941;}
	.st39{fill:none;stroke:#00B091;stroke-width:4;stroke-miterlimit:10;}
	.st40{fill:none;stroke:#EDBF00;stroke-width:4;stroke-miterlimit:10;}
	.st41{fill:#EDBF00;}
	.st42{fill:#00B091;}
	.st43{opacity:0.8;fill:#00B091;}
	.st44{opacity:0.8;fill:#EDBF00;}
	.st45{opacity:0.8;fill:#D85700;}
	.st46{fill:#4C7EF1;stroke:#4C7EF1;stroke-miterlimit:10;}
	.st47{opacity:0.65;fill:url(#SVGID_1_);}
	.st48{opacity:0.65;fill:url(#SVGID_2_);}
	.st49{opacity:0.65;fill:url(#SVGID_3_);}
	.st50{fill:#292E34;}
	.st51{opacity:0.6;}
	.st52{fill:#334469;}
	.st53{fill:#FEAB05;}
	.st54{opacity:0.4;fill:#0B0C0E;}
	.st55{opacity:0.7;}
	.st56{fill:#F24343;}
	.st57{opacity:0.42;fill:#676767;stroke:#F0F2F8;stroke-miterlimit:10;}
	.st58{fill:none;stroke:#F0F2F8;stroke-width:2;stroke-miterlimit:10;}
	.st59{clip-path:url(#SVGID_5_);}
	.st60{fill:#3B86FF;}
	.st61{opacity:0.36;}
	.st62{fill:#4170ED;}
	.st63{fill:#999999;}
	.st64{opacity:0.15;}
	.st65{clip-path:url(#SVGID_7_);}
	.st66{fill:#1CCC96;}
	.st67{opacity:0.43;}
	.st68{clip-path:url(#SVGID_9_);}
	.st69{fill:#30C3E9;}
	.st70{clip-path:url(#SVGID_11_);}
	.st71{fill:#BCEAEC;}
	.st72{opacity:0.14;}
	.st73{clip-path:url(#SVGID_13_);}
	.st74{fill:#FBC400;}
	.st75{fill:#1F1F1F;}
	.st76{fill:none;stroke:url(#SVGID_14_);stroke-width:0.15;stroke-miterlimit:10;}
	.st77{fill:none;stroke:#00B091;stroke-width:0.15;stroke-miterlimit:10;}
	.st78{fill:none;stroke:url(#SVGID_15_);stroke-width:0.15;stroke-miterlimit:10;}
	.st79{fill:none;stroke:url(#SVGID_16_);stroke-width:0.15;stroke-miterlimit:10;}
	.st80{fill:none;stroke:url(#SVGID_17_);stroke-width:0.15;stroke-miterlimit:10;}
	.st81{fill:none;stroke:url(#SVGID_18_);stroke-width:0.15;stroke-miterlimit:10;}
	.st82{opacity:0.5;fill:#4170ED;}
	.st83{fill:#666666;}
	.st84{fill:none;stroke:#4170ED;stroke-width:0.5;stroke-miterlimit:10;}
	.st85{fill:none;stroke:url(#SVGID_19_);stroke-width:0.5;stroke-miterlimit:10;stroke-dasharray:0.9965,0.9965;}
	.st86{opacity:0.4;}
	.st87{fill:url(#SVGID_20_);stroke:url(#SVGID_21_);stroke-width:0.5;stroke-miterlimit:10;}
	.st88{fill:none;stroke:url(#SVGID_22_);stroke-width:0.5;stroke-miterlimit:10;}
	.st89{fill:url(#SVGID_23_);stroke:url(#SVGID_24_);stroke-width:0.5;stroke-miterlimit:10;}
	.st90{fill:none;stroke:url(#SVGID_25_);stroke-width:0.5;stroke-miterlimit:10;stroke-dasharray:0.9965,0.9965;}
	.st91{fill:url(#SVGID_26_);}
	.st92{fill:none;stroke:url(#SVGID_27_);stroke-width:0.5;stroke-miterlimit:10;stroke-dasharray:0.994,0.994;}
	.st93{fill:none;stroke:url(#SVGID_28_);stroke-width:0.5;stroke-miterlimit:10;}
	.st94{fill:none;stroke:url(#SVGID_29_);stroke-width:0.5;stroke-miterlimit:10;}
	.st95{fill:none;stroke:url(#SVGID_30_);stroke-width:0.5;stroke-miterlimit:10;}
	.st96{fill:url(#SVGID_31_);stroke:url(#SVGID_32_);stroke-width:0.5;stroke-miterlimit:10;}
	.st97{fill:#3885E9;}
	.st98{opacity:0.33;}
	.st99{fill:none;stroke:#999999;stroke-miterlimit:10;}
	.st100{fill:none;stroke:#4170ED;stroke-miterlimit:10;}
	.st101{fill:none;stroke:url(#SVGID_33_);stroke-width:0.5;stroke-miterlimit:10;}
	.st102{fill:url(#SVGID_34_);}
	.st103{opacity:0.3;fill:none;stroke:#4170ED;stroke-miterlimit:10;}
	.st104{opacity:0.87;fill:none;stroke:url(#SVGID_35_);stroke-miterlimit:10;}
	.st105{opacity:0.53;fill:#FFFFFF;}
	.st106{clip-path:url(#SVGID_37_);fill:#BFBFBF;}
	.st107{fill:#BFBFBF;}
	.st108{clip-path:url(#SVGID_39_);fill:#BFBFBF;}
	.st109{clip-path:url(#SVGID_41_);fill:#BFBFBF;}
	.st110{clip-path:url(#SVGID_43_);fill:#BFBFBF;}
	.st111{clip-path:url(#SVGID_45_);fill:#BFBFBF;}
	.st112{clip-path:url(#SVGID_47_);fill:#BFBFBF;}
	.st113{clip-path:url(#SVGID_49_);fill:#BFBFBF;}
	.st114{fill:none;}
	.st115{fill:#1B3E60;}
	.st116{fill:#31446D;stroke:#4170ED;stroke-width:0.5;stroke-miterlimit:10;}
	.st117{opacity:0.31;fill:#EDBF00;}
	.st118{opacity:0.31;fill:#00B091;}
	.st119{fill:#31446D;stroke:#4C7EF1;stroke-width:0.5;stroke-miterlimit:10;}
	.st120{fill:url(#SVGID_50_);}
	.st121{fill:url(#SVGID_51_);stroke:url(#SVGID_52_);stroke-width:0.5;stroke-miterlimit:10;}
	.st122{fill:url(#SVGID_53_);}
	.st123{clip-path:url(#SVGID_55_);fill:#BFBFBF;}
	.st124{clip-path:url(#SVGID_57_);fill:#BFBFBF;}
	.st125{clip-path:url(#SVGID_59_);fill:#BFBFBF;}
	.st126{clip-path:url(#SVGID_61_);fill:#BFBFBF;}
	.st127{clip-path:url(#SVGID_63_);fill:#BFBFBF;}
	.st128{clip-path:url(#SVGID_65_);fill:#BFBFBF;}
	.st129{fill:url(#XMLID_5_);}
	.st130{fill:none;stroke:#4C7EF1;stroke-width:0.25;stroke-miterlimit:10;}
	.st131{opacity:0.5;fill:#4C7EF1;}
	.st132{fill:url(#SVGID_66_);}
	.st133{fill:url(#SVGID_67_);}
	.st134{fill:url(#SVGID_68_);}
	.st135{fill:url(#SVGID_69_);}
	.st136{fill:url(#SVGID_70_);}
</style>
<g>
	<g>
		<g>
			<g>
				<path class="st116" d="M71.43,31.34l0.21,0.36c0,0,4.57,0.18,4.57,0.61c0,0.43-3.17,3.69-2.25,3.82
					c0.91,0.12,2.68,3.69,2.68,3.69s-0.97-0.12-0.18,0.68c0.79,0.8-0.37,0.43-0.97,1.05c0.86,0.41,1.34,0.37,1.34,0.37v1.35
					c0,0-0.24,1.11-0.97,1.91c-0.73,0.8-1.1,0.98-1.1,0.98v0.31c0,0-0.3,1.91-0.97,2.83c-0.67,0.92-2.07,1.85-2.68,2.28
					s-2.8,0.18-2.8,0.18s-0.79,0.55-0.97,0.98c-0.14,0.32-1.89,0.71-2.78,0.89l-0.16-0.38l0.66-1.34h1.33v-2.69l-0.66-1.34v-0.67h-2
					v-2.69l-1.33-2.69h1.33v-3.36h0.67l2.66,1.34h1.33l2,0.67l0.66-1.34l-1.33-0.67v-1.34h1.33l-0.66-1.34l-1.33-0.67l0.66-2.02
					L71.43,31.34L71.43,31.34z M75.9,49.67c0.43-1.66,1.52-1.6,1.52-1.6c0.79,0.61-0.12,1.41,0,2.18c0.12,0.77-0.71,1.94-0.71,1.94
					s-0.08-0.18-0.81-0.55C75.17,51.27,75.66,50.35,75.9,49.67L75.9,49.67z M75.9,49.67"/>
				<path class="st116" d="M75.68,21l1.33,0.67h2l1.33,0.67l2,0.67h0.82c-0.02,0.05-0.05,0.09-0.07,0.14
					c-0.43,0.74-0.43,0.74-1.04,0.43c-0.06,1.11-1.46,1.72-1.46,1.72l0.49,0.68h-1.52c0,0-0.18,1.11-0.79,1.35
					c-0.61,0.25-0.97,0.8-1.22,1.29c-1.83,0.12-3.23,3.82-2.5,0.86c0.28-1.12,0.21-1.62-0.03-1.75v-0.02L75,27.73
					c-0.4-0.18-1.25,0.61-1.84,1.32l-0.1,0.12c-0.96,1.07-2.09,1.36-2.09,1.36l0.46,0.81l-1.73,1.75l-0.66,2.02l1.33,0.67l0.67,1.34
					H69.7v1.34l1.33,0.67l-0.66,1.34l-2-0.67h-1.33l-2.66-1.34h-0.67v3.36h-1.33l1.33,2.69v2.69h2v0.67l0.66,1.34v2.69h-1.33
					l-0.67,1.34l0.16,0.38c-0.31,0.06-0.51,0.1-0.51,0.1s0.3,0.55,0.3,1.05c0,0.49,1.1,0.8,0.61,1.17c-0.49,0.37-1.16,1.78-2.31,1.6
					c-1.16-0.19-0.12-2.03,0.61-1.97c0.73,0.06,0.61-0.62,0.12-1.6c-0.49-0.98,0.12-0.8-1.34-0.43c-1.46,0.37-2.31-1.91-2.5-2.03
					c-0.18-0.12-0.97-0.31-1.4-0.31c-0.43,0-0.73,0.68-0.97,0.68c-0.24,0-0.91-0.25-0.91-0.25s-0.55,0.37-0.85,0.37
					c-0.3,0-0.24-0.55-0.55-0.55s-0.55,0.62-0.55,0.62l-0.61-0.25l0.18,1.72h-0.67l-0.37-0.74l-0.55,0.31l-0.73-1.11h-0.7l0.52-1.23
					h-0.52c0,0,0.09-0.61-0.27-1.23c-2.74,0.18-0.79-1.23,0.27-2.4c0.7-0.77,0.22-2.03-0.23-2.83l0.47-0.47h0.66v-4.03l-0.66-1.34
					v-2.02l0.66-0.67l1.33,2.02l1.33,0.67l1.33-0.67l1.33-1.34l1.33,1.34l0.66,1.34l1.33-2.69l0.67-0.67l1.33-0.67l-0.66-1.34v-1.34
					l1.99-2.02l3.33-2.02h1.33l0.67-1.34l1.33-0.67l1.33,0.67l1.33-0.67l2-0.67l1.33-1.34l-0.66-1.34h-1.33v-1.34L75.68,21L75.68,21
					z M75.68,21"/>
				<path class="st116" d="M69.26,16.38c-0.01,0.04-0.14,0.61,1.04,0.43c1.22-0.19,1.22-1.78,2.07-2.77
					c0.85-0.98-0.67-1.17-0.67-1.17c2.19-2.46,3.59-0.92,3.59-0.92s0.37-0.12,0.97,0c0.56,0.11,1.89,3.2,2.1,3.69
					c0.18,0.01,0.58,0.04,1.37,0.13c2.19,0.25,1.1,1.91,1.95,2.03c0.85,0.12,2.8-1.97,3.17-1.6c0.37,0.37-0.49,3.94-0.73,3.94
					c-0.24,0-1.34,0.74-1.04,1.05c0.27,0.28,0.4,1.04,0.12,1.73l-0.2,0.1h-0.66l-2-0.67l-1.33-0.67h-2L75.68,21l-1.33,0.67v1.34
					h1.33l0.67,1.34l-1.33,1.34l-2,0.67l-1.33,0.67l-1.33-0.67l-1.33,0.67l-0.67,1.34h-1.33l-3.33,2.02l-1.99,2.02v1.34l0.66,1.34
					l-1.33,0.67l-0.67,0.67l-1.33,2.69l-0.67-1.34l-1.33-1.34l-1.33,1.34l-1.33,0.67l-1.33-0.67l-1.33-2.02l-0.66,0.67v2.02
					l0.66,1.34v4.03h-0.66l-0.47,0.47c-0.24-0.41-0.46-0.7-0.53-0.74c-0.18-0.12-0.31,0.86-0.49,0.8c-0.18-0.06-1.34-0.55-1.71-0.55
					s-1.4,0.92-2.56,1.17c-1.16,0.25-1.89-0.31-1.89-0.31s0.18-0.61-0.18-1.12c-0.37-0.5-1.16-0.48-1.89-0.91
					c-0.73-0.43-0.91,1.48-1.4,0.74s-0.3-0.68-1.16-0.74c-0.85-0.06-1.22-0.8-2.19-1.17c-0.97-0.37-1.16-1.91-1.7-1.91
					c-0.55,0-0.91-1.78-1.34-1.97c-0.02-0.01-0.04-0.02-0.06-0.03c0.05,0.06,0.05,0.18-0.55,0.28c-1.1,0.18-1.03-1.3-1.4-1.54
					c-0.91-0.25-0.67-0.92-0.67-1.35c0-0.43,0.3-1.11,0.3-1.11s-0.24,0.68,0.37,0.61c0.61-0.06-0.06-2.65,0.06-2.52
					c0.12,0.12,0.55,0.31,0.67,0c0.12-0.31-0.97-0.68-0.97-0.68s0.18-0.68,0.18-1.11c-1.46-0.62-1.52-1.91-1.58-2.15
					c-0.06-0.25-0.91-0.92-0.87-1.35c0.04-0.35,0.31-0.13,0.41-0.03l0.03,0.03c0,0,0.43-0.29,0.24-1.29
					c-1.16-0.62-0.55-1.54-0.31-2.09c0.24-0.55,2.07-0.31,2.07-0.31s0,1.35,0.67,0.74c0.67-0.62,1.04-0.18,1.16-0.43
					c0.12-0.25,3.04-0.61,3.04-0.61v-0.68c0,0,0.79-0.55,0.91-1.11c0.12-0.55-0.24-1.85,0-1.72c0.24,0.12,2.07-0.06,1.95-0.25
					c-0.12-0.18,1.04-2.46,1.28-1.85c0.24,0.62,2.13,0.86,2.07,0.31c-0.06-0.55,0.91-1.29,1.1-1.29c0.18,0,1.1-0.92,1.1-0.92
					s0.43,0.25,0.3,0.68c-0.12,0.43,0.49,1.05,0.61,1.23c0.12,0.18,0.85,0.55,0.85,0.86c0,0.31,0.49,1.05,0.49,1.05l-0.18,1.12
					l-0.3,1.16l2.68,0.8l1.28,1.23l0.85,1.66c0,0,1.21,0.43,1.77,0.43c3.35,0,2.62,0.86,3.29,0.86c0.67,0,2.92,1.23,2.86,1.05
					c-0.06-0.18,1.1-0.68,1.64-1.05c0.55-0.37,1.77,0.25,2.62,0c0.85-0.25,1.42-1.11,1.42-1.11s0.75-0.27,0.41-0.68
					c-0.97-0.55,0.06-1.97,0.3-1.66c0.24,0.31,1.34,0.49,1.34,0.49l0.97-1.11c0.85,0.8,1.34-0.62,1.4-0.8
					c0.06-0.18,1.25-0.86,1.25-0.86s0.76,0.37,1.55,0c0.79-0.37-0.67-2.28-2.13-1.29c-0.06-0.37-1.04,0.37-1.34,0
					C68.41,18.84,69.26,16.38,69.26,16.38L69.26,16.38L69.26,16.38z M69.26,16.38"/>
			</g>
		</g>
	</g>
	<circle class="st117" cx="68.62" cy="27.44" r="1.72"/>
	<circle class="st41" cx="68.62" cy="27.44" r="0.89"/>
	<g>
		<circle class="st118" cx="68.62" cy="38.26" r="1.72"/>
		<circle class="st42" cx="68.62" cy="38.26" r="0.89"/>
	</g>
	<g>
		<circle class="st118" cx="51.8" cy="38.26" r="1.72"/>
		<circle class="st42" cx="51.8" cy="38.26" r="0.89"/>
	</g>
	<g>
		<circle class="st118" cx="63.8" cy="44.45" r="1.22"/>
		<circle class="st42" cx="63.8" cy="44.45" r="0.63"/>
	</g>
	<g>
		<circle class="st118" cx="71.57" cy="42.01" r="1.22"/>
		<circle class="st42" cx="71.57" cy="42.01" r="0.63"/>
	</g>
</g>
</svg>
