<?xml version="1.0" encoding="utf-8"?>
<!-- Generator: Adobe Illustrator 23.0.0, SVG Export Plug-In . SVG Version: 6.00 Build 0)  -->
<svg version="1.1" id="图层_1" xmlns="http://www.w3.org/2000/svg" xmlns:xlink="http://www.w3.org/1999/xlink" x="0px" y="0px"
	 viewBox="0 0 114 65" style="enable-background:new 0 0 114 65;" xml:space="preserve">
<style type="text/css">
	.st0{fill:#4C7EF1;}
	.st1{fill:#29CB97;}
	.st2{fill:#FEC400;}
	.st3{fill:#B35AF1;}
	.st4{fill:#29C997;}
	.st5{fill:#FFFFFF;}
	.st6{fill:#6B6B6B;}
	.st7{fill:#444444;}
	.st8{opacity:0.1;fill:#FFFFFF;}
	.st9{opacity:0.1;}
	.st10{fill:none;stroke:#F24343;stroke-width:14;stroke-miterlimit:10;}
	.st11{fill:none;stroke:#FFFFFF;stroke-width:14;stroke-miterlimit:10;}
	.st12{fill:none;stroke:#4C7EF1;stroke-width:14;stroke-miterlimit:10;}
	.st13{fill:none;stroke:#FEAB05;stroke-width:14;stroke-miterlimit:10;}
	.st14{fill:none;stroke:#29CB97;stroke-width:8;stroke-miterlimit:10;}
	.st15{fill:none;stroke:#29CB97;stroke-width:16;stroke-miterlimit:10;}
	.st16{fill:none;stroke:#FEC400;stroke-width:16;stroke-miterlimit:10;}
	.st17{fill:none;stroke:#FEAB05;stroke-width:16;stroke-miterlimit:10;}
	.st18{fill:none;stroke:#FEC400;stroke-width:8;stroke-miterlimit:10;}
	.st19{fill:none;stroke:#676767;stroke-width:8;stroke-miterlimit:10;}
	.st20{fill:none;stroke:#FEC400;stroke-width:2;stroke-miterlimit:10;}
	.st21{fill:#E6E6E6;}
	.st22{fill:#74D889;}
	.st23{fill:#FFDC70;}
	.st24{fill:#47ABFC;}
	.st25{fill:none;stroke:#FFFFFF;stroke-miterlimit:10;}
	.st26{fill:#4C7EF1;stroke:#0B0C0E;stroke-miterlimit:10;}
	.st27{fill:#FEC400;stroke:#0B0C0E;stroke-miterlimit:10;}
	.st28{fill:none;stroke:#AAA9A9;stroke-miterlimit:10;}
	.st29{fill:none;stroke:#A5A4A4;stroke-width:2;stroke-miterlimit:10;stroke-dasharray:1.0005,4.002;}
	.st30{fill:none;stroke:#4C7EF1;stroke-width:40;stroke-miterlimit:10;}
	.st31{fill:none;stroke:#FEC400;stroke-width:40;stroke-miterlimit:10;}
	.st32{fill:none;stroke:#676767;stroke-width:20;stroke-miterlimit:10;}
	.st33{fill:none;stroke:#FEC400;stroke-width:20;stroke-miterlimit:10;}
	.st34{fill:none;stroke:#29C997;stroke-width:20;stroke-miterlimit:10;}
	.st35{fill:none;stroke:#FFFFFF;stroke-width:20;stroke-miterlimit:10;}
	.st36{fill:none;stroke:#000000;stroke-miterlimit:10;}
	.st37{fill:none;stroke:#FFFFFF;stroke-width:2;stroke-miterlimit:10;stroke-dasharray:3.941,3.941;}
	.st38{opacity:0.5;fill:none;stroke:#FFFFFF;stroke-width:0.4926;stroke-miterlimit:10;stroke-dasharray:3.941,3.941;}
	.st39{fill:none;stroke:#00B091;stroke-width:4;stroke-miterlimit:10;}
	.st40{fill:none;stroke:#EDBF00;stroke-width:4;stroke-miterlimit:10;}
	.st41{fill:#EDBF00;}
	.st42{fill:#00B091;}
	.st43{opacity:0.8;fill:#00B091;}
	.st44{opacity:0.8;fill:#EDBF00;}
	.st45{opacity:0.8;fill:#D85700;}
	.st46{fill:#4C7EF1;stroke:#4C7EF1;stroke-miterlimit:10;}
	.st47{opacity:0.65;fill:url(#SVGID_1_);}
	.st48{opacity:0.65;fill:url(#SVGID_2_);}
	.st49{opacity:0.65;fill:url(#SVGID_3_);}
	.st50{fill:#292E34;}
	.st51{opacity:0.6;}
	.st52{fill:#334469;}
	.st53{fill:#FEAB05;}
	.st54{opacity:0.4;fill:#0B0C0E;}
	.st55{opacity:0.7;}
	.st56{fill:#F24343;}
	.st57{opacity:0.42;fill:#676767;stroke:#F0F2F8;stroke-miterlimit:10;}
	.st58{fill:none;stroke:#F0F2F8;stroke-width:2;stroke-miterlimit:10;}
	.st59{clip-path:url(#SVGID_5_);}
	.st60{fill:#3B86FF;}
	.st61{opacity:0.36;}
	.st62{fill:#4170ED;}
	.st63{fill:#999999;}
	.st64{opacity:0.15;}
	.st65{clip-path:url(#SVGID_7_);}
	.st66{fill:#1CCC96;}
	.st67{opacity:0.43;}
	.st68{clip-path:url(#SVGID_9_);}
	.st69{fill:#30C3E9;}
	.st70{clip-path:url(#SVGID_11_);}
	.st71{fill:#BCEAEC;}
	.st72{opacity:0.14;}
	.st73{clip-path:url(#SVGID_13_);}
	.st74{fill:#FBC400;}
	.st75{fill:#1F1F1F;}
	.st76{fill:none;stroke:url(#SVGID_14_);stroke-width:0.15;stroke-miterlimit:10;}
	.st77{fill:none;stroke:#00B091;stroke-width:0.15;stroke-miterlimit:10;}
	.st78{fill:none;stroke:url(#SVGID_15_);stroke-width:0.15;stroke-miterlimit:10;}
	.st79{fill:none;stroke:url(#SVGID_16_);stroke-width:0.15;stroke-miterlimit:10;}
	.st80{fill:none;stroke:url(#SVGID_17_);stroke-width:0.15;stroke-miterlimit:10;}
	.st81{fill:none;stroke:url(#SVGID_18_);stroke-width:0.15;stroke-miterlimit:10;}
	.st82{opacity:0.5;fill:#4170ED;}
	.st83{fill:#666666;}
	.st84{fill:none;stroke:#4170ED;stroke-width:0.5;stroke-miterlimit:10;}
	.st85{fill:none;stroke:url(#SVGID_19_);stroke-width:0.5;stroke-miterlimit:10;stroke-dasharray:0.9965,0.9965;}
	.st86{opacity:0.4;}
	.st87{fill:url(#SVGID_20_);stroke:url(#SVGID_21_);stroke-width:0.5;stroke-miterlimit:10;}
	.st88{fill:none;stroke:url(#SVGID_22_);stroke-width:0.5;stroke-miterlimit:10;}
	.st89{fill:url(#SVGID_23_);stroke:url(#SVGID_24_);stroke-width:0.5;stroke-miterlimit:10;}
	.st90{fill:none;stroke:url(#SVGID_25_);stroke-width:0.5;stroke-miterlimit:10;stroke-dasharray:0.9965,0.9965;}
	.st91{fill:url(#SVGID_26_);}
	.st92{fill:none;stroke:url(#SVGID_27_);stroke-width:0.5;stroke-miterlimit:10;stroke-dasharray:0.994,0.994;}
	.st93{fill:none;stroke:url(#SVGID_28_);stroke-width:0.5;stroke-miterlimit:10;}
	.st94{fill:none;stroke:url(#SVGID_29_);stroke-width:0.5;stroke-miterlimit:10;}
	.st95{fill:none;stroke:url(#SVGID_30_);stroke-width:0.5;stroke-miterlimit:10;}
	.st96{fill:url(#SVGID_31_);stroke:url(#SVGID_32_);stroke-width:0.5;stroke-miterlimit:10;}
	.st97{fill:#3885E9;}
	.st98{opacity:0.33;}
	.st99{fill:none;stroke:#999999;stroke-miterlimit:10;}
	.st100{fill:none;stroke:#4170ED;stroke-miterlimit:10;}
	.st101{fill:none;stroke:url(#SVGID_33_);stroke-width:0.5;stroke-miterlimit:10;}
	.st102{fill:url(#SVGID_34_);}
	.st103{opacity:0.3;fill:none;stroke:#4170ED;stroke-miterlimit:10;}
	.st104{opacity:0.87;fill:none;stroke:url(#SVGID_35_);stroke-miterlimit:10;}
	.st105{opacity:0.53;fill:#FFFFFF;}
	.st106{clip-path:url(#SVGID_37_);fill:#BFBFBF;}
	.st107{fill:#BFBFBF;}
	.st108{clip-path:url(#SVGID_39_);fill:#BFBFBF;}
	.st109{clip-path:url(#SVGID_41_);fill:#BFBFBF;}
	.st110{clip-path:url(#SVGID_43_);fill:#BFBFBF;}
	.st111{clip-path:url(#SVGID_45_);fill:#BFBFBF;}
	.st112{clip-path:url(#SVGID_47_);fill:#BFBFBF;}
	.st113{clip-path:url(#SVGID_49_);fill:#BFBFBF;}
	.st114{fill:none;}
	.st115{fill:#1B3E60;}
	.st116{fill:#31446D;stroke:#4170ED;stroke-width:0.5;stroke-miterlimit:10;}
	.st117{opacity:0.31;fill:#EDBF00;}
	.st118{opacity:0.31;fill:#00B091;}
	.st119{fill:#31446D;stroke:#4C7EF1;stroke-width:0.5;stroke-miterlimit:10;}
	.st120{fill:url(#SVGID_50_);}
	.st121{fill:url(#SVGID_51_);stroke:url(#SVGID_52_);stroke-width:0.5;stroke-miterlimit:10;}
	.st122{fill:url(#SVGID_53_);}
	.st123{clip-path:url(#SVGID_55_);fill:#BFBFBF;}
	.st124{clip-path:url(#SVGID_57_);fill:#BFBFBF;}
	.st125{clip-path:url(#SVGID_59_);fill:#BFBFBF;}
	.st126{clip-path:url(#SVGID_61_);fill:#BFBFBF;}
	.st127{clip-path:url(#SVGID_63_);fill:#BFBFBF;}
	.st128{clip-path:url(#SVGID_65_);fill:#BFBFBF;}
	.st129{fill:url(#XMLID_5_);}
	.st130{fill:none;stroke:#4C7EF1;stroke-width:0.25;stroke-miterlimit:10;}
	.st131{opacity:0.5;fill:#4C7EF1;}
	.st132{fill:url(#SVGID_66_);}
	.st133{fill:url(#SVGID_67_);}
	.st134{fill:url(#SVGID_68_);}
	.st135{fill:url(#SVGID_69_);}
	.st136{fill:url(#SVGID_70_);}
</style>
<g>
	<g id="XMLID_1412_">
		<ellipse id="XMLID_1416_" class="st0" cx="78.8" cy="20.16" rx="0.4" ry="0.28"/>
		<path id="XMLID_1413_" class="st0" d="M78.38,20.16c0-0.01,0-0.01,0-0.02l0.03,0c0,0.01,0,0.01,0,0.02c0,0.15,0.17,0.27,0.39,0.27
			v0.02C78.57,20.45,78.38,20.32,78.38,20.16z M78.6,19.9c0.06-0.02,0.13-0.04,0.21-0.04c0.23,0,0.42,0.13,0.42,0.29
			c0,0.12-0.11,0.23-0.27,0.28l-0.01-0.02c0.15-0.04,0.25-0.14,0.25-0.25c0-0.15-0.17-0.27-0.39-0.27c-0.07,0-0.13,0.01-0.19,0.03
			L78.6,19.9z"/>
	</g>
	<g id="XMLID_1407_">
		<ellipse id="XMLID_1411_" class="st0" cx="78.8" cy="52.67" rx="0.4" ry="0.28"/>
		<path id="XMLID_1408_" class="st0" d="M78.38,52.67c0-0.01,0-0.01,0-0.02l0.03,0c0,0.01,0,0.01,0,0.02c0,0.15,0.17,0.27,0.39,0.27
			v0.02C78.57,52.97,78.38,52.83,78.38,52.67z M78.6,52.41c0.06-0.02,0.13-0.04,0.21-0.04c0.23,0,0.42,0.13,0.42,0.29
			c0,0.12-0.11,0.23-0.27,0.28l-0.01-0.02c0.15-0.04,0.25-0.14,0.25-0.25c0-0.15-0.17-0.27-0.39-0.27c-0.07,0-0.13,0.01-0.19,0.03
			L78.6,52.41z"/>
	</g>
	<path id="XMLID_1406_" class="st0" d="M18.77,25.27V14.72c0-0.64,0.74-1.16,1.66-1.16h68.09v0.09H20.43
		c-0.84,0-1.53,0.48-1.53,1.07v10.56H18.77z"/>
	<path id="XMLID_1405_" class="st0" d="M18.57,14.72c0-0.72,0.83-1.3,1.86-1.3v0.37c-0.73,0-1.33,0.42-1.33,0.93H18.57z"/>
	<polygon id="XMLID_1404_" class="st0" points="37.06,13.61 40.33,11.32 79.25,11.32 79.25,11.41 40.38,11.41 37.15,13.68 	"/>
	<path id="XMLID_1403_" class="st0" d="M64.63,12.51L64.63,12.51c0,0.32-0.26,0.58-0.58,0.58H53.27c-0.32,0-0.58-0.26-0.58-0.58v0
		c0-0.32,0.26-0.58,0.58-0.58h10.78C64.37,11.93,64.63,12.19,64.63,12.51z"/>
	<path id="XMLID_1398_" class="st0" d="M21.82,11.4v-0.07h0.98v0.07H21.82z M23.6,11.4v-0.07h0.8v0.07H23.6z M25.2,11.4v-0.07h1.33
		v0.07H25.2z M33.43,11.4v-0.07h3.19v0.07H33.43z"/>
	<path id="XMLID_1393_" class="st0" d="M20.73,12.54v-0.07h0.98v0.07H20.73z M22.51,12.54v-0.07h0.8v0.07H22.51z M24.11,12.54v-0.07
		h1.33v0.07H24.11z M32.34,12.54v-0.07h3.19v0.07H32.34z"/>
	<path id="XMLID_1369_" class="st0" d="M18.84,56.05v-0.07h1.1v0.07H18.84z M26.84,56.05v-0.07h3.19v0.07H26.84z M30.83,56.05v-0.07
		h0.8v0.07H30.83z M32.42,56.05v-0.07h1.33v0.07H32.42z M40.65,56.05v-0.07h3.19v0.07H40.65z M44.63,56.05v-0.07h0.8v0.07H44.63z
		 M46.22,56.05v-0.07h1.33v0.07H46.22z M54.45,56.05v-0.07h3.19v0.07H54.45z M58.44,56.05v-0.07h0.8v0.07H58.44z M60.03,56.05v-0.07
		h1.33v0.07H60.03z M68.26,56.05v-0.07h3.19v0.07H68.26z M72.24,56.05v-0.07h0.8v0.07H72.24z M73.83,56.05v-0.07h1.33v0.07H73.83z
		 M82.06,56.05v-0.07h3.19v0.07H82.06z M86.05,56.05v-0.07h0.8v0.07H86.05z M87.64,56.05v-0.07h1.33v0.07H87.64z M95.87,56.05v-0.07
		h3.19v0.07H95.87z M99.03,55.48v-0.56h0.1v0.56H99.03z M99.03,54.36v-0.93h0.1v0.93H99.03z M99.03,48.59v-2.23h0.1v2.23H99.03z
		 M99.03,45.8v-0.56h0.1v0.56H99.03z M99.03,44.69v-0.93h0.1v0.93H99.03z M99.03,38.92v-2.23h0.1v2.23H99.03z"/>
	<g id="XMLID_1311_">
		<path id="XMLID_1366_" class="st0" d="M19.45,31.06v0.04c0,0.13-0.06,0.23-0.18,0.3c-0.12,0.08-0.26,0.11-0.42,0.11
			c-0.16,0-0.3-0.04-0.42-0.11c-0.12-0.08-0.18-0.18-0.18-0.3v-0.04H19.45z M19.4,31.11L19.4,31.11l-1.1-0.01v0.01
			c0,0.11,0.05,0.2,0.16,0.27c0.11,0.07,0.24,0.1,0.39,0.1c0.15,0,0.28-0.03,0.39-0.1C19.34,31.31,19.4,31.22,19.4,31.11z"/>
		<path id="XMLID_1363_" class="st0" d="M18.97,32.19h-0.72v-0.04h0.18c-0.06-0.02-0.11-0.05-0.14-0.09
			c-0.03-0.04-0.05-0.09-0.05-0.13c0-0.07,0.04-0.14,0.11-0.19c0.07-0.05,0.16-0.08,0.27-0.08c0.1,0,0.19,0.03,0.27,0.08
			c0.07,0.05,0.11,0.11,0.11,0.19c0,0.05-0.02,0.09-0.05,0.14c-0.04,0.04-0.08,0.07-0.14,0.09h0.18V32.19z M18.61,31.7
			c-0.09,0-0.17,0.02-0.23,0.07c-0.07,0.05-0.1,0.1-0.1,0.16c0,0.06,0.03,0.12,0.1,0.16c0.07,0.04,0.14,0.07,0.23,0.07
			c0.09,0,0.17-0.02,0.23-0.07c0.07-0.05,0.1-0.1,0.1-0.16s-0.03-0.12-0.1-0.16C18.77,31.72,18.7,31.7,18.61,31.7z"/>
		<path id="XMLID_1361_" class="st0" d="M18.29,32.56h-0.04c0-0.05,0.03-0.1,0.08-0.14c0.05-0.04,0.11-0.06,0.19-0.06h0.75v0.04
			h-0.29v0.15h-0.04V32.4h-0.41c-0.06,0-0.12,0.02-0.16,0.05C18.31,32.48,18.29,32.52,18.29,32.56z"/>
		<path id="XMLID_1358_" class="st0" d="M18.97,33.21h-0.72v-0.04h0.18c-0.06-0.02-0.11-0.05-0.14-0.09
			c-0.03-0.04-0.05-0.09-0.05-0.13c0-0.07,0.04-0.14,0.11-0.19c0.07-0.05,0.16-0.08,0.27-0.08c0.1,0,0.19,0.03,0.27,0.08
			c0.07,0.05,0.11,0.11,0.11,0.19c0,0.05-0.02,0.09-0.05,0.14c-0.04,0.04-0.08,0.07-0.14,0.09h0.18V33.21z M18.61,32.71
			c-0.09,0-0.17,0.02-0.23,0.07c-0.07,0.05-0.1,0.1-0.1,0.16c0,0.06,0.03,0.12,0.1,0.16c0.07,0.04,0.14,0.07,0.23,0.07
			c0.09,0,0.17-0.02,0.23-0.07c0.07-0.05,0.1-0.1,0.1-0.16c0-0.06-0.03-0.12-0.1-0.16C18.77,32.74,18.7,32.71,18.61,32.71z"/>
		<path id="XMLID_1356_" class="st0" d="M18.94,34.25c0.03,0.03,0.05,0.07,0.05,0.12c0,0.05-0.02,0.09-0.07,0.12
			c-0.05,0.03-0.11,0.05-0.19,0.05h-0.47v-0.04h0.47c0.06,0,0.11-0.01,0.15-0.04c0.04-0.03,0.06-0.06,0.06-0.1
			c0-0.04-0.02-0.08-0.06-0.11c-0.04-0.03-0.09-0.05-0.15-0.05h-0.48v-0.04h0.48c0.06,0,0.11-0.01,0.15-0.04
			c0.04-0.03,0.06-0.06,0.06-0.1s-0.02-0.08-0.06-0.1c-0.04-0.03-0.09-0.04-0.15-0.04h-0.48v-0.04h0.72v0.04h-0.1
			c0.03,0.01,0.06,0.04,0.08,0.07c0.02,0.03,0.04,0.06,0.04,0.09c0,0.03-0.02,0.06-0.05,0.09c-0.03,0.03-0.07,0.05-0.12,0.06
			C18.87,34.2,18.91,34.22,18.94,34.25z"/>
		<path id="XMLID_1353_" class="st0" d="M18.97,35.23h-0.72V35.2h0.18c-0.06-0.02-0.11-0.05-0.14-0.09
			c-0.03-0.04-0.05-0.09-0.05-0.13c0-0.07,0.04-0.14,0.11-0.19c0.07-0.05,0.16-0.08,0.27-0.08c0.1,0,0.19,0.03,0.27,0.08
			c0.07,0.05,0.11,0.11,0.11,0.19c0,0.05-0.02,0.09-0.05,0.14c-0.04,0.04-0.08,0.07-0.14,0.09h0.18V35.23z M18.61,34.74
			c-0.09,0-0.17,0.02-0.23,0.07c-0.07,0.05-0.1,0.1-0.1,0.16c0,0.06,0.03,0.12,0.1,0.16c0.07,0.04,0.14,0.07,0.23,0.07
			c0.09,0,0.17-0.02,0.23-0.07c0.07-0.05,0.1-0.1,0.1-0.16c0-0.06-0.03-0.12-0.1-0.16C18.77,34.76,18.7,34.74,18.61,34.74z"/>
		<path id="XMLID_1351_" class="st0" d="M18.29,35.6h-0.04c0-0.05,0.03-0.1,0.08-0.14c0.05-0.04,0.11-0.06,0.19-0.06h0.75v0.04
			h-0.29v0.15h-0.04v-0.15h-0.41c-0.06,0-0.12,0.02-0.16,0.05C18.31,35.52,18.29,35.56,18.29,35.6z"/>
		<path id="XMLID_1349_" class="st0" d="M18.23,35.99v-0.01c0-0.07,0.04-0.13,0.11-0.18c0.08-0.05,0.16-0.08,0.27-0.08
			c0.1,0,0.19,0.03,0.26,0.08c0.07,0.05,0.11,0.12,0.11,0.19c0,0.08-0.04,0.14-0.12,0.19h-0.08c0.05-0.02,0.09-0.05,0.12-0.09
			c0.03-0.04,0.04-0.07,0.04-0.11c0-0.06-0.03-0.12-0.1-0.16c-0.07-0.05-0.14-0.07-0.23-0.07c-0.09,0-0.17,0.02-0.23,0.07
			c-0.07,0.05-0.1,0.1-0.1,0.16c0,0.04,0.01,0.08,0.04,0.11c0.03,0.04,0.07,0.06,0.12,0.09h-0.08
			C18.27,36.13,18.23,36.07,18.23,35.99z"/>
		<path id="XMLID_1347_" class="st0" d="M18.25,36.37v-0.04h1.19v0.04h-0.61c0.1,0.04,0.16,0.1,0.16,0.19
			c0,0.06-0.03,0.12-0.09,0.16c-0.06,0.04-0.14,0.06-0.22,0.06h-0.42v-0.04h0.42c0.07,0,0.14-0.02,0.19-0.05
			c0.05-0.04,0.08-0.08,0.08-0.13c0-0.05-0.03-0.1-0.08-0.14c-0.05-0.04-0.12-0.06-0.19-0.06H18.25z"/>
		<path id="XMLID_1344_" class="st0" d="M19.14,37c0-0.02,0.01-0.03,0.04-0.03c0.03,0,0.04,0.01,0.04,0.03
			c0,0.02-0.01,0.03-0.04,0.03C19.16,37.03,19.14,37.02,19.14,37z M18.97,37.01h-0.72v-0.04h0.72V37.01z"/>
		<path id="XMLID_1342_" class="st0" d="M18.25,37.25v-0.04h0.72v0.04h-0.15c0.11,0.04,0.16,0.1,0.16,0.19
			c0,0.06-0.03,0.11-0.09,0.16c-0.06,0.04-0.14,0.06-0.22,0.06h-0.42v-0.04h0.42c0.07,0,0.14-0.02,0.19-0.05
			c0.05-0.04,0.08-0.08,0.08-0.13c0-0.05-0.03-0.1-0.08-0.14c-0.05-0.04-0.12-0.06-0.19-0.06H18.25z"/>
		<path id="XMLID_1339_" class="st0" d="M18.97,38.33v0.04h-0.65c-0.12,0-0.22-0.02-0.29-0.07c-0.07-0.05-0.11-0.11-0.11-0.19
			c0-0.04,0.01-0.08,0.04-0.12c0.03-0.04,0.06-0.07,0.11-0.09h0.07c-0.05,0.02-0.09,0.05-0.13,0.09c-0.03,0.04-0.05,0.08-0.05,0.13
			c0,0.07,0.03,0.12,0.09,0.16c0.06,0.04,0.15,0.06,0.26,0.06h0.11c-0.06-0.02-0.11-0.05-0.14-0.09c-0.04-0.04-0.05-0.09-0.05-0.13
			c0-0.07,0.04-0.14,0.11-0.19c0.07-0.05,0.16-0.08,0.27-0.08c0.1,0,0.19,0.03,0.27,0.08c0.07,0.05,0.11,0.11,0.11,0.19
			c0,0.05-0.02,0.09-0.05,0.14c-0.03,0.04-0.08,0.07-0.14,0.09H18.97z M18.61,37.87c-0.09,0-0.17,0.02-0.23,0.07
			c-0.07,0.05-0.1,0.1-0.1,0.16c0,0.06,0.03,0.12,0.1,0.16c0.07,0.04,0.14,0.07,0.23,0.07c0.09,0,0.17-0.02,0.23-0.07
			c0.07-0.04,0.1-0.1,0.1-0.16c0-0.06-0.03-0.12-0.1-0.16C18.78,37.89,18.7,37.87,18.61,37.87z"/>
		<path id="XMLID_1337_" class="st0" d="M18.97,38.96V39l-0.63,0.21l0.29,0.1l0.33-0.11v0.04l-0.28,0.09l0.29,0.09v0.03l-0.33-0.11
			l-0.29,0.1l0.63,0.2v0.03l-0.73-0.24l0.35-0.11l-0.35-0.12L18.97,38.96z"/>
		<path id="XMLID_1334_" class="st0" d="M19.14,39.85c0-0.02,0.01-0.03,0.04-0.03c0.03,0,0.04,0.01,0.04,0.03
			c0,0.02-0.01,0.03-0.04,0.03C19.16,39.88,19.14,39.87,19.14,39.85z M18.97,39.87h-0.72v-0.04h0.72V39.87z"/>
		<path id="XMLID_1332_" class="st0" d="M18.29,40.25h-0.04c0-0.05,0.03-0.1,0.08-0.14c0.05-0.04,0.11-0.06,0.19-0.06h0.75v0.04
			h-0.29v0.15h-0.04V40.1h-0.41c-0.06,0-0.12,0.02-0.16,0.05C18.31,40.17,18.29,40.21,18.29,40.25z"/>
		<path id="XMLID_1330_" class="st0" d="M18.25,40.43V40.4h1.19v0.04h-0.61c0.1,0.04,0.16,0.1,0.16,0.19c0,0.06-0.03,0.12-0.09,0.16
			c-0.06,0.04-0.14,0.06-0.22,0.06h-0.42v-0.04h0.42c0.07,0,0.14-0.02,0.19-0.05c0.05-0.04,0.08-0.08,0.08-0.13
			c0-0.05-0.03-0.1-0.08-0.14c-0.05-0.04-0.12-0.06-0.19-0.06H18.25z"/>
		<path id="XMLID_1327_" class="st0" d="M18.97,41.97h-0.72v-0.04h0.18c-0.06-0.02-0.11-0.05-0.14-0.09
			c-0.03-0.04-0.05-0.09-0.05-0.13c0-0.07,0.04-0.14,0.11-0.19c0.07-0.05,0.16-0.08,0.27-0.08c0.1,0,0.19,0.03,0.27,0.08
			c0.07,0.05,0.11,0.11,0.11,0.19c0,0.05-0.02,0.09-0.05,0.14c-0.04,0.04-0.08,0.07-0.14,0.09h0.18V41.97z M18.61,41.48
			c-0.09,0-0.17,0.02-0.23,0.07c-0.07,0.05-0.1,0.1-0.1,0.16c0,0.06,0.03,0.12,0.1,0.16c0.07,0.04,0.14,0.07,0.23,0.07
			c0.09,0,0.17-0.02,0.23-0.07c0.07-0.05,0.1-0.1,0.1-0.16c0-0.06-0.03-0.12-0.1-0.16C18.77,41.5,18.7,41.48,18.61,41.48z"/>
		<path id="XMLID_1325_" class="st0" d="M18.94,42.72c0-0.02-0.01-0.04-0.03-0.05c-0.02-0.01-0.04-0.02-0.07-0.02
			c-0.03,0-0.05,0.01-0.07,0.03s-0.04,0.04-0.06,0.06c-0.02,0.02-0.04,0.05-0.06,0.07c-0.02,0.02-0.05,0.04-0.08,0.06
			c-0.03,0.02-0.07,0.03-0.11,0.03c-0.06,0-0.12-0.02-0.16-0.05c-0.04-0.03-0.07-0.07-0.07-0.12c0-0.03,0.01-0.06,0.03-0.08
			c0.02-0.03,0.04-0.04,0.07-0.06h0.08c-0.09,0.03-0.13,0.07-0.13,0.14c0,0.04,0.02,0.07,0.05,0.1c0.03,0.03,0.07,0.04,0.11,0.04
			c0.04,0,0.08-0.01,0.11-0.03c0.03-0.02,0.05-0.04,0.07-0.06c0.02-0.02,0.04-0.05,0.06-0.07c0.02-0.02,0.04-0.04,0.07-0.06
			c0.03-0.02,0.06-0.03,0.1-0.03c0.04,0,0.07,0.01,0.1,0.03c0.03,0.02,0.04,0.05,0.04,0.08c0,0.03-0.02,0.06-0.06,0.09h-0.07
			C18.92,42.79,18.94,42.76,18.94,42.72z"/>
		<path id="XMLID_1322_" class="st0" d="M18.97,43.55h-0.72v-0.04h0.18c-0.06-0.02-0.11-0.05-0.14-0.09
			c-0.03-0.04-0.05-0.09-0.05-0.13c0-0.07,0.04-0.14,0.11-0.19c0.07-0.05,0.16-0.08,0.27-0.08c0.1,0,0.19,0.03,0.27,0.08
			c0.07,0.05,0.11,0.11,0.11,0.19c0,0.05-0.02,0.09-0.05,0.14c-0.04,0.04-0.08,0.07-0.14,0.09h0.18V43.55z M18.61,43.06
			c-0.09,0-0.17,0.02-0.23,0.07c-0.07,0.05-0.1,0.1-0.1,0.16c0,0.06,0.03,0.12,0.1,0.16c0.07,0.04,0.14,0.07,0.23,0.07
			c0.09,0,0.17-0.02,0.23-0.07c0.07-0.05,0.1-0.1,0.1-0.16c0-0.06-0.03-0.12-0.1-0.16C18.77,43.08,18.7,43.06,18.61,43.06z"/>
		<path id="XMLID_1320_" class="st0" d="M18.94,44.15c0.03,0.03,0.05,0.07,0.05,0.12c0,0.05-0.02,0.09-0.07,0.12
			c-0.05,0.03-0.11,0.05-0.19,0.05h-0.47V44.4h0.47c0.06,0,0.11-0.01,0.15-0.04c0.04-0.03,0.06-0.06,0.06-0.1
			c0-0.04-0.02-0.08-0.06-0.11c-0.04-0.03-0.09-0.05-0.15-0.05h-0.48v-0.04h0.48c0.06,0,0.11-0.01,0.15-0.04
			c0.04-0.03,0.06-0.06,0.06-0.1s-0.02-0.08-0.06-0.1c-0.04-0.03-0.09-0.04-0.15-0.04h-0.48v-0.04h0.72v0.04h-0.1
			c0.03,0.01,0.06,0.04,0.08,0.07c0.02,0.03,0.04,0.06,0.04,0.09s-0.02,0.06-0.05,0.09c-0.03,0.03-0.07,0.05-0.12,0.06
			C18.87,44.1,18.91,44.12,18.94,44.15z"/>
		<path id="XMLID_1317_" class="st0" d="M17.93,44.63h1.04v0.04h-0.18c0.06,0.02,0.11,0.05,0.14,0.09c0.04,0.04,0.05,0.09,0.05,0.13
			c0,0.07-0.04,0.14-0.11,0.19c-0.07,0.05-0.16,0.08-0.27,0.08c-0.1,0-0.19-0.03-0.27-0.08c-0.07-0.05-0.11-0.11-0.11-0.19
			c0-0.04,0.02-0.09,0.05-0.13c0.03-0.04,0.08-0.07,0.14-0.1h-0.49V44.63z M18.61,44.66c-0.09,0-0.17,0.02-0.23,0.07
			c-0.07,0.05-0.1,0.1-0.1,0.16c0,0.06,0.03,0.12,0.1,0.16c0.07,0.04,0.14,0.07,0.23,0.07c0.09,0,0.17-0.02,0.23-0.07
			c0.07-0.05,0.1-0.1,0.1-0.16c0-0.06-0.03-0.12-0.1-0.16C18.77,44.69,18.7,44.66,18.61,44.66z"/>
		<path id="XMLID_1315_" class="st0" d="M18.28,45.51h-0.04c0-0.05,0.03-0.1,0.08-0.14c0.05-0.04,0.11-0.06,0.19-0.06h0.94v0.04
			h-0.94c-0.06,0-0.12,0.02-0.16,0.05S18.28,45.47,18.28,45.51z"/>
		<path id="XMLID_1312_" class="st0" d="M18.23,45.86v-0.01c0-0.07,0.04-0.13,0.11-0.18c0.08-0.05,0.16-0.08,0.27-0.08
			c0.1,0,0.19,0.03,0.26,0.08c0.07,0.05,0.11,0.12,0.11,0.19c0,0.08-0.04,0.14-0.13,0.2l-0.49-0.35c-0.06,0.05-0.08,0.09-0.08,0.14
			c0,0.04,0.01,0.08,0.04,0.12c0.03,0.04,0.07,0.06,0.12,0.09h-0.08C18.27,46,18.23,45.94,18.23,45.86z M18.94,45.85
			c0-0.06-0.03-0.11-0.1-0.16c-0.07-0.05-0.14-0.07-0.23-0.07c-0.09,0-0.16,0.02-0.22,0.06l0.46,0.32
			C18.91,45.96,18.94,45.91,18.94,45.85z"/>
	</g>
	<g id="XMLID_1253_">
		<path id="XMLID_1308_" class="st0" d="M99.79,19.26v0.04c0,0.13-0.06,0.23-0.18,0.3c-0.12,0.08-0.26,0.11-0.42,0.11
			c-0.16,0-0.3-0.04-0.42-0.11c-0.12-0.08-0.18-0.18-0.18-0.3v-0.04H99.79z M99.74,19.3L99.74,19.3l-1.1-0.01v0.01
			c0,0.11,0.05,0.2,0.16,0.27c0.11,0.07,0.24,0.1,0.39,0.1c0.15,0,0.28-0.03,0.39-0.1C99.69,19.5,99.74,19.41,99.74,19.3z"/>
		<path id="XMLID_1305_" class="st0" d="M99.31,20.39h-0.72v-0.04h0.18c-0.06-0.02-0.11-0.05-0.14-0.09
			c-0.03-0.04-0.05-0.09-0.05-0.13c0-0.07,0.04-0.14,0.11-0.19c0.07-0.05,0.16-0.08,0.27-0.08c0.1,0,0.19,0.03,0.27,0.08
			c0.07,0.05,0.11,0.11,0.11,0.19c0,0.05-0.02,0.09-0.05,0.14c-0.04,0.04-0.08,0.07-0.14,0.09h0.18V20.39z M98.95,19.89
			c-0.09,0-0.17,0.02-0.23,0.07c-0.07,0.05-0.1,0.1-0.1,0.16c0,0.06,0.03,0.12,0.1,0.16c0.07,0.04,0.14,0.07,0.23,0.07
			c0.09,0,0.17-0.02,0.23-0.07s0.1-0.1,0.1-0.16s-0.03-0.12-0.1-0.16C99.12,19.92,99.04,19.89,98.95,19.89z"/>
		<path id="XMLID_1303_" class="st0" d="M98.63,20.76h-0.04c0-0.05,0.03-0.1,0.08-0.14c0.05-0.04,0.11-0.06,0.19-0.06h0.75v0.04
			h-0.29v0.15h-0.04V20.6h-0.41c-0.06,0-0.12,0.02-0.16,0.05C98.65,20.68,98.63,20.71,98.63,20.76z"/>
		<path id="XMLID_1300_" class="st0" d="M99.31,21.4h-0.72v-0.04h0.18c-0.06-0.02-0.11-0.05-0.14-0.09
			c-0.03-0.04-0.05-0.09-0.05-0.13c0-0.07,0.04-0.14,0.11-0.19c0.07-0.05,0.16-0.08,0.27-0.08c0.1,0,0.19,0.03,0.27,0.08
			c0.07,0.05,0.11,0.11,0.11,0.19c0,0.05-0.02,0.09-0.05,0.14c-0.04,0.04-0.08,0.07-0.14,0.09h0.18V21.4z M98.95,20.91
			c-0.09,0-0.17,0.02-0.23,0.07c-0.07,0.05-0.1,0.1-0.1,0.16c0,0.06,0.03,0.12,0.1,0.16c0.07,0.04,0.14,0.07,0.23,0.07
			c0.09,0,0.17-0.02,0.23-0.07s0.1-0.1,0.1-0.16s-0.03-0.12-0.1-0.16C99.12,20.93,99.04,20.91,98.95,20.91z"/>
		<path id="XMLID_1298_" class="st0" d="M99.28,22.45c0.03,0.03,0.05,0.07,0.05,0.12c0,0.05-0.02,0.09-0.07,0.12
			c-0.05,0.03-0.11,0.05-0.19,0.05h-0.47V22.7h0.47c0.06,0,0.11-0.01,0.15-0.04c0.04-0.03,0.06-0.06,0.06-0.1
			c0-0.04-0.02-0.08-0.06-0.11c-0.04-0.03-0.09-0.05-0.15-0.05h-0.48v-0.04h0.48c0.06,0,0.11-0.01,0.15-0.04
			c0.04-0.03,0.06-0.06,0.06-0.1s-0.02-0.08-0.06-0.1s-0.09-0.04-0.15-0.04h-0.48v-0.04h0.72v0.04h-0.1
			c0.03,0.01,0.06,0.04,0.08,0.07c0.02,0.03,0.04,0.06,0.04,0.09c0,0.03-0.02,0.06-0.05,0.09c-0.03,0.03-0.07,0.05-0.12,0.06
			C99.21,22.4,99.25,22.42,99.28,22.45z"/>
		<path id="XMLID_1295_" class="st0" d="M99.31,23.43h-0.72v-0.04h0.18c-0.06-0.02-0.11-0.05-0.14-0.09
			c-0.03-0.04-0.05-0.09-0.05-0.13c0-0.07,0.04-0.14,0.11-0.19c0.07-0.05,0.16-0.08,0.27-0.08c0.1,0,0.19,0.03,0.27,0.08
			c0.07,0.05,0.11,0.11,0.11,0.19c0,0.05-0.02,0.09-0.05,0.14c-0.04,0.04-0.08,0.07-0.14,0.09h0.18V23.43z M98.95,22.94
			c-0.09,0-0.17,0.02-0.23,0.07c-0.07,0.05-0.1,0.1-0.1,0.16c0,0.06,0.03,0.12,0.1,0.16c0.07,0.04,0.14,0.07,0.23,0.07
			c0.09,0,0.17-0.02,0.23-0.07c0.07-0.05,0.1-0.1,0.1-0.16c0-0.06-0.03-0.12-0.1-0.16C99.12,22.96,99.04,22.94,98.95,22.94z"/>
		<path id="XMLID_1293_" class="st0" d="M98.63,23.8h-0.04c0-0.05,0.03-0.1,0.08-0.14c0.05-0.04,0.11-0.06,0.19-0.06h0.75v0.04
			h-0.29v0.15h-0.04v-0.15h-0.41c-0.06,0-0.12,0.02-0.16,0.05C98.65,23.72,98.63,23.76,98.63,23.8z"/>
		<path id="XMLID_1291_" class="st0" d="M98.57,24.19v-0.01c0-0.07,0.04-0.13,0.11-0.18c0.08-0.05,0.16-0.08,0.27-0.08
			c0.1,0,0.19,0.03,0.26,0.08s0.11,0.12,0.11,0.19c0,0.08-0.04,0.14-0.12,0.19h-0.08c0.05-0.02,0.09-0.05,0.12-0.09
			c0.03-0.04,0.04-0.07,0.04-0.11c0-0.06-0.03-0.12-0.1-0.16c-0.07-0.05-0.14-0.07-0.23-0.07c-0.09,0-0.17,0.02-0.23,0.07
			c-0.07,0.05-0.1,0.1-0.1,0.16c0,0.04,0.01,0.08,0.04,0.11c0.03,0.04,0.07,0.06,0.12,0.09H98.7
			C98.61,24.33,98.57,24.26,98.57,24.19z"/>
		<path id="XMLID_1289_" class="st0" d="M98.59,24.57v-0.04h1.19v0.04h-0.61c0.1,0.04,0.16,0.1,0.16,0.19
			c0,0.06-0.03,0.12-0.09,0.16c-0.06,0.04-0.14,0.06-0.22,0.06h-0.42v-0.04h0.42c0.07,0,0.14-0.02,0.19-0.05
			c0.05-0.04,0.08-0.08,0.08-0.13c0-0.05-0.03-0.1-0.08-0.14s-0.12-0.06-0.19-0.06H98.59z"/>
		<path id="XMLID_1286_" class="st0" d="M99.49,25.19c0-0.02,0.01-0.03,0.04-0.03s0.04,0.01,0.04,0.03c0,0.02-0.01,0.03-0.04,0.03
			S99.49,25.22,99.49,25.19z M99.31,25.21h-0.72v-0.04h0.72V25.21z"/>
		<path id="XMLID_1284_" class="st0" d="M98.59,25.45v-0.04h0.72v0.04h-0.15c0.11,0.04,0.16,0.1,0.16,0.19
			c0,0.06-0.03,0.11-0.09,0.16c-0.06,0.04-0.14,0.06-0.22,0.06h-0.42v-0.04h0.42c0.07,0,0.14-0.02,0.19-0.05
			c0.05-0.04,0.08-0.08,0.08-0.13c0-0.05-0.03-0.1-0.08-0.14c-0.05-0.04-0.12-0.06-0.19-0.06H98.59z"/>
		<path id="XMLID_1281_" class="st0" d="M99.31,26.52v0.04h-0.65c-0.12,0-0.22-0.02-0.29-0.07c-0.07-0.05-0.11-0.11-0.11-0.19
			c0-0.04,0.01-0.08,0.04-0.12c0.03-0.04,0.06-0.07,0.11-0.09h0.07c-0.05,0.02-0.09,0.05-0.13,0.09c-0.03,0.04-0.05,0.08-0.05,0.13
			c0,0.07,0.03,0.12,0.09,0.16c0.06,0.04,0.15,0.06,0.26,0.06h0.11c-0.06-0.02-0.11-0.05-0.14-0.09c-0.03-0.04-0.05-0.09-0.05-0.13
			c0-0.07,0.04-0.14,0.11-0.19c0.07-0.05,0.16-0.08,0.27-0.08c0.1,0,0.19,0.03,0.27,0.08c0.07,0.05,0.11,0.11,0.11,0.19
			c0,0.05-0.02,0.09-0.05,0.14c-0.03,0.04-0.08,0.07-0.14,0.09H99.31z M98.95,26.06c-0.09,0-0.17,0.02-0.23,0.07
			c-0.07,0.05-0.1,0.1-0.1,0.16c0,0.06,0.03,0.12,0.1,0.16c0.07,0.04,0.14,0.07,0.23,0.07c0.09,0,0.17-0.02,0.23-0.07
			c0.07-0.04,0.1-0.1,0.1-0.16c0-0.06-0.03-0.12-0.1-0.16C99.12,26.09,99.04,26.06,98.95,26.06z"/>
		<path id="XMLID_1279_" class="st0" d="M99.31,27.16v0.04l-0.63,0.21l0.29,0.1l0.33-0.11v0.04l-0.28,0.09l0.29,0.09v0.03
			l-0.33-0.11l-0.29,0.1l0.63,0.2v0.03l-0.73-0.24l0.35-0.11l-0.35-0.12L99.31,27.16z"/>
		<path id="XMLID_1276_" class="st0" d="M99.49,28.05c0-0.02,0.01-0.03,0.04-0.03s0.04,0.01,0.04,0.03c0,0.02-0.01,0.03-0.04,0.03
			S99.49,28.07,99.49,28.05z M99.31,28.06h-0.72v-0.04h0.72V28.06z"/>
		<path id="XMLID_1274_" class="st0" d="M98.63,28.45h-0.04c0-0.05,0.03-0.1,0.08-0.14c0.05-0.04,0.11-0.06,0.19-0.06h0.75v0.04
			h-0.29v0.15h-0.04v-0.15h-0.41c-0.06,0-0.12,0.02-0.16,0.05C98.65,28.37,98.63,28.41,98.63,28.45z"/>
		<path id="XMLID_1272_" class="st0" d="M98.59,28.63v-0.04h1.19v0.04h-0.61c0.1,0.04,0.16,0.1,0.16,0.19
			c0,0.06-0.03,0.12-0.09,0.16c-0.06,0.04-0.14,0.06-0.22,0.06h-0.42v-0.04h0.42c0.07,0,0.14-0.02,0.19-0.05
			c0.05-0.04,0.08-0.08,0.08-0.13c0-0.05-0.03-0.1-0.08-0.14s-0.12-0.06-0.19-0.06H98.59z"/>
		<path id="XMLID_1269_" class="st0" d="M99.31,30.17h-0.72v-0.04h0.18c-0.06-0.02-0.11-0.05-0.14-0.09
			c-0.03-0.04-0.05-0.09-0.05-0.13c0-0.07,0.04-0.14,0.11-0.19c0.07-0.05,0.16-0.08,0.27-0.08c0.1,0,0.19,0.03,0.27,0.08
			c0.07,0.05,0.11,0.11,0.11,0.19c0,0.05-0.02,0.09-0.05,0.14c-0.04,0.04-0.08,0.07-0.14,0.09h0.18V30.17z M98.95,29.68
			c-0.09,0-0.17,0.02-0.23,0.07c-0.07,0.05-0.1,0.1-0.1,0.16c0,0.06,0.03,0.12,0.1,0.16c0.07,0.04,0.14,0.07,0.23,0.07
			c0.09,0,0.17-0.02,0.23-0.07c0.07-0.05,0.1-0.1,0.1-0.16s-0.03-0.12-0.1-0.16C99.12,29.7,99.04,29.68,98.95,29.68z"/>
		<path id="XMLID_1267_" class="st0" d="M99.29,30.92c0-0.02-0.01-0.04-0.03-0.05c-0.02-0.01-0.04-0.02-0.07-0.02
			c-0.03,0-0.05,0.01-0.07,0.03c-0.02,0.02-0.04,0.04-0.06,0.06C99.04,30.95,99.02,30.98,99,31c-0.02,0.02-0.05,0.04-0.08,0.06
			c-0.03,0.02-0.07,0.03-0.11,0.03c-0.06,0-0.12-0.02-0.16-0.05c-0.04-0.03-0.07-0.07-0.07-0.12c0-0.03,0.01-0.06,0.03-0.08
			c0.02-0.03,0.04-0.04,0.07-0.06h0.08c-0.09,0.03-0.13,0.07-0.13,0.14c0,0.04,0.02,0.07,0.05,0.1c0.03,0.03,0.07,0.04,0.11,0.04
			c0.04,0,0.08-0.01,0.11-0.03c0.03-0.02,0.05-0.04,0.07-0.06c0.02-0.02,0.04-0.05,0.06-0.07c0.02-0.02,0.04-0.04,0.07-0.06
			c0.03-0.02,0.06-0.03,0.1-0.03c0.04,0,0.07,0.01,0.1,0.03c0.03,0.02,0.04,0.05,0.04,0.08c0,0.03-0.02,0.06-0.06,0.09h-0.07
			C99.26,30.98,99.29,30.95,99.29,30.92z"/>
		<path id="XMLID_1264_" class="st0" d="M99.31,31.75h-0.72v-0.04h0.18c-0.06-0.02-0.11-0.05-0.14-0.09
			c-0.03-0.04-0.05-0.09-0.05-0.13c0-0.07,0.04-0.14,0.11-0.19c0.07-0.05,0.16-0.08,0.27-0.08c0.1,0,0.19,0.03,0.27,0.08
			c0.07,0.05,0.11,0.11,0.11,0.19c0,0.05-0.02,0.09-0.05,0.14c-0.04,0.04-0.08,0.07-0.14,0.09h0.18V31.75z M98.95,31.26
			c-0.09,0-0.17,0.02-0.23,0.07c-0.07,0.05-0.1,0.1-0.1,0.16c0,0.06,0.03,0.12,0.1,0.16c0.07,0.04,0.14,0.07,0.23,0.07
			c0.09,0,0.17-0.02,0.23-0.07c0.07-0.05,0.1-0.1,0.1-0.16s-0.03-0.12-0.1-0.16C99.12,31.28,99.04,31.26,98.95,31.26z"/>
		<path id="XMLID_1262_" class="st0" d="M99.28,32.35c0.03,0.03,0.05,0.07,0.05,0.12c0,0.05-0.02,0.09-0.07,0.12
			c-0.05,0.03-0.11,0.05-0.19,0.05h-0.47V32.6h0.47c0.06,0,0.11-0.01,0.15-0.04c0.04-0.03,0.06-0.06,0.06-0.1
			c0-0.04-0.02-0.08-0.06-0.11c-0.04-0.03-0.09-0.05-0.15-0.05h-0.48v-0.04h0.48c0.06,0,0.11-0.01,0.15-0.04
			c0.04-0.03,0.06-0.06,0.06-0.1s-0.02-0.08-0.06-0.1c-0.04-0.03-0.09-0.04-0.15-0.04h-0.48v-0.04h0.72v0.04h-0.1
			c0.03,0.01,0.06,0.04,0.08,0.07c0.02,0.03,0.04,0.06,0.04,0.09s-0.02,0.06-0.05,0.09c-0.03,0.03-0.07,0.05-0.12,0.06
			C99.21,32.3,99.25,32.32,99.28,32.35z"/>
		<path id="XMLID_1259_" class="st0" d="M98.28,32.83h1.04v0.04h-0.18c0.06,0.02,0.11,0.05,0.14,0.09c0.04,0.04,0.05,0.09,0.05,0.13
			c0,0.07-0.04,0.14-0.11,0.19c-0.07,0.05-0.16,0.08-0.27,0.08c-0.1,0-0.19-0.03-0.27-0.08c-0.07-0.05-0.11-0.11-0.11-0.19
			c0-0.04,0.02-0.09,0.05-0.13c0.03-0.04,0.08-0.07,0.14-0.1h-0.49V32.83z M98.95,32.86c-0.09,0-0.17,0.02-0.23,0.07
			c-0.07,0.05-0.1,0.1-0.1,0.16c0,0.06,0.03,0.12,0.1,0.16c0.07,0.04,0.14,0.07,0.23,0.07c0.09,0,0.17-0.02,0.23-0.07
			s0.1-0.1,0.1-0.16c0-0.06-0.03-0.12-0.1-0.16C99.12,32.88,99.04,32.86,98.95,32.86z"/>
		<path id="XMLID_1257_" class="st0" d="M98.62,33.71h-0.04c0-0.05,0.03-0.1,0.08-0.14c0.05-0.04,0.11-0.06,0.19-0.06h0.94v0.04
			h-0.94c-0.06,0-0.12,0.02-0.16,0.05S98.62,33.67,98.62,33.71z"/>
		<path id="XMLID_1254_" class="st0" d="M98.58,34.06v-0.01c0-0.07,0.04-0.13,0.11-0.18c0.08-0.05,0.16-0.08,0.27-0.08
			s0.19,0.03,0.26,0.08c0.07,0.05,0.11,0.12,0.11,0.19c0,0.08-0.04,0.14-0.13,0.2l-0.49-0.35c-0.06,0.05-0.08,0.09-0.08,0.14
			c0,0.04,0.01,0.08,0.04,0.12c0.03,0.04,0.07,0.06,0.12,0.09H98.7C98.62,34.2,98.58,34.14,98.58,34.06z M99.28,34.05
			c0-0.06-0.03-0.11-0.1-0.16c-0.07-0.05-0.14-0.07-0.23-0.07c-0.09,0-0.16,0.02-0.22,0.06l0.46,0.32
			C99.25,34.16,99.28,34.11,99.28,34.05z"/>
	</g>
	<rect id="XMLID_1252_" x="18.8" y="47.57" class="st0" width="0.07" height="2.9"/>
	<rect id="XMLID_1251_" x="18.8" y="27.17" class="st0" width="0.07" height="2.9"/>
	<rect id="XMLID_1250_" x="21.82" y="20.11" class="st0" width="73.67" height="0.09"/>
	<rect id="XMLID_1249_" x="21.82" y="52.62" class="st0" width="73.67" height="0.09"/>
	<path id="XMLID_1246_" class="st0" d="M21.76,18.81v-2.74h73.8v2.74H21.76z M21.89,16.16v2.56h73.53v-2.56H21.89z"/>
	<g id="XMLID_1241_">
		<path id="XMLID_1245_" class="st0" d="M22.27,17.72l0-0.57c0-0.44,0.36-0.8,0.8-0.8h0.26c0.44,0,0.8,0.36,0.8,0.8v0.57
			c0,0.44-0.36,0.8-0.8,0.8h-0.26C22.63,18.52,22.27,18.16,22.27,17.72z"/>
		<path id="XMLID_1242_" class="st0" d="M22.23,17.87v-0.86c0-0.37,0.43-0.67,0.96-0.67s0.96,0.3,0.96,0.67v0.86
			c0,0.37-0.43,0.67-0.96,0.67S22.23,18.24,22.23,17.87z M24.09,17.01c0-0.35-0.4-0.63-0.9-0.63c-0.49,0-0.9,0.28-0.9,0.63v0.86
			c0,0.35,0.4,0.63,0.9,0.63c0.49,0,0.9-0.28,0.9-0.63V17.01z"/>
	</g>
	<g id="XMLID_1236_">
		<path id="XMLID_1240_" class="st0" d="M24.52,17.72v-0.57c0-0.44,0.36-0.8,0.8-0.8h0.26c0.44,0,0.8,0.36,0.8,0.8v0.57
			c0,0.44-0.36,0.8-0.8,0.8h-0.26C24.88,18.52,24.52,18.16,24.52,17.72z"/>
		<path id="XMLID_1237_" class="st0" d="M24.49,17.87v-0.86c0-0.37,0.43-0.67,0.96-0.67s0.96,0.3,0.96,0.67v0.86
			c0,0.37-0.43,0.67-0.96,0.67S24.49,18.24,24.49,17.87z M26.35,17.01c0-0.35-0.4-0.63-0.9-0.63c-0.49,0-0.9,0.28-0.9,0.63v0.86
			c0,0.35,0.4,0.63,0.9,0.63c0.49,0,0.9-0.28,0.9-0.63V17.01z"/>
	</g>
	<g id="XMLID_1231_">
		<path id="XMLID_1235_" class="st0" d="M26.78,17.72v-0.57c0-0.44,0.36-0.8,0.8-0.8h0.26c0.44,0,0.8,0.36,0.8,0.8v0.57
			c0,0.44-0.36,0.8-0.8,0.8h-0.26C27.14,18.52,26.78,18.16,26.78,17.72z"/>
		<path id="XMLID_1232_" class="st0" d="M26.75,17.87v-0.86c0-0.37,0.43-0.67,0.96-0.67s0.96,0.3,0.96,0.67v0.86
			c0,0.37-0.43,0.67-0.96,0.67S26.75,18.24,26.75,17.87z M28.6,17.01c0-0.35-0.4-0.63-0.9-0.63c-0.49,0-0.9,0.28-0.9,0.63v0.86
			c0,0.35,0.4,0.63,0.9,0.63c0.49,0,0.9-0.28,0.9-0.63V17.01z"/>
	</g>
	<g id="XMLID_1226_">
		<path id="XMLID_1230_" class="st0" d="M29.04,17.72v-0.57c0-0.44,0.36-0.8,0.8-0.8h0.26c0.44,0,0.8,0.36,0.8,0.8v0.57
			c0,0.44-0.36,0.8-0.8,0.8h-0.26C29.39,18.52,29.04,18.16,29.04,17.72z"/>
		<path id="XMLID_1227_" class="st0" d="M29,17.87v-0.86c0-0.37,0.43-0.67,0.96-0.67c0.53,0,0.96,0.3,0.96,0.67v0.86
			c0,0.37-0.43,0.67-0.96,0.67C29.43,18.54,29,18.24,29,17.87z M30.86,17.01c0-0.35-0.4-0.63-0.9-0.63c-0.49,0-0.9,0.28-0.9,0.63
			v0.86c0,0.35,0.4,0.63,0.9,0.63c0.49,0,0.9-0.28,0.9-0.63V17.01z"/>
	</g>
	<g id="XMLID_1221_">
		<path id="XMLID_1225_" class="st0" d="M31.33,17.72v-0.57c0-0.44,0.36-0.8,0.8-0.8h0.26c0.44,0,0.8,0.36,0.8,0.8v0.57
			c0,0.44-0.36,0.8-0.8,0.8h-0.26C31.69,18.52,31.33,18.16,31.33,17.72z"/>
		<path id="XMLID_1222_" class="st0" d="M31.3,17.87v-0.86c0-0.37,0.43-0.67,0.96-0.67c0.53,0,0.96,0.3,0.96,0.67v0.86
			c0,0.37-0.43,0.67-0.96,0.67C31.73,18.54,31.3,18.24,31.3,17.87z M33.16,17.01c0-0.35-0.4-0.63-0.9-0.63
			c-0.49,0-0.9,0.28-0.9,0.63v0.86c0,0.35,0.4,0.63,0.9,0.63c0.49,0,0.9-0.28,0.9-0.63V17.01z"/>
	</g>
	<g id="XMLID_1216_">
		<path id="XMLID_1220_" class="st0" d="M33.59,17.72v-0.57c0-0.44,0.36-0.8,0.8-0.8h0.26c0.44,0,0.8,0.36,0.8,0.8v0.57
			c0,0.44-0.36,0.8-0.8,0.8h-0.26C33.95,18.52,33.59,18.16,33.59,17.72z"/>
		<path id="XMLID_1217_" class="st0" d="M33.55,17.87v-0.86c0-0.37,0.43-0.67,0.96-0.67s0.96,0.3,0.96,0.67v0.86
			c0,0.37-0.43,0.67-0.96,0.67S33.55,18.24,33.55,17.87z M35.41,17.01c0-0.35-0.4-0.63-0.9-0.63c-0.49,0-0.9,0.28-0.9,0.63v0.86
			c0,0.35,0.4,0.63,0.9,0.63c0.49,0,0.9-0.28,0.9-0.63V17.01z"/>
	</g>
	<path id="XMLID_1213_" class="st0" d="M35.81,17.87v-0.86c0-0.37,0.43-0.67,0.96-0.67s0.96,0.3,0.96,0.67v0.86
		c0,0.37-0.43,0.67-0.96,0.67S35.81,18.24,35.81,17.87z M37.67,17.01c0-0.35-0.4-0.63-0.9-0.63s-0.9,0.28-0.9,0.63v0.86
		c0,0.35,0.4,0.63,0.9,0.63s0.9-0.28,0.9-0.63V17.01z"/>
	<path id="XMLID_1210_" class="st0" d="M38.07,17.87v-0.86c0-0.37,0.43-0.67,0.96-0.67s0.96,0.3,0.96,0.67v0.86
		c0,0.37-0.43,0.67-0.96,0.67S38.07,18.24,38.07,17.87z M39.93,17.01c0-0.35-0.4-0.63-0.9-0.63c-0.49,0-0.9,0.28-0.9,0.63v0.86
		c0,0.35,0.4,0.63,0.9,0.63c0.49,0,0.9-0.28,0.9-0.63V17.01z"/>
	<path id="XMLID_1207_" class="st0" d="M40.32,17.87v-0.86c0-0.37,0.43-0.67,0.96-0.67s0.96,0.3,0.96,0.67v0.86
		c0,0.37-0.43,0.67-0.96,0.67S40.32,18.24,40.32,17.87z M42.18,17.01c0-0.35-0.4-0.63-0.9-0.63s-0.9,0.28-0.9,0.63v0.86
		c0,0.35,0.4,0.63,0.9,0.63s0.9-0.28,0.9-0.63V17.01z"/>
	<path id="XMLID_1204_" class="st0" d="M42.58,17.87v-0.86c0-0.37,0.43-0.67,0.96-0.67s0.96,0.3,0.96,0.67v0.86
		c0,0.37-0.43,0.67-0.96,0.67S42.58,18.24,42.58,17.87z M44.44,17.01c0-0.35-0.4-0.63-0.9-0.63c-0.49,0-0.9,0.28-0.9,0.63v0.86
		c0,0.35,0.4,0.63,0.9,0.63c0.49,0,0.9-0.28,0.9-0.63V17.01z"/>
	<path id="XMLID_1201_" class="st0" d="M44.84,17.87v-0.86c0-0.37,0.43-0.67,0.96-0.67s0.96,0.3,0.96,0.67v0.86
		c0,0.37-0.43,0.67-0.96,0.67S44.84,18.24,44.84,17.87z M46.7,17.01c0-0.35-0.4-0.63-0.9-0.63s-0.9,0.28-0.9,0.63v0.86
		c0,0.35,0.4,0.63,0.9,0.63s0.9-0.28,0.9-0.63V17.01z"/>
	<path id="XMLID_1198_" class="st0" d="M47.09,17.87v-0.86c0-0.37,0.43-0.67,0.96-0.67s0.96,0.3,0.96,0.67v0.86
		c0,0.37-0.43,0.67-0.96,0.67S47.09,18.24,47.09,17.87z M48.95,17.01c0-0.35-0.4-0.63-0.9-0.63c-0.49,0-0.9,0.28-0.9,0.63v0.86
		c0,0.35,0.4,0.63,0.9,0.63c0.49,0,0.9-0.28,0.9-0.63V17.01z"/>
	<path id="XMLID_1195_" class="st0" d="M49.39,17.87v-0.86c0-0.37,0.43-0.67,0.96-0.67c0.53,0,0.96,0.3,0.96,0.67v0.86
		c0,0.37-0.43,0.67-0.96,0.67C49.82,18.54,49.39,18.24,49.39,17.87z M51.25,17.01c0-0.35-0.4-0.63-0.9-0.63
		c-0.49,0-0.9,0.28-0.9,0.63v0.86c0,0.35,0.4,0.63,0.9,0.63c0.49,0,0.9-0.28,0.9-0.63V17.01z"/>
	<path id="XMLID_1192_" class="st0" d="M51.64,17.87v-0.86c0-0.37,0.43-0.67,0.96-0.67s0.96,0.3,0.96,0.67v0.86
		c0,0.37-0.43,0.67-0.96,0.67S51.64,18.24,51.64,17.87z M53.5,17.01c0-0.35-0.4-0.63-0.9-0.63s-0.9,0.28-0.9,0.63v0.86
		c0,0.35,0.4,0.63,0.9,0.63s0.9-0.28,0.9-0.63V17.01z"/>
	<path id="XMLID_1189_" class="st0" d="M53.9,17.87v-0.86c0-0.37,0.43-0.67,0.96-0.67c0.53,0,0.96,0.3,0.96,0.67v0.86
		c0,0.37-0.43,0.67-0.96,0.67C54.33,18.54,53.9,18.24,53.9,17.87z M55.76,17.01c0-0.35-0.4-0.63-0.9-0.63c-0.49,0-0.9,0.28-0.9,0.63
		v0.86c0,0.35,0.4,0.63,0.9,0.63c0.49,0,0.9-0.28,0.9-0.63V17.01z"/>
	<path id="XMLID_1186_" class="st0" d="M56.16,17.87v-0.86c0-0.37,0.43-0.67,0.96-0.67s0.96,0.3,0.96,0.67v0.86
		c0,0.37-0.43,0.67-0.96,0.67S56.16,18.24,56.16,17.87z M58.02,17.01c0-0.35-0.4-0.63-0.9-0.63s-0.9,0.28-0.9,0.63v0.86
		c0,0.35,0.4,0.63,0.9,0.63s0.9-0.28,0.9-0.63V17.01z"/>
	<path id="XMLID_1183_" class="st0" d="M58.42,17.87v-0.86c0-0.37,0.43-0.67,0.96-0.67c0.53,0,0.96,0.3,0.96,0.67v0.86
		c0,0.37-0.43,0.67-0.96,0.67C58.85,18.54,58.42,18.24,58.42,17.87z M60.27,17.01c0-0.35-0.4-0.63-0.9-0.63
		c-0.49,0-0.9,0.28-0.9,0.63v0.86c0,0.35,0.4,0.63,0.9,0.63c0.49,0,0.9-0.28,0.9-0.63V17.01z"/>
	<path id="XMLID_1180_" class="st0" d="M60.67,17.87v-0.86c0-0.37,0.43-0.67,0.96-0.67s0.96,0.3,0.96,0.67v0.86
		c0,0.37-0.43,0.67-0.96,0.67S60.67,18.24,60.67,17.87z M62.53,17.01c0-0.35-0.4-0.63-0.9-0.63s-0.9,0.28-0.9,0.63v0.86
		c0,0.35,0.4,0.63,0.9,0.63s0.9-0.28,0.9-0.63V17.01z"/>
	<path id="XMLID_1177_" class="st0" d="M62.93,17.87v-0.86c0-0.37,0.43-0.67,0.96-0.67c0.53,0,0.96,0.3,0.96,0.67v0.86
		c0,0.37-0.43,0.67-0.96,0.67C63.36,18.54,62.93,18.24,62.93,17.87z M64.79,17.01c0-0.35-0.4-0.63-0.9-0.63
		c-0.49,0-0.9,0.28-0.9,0.63v0.86c0,0.35,0.4,0.63,0.9,0.63c0.49,0,0.9-0.28,0.9-0.63V17.01z"/>
	<path id="XMLID_1174_" class="st0" d="M65.18,17.87v-0.86c0-0.37,0.43-0.67,0.96-0.67s0.96,0.3,0.96,0.67v0.86
		c0,0.37-0.43,0.67-0.96,0.67S65.18,18.24,65.18,17.87z M67.04,17.01c0-0.35-0.4-0.63-0.9-0.63s-0.9,0.28-0.9,0.63v0.86
		c0,0.35,0.4,0.63,0.9,0.63s0.9-0.28,0.9-0.63V17.01z"/>
	<path id="XMLID_1171_" class="st0" d="M67.48,17.87v-0.86c0-0.37,0.43-0.67,0.96-0.67s0.96,0.3,0.96,0.67v0.86
		c0,0.37-0.43,0.67-0.96,0.67C67.91,18.54,67.48,18.24,67.48,17.87z M69.34,17.01c0-0.35-0.4-0.63-0.9-0.63
		c-0.49,0-0.9,0.28-0.9,0.63v0.86c0,0.35,0.4,0.63,0.9,0.63c0.49,0,0.9-0.28,0.9-0.63V17.01z"/>
	<path id="XMLID_1168_" class="st0" d="M69.74,17.87v-0.86c0-0.37,0.43-0.67,0.96-0.67s0.96,0.3,0.96,0.67v0.86
		c0,0.37-0.43,0.67-0.96,0.67C70.17,18.54,69.74,18.24,69.74,17.87z M71.59,17.01c0-0.35-0.4-0.63-0.9-0.63
		c-0.49,0-0.9,0.28-0.9,0.63v0.86c0,0.35,0.4,0.63,0.9,0.63c0.49,0,0.9-0.28,0.9-0.63V17.01z"/>
	<path id="XMLID_1165_" class="st0" d="M71.99,17.87v-0.86c0-0.37,0.43-0.67,0.96-0.67s0.96,0.3,0.96,0.67v0.86
		c0,0.37-0.43,0.67-0.96,0.67C72.42,18.54,71.99,18.24,71.99,17.87z M73.85,17.01c0-0.35-0.4-0.63-0.9-0.63
		c-0.49,0-0.9,0.28-0.9,0.63v0.86c0,0.35,0.4,0.63,0.9,0.63s0.9-0.28,0.9-0.63V17.01z"/>
	<path id="XMLID_1162_" class="st0" d="M74.25,17.87v-0.86c0-0.37,0.43-0.67,0.96-0.67s0.96,0.3,0.96,0.67v0.86
		c0,0.37-0.43,0.67-0.96,0.67C74.68,18.54,74.25,18.24,74.25,17.87z M76.11,17.01c0-0.35-0.4-0.63-0.9-0.63
		c-0.49,0-0.9,0.28-0.9,0.63v0.86c0,0.35,0.4,0.63,0.9,0.63c0.49,0,0.9-0.28,0.9-0.63V17.01z"/>
	<path id="XMLID_1159_" class="st0" d="M76.51,17.87v-0.86c0-0.37,0.43-0.67,0.96-0.67s0.96,0.3,0.96,0.67v0.86
		c0,0.37-0.43,0.67-0.96,0.67C76.94,18.54,76.51,18.24,76.51,17.87z M78.36,17.01c0-0.35-0.4-0.63-0.9-0.63
		c-0.49,0-0.9,0.28-0.9,0.63v0.86c0,0.35,0.4,0.63,0.9,0.63c0.49,0,0.9-0.28,0.9-0.63V17.01z"/>
	<path id="XMLID_1156_" class="st0" d="M78.76,17.87v-0.86c0-0.37,0.43-0.67,0.96-0.67s0.96,0.3,0.96,0.67v0.86
		c0,0.37-0.43,0.67-0.96,0.67C79.19,18.54,78.76,18.24,78.76,17.87z M80.62,17.01c0-0.35-0.4-0.63-0.9-0.63
		c-0.49,0-0.9,0.28-0.9,0.63v0.86c0,0.35,0.4,0.63,0.9,0.63c0.49,0,0.9-0.28,0.9-0.63V17.01z"/>
	<path id="XMLID_1153_" class="st0" d="M81.02,17.87v-0.86c0-0.37,0.43-0.67,0.96-0.67s0.96,0.3,0.96,0.67v0.86
		c0,0.37-0.43,0.67-0.96,0.67C81.45,18.54,81.02,18.24,81.02,17.87z M82.88,17.01c0-0.35-0.4-0.63-0.9-0.63
		c-0.49,0-0.9,0.28-0.9,0.63v0.86c0,0.35,0.4,0.63,0.9,0.63s0.9-0.28,0.9-0.63V17.01z"/>
	<path id="XMLID_1150_" class="st0" d="M83.28,17.87v-0.86c0-0.37,0.43-0.67,0.96-0.67s0.96,0.3,0.96,0.67v0.86
		c0,0.37-0.43,0.67-0.96,0.67C83.71,18.54,83.28,18.24,83.28,17.87z M85.13,17.01c0-0.35-0.4-0.63-0.9-0.63
		c-0.49,0-0.9,0.28-0.9,0.63v0.86c0,0.35,0.4,0.63,0.9,0.63s0.9-0.28,0.9-0.63V17.01z"/>
	<path id="XMLID_1147_" class="st0" d="M85.57,17.87v-0.86c0-0.37,0.43-0.67,0.96-0.67s0.96,0.3,0.96,0.67v0.86
		c0,0.37-0.43,0.67-0.96,0.67S85.57,18.24,85.57,17.87z M87.43,17.01c0-0.35-0.4-0.63-0.9-0.63s-0.9,0.28-0.9,0.63v0.86
		c0,0.35,0.4,0.63,0.9,0.63s0.9-0.28,0.9-0.63V17.01z"/>
	<path id="XMLID_1144_" class="st0" d="M87.83,17.87v-0.86c0-0.37,0.43-0.67,0.96-0.67s0.96,0.3,0.96,0.67v0.86
		c0,0.37-0.43,0.67-0.96,0.67S87.83,18.24,87.83,17.87z M89.69,17.01c0-0.35-0.4-0.63-0.9-0.63c-0.49,0-0.9,0.28-0.9,0.63v0.86
		c0,0.35,0.4,0.63,0.9,0.63c0.49,0,0.9-0.28,0.9-0.63V17.01z"/>
	<path id="XMLID_1141_" class="st0" d="M90.08,17.87v-0.86c0-0.37,0.43-0.67,0.96-0.67c0.53,0,0.96,0.3,0.96,0.67v0.86
		c0,0.37-0.43,0.67-0.96,0.67C90.52,18.54,90.08,18.24,90.08,17.87z M91.94,17.01c0-0.35-0.4-0.63-0.9-0.63
		c-0.49,0-0.9,0.28-0.9,0.63v0.86c0,0.35,0.4,0.63,0.9,0.63c0.49,0,0.9-0.28,0.9-0.63V17.01z"/>
	<path id="XMLID_1138_" class="st0" d="M92.34,17.87v-0.86c0-0.37,0.43-0.67,0.96-0.67s0.96,0.3,0.96,0.67v0.86
		c0,0.37-0.43,0.67-0.96,0.67S92.34,18.24,92.34,17.87z M94.2,17.01c0-0.35-0.4-0.63-0.9-0.63c-0.49,0-0.9,0.28-0.9,0.63v0.86
		c0,0.35,0.4,0.63,0.9,0.63c0.49,0,0.9-0.28,0.9-0.63V17.01z"/>
	<circle class="st0" cx="23.6" cy="56.05" r="0.98"/>
	<circle class="st0" cx="78.59" cy="56.05" r="0.98"/>
	<circle class="st0" cx="93.3" cy="56.05" r="0.98"/>
	<circle class="st130" cx="37.67" cy="56.05" r="0.98"/>
	<circle class="st130" cx="51.25" cy="56.05" r="0.98"/>
	<circle class="st130" cx="64.63" cy="56.05" r="0.98"/>
</g>
</svg>
