<?xml version="1.0" encoding="utf-8"?>
<!-- Generator: Adobe Illustrator 23.0.0, SVG Export Plug-In . SVG Version: 6.00 Build 0)  -->
<svg version="1.1" id="图层_1" xmlns="http://www.w3.org/2000/svg" xmlns:xlink="http://www.w3.org/1999/xlink" x="0px" y="0px"
	 viewBox="0 0 114 65" style="enable-background:new 0 0 114 65;" xml:space="preserve">
<style type="text/css">
	.st0{fill:#4C7EF1;}
	.st1{fill:#29CB97;}
	.st2{fill:#FEC400;}
	.st3{fill:#B35AF1;}
	.st4{fill:#29C997;}
	.st5{fill:#FFFFFF;}
	.st6{fill:#6B6B6B;}
	.st7{fill:#444444;}
	.st8{opacity:0.1;fill:#FFFFFF;}
	.st9{opacity:0.1;}
	.st10{fill:none;stroke:#F24343;stroke-width:14;stroke-miterlimit:10;}
	.st11{fill:none;stroke:#FFFFFF;stroke-width:14;stroke-miterlimit:10;}
	.st12{fill:none;stroke:#4C7EF1;stroke-width:14;stroke-miterlimit:10;}
	.st13{fill:none;stroke:#FEAB05;stroke-width:14;stroke-miterlimit:10;}
	.st14{fill:none;stroke:#29CB97;stroke-width:8;stroke-miterlimit:10;}
	.st15{fill:none;stroke:#29CB97;stroke-width:16;stroke-miterlimit:10;}
	.st16{fill:none;stroke:#FEC400;stroke-width:16;stroke-miterlimit:10;}
	.st17{fill:none;stroke:#FEAB05;stroke-width:16;stroke-miterlimit:10;}
	.st18{fill:none;stroke:#FEC400;stroke-width:8;stroke-miterlimit:10;}
	.st19{fill:none;stroke:#676767;stroke-width:8;stroke-miterlimit:10;}
	.st20{fill:none;stroke:#FEC400;stroke-width:2;stroke-miterlimit:10;}
	.st21{fill:#E6E6E6;}
	.st22{fill:#74D889;}
	.st23{fill:#FFDC70;}
	.st24{fill:#47ABFC;}
	.st25{fill:none;stroke:#FFFFFF;stroke-miterlimit:10;}
	.st26{fill:#4C7EF1;stroke:#0B0C0E;stroke-miterlimit:10;}
	.st27{fill:#FEC400;stroke:#0B0C0E;stroke-miterlimit:10;}
	.st28{fill:none;stroke:#AAA9A9;stroke-miterlimit:10;}
	.st29{fill:none;stroke:#A5A4A4;stroke-width:2;stroke-miterlimit:10;stroke-dasharray:1.0005,4.002;}
	.st30{fill:none;stroke:#4C7EF1;stroke-width:40;stroke-miterlimit:10;}
	.st31{fill:none;stroke:#FEC400;stroke-width:40;stroke-miterlimit:10;}
	.st32{fill:none;stroke:#676767;stroke-width:20;stroke-miterlimit:10;}
	.st33{fill:none;stroke:#FEC400;stroke-width:20;stroke-miterlimit:10;}
	.st34{fill:none;stroke:#29C997;stroke-width:20;stroke-miterlimit:10;}
	.st35{fill:none;stroke:#FFFFFF;stroke-width:20;stroke-miterlimit:10;}
	.st36{fill:none;stroke:#000000;stroke-miterlimit:10;}
	.st37{fill:none;stroke:#FFFFFF;stroke-width:2;stroke-miterlimit:10;stroke-dasharray:3.941,3.941;}
	.st38{opacity:0.5;fill:none;stroke:#FFFFFF;stroke-width:0.4926;stroke-miterlimit:10;stroke-dasharray:3.941,3.941;}
	.st39{fill:none;stroke:#00B091;stroke-width:4;stroke-miterlimit:10;}
	.st40{fill:none;stroke:#EDBF00;stroke-width:4;stroke-miterlimit:10;}
	.st41{fill:#EDBF00;}
	.st42{fill:#00B091;}
	.st43{opacity:0.8;fill:#00B091;}
	.st44{opacity:0.8;fill:#EDBF00;}
	.st45{opacity:0.8;fill:#D85700;}
	.st46{fill:#4C7EF1;stroke:#4C7EF1;stroke-miterlimit:10;}
	.st47{opacity:0.65;fill:url(#SVGID_1_);}
	.st48{opacity:0.65;fill:url(#SVGID_2_);}
	.st49{opacity:0.65;fill:url(#SVGID_3_);}
	.st50{fill:#292E34;}
	.st51{opacity:0.6;}
	.st52{fill:#334469;}
	.st53{fill:#FEAB05;}
	.st54{opacity:0.4;fill:#0B0C0E;}
	.st55{opacity:0.7;}
	.st56{fill:#F24343;}
	.st57{opacity:0.42;fill:#676767;stroke:#F0F2F8;stroke-miterlimit:10;}
	.st58{fill:none;stroke:#F0F2F8;stroke-width:2;stroke-miterlimit:10;}
	.st59{clip-path:url(#SVGID_5_);}
	.st60{fill:#3B86FF;}
	.st61{opacity:0.36;}
	.st62{fill:#4170ED;}
	.st63{fill:#999999;}
	.st64{opacity:0.15;}
	.st65{clip-path:url(#SVGID_7_);}
	.st66{fill:#1CCC96;}
	.st67{opacity:0.43;}
	.st68{clip-path:url(#SVGID_9_);}
	.st69{fill:#30C3E9;}
	.st70{clip-path:url(#SVGID_11_);}
	.st71{fill:#BCEAEC;}
	.st72{opacity:0.14;}
	.st73{clip-path:url(#SVGID_13_);}
	.st74{fill:#FBC400;}
	.st75{fill:#1F1F1F;}
	.st76{fill:none;stroke:url(#SVGID_14_);stroke-width:0.15;stroke-miterlimit:10;}
	.st77{fill:none;stroke:#00B091;stroke-width:0.15;stroke-miterlimit:10;}
	.st78{fill:none;stroke:url(#SVGID_15_);stroke-width:0.15;stroke-miterlimit:10;}
	.st79{fill:none;stroke:url(#SVGID_16_);stroke-width:0.15;stroke-miterlimit:10;}
	.st80{fill:none;stroke:url(#SVGID_17_);stroke-width:0.15;stroke-miterlimit:10;}
	.st81{fill:none;stroke:url(#SVGID_18_);stroke-width:0.15;stroke-miterlimit:10;}
	.st82{opacity:0.5;fill:#4170ED;}
	.st83{fill:#666666;}
	.st84{fill:none;stroke:#4170ED;stroke-width:0.5;stroke-miterlimit:10;}
	.st85{fill:none;stroke:url(#SVGID_19_);stroke-width:0.5;stroke-miterlimit:10;stroke-dasharray:0.9965,0.9965;}
	.st86{opacity:0.4;}
	.st87{fill:url(#SVGID_20_);stroke:url(#SVGID_21_);stroke-width:0.5;stroke-miterlimit:10;}
	.st88{fill:none;stroke:url(#SVGID_22_);stroke-width:0.5;stroke-miterlimit:10;}
	.st89{fill:url(#SVGID_23_);stroke:url(#SVGID_24_);stroke-width:0.5;stroke-miterlimit:10;}
	.st90{fill:none;stroke:url(#SVGID_25_);stroke-width:0.5;stroke-miterlimit:10;stroke-dasharray:0.9965,0.9965;}
	.st91{fill:url(#SVGID_26_);}
	.st92{fill:none;stroke:url(#SVGID_27_);stroke-width:0.5;stroke-miterlimit:10;stroke-dasharray:0.994,0.994;}
	.st93{fill:none;stroke:url(#SVGID_28_);stroke-width:0.5;stroke-miterlimit:10;}
	.st94{fill:none;stroke:url(#SVGID_29_);stroke-width:0.5;stroke-miterlimit:10;}
	.st95{fill:none;stroke:url(#SVGID_30_);stroke-width:0.5;stroke-miterlimit:10;}
	.st96{fill:url(#SVGID_31_);stroke:url(#SVGID_32_);stroke-width:0.5;stroke-miterlimit:10;}
	.st97{fill:#3885E9;}
	.st98{opacity:0.33;}
	.st99{fill:none;stroke:#999999;stroke-miterlimit:10;}
	.st100{fill:none;stroke:#4170ED;stroke-miterlimit:10;}
	.st101{fill:none;stroke:url(#SVGID_33_);stroke-width:0.5;stroke-miterlimit:10;}
	.st102{fill:url(#SVGID_34_);}
	.st103{opacity:0.3;fill:none;stroke:#4170ED;stroke-miterlimit:10;}
	.st104{opacity:0.87;fill:none;stroke:url(#SVGID_35_);stroke-miterlimit:10;}
	.st105{opacity:0.53;fill:#FFFFFF;}
	.st106{clip-path:url(#SVGID_37_);fill:#BFBFBF;}
	.st107{fill:#BFBFBF;}
	.st108{clip-path:url(#SVGID_39_);fill:#BFBFBF;}
	.st109{clip-path:url(#SVGID_41_);fill:#BFBFBF;}
	.st110{clip-path:url(#SVGID_43_);fill:#BFBFBF;}
	.st111{clip-path:url(#SVGID_45_);fill:#BFBFBF;}
	.st112{clip-path:url(#SVGID_47_);fill:#BFBFBF;}
	.st113{clip-path:url(#SVGID_49_);fill:#BFBFBF;}
	.st114{fill:none;}
	.st115{fill:#1B3E60;}
	.st116{fill:#31446D;stroke:#4170ED;stroke-width:0.5;stroke-miterlimit:10;}
	.st117{opacity:0.31;fill:#EDBF00;}
	.st118{opacity:0.31;fill:#00B091;}
	.st119{fill:#31446D;stroke:#4C7EF1;stroke-width:0.5;stroke-miterlimit:10;}
	.st120{fill:url(#SVGID_50_);}
	.st121{fill:url(#SVGID_51_);stroke:url(#SVGID_52_);stroke-width:0.5;stroke-miterlimit:10;}
	.st122{fill:url(#SVGID_53_);}
	.st123{clip-path:url(#SVGID_55_);fill:#BFBFBF;}
	.st124{clip-path:url(#SVGID_57_);fill:#BFBFBF;}
	.st125{clip-path:url(#SVGID_59_);fill:#BFBFBF;}
	.st126{clip-path:url(#SVGID_61_);fill:#BFBFBF;}
	.st127{clip-path:url(#SVGID_63_);fill:#BFBFBF;}
	.st128{clip-path:url(#SVGID_65_);fill:#BFBFBF;}
	.st129{fill:url(#XMLID_5_);}
	.st130{fill:none;stroke:#4C7EF1;stroke-width:0.25;stroke-miterlimit:10;}
	.st131{opacity:0.5;fill:#4C7EF1;}
	.st132{fill:url(#SVGID_66_);}
	.st133{fill:url(#SVGID_67_);}
	.st134{fill:url(#SVGID_68_);}
	.st135{fill:url(#SVGID_69_);}
	.st136{fill:url(#SVGID_70_);}
</style>
<g>
	<linearGradient id="SVGID_1_" gradientUnits="userSpaceOnUse" x1="39.9739" y1="23.0978" x2="39.9739" y2="39.8787">
		<stop  offset="0" style="stop-color:#292E34;stop-opacity:0"/>
		<stop  offset="1" style="stop-color:#4170ED;stop-opacity:0.4"/>
	</linearGradient>
	<linearGradient id="SVGID_2_" gradientUnits="userSpaceOnUse" x1="39.9739" y1="22.8478" x2="39.9739" y2="40.1287">
		<stop  offset="0" style="stop-color:#292E34"/>
		<stop  offset="1" style="stop-color:#4170ED"/>
	</linearGradient>
	<path style="fill:url(#SVGID_1_);stroke:url(#SVGID_2_);stroke-width:0.5;stroke-miterlimit:10;" d="M56.95,39.88H23
		c-0.55,0-1-0.45-1-1V24.1c0-0.55,0.45-1,1-1h33.96c0.55,0,1,0.45,1,1v14.78C57.95,39.43,57.5,39.88,56.95,39.88z"/>
	<g>
		<path class="st0" d="M36.71,31.68H35.4v3.76h-0.59v-3.76h-1.3v-0.49h3.2V31.68z"/>
		<path class="st0" d="M37.26,31.34c0-0.1,0.03-0.18,0.1-0.24s0.15-0.1,0.26-0.1c0.1,0,0.19,0.03,0.26,0.1
			c0.07,0.06,0.11,0.14,0.11,0.24c0,0.09-0.04,0.17-0.11,0.24c-0.07,0.06-0.16,0.09-0.26,0.09s-0.19-0.03-0.26-0.09
			C37.3,31.51,37.26,31.43,37.26,31.34z M37.33,35.44v-3.03h0.57v3.03H37.33z"/>
		<path class="st0" d="M40.48,35.41c-0.13,0.06-0.29,0.1-0.51,0.1c-0.58,0-0.87-0.3-0.87-0.9v-1.75h-0.56v-0.44h0.56v-0.73
			l0.57-0.17v0.9h0.81v0.44h-0.81v1.66c0,0.2,0.04,0.34,0.11,0.43s0.19,0.13,0.36,0.13c0.13,0,0.24-0.03,0.34-0.1V35.41z"/>
		<path class="st0" d="M41.16,35.44v-4.49h0.57v4.49H41.16z"/>
		<path class="st0" d="M45.4,34.06h-2.27c0.01,0.32,0.1,0.57,0.28,0.75c0.18,0.18,0.43,0.26,0.75,0.26c0.36,0,0.7-0.11,1-0.33v0.48
			c-0.29,0.19-0.66,0.28-1.13,0.28c-0.47,0-0.83-0.14-1.1-0.42c-0.26-0.28-0.39-0.66-0.39-1.16c0-0.46,0.14-0.85,0.43-1.15
			s0.65-0.45,1.07-0.45c0.42,0,0.75,0.13,0.99,0.38s0.36,0.61,0.36,1.07V34.06z M44.83,33.63c0-0.27-0.07-0.49-0.21-0.64
			c-0.14-0.15-0.33-0.22-0.58-0.22c-0.23,0-0.43,0.08-0.59,0.24s-0.27,0.37-0.31,0.62H44.83z"/>
	</g>
	
		<linearGradient id="SVGID_3_" gradientUnits="userSpaceOnUse" x1="78.8895" y1="-133.6593" x2="78.8895" y2="-116.3783" gradientTransform="matrix(1 0 0 -1 0 -91.8314)">
		<stop  offset="0" style="stop-color:#292E34"/>
		<stop  offset="1" style="stop-color:#999999"/>
	</linearGradient>
	<path style="fill:none;stroke:url(#SVGID_3_);stroke-width:0.5;stroke-miterlimit:10;" d="M94.43,24.8H63.35c-0.55,0-1,0.45-1,1
		v14.78c0,0.55,0.45,1,1,1h31.07c0.55,0,1-0.45,1-1V25.8C95.43,25.24,94.98,24.8,94.43,24.8z"/>
	<g>
		<g>
			<path class="st63" d="M74.61,31.31h-1.4v4.02h-0.63v-4.02h-1.39v-0.52h3.42V31.31z"/>
			<path class="st63" d="M75.21,30.95c0-0.1,0.04-0.19,0.11-0.26c0.07-0.07,0.17-0.1,0.27-0.1c0.11,0,0.2,0.03,0.28,0.1
				s0.11,0.15,0.11,0.26c0,0.1-0.04,0.19-0.11,0.25c-0.08,0.07-0.17,0.1-0.28,0.1s-0.2-0.03-0.28-0.1
				C75.24,31.13,75.21,31.05,75.21,30.95z M75.28,35.33v-3.24h0.61v3.24H75.28z"/>
			<path class="st63" d="M76.98,35.33v-4.8h0.61v4.8H76.98z"/>
			<path class="st63" d="M80.35,35.3c-0.13,0.07-0.31,0.1-0.54,0.1c-0.62,0-0.93-0.32-0.93-0.96v-1.87h-0.59v-0.47h0.59v-0.78
				l0.61-0.18v0.96h0.86v0.47h-0.86v1.77c0,0.21,0.04,0.37,0.12,0.46s0.21,0.14,0.39,0.14c0.14,0,0.26-0.04,0.36-0.11V35.3z"/>
			<path class="st63" d="M83.85,33.85h-2.42c0.01,0.35,0.11,0.61,0.3,0.8c0.19,0.19,0.46,0.28,0.8,0.28c0.39,0,0.74-0.12,1.07-0.35
				v0.51c-0.3,0.2-0.71,0.3-1.21,0.3c-0.5,0-0.89-0.15-1.17-0.45c-0.28-0.3-0.42-0.71-0.42-1.24c0-0.5,0.15-0.91,0.46-1.23
				c0.31-0.32,0.69-0.48,1.15-0.48c0.45,0,0.81,0.14,1.06,0.41c0.25,0.27,0.38,0.65,0.38,1.14V33.85z M83.23,33.39
				c0-0.29-0.08-0.52-0.22-0.68c-0.15-0.16-0.35-0.24-0.62-0.24c-0.24,0-0.46,0.08-0.63,0.25c-0.18,0.17-0.29,0.39-0.34,0.67H83.23z
				"/>
		</g>
	</g>
</g>
</svg>
