<?xml version="1.0" encoding="utf-8"?>
<!-- Generator: Adobe Illustrator 23.0.0, SVG Export Plug-In . SVG Version: 6.00 Build 0)  -->
<svg version="1.1" id="图层_1" xmlns="http://www.w3.org/2000/svg" xmlns:xlink="http://www.w3.org/1999/xlink" x="0px" y="0px"
	 viewBox="0 0 114 65" style="enable-background:new 0 0 114 65;" xml:space="preserve">
<style type="text/css">
	.st0{fill:#4C7EF1;}
	.st1{fill:#29CB97;}
	.st2{fill:#FEC400;}
	.st3{fill:#B35AF1;}
	.st4{fill:#29C997;}
	.st5{fill:#FFFFFF;}
	.st6{fill:#6B6B6B;}
	.st7{fill:#444444;}
	.st8{opacity:0.1;fill:#FFFFFF;}
	.st9{opacity:0.1;}
	.st10{fill:none;stroke:#F24343;stroke-width:14;stroke-miterlimit:10;}
	.st11{fill:none;stroke:#FFFFFF;stroke-width:14;stroke-miterlimit:10;}
	.st12{fill:none;stroke:#4C7EF1;stroke-width:14;stroke-miterlimit:10;}
	.st13{fill:none;stroke:#FEAB05;stroke-width:14;stroke-miterlimit:10;}
	.st14{fill:none;stroke:#29CB97;stroke-width:8;stroke-miterlimit:10;}
	.st15{fill:none;stroke:#29CB97;stroke-width:16;stroke-miterlimit:10;}
	.st16{fill:none;stroke:#FEC400;stroke-width:16;stroke-miterlimit:10;}
	.st17{fill:none;stroke:#FEAB05;stroke-width:16;stroke-miterlimit:10;}
	.st18{fill:none;stroke:#FEC400;stroke-width:8;stroke-miterlimit:10;}
	.st19{fill:none;stroke:#676767;stroke-width:8;stroke-miterlimit:10;}
	.st20{fill:none;stroke:#FEC400;stroke-width:2;stroke-miterlimit:10;}
	.st21{fill:#E6E6E6;}
	.st22{fill:#74D889;}
	.st23{fill:#FFDC70;}
	.st24{fill:#47ABFC;}
	.st25{fill:none;stroke:#FFFFFF;stroke-miterlimit:10;}
	.st26{fill:#4C7EF1;stroke:#0B0C0E;stroke-miterlimit:10;}
	.st27{fill:#FEC400;stroke:#0B0C0E;stroke-miterlimit:10;}
	.st28{fill:none;stroke:#AAA9A9;stroke-miterlimit:10;}
	.st29{fill:none;stroke:#A5A4A4;stroke-width:2;stroke-miterlimit:10;stroke-dasharray:1.0005,4.002;}
	.st30{fill:none;stroke:#4C7EF1;stroke-width:40;stroke-miterlimit:10;}
	.st31{fill:none;stroke:#FEC400;stroke-width:40;stroke-miterlimit:10;}
	.st32{fill:none;stroke:#676767;stroke-width:20;stroke-miterlimit:10;}
	.st33{fill:none;stroke:#FEC400;stroke-width:20;stroke-miterlimit:10;}
	.st34{fill:none;stroke:#29C997;stroke-width:20;stroke-miterlimit:10;}
	.st35{fill:none;stroke:#FFFFFF;stroke-width:20;stroke-miterlimit:10;}
	.st36{fill:none;stroke:#000000;stroke-miterlimit:10;}
	.st37{fill:none;stroke:#FFFFFF;stroke-width:2;stroke-miterlimit:10;stroke-dasharray:3.941,3.941;}
	.st38{opacity:0.5;fill:none;stroke:#FFFFFF;stroke-width:0.4926;stroke-miterlimit:10;stroke-dasharray:3.941,3.941;}
	.st39{fill:none;stroke:#00B091;stroke-width:4;stroke-miterlimit:10;}
	.st40{fill:none;stroke:#EDBF00;stroke-width:4;stroke-miterlimit:10;}
	.st41{fill:#EDBF00;}
	.st42{fill:#00B091;}
	.st43{opacity:0.8;fill:#00B091;}
	.st44{opacity:0.8;fill:#EDBF00;}
	.st45{opacity:0.8;fill:#D85700;}
	.st46{fill:#4C7EF1;stroke:#4C7EF1;stroke-miterlimit:10;}
	.st47{opacity:0.65;fill:url(#SVGID_1_);}
	.st48{opacity:0.65;fill:url(#SVGID_2_);}
	.st49{opacity:0.65;fill:url(#SVGID_3_);}
	.st50{fill:#292E34;}
	.st51{opacity:0.6;}
	.st52{fill:#334469;}
	.st53{fill:#FEAB05;}
	.st54{opacity:0.4;fill:#0B0C0E;}
	.st55{opacity:0.7;}
	.st56{fill:#F24343;}
	.st57{opacity:0.42;fill:#676767;stroke:#F0F2F8;stroke-miterlimit:10;}
	.st58{fill:none;stroke:#F0F2F8;stroke-width:2;stroke-miterlimit:10;}
	.st59{clip-path:url(#SVGID_5_);}
	.st60{fill:#3B86FF;}
	.st61{opacity:0.36;}
	.st62{fill:#4170ED;}
	.st63{fill:#999999;}
	.st64{opacity:0.15;}
	.st65{clip-path:url(#SVGID_7_);}
	.st66{fill:#1CCC96;}
	.st67{opacity:0.43;}
	.st68{clip-path:url(#SVGID_9_);}
	.st69{fill:#30C3E9;}
	.st70{clip-path:url(#SVGID_11_);}
	.st71{fill:#BCEAEC;}
	.st72{opacity:0.14;}
	.st73{clip-path:url(#SVGID_13_);}
	.st74{fill:#FBC400;}
	.st75{fill:#1F1F1F;}
	.st76{fill:none;stroke:url(#SVGID_14_);stroke-width:0.15;stroke-miterlimit:10;}
	.st77{fill:none;stroke:#00B091;stroke-width:0.15;stroke-miterlimit:10;}
	.st78{fill:none;stroke:url(#SVGID_15_);stroke-width:0.15;stroke-miterlimit:10;}
	.st79{fill:none;stroke:url(#SVGID_16_);stroke-width:0.15;stroke-miterlimit:10;}
	.st80{fill:none;stroke:url(#SVGID_17_);stroke-width:0.15;stroke-miterlimit:10;}
	.st81{fill:none;stroke:url(#SVGID_18_);stroke-width:0.15;stroke-miterlimit:10;}
	.st82{opacity:0.5;fill:#4170ED;}
	.st83{fill:#666666;}
	.st84{fill:none;stroke:#4170ED;stroke-width:0.5;stroke-miterlimit:10;}
	.st85{fill:none;stroke:url(#SVGID_19_);stroke-width:0.5;stroke-miterlimit:10;stroke-dasharray:0.9965,0.9965;}
	.st86{opacity:0.4;}
	.st87{fill:url(#SVGID_20_);stroke:url(#SVGID_21_);stroke-width:0.5;stroke-miterlimit:10;}
	.st88{fill:none;stroke:url(#SVGID_22_);stroke-width:0.5;stroke-miterlimit:10;}
	.st89{fill:url(#SVGID_23_);stroke:url(#SVGID_24_);stroke-width:0.5;stroke-miterlimit:10;}
	.st90{fill:none;stroke:url(#SVGID_25_);stroke-width:0.5;stroke-miterlimit:10;stroke-dasharray:0.9965,0.9965;}
	.st91{fill:url(#SVGID_26_);}
	.st92{fill:none;stroke:url(#SVGID_27_);stroke-width:0.5;stroke-miterlimit:10;stroke-dasharray:0.994,0.994;}
	.st93{fill:none;stroke:url(#SVGID_28_);stroke-width:0.5;stroke-miterlimit:10;}
	.st94{fill:none;stroke:url(#SVGID_29_);stroke-width:0.5;stroke-miterlimit:10;}
	.st95{fill:none;stroke:url(#SVGID_30_);stroke-width:0.5;stroke-miterlimit:10;}
	.st96{fill:url(#SVGID_31_);stroke:url(#SVGID_32_);stroke-width:0.5;stroke-miterlimit:10;}
	.st97{fill:#3885E9;}
	.st98{opacity:0.33;}
	.st99{fill:none;stroke:#999999;stroke-miterlimit:10;}
	.st100{fill:none;stroke:#4170ED;stroke-miterlimit:10;}
	.st101{fill:none;stroke:url(#SVGID_33_);stroke-width:0.5;stroke-miterlimit:10;}
	.st102{fill:url(#SVGID_34_);}
	.st103{opacity:0.3;fill:none;stroke:#4170ED;stroke-miterlimit:10;}
	.st104{opacity:0.87;fill:none;stroke:url(#SVGID_35_);stroke-miterlimit:10;}
	.st105{opacity:0.53;fill:#FFFFFF;}
	.st106{clip-path:url(#SVGID_37_);fill:#BFBFBF;}
	.st107{fill:#BFBFBF;}
	.st108{clip-path:url(#SVGID_39_);fill:#BFBFBF;}
	.st109{clip-path:url(#SVGID_41_);fill:#BFBFBF;}
	.st110{clip-path:url(#SVGID_43_);fill:#BFBFBF;}
	.st111{clip-path:url(#SVGID_45_);fill:#BFBFBF;}
	.st112{clip-path:url(#SVGID_47_);fill:#BFBFBF;}
	.st113{clip-path:url(#SVGID_49_);fill:#BFBFBF;}
	.st114{fill:none;}
	.st115{fill:#1B3E60;}
	.st116{fill:#31446D;stroke:#4170ED;stroke-width:0.5;stroke-miterlimit:10;}
	.st117{opacity:0.31;fill:#EDBF00;}
	.st118{opacity:0.31;fill:#00B091;}
	.st119{fill:#31446D;stroke:#4C7EF1;stroke-width:0.5;stroke-miterlimit:10;}
	.st120{fill:url(#SVGID_50_);}
	.st121{fill:url(#SVGID_51_);stroke:url(#SVGID_52_);stroke-width:0.5;stroke-miterlimit:10;}
	.st122{fill:url(#SVGID_53_);}
	.st123{clip-path:url(#SVGID_55_);fill:#BFBFBF;}
	.st124{clip-path:url(#SVGID_57_);fill:#BFBFBF;}
	.st125{clip-path:url(#SVGID_59_);fill:#BFBFBF;}
	.st126{clip-path:url(#SVGID_61_);fill:#BFBFBF;}
	.st127{clip-path:url(#SVGID_63_);fill:#BFBFBF;}
	.st128{clip-path:url(#SVGID_65_);fill:#BFBFBF;}
	.st129{fill:url(#XMLID_5_);}
	.st130{fill:none;stroke:#4C7EF1;stroke-width:0.25;stroke-miterlimit:10;}
	.st131{opacity:0.5;fill:#4C7EF1;}
	.st132{fill:url(#SVGID_66_);}
	.st133{fill:url(#SVGID_67_);}
	.st134{fill:url(#SVGID_68_);}
	.st135{fill:url(#SVGID_69_);}
	.st136{fill:url(#SVGID_70_);}
</style>
<linearGradient id="SVGID_1_" gradientUnits="userSpaceOnUse" x1="57.8485" y1="18.1627" x2="57.8485" y2="50.1927">
	<stop  offset="0" style="stop-color:#4170ED;stop-opacity:0.4"/>
	<stop  offset="1" style="stop-color:#292E34;stop-opacity:0"/>
</linearGradient>
<linearGradient id="SVGID_2_" gradientUnits="userSpaceOnUse" x1="57.8485" y1="50.4427" x2="57.8485" y2="17.9127">
	<stop  offset="0" style="stop-color:#292E34"/>
	<stop  offset="1" style="stop-color:#4170ED"/>
</linearGradient>
<path style="fill:url(#SVGID_1_);stroke:url(#SVGID_2_);stroke-width:0.5;stroke-miterlimit:10;" d="M91.24,50.19H24.45
	c-0.55,0-1-0.45-1-1V19.16c0-0.55,0.45-1,1-1h66.79c0.55,0,1,0.45,1,1v30.03C92.24,49.75,91.8,50.19,91.24,50.19z"/>
<g>
	<path class="st0" d="M47.05,31.92H45.3v5.36h-0.79v-5.36h-1.74v-0.7h4.27V31.92z"/>
	<path class="st0" d="M50.51,35.31h-3.02c0.01,0.46,0.14,0.82,0.38,1.07c0.24,0.25,0.57,0.38,1,0.38c0.48,0,0.93-0.16,1.33-0.46
		v0.68c-0.38,0.27-0.88,0.4-1.51,0.4c-0.63,0-1.11-0.2-1.46-0.59c-0.35-0.4-0.53-0.95-0.53-1.65c0-0.66,0.19-1.21,0.58-1.64
		c0.38-0.43,0.86-0.64,1.43-0.64c0.56,0,1.01,0.18,1.32,0.54c0.32,0.36,0.48,0.87,0.48,1.53V35.31z M49.74,34.69
		c0-0.39-0.1-0.69-0.28-0.91c-0.18-0.21-0.44-0.32-0.77-0.32c-0.3,0-0.57,0.11-0.79,0.34s-0.36,0.52-0.42,0.89H49.74z"/>
	<path class="st0" d="M54.8,32.95l-1.45,2.18l1.43,2.14h-0.89l-0.82-1.38c-0.04-0.07-0.11-0.18-0.19-0.34h-0.02
		c0,0.02-0.07,0.13-0.2,0.34l-0.84,1.38h-0.88l1.47-2.12l-1.4-2.2h0.89l0.81,1.45c0.05,0.09,0.11,0.2,0.18,0.34h0.02l1.05-1.79H54.8
		z"/>
	<path class="st0" d="M57.13,37.27V32.1c-0.12,0.12-0.32,0.25-0.61,0.4s-0.55,0.25-0.79,0.31v-0.75c0.32-0.09,0.66-0.23,1.03-0.42
		c0.36-0.19,0.64-0.38,0.84-0.55h0.29v6.18H57.13z"/>
	<path class="st0" d="M60.37,37.27v-6.05h1.78c0.53,0,0.96,0.13,1.27,0.38c0.32,0.25,0.48,0.59,0.48,1.01
		c0,0.33-0.09,0.63-0.28,0.88c-0.19,0.25-0.45,0.44-0.78,0.54v0.02c0.41,0.05,0.74,0.2,0.99,0.47s0.37,0.6,0.37,1.01
		c0,0.52-0.19,0.94-0.56,1.26c-0.37,0.32-0.85,0.48-1.44,0.48H60.37z M61.15,31.91v1.89h0.71c0.38,0,0.67-0.09,0.89-0.28
		s0.32-0.44,0.32-0.76c0-0.57-0.38-0.86-1.14-0.86H61.15z M61.15,34.48v2.11h0.94c0.41,0,0.72-0.09,0.95-0.28s0.33-0.45,0.33-0.79
		c0-0.69-0.47-1.04-1.41-1.04H61.15z"/>
	<path class="st0" d="M65.4,33.25c0.43-0.27,0.93-0.4,1.49-0.4c1.04,0,1.56,0.55,1.56,1.64v2.78h-0.76v-0.67h-0.02
		c-0.3,0.51-0.74,0.77-1.32,0.77c-0.42,0-0.75-0.11-1-0.34c-0.25-0.23-0.37-0.53-0.37-0.92c0-0.81,0.48-1.28,1.43-1.41l1.28-0.18
		c0-0.71-0.29-1.06-0.88-1.06c-0.52,0-0.99,0.17-1.42,0.52V33.25z M66.68,35.24c-0.35,0.05-0.6,0.14-0.73,0.27
		c-0.13,0.13-0.2,0.31-0.2,0.55c0,0.21,0.07,0.37,0.22,0.5c0.15,0.13,0.34,0.2,0.58,0.2c0.33,0,0.61-0.12,0.82-0.35
		c0.22-0.23,0.32-0.53,0.32-0.88v-0.41L66.68,35.24z"/>
	<path class="st0" d="M72.99,32.95l-1.45,2.18l1.43,2.14h-0.89l-0.82-1.38c-0.04-0.07-0.11-0.18-0.19-0.34h-0.02
		c0,0.02-0.07,0.13-0.2,0.34l-0.84,1.38h-0.88l1.47-2.12l-1.4-2.2h0.89l0.81,1.45c0.05,0.09,0.11,0.2,0.18,0.34h0.02l1.05-1.79
		H72.99z"/>
</g>
</svg>
