<?xml version="1.0" encoding="utf-8"?>
<!-- Generator: Adobe Illustrator 23.0.0, SVG Export Plug-In . SVG Version: 6.00 Build 0)  -->
<svg version="1.1" id="图层_1" xmlns="http://www.w3.org/2000/svg" xmlns:xlink="http://www.w3.org/1999/xlink" x="0px" y="0px"
	 viewBox="0 0 114 65" style="enable-background:new 0 0 114 65;" xml:space="preserve">
<style type="text/css">
	.st0{fill:#4C7EF1;}
	.st1{fill:#29CB97;}
	.st2{fill:#FEC400;}
	.st3{fill:#B35AF1;}
	.st4{fill:#29C997;}
	.st5{fill:#FFFFFF;}
	.st6{fill:#6B6B6B;}
	.st7{fill:#444444;}
	.st8{opacity:0.1;fill:#FFFFFF;}
	.st9{opacity:0.1;}
	.st10{fill:none;stroke:#F24343;stroke-width:14;stroke-miterlimit:10;}
	.st11{fill:none;stroke:#FFFFFF;stroke-width:14;stroke-miterlimit:10;}
	.st12{fill:none;stroke:#4C7EF1;stroke-width:14;stroke-miterlimit:10;}
	.st13{fill:none;stroke:#FEAB05;stroke-width:14;stroke-miterlimit:10;}
	.st14{fill:none;stroke:#29CB97;stroke-width:8;stroke-miterlimit:10;}
	.st15{fill:none;stroke:#29CB97;stroke-width:16;stroke-miterlimit:10;}
	.st16{fill:none;stroke:#FEC400;stroke-width:16;stroke-miterlimit:10;}
	.st17{fill:none;stroke:#FEAB05;stroke-width:16;stroke-miterlimit:10;}
	.st18{fill:none;stroke:#FEC400;stroke-width:8;stroke-miterlimit:10;}
	.st19{fill:none;stroke:#676767;stroke-width:8;stroke-miterlimit:10;}
	.st20{fill:none;stroke:#FEC400;stroke-width:2;stroke-miterlimit:10;}
	.st21{fill:#E6E6E6;}
	.st22{fill:#74D889;}
	.st23{fill:#FFDC70;}
	.st24{fill:#47ABFC;}
	.st25{fill:none;stroke:#FFFFFF;stroke-miterlimit:10;}
	.st26{fill:#4C7EF1;stroke:#0B0C0E;stroke-miterlimit:10;}
	.st27{fill:#FEC400;stroke:#0B0C0E;stroke-miterlimit:10;}
	.st28{fill:none;stroke:#AAA9A9;stroke-miterlimit:10;}
	.st29{fill:none;stroke:#A5A4A4;stroke-width:2;stroke-miterlimit:10;stroke-dasharray:1.0005,4.002;}
	.st30{fill:none;stroke:#4C7EF1;stroke-width:40;stroke-miterlimit:10;}
	.st31{fill:none;stroke:#FEC400;stroke-width:40;stroke-miterlimit:10;}
	.st32{fill:none;stroke:#676767;stroke-width:20;stroke-miterlimit:10;}
	.st33{fill:none;stroke:#FEC400;stroke-width:20;stroke-miterlimit:10;}
	.st34{fill:none;stroke:#29C997;stroke-width:20;stroke-miterlimit:10;}
	.st35{fill:none;stroke:#FFFFFF;stroke-width:20;stroke-miterlimit:10;}
	.st36{fill:none;stroke:#000000;stroke-miterlimit:10;}
	.st37{fill:none;stroke:#FFFFFF;stroke-width:2;stroke-miterlimit:10;stroke-dasharray:3.941,3.941;}
	.st38{opacity:0.5;fill:none;stroke:#FFFFFF;stroke-width:0.4926;stroke-miterlimit:10;stroke-dasharray:3.941,3.941;}
	.st39{fill:none;stroke:#00B091;stroke-width:4;stroke-miterlimit:10;}
	.st40{fill:none;stroke:#EDBF00;stroke-width:4;stroke-miterlimit:10;}
	.st41{fill:#EDBF00;}
	.st42{fill:#00B091;}
	.st43{opacity:0.8;fill:#00B091;}
	.st44{opacity:0.8;fill:#EDBF00;}
	.st45{opacity:0.8;fill:#D85700;}
	.st46{fill:#4C7EF1;stroke:#4C7EF1;stroke-miterlimit:10;}
	.st47{opacity:0.65;fill:url(#SVGID_1_);}
	.st48{opacity:0.65;fill:url(#SVGID_2_);}
	.st49{opacity:0.65;fill:url(#SVGID_3_);}
	.st50{fill:#292E34;}
	.st51{opacity:0.6;}
	.st52{fill:#334469;}
	.st53{fill:#FEAB05;}
	.st54{opacity:0.4;fill:#0B0C0E;}
	.st55{opacity:0.7;}
	.st56{fill:#F24343;}
	.st57{opacity:0.42;fill:#676767;stroke:#F0F2F8;stroke-miterlimit:10;}
	.st58{fill:none;stroke:#F0F2F8;stroke-width:2;stroke-miterlimit:10;}
	.st59{clip-path:url(#SVGID_5_);}
	.st60{fill:#3B86FF;}
	.st61{opacity:0.36;}
	.st62{opacity:0.15;}
	.st63{opacity:0.43;}
	.st64{opacity:0.14;}
	.st65{fill:#1F1F1F;}
	.st66{fill:none;stroke:url(#SVGID_14_);stroke-width:0.15;stroke-miterlimit:10;}
	.st67{fill:none;stroke:#00B091;stroke-width:0.15;stroke-miterlimit:10;}
	.st68{fill:none;stroke:url(#SVGID_15_);stroke-width:0.15;stroke-miterlimit:10;}
	.st69{fill:none;stroke:url(#SVGID_16_);stroke-width:0.15;stroke-miterlimit:10;}
	.st70{fill:none;stroke:url(#SVGID_17_);stroke-width:0.15;stroke-miterlimit:10;}
	.st71{fill:none;stroke:url(#SVGID_18_);stroke-width:0.15;stroke-miterlimit:10;}
	.st72{opacity:0.5;fill:#4170ED;}
	.st73{fill:#4170ED;}
	.st74{fill:none;stroke:#4170ED;stroke-width:0.5;stroke-miterlimit:10;}
	.st75{fill:none;stroke:url(#SVGID_19_);stroke-width:0.5;stroke-miterlimit:10;stroke-dasharray:0.9965,0.9965;}
	.st76{opacity:0.4;}
	.st77{fill:url(#SVGID_20_);stroke:url(#SVGID_21_);stroke-width:0.5;stroke-miterlimit:10;}
	.st78{fill:none;stroke:url(#SVGID_22_);stroke-width:0.5;stroke-miterlimit:10;}
	.st79{fill:url(#SVGID_23_);stroke:url(#SVGID_24_);stroke-width:0.5;stroke-miterlimit:10;}
	.st80{fill:none;stroke:url(#SVGID_25_);stroke-width:0.5;stroke-miterlimit:10;stroke-dasharray:0.9965,0.9965;}
	.st81{fill:url(#SVGID_26_);}
	.st82{fill:none;stroke:url(#SVGID_27_);stroke-width:0.5;stroke-miterlimit:10;stroke-dasharray:0.994,0.994;}
	.st83{fill:none;stroke:url(#SVGID_28_);stroke-width:0.5;stroke-miterlimit:10;}
	.st84{fill:none;stroke:url(#SVGID_29_);stroke-width:0.5;stroke-miterlimit:10;}
	.st85{fill:none;stroke:url(#SVGID_30_);stroke-width:0.5;stroke-miterlimit:10;}
	.st86{fill:url(#SVGID_31_);stroke:url(#SVGID_32_);stroke-width:0.5;stroke-miterlimit:10;}
	.st87{fill:#3885E9;}
	.st88{fill:#666666;}
	.st89{opacity:0.33;}
	.st90{fill:#999999;}
	.st91{fill:none;stroke:#999999;stroke-miterlimit:10;}
	.st92{fill:none;stroke:#4170ED;stroke-miterlimit:10;}
	.st93{fill:none;stroke:url(#SVGID_33_);stroke-width:0.5;stroke-miterlimit:10;}
	.st94{fill:url(#SVGID_34_);}
	.st95{opacity:0.3;fill:none;stroke:#4170ED;stroke-miterlimit:10;}
	.st96{opacity:0.87;fill:none;stroke:url(#SVGID_35_);stroke-miterlimit:10;}
	.st97{opacity:0.53;fill:#FFFFFF;}
	.st98{clip-path:url(#SVGID_37_);fill:#BFBFBF;}
	.st99{fill:#BFBFBF;}
	.st100{clip-path:url(#SVGID_39_);fill:#BFBFBF;}
	.st101{clip-path:url(#SVGID_41_);fill:#BFBFBF;}
	.st102{clip-path:url(#SVGID_43_);fill:#BFBFBF;}
	.st103{clip-path:url(#SVGID_45_);fill:#BFBFBF;}
	.st104{clip-path:url(#SVGID_47_);fill:#BFBFBF;}
	.st105{clip-path:url(#SVGID_49_);fill:#BFBFBF;}
	.st106{fill:none;}
	.st107{fill:#1B3E60;}
	.st108{fill:#31446D;stroke:#4170ED;stroke-width:0.5;stroke-miterlimit:10;}
	.st109{opacity:0.31;fill:#EDBF00;}
	.st110{opacity:0.31;fill:#00B091;}
	.st111{fill:#31446D;stroke:#4C7EF1;stroke-width:0.5;stroke-miterlimit:10;}
	.st112{fill:url(#SVGID_50_);}
	.st113{fill:url(#SVGID_51_);stroke:url(#SVGID_52_);stroke-width:0.5;stroke-miterlimit:10;}
	.st114{clip-path:url(#SVGID_54_);fill:#BFBFBF;}
	.st115{clip-path:url(#SVGID_56_);fill:#BFBFBF;}
	.st116{clip-path:url(#SVGID_58_);fill:#BFBFBF;}
	.st117{clip-path:url(#SVGID_60_);fill:#BFBFBF;}
	.st118{clip-path:url(#SVGID_62_);fill:#BFBFBF;}
	.st119{clip-path:url(#SVGID_64_);fill:#BFBFBF;}
	.st120{fill:url(#XMLID_452_);}
	.st121{fill:none;stroke:#4C7EF1;stroke-width:0.25;stroke-miterlimit:10;}
	.st122{opacity:0.5;fill:#4C7EF1;}
	.st123{fill:url(#SVGID_65_);}
	.st124{fill:url(#SVGID_66_);}
	.st125{fill:url(#SVGID_67_);}
	.st126{fill:url(#SVGID_68_);}
	.st127{fill:url(#SVGID_69_);}
	.st128{fill:none;stroke:#4C7EF1;stroke-width:0.5;stroke-miterlimit:10;}
</style>
<g>
	<path class="st74" d="M94.68,40.89H19.32c-0.55,0-1-0.45-1-1V25.11c0-0.55,0.45-1,1-1h75.35c0.55,0,1,0.45,1,1v14.78
		C95.68,40.44,95.23,40.89,94.68,40.89z"/>
	<g>
		<path class="st0" d="M34.88,33.41c0-0.75,0.13-1.32,0.4-1.7s0.65-0.58,1.15-0.58c0.96,0,1.44,0.73,1.44,2.18
			c0,0.72-0.14,1.26-0.41,1.64c-0.27,0.38-0.65,0.57-1.14,0.57c-0.46,0-0.82-0.18-1.07-0.54S34.88,34.1,34.88,33.41z M35.46,33.39
			c0,1.13,0.31,1.69,0.92,1.69c0.6,0,0.9-0.57,0.9-1.72c0-1.19-0.29-1.78-0.88-1.78C35.78,31.58,35.46,32.18,35.46,33.39z"/>
		<path class="st0" d="M38.67,34.87c0.25,0.14,0.52,0.2,0.81,0.2c0.41,0,0.72-0.15,0.94-0.45c0.22-0.3,0.34-0.73,0.34-1.28
			c0,0-0.01,0-0.01,0c-0.2,0.35-0.53,0.53-1,0.53c-0.38,0-0.7-0.12-0.95-0.37s-0.38-0.56-0.38-0.95c0-0.42,0.14-0.76,0.41-1.03
			c0.27-0.27,0.63-0.4,1.06-0.4c0.45,0,0.8,0.17,1.06,0.5c0.25,0.33,0.38,0.81,0.38,1.45c0,0.78-0.16,1.39-0.49,1.81
			c-0.33,0.42-0.78,0.63-1.36,0.63c-0.32,0-0.59-0.05-0.81-0.15V34.87z M39,32.49c0,0.29,0.08,0.51,0.23,0.68s0.37,0.25,0.65,0.25
			c0.24,0,0.44-0.08,0.6-0.23c0.16-0.15,0.24-0.34,0.24-0.55c0-0.31-0.08-0.56-0.24-0.76s-0.37-0.3-0.64-0.3
			c-0.24,0-0.45,0.09-0.61,0.26C39.08,32.01,39,32.23,39,32.49z"/>
		<path class="st0" d="M43.16,32.35c0.1,0,0.19,0.03,0.27,0.1c0.07,0.07,0.11,0.15,0.11,0.24c0,0.1-0.04,0.18-0.11,0.25
			s-0.16,0.1-0.27,0.1s-0.2-0.03-0.27-0.1s-0.11-0.15-0.11-0.25c0-0.09,0.04-0.18,0.11-0.24C42.96,32.39,43.05,32.35,43.16,32.35z
			 M43.16,34.82c0.1,0,0.19,0.03,0.27,0.1s0.11,0.15,0.11,0.25c0,0.1-0.04,0.18-0.11,0.25c-0.07,0.07-0.16,0.1-0.27,0.1
			s-0.19-0.03-0.27-0.1c-0.07-0.07-0.11-0.15-0.11-0.25c0-0.1,0.04-0.18,0.11-0.25S43.05,34.82,43.16,34.82z"/>
		<path class="st0" d="M47.92,33.41c0-0.75,0.13-1.32,0.4-1.7s0.65-0.58,1.15-0.58c0.96,0,1.44,0.73,1.44,2.18
			c0,0.72-0.14,1.26-0.41,1.64c-0.27,0.38-0.65,0.57-1.14,0.57c-0.46,0-0.82-0.18-1.07-0.54S47.92,34.1,47.92,33.41z M48.5,33.39
			c0,1.13,0.31,1.69,0.92,1.69c0.6,0,0.9-0.57,0.9-1.72c0-1.19-0.29-1.78-0.88-1.78C48.81,31.58,48.5,32.18,48.5,33.39z"/>
		<path class="st0" d="M51.43,33.41c0-0.75,0.13-1.32,0.4-1.7s0.65-0.58,1.15-0.58c0.96,0,1.44,0.73,1.44,2.18
			c0,0.72-0.14,1.26-0.41,1.64c-0.27,0.38-0.65,0.57-1.14,0.57c-0.46,0-0.82-0.18-1.07-0.54S51.43,34.1,51.43,33.41z M52.02,33.39
			c0,1.13,0.31,1.69,0.92,1.69c0.6,0,0.9-0.57,0.9-1.72c0-1.19-0.29-1.78-0.88-1.78C52.33,31.58,52.02,32.18,52.02,33.39z"/>
		<path class="st0" d="M56.19,32.35c0.1,0,0.19,0.03,0.27,0.1c0.07,0.07,0.11,0.15,0.11,0.24c0,0.1-0.04,0.18-0.11,0.25
			s-0.16,0.1-0.27,0.1s-0.2-0.03-0.27-0.1s-0.11-0.15-0.11-0.25c0-0.09,0.04-0.18,0.11-0.24C56,32.39,56.09,32.35,56.19,32.35z
			 M56.19,34.82c0.1,0,0.19,0.03,0.27,0.1s0.11,0.15,0.11,0.25c0,0.1-0.04,0.18-0.11,0.25c-0.07,0.07-0.16,0.1-0.27,0.1
			s-0.19-0.03-0.27-0.1c-0.07-0.07-0.11-0.15-0.11-0.25c0-0.1,0.04-0.18,0.11-0.25S56.09,34.82,56.19,34.82z"/>
		<path class="st0" d="M60.95,33.41c0-0.75,0.13-1.32,0.4-1.7s0.65-0.58,1.15-0.58c0.96,0,1.44,0.73,1.44,2.18
			c0,0.72-0.14,1.26-0.41,1.64c-0.27,0.38-0.65,0.57-1.14,0.57c-0.46,0-0.82-0.18-1.07-0.54S60.95,34.1,60.95,33.41z M61.54,33.39
			c0,1.13,0.31,1.69,0.92,1.69c0.6,0,0.9-0.57,0.9-1.72c0-1.19-0.29-1.78-0.88-1.78C61.85,31.58,61.54,32.18,61.54,33.39z"/>
		<path class="st0" d="M64.47,33.41c0-0.75,0.13-1.32,0.4-1.7s0.65-0.58,1.15-0.58c0.96,0,1.44,0.73,1.44,2.18
			c0,0.72-0.14,1.26-0.41,1.64c-0.27,0.38-0.65,0.57-1.14,0.57c-0.46,0-0.82-0.18-1.07-0.54S64.47,34.1,64.47,33.41z M65.06,33.39
			c0,1.13,0.31,1.69,0.92,1.69c0.6,0,0.9-0.57,0.9-1.72c0-1.19-0.29-1.78-0.88-1.78C65.37,31.58,65.06,32.18,65.06,33.39z"/>
	</g>
	<g>
		<path class="st0" d="M30.12,33.42h-1.7v-1.62c0-0.13-0.11-0.23-0.24-0.23c-0.13,0-0.24,0.11-0.24,0.23v1.84c0,0,0,0,0,0.01v0
			c0,0.06,0.03,0.12,0.08,0.17c0.05,0.04,0.11,0.06,0.16,0.06h1.94c0.13-0.03,0.25-0.13,0.24-0.23
			C30.36,33.52,30.24,33.42,30.12,33.42L30.12,33.42z M30.42,30.69l0.29-0.27c0.1-0.09,0.1-0.24,0-0.33c-0.09-0.09-0.25-0.09-0.35,0
			l-0.34,0.32c0,0-0.01,0.01-0.01,0.01C29.54,30.17,29,30,28.42,29.97c0,0,0-0.01,0-0.01V29.5h0.49c0.04,0,0.08-0.01,0.11-0.03
			c0.07-0.04,0.12-0.1,0.13-0.18c0-0.01,0-0.02,0-0.02c0-0.02,0-0.03,0-0.05c0-0.01-0.01-0.03-0.01-0.04
			c-0.01-0.02-0.02-0.04-0.03-0.05c-0.01-0.01-0.01-0.01-0.02-0.02c-0.01-0.01-0.01-0.01-0.02-0.02c-0.02-0.01-0.04-0.02-0.06-0.03
			c-0.01-0.01-0.03-0.01-0.04-0.01c-0.01,0-0.02,0-0.03,0c-0.01,0-0.02,0-0.02,0h-1.46c-0.12,0-0.21,0.08-0.24,0.18
			c0,0.02,0,0.03,0,0.05c0,0.01,0,0.02,0,0.02c0,0.01,0,0.02,0.01,0.03c0,0.01,0.01,0.02,0.01,0.03c0.01,0.02,0.02,0.04,0.04,0.06
			c0.01,0.01,0.01,0.01,0.02,0.02c0.01,0.01,0.01,0.01,0.02,0.02c0.02,0.01,0.04,0.03,0.06,0.03c0.01,0,0.02,0.01,0.03,0.01
			c0.02,0,0.04,0.01,0.05,0.01h0.49c0,0,0,0,0,0v0.46c0,0,0,0.01,0,0.01c-0.58,0.04-1.12,0.2-1.59,0.46c0,0-0.01-0.01-0.01-0.01
			l-0.34-0.32c-0.1-0.09-0.25-0.09-0.35,0c-0.1,0.09-0.09,0.24,0,0.33l0.29,0.27c-0.85,0.63-1.4,1.62-1.4,2.73
			c0,1.91,1.63,3.46,3.65,3.46c2.01,0,3.65-1.55,3.65-3.46C31.83,32.31,31.28,31.33,30.42,30.69L30.42,30.69z M28.18,36.43
			c-1.75,0-3.16-1.34-3.16-3c0-1.66,1.41-3,3.16-3c1.75,0,3.16,1.34,3.16,3C31.34,35.08,29.92,36.43,28.18,36.43L28.18,36.43z
			 M28.18,36.43"/>
	</g>
</g>
</svg>
