<?xml version="1.0" encoding="utf-8"?>
<!-- Generator: Adobe Illustrator 24.1.2, SVG Export Plug-In . SVG Version: 6.00 Build 0)  -->
<svg version="1.1" id="图层_1" xmlns="http://www.w3.org/2000/svg" xmlns:xlink="http://www.w3.org/1999/xlink" x="0px" y="0px"
	 viewBox="0 0 114 65" style="enable-background:new 0 0 114 65;" xml:space="preserve">
<style type="text/css">
	.st0{fill:#4170ED;}
</style>
<g>
	<g>
		<g>
			<path class="st0" d="M33.9,21.3h18.3v3.2h-7.3v19.2h-3.7V24.4h-7.4V21.3z"/>
			<path class="st0" d="M53.6,27.5h4.1l3.4,5l3.4-5h4.1l-5.6,7.6l6.3,8.6h-4.2l-4-6l-4.1,6h-4.2l6.3-8.6L53.6,27.5z"/>
			<path class="st0" d="M76.5,22.2v5.2h3.6v3h-3.6v9.2c0,0.4,0.1,0.7,0.3,0.9c0.2,0.2,0.5,0.3,0.8,0.3h2.1v3H77
				c-1.4,0-2.4-0.3-3.1-1.1c-0.6-0.7-1-1.7-1-3v-9.2H70v-3h2.9v-3.8L76.5,22.2z"/>
		</g>
	</g>
</g>
</svg>
