<?xml version="1.0" encoding="utf-8"?>
<!-- Generator: Adobe Illustrator 23.0.0, SVG Export Plug-In . SVG Version: 6.00 Build 0)  -->
<svg version="1.1" id="图层_1" xmlns="http://www.w3.org/2000/svg" xmlns:xlink="http://www.w3.org/1999/xlink" x="0px" y="0px"
	 viewBox="0 0 114 65" style="enable-background:new 0 0 114 65;" xml:space="preserve">
<style type="text/css">
	.st0{fill:#4C7EF1;}
	.st1{fill:#29CB97;}
	.st2{fill:#FEC400;}
	.st3{fill:#B35AF1;}
	.st4{fill:#29C997;}
	.st5{fill:#FFFFFF;}
	.st6{fill:#6B6B6B;}
	.st7{fill:#444444;}
	.st8{opacity:0.1;fill:#FFFFFF;}
	.st9{opacity:0.1;}
	.st10{fill:none;stroke:#F24343;stroke-width:14;stroke-miterlimit:10;}
	.st11{fill:none;stroke:#FFFFFF;stroke-width:14;stroke-miterlimit:10;}
	.st12{fill:none;stroke:#4C7EF1;stroke-width:14;stroke-miterlimit:10;}
	.st13{fill:none;stroke:#FEAB05;stroke-width:14;stroke-miterlimit:10;}
	.st14{fill:none;stroke:#29CB97;stroke-width:8;stroke-miterlimit:10;}
	.st15{fill:none;stroke:#29CB97;stroke-width:16;stroke-miterlimit:10;}
	.st16{fill:none;stroke:#FEC400;stroke-width:16;stroke-miterlimit:10;}
	.st17{fill:none;stroke:#FEAB05;stroke-width:16;stroke-miterlimit:10;}
	.st18{fill:none;stroke:#FEC400;stroke-width:8;stroke-miterlimit:10;}
	.st19{fill:none;stroke:#676767;stroke-width:8;stroke-miterlimit:10;}
	.st20{fill:none;stroke:#FEC400;stroke-width:2;stroke-miterlimit:10;}
	.st21{fill:#E6E6E6;}
	.st22{fill:#74D889;}
	.st23{fill:#FFDC70;}
	.st24{fill:#47ABFC;}
	.st25{fill:none;stroke:#FFFFFF;stroke-miterlimit:10;}
	.st26{fill:#4C7EF1;stroke:#0B0C0E;stroke-miterlimit:10;}
	.st27{fill:#FEC400;stroke:#0B0C0E;stroke-miterlimit:10;}
	.st28{fill:none;stroke:#AAA9A9;stroke-miterlimit:10;}
	.st29{fill:none;stroke:#A5A4A4;stroke-width:2;stroke-miterlimit:10;stroke-dasharray:1.0005,4.002;}
	.st30{fill:none;stroke:#4C7EF1;stroke-width:40;stroke-miterlimit:10;}
	.st31{fill:none;stroke:#FEC400;stroke-width:40;stroke-miterlimit:10;}
	.st32{fill:none;stroke:#676767;stroke-width:20;stroke-miterlimit:10;}
	.st33{fill:none;stroke:#FEC400;stroke-width:20;stroke-miterlimit:10;}
	.st34{fill:none;stroke:#29C997;stroke-width:20;stroke-miterlimit:10;}
	.st35{fill:none;stroke:#FFFFFF;stroke-width:20;stroke-miterlimit:10;}
	.st36{fill:none;stroke:#000000;stroke-miterlimit:10;}
	.st37{fill:none;stroke:#FFFFFF;stroke-width:2;stroke-miterlimit:10;stroke-dasharray:3.941,3.941;}
	.st38{opacity:0.5;fill:none;stroke:#FFFFFF;stroke-width:0.4926;stroke-miterlimit:10;stroke-dasharray:3.941,3.941;}
	.st39{fill:none;stroke:#00B091;stroke-width:4;stroke-miterlimit:10;}
	.st40{fill:none;stroke:#EDBF00;stroke-width:4;stroke-miterlimit:10;}
	.st41{fill:#EDBF00;}
	.st42{fill:#00B091;}
	.st43{opacity:0.8;fill:#00B091;}
	.st44{opacity:0.8;fill:#EDBF00;}
	.st45{opacity:0.8;fill:#D85700;}
	.st46{fill:#4C7EF1;stroke:#4C7EF1;stroke-miterlimit:10;}
	.st47{opacity:0.65;fill:url(#SVGID_1_);}
	.st48{opacity:0.65;fill:url(#SVGID_2_);}
	.st49{opacity:0.65;fill:url(#SVGID_3_);}
	.st50{fill:#292E34;}
	.st51{opacity:0.6;}
	.st52{fill:#334469;}
	.st53{fill:#FEAB05;}
	.st54{opacity:0.4;fill:#0B0C0E;}
	.st55{opacity:0.7;}
	.st56{fill:#F24343;}
	.st57{opacity:0.42;fill:#676767;stroke:#F0F2F8;stroke-miterlimit:10;}
	.st58{fill:none;stroke:#F0F2F8;stroke-width:2;stroke-miterlimit:10;}
	.st59{clip-path:url(#SVGID_5_);}
	.st60{fill:#3B86FF;}
	.st61{opacity:0.36;}
	.st62{opacity:0.15;}
	.st63{opacity:0.43;}
	.st64{opacity:0.14;}
	.st65{fill:#1F1F1F;}
	.st66{fill:none;stroke:url(#SVGID_14_);stroke-width:0.15;stroke-miterlimit:10;}
	.st67{fill:none;stroke:#00B091;stroke-width:0.15;stroke-miterlimit:10;}
	.st68{fill:none;stroke:url(#SVGID_15_);stroke-width:0.15;stroke-miterlimit:10;}
	.st69{fill:none;stroke:url(#SVGID_16_);stroke-width:0.15;stroke-miterlimit:10;}
	.st70{fill:none;stroke:url(#SVGID_17_);stroke-width:0.15;stroke-miterlimit:10;}
	.st71{fill:none;stroke:url(#SVGID_18_);stroke-width:0.15;stroke-miterlimit:10;}
	.st72{opacity:0.5;fill:#4170ED;}
	.st73{fill:#666666;}
	.st74{fill:#4170ED;}
	.st75{fill:none;stroke:#4170ED;stroke-width:0.5;stroke-miterlimit:10;}
	.st76{fill:none;stroke:url(#SVGID_19_);stroke-width:0.5;stroke-miterlimit:10;stroke-dasharray:0.9965,0.9965;}
	.st77{opacity:0.4;}
	.st78{fill:url(#SVGID_20_);stroke:url(#SVGID_21_);stroke-width:0.5;stroke-miterlimit:10;}
	.st79{fill:none;stroke:url(#SVGID_22_);stroke-width:0.5;stroke-miterlimit:10;}
	.st80{fill:url(#SVGID_23_);stroke:url(#SVGID_24_);stroke-width:0.5;stroke-miterlimit:10;}
	.st81{fill:none;stroke:url(#SVGID_25_);stroke-width:0.5;stroke-miterlimit:10;stroke-dasharray:0.9965,0.9965;}
	.st82{fill:url(#SVGID_26_);}
	.st83{fill:none;stroke:url(#SVGID_27_);stroke-width:0.5;stroke-miterlimit:10;stroke-dasharray:0.994,0.994;}
	.st84{fill:none;stroke:url(#SVGID_28_);stroke-width:0.5;stroke-miterlimit:10;}
	.st85{fill:none;stroke:url(#SVGID_29_);stroke-width:0.5;stroke-miterlimit:10;}
	.st86{fill:none;stroke:url(#SVGID_30_);stroke-width:0.5;stroke-miterlimit:10;}
	.st87{fill:url(#SVGID_31_);stroke:url(#SVGID_32_);stroke-width:0.5;stroke-miterlimit:10;}
	.st88{fill:#3885E9;}
	.st89{opacity:0.33;}
	.st90{fill:#999999;}
	.st91{fill:none;stroke:#999999;stroke-miterlimit:10;}
	.st92{fill:none;stroke:#4170ED;stroke-miterlimit:10;}
	.st93{fill:none;stroke:url(#SVGID_33_);stroke-width:0.5;stroke-miterlimit:10;}
	.st94{fill:url(#SVGID_34_);}
	.st95{opacity:0.3;fill:none;stroke:#4170ED;stroke-miterlimit:10;}
	.st96{opacity:0.87;fill:none;stroke:url(#SVGID_35_);stroke-miterlimit:10;}
	.st97{opacity:0.53;fill:#FFFFFF;}
	.st98{clip-path:url(#SVGID_37_);fill:#BFBFBF;}
	.st99{fill:#BFBFBF;}
	.st100{clip-path:url(#SVGID_39_);fill:#BFBFBF;}
	.st101{clip-path:url(#SVGID_41_);fill:#BFBFBF;}
	.st102{clip-path:url(#SVGID_43_);fill:#BFBFBF;}
	.st103{clip-path:url(#SVGID_45_);fill:#BFBFBF;}
	.st104{clip-path:url(#SVGID_47_);fill:#BFBFBF;}
	.st105{clip-path:url(#SVGID_49_);fill:#BFBFBF;}
	.st106{fill:none;}
	.st107{fill:#1B3E60;}
	.st108{fill:#31446D;stroke:#4170ED;stroke-width:0.5;stroke-miterlimit:10;}
	.st109{opacity:0.31;fill:#EDBF00;}
	.st110{opacity:0.31;fill:#00B091;}
	.st111{fill:#31446D;stroke:#4C7EF1;stroke-width:0.5;stroke-miterlimit:10;}
	.st112{fill:url(#SVGID_50_);}
	.st113{fill:url(#SVGID_51_);stroke:url(#SVGID_52_);stroke-width:0.5;stroke-miterlimit:10;}
	.st114{clip-path:url(#SVGID_54_);fill:#BFBFBF;}
	.st115{clip-path:url(#SVGID_56_);fill:#BFBFBF;}
	.st116{clip-path:url(#SVGID_58_);fill:#BFBFBF;}
	.st117{clip-path:url(#SVGID_60_);fill:#BFBFBF;}
	.st118{clip-path:url(#SVGID_62_);fill:#BFBFBF;}
	.st119{clip-path:url(#SVGID_64_);fill:#BFBFBF;}
	.st120{fill:url(#XMLID_72_);}
	.st121{fill:none;stroke:#4C7EF1;stroke-width:0.25;stroke-miterlimit:10;}
	.st122{opacity:0.5;fill:#4C7EF1;}
	.st123{fill:url(#SVGID_65_);}
	.st124{fill:url(#SVGID_66_);}
	.st125{fill:url(#SVGID_67_);}
	.st126{fill:url(#SVGID_68_);}
	.st127{fill:url(#SVGID_69_);}
	.st128{fill:none;stroke:#4C7EF1;stroke-width:0.5;stroke-miterlimit:10;}
	.st129{opacity:0.36;fill:none;stroke:#84827E;stroke-width:0.5;stroke-miterlimit:10;}
	.st130{fill:url(#SVGID_70_);}
</style>
<g>
	<g>
		<g>
			<path class="st42" d="M33.42,19.11h-1.01l-3.31-4.79c-0.09-0.13-0.17-0.27-0.23-0.4h-0.03c0.02,0.14,0.03,0.43,0.03,0.86v4.33
				h-0.84v-6.16h1.07l3.22,4.71c0.15,0.22,0.24,0.37,0.27,0.43h0.02c-0.03-0.17-0.04-0.47-0.04-0.9v-4.24h0.84V19.11z"/>
			<path class="st42" d="M34.7,16.11c0-0.99,0.29-1.79,0.86-2.37c0.58-0.59,1.35-0.88,2.34-0.88c0.92,0,1.65,0.29,2.21,0.86
				s0.84,1.33,0.84,2.25c0,1-0.29,1.79-0.86,2.38s-1.34,0.88-2.29,0.88c-0.93,0-1.68-0.29-2.25-0.86S34.7,17.03,34.7,16.11z
				 M35.59,16.04c0,0.75,0.2,1.34,0.61,1.79c0.41,0.45,0.94,0.67,1.59,0.67c0.7,0,1.25-0.22,1.66-0.65s0.6-1.03,0.6-1.81
				c0-0.79-0.2-1.41-0.59-1.84c-0.39-0.43-0.93-0.65-1.61-0.65c-0.67,0-1.22,0.23-1.63,0.68C35.8,14.7,35.59,15.3,35.59,16.04z"/>
			<path class="st42" d="M43.79,19.11v-5.27c-0.13,0.12-0.35,0.26-0.66,0.41c-0.31,0.15-0.6,0.26-0.86,0.32v-0.76
				c0.35-0.09,0.72-0.23,1.12-0.43c0.4-0.2,0.7-0.38,0.91-0.56h0.31v6.3H43.79z"/>
		</g>
		<line class="st129" x1="18.91" y1="21.24" x2="95.62" y2="21.24"/>
		<polygon class="st42" points="21.58,12.11 22.57,14.12 24.78,14.44 23.18,16 23.56,18.2 21.58,17.16 19.6,18.2 19.98,16 
			18.38,14.44 20.59,14.12 		"/>
	</g>
	<g>
		<g>
			<path class="st41" d="M32.55,32.08h-0.87l-2.84-4.12c-0.08-0.12-0.14-0.23-0.19-0.34h-0.02c0.02,0.12,0.03,0.37,0.03,0.74v3.72
				h-0.72v-5.29h0.92l2.77,4.05c0.13,0.19,0.21,0.31,0.23,0.37h0.01c-0.02-0.15-0.04-0.41-0.04-0.77v-3.64h0.72V32.08z"/>
			<path class="st41" d="M33.64,29.5c0-0.85,0.25-1.54,0.74-2.04s1.16-0.76,2.01-0.76c0.79,0,1.42,0.25,1.9,0.74
				c0.48,0.49,0.72,1.14,0.72,1.93c0,0.86-0.25,1.54-0.74,2.04c-0.49,0.5-1.15,0.75-1.97,0.75c-0.8,0-1.45-0.25-1.93-0.74
				C33.88,30.94,33.64,30.29,33.64,29.5z M34.41,29.45c0,0.64,0.17,1.15,0.52,1.54c0.35,0.39,0.81,0.58,1.37,0.58
				c0.6,0,1.08-0.19,1.42-0.56s0.52-0.89,0.52-1.55c0-0.68-0.17-1.21-0.51-1.58s-0.8-0.56-1.39-0.56c-0.58,0-1.04,0.2-1.4,0.59
				C34.59,28.3,34.41,28.81,34.41,29.45z"/>
			<path class="st41" d="M42.48,28.18c0-0.29-0.1-0.51-0.29-0.67c-0.19-0.16-0.45-0.24-0.78-0.24c-0.23,0-0.47,0.06-0.71,0.17
				c-0.24,0.11-0.46,0.27-0.67,0.48v-0.65c0.18-0.18,0.39-0.32,0.63-0.41c0.23-0.1,0.51-0.14,0.83-0.14c0.51,0,0.92,0.13,1.23,0.38
				c0.31,0.26,0.47,0.6,0.47,1.04c0,0.39-0.1,0.73-0.29,1.01s-0.52,0.58-0.98,0.88c-0.47,0.31-0.79,0.52-0.95,0.66
				s-0.27,0.26-0.33,0.38c-0.06,0.12-0.09,0.27-0.09,0.44h2.81v0.59H39.8v-0.26c0-0.3,0.04-0.56,0.13-0.78
				c0.09-0.21,0.24-0.42,0.44-0.62c0.2-0.2,0.52-0.44,0.96-0.73c0.44-0.29,0.75-0.55,0.91-0.77S42.48,28.46,42.48,28.18z"/>
		</g>
		<line class="st129" x1="18.91" y1="35.21" x2="95.62" y2="35.21"/>
	</g>
	<g>
		<g>
			<path class="st0" d="M32.55,45.76h-0.87l-2.84-4.12c-0.08-0.12-0.14-0.23-0.19-0.34h-0.02c0.02,0.12,0.03,0.37,0.03,0.74v3.72
				h-0.72v-5.29h0.92l2.77,4.05c0.13,0.19,0.21,0.31,0.23,0.37h0.01c-0.02-0.15-0.04-0.41-0.04-0.77v-3.64h0.72V45.76z"/>
			<path class="st0" d="M33.64,43.18c0-0.85,0.25-1.54,0.74-2.04s1.16-0.76,2.01-0.76c0.79,0,1.42,0.25,1.9,0.74
				c0.48,0.49,0.72,1.14,0.72,1.93c0,0.86-0.25,1.54-0.74,2.04c-0.49,0.5-1.15,0.75-1.97,0.75c-0.8,0-1.45-0.25-1.93-0.74
				C33.88,44.61,33.64,43.97,33.64,43.18z M34.41,43.12c0,0.64,0.17,1.15,0.52,1.54c0.35,0.39,0.81,0.58,1.37,0.58
				c0.6,0,1.08-0.19,1.42-0.56s0.52-0.89,0.52-1.55c0-0.68-0.17-1.21-0.51-1.58s-0.8-0.56-1.39-0.56c-0.58,0-1.04,0.2-1.4,0.59
				C34.59,41.97,34.41,42.49,34.41,43.12z"/>
			<path class="st0" d="M39.89,44.87c0.39,0.28,0.82,0.42,1.31,0.42c0.39,0,0.7-0.09,0.93-0.27c0.23-0.18,0.34-0.42,0.34-0.72
				c0-0.67-0.51-1-1.54-1h-0.47v-0.55h0.45c0.91,0,1.36-0.31,1.36-0.94c0-0.58-0.35-0.87-1.04-0.87c-0.4,0-0.77,0.13-1.12,0.38
				v-0.63c0.37-0.2,0.8-0.3,1.3-0.3c0.48,0,0.87,0.12,1.16,0.35c0.29,0.24,0.44,0.54,0.44,0.92c0,0.69-0.38,1.14-1.13,1.34V43
				c0.41,0.04,0.73,0.18,0.97,0.41c0.24,0.23,0.36,0.51,0.36,0.86c0,0.48-0.18,0.86-0.55,1.15c-0.37,0.29-0.85,0.44-1.46,0.44
				c-0.54,0-0.97-0.09-1.3-0.28V44.87z"/>
		</g>
		<line class="st129" x1="18.91" y1="48.89" x2="95.62" y2="48.89"/>
	</g>
</g>
</svg>
