<?xml version="1.0" encoding="utf-8"?>
<!-- Generator: Adobe Illustrator 23.0.0, SVG Export Plug-In . SVG Version: 6.00 Build 0)  -->
<svg version="1.1" id="图层_1" xmlns="http://www.w3.org/2000/svg" xmlns:xlink="http://www.w3.org/1999/xlink" x="0px" y="0px"
	 viewBox="0 0 114 65" style="enable-background:new 0 0 114 65;" xml:space="preserve">
<style type="text/css">
	.st0{fill:#4C7EF1;}
	.st1{fill:#29CB97;}
	.st2{fill:#FEC400;}
	.st3{fill:#B35AF1;}
	.st4{fill:#29C997;}
	.st5{fill:#FFFFFF;}
	.st6{fill:#6B6B6B;}
	.st7{fill:#444444;}
	.st8{opacity:0.1;fill:#FFFFFF;}
	.st9{opacity:0.1;}
	.st10{fill:none;stroke:#F24343;stroke-width:14;stroke-miterlimit:10;}
	.st11{fill:none;stroke:#FFFFFF;stroke-width:14;stroke-miterlimit:10;}
	.st12{fill:none;stroke:#4C7EF1;stroke-width:14;stroke-miterlimit:10;}
	.st13{fill:none;stroke:#FEAB05;stroke-width:14;stroke-miterlimit:10;}
	.st14{fill:none;stroke:#29CB97;stroke-width:8;stroke-miterlimit:10;}
	.st15{fill:none;stroke:#29CB97;stroke-width:16;stroke-miterlimit:10;}
	.st16{fill:none;stroke:#FEC400;stroke-width:16;stroke-miterlimit:10;}
	.st17{fill:none;stroke:#FEAB05;stroke-width:16;stroke-miterlimit:10;}
	.st18{fill:none;stroke:#FEC400;stroke-width:8;stroke-miterlimit:10;}
	.st19{fill:none;stroke:#676767;stroke-width:8;stroke-miterlimit:10;}
	.st20{fill:none;stroke:#FEC400;stroke-width:2;stroke-miterlimit:10;}
	.st21{fill:#E6E6E6;}
	.st22{fill:#74D889;}
	.st23{fill:#FFDC70;}
	.st24{fill:#47ABFC;}
	.st25{fill:none;stroke:#FFFFFF;stroke-miterlimit:10;}
	.st26{fill:#4C7EF1;stroke:#0B0C0E;stroke-miterlimit:10;}
	.st27{fill:#FEC400;stroke:#0B0C0E;stroke-miterlimit:10;}
	.st28{fill:none;stroke:#AAA9A9;stroke-miterlimit:10;}
	.st29{fill:none;stroke:#A5A4A4;stroke-width:2;stroke-miterlimit:10;stroke-dasharray:1.0005,4.002;}
	.st30{fill:none;stroke:#4C7EF1;stroke-width:40;stroke-miterlimit:10;}
	.st31{fill:none;stroke:#FEC400;stroke-width:40;stroke-miterlimit:10;}
	.st32{fill:none;stroke:#676767;stroke-width:20;stroke-miterlimit:10;}
	.st33{fill:none;stroke:#FEC400;stroke-width:20;stroke-miterlimit:10;}
	.st34{fill:none;stroke:#29C997;stroke-width:20;stroke-miterlimit:10;}
	.st35{fill:none;stroke:#FFFFFF;stroke-width:20;stroke-miterlimit:10;}
	.st36{fill:none;stroke:#000000;stroke-miterlimit:10;}
	.st37{fill:none;stroke:#FFFFFF;stroke-width:2;stroke-miterlimit:10;stroke-dasharray:3.941,3.941;}
	.st38{opacity:0.5;fill:none;stroke:#FFFFFF;stroke-width:0.4926;stroke-miterlimit:10;stroke-dasharray:3.941,3.941;}
	.st39{fill:none;stroke:#00B091;stroke-width:4;stroke-miterlimit:10;}
	.st40{fill:none;stroke:#EDBF00;stroke-width:4;stroke-miterlimit:10;}
	.st41{fill:#EDBF00;}
	.st42{fill:#00B091;}
	.st43{opacity:0.8;fill:#00B091;}
	.st44{opacity:0.8;fill:#EDBF00;}
	.st45{opacity:0.8;fill:#D85700;}
	.st46{fill:#4C7EF1;stroke:#4C7EF1;stroke-miterlimit:10;}
	.st47{opacity:0.65;fill:url(#SVGID_1_);}
	.st48{opacity:0.65;fill:url(#SVGID_2_);}
	.st49{opacity:0.65;fill:url(#SVGID_3_);}
	.st50{fill:#292E34;}
	.st51{opacity:0.6;}
	.st52{fill:#334469;}
	.st53{fill:#FEAB05;}
	.st54{opacity:0.4;fill:#0B0C0E;}
	.st55{opacity:0.7;}
	.st56{fill:#F24343;}
	.st57{opacity:0.42;fill:#676767;stroke:#F0F2F8;stroke-miterlimit:10;}
	.st58{fill:none;stroke:#F0F2F8;stroke-width:2;stroke-miterlimit:10;}
	.st59{clip-path:url(#SVGID_5_);}
	.st60{fill:#3B86FF;}
	.st61{opacity:0.36;}
	.st62{opacity:0.15;}
	.st63{opacity:0.43;}
	.st64{opacity:0.14;}
	.st65{fill:#1F1F1F;}
	.st66{fill:none;stroke:url(#SVGID_14_);stroke-width:0.15;stroke-miterlimit:10;}
	.st67{fill:none;stroke:#00B091;stroke-width:0.15;stroke-miterlimit:10;}
	.st68{fill:none;stroke:url(#SVGID_15_);stroke-width:0.15;stroke-miterlimit:10;}
	.st69{fill:none;stroke:url(#SVGID_16_);stroke-width:0.15;stroke-miterlimit:10;}
	.st70{fill:none;stroke:url(#SVGID_17_);stroke-width:0.15;stroke-miterlimit:10;}
	.st71{fill:none;stroke:url(#SVGID_18_);stroke-width:0.15;stroke-miterlimit:10;}
	.st72{opacity:0.5;fill:#4170ED;}
	.st73{fill:#666666;}
	.st74{fill:#4170ED;}
	.st75{fill:none;stroke:#4170ED;stroke-width:0.5;stroke-miterlimit:10;}
	.st76{fill:none;stroke:url(#SVGID_19_);stroke-width:0.5;stroke-miterlimit:10;stroke-dasharray:0.9965,0.9965;}
	.st77{opacity:0.4;}
	.st78{fill:url(#SVGID_20_);stroke:url(#SVGID_21_);stroke-width:0.5;stroke-miterlimit:10;}
	.st79{fill:none;stroke:url(#SVGID_22_);stroke-width:0.5;stroke-miterlimit:10;}
	.st80{fill:url(#SVGID_23_);stroke:url(#SVGID_24_);stroke-width:0.5;stroke-miterlimit:10;}
	.st81{fill:none;stroke:url(#SVGID_25_);stroke-width:0.5;stroke-miterlimit:10;stroke-dasharray:0.9965,0.9965;}
	.st82{fill:url(#SVGID_26_);}
	.st83{fill:none;stroke:url(#SVGID_27_);stroke-width:0.5;stroke-miterlimit:10;stroke-dasharray:0.994,0.994;}
	.st84{fill:none;stroke:url(#SVGID_28_);stroke-width:0.5;stroke-miterlimit:10;}
	.st85{fill:none;stroke:url(#SVGID_29_);stroke-width:0.5;stroke-miterlimit:10;}
	.st86{fill:none;stroke:url(#SVGID_30_);stroke-width:0.5;stroke-miterlimit:10;}
	.st87{fill:url(#SVGID_31_);stroke:url(#SVGID_32_);stroke-width:0.5;stroke-miterlimit:10;}
	.st88{fill:#3885E9;}
	.st89{opacity:0.33;}
	.st90{fill:#999999;}
	.st91{fill:none;stroke:#999999;stroke-miterlimit:10;}
	.st92{fill:none;stroke:#4170ED;stroke-miterlimit:10;}
	.st93{fill:none;stroke:url(#SVGID_33_);stroke-width:0.5;stroke-miterlimit:10;}
	.st94{fill:url(#SVGID_34_);}
	.st95{opacity:0.3;fill:none;stroke:#4170ED;stroke-miterlimit:10;}
	.st96{opacity:0.87;fill:none;stroke:url(#SVGID_35_);stroke-miterlimit:10;}
	.st97{opacity:0.53;fill:#FFFFFF;}
	.st98{clip-path:url(#SVGID_37_);fill:#BFBFBF;}
	.st99{fill:#BFBFBF;}
	.st100{clip-path:url(#SVGID_39_);fill:#BFBFBF;}
	.st101{clip-path:url(#SVGID_41_);fill:#BFBFBF;}
	.st102{clip-path:url(#SVGID_43_);fill:#BFBFBF;}
	.st103{clip-path:url(#SVGID_45_);fill:#BFBFBF;}
	.st104{clip-path:url(#SVGID_47_);fill:#BFBFBF;}
	.st105{clip-path:url(#SVGID_49_);fill:#BFBFBF;}
	.st106{fill:none;}
	.st107{fill:#1B3E60;}
	.st108{fill:#31446D;stroke:#4170ED;stroke-width:0.5;stroke-miterlimit:10;}
	.st109{opacity:0.31;fill:#EDBF00;}
	.st110{opacity:0.31;fill:#00B091;}
	.st111{fill:#31446D;stroke:#4C7EF1;stroke-width:0.5;stroke-miterlimit:10;}
	.st112{fill:url(#SVGID_50_);}
	.st113{fill:url(#SVGID_51_);stroke:url(#SVGID_52_);stroke-width:0.5;stroke-miterlimit:10;}
	.st114{clip-path:url(#SVGID_54_);fill:#BFBFBF;}
	.st115{clip-path:url(#SVGID_56_);fill:#BFBFBF;}
	.st116{clip-path:url(#SVGID_58_);fill:#BFBFBF;}
	.st117{clip-path:url(#SVGID_60_);fill:#BFBFBF;}
	.st118{clip-path:url(#SVGID_62_);fill:#BFBFBF;}
	.st119{clip-path:url(#SVGID_64_);fill:#BFBFBF;}
	.st120{fill:url(#XMLID_72_);}
	.st121{fill:none;stroke:#4C7EF1;stroke-width:0.25;stroke-miterlimit:10;}
	.st122{opacity:0.5;fill:#4C7EF1;}
	.st123{fill:url(#SVGID_65_);}
	.st124{fill:url(#SVGID_66_);}
	.st125{fill:url(#SVGID_67_);}
	.st126{fill:url(#SVGID_68_);}
	.st127{fill:url(#SVGID_69_);}
	.st128{fill:none;stroke:#4C7EF1;stroke-width:0.5;stroke-miterlimit:10;}
	.st129{opacity:0.36;fill:none;stroke:#84827E;stroke-width:0.5;stroke-miterlimit:10;}
	.st130{fill:url(#SVGID_70_);}
</style>
<g>
	<g>
		<linearGradient id="SVGID_1_" gradientUnits="userSpaceOnUse" x1="44.321" y1="34.8746" x2="69.679" y2="34.8746">
			<stop  offset="0" style="stop-color:#4C7EF1"/>
			<stop  offset="1" style="stop-color:#3B5899"/>
		</linearGradient>
		<path style="fill:url(#SVGID_1_);" d="M57.69,28.45c-1.92,0-3.48-1.56-3.48-3.48c0-1.92,1.56-3.48,3.48-3.48
			c1.92,0,3.48,1.56,3.48,3.48S59.61,28.45,57.69,28.45L57.69,28.45z M50.28,31.21c-1.75,0-3.18-1.43-3.18-3.18
			c0-1.75,1.43-3.18,3.18-3.18c1.75,0,3.18,1.43,3.18,3.18C53.46,29.79,52.03,31.21,50.28,31.21L50.28,31.21z M47.13,38.41
			c-1.55,0-2.81-1.26-2.81-2.81c0-1.55,1.26-2.8,2.81-2.8c1.55,0,2.8,1.26,2.8,2.8C49.93,37.15,48.67,38.41,47.13,38.41L47.13,38.41
			z M50.28,45.54c-1.31,0-2.38-1.07-2.38-2.38c0-1.31,1.07-2.38,2.38-2.38c1.31,0,2.38,1.07,2.38,2.38
			C52.66,44.47,51.59,45.54,50.28,45.54L50.28,45.54z M57.69,48.27c-1.15,0-2.08-0.93-2.08-2.08c0-1.15,0.93-2.08,2.08-2.08
			c1.15,0,2.08,0.93,2.08,2.08C59.77,47.33,58.84,48.27,57.69,48.27L57.69,48.27z M65.22,44.75c-0.92,0-1.68-0.75-1.68-1.68
			c0-0.93,0.75-1.68,1.68-1.68c0.92,0,1.68,0.75,1.68,1.68C66.9,44,66.14,44.75,65.22,44.75L65.22,44.75z M68.3,36.99
			c-0.76,0-1.38-0.62-1.38-1.38c0-0.76,0.62-1.38,1.38-1.38c0.76,0,1.38,0.62,1.38,1.38C69.68,36.38,69.06,36.99,68.3,36.99
			L68.3,36.99z M64.15,28.14c0,0.59,0.48,1.07,1.07,1.07c0.59,0,1.07-0.48,1.07-1.07c0-0.59-0.48-1.07-1.07-1.07
			C64.63,27.07,64.15,27.55,64.15,28.14L64.15,28.14z M64.15,28.14"/>
	</g>
</g>
</svg>
