<?xml version="1.0" encoding="utf-8"?>
<!-- Generator: Adobe Illustrator 23.0.0, SVG Export Plug-In . SVG Version: 6.00 Build 0)  -->
<svg version="1.1" id="图层_1" xmlns="http://www.w3.org/2000/svg" xmlns:xlink="http://www.w3.org/1999/xlink" x="0px" y="0px"
	 viewBox="0 0 114 65" style="enable-background:new 0 0 114 65;" xml:space="preserve">
<style type="text/css">
	.st0{fill:#4C7EF1;}
	.st1{fill:#29CB97;}
	.st2{fill:#FEC400;}
	.st3{fill:#B35AF1;}
	.st4{fill:#29C997;}
	.st5{fill:#FFFFFF;}
	.st6{fill:#6B6B6B;}
	.st7{fill:#444444;}
	.st8{opacity:0.1;fill:#FFFFFF;}
	.st9{opacity:0.1;}
	.st10{fill:none;stroke:#F24343;stroke-width:14;stroke-miterlimit:10;}
	.st11{fill:none;stroke:#FFFFFF;stroke-width:14;stroke-miterlimit:10;}
	.st12{fill:none;stroke:#4C7EF1;stroke-width:14;stroke-miterlimit:10;}
	.st13{fill:none;stroke:#FEAB05;stroke-width:14;stroke-miterlimit:10;}
	.st14{fill:none;stroke:#29CB97;stroke-width:8;stroke-miterlimit:10;}
	.st15{fill:none;stroke:#29CB97;stroke-width:16;stroke-miterlimit:10;}
	.st16{fill:none;stroke:#FEC400;stroke-width:16;stroke-miterlimit:10;}
	.st17{fill:none;stroke:#FEAB05;stroke-width:16;stroke-miterlimit:10;}
	.st18{fill:none;stroke:#FEC400;stroke-width:8;stroke-miterlimit:10;}
	.st19{fill:none;stroke:#676767;stroke-width:8;stroke-miterlimit:10;}
	.st20{fill:none;stroke:#FEC400;stroke-width:2;stroke-miterlimit:10;}
	.st21{fill:#E6E6E6;}
	.st22{fill:#74D889;}
	.st23{fill:#FFDC70;}
	.st24{fill:#47ABFC;}
	.st25{fill:none;stroke:#FFFFFF;stroke-miterlimit:10;}
	.st26{fill:#4C7EF1;stroke:#0B0C0E;stroke-miterlimit:10;}
	.st27{fill:#FEC400;stroke:#0B0C0E;stroke-miterlimit:10;}
	.st28{fill:none;stroke:#AAA9A9;stroke-miterlimit:10;}
	.st29{fill:none;stroke:#A5A4A4;stroke-width:2;stroke-miterlimit:10;stroke-dasharray:1.0005,4.002;}
	.st30{fill:none;stroke:#4C7EF1;stroke-width:40;stroke-miterlimit:10;}
	.st31{fill:none;stroke:#FEC400;stroke-width:40;stroke-miterlimit:10;}
	.st32{fill:none;stroke:#676767;stroke-width:20;stroke-miterlimit:10;}
	.st33{fill:none;stroke:#FEC400;stroke-width:20;stroke-miterlimit:10;}
	.st34{fill:none;stroke:#29C997;stroke-width:20;stroke-miterlimit:10;}
	.st35{fill:none;stroke:#FFFFFF;stroke-width:20;stroke-miterlimit:10;}
	.st36{fill:none;stroke:#000000;stroke-miterlimit:10;}
	.st37{fill:none;stroke:#FFFFFF;stroke-width:2;stroke-miterlimit:10;stroke-dasharray:3.941,3.941;}
	.st38{opacity:0.5;fill:none;stroke:#FFFFFF;stroke-width:0.4926;stroke-miterlimit:10;stroke-dasharray:3.941,3.941;}
	.st39{fill:none;stroke:#00B091;stroke-width:4;stroke-miterlimit:10;}
	.st40{fill:none;stroke:#EDBF00;stroke-width:4;stroke-miterlimit:10;}
	.st41{fill:#EDBF00;}
	.st42{fill:#00B091;}
	.st43{opacity:0.8;fill:#00B091;}
	.st44{opacity:0.8;fill:#EDBF00;}
	.st45{opacity:0.8;fill:#D85700;}
	.st46{fill:#4C7EF1;stroke:#4C7EF1;stroke-miterlimit:10;}
	.st47{opacity:0.65;fill:url(#SVGID_1_);}
	.st48{opacity:0.65;fill:url(#SVGID_2_);}
	.st49{opacity:0.65;fill:url(#SVGID_3_);}
	.st50{fill:#292E34;}
	.st51{opacity:0.6;}
	.st52{fill:#334469;}
	.st53{fill:#FEAB05;}
	.st54{opacity:0.4;fill:#0B0C0E;}
	.st55{opacity:0.7;}
	.st56{fill:#F24343;}
	.st57{opacity:0.42;fill:#676767;stroke:#F0F2F8;stroke-miterlimit:10;}
	.st58{fill:none;stroke:#F0F2F8;stroke-width:2;stroke-miterlimit:10;}
	.st59{clip-path:url(#SVGID_5_);}
	.st60{fill:#3B86FF;}
	.st61{opacity:0.36;}
	.st62{opacity:0.15;}
	.st63{opacity:0.43;}
	.st64{opacity:0.14;}
	.st65{fill:#1F1F1F;}
	.st66{fill:none;stroke:url(#SVGID_14_);stroke-width:0.15;stroke-miterlimit:10;}
	.st67{fill:none;stroke:#00B091;stroke-width:0.15;stroke-miterlimit:10;}
	.st68{fill:none;stroke:url(#SVGID_15_);stroke-width:0.15;stroke-miterlimit:10;}
	.st69{fill:none;stroke:url(#SVGID_16_);stroke-width:0.15;stroke-miterlimit:10;}
	.st70{fill:none;stroke:url(#SVGID_17_);stroke-width:0.15;stroke-miterlimit:10;}
	.st71{fill:none;stroke:url(#SVGID_18_);stroke-width:0.15;stroke-miterlimit:10;}
	.st72{opacity:0.5;fill:#4170ED;}
	.st73{fill:#666666;}
	.st74{fill:#4170ED;}
	.st75{fill:none;stroke:#4170ED;stroke-width:0.5;stroke-miterlimit:10;}
	.st76{fill:none;stroke:url(#SVGID_19_);stroke-width:0.5;stroke-miterlimit:10;stroke-dasharray:0.9965,0.9965;}
	.st77{opacity:0.4;}
	.st78{fill:url(#SVGID_20_);stroke:url(#SVGID_21_);stroke-width:0.5;stroke-miterlimit:10;}
	.st79{fill:none;stroke:url(#SVGID_22_);stroke-width:0.5;stroke-miterlimit:10;}
	.st80{fill:url(#SVGID_23_);stroke:url(#SVGID_24_);stroke-width:0.5;stroke-miterlimit:10;}
	.st81{fill:none;stroke:url(#SVGID_25_);stroke-width:0.5;stroke-miterlimit:10;stroke-dasharray:0.9965,0.9965;}
	.st82{fill:url(#SVGID_26_);}
	.st83{fill:none;stroke:url(#SVGID_27_);stroke-width:0.5;stroke-miterlimit:10;stroke-dasharray:0.994,0.994;}
	.st84{fill:none;stroke:url(#SVGID_28_);stroke-width:0.5;stroke-miterlimit:10;}
	.st85{fill:none;stroke:url(#SVGID_29_);stroke-width:0.5;stroke-miterlimit:10;}
	.st86{fill:none;stroke:url(#SVGID_30_);stroke-width:0.5;stroke-miterlimit:10;}
	.st87{fill:url(#SVGID_31_);stroke:url(#SVGID_32_);stroke-width:0.5;stroke-miterlimit:10;}
	.st88{fill:#3885E9;}
	.st89{opacity:0.33;}
	.st90{fill:#999999;}
	.st91{fill:none;stroke:#999999;stroke-miterlimit:10;}
	.st92{fill:none;stroke:#4170ED;stroke-miterlimit:10;}
	.st93{fill:none;stroke:url(#SVGID_33_);stroke-width:0.5;stroke-miterlimit:10;}
	.st94{fill:url(#SVGID_34_);}
	.st95{opacity:0.3;fill:none;stroke:#4170ED;stroke-miterlimit:10;}
	.st96{opacity:0.87;fill:none;stroke:url(#SVGID_35_);stroke-miterlimit:10;}
	.st97{opacity:0.53;fill:#FFFFFF;}
	.st98{clip-path:url(#SVGID_37_);fill:#BFBFBF;}
	.st99{fill:#BFBFBF;}
	.st100{clip-path:url(#SVGID_39_);fill:#BFBFBF;}
	.st101{clip-path:url(#SVGID_41_);fill:#BFBFBF;}
	.st102{clip-path:url(#SVGID_43_);fill:#BFBFBF;}
	.st103{clip-path:url(#SVGID_45_);fill:#BFBFBF;}
	.st104{clip-path:url(#SVGID_47_);fill:#BFBFBF;}
	.st105{clip-path:url(#SVGID_49_);fill:#BFBFBF;}
	.st106{fill:none;}
	.st107{fill:#1B3E60;}
	.st108{fill:#31446D;stroke:#4170ED;stroke-width:0.5;stroke-miterlimit:10;}
	.st109{opacity:0.31;fill:#EDBF00;}
	.st110{opacity:0.31;fill:#00B091;}
	.st111{fill:#31446D;stroke:#4C7EF1;stroke-width:0.5;stroke-miterlimit:10;}
	.st112{fill:url(#SVGID_50_);}
	.st113{fill:url(#SVGID_51_);stroke:url(#SVGID_52_);stroke-width:0.5;stroke-miterlimit:10;}
	.st114{clip-path:url(#SVGID_54_);fill:#BFBFBF;}
	.st115{clip-path:url(#SVGID_56_);fill:#BFBFBF;}
	.st116{clip-path:url(#SVGID_58_);fill:#BFBFBF;}
	.st117{clip-path:url(#SVGID_60_);fill:#BFBFBF;}
	.st118{clip-path:url(#SVGID_62_);fill:#BFBFBF;}
	.st119{clip-path:url(#SVGID_64_);fill:#BFBFBF;}
	.st120{fill:url(#XMLID_72_);}
	.st121{fill:none;stroke:#4C7EF1;stroke-width:0.25;stroke-miterlimit:10;}
	.st122{opacity:0.5;fill:#4C7EF1;}
	.st123{fill:url(#SVGID_65_);}
	.st124{fill:url(#SVGID_66_);}
	.st125{fill:url(#SVGID_67_);}
	.st126{fill:url(#SVGID_68_);}
	.st127{fill:url(#SVGID_69_);}
	.st128{fill:none;stroke:#4C7EF1;stroke-width:0.5;stroke-miterlimit:10;}
	.st129{opacity:0.36;fill:none;stroke:#84827E;stroke-width:0.5;stroke-miterlimit:10;}
	.st130{fill:url(#SVGID_70_);}
</style>
<g>
	<rect id="XMLID_41_" x="17.71" y="20.77" class="st72" width="77.91" height="0.26"/>
	<rect id="XMLID_38_" x="17.64" y="12.87" class="st72" width="0.53" height="8.15"/>
	<g>
		<g>
			<path class="st73" d="M22.32,18.44V15.6h0.4l0.91,1.43c0.21,0.33,0.37,0.63,0.51,0.92l0.01,0c-0.03-0.38-0.04-0.72-0.04-1.17
				V15.6h0.34v2.83h-0.37L23.18,17c-0.2-0.32-0.39-0.64-0.53-0.95l-0.01,0c0.02,0.36,0.03,0.7,0.03,1.17v1.21H22.32z"/>
			<path class="st73" d="M27.51,16.99c0,0.98-0.59,1.49-1.32,1.49c-0.75,0-1.27-0.58-1.27-1.44c0-0.9,0.56-1.49,1.32-1.49
				C27.01,15.56,27.51,16.15,27.51,16.99z M25.31,17.04c0,0.61,0.33,1.15,0.9,1.15c0.58,0,0.91-0.53,0.91-1.18
				c0-0.56-0.29-1.15-0.9-1.15C25.61,15.86,25.31,16.42,25.31,17.04z"/>
			<path class="st73" d="M27.74,18.22c0-0.16,0.1-0.26,0.25-0.26s0.25,0.11,0.25,0.26c0,0.15-0.1,0.26-0.25,0.26
				C27.84,18.48,27.74,18.37,27.74,18.22z"/>
			<path class="st73" d="M29.38,16.05L29.38,16.05l-0.48,0.26l-0.07-0.28l0.6-0.32h0.32v2.73h-0.36V16.05z"/>
		</g>
	</g>
	<rect id="XMLID_33_" x="17.71" y="31.09" class="st72" width="77.91" height="0.26"/>
	<rect id="XMLID_31_" x="17.64" y="23.2" class="st72" width="0.53" height="8.15"/>
	<g>
		<g>
			<path class="st73" d="M22.32,28.76v-2.83h0.4l0.91,1.43c0.21,0.33,0.37,0.63,0.51,0.92l0.01,0c-0.03-0.38-0.04-0.72-0.04-1.17
				v-1.19h0.34v2.83h-0.37l-0.9-1.44c-0.2-0.32-0.39-0.64-0.53-0.95l-0.01,0c0.02,0.36,0.03,0.7,0.03,1.17v1.21H22.32z"/>
			<path class="st73" d="M27.51,27.31c0,0.98-0.59,1.49-1.32,1.49c-0.75,0-1.27-0.58-1.27-1.44c0-0.9,0.56-1.49,1.32-1.49
				C27.01,25.88,27.51,26.47,27.51,27.31z M25.31,27.36c0,0.61,0.33,1.15,0.9,1.15c0.58,0,0.91-0.53,0.91-1.18
				c0-0.56-0.29-1.15-0.9-1.15C25.61,26.18,25.31,26.74,25.31,27.36z"/>
			<path class="st73" d="M27.74,28.54c0-0.16,0.1-0.26,0.25-0.26s0.25,0.11,0.25,0.26c0,0.15-0.1,0.26-0.25,0.26
				C27.84,28.81,27.74,28.69,27.74,28.54z"/>
			<path class="st73" d="M28.58,28.76v-0.23l0.29-0.28c0.7-0.66,1.01-1.02,1.02-1.43c0-0.28-0.13-0.53-0.54-0.53
				c-0.25,0-0.45,0.13-0.58,0.23l-0.12-0.26c0.19-0.16,0.46-0.28,0.77-0.28c0.59,0,0.84,0.4,0.84,0.79c0,0.51-0.37,0.91-0.94,1.47
				l-0.22,0.2v0.01h1.23v0.31H28.58z"/>
		</g>
	</g>
	<g>
		<g>
			<path class="st42" d="M37.12,26.17h-0.8v2.46h-0.36v-2.46h-0.8v-0.32h1.96V26.17z"/>
			<path class="st42" d="M37.46,25.95c0-0.06,0.02-0.11,0.06-0.16c0.04-0.04,0.09-0.06,0.16-0.06c0.06,0,0.12,0.02,0.16,0.06
				c0.04,0.04,0.07,0.09,0.07,0.16c0,0.06-0.02,0.11-0.07,0.15c-0.04,0.04-0.1,0.06-0.16,0.06s-0.12-0.02-0.16-0.06
				C37.48,26.06,37.46,26.01,37.46,25.95z M37.5,28.63v-1.98h0.35v1.98H37.5z"/>
			<path class="st42" d="M39.43,28.61c-0.08,0.04-0.18,0.06-0.31,0.06c-0.36,0-0.53-0.2-0.53-0.59v-1.15h-0.34v-0.29h0.34v-0.48
				l0.35-0.11v0.59h0.49v0.29h-0.49v1.08c0,0.13,0.02,0.22,0.07,0.28c0.04,0.06,0.12,0.08,0.22,0.08c0.08,0,0.15-0.02,0.21-0.07
				V28.61z"/>
			<path class="st42" d="M39.85,28.63v-2.94h0.35v2.94H39.85z"/>
			<path class="st42" d="M42.44,27.73h-1.39c0.01,0.21,0.06,0.38,0.17,0.49c0.11,0.12,0.26,0.17,0.46,0.17
				c0.22,0,0.43-0.07,0.61-0.21v0.31c-0.17,0.12-0.41,0.18-0.69,0.18c-0.29,0-0.51-0.09-0.67-0.27c-0.16-0.18-0.24-0.43-0.24-0.76
				c0-0.3,0.09-0.56,0.26-0.75c0.18-0.2,0.4-0.3,0.66-0.3c0.26,0,0.46,0.08,0.61,0.25c0.15,0.17,0.22,0.4,0.22,0.7V27.73z
				 M42.09,27.45c0-0.18-0.04-0.32-0.13-0.42c-0.08-0.1-0.2-0.15-0.35-0.15c-0.14,0-0.26,0.05-0.36,0.16
				c-0.1,0.1-0.17,0.24-0.19,0.41H42.09z"/>
		</g>
	</g>
	<g>
		<g>
			<path class="st42" d="M37.12,15.98h-0.8v2.46h-0.36v-2.46h-0.8v-0.32h1.96V15.98z"/>
			<path class="st42" d="M37.46,15.75c0-0.06,0.02-0.11,0.06-0.16s0.09-0.06,0.16-0.06c0.06,0,0.12,0.02,0.16,0.06
				c0.04,0.04,0.07,0.09,0.07,0.16c0,0.06-0.02,0.11-0.07,0.15c-0.04,0.04-0.1,0.06-0.16,0.06s-0.12-0.02-0.16-0.06
				C37.48,15.87,37.46,15.82,37.46,15.75z M37.5,18.44v-1.98h0.35v1.98H37.5z"/>
			<path class="st42" d="M39.43,18.42c-0.08,0.04-0.18,0.06-0.31,0.06c-0.36,0-0.53-0.2-0.53-0.59v-1.15h-0.34v-0.29h0.34v-0.48
				l0.35-0.11v0.59h0.49v0.29h-0.49v1.08c0,0.13,0.02,0.22,0.07,0.28c0.04,0.06,0.12,0.08,0.22,0.08c0.08,0,0.15-0.02,0.21-0.07
				V18.42z"/>
			<path class="st42" d="M39.85,18.44V15.5h0.35v2.94H39.85z"/>
			<path class="st42" d="M42.44,17.54h-1.39c0.01,0.21,0.06,0.38,0.17,0.49c0.11,0.12,0.26,0.17,0.46,0.17
				c0.22,0,0.43-0.07,0.61-0.21v0.31c-0.17,0.12-0.41,0.18-0.69,0.18c-0.29,0-0.51-0.09-0.67-0.27c-0.16-0.18-0.24-0.43-0.24-0.76
				c0-0.3,0.09-0.56,0.26-0.75c0.18-0.2,0.4-0.3,0.66-0.3c0.26,0,0.46,0.08,0.61,0.25c0.15,0.17,0.22,0.4,0.22,0.7V17.54z
				 M42.09,17.25c0-0.18-0.04-0.32-0.13-0.42c-0.08-0.1-0.2-0.15-0.35-0.15c-0.14,0-0.26,0.05-0.36,0.16
				c-0.1,0.1-0.17,0.24-0.19,0.41H42.09z"/>
		</g>
	</g>
	<g>
		<g>
			<path class="st74" d="M59.68,18.42c-0.08,0.04-0.18,0.06-0.31,0.06c-0.36,0-0.53-0.2-0.53-0.59v-1.15H58.5v-0.29h0.34v-0.48
				l0.35-0.11v0.59h0.49v0.29h-0.49v1.08c0,0.13,0.02,0.22,0.07,0.28c0.04,0.06,0.12,0.08,0.22,0.08c0.08,0,0.15-0.02,0.21-0.07
				V18.42z"/>
			<path class="st74" d="M60.06,15.75c0-0.06,0.02-0.11,0.06-0.16s0.09-0.06,0.16-0.06c0.06,0,0.12,0.02,0.16,0.06
				c0.04,0.04,0.07,0.09,0.07,0.16c0,0.06-0.02,0.11-0.07,0.15c-0.04,0.04-0.1,0.06-0.16,0.06s-0.12-0.02-0.16-0.06
				C60.08,15.87,60.06,15.82,60.06,15.75z M60.1,18.44v-1.98h0.35v1.98H60.1z"/>
			<path class="st74" d="M62.03,18.42c-0.08,0.04-0.18,0.06-0.31,0.06c-0.36,0-0.53-0.2-0.53-0.59v-1.15h-0.34v-0.29h0.34v-0.48
				l0.35-0.11v0.59h0.49v0.29h-0.49v1.08c0,0.13,0.02,0.22,0.07,0.28c0.04,0.06,0.12,0.08,0.22,0.08c0.08,0,0.15-0.02,0.21-0.07
				V18.42z"/>
			<path class="st74" d="M62.44,18.44V15.5h0.35v2.94H62.44z"/>
			<path class="st74" d="M65.04,17.54h-1.39c0.01,0.21,0.06,0.38,0.17,0.49c0.11,0.12,0.26,0.17,0.46,0.17
				c0.22,0,0.43-0.07,0.61-0.21v0.31c-0.17,0.12-0.41,0.18-0.69,0.18c-0.29,0-0.51-0.09-0.67-0.27c-0.16-0.18-0.24-0.43-0.24-0.76
				c0-0.3,0.09-0.56,0.26-0.75c0.18-0.2,0.4-0.3,0.66-0.3c0.26,0,0.46,0.08,0.61,0.25c0.15,0.17,0.22,0.4,0.22,0.7V17.54z
				 M64.69,17.25c0-0.18-0.04-0.32-0.13-0.42c-0.08-0.1-0.2-0.15-0.35-0.15c-0.14,0-0.26,0.05-0.36,0.16
				c-0.1,0.1-0.17,0.24-0.19,0.41H64.69z"/>
		</g>
	</g>
	<g>
		<g>
			<path class="st74" d="M78.04,15.98h-0.8v2.46h-0.36v-2.46h-0.8v-0.32h1.96V15.98z"/>
			<path class="st74" d="M78.83,15.66v2.78h-0.36v-2.78H78.83z"/>
			<path class="st74" d="M81.23,15.98h-0.8v2.46h-0.36v-2.46h-0.8v-0.32h1.96V15.98z"/>
			<path class="st74" d="M83.12,18.44h-1.47v-2.78h0.36v2.46h1.11V18.44z"/>
			<path class="st74" d="M85.04,18.44h-1.49v-2.78h1.43v0.32H83.9v0.89h0.99v0.32H83.9v0.94h1.14V18.44z"/>
		</g>
	</g>
	<g>
		<g>
			<path class="st74" d="M78.04,26.3h-0.8v2.46h-0.36V26.3h-0.8v-0.32h1.96V26.3z"/>
			<path class="st74" d="M78.83,25.98v2.78h-0.36v-2.78H78.83z"/>
			<path class="st74" d="M81.23,26.3h-0.8v2.46h-0.36V26.3h-0.8v-0.32h1.96V26.3z"/>
			<path class="st74" d="M83.12,28.76h-1.47v-2.78h0.36v2.46h1.11V28.76z"/>
			<path class="st74" d="M85.04,28.76h-1.49v-2.78h1.43v0.32H83.9v0.89h0.99v0.32H83.9v0.94h1.14V28.76z"/>
		</g>
	</g>
	<g>
		<g>
			<path class="st74" d="M78.04,36.11h-0.8v2.46h-0.36v-2.46h-0.8v-0.32h1.96V36.11z"/>
			<path class="st74" d="M78.83,35.79v2.78h-0.36v-2.78H78.83z"/>
			<path class="st74" d="M81.23,36.11h-0.8v2.46h-0.36v-2.46h-0.8v-0.32h1.96V36.11z"/>
			<path class="st74" d="M83.12,38.57h-1.47v-2.78h0.36v2.46h1.11V38.57z"/>
			<path class="st74" d="M85.04,38.57h-1.49v-2.78h1.43v0.32H83.9V37h0.99v0.32H83.9v0.94h1.14V38.57z"/>
		</g>
	</g>
	<g>
		<g>
			<path class="st74" d="M78.04,46.44h-0.8v2.46h-0.36v-2.46h-0.8v-0.32h1.96V46.44z"/>
			<path class="st74" d="M78.83,46.12v2.78h-0.36v-2.78H78.83z"/>
			<path class="st74" d="M81.23,46.44h-0.8v2.46h-0.36v-2.46h-0.8v-0.32h1.96V46.44z"/>
			<path class="st74" d="M83.12,48.9h-1.47v-2.78h0.36v2.46h1.11V48.9z"/>
			<path class="st74" d="M85.04,48.9h-1.49v-2.78h1.43v0.32H83.9v0.89h0.99v0.32H83.9v0.94h1.14V48.9z"/>
		</g>
	</g>
	<g>
		<g>
			<path class="st74" d="M59.68,28.61c-0.08,0.04-0.18,0.06-0.31,0.06c-0.36,0-0.53-0.2-0.53-0.59v-1.15H58.5v-0.29h0.34v-0.48
				l0.35-0.11v0.59h0.49v0.29h-0.49v1.08c0,0.13,0.02,0.22,0.07,0.28c0.04,0.06,0.12,0.08,0.22,0.08c0.08,0,0.15-0.02,0.21-0.07
				V28.61z"/>
			<path class="st74" d="M60.06,25.95c0-0.06,0.02-0.11,0.06-0.16c0.04-0.04,0.09-0.06,0.16-0.06c0.06,0,0.12,0.02,0.16,0.06
				c0.04,0.04,0.07,0.09,0.07,0.16c0,0.06-0.02,0.11-0.07,0.15c-0.04,0.04-0.1,0.06-0.16,0.06s-0.12-0.02-0.16-0.06
				C60.08,26.06,60.06,26.01,60.06,25.95z M60.1,28.63v-1.98h0.35v1.98H60.1z"/>
			<path class="st74" d="M62.03,28.61c-0.08,0.04-0.18,0.06-0.31,0.06c-0.36,0-0.53-0.2-0.53-0.59v-1.15h-0.34v-0.29h0.34v-0.48
				l0.35-0.11v0.59h0.49v0.29h-0.49v1.08c0,0.13,0.02,0.22,0.07,0.28c0.04,0.06,0.12,0.08,0.22,0.08c0.08,0,0.15-0.02,0.21-0.07
				V28.61z"/>
			<path class="st74" d="M62.44,28.63v-2.94h0.35v2.94H62.44z"/>
			<path class="st74" d="M65.04,27.73h-1.39c0.01,0.21,0.06,0.38,0.17,0.49c0.11,0.12,0.26,0.17,0.46,0.17
				c0.22,0,0.43-0.07,0.61-0.21v0.31c-0.17,0.12-0.41,0.18-0.69,0.18c-0.29,0-0.51-0.09-0.67-0.27c-0.16-0.18-0.24-0.43-0.24-0.76
				c0-0.3,0.09-0.56,0.26-0.75c0.18-0.2,0.4-0.3,0.66-0.3c0.26,0,0.46,0.08,0.61,0.25c0.15,0.17,0.22,0.4,0.22,0.7V27.73z
				 M64.69,27.45c0-0.18-0.04-0.32-0.13-0.42c-0.08-0.1-0.2-0.15-0.35-0.15c-0.14,0-0.26,0.05-0.36,0.16
				c-0.1,0.1-0.17,0.24-0.19,0.41H64.69z"/>
		</g>
	</g>
	<g>
		<g>
			<path class="st74" d="M59.68,38.55c-0.08,0.04-0.18,0.06-0.31,0.06c-0.36,0-0.53-0.2-0.53-0.59v-1.15H58.5v-0.29h0.34v-0.48
				L59.19,36v0.59h0.49v0.29h-0.49v1.08c0,0.13,0.02,0.22,0.07,0.28c0.04,0.06,0.12,0.08,0.22,0.08c0.08,0,0.15-0.02,0.21-0.07
				V38.55z"/>
			<path class="st74" d="M60.06,35.89c0-0.06,0.02-0.11,0.06-0.16c0.04-0.04,0.09-0.06,0.16-0.06c0.06,0,0.12,0.02,0.16,0.06
				c0.04,0.04,0.07,0.09,0.07,0.16c0,0.06-0.02,0.11-0.07,0.15c-0.04,0.04-0.1,0.06-0.16,0.06s-0.12-0.02-0.16-0.06
				C60.08,36,60.06,35.95,60.06,35.89z M60.1,38.57v-1.98h0.35v1.98H60.1z"/>
			<path class="st74" d="M62.03,38.55c-0.08,0.04-0.18,0.06-0.31,0.06c-0.36,0-0.53-0.2-0.53-0.59v-1.15h-0.34v-0.29h0.34v-0.48
				L61.54,36v0.59h0.49v0.29h-0.49v1.08c0,0.13,0.02,0.22,0.07,0.28c0.04,0.06,0.12,0.08,0.22,0.08c0.08,0,0.15-0.02,0.21-0.07
				V38.55z"/>
			<path class="st74" d="M62.44,38.57v-2.94h0.35v2.94H62.44z"/>
			<path class="st74" d="M65.04,37.67h-1.39c0.01,0.21,0.06,0.38,0.17,0.49c0.11,0.12,0.26,0.17,0.46,0.17
				c0.22,0,0.43-0.07,0.61-0.21v0.31c-0.17,0.12-0.41,0.18-0.69,0.18c-0.29,0-0.51-0.09-0.67-0.27c-0.16-0.18-0.24-0.43-0.24-0.76
				c0-0.3,0.09-0.56,0.26-0.75c0.18-0.2,0.4-0.3,0.66-0.3c0.26,0,0.46,0.08,0.61,0.25c0.15,0.17,0.22,0.4,0.22,0.7V37.67z
				 M64.69,37.39c0-0.18-0.04-0.32-0.13-0.42c-0.08-0.1-0.2-0.15-0.35-0.15c-0.14,0-0.26,0.05-0.36,0.16
				c-0.1,0.1-0.17,0.24-0.19,0.41H64.69z"/>
		</g>
	</g>
	<g>
		<g>
			<path class="st74" d="M59.68,48.88c-0.08,0.04-0.18,0.06-0.31,0.06c-0.36,0-0.53-0.2-0.53-0.59V47.2H58.5v-0.29h0.34v-0.48
				l0.35-0.11v0.59h0.49v0.29h-0.49v1.08c0,0.13,0.02,0.22,0.07,0.28c0.04,0.06,0.12,0.08,0.22,0.08c0.08,0,0.15-0.02,0.21-0.07
				V48.88z"/>
			<path class="st74" d="M60.06,46.21c0-0.06,0.02-0.11,0.06-0.16s0.09-0.06,0.16-0.06c0.06,0,0.12,0.02,0.16,0.06
				c0.04,0.04,0.07,0.09,0.07,0.16c0,0.06-0.02,0.11-0.07,0.15c-0.04,0.04-0.1,0.06-0.16,0.06s-0.12-0.02-0.16-0.06
				C60.08,46.32,60.06,46.27,60.06,46.21z M60.1,48.9v-1.98h0.35v1.98H60.1z"/>
			<path class="st74" d="M62.03,48.88c-0.08,0.04-0.18,0.06-0.31,0.06c-0.36,0-0.53-0.2-0.53-0.59V47.2h-0.34v-0.29h0.34v-0.48
				l0.35-0.11v0.59h0.49v0.29h-0.49v1.08c0,0.13,0.02,0.22,0.07,0.28c0.04,0.06,0.12,0.08,0.22,0.08c0.08,0,0.15-0.02,0.21-0.07
				V48.88z"/>
			<path class="st74" d="M62.44,48.9v-2.94h0.35v2.94H62.44z"/>
			<path class="st74" d="M65.04,47.99h-1.39c0.01,0.21,0.06,0.38,0.17,0.49c0.11,0.12,0.26,0.17,0.46,0.17
				c0.22,0,0.43-0.07,0.61-0.21v0.31c-0.17,0.12-0.41,0.18-0.69,0.18c-0.29,0-0.51-0.09-0.67-0.27c-0.16-0.18-0.24-0.43-0.24-0.76
				c0-0.3,0.09-0.56,0.26-0.75c0.18-0.2,0.4-0.3,0.66-0.3c0.26,0,0.46,0.08,0.61,0.25c0.15,0.17,0.22,0.4,0.22,0.7V47.99z
				 M64.69,47.71c0-0.18-0.04-0.32-0.13-0.42c-0.08-0.1-0.2-0.15-0.35-0.15c-0.14,0-0.26,0.05-0.36,0.16
				c-0.1,0.1-0.17,0.24-0.19,0.41H64.69z"/>
		</g>
	</g>
	<rect id="XMLID_29_" x="17.71" y="41.41" class="st72" width="77.91" height="0.26"/>
	<rect id="XMLID_27_" x="17.64" y="33.52" class="st72" width="0.53" height="8.15"/>
	<g>
		<g>
			<path class="st73" d="M22.32,39.08v-2.83h0.4l0.91,1.43c0.21,0.33,0.37,0.63,0.51,0.92l0.01,0c-0.03-0.38-0.04-0.72-0.04-1.17
				v-1.19h0.34v2.83h-0.37l-0.9-1.44c-0.2-0.32-0.39-0.64-0.53-0.95l-0.01,0c0.02,0.36,0.03,0.7,0.03,1.17v1.21H22.32z"/>
			<path class="st73" d="M27.51,37.64c0,0.98-0.59,1.49-1.32,1.49c-0.75,0-1.27-0.58-1.27-1.44c0-0.9,0.56-1.49,1.32-1.49
				C27.01,36.2,27.51,36.8,27.51,37.64z M25.31,37.68c0,0.61,0.33,1.15,0.9,1.15c0.58,0,0.91-0.53,0.91-1.18
				c0-0.56-0.29-1.15-0.9-1.15C25.61,36.5,25.31,37.06,25.31,37.68z"/>
			<path class="st73" d="M27.74,38.86c0-0.16,0.1-0.26,0.25-0.26s0.25,0.11,0.25,0.26c0,0.15-0.1,0.26-0.25,0.26
				C27.84,39.13,27.74,39.02,27.74,38.86z"/>
			<path class="st73" d="M28.67,38.66c0.1,0.07,0.35,0.17,0.61,0.17c0.48,0,0.62-0.3,0.62-0.53c0-0.38-0.35-0.55-0.71-0.55h-0.21
				v-0.28h0.21c0.27,0,0.61-0.14,0.61-0.46c0-0.22-0.14-0.41-0.48-0.41c-0.22,0-0.43,0.1-0.55,0.18l-0.1-0.27
				c0.14-0.1,0.42-0.21,0.71-0.21c0.54,0,0.78,0.32,0.78,0.65c0,0.28-0.17,0.52-0.5,0.64v0.01c0.34,0.07,0.61,0.32,0.61,0.7
				c0,0.44-0.34,0.82-1,0.82c-0.31,0-0.58-0.1-0.71-0.18L28.67,38.66z"/>
		</g>
	</g>
	<g>
		<g>
			<path class="st42" d="M37.12,36.49h-0.8v2.46h-0.36v-2.46h-0.8v-0.32h1.96V36.49z"/>
			<path class="st42" d="M37.46,36.27c0-0.06,0.02-0.11,0.06-0.16s0.09-0.06,0.16-0.06c0.06,0,0.12,0.02,0.16,0.06
				c0.04,0.04,0.07,0.09,0.07,0.16c0,0.06-0.02,0.11-0.07,0.15c-0.04,0.04-0.1,0.06-0.16,0.06s-0.12-0.02-0.16-0.06
				C37.48,36.38,37.46,36.33,37.46,36.27z M37.5,38.95v-1.98h0.35v1.98H37.5z"/>
			<path class="st42" d="M39.43,38.93C39.36,38.97,39.25,39,39.12,39c-0.36,0-0.53-0.2-0.53-0.59v-1.15h-0.34v-0.29h0.34v-0.48
				l0.35-0.11v0.59h0.49v0.29h-0.49v1.08c0,0.13,0.02,0.22,0.07,0.28c0.04,0.06,0.12,0.08,0.22,0.08c0.08,0,0.15-0.02,0.21-0.07
				V38.93z"/>
			<path class="st42" d="M39.85,38.95v-2.94h0.35v2.94H39.85z"/>
			<path class="st42" d="M42.44,38.05h-1.39c0.01,0.21,0.06,0.38,0.17,0.49c0.11,0.12,0.26,0.17,0.46,0.17
				c0.22,0,0.43-0.07,0.61-0.21v0.31C42.13,38.94,41.9,39,41.61,39c-0.29,0-0.51-0.09-0.67-0.27c-0.16-0.18-0.24-0.43-0.24-0.76
				c0-0.3,0.09-0.56,0.26-0.75c0.18-0.2,0.4-0.3,0.66-0.3c0.26,0,0.46,0.08,0.61,0.25c0.15,0.17,0.22,0.4,0.22,0.7V38.05z
				 M42.09,37.77c0-0.18-0.04-0.32-0.13-0.42c-0.08-0.1-0.2-0.15-0.35-0.15c-0.14,0-0.26,0.05-0.36,0.16
				c-0.1,0.1-0.17,0.24-0.19,0.41H42.09z"/>
		</g>
	</g>
	<g>
		<g>
			<path class="st42" d="M37.12,46.94h-0.8v2.46h-0.36v-2.46h-0.8v-0.32h1.96V46.94z"/>
			<path class="st42" d="M37.46,46.72c0-0.06,0.02-0.11,0.06-0.16s0.09-0.06,0.16-0.06c0.06,0,0.12,0.02,0.16,0.06
				c0.04,0.04,0.07,0.09,0.07,0.16c0,0.06-0.02,0.11-0.07,0.15c-0.04,0.04-0.1,0.06-0.16,0.06s-0.12-0.02-0.16-0.06
				C37.48,46.83,37.46,46.78,37.46,46.72z M37.5,49.4v-1.98h0.35v1.98H37.5z"/>
			<path class="st42" d="M39.43,49.38c-0.08,0.04-0.18,0.06-0.31,0.06c-0.36,0-0.53-0.2-0.53-0.59v-1.15h-0.34v-0.29h0.34v-0.48
				l0.35-0.11v0.59h0.49v0.29h-0.49v1.08c0,0.13,0.02,0.22,0.07,0.28c0.04,0.06,0.12,0.08,0.22,0.08c0.08,0,0.15-0.02,0.21-0.07
				V49.38z"/>
			<path class="st42" d="M39.85,49.4v-2.94h0.35v2.94H39.85z"/>
			<path class="st42" d="M42.44,48.5h-1.39c0.01,0.21,0.06,0.38,0.17,0.49c0.11,0.12,0.26,0.17,0.46,0.17
				c0.22,0,0.43-0.07,0.61-0.21v0.31c-0.17,0.12-0.41,0.18-0.69,0.18c-0.29,0-0.51-0.09-0.67-0.27c-0.16-0.18-0.24-0.43-0.24-0.76
				c0-0.3,0.09-0.56,0.26-0.75c0.18-0.2,0.4-0.3,0.66-0.3c0.26,0,0.46,0.08,0.61,0.25c0.15,0.17,0.22,0.4,0.22,0.7V48.5z
				 M42.09,48.22c0-0.18-0.04-0.32-0.13-0.42c-0.08-0.1-0.2-0.15-0.35-0.15c-0.14,0-0.26,0.05-0.36,0.16
				c-0.1,0.1-0.17,0.24-0.19,0.41H42.09z"/>
		</g>
	</g>
	<rect id="XMLID_25_" x="17.71" y="51.73" class="st72" width="77.91" height="0.26"/>
	<rect id="XMLID_5_" x="17.64" y="43.84" class="st72" width="0.53" height="8.15"/>
	<g>
		<g>
			<path class="st73" d="M22.32,49.4v-2.83h0.4L23.63,48c0.21,0.33,0.37,0.63,0.51,0.92l0.01,0c-0.03-0.38-0.04-0.72-0.04-1.17
				v-1.19h0.34v2.83h-0.37l-0.9-1.44c-0.2-0.32-0.39-0.64-0.53-0.95l-0.01,0c0.02,0.36,0.03,0.7,0.03,1.17v1.21H22.32z"/>
			<path class="st73" d="M27.51,47.96c0,0.98-0.59,1.49-1.32,1.49c-0.75,0-1.27-0.58-1.27-1.44c0-0.9,0.56-1.49,1.32-1.49
				C27.01,46.52,27.51,47.12,27.51,47.96z M25.31,48c0,0.61,0.33,1.15,0.9,1.15c0.58,0,0.91-0.53,0.91-1.18
				c0-0.56-0.29-1.15-0.9-1.15C25.61,46.82,25.31,47.38,25.31,48z"/>
			<path class="st73" d="M27.74,49.19c0-0.16,0.1-0.26,0.25-0.26s0.25,0.11,0.25,0.26c0,0.15-0.1,0.26-0.25,0.26
				C27.84,49.45,27.74,49.34,27.74,49.19z"/>
			<path class="st73" d="M29.72,49.4v-0.74h-1.27v-0.24l1.22-1.74h0.4v1.7h0.38v0.29h-0.38v0.74H29.72z M29.72,48.37v-0.91
				c0-0.14,0-0.29,0.01-0.43h-0.01c-0.08,0.16-0.15,0.28-0.23,0.4l-0.67,0.93v0.01H29.72z"/>
		</g>
	</g>
	<rect x="24.96" y="20.63" class="st74" width="1.91" height="0.53"/>
	<rect x="45.82" y="30.96" class="st74" width="1.91" height="0.53"/>
	<rect x="74.78" y="41.28" class="st74" width="1.91" height="0.53"/>
	<rect x="94.87" y="51.6" class="st74" width="1.49" height="0.53"/>
</g>
</svg>
