<?xml version="1.0" encoding="utf-8"?>
<!-- Generator: Adobe Illustrator 23.0.0, SVG Export Plug-In . SVG Version: 6.00 Build 0)  -->
<svg version="1.1" id="图层_1" xmlns="http://www.w3.org/2000/svg" xmlns:xlink="http://www.w3.org/1999/xlink" x="0px" y="0px"
	 viewBox="0 0 114 65" style="enable-background:new 0 0 114 65;" xml:space="preserve">
<style type="text/css">
	.st0{fill:#4C7EF1;}
	.st1{fill:#29CB97;}
	.st2{fill:#FEC400;}
	.st3{fill:#B35AF1;}
	.st4{fill:#29C997;}
	.st5{fill:#FFFFFF;}
	.st6{fill:#6B6B6B;}
	.st7{fill:#444444;}
	.st8{opacity:0.1;fill:#FFFFFF;}
	.st9{opacity:0.1;}
	.st10{fill:none;stroke:#F24343;stroke-width:14;stroke-miterlimit:10;}
	.st11{fill:none;stroke:#FFFFFF;stroke-width:14;stroke-miterlimit:10;}
	.st12{fill:none;stroke:#4C7EF1;stroke-width:14;stroke-miterlimit:10;}
	.st13{fill:none;stroke:#FEAB05;stroke-width:14;stroke-miterlimit:10;}
	.st14{fill:none;stroke:#29CB97;stroke-width:8;stroke-miterlimit:10;}
	.st15{fill:none;stroke:#29CB97;stroke-width:16;stroke-miterlimit:10;}
	.st16{fill:none;stroke:#FEC400;stroke-width:16;stroke-miterlimit:10;}
	.st17{fill:none;stroke:#FEAB05;stroke-width:16;stroke-miterlimit:10;}
	.st18{fill:none;stroke:#FEC400;stroke-width:8;stroke-miterlimit:10;}
	.st19{fill:none;stroke:#676767;stroke-width:8;stroke-miterlimit:10;}
	.st20{fill:none;stroke:#FEC400;stroke-width:2;stroke-miterlimit:10;}
	.st21{fill:#E6E6E6;}
	.st22{fill:#74D889;}
	.st23{fill:#FFDC70;}
	.st24{fill:#47ABFC;}
	.st25{fill:none;stroke:#FFFFFF;stroke-miterlimit:10;}
	.st26{fill:#4C7EF1;stroke:#0B0C0E;stroke-miterlimit:10;}
	.st27{fill:#FEC400;stroke:#0B0C0E;stroke-miterlimit:10;}
	.st28{fill:none;stroke:#AAA9A9;stroke-miterlimit:10;}
	.st29{fill:none;stroke:#A5A4A4;stroke-width:2;stroke-miterlimit:10;stroke-dasharray:1.0005,4.002;}
	.st30{fill:none;stroke:#4C7EF1;stroke-width:40;stroke-miterlimit:10;}
	.st31{fill:none;stroke:#FEC400;stroke-width:40;stroke-miterlimit:10;}
	.st32{fill:none;stroke:#676767;stroke-width:20;stroke-miterlimit:10;}
	.st33{fill:none;stroke:#FEC400;stroke-width:20;stroke-miterlimit:10;}
	.st34{fill:none;stroke:#29C997;stroke-width:20;stroke-miterlimit:10;}
	.st35{fill:none;stroke:#FFFFFF;stroke-width:20;stroke-miterlimit:10;}
	.st36{fill:none;stroke:#000000;stroke-miterlimit:10;}
	.st37{fill:none;stroke:#FFFFFF;stroke-width:2;stroke-miterlimit:10;stroke-dasharray:3.941,3.941;}
	.st38{opacity:0.5;fill:none;stroke:#FFFFFF;stroke-width:0.4926;stroke-miterlimit:10;stroke-dasharray:3.941,3.941;}
	.st39{fill:none;stroke:#00B091;stroke-width:4;stroke-miterlimit:10;}
	.st40{fill:none;stroke:#EDBF00;stroke-width:4;stroke-miterlimit:10;}
	.st41{fill:#EDBF00;}
	.st42{fill:#00B091;}
	.st43{opacity:0.8;fill:#00B091;}
	.st44{opacity:0.8;fill:#EDBF00;}
	.st45{opacity:0.8;fill:#D85700;}
	.st46{fill:#4C7EF1;stroke:#4C7EF1;stroke-miterlimit:10;}
	.st47{opacity:0.65;fill:url(#SVGID_1_);}
	.st48{opacity:0.65;fill:url(#SVGID_2_);}
	.st49{opacity:0.65;fill:url(#SVGID_3_);}
	.st50{fill:#292E34;}
	.st51{opacity:0.6;}
	.st52{fill:#334469;}
	.st53{fill:#FEAB05;}
	.st54{opacity:0.4;fill:#0B0C0E;}
	.st55{opacity:0.7;}
	.st56{fill:#F24343;}
	.st57{opacity:0.42;fill:#676767;stroke:#F0F2F8;stroke-miterlimit:10;}
	.st58{fill:none;stroke:#F0F2F8;stroke-width:2;stroke-miterlimit:10;}
	.st59{clip-path:url(#SVGID_5_);}
	.st60{fill:#3B86FF;}
	.st61{opacity:0.36;}
	.st62{fill:#4170ED;}
	.st63{fill:#999999;}
	.st64{opacity:0.15;}
	.st65{clip-path:url(#SVGID_7_);}
	.st66{fill:#1CCC96;}
	.st67{opacity:0.43;}
	.st68{clip-path:url(#SVGID_9_);}
	.st69{fill:#30C3E9;}
	.st70{clip-path:url(#SVGID_11_);}
	.st71{fill:#BCEAEC;}
	.st72{opacity:0.14;}
	.st73{clip-path:url(#SVGID_13_);}
	.st74{fill:#FBC400;}
	.st75{fill:#1F1F1F;}
	.st76{fill:none;stroke:url(#SVGID_14_);stroke-width:0.15;stroke-miterlimit:10;}
	.st77{fill:none;stroke:#00B091;stroke-width:0.15;stroke-miterlimit:10;}
	.st78{fill:none;stroke:url(#SVGID_15_);stroke-width:0.15;stroke-miterlimit:10;}
	.st79{fill:none;stroke:url(#SVGID_16_);stroke-width:0.15;stroke-miterlimit:10;}
	.st80{fill:none;stroke:url(#SVGID_17_);stroke-width:0.15;stroke-miterlimit:10;}
	.st81{fill:none;stroke:url(#SVGID_18_);stroke-width:0.15;stroke-miterlimit:10;}
	.st82{opacity:0.5;fill:#4170ED;}
	.st83{fill:#666666;}
	.st84{fill:none;stroke:#4170ED;stroke-width:0.5;stroke-miterlimit:10;}
	.st85{fill:none;stroke:url(#SVGID_19_);stroke-width:0.5;stroke-miterlimit:10;stroke-dasharray:0.9965,0.9965;}
	.st86{opacity:0.4;}
	.st87{fill:url(#SVGID_20_);stroke:url(#SVGID_21_);stroke-width:0.5;stroke-miterlimit:10;}
	.st88{fill:none;stroke:url(#SVGID_22_);stroke-width:0.5;stroke-miterlimit:10;}
	.st89{fill:url(#SVGID_23_);stroke:url(#SVGID_24_);stroke-width:0.5;stroke-miterlimit:10;}
	.st90{fill:none;stroke:url(#SVGID_25_);stroke-width:0.5;stroke-miterlimit:10;stroke-dasharray:0.9965,0.9965;}
	.st91{fill:url(#SVGID_26_);}
	.st92{fill:none;stroke:url(#SVGID_27_);stroke-width:0.5;stroke-miterlimit:10;stroke-dasharray:0.994,0.994;}
	.st93{fill:none;stroke:url(#SVGID_28_);stroke-width:0.5;stroke-miterlimit:10;}
	.st94{fill:none;stroke:url(#SVGID_29_);stroke-width:0.5;stroke-miterlimit:10;}
	.st95{fill:none;stroke:url(#SVGID_30_);stroke-width:0.5;stroke-miterlimit:10;}
	.st96{fill:url(#SVGID_31_);stroke:url(#SVGID_32_);stroke-width:0.5;stroke-miterlimit:10;}
	.st97{fill:#3885E9;}
	.st98{opacity:0.33;}
	.st99{fill:none;stroke:#999999;stroke-miterlimit:10;}
	.st100{fill:none;stroke:#4170ED;stroke-miterlimit:10;}
	.st101{fill:none;stroke:url(#SVGID_33_);stroke-width:0.5;stroke-miterlimit:10;}
	.st102{fill:url(#SVGID_34_);}
	.st103{opacity:0.3;fill:none;stroke:#4170ED;stroke-miterlimit:10;}
	.st104{opacity:0.87;fill:none;stroke:url(#SVGID_35_);stroke-miterlimit:10;}
	.st105{opacity:0.53;fill:#FFFFFF;}
	.st106{clip-path:url(#SVGID_37_);fill:#BFBFBF;}
	.st107{fill:#BFBFBF;}
	.st108{clip-path:url(#SVGID_39_);fill:#BFBFBF;}
	.st109{clip-path:url(#SVGID_41_);fill:#BFBFBF;}
	.st110{clip-path:url(#SVGID_43_);fill:#BFBFBF;}
	.st111{clip-path:url(#SVGID_45_);fill:#BFBFBF;}
	.st112{clip-path:url(#SVGID_47_);fill:#BFBFBF;}
	.st113{clip-path:url(#SVGID_49_);fill:#BFBFBF;}
	.st114{fill:none;}
	.st115{fill:#1B3E60;}
	.st116{fill:#31446D;stroke:#4170ED;stroke-width:0.5;stroke-miterlimit:10;}
	.st117{opacity:0.31;fill:#EDBF00;}
	.st118{opacity:0.31;fill:#00B091;}
	.st119{fill:#31446D;stroke:#4C7EF1;stroke-width:0.5;stroke-miterlimit:10;}
	.st120{fill:url(#SVGID_50_);}
	.st121{fill:url(#SVGID_51_);stroke:url(#SVGID_52_);stroke-width:0.5;stroke-miterlimit:10;}
	.st122{fill:url(#SVGID_53_);}
	.st123{clip-path:url(#SVGID_55_);fill:#BFBFBF;}
	.st124{clip-path:url(#SVGID_57_);fill:#BFBFBF;}
	.st125{clip-path:url(#SVGID_59_);fill:#BFBFBF;}
	.st126{clip-path:url(#SVGID_61_);fill:#BFBFBF;}
	.st127{clip-path:url(#SVGID_63_);fill:#BFBFBF;}
	.st128{clip-path:url(#SVGID_65_);fill:#BFBFBF;}
	.st129{fill:url(#XMLID_5_);}
	.st130{fill:none;stroke:#4C7EF1;stroke-width:0.25;stroke-miterlimit:10;}
	.st131{opacity:0.5;fill:#4C7EF1;}
	.st132{fill:url(#SVGID_66_);}
	.st133{fill:url(#SVGID_67_);}
	.st134{fill:url(#SVGID_68_);}
	.st135{fill:url(#SVGID_69_);}
	.st136{fill:url(#SVGID_70_);}
</style>
<g>
	<rect id="XMLID_96_" x="29" y="24.5" class="st82" width="59.16" height="0.2"/>
	<rect id="XMLID_94_" x="28.94" y="18.5" class="st82" width="0.4" height="6.19"/>
	<g>
		<g>
			<path class="st83" d="M32.5,22.73v-2.15h0.3l0.69,1.09c0.16,0.25,0.28,0.48,0.39,0.7l0.01,0c-0.03-0.29-0.03-0.55-0.03-0.88v-0.9
				h0.26v2.15h-0.28l-0.68-1.09c-0.15-0.24-0.29-0.48-0.4-0.72l-0.01,0c0.02,0.27,0.02,0.53,0.02,0.89v0.92H32.5z"/>
			<path class="st83" d="M36.43,21.63c0,0.74-0.45,1.13-1,1.13c-0.57,0-0.97-0.44-0.97-1.09c0-0.68,0.42-1.13,1-1.13
				C36.05,20.54,36.43,20.99,36.43,21.63z M34.77,21.67c0,0.46,0.25,0.87,0.69,0.87c0.44,0,0.69-0.41,0.69-0.89
				c0-0.43-0.22-0.87-0.69-0.87C35,20.77,34.77,21.19,34.77,21.67z"/>
			<path class="st83" d="M36.61,22.56c0-0.12,0.08-0.2,0.19-0.2s0.19,0.08,0.19,0.2c0,0.12-0.07,0.2-0.19,0.2
				C36.69,22.76,36.61,22.68,36.61,22.56z"/>
			<path class="st83" d="M37.86,20.92L37.86,20.92l-0.37,0.19l-0.05-0.21l0.45-0.24h0.24v2.07h-0.27V20.92z"/>
		</g>
	</g>
	<rect id="XMLID_90_" x="29" y="32.33" class="st82" width="59.16" height="0.2"/>
	<rect id="XMLID_88_" x="28.94" y="26.34" class="st82" width="0.4" height="6.19"/>
	<g>
		<g>
			<path class="st83" d="M32.5,30.57v-2.15h0.3l0.69,1.09c0.16,0.25,0.28,0.48,0.39,0.7l0.01,0c-0.03-0.29-0.03-0.55-0.03-0.88v-0.9
				h0.26v2.15h-0.28l-0.68-1.09c-0.15-0.24-0.29-0.48-0.4-0.72l-0.01,0c0.02,0.27,0.02,0.53,0.02,0.89v0.92H32.5z"/>
			<path class="st83" d="M36.43,29.47c0,0.74-0.45,1.13-1,1.13c-0.57,0-0.97-0.44-0.97-1.09c0-0.68,0.42-1.13,1-1.13
				C36.05,28.38,36.43,28.83,36.43,29.47z M34.77,29.5c0,0.46,0.25,0.87,0.69,0.87c0.44,0,0.69-0.41,0.69-0.89
				c0-0.43-0.22-0.87-0.69-0.87C35,28.61,34.77,29.03,34.77,29.5z"/>
			<path class="st83" d="M36.61,30.4c0-0.12,0.08-0.2,0.19-0.2s0.19,0.08,0.19,0.2c0,0.12-0.07,0.2-0.19,0.2
				C36.69,30.6,36.61,30.51,36.61,30.4z"/>
			<path class="st83" d="M37.25,30.57v-0.17l0.22-0.21c0.53-0.5,0.77-0.77,0.77-1.08c0-0.21-0.1-0.41-0.41-0.41
				c-0.19,0-0.34,0.1-0.44,0.17l-0.09-0.2c0.14-0.12,0.35-0.21,0.59-0.21c0.45,0,0.63,0.31,0.63,0.6c0,0.38-0.28,0.69-0.71,1.11
				l-0.17,0.15v0.01h0.93v0.23H37.25z"/>
		</g>
	</g>
	<g>
		<g>
			<path class="st42" d="M43.73,28.6h-0.61v1.87h-0.27V28.6h-0.61v-0.24h1.49V28.6z"/>
			<path class="st42" d="M43.99,28.43c0-0.05,0.02-0.09,0.05-0.12s0.07-0.05,0.12-0.05c0.05,0,0.09,0.02,0.12,0.05
				c0.03,0.03,0.05,0.07,0.05,0.12c0,0.05-0.02,0.09-0.05,0.12s-0.07,0.05-0.12,0.05s-0.09-0.02-0.12-0.05S43.99,28.48,43.99,28.43z
				 M44.02,30.47v-1.51h0.27v1.51H44.02z"/>
			<path class="st42" d="M45.49,30.45c-0.06,0.03-0.14,0.05-0.24,0.05c-0.27,0-0.4-0.15-0.4-0.45v-0.87h-0.26v-0.22h0.26V28.6
				l0.27-0.08v0.45h0.37v0.22h-0.37V30c0,0.1,0.02,0.17,0.05,0.21c0.03,0.04,0.09,0.06,0.17,0.06c0.06,0,0.11-0.02,0.16-0.05V30.45z
				"/>
			<path class="st42" d="M45.81,30.47v-2.23h0.27v2.23H45.81z"/>
			<path class="st42" d="M47.78,29.78h-1.05c0,0.16,0.05,0.29,0.13,0.37s0.2,0.13,0.35,0.13c0.17,0,0.32-0.05,0.46-0.16v0.24
				c-0.13,0.09-0.31,0.14-0.53,0.14c-0.22,0-0.39-0.07-0.51-0.21c-0.12-0.14-0.18-0.33-0.18-0.58c0-0.23,0.07-0.42,0.2-0.57
				c0.13-0.15,0.3-0.23,0.5-0.23c0.2,0,0.35,0.06,0.46,0.19s0.17,0.3,0.17,0.53V29.78z M47.51,29.57c0-0.14-0.03-0.24-0.1-0.32
				c-0.06-0.07-0.15-0.11-0.27-0.11c-0.11,0-0.2,0.04-0.28,0.12c-0.08,0.08-0.13,0.18-0.15,0.31H47.51z"/>
		</g>
	</g>
	<g>
		<g>
			<path class="st42" d="M43.73,20.86h-0.61v1.87h-0.27v-1.87h-0.61v-0.24h1.49V20.86z"/>
			<path class="st42" d="M43.99,20.69c0-0.05,0.02-0.09,0.05-0.12s0.07-0.05,0.12-0.05c0.05,0,0.09,0.02,0.12,0.05
				c0.03,0.03,0.05,0.07,0.05,0.12c0,0.05-0.02,0.09-0.05,0.12s-0.07,0.05-0.12,0.05s-0.09-0.02-0.12-0.05S43.99,20.74,43.99,20.69z
				 M44.02,22.73v-1.51h0.27v1.51H44.02z"/>
			<path class="st42" d="M45.49,22.71c-0.06,0.03-0.14,0.05-0.24,0.05c-0.27,0-0.4-0.15-0.4-0.45v-0.87h-0.26v-0.22h0.26v-0.36
				l0.27-0.08v0.45h0.37v0.22h-0.37v0.82c0,0.1,0.02,0.17,0.05,0.21c0.03,0.04,0.09,0.06,0.17,0.06c0.06,0,0.11-0.02,0.16-0.05
				V22.71z"/>
			<path class="st42" d="M45.81,22.73V20.5h0.27v2.23H45.81z"/>
			<path class="st42" d="M47.78,22.04h-1.05c0,0.16,0.05,0.29,0.13,0.37s0.2,0.13,0.35,0.13c0.17,0,0.32-0.05,0.46-0.16v0.24
				c-0.13,0.09-0.31,0.14-0.53,0.14c-0.22,0-0.39-0.07-0.51-0.21c-0.12-0.14-0.18-0.33-0.18-0.58c0-0.23,0.07-0.42,0.2-0.57
				c0.13-0.15,0.3-0.23,0.5-0.23c0.2,0,0.35,0.06,0.46,0.19s0.17,0.3,0.17,0.53V22.04z M47.51,21.83c0-0.14-0.03-0.24-0.1-0.32
				c-0.06-0.07-0.15-0.11-0.27-0.11c-0.11,0-0.2,0.04-0.28,0.12c-0.08,0.08-0.13,0.18-0.15,0.31H47.51z"/>
		</g>
	</g>
	<g>
		<g>
			<path class="st62" d="M60.87,22.71c-0.06,0.03-0.14,0.05-0.24,0.05c-0.27,0-0.4-0.15-0.4-0.45v-0.87h-0.26v-0.22h0.26v-0.36
				l0.27-0.08v0.45h0.37v0.22h-0.37v0.82c0,0.1,0.02,0.17,0.05,0.21c0.03,0.04,0.09,0.06,0.17,0.06c0.06,0,0.11-0.02,0.16-0.05
				V22.71z"/>
			<path class="st62" d="M61.15,20.69c0-0.05,0.02-0.09,0.05-0.12s0.07-0.05,0.12-0.05c0.05,0,0.09,0.02,0.12,0.05
				c0.03,0.03,0.05,0.07,0.05,0.12c0,0.05-0.02,0.09-0.05,0.12s-0.07,0.05-0.12,0.05s-0.09-0.02-0.12-0.05S61.15,20.74,61.15,20.69z
				 M61.18,22.73v-1.51h0.27v1.51H61.18z"/>
			<path class="st62" d="M62.65,22.71c-0.06,0.03-0.14,0.05-0.24,0.05c-0.27,0-0.4-0.15-0.4-0.45v-0.87h-0.26v-0.22h0.26v-0.36
				l0.27-0.08v0.45h0.37v0.22h-0.37v0.82c0,0.1,0.02,0.17,0.05,0.21c0.03,0.04,0.09,0.06,0.17,0.06c0.06,0,0.11-0.02,0.16-0.05
				V22.71z"/>
			<path class="st62" d="M62.96,22.73V20.5h0.27v2.23H62.96z"/>
			<path class="st62" d="M64.94,22.04h-1.05c0,0.16,0.05,0.29,0.13,0.37s0.2,0.13,0.35,0.13c0.17,0,0.32-0.05,0.46-0.16v0.24
				c-0.13,0.09-0.31,0.14-0.53,0.14c-0.22,0-0.39-0.07-0.51-0.21c-0.12-0.14-0.18-0.33-0.18-0.58c0-0.23,0.07-0.42,0.2-0.57
				c0.13-0.15,0.3-0.23,0.5-0.23c0.2,0,0.35,0.06,0.46,0.19s0.17,0.3,0.17,0.53V22.04z M64.67,21.83c0-0.14-0.03-0.24-0.1-0.32
				c-0.06-0.07-0.15-0.11-0.27-0.11c-0.11,0-0.2,0.04-0.28,0.12c-0.08,0.08-0.13,0.18-0.15,0.31H64.67z"/>
		</g>
	</g>
	<g>
		<g>
			<path class="st62" d="M74.81,20.86H74.2v1.87h-0.27v-1.87h-0.61v-0.24h1.49V20.86z"/>
			<path class="st62" d="M75.41,20.62v2.11h-0.27v-2.11H75.41z"/>
			<path class="st62" d="M77.23,20.86h-0.61v1.87h-0.27v-1.87h-0.61v-0.24h1.49V20.86z"/>
			<path class="st62" d="M78.67,22.73h-1.11v-2.11h0.27v1.87h0.84V22.73z"/>
			<path class="st62" d="M80.12,22.73h-1.14v-2.11h1.09v0.24h-0.81v0.68h0.75v0.24h-0.75v0.71h0.86V22.73z"/>
		</g>
	</g>
	<g>
		<g>
			<path class="st62" d="M74.81,28.7H74.2v1.87h-0.27V28.7h-0.61v-0.24h1.49V28.7z"/>
			<path class="st62" d="M75.41,28.45v2.11h-0.27v-2.11H75.41z"/>
			<path class="st62" d="M77.23,28.7h-0.61v1.87h-0.27V28.7h-0.61v-0.24h1.49V28.7z"/>
			<path class="st62" d="M78.67,30.57h-1.11v-2.11h0.27v1.87h0.84V30.57z"/>
			<path class="st62" d="M80.12,30.57h-1.14v-2.11h1.09v0.24h-0.81v0.68h0.75v0.24h-0.75v0.71h0.86V30.57z"/>
		</g>
	</g>
	<g>
		<g>
			<path class="st62" d="M74.81,36.15H74.2v1.87h-0.27v-1.87h-0.61v-0.24h1.49V36.15z"/>
			<path class="st62" d="M75.41,35.91v2.11h-0.27v-2.11H75.41z"/>
			<path class="st62" d="M77.23,36.15h-0.61v1.87h-0.27v-1.87h-0.61v-0.24h1.49V36.15z"/>
			<path class="st62" d="M78.67,38.02h-1.11v-2.11h0.27v1.87h0.84V38.02z"/>
			<path class="st62" d="M80.12,38.02h-1.14v-2.11h1.09v0.24h-0.81v0.68h0.75v0.24h-0.75v0.71h0.86V38.02z"/>
		</g>
	</g>
	<g>
		<g>
			<path class="st62" d="M74.81,43.99H74.2v1.87h-0.27v-1.87h-0.61v-0.24h1.49V43.99z"/>
			<path class="st62" d="M75.41,43.74v2.11h-0.27v-2.11H75.41z"/>
			<path class="st62" d="M77.23,43.99h-0.61v1.87h-0.27v-1.87h-0.61v-0.24h1.49V43.99z"/>
			<path class="st62" d="M78.67,45.85h-1.11v-2.11h0.27v1.87h0.84V45.85z"/>
			<path class="st62" d="M80.12,45.85h-1.14v-2.11h1.09v0.24h-0.81v0.68h0.75v0.24h-0.75v0.71h0.86V45.85z"/>
		</g>
	</g>
	<g>
		<g>
			<path class="st62" d="M60.87,30.45c-0.06,0.03-0.14,0.05-0.24,0.05c-0.27,0-0.4-0.15-0.4-0.45v-0.87h-0.26v-0.22h0.26V28.6
				l0.27-0.08v0.45h0.37v0.22h-0.37V30c0,0.1,0.02,0.17,0.05,0.21c0.03,0.04,0.09,0.06,0.17,0.06c0.06,0,0.11-0.02,0.16-0.05V30.45z
				"/>
			<path class="st62" d="M61.15,28.43c0-0.05,0.02-0.09,0.05-0.12s0.07-0.05,0.12-0.05c0.05,0,0.09,0.02,0.12,0.05
				c0.03,0.03,0.05,0.07,0.05,0.12c0,0.05-0.02,0.09-0.05,0.12s-0.07,0.05-0.12,0.05s-0.09-0.02-0.12-0.05S61.15,28.48,61.15,28.43z
				 M61.18,30.47v-1.51h0.27v1.51H61.18z"/>
			<path class="st62" d="M62.65,30.45c-0.06,0.03-0.14,0.05-0.24,0.05c-0.27,0-0.4-0.15-0.4-0.45v-0.87h-0.26v-0.22h0.26V28.6
				l0.27-0.08v0.45h0.37v0.22h-0.37V30c0,0.1,0.02,0.17,0.05,0.21c0.03,0.04,0.09,0.06,0.17,0.06c0.06,0,0.11-0.02,0.16-0.05V30.45z
				"/>
			<path class="st62" d="M62.96,30.47v-2.23h0.27v2.23H62.96z"/>
			<path class="st62" d="M64.94,29.78h-1.05c0,0.16,0.05,0.29,0.13,0.37s0.2,0.13,0.35,0.13c0.17,0,0.32-0.05,0.46-0.16v0.24
				c-0.13,0.09-0.31,0.14-0.53,0.14c-0.22,0-0.39-0.07-0.51-0.21c-0.12-0.14-0.18-0.33-0.18-0.58c0-0.23,0.07-0.42,0.2-0.57
				c0.13-0.15,0.3-0.23,0.5-0.23c0.2,0,0.35,0.06,0.46,0.19s0.17,0.3,0.17,0.53V29.78z M64.67,29.57c0-0.14-0.03-0.24-0.1-0.32
				c-0.06-0.07-0.15-0.11-0.27-0.11c-0.11,0-0.2,0.04-0.28,0.12c-0.08,0.08-0.13,0.18-0.15,0.31H64.67z"/>
		</g>
	</g>
	<g>
		<g>
			<path class="st62" d="M60.87,38c-0.06,0.03-0.14,0.05-0.24,0.05c-0.27,0-0.4-0.15-0.4-0.45v-0.87h-0.26v-0.22h0.26v-0.36
				l0.27-0.08v0.45h0.37v0.22h-0.37v0.82c0,0.1,0.02,0.17,0.05,0.21c0.03,0.04,0.09,0.06,0.17,0.06c0.06,0,0.11-0.02,0.16-0.05V38z"
				/>
			<path class="st62" d="M61.15,35.98c0-0.05,0.02-0.09,0.05-0.12s0.07-0.05,0.12-0.05c0.05,0,0.09,0.02,0.12,0.05
				c0.03,0.03,0.05,0.07,0.05,0.12c0,0.05-0.02,0.09-0.05,0.12s-0.07,0.05-0.12,0.05s-0.09-0.02-0.12-0.05S61.15,36.03,61.15,35.98z
				 M61.18,38.02v-1.51h0.27v1.51H61.18z"/>
			<path class="st62" d="M62.65,38c-0.06,0.03-0.14,0.05-0.24,0.05c-0.27,0-0.4-0.15-0.4-0.45v-0.87h-0.26v-0.22h0.26v-0.36
				l0.27-0.08v0.45h0.37v0.22h-0.37v0.82c0,0.1,0.02,0.17,0.05,0.21c0.03,0.04,0.09,0.06,0.17,0.06c0.06,0,0.11-0.02,0.16-0.05V38z"
				/>
			<path class="st62" d="M62.96,38.02v-2.23h0.27v2.23H62.96z"/>
			<path class="st62" d="M64.94,37.33h-1.05c0,0.16,0.05,0.29,0.13,0.37s0.2,0.13,0.35,0.13c0.17,0,0.32-0.05,0.46-0.16v0.24
				c-0.13,0.09-0.31,0.14-0.53,0.14c-0.22,0-0.39-0.07-0.51-0.21c-0.12-0.14-0.18-0.33-0.18-0.58c0-0.23,0.07-0.42,0.2-0.57
				c0.13-0.15,0.3-0.23,0.5-0.23c0.2,0,0.35,0.06,0.46,0.19s0.17,0.3,0.17,0.53V37.33z M64.67,37.12c0-0.14-0.03-0.24-0.1-0.32
				c-0.06-0.07-0.15-0.11-0.27-0.11c-0.11,0-0.2,0.04-0.28,0.12c-0.08,0.08-0.13,0.18-0.15,0.31H64.67z"/>
		</g>
	</g>
	<g>
		<g>
			<path class="st62" d="M60.87,45.84c-0.06,0.03-0.14,0.05-0.24,0.05c-0.27,0-0.4-0.15-0.4-0.45v-0.87h-0.26v-0.22h0.26v-0.36
				l0.27-0.08v0.45h0.37v0.22h-0.37v0.82c0,0.1,0.02,0.17,0.05,0.21c0.03,0.04,0.09,0.06,0.17,0.06c0.06,0,0.11-0.02,0.16-0.05
				V45.84z"/>
			<path class="st62" d="M61.15,43.82c0-0.05,0.02-0.09,0.05-0.12s0.07-0.05,0.12-0.05c0.05,0,0.09,0.02,0.12,0.05
				c0.03,0.03,0.05,0.07,0.05,0.12c0,0.05-0.02,0.09-0.05,0.12s-0.07,0.05-0.12,0.05s-0.09-0.02-0.12-0.05S61.15,43.86,61.15,43.82z
				 M61.18,45.85v-1.51h0.27v1.51H61.18z"/>
			<path class="st62" d="M62.65,45.84c-0.06,0.03-0.14,0.05-0.24,0.05c-0.27,0-0.4-0.15-0.4-0.45v-0.87h-0.26v-0.22h0.26v-0.36
				l0.27-0.08v0.45h0.37v0.22h-0.37v0.82c0,0.1,0.02,0.17,0.05,0.21c0.03,0.04,0.09,0.06,0.17,0.06c0.06,0,0.11-0.02,0.16-0.05
				V45.84z"/>
			<path class="st62" d="M62.96,45.85v-2.23h0.27v2.23H62.96z"/>
			<path class="st62" d="M64.94,45.17h-1.05c0,0.16,0.05,0.29,0.13,0.37s0.2,0.13,0.35,0.13c0.17,0,0.32-0.05,0.46-0.16v0.24
				c-0.13,0.09-0.31,0.14-0.53,0.14c-0.22,0-0.39-0.07-0.51-0.21c-0.12-0.14-0.18-0.33-0.18-0.58c0-0.23,0.07-0.42,0.2-0.57
				c0.13-0.15,0.3-0.23,0.5-0.23c0.2,0,0.35,0.06,0.46,0.19s0.17,0.3,0.17,0.53V45.17z M64.67,44.95c0-0.14-0.03-0.24-0.1-0.32
				c-0.06-0.07-0.15-0.11-0.27-0.11c-0.11,0-0.2,0.04-0.28,0.12c-0.08,0.08-0.13,0.18-0.15,0.31H64.67z"/>
		</g>
	</g>
	<rect id="XMLID_64_" x="29" y="40.17" class="st82" width="59.16" height="0.2"/>
	<rect id="XMLID_62_" x="28.94" y="34.18" class="st82" width="0.4" height="6.19"/>
	<g>
		<g>
			<path class="st83" d="M32.5,38.4v-2.15h0.3l0.69,1.09c0.16,0.25,0.28,0.48,0.39,0.7l0.01,0c-0.03-0.29-0.03-0.55-0.03-0.88v-0.9
				h0.26v2.15h-0.28l-0.68-1.09c-0.15-0.24-0.29-0.48-0.4-0.72l-0.01,0c0.02,0.27,0.02,0.53,0.02,0.89v0.92H32.5z"/>
			<path class="st83" d="M36.43,37.31c0,0.74-0.45,1.13-1,1.13c-0.57,0-0.97-0.44-0.97-1.09c0-0.68,0.42-1.13,1-1.13
				C36.05,36.22,36.43,36.67,36.43,37.31z M34.77,37.34c0,0.46,0.25,0.87,0.69,0.87c0.44,0,0.69-0.41,0.69-0.89
				c0-0.43-0.22-0.87-0.69-0.87C35,36.44,34.77,36.87,34.77,37.34z"/>
			<path class="st83" d="M36.61,38.24c0-0.12,0.08-0.2,0.19-0.2s0.19,0.08,0.19,0.2c0,0.12-0.07,0.2-0.19,0.2
				C36.69,38.44,36.61,38.35,36.61,38.24z"/>
			<path class="st83" d="M37.31,38.08c0.08,0.05,0.26,0.13,0.46,0.13c0.36,0,0.47-0.23,0.47-0.4c0-0.29-0.26-0.42-0.54-0.42h-0.16
				v-0.21h0.16c0.2,0,0.46-0.11,0.46-0.35c0-0.17-0.11-0.31-0.36-0.31c-0.17,0-0.33,0.07-0.41,0.14l-0.07-0.2
				c0.11-0.08,0.32-0.16,0.54-0.16c0.41,0,0.59,0.24,0.59,0.5c0,0.21-0.13,0.4-0.38,0.49v0.01c0.26,0.05,0.46,0.24,0.46,0.53
				c0,0.33-0.26,0.62-0.76,0.62c-0.23,0-0.44-0.07-0.54-0.14L37.31,38.08z"/>
		</g>
	</g>
	<g>
		<g>
			<path class="st42" d="M43.73,36.44h-0.61v1.87h-0.27v-1.87h-0.61v-0.24h1.49V36.44z"/>
			<path class="st42" d="M43.99,36.27c0-0.05,0.02-0.09,0.05-0.12s0.07-0.05,0.12-0.05c0.05,0,0.09,0.02,0.12,0.05
				c0.03,0.03,0.05,0.07,0.05,0.12c0,0.05-0.02,0.09-0.05,0.12s-0.07,0.05-0.12,0.05s-0.09-0.02-0.12-0.05S43.99,36.31,43.99,36.27z
				 M44.02,38.3V36.8h0.27v1.51H44.02z"/>
			<path class="st42" d="M45.49,38.29c-0.06,0.03-0.14,0.05-0.24,0.05c-0.27,0-0.4-0.15-0.4-0.45v-0.87h-0.26V36.8h0.26v-0.36
				l0.27-0.08v0.45h0.37v0.22h-0.37v0.82c0,0.1,0.02,0.17,0.05,0.21c0.03,0.04,0.09,0.06,0.17,0.06c0.06,0,0.11-0.02,0.16-0.05
				V38.29z"/>
			<path class="st42" d="M45.81,38.3v-2.23h0.27v2.23H45.81z"/>
			<path class="st42" d="M47.78,37.62h-1.05c0,0.16,0.05,0.29,0.13,0.37s0.2,0.13,0.35,0.13c0.17,0,0.32-0.05,0.46-0.16v0.24
				c-0.13,0.09-0.31,0.14-0.53,0.14c-0.22,0-0.39-0.07-0.51-0.21c-0.12-0.14-0.18-0.33-0.18-0.58c0-0.23,0.07-0.42,0.2-0.57
				c0.13-0.15,0.3-0.23,0.5-0.23c0.2,0,0.35,0.06,0.46,0.19s0.17,0.3,0.17,0.53V37.62z M47.51,37.4c0-0.14-0.03-0.24-0.1-0.32
				c-0.06-0.07-0.15-0.11-0.27-0.11c-0.11,0-0.2,0.04-0.28,0.12c-0.08,0.08-0.13,0.18-0.15,0.31H47.51z"/>
		</g>
	</g>
	<g>
		<g>
			<path class="st42" d="M43.73,44.37h-0.61v1.87h-0.27v-1.87h-0.61v-0.24h1.49V44.37z"/>
			<path class="st42" d="M43.99,44.2c0-0.05,0.02-0.09,0.05-0.12s0.07-0.05,0.12-0.05c0.05,0,0.09,0.02,0.12,0.05
				c0.03,0.03,0.05,0.07,0.05,0.12c0,0.05-0.02,0.09-0.05,0.12s-0.07,0.05-0.12,0.05s-0.09-0.02-0.12-0.05S43.99,44.25,43.99,44.2z
				 M44.02,46.24v-1.51h0.27v1.51H44.02z"/>
			<path class="st42" d="M45.49,46.23c-0.06,0.03-0.14,0.05-0.24,0.05c-0.27,0-0.4-0.15-0.4-0.45v-0.87h-0.26v-0.22h0.26v-0.36
				l0.27-0.08v0.45h0.37v0.22h-0.37v0.82c0,0.1,0.02,0.17,0.05,0.21c0.03,0.04,0.09,0.06,0.17,0.06c0.06,0,0.11-0.02,0.16-0.05
				V46.23z"/>
			<path class="st42" d="M45.81,46.24v-2.23h0.27v2.23H45.81z"/>
			<path class="st42" d="M47.78,45.56h-1.05c0,0.16,0.05,0.29,0.13,0.37s0.2,0.13,0.35,0.13c0.17,0,0.32-0.05,0.46-0.16v0.24
				c-0.13,0.09-0.31,0.14-0.53,0.14c-0.22,0-0.39-0.07-0.51-0.21c-0.12-0.14-0.18-0.33-0.18-0.58c0-0.23,0.07-0.42,0.2-0.57
				c0.13-0.15,0.3-0.23,0.5-0.23c0.2,0,0.35,0.06,0.46,0.19s0.17,0.3,0.17,0.53V45.56z M47.51,45.34c0-0.14-0.03-0.24-0.1-0.32
				c-0.06-0.07-0.15-0.11-0.27-0.11c-0.11,0-0.2,0.04-0.28,0.12c-0.08,0.08-0.13,0.18-0.15,0.31H47.51z"/>
		</g>
	</g>
	<rect id="XMLID_54_" x="29" y="48.01" class="st82" width="59.16" height="0.2"/>
	<rect id="XMLID_52_" x="28.94" y="42.02" class="st82" width="0.4" height="6.19"/>
	<g>
		<g>
			<path class="st83" d="M32.5,46.24v-2.15h0.3l0.69,1.09c0.16,0.25,0.28,0.48,0.39,0.7l0.01,0c-0.03-0.29-0.03-0.55-0.03-0.88v-0.9
				h0.26v2.15h-0.28l-0.68-1.09c-0.15-0.24-0.29-0.48-0.4-0.72l-0.01,0c0.02,0.27,0.02,0.53,0.02,0.89v0.92H32.5z"/>
			<path class="st83" d="M36.43,45.14c0,0.74-0.45,1.13-1,1.13c-0.57,0-0.97-0.44-0.97-1.09c0-0.68,0.42-1.13,1-1.13
				C36.05,44.06,36.43,44.51,36.43,45.14z M34.77,45.18c0,0.46,0.25,0.87,0.69,0.87c0.44,0,0.69-0.41,0.69-0.89
				c0-0.43-0.22-0.87-0.69-0.87C35,44.28,34.77,44.71,34.77,45.18z"/>
			<path class="st83" d="M36.61,46.07c0-0.12,0.08-0.2,0.19-0.2s0.19,0.08,0.19,0.2c0,0.12-0.07,0.2-0.19,0.2
				C36.69,46.28,36.61,46.19,36.61,46.07z"/>
			<path class="st83" d="M38.12,46.24v-0.56h-0.96v-0.18l0.92-1.32h0.3v1.29h0.29v0.22h-0.29v0.56H38.12z M38.12,45.46v-0.69
				c0-0.11,0-0.22,0.01-0.33h-0.01c-0.06,0.12-0.11,0.21-0.17,0.31l-0.51,0.71v0.01H38.12z"/>
		</g>
	</g>
	<rect x="34.5" y="24.4" class="st62" width="1.45" height="0.4"/>
	<rect x="50.34" y="32.23" class="st62" width="1.45" height="0.4"/>
	<rect x="72.33" y="40.07" class="st62" width="1.45" height="0.4"/>
	<rect x="87.59" y="47.91" class="st62" width="1.13" height="0.4"/>
</g>
</svg>
