<?xml version="1.0" encoding="utf-8"?>
<!-- Generator: Adobe Illustrator 23.0.0, SVG Export Plug-In . SVG Version: 6.00 Build 0)  -->
<svg version="1.1" id="图层_1" xmlns="http://www.w3.org/2000/svg" xmlns:xlink="http://www.w3.org/1999/xlink" x="0px" y="0px"
	 viewBox="0 0 1024 1024" style="enable-background:new 0 0 1024 1024;" xml:space="preserve">
<style type="text/css">
	.st0{fill:#4C7EF1;}
	.st1{fill:#29CB97;}
	.st2{fill:#FEC400;}
	.st3{fill:#B35AF1;}
	.st4{fill:#29C997;}
	.st5{fill:#FFFFFF;}
	.st6{fill:#6B6B6B;}
	.st7{fill:#444444;}
	.st8{opacity:0.1;fill:#FFFFFF;}
	.st9{opacity:0.1;}
	.st10{fill:none;stroke:#F24343;stroke-width:14;stroke-miterlimit:10;}
	.st11{fill:none;stroke:#FFFFFF;stroke-width:14;stroke-miterlimit:10;}
	.st12{fill:none;stroke:#4C7EF1;stroke-width:14;stroke-miterlimit:10;}
	.st13{fill:none;stroke:#FEAB05;stroke-width:14;stroke-miterlimit:10;}
	.st14{fill:none;stroke:#29CB97;stroke-width:8;stroke-miterlimit:10;}
	.st15{fill:#999999;}
	.st16{font-family:'MicrosoftYaHei';}
	.st17{font-size:36px;}
	.st18{fill:none;stroke:#29CB97;stroke-width:16;stroke-miterlimit:10;}
	.st19{fill:none;stroke:#FEC400;stroke-width:16;stroke-miterlimit:10;}
	.st20{fill:none;stroke:#FEAB05;stroke-width:16;stroke-miterlimit:10;}
	.st21{fill:none;}
	.st22{font-size:17.8943px;}
	.st23{fill:none;stroke:#FEC400;stroke-width:8;stroke-miterlimit:10;}
	.st24{fill:none;stroke:#676767;stroke-width:8;stroke-miterlimit:10;}
	.st25{fill:none;stroke:#FEC400;stroke-width:2;stroke-miterlimit:10;}
	.st26{fill:#E6E6E6;}
	.st27{fill:#74D889;}
	.st28{fill:#FFDC70;}
	.st29{fill:#47ABFC;}
	.st30{fill:none;stroke:#FFFFFF;stroke-miterlimit:10;}
	.st31{fill:#4C7EF1;stroke:#0B0C0E;stroke-miterlimit:10;}
	.st32{fill:#FEC400;stroke:#0B0C0E;stroke-miterlimit:10;}
	.st33{fill:none;stroke:#AAA9A9;stroke-miterlimit:10;}
	.st34{fill:none;stroke:#A5A4A4;stroke-width:2;stroke-miterlimit:10;stroke-dasharray:1.0005,4.002;}
	.st35{fill:none;stroke:#4C7EF1;stroke-width:40;stroke-miterlimit:10;}
	.st36{fill:none;stroke:#FEC400;stroke-width:40;stroke-miterlimit:10;}
	.st37{fill:none;stroke:#676767;stroke-width:20;stroke-miterlimit:10;}
	.st38{fill:none;stroke:#FEC400;stroke-width:20;stroke-miterlimit:10;}
	.st39{fill:none;stroke:#29C997;stroke-width:20;stroke-miterlimit:10;}
	.st40{fill:none;stroke:#FFFFFF;stroke-width:20;stroke-miterlimit:10;}
	.st41{fill:none;stroke:#000000;stroke-miterlimit:10;}
	.st42{fill:none;stroke:#FFFFFF;stroke-width:2;stroke-miterlimit:10;stroke-dasharray:3.941,3.941;}
	.st43{opacity:0.5;fill:none;stroke:#FFFFFF;stroke-width:0.4926;stroke-miterlimit:10;stroke-dasharray:3.941,3.941;}
	.st44{fill:none;stroke:#00B091;stroke-width:4;stroke-miterlimit:10;}
	.st45{fill:none;stroke:#EDBF00;stroke-width:4;stroke-miterlimit:10;}
	.st46{fill:#EDBF00;}
	.st47{fill:#00B091;}
	.st48{opacity:0.8;fill:#00B091;}
	.st49{opacity:0.8;fill:#EDBF00;}
	.st50{opacity:0.8;fill:#D85700;}
	.st51{fill:#4C7EF1;stroke:#4C7EF1;stroke-miterlimit:10;}
	.st52{opacity:0.65;fill:url(#SVGID_1_);}
	.st53{opacity:0.65;fill:url(#SVGID_2_);}
	.st54{opacity:0.65;fill:url(#SVGID_3_);}
	.st55{fill:#292E34;}
	.st56{opacity:0.6;}
	.st57{fill:#334469;}
	.st58{fill:#FEAB05;}
	.st59{opacity:0.4;fill:#0B0C0E;}
	.st60{opacity:0.7;}
	.st61{fill:#F24343;}
	.st62{opacity:0.42;fill:#676767;stroke:#F0F2F8;stroke-miterlimit:10;}
	.st63{fill:none;stroke:#F0F2F8;stroke-width:2;stroke-miterlimit:10;}
	.st64{clip-path:url(#SVGID_5_);}
	.st65{fill:#3B86FF;}
	.st66{opacity:0.36;}
	.st67{opacity:0.74;fill:none;stroke:#FCFCFC;stroke-miterlimit:10;}
	.st68{opacity:0.5;fill:none;stroke:#1E6D74;stroke-miterlimit:10;}
	.st69{opacity:0.85;fill:none;stroke:#FFFFFF;stroke-miterlimit:10;}
	.st70{opacity:0.86;}
	.st71{opacity:0.74;fill:#B35AF1;}
</style>
<g>
	<g>
		<text transform="matrix(1 0 0 1 182.515 742.7894)" class="st15 st16 st17">A1</text>
		<text transform="matrix(1 0 0 1 300.0941 742.7894)" class="st15 st16 st17">A2</text>
		<text transform="matrix(1 0 0 1 429.1034 742.7894)" class="st15 st16 st17">A3</text>
		<text transform="matrix(1 0 0 1 541.2133 742.7894)" class="st15 st16 st17">A4</text>
		<text transform="matrix(1 0 0 1 655.8314 742.7894)" class="st15 st16 st17">A5</text>
		<text transform="matrix(1 0 0 1 776.4105 742.7894)" class="st15 st16 st17">A6</text>
	</g>
	<g>
		<rect x="608.44" y="167.39" class="st5" width="5.96" height="5.96"/>
		<rect x="614.4" y="169.38" class="st6" width="285.31" height="1.99"/>
		<rect x="899.6" y="167.39" class="st5" width="5.96" height="5.96"/>
	</g>
	<g>
		
			<rect x="81.55" y="137.39" transform="matrix(5.031779e-11 1 -1 5.031779e-11 220.9272 55.841)" class="st5" width="1.99" height="1.99"/>
		
			<rect x="81.55" y="809.42" transform="matrix(5.031779e-11 1 -1 5.031779e-11 892.9569 727.8708)" class="st5" width="1.99" height="1.99"/>
		
			<rect x="-252.53" y="473.46" transform="matrix(5.203286e-11 1 -1 5.203286e-11 556.9974 391.9112)" class="st7" width="670.15" height="1.99"/>
	</g>
	<g>
		
			<rect x="942.46" y="137.39" transform="matrix(5.031779e-11 1 -1 5.031779e-11 1081.8411 -805.0728)" class="st5" width="1.99" height="1.99"/>
		
			<rect x="942.46" y="809.42" transform="matrix(5.031779e-11 1 -1 5.031779e-11 1753.8707 -133.0431)" class="st5" width="1.99" height="1.99"/>
		
			<rect x="608.38" y="473.46" transform="matrix(5.203286e-11 1 -1 5.203286e-11 1417.9113 -469.0026)" class="st7" width="670.15" height="1.99"/>
	</g>
	<g>
		<rect x="123.3" y="215.11" class="st6" width="776.41" height="1.99"/>
		
			<rect x="95.47" y="191.25" transform="matrix(5.933813e-11 1 -1 5.933813e-11 312.563 71.9233)" class="st6" width="49.71" height="1.99"/>
		<rect x="899.6" y="213.12" class="st5" width="5.96" height="5.96"/>
		<rect x="117.34" y="213.12" class="st5" width="5.96" height="5.96"/>
		<rect x="117.34" y="167.39" class="st5" width="5.96" height="5.96"/>
	</g>
	<rect x="176.99" y="238.79" class="st8" width="1.99" height="436.65"/>
	<rect x="177.98" y="671.45" class="st8" width="725.62" height="1.99"/>
	<rect x="176.99" y="673.91" class="st5" width="1.99" height="1.53"/>
	<g>
		<rect x="178.97" y="309.14" class="st8" width="724.72" height="1.27"/>
		<rect x="178.97" y="618.91" class="st8" width="726.71" height="1.27"/>
		<rect x="178.97" y="567.28" class="st8" width="726.71" height="1.27"/>
		<rect x="178.97" y="515.66" class="st8" width="726.71" height="1.27"/>
		<rect x="178.97" y="464.03" class="st8" width="726.71" height="1.27"/>
		<rect x="178.97" y="412.4" class="st8" width="726.71" height="1.27"/>
		<rect x="178.97" y="360.77" class="st8" width="726.71" height="1.27"/>
		<rect x="322.3" y="310.42" class="st8" width="1.99" height="360.13"/>
		<rect x="758.26" y="310.42" class="st8" width="1.99" height="360.13"/>
		<rect x="467.62" y="310.42" class="st8" width="1.99" height="360.13"/>
		<rect x="612.94" y="310.42" class="st8" width="1.99" height="360.13"/>
	</g>
	<rect x="903.58" y="238.79" class="st8" width="1.99" height="433.85"/>
	<rect x="903.58" y="238.79" class="st5" width="1.99" height="1.99"/>
	<rect x="176.99" y="238.79" class="st5" width="1.99" height="1.99"/>
	<rect x="903.58" y="672.45" class="st5" width="1.99" height="1.99"/>
	<rect x="83.54" y="203" class="st5" width="7.95" height="1.99"/>
	<rect x="83.54" y="762.7" class="st5" width="7.95" height="1.99"/>
	<line class="st18" x1="178.51" y1="347.21" x2="407.35" y2="347.21"/>
	<line class="st19" x1="178.51" y1="371.07" x2="547.73" y2="371.07"/>
	<line class="st18" x1="180.5" y1="428.66" x2="611.26" y2="428.66"/>
	<line class="st19" x1="180.5" y1="452.52" x2="782.41" y2="452.52"/>
	<line class="st18" x1="178.51" y1="516.19" x2="407.35" y2="516.19"/>
	<line class="st19" x1="178.51" y1="540.05" x2="547.73" y2="540.05"/>
	<line class="st18" x1="178.51" y1="616.1" x2="609.27" y2="616.1"/>
	<line class="st20" x1="178.51" y1="639.96" x2="780.42" y2="639.96"/>
	<rect x="115.35" y="309.14" class="st21" width="41.75" height="407.18"/>
	<text transform="matrix(1 0 0 1 115.351 324.4857)"><tspan x="0" y="0" class="st5 st16 st22">周一</tspan><tspan x="0" y="120" class="st5 st16 st22">周三</tspan><tspan x="0" y="240" class="st5 st16 st22">周五</tspan><tspan x="0" y="360" class="st5 st16 st22">周日</tspan></text>
</g>
</svg>
