<?xml version="1.0" encoding="utf-8"?>
<!-- Generator: Adobe Illustrator 23.0.0, SVG Export Plug-In . SVG Version: 6.00 Build 0)  -->
<svg version="1.1" id="图层_1" xmlns="http://www.w3.org/2000/svg" xmlns:xlink="http://www.w3.org/1999/xlink" x="0px" y="0px"
	 viewBox="0 0 1024 1024" style="enable-background:new 0 0 1024 1024;" xml:space="preserve">
<style type="text/css">
	.st0{fill:#4C7EF1;}
	.st1{fill:#29CB97;}
	.st2{fill:#FEC400;}
	.st3{fill:#B35AF1;}
	.st4{fill:#29C997;}
	.st5{fill:#FFFFFF;}
	.st6{fill:#6B6B6B;}
	.st7{fill:#444444;}
	.st8{opacity:0.1;fill:#FFFFFF;}
	.st9{opacity:0.1;}
	.st10{fill:none;stroke:#F24343;stroke-width:14;stroke-miterlimit:10;}
	.st11{fill:none;stroke:#FFFFFF;stroke-width:14;stroke-miterlimit:10;}
	.st12{fill:none;stroke:#4C7EF1;stroke-width:14;stroke-miterlimit:10;}
	.st13{fill:none;stroke:#FEAB05;stroke-width:14;stroke-miterlimit:10;}
	.st14{fill:none;stroke:#29CB97;stroke-width:8;stroke-miterlimit:10;}
	.st15{fill:none;stroke:#29CB97;stroke-width:16;stroke-miterlimit:10;}
	.st16{fill:none;stroke:#FEC400;stroke-width:16;stroke-miterlimit:10;}
	.st17{fill:none;stroke:#FEAB05;stroke-width:16;stroke-miterlimit:10;}
	.st18{fill:none;stroke:#FEC400;stroke-width:8;stroke-miterlimit:10;}
	.st19{fill:none;stroke:#676767;stroke-width:8;stroke-miterlimit:10;}
	.st20{fill:none;stroke:#FEC400;stroke-width:2;stroke-miterlimit:10;}
	.st21{fill:#E6E6E6;}
	.st22{fill:#74D889;}
	.st23{fill:#FFDC70;}
	.st24{fill:#47ABFC;}
	.st25{fill:none;stroke:#FFFFFF;stroke-miterlimit:10;}
	.st26{fill:#4C7EF1;stroke:#0B0C0E;stroke-miterlimit:10;}
	.st27{fill:#FEC400;stroke:#0B0C0E;stroke-miterlimit:10;}
	.st28{fill:none;stroke:#AAA9A9;stroke-miterlimit:10;}
	.st29{fill:none;stroke:#A5A4A4;stroke-width:2;stroke-miterlimit:10;stroke-dasharray:1.0005,4.002;}
	.st30{fill:none;stroke:#4C7EF1;stroke-width:40;stroke-miterlimit:10;}
	.st31{fill:none;stroke:#FEC400;stroke-width:40;stroke-miterlimit:10;}
	.st32{fill:none;stroke:#676767;stroke-width:20;stroke-miterlimit:10;}
	.st33{fill:none;stroke:#FEC400;stroke-width:20;stroke-miterlimit:10;}
	.st34{fill:none;stroke:#29C997;stroke-width:20;stroke-miterlimit:10;}
	.st35{fill:none;stroke:#FFFFFF;stroke-width:20;stroke-miterlimit:10;}
	.st36{fill:none;stroke:#000000;stroke-miterlimit:10;}
	.st37{fill:none;stroke:#FFFFFF;stroke-width:2;stroke-miterlimit:10;stroke-dasharray:3.941,3.941;}
	.st38{opacity:0.5;fill:none;stroke:#FFFFFF;stroke-width:0.4926;stroke-miterlimit:10;stroke-dasharray:3.941,3.941;}
	.st39{fill:none;stroke:#00B091;stroke-width:4;stroke-miterlimit:10;}
	.st40{fill:none;stroke:#EDBF00;stroke-width:4;stroke-miterlimit:10;}
	.st41{fill:#EDBF00;}
	.st42{fill:#00B091;}
	.st43{opacity:0.8;fill:#00B091;}
	.st44{opacity:0.8;fill:#EDBF00;}
	.st45{opacity:0.8;fill:#D85700;}
	.st46{fill:#4C7EF1;stroke:#4C7EF1;stroke-miterlimit:10;}
	.st47{fill:none;}
	.st48{font-family:'MicrosoftYaHei';}
	.st49{font-size:17.1143px;}
	.st50{fill:#999999;}
	.st51{font-size:36px;}
	.st52{opacity:0.65;fill:url(#SVGID_1_);}
	.st53{opacity:0.65;fill:url(#SVGID_2_);}
	.st54{opacity:0.65;fill:url(#SVGID_3_);}
	.st55{fill:#292E34;}
	.st56{opacity:0.6;}
	.st57{fill:#334469;}
	.st58{fill:#FEAB05;}
	.st59{opacity:0.4;fill:#0B0C0E;}
	.st60{opacity:0.7;}
	.st61{fill:#F24343;}
	.st62{opacity:0.42;fill:#676767;stroke:#F0F2F8;stroke-miterlimit:10;}
	.st63{fill:none;stroke:#F0F2F8;stroke-width:2;stroke-miterlimit:10;}
	.st64{clip-path:url(#SVGID_5_);}
	.st65{fill:#3B86FF;}
	.st66{opacity:0.36;}
	.st67{opacity:0.74;fill:none;stroke:#FCFCFC;stroke-miterlimit:10;}
	.st68{opacity:0.5;fill:none;stroke:#1E6D74;stroke-miterlimit:10;}
	.st69{opacity:0.85;fill:none;stroke:#FFFFFF;stroke-miterlimit:10;}
	.st70{opacity:0.86;}
	.st71{opacity:0.74;fill:#B35AF1;}
</style>
<g>
	<g>
		<rect x="74.53" y="357.41" class="st47" width="32.33" height="378.42"/>
		<text transform="matrix(1 0 0 1 76.7531 372.0841)"><tspan x="0" y="0" class="st5 st48 st49">500</tspan><tspan x="0" y="76.06" class="st5 st48 st49">400</tspan><tspan x="0" y="152.13" class="st5 st48 st49">300</tspan><tspan x="0" y="228.19" class="st5 st48 st49">200</tspan><tspan x="0" y="304.25" class="st5 st48 st49">100</tspan><tspan x="20.07" y="342.29" class="st5 st48 st49">0</tspan></text>
	</g>
	<g>
		<rect x="242.57" y="256.13" class="st5" width="6" height="6"/>
		<rect x="248.57" y="258.13" class="st6" width="635.09" height="2"/>
		<rect x="883.55" y="256.13" class="st5" width="6" height="6"/>
	</g>
	<g>
		
			<rect x="926.67" y="256.13" transform="matrix(5.001492e-11 1 -1 5.001492e-11 1184.8066 -670.5377)" class="st5" width="2" height="2"/>
		
			<rect x="926.67" y="764.21" transform="matrix(5.001492e-11 1 -1 5.001492e-11 1692.8824 -162.4619)" class="st5" width="2" height="2"/>
		
			<rect x="674.58" y="510.23" transform="matrix(6.930438e-11 1 -1 6.930438e-11 1438.9003 -416.4441)" class="st7" width="506.19" height="2"/>
	</g>
	<g>
		<rect x="102.55" y="304.14" class="st6" width="781.12" height="2"/>
		
			<rect x="74.54" y="280.14" transform="matrix(5.938076e-11 1 -1 5.938076e-11 380.6866 181.5895)" class="st6" width="50.01" height="2"/>
		<rect x="883.55" y="302.14" class="st5" width="6" height="6"/>
		<rect x="96.55" y="302.14" class="st5" width="6" height="6"/>
		<rect x="96.55" y="256.13" class="st5" width="6" height="6"/>
	</g>
	<g>
		<text transform="matrix(1 0 0 1 195.3466 783.2773)" class="st50 st48 st51">A1</text>
		<text transform="matrix(1 0 0 1 312.9259 783.2773)" class="st50 st48 st51">A2</text>
		<text transform="matrix(1 0 0 1 441.9352 783.2773)" class="st50 st48 st51">A3</text>
		<text transform="matrix(1 0 0 1 554.045 783.2773)" class="st50 st48 st51">A4</text>
		<text transform="matrix(1 0 0 1 668.6632 783.2773)" class="st50 st48 st51">A5</text>
		<text transform="matrix(1 0 0 1 789.2423 783.2773)" class="st50 st48 st51">A6</text>
	</g>
	<g>
		<rect x="136.55" y="358.15" class="st8" width="2" height="355.34"/>
		<rect x="138.55" y="711.51" class="st8" width="749.02" height="1.97"/>
		<rect x="136.55" y="711.51" class="st5" width="2" height="1.97"/>
		<rect x="138.55" y="358.15" class="st8" width="749.11" height="1.97"/>
		<rect x="452.76" y="360.12" class="st8" width="2" height="351.39"/>
		<rect x="176.08" y="360.12" class="st8" width="2" height="351.39"/>
		<rect x="215.61" y="360.12" class="st8" width="2" height="351.39"/>
		<rect x="255.13" y="360.12" class="st8" width="2" height="351.39"/>
		<rect x="294.66" y="360.12" class="st8" width="2" height="351.39"/>
		<rect x="334.19" y="360.12" class="st8" width="2" height="351.39"/>
		<rect x="373.71" y="360.12" class="st8" width="2" height="351.39"/>
		<rect x="413.24" y="360.12" class="st8" width="2" height="351.39"/>
		<rect x="768.98" y="360.12" class="st8" width="2" height="351.39"/>
		<rect x="492.29" y="360.12" class="st8" width="2" height="351.39"/>
		<rect x="531.82" y="360.12" class="st8" width="2" height="351.39"/>
		<rect x="571.34" y="360.12" class="st8" width="2" height="351.39"/>
		<rect x="610.87" y="360.12" class="st8" width="2" height="351.39"/>
		<rect x="650.4" y="360.12" class="st8" width="2" height="351.39"/>
		<rect x="689.92" y="360.12" class="st8" width="2" height="351.39"/>
		<rect x="729.45" y="360.12" class="st8" width="2" height="351.39"/>
		<rect x="808.5" y="360.12" class="st8" width="2" height="351.39"/>
		<rect x="848.03" y="360.12" class="st8" width="2" height="351.39"/>
		<rect x="887.55" y="360.12" class="st8" width="2" height="351.39"/>
		<rect x="887.55" y="358.15" class="st5" width="2" height="1.97"/>
		<rect x="136.55" y="358.15" class="st5" width="2" height="1.97"/>
		<rect x="887.55" y="711.51" class="st5" width="2" height="1.97"/>
	</g>
	<g>
		<line id="XMLID_16_" class="st37" x1="138.55" y1="512.94" x2="884.07" y2="512.94"/>
		<line id="XMLID_15_" class="st38" x1="138.55" y1="442.27" x2="884.07" y2="442.27"/>
		<line id="XMLID_14_" class="st37" x1="138.55" y1="566.6" x2="884.07" y2="566.6"/>
		<line id="XMLID_13_" class="st38" x1="138.55" y1="620.25" x2="884.07" y2="620.25"/>
		<line id="XMLID_12_" class="st38" x1="138.55" y1="673.91" x2="884.07" y2="673.91"/>
	</g>
	<linearGradient id="SVGID_1_" gradientUnits="userSpaceOnUse" x1="512" y1="597.2263" x2="512" y2="423.5223">
		<stop  offset="0" style="stop-color:#1F1F1F"/>
		<stop  offset="1" style="stop-color:#FEAB05"/>
	</linearGradient>
	<path class="st52" d="M885.89,432.14c-9.91-2.21-20.2-5.23-39.69-7.08c-75.17-7.13-110.9,12.4-199.48,19.46
		c-71.59,5.7-90.86-9.29-140.99-2.95c-49.87,5.01-74,25.44-137.86,28.89c-74.08,4.01-98.53-12.84-144.12-2.36
		c-41.84,9.62-73.5,37.77-85.64,56.01v73.11h747.78V432.14z"/>
	
		<linearGradient id="SVGID_2_" gradientUnits="userSpaceOnUse" x1="515.3319" y1="658.5065" x2="515.3319" y2="546.6191" gradientTransform="matrix(-1 0 0 1 1027.3319 0)">
		<stop  offset="0" style="stop-color:#1F1F1F"/>
		<stop  offset="1" style="stop-color:#00B091;stop-opacity:0.8"/>
	</linearGradient>
	<path class="st53" d="M138.11,552.17c9.91-1.43,20.2-3.37,39.69-4.56c75.17-4.6,110.9,7.99,199.48,12.53
		c71.59,3.67,90.86-5.98,140.99-1.9c49.87,3.23,74,16.38,137.86,18.61c74.08,2.58,98.53-8.27,144.12-1.52
		c41.84,6.19,73.5,24.33,85.64,36.08v47.09H138.11V552.17z"/>
	<linearGradient id="SVGID_3_" gradientUnits="userSpaceOnUse" x1="513.666" y1="708.0233" x2="513.666" y2="580.3577">
		<stop  offset="0" style="stop-color:#1F1F1F"/>
		<stop  offset="1" style="stop-color:#4C7EF1"/>
	</linearGradient>
	<path class="st54" d="M887.55,586.69c-9.91-1.63-20.2-3.84-39.69-5.2c-75.17-5.24-110.9,9.12-199.48,14.3
		c-71.59,4.19-90.86-6.82-140.99-2.17c-49.87,3.68-74,18.69-137.86,21.23c-74.08,2.94-98.53-9.44-144.12-1.73
		c-41.84,7.07-73.5,27.76-85.64,41.17v53.73h747.78V586.69z"/>
</g>
</svg>
