<?xml version="1.0" encoding="utf-8"?>
<!-- Generator: Adobe Illustrator 23.0.0, SVG Export Plug-In . SVG Version: 6.00 Build 0)  -->
<svg version="1.1" id="图层_1" xmlns="http://www.w3.org/2000/svg" xmlns:xlink="http://www.w3.org/1999/xlink" x="0px" y="0px"
	 viewBox="0 0 1024 1024" style="enable-background:new 0 0 1024 1024;" xml:space="preserve">
<style type="text/css">
	.st0{fill:#4C7EF1;}
	.st1{fill:#29CB97;}
	.st2{fill:#FEC400;}
	.st3{fill:#B35AF1;}
	.st4{fill:#29C997;}
	.st5{fill:#FFFFFF;}
	.st6{fill:#6B6B6B;}
	.st7{fill:#444444;}
	.st8{opacity:0.1;fill:#FFFFFF;}
	.st9{opacity:0.1;}
	.st10{fill:none;stroke:#F24343;stroke-width:14;stroke-miterlimit:10;}
	.st11{fill:none;stroke:#FFFFFF;stroke-width:14;stroke-miterlimit:10;}
	.st12{fill:none;stroke:#4C7EF1;stroke-width:14;stroke-miterlimit:10;}
	.st13{fill:none;stroke:#FEAB05;stroke-width:14;stroke-miterlimit:10;}
	.st14{fill:none;stroke:#29CB97;stroke-width:8;stroke-miterlimit:10;}
	.st15{fill:none;stroke:#29CB97;stroke-width:16;stroke-miterlimit:10;}
	.st16{fill:none;stroke:#FEC400;stroke-width:16;stroke-miterlimit:10;}
	.st17{fill:none;stroke:#FEAB05;stroke-width:16;stroke-miterlimit:10;}
	.st18{fill:#999999;}
	.st19{font-family:'MicrosoftYaHei';}
	.st20{font-size:36px;}
	.st21{fill:none;}
	.st22{font-size:17.8943px;}
	.st23{fill:none;stroke:#FEC400;stroke-width:8;stroke-miterlimit:10;}
	.st24{fill:none;stroke:#676767;stroke-width:8;stroke-miterlimit:10;}
	.st25{fill:none;stroke:#FEC400;stroke-width:2;stroke-miterlimit:10;}
	.st26{fill:#E6E6E6;}
	.st27{fill:#74D889;}
	.st28{fill:#FFDC70;}
	.st29{fill:#47ABFC;}
	.st30{fill:none;stroke:#FFFFFF;stroke-miterlimit:10;}
	.st31{fill:#4C7EF1;stroke:#0B0C0E;stroke-miterlimit:10;}
	.st32{fill:#FEC400;stroke:#0B0C0E;stroke-miterlimit:10;}
	.st33{fill:none;stroke:#AAA9A9;stroke-miterlimit:10;}
	.st34{fill:none;stroke:#A5A4A4;stroke-width:2;stroke-miterlimit:10;stroke-dasharray:1.0005,4.002;}
	.st35{fill:none;stroke:#4C7EF1;stroke-width:40;stroke-miterlimit:10;}
	.st36{fill:none;stroke:#FEC400;stroke-width:40;stroke-miterlimit:10;}
	.st37{fill:none;stroke:#676767;stroke-width:20;stroke-miterlimit:10;}
	.st38{fill:none;stroke:#FEC400;stroke-width:20;stroke-miterlimit:10;}
	.st39{fill:none;stroke:#29C997;stroke-width:20;stroke-miterlimit:10;}
	.st40{fill:none;stroke:#FFFFFF;stroke-width:20;stroke-miterlimit:10;}
	.st41{fill:none;stroke:#000000;stroke-miterlimit:10;}
	.st42{fill:none;stroke:#FFFFFF;stroke-width:2;stroke-miterlimit:10;stroke-dasharray:3.941,3.941;}
	.st43{opacity:0.5;fill:none;stroke:#FFFFFF;stroke-width:0.4926;stroke-miterlimit:10;stroke-dasharray:3.941,3.941;}
	.st44{fill:none;stroke:#00B091;stroke-width:4;stroke-miterlimit:10;}
	.st45{fill:none;stroke:#EDBF00;stroke-width:4;stroke-miterlimit:10;}
	.st46{fill:#EDBF00;}
	.st47{fill:#00B091;}
	.st48{opacity:0.8;fill:#00B091;}
	.st49{opacity:0.8;fill:#EDBF00;}
	.st50{opacity:0.8;fill:#D85700;}
	.st51{fill:#4C7EF1;stroke:#4C7EF1;stroke-miterlimit:10;}
	.st52{opacity:0.65;fill:url(#SVGID_1_);}
	.st53{opacity:0.65;fill:url(#SVGID_2_);}
	.st54{opacity:0.65;fill:url(#SVGID_3_);}
	.st55{fill:#292E34;}
	.st56{opacity:0.6;}
	.st57{fill:#334469;}
	.st58{fill:#FEAB05;}
	.st59{opacity:0.4;fill:#0B0C0E;}
	.st60{opacity:0.7;}
	.st61{fill:#F24343;}
	.st62{opacity:0.42;fill:#676767;stroke:#F0F2F8;stroke-miterlimit:10;}
	.st63{fill:none;stroke:#F0F2F8;stroke-width:2;stroke-miterlimit:10;}
	.st64{clip-path:url(#SVGID_5_);}
	.st65{fill:#3B86FF;}
	.st66{opacity:0.36;}
	.st67{opacity:0.74;fill:none;stroke:#FCFCFC;stroke-miterlimit:10;}
	.st68{opacity:0.5;fill:none;stroke:#1E6D74;stroke-miterlimit:10;}
	.st69{opacity:0.85;fill:none;stroke:#FFFFFF;stroke-miterlimit:10;}
	.st70{opacity:0.86;}
	.st71{opacity:0.74;fill:#B35AF1;}
</style>
<g>
	<g>
		<text transform="matrix(1 0 0 1 192.5141 742.7894)" class="st18 st19 st20">A1</text>
		<text transform="matrix(1 0 0 1 310.0933 742.7894)" class="st18 st19 st20">A2</text>
		<text transform="matrix(1 0 0 1 439.1025 742.7894)" class="st18 st19 st20">A3</text>
		<text transform="matrix(1 0 0 1 551.2125 742.7894)" class="st18 st19 st20">A4</text>
		<text transform="matrix(1 0 0 1 665.8307 742.7894)" class="st18 st19 st20">A5</text>
		<text transform="matrix(1 0 0 1 786.4097 742.7894)" class="st18 st19 st20">A6</text>
	</g>
	<g>
		<rect x="618.44" y="167.39" class="st5" width="5.96" height="5.96"/>
		<rect x="624.4" y="169.38" class="st6" width="285.31" height="1.99"/>
		<rect x="909.6" y="167.39" class="st5" width="5.96" height="5.96"/>
	</g>
	<g>
		
			<rect x="91.55" y="137.39" transform="matrix(5.123261e-11 1 -1 5.123261e-11 230.9272 45.841)" class="st5" width="1.99" height="1.99"/>
		
			<rect x="91.55" y="809.42" transform="matrix(5.123261e-11 1 -1 5.123261e-11 902.9569 717.8708)" class="st5" width="1.99" height="1.99"/>
		
			<rect x="-242.53" y="473.46" transform="matrix(5.203286e-11 1 -1 5.203286e-11 566.9974 381.9112)" class="st7" width="670.15" height="1.99"/>
	</g>
	<g>
		
			<rect x="952.46" y="137.39" transform="matrix(5.123261e-11 1 -1 5.123261e-11 1091.8411 -815.0728)" class="st5" width="1.99" height="1.99"/>
		
			<rect x="952.46" y="809.42" transform="matrix(5.123261e-11 1 -1 5.123261e-11 1763.8707 -143.0431)" class="st5" width="1.99" height="1.99"/>
		
			<rect x="618.38" y="473.46" transform="matrix(5.203286e-11 1 -1 5.203286e-11 1427.9113 -479.0026)" class="st7" width="670.15" height="1.99"/>
	</g>
	<g>
		<rect x="133.3" y="215.11" class="st6" width="776.41" height="1.99"/>
		
			<rect x="105.47" y="191.25" transform="matrix(5.922889e-11 1 -1 5.922889e-11 322.563 61.9233)" class="st6" width="49.71" height="1.99"/>
		<rect x="909.6" y="213.12" class="st5" width="5.96" height="5.96"/>
		<rect x="127.34" y="213.12" class="st5" width="5.96" height="5.96"/>
		<rect x="127.34" y="167.39" class="st5" width="5.96" height="5.96"/>
	</g>
	<rect x="186.99" y="238.79" class="st8" width="1.99" height="436.65"/>
	<rect x="187.98" y="671.45" class="st8" width="725.62" height="1.99"/>
	<rect x="186.99" y="673.91" class="st5" width="1.99" height="1.53"/>
	<g>
		<rect x="188.97" y="309.14" class="st8" width="724.72" height="1.27"/>
		<rect x="188.97" y="618.91" class="st8" width="726.71" height="1.27"/>
		<rect x="188.97" y="567.28" class="st8" width="726.71" height="1.27"/>
		<rect x="188.97" y="515.66" class="st8" width="726.71" height="1.27"/>
		<rect x="188.97" y="464.03" class="st8" width="726.71" height="1.27"/>
		<rect x="188.97" y="412.4" class="st8" width="726.71" height="1.27"/>
		<rect x="188.97" y="360.77" class="st8" width="726.71" height="1.27"/>
		<rect x="332.3" y="310.42" class="st8" width="1.99" height="360.13"/>
		<rect x="768.26" y="310.42" class="st8" width="1.99" height="360.13"/>
		<rect x="477.62" y="310.42" class="st8" width="1.99" height="360.13"/>
		<rect x="622.94" y="310.42" class="st8" width="1.99" height="360.13"/>
	</g>
	<rect x="913.58" y="238.79" class="st8" width="1.99" height="433.85"/>
	<rect x="913.58" y="238.79" class="st5" width="1.99" height="1.99"/>
	<rect x="186.99" y="238.79" class="st5" width="1.99" height="1.99"/>
	<rect x="913.58" y="672.45" class="st5" width="1.99" height="1.99"/>
	<rect x="93.54" y="203" class="st5" width="7.95" height="1.99"/>
	<rect x="93.54" y="762.7" class="st5" width="7.95" height="1.99"/>
	<rect x="125.35" y="309.14" class="st21" width="41.75" height="407.18"/>
	<text transform="matrix(1 0 0 1 125.3503 324.4857)"><tspan x="0" y="0" class="st5 st19 st22">周一</tspan><tspan x="0" y="120" class="st5 st19 st22">周三</tspan><tspan x="0" y="240" class="st5 st19 st22">周五</tspan><tspan x="0" y="360" class="st5 st19 st22">周日</tspan></text>
	<g>
		<g>
			<g>
				<line class="st23" x1="335.6" y1="339.34" x2="470.7" y2="339.34"/>
			</g>
			<g>
				<line class="st23" x1="335.6" y1="376.46" x2="830.21" y2="376.46"/>
			</g>
			<g>
				<line class="st23" x1="335.6" y1="412.65" x2="470.7" y2="412.65"/>
			</g>
			<g>
				<line class="st23" x1="335.6" y1="449.91" x2="477.57" y2="449.91"/>
			</g>
			<g>
				<line class="st23" x1="335.6" y1="485.87" x2="470.7" y2="485.87"/>
			</g>
			<g>
				<line class="st23" x1="335.6" y1="522.98" x2="562.3" y2="522.98"/>
			</g>
			<g>
				<line class="st23" x1="335.6" y1="558.8" x2="399.71" y2="558.8"/>
			</g>
			<g>
				<line class="st23" x1="335.6" y1="596.39" x2="656.18" y2="596.39"/>
			</g>
			<g>
				<line class="st23" x1="335.6" y1="633.5" x2="562.3" y2="633.5"/>
			</g>
		</g>
	</g>
	<g>
		<g>
			<g>
				<line class="st24" x1="331.28" y1="376.46" x2="292.49" y2="376.46"/>
			</g>
			<g>
				<line class="st24" x1="331.28" y1="339.34" x2="252.7" y2="339.34"/>
			</g>
			<g>
				<line class="st24" x1="331.28" y1="449.54" x2="292.49" y2="449.54"/>
			</g>
			<g>
				<line class="st24" x1="331.28" y1="412.42" x2="252.7" y2="412.42"/>
			</g>
			<g>
				<line class="st24" x1="331.28" y1="522.85" x2="292.49" y2="522.85"/>
			</g>
			<g>
				<line class="st24" x1="331.28" y1="485.73" x2="252.7" y2="485.73"/>
			</g>
			<g>
				<line class="st24" x1="331.28" y1="596.39" x2="292.49" y2="596.39"/>
			</g>
			<g>
				<line class="st24" x1="331.28" y1="633.5" x2="232.81" y2="633.5"/>
			</g>
			<g>
				<line class="st24" x1="331.28" y1="558.8" x2="252.7" y2="558.8"/>
			</g>
		</g>
	</g>
</g>
</svg>
