<?xml version="1.0" encoding="utf-8"?>
<!-- Generator: Adobe Illustrator 23.0.0, SVG Export Plug-In . SVG Version: 6.00 Build 0)  -->
<svg version="1.1" id="图层_1" xmlns="http://www.w3.org/2000/svg" xmlns:xlink="http://www.w3.org/1999/xlink" x="0px" y="0px"
	 viewBox="0 0 1024 1024" style="enable-background:new 0 0 1024 1024;" xml:space="preserve">
<style type="text/css">
	.st0{fill:#4C7EF1;}
	.st1{fill:#29CB97;}
	.st2{fill:#FEC400;}
	.st3{fill:#B35AF1;}
	.st4{fill:#29C997;}
	.st5{fill:#FFFFFF;}
	.st6{fill:#6B6B6B;}
	.st7{fill:#444444;}
	.st8{opacity:0.1;fill:#FFFFFF;}
	.st9{opacity:0.1;}
	.st10{fill:none;stroke:#F24343;stroke-width:14;stroke-miterlimit:10;}
	.st11{fill:none;stroke:#FFFFFF;stroke-width:14;stroke-miterlimit:10;}
	.st12{fill:none;stroke:#4C7EF1;stroke-width:14;stroke-miterlimit:10;}
	.st13{fill:none;stroke:#FEAB05;stroke-width:14;stroke-miterlimit:10;}
	.st14{fill:none;stroke:#29CB97;stroke-width:8;stroke-miterlimit:10;}
	.st15{fill:none;stroke:#29CB97;stroke-width:16;stroke-miterlimit:10;}
	.st16{fill:none;stroke:#FEC400;stroke-width:16;stroke-miterlimit:10;}
	.st17{fill:none;stroke:#FEAB05;stroke-width:16;stroke-miterlimit:10;}
	.st18{fill:none;stroke:#FEC400;stroke-width:8;stroke-miterlimit:10;}
	.st19{fill:none;stroke:#676767;stroke-width:8;stroke-miterlimit:10;}
	.st20{fill:none;stroke:#FEC400;stroke-width:2;stroke-miterlimit:10;}
	.st21{fill:#E6E6E6;}
	.st22{fill:#74D889;}
	.st23{fill:#FFDC70;}
	.st24{fill:#47ABFC;}
	.st25{fill:none;stroke:#FFFFFF;stroke-miterlimit:10;}
	.st26{fill:#4C7EF1;stroke:#0B0C0E;stroke-miterlimit:10;}
	.st27{fill:#FEC400;stroke:#0B0C0E;stroke-miterlimit:10;}
	.st28{fill:none;stroke:#AAA9A9;stroke-miterlimit:10;}
	.st29{fill:none;stroke:#A5A4A4;stroke-width:2;stroke-miterlimit:10;stroke-dasharray:1.0005,4.002;}
	.st30{fill:none;stroke:#4C7EF1;stroke-width:40;stroke-miterlimit:10;}
	.st31{fill:none;stroke:#FEC400;stroke-width:40;stroke-miterlimit:10;}
	.st32{fill:none;stroke:#676767;stroke-width:20;stroke-miterlimit:10;}
	.st33{fill:none;stroke:#FEC400;stroke-width:20;stroke-miterlimit:10;}
	.st34{fill:none;stroke:#29C997;stroke-width:20;stroke-miterlimit:10;}
	.st35{fill:none;stroke:#FFFFFF;stroke-width:20;stroke-miterlimit:10;}
	.st36{fill:none;stroke:#000000;stroke-miterlimit:10;}
	.st37{fill:none;stroke:#FFFFFF;stroke-width:2;stroke-miterlimit:10;stroke-dasharray:3.941,3.941;}
	.st38{opacity:0.5;fill:none;stroke:#FFFFFF;stroke-width:0.4926;stroke-miterlimit:10;stroke-dasharray:3.941,3.941;}
	.st39{fill:none;stroke:#00B091;stroke-width:4;stroke-miterlimit:10;}
	.st40{fill:none;stroke:#EDBF00;stroke-width:4;stroke-miterlimit:10;}
	.st41{fill:#EDBF00;}
	.st42{fill:#00B091;}
	.st43{opacity:0.8;fill:#00B091;}
	.st44{opacity:0.8;fill:#EDBF00;}
	.st45{opacity:0.8;fill:#D85700;}
	.st46{fill:#4C7EF1;stroke:#4C7EF1;stroke-miterlimit:10;}
	.st47{opacity:0.65;fill:url(#SVGID_1_);}
	.st48{opacity:0.65;fill:url(#SVGID_2_);}
	.st49{opacity:0.65;fill:url(#SVGID_3_);}
	.st50{fill:#292E34;}
	.st51{opacity:0.6;}
	.st52{fill:#334469;}
	.st53{fill:#FEAB05;}
	.st54{opacity:0.4;fill:#0B0C0E;}
	.st55{opacity:0.7;}
	.st56{fill:#F24343;}
	.st57{opacity:0.42;fill:#676767;stroke:#F0F2F8;stroke-miterlimit:10;}
	.st58{fill:none;stroke:#F0F2F8;stroke-width:2;stroke-miterlimit:10;}
	.st59{clip-path:url(#SVGID_5_);}
	.st60{fill:#3B86FF;}
	.st61{opacity:0.36;}
	.st62{opacity:0.74;fill:none;stroke:#FCFCFC;stroke-miterlimit:10;}
	.st63{opacity:0.5;fill:none;stroke:#1E6D74;stroke-miterlimit:10;}
	.st64{opacity:0.85;fill:none;stroke:#FFFFFF;stroke-miterlimit:10;}
	.st65{opacity:0.86;}
	.st66{opacity:0.74;fill:#B35AF1;}
</style>
<g>
	<path class="st21" d="M245.62,451.12h-0.74l0.62,0.91L245.62,451.12z M822.1,677.77h0.75l-0.63-0.89L822.1,677.77z M239.53,436.67
		c0.06,0.06,0.22-0.35,0.22-0.22C239.75,436.45,239.43,436.61,239.53,436.67z"/>
	<path class="st0" d="M527.35,115.27c-236.72,0-428.94,190.64-428.94,425.78s191.96,425.78,428.94,425.78V115.27z"/>
	<path class="st4" d="M528.14,532.63V961.3c229.87-6.32,414.19-195.91,414.19-428.68H528.14L528.14,532.63z"/>
	<path class="st3" d="M524.46,530.52l393.13-188.01C861.5,260.36,772.5,135.54,524.46,113.43V530.52z"/>
	<path class="st0" d="M831.75,536.31c-0.53-44.24-10.53-89-30.81-131.39L527.88,535.26l0.53,1.05H831.75L831.75,536.31z"/>
	<path class="st22" d="M314.07,646.64c13.69,27.91,33.44,53.19,58.98,74.26l134.29-164.83l-0.53-0.53L314.07,646.64z"/>
	<path class="st23" d="M714.57,537.63c-0.26-27.65-6.58-55.56-19.22-81.89L524.98,537.1l0.26,0.79L714.57,537.63z"/>
	<path class="st24" d="M518.14,546.05L412.55,317.76C291.69,377.8,240.34,524.2,297.74,647.96L518.14,546.05z"/>
	<path class="st2" d="M520.77,543.68L357.78,740.64c50.29,30.02,128.23,74.52,265.68,25.02L520.77,543.68z"/>
	<path class="st22" d="M658.75,334.61c-70.57-47.93-164.04-58.46-247.52-19.75l108.49,234.35L658.75,334.61z"/>
	<path class="st2" d="M772.24,558.69c4.74-85.05-33.97-170.89-110.06-222.5L516.82,549.74L772.24,558.69z"/>
	<path class="st3" d="M649.53,780.67c76.1-38.18,131.13-114.81,137.98-206.44l-257.52-19.49L649.53,780.67z"/>
</g>
</svg>
