<?xml version="1.0" encoding="utf-8"?>
<!-- Generator: Adobe Illustrator 23.0.0, SVG Export Plug-In . SVG Version: 6.00 Build 0)  -->
<svg version="1.1" id="图层_1" xmlns="http://www.w3.org/2000/svg" xmlns:xlink="http://www.w3.org/1999/xlink" x="0px" y="0px"
	 viewBox="0 0 1024 1024" style="enable-background:new 0 0 1024 1024;" xml:space="preserve">
<style type="text/css">
	.st0{fill:#4C7EF1;}
	.st1{fill:#29CB97;}
	.st2{fill:#FEC400;}
	.st3{fill:#B35AF1;}
	.st4{fill:#29C997;}
	.st5{fill:#FFFFFF;}
	.st6{fill:#6B6B6B;}
	.st7{fill:#444444;}
	.st8{fill:none;}
	.st9{font-family:'MicrosoftYaHei';}
	.st10{font-size:18.4885px;}
	.st11{opacity:0.1;fill:#FFFFFF;}
	.st12{opacity:0.1;}
	.st13{fill:none;stroke:#F24343;stroke-width:14;stroke-miterlimit:10;}
	.st14{fill:none;stroke:#FFFFFF;stroke-width:14;stroke-miterlimit:10;}
	.st15{fill:none;stroke:#4C7EF1;stroke-width:14;stroke-miterlimit:10;}
	.st16{fill:none;stroke:#FEAB05;stroke-width:14;stroke-miterlimit:10;}
	.st17{fill:#999999;}
	.st18{font-size:36px;}
	.st19{fill:none;stroke:#29CB97;stroke-width:8;stroke-miterlimit:10;}
	.st20{fill:none;stroke:#29CB97;stroke-width:16;stroke-miterlimit:10;}
	.st21{fill:none;stroke:#FEC400;stroke-width:16;stroke-miterlimit:10;}
	.st22{fill:none;stroke:#FEAB05;stroke-width:16;stroke-miterlimit:10;}
	.st23{fill:none;stroke:#FEC400;stroke-width:8;stroke-miterlimit:10;}
	.st24{fill:none;stroke:#676767;stroke-width:8;stroke-miterlimit:10;}
	.st25{fill:none;stroke:#FEC400;stroke-width:2;stroke-miterlimit:10;}
	.st26{fill:#E6E6E6;}
	.st27{fill:#74D889;}
	.st28{fill:#FFDC70;}
	.st29{fill:#47ABFC;}
	.st30{fill:none;stroke:#FFFFFF;stroke-miterlimit:10;}
	.st31{fill:#4C7EF1;stroke:#0B0C0E;stroke-miterlimit:10;}
	.st32{fill:#FEC400;stroke:#0B0C0E;stroke-miterlimit:10;}
	.st33{fill:none;stroke:#AAA9A9;stroke-miterlimit:10;}
	.st34{fill:none;stroke:#A5A4A4;stroke-width:2;stroke-miterlimit:10;stroke-dasharray:1.0005,4.002;}
	.st35{fill:none;stroke:#4C7EF1;stroke-width:40;stroke-miterlimit:10;}
	.st36{fill:none;stroke:#FEC400;stroke-width:40;stroke-miterlimit:10;}
	.st37{fill:none;stroke:#676767;stroke-width:20;stroke-miterlimit:10;}
	.st38{fill:none;stroke:#FEC400;stroke-width:20;stroke-miterlimit:10;}
	.st39{fill:none;stroke:#29C997;stroke-width:20;stroke-miterlimit:10;}
	.st40{fill:none;stroke:#FFFFFF;stroke-width:20;stroke-miterlimit:10;}
	.st41{fill:none;stroke:#000000;stroke-miterlimit:10;}
	.st42{fill:none;stroke:#FFFFFF;stroke-width:2;stroke-miterlimit:10;stroke-dasharray:3.941,3.941;}
	.st43{opacity:0.5;fill:none;stroke:#FFFFFF;stroke-width:0.4926;stroke-miterlimit:10;stroke-dasharray:3.941,3.941;}
	.st44{fill:none;stroke:#00B091;stroke-width:4;stroke-miterlimit:10;}
	.st45{fill:none;stroke:#EDBF00;stroke-width:4;stroke-miterlimit:10;}
	.st46{fill:#EDBF00;}
	.st47{fill:#00B091;}
	.st48{opacity:0.8;fill:#00B091;}
	.st49{opacity:0.8;fill:#EDBF00;}
	.st50{opacity:0.8;fill:#D85700;}
	.st51{fill:#4C7EF1;stroke:#4C7EF1;stroke-miterlimit:10;}
	.st52{opacity:0.65;fill:url(#SVGID_1_);}
	.st53{opacity:0.65;fill:url(#SVGID_2_);}
	.st54{opacity:0.65;fill:url(#SVGID_3_);}
	.st55{fill:#292E34;}
	.st56{opacity:0.6;}
	.st57{fill:#334469;}
	.st58{fill:#FEAB05;}
	.st59{opacity:0.4;fill:#0B0C0E;}
	.st60{opacity:0.7;}
	.st61{fill:#F24343;}
	.st62{opacity:0.42;fill:#676767;stroke:#F0F2F8;stroke-miterlimit:10;}
	.st63{fill:none;stroke:#F0F2F8;stroke-width:2;stroke-miterlimit:10;}
	.st64{clip-path:url(#SVGID_5_);}
	.st65{fill:#3B86FF;}
	.st66{opacity:0.36;}
	.st67{opacity:0.74;fill:none;stroke:#FCFCFC;stroke-miterlimit:10;}
	.st68{opacity:0.5;fill:none;stroke:#1E6D74;stroke-miterlimit:10;}
	.st69{opacity:0.85;fill:none;stroke:#FFFFFF;stroke-miterlimit:10;}
	.st70{opacity:0.86;}
	.st71{opacity:0.74;fill:#B35AF1;}
</style>
<g>
	<g>
		<rect x="597.36" y="210.54" class="st5" width="6.16" height="6.16"/>
		<rect x="603.52" y="212.59" class="st6" width="294.79" height="2.05"/>
		<rect x="898.2" y="210.54" class="st5" width="6.16" height="6.16"/>
	</g>
	<g>
		
			<rect x="52.97" y="210.54" transform="matrix(4.870042e-11 1 -1 4.870042e-11 265.566 157.5626)" class="st5" width="2.05" height="2.05"/>
		
			<rect x="52.97" y="732.32" transform="matrix(4.870042e-11 1 -1 4.870042e-11 787.3527 679.3493)" class="st5" width="2.05" height="2.05"/>
		
			<rect x="-205.92" y="471.49" transform="matrix(6.930793e-11 1 -1 6.930793e-11 526.5165 418.5132)" class="st7" width="519.85" height="2.05"/>
	</g>
	<g>
		
			<rect x="942.48" y="210.54" transform="matrix(4.870042e-11 1 -1 4.870042e-11 1155.0685 -731.9399)" class="st5" width="2.05" height="2.05"/>
		
			<rect x="942.48" y="732.32" transform="matrix(4.870042e-11 1 -1 4.870042e-11 1676.8551 -210.1532)" class="st5" width="2.05" height="2.05"/>
		
			<rect x="683.58" y="471.49" transform="matrix(6.932747e-11 1 -1 6.932747e-11 1416.0189 -470.9893)" class="st7" width="519.85" height="2.05"/>
	</g>
	<g>
		<rect x="96.11" y="259.84" class="st6" width="802.2" height="2.05"/>
		
			<rect x="67.35" y="235.19" transform="matrix(5.937899e-11 1 -1 5.937899e-11 329.2486 143.1827)" class="st6" width="51.36" height="2.05"/>
		<rect x="898.2" y="257.79" class="st5" width="6.16" height="6.16"/>
		<rect x="89.95" y="257.79" class="st5" width="6.16" height="6.16"/>
		<rect x="89.95" y="210.54" class="st5" width="6.16" height="6.16"/>
	</g>
	<g>
		<rect x="89.95" y="309.14" class="st8" width="34.92" height="408.8"/>
		<text transform="matrix(1 0 0 1 92.3485 324.9945)"><tspan x="0" y="0" class="st5 st9 st10">500</tspan><tspan x="0" y="82.17" class="st5 st9 st10">400</tspan><tspan x="0" y="164.34" class="st5 st9 st10">300</tspan><tspan x="0" y="246.51" class="st5 st9 st10">200</tspan><tspan x="0" y="328.68" class="st5 st9 st10">100</tspan><tspan x="21.68" y="369.77" class="st5 st9 st10">0</tspan></text>
	</g>
	<rect x="131.04" y="315.31" class="st11" width="2.05" height="369.77"/>
	<rect x="132.06" y="683.02" class="st11" width="770.26" height="2.05"/>
	<rect x="131.04" y="683.02" class="st5" width="2.05" height="2.05"/>
	<rect x="133.09" y="315.31" class="st11" width="769.33" height="2.05"/>
	<g class="st12">
		<rect x="133.09" y="642.96" class="st5" width="771.38" height="2.05"/>
		<rect x="133.09" y="601.88" class="st5" width="771.38" height="2.05"/>
		<rect x="133.09" y="560.79" class="st5" width="771.38" height="2.05"/>
		<rect x="133.09" y="519.71" class="st5" width="771.38" height="2.05"/>
		<rect x="133.09" y="478.62" class="st5" width="771.38" height="2.05"/>
		<rect x="133.09" y="437.53" class="st5" width="771.38" height="2.05"/>
		<rect x="133.09" y="396.45" class="st5" width="771.38" height="2.05"/>
		<rect x="133.09" y="355.36" class="st5" width="771.38" height="2.05"/>
	</g>
	<rect x="455.78" y="317.36" class="st11" width="2.05" height="365.66"/>
	<rect x="171.63" y="317.36" class="st11" width="2.05" height="365.66"/>
	<rect x="212.22" y="317.36" class="st11" width="2.05" height="365.66"/>
	<rect x="252.82" y="317.36" class="st11" width="2.05" height="365.66"/>
	<rect x="293.41" y="317.36" class="st11" width="2.05" height="365.66"/>
	<rect x="334" y="317.36" class="st11" width="2.05" height="365.66"/>
	<rect x="374.6" y="317.36" class="st11" width="2.05" height="365.66"/>
	<rect x="415.19" y="317.36" class="st11" width="2.05" height="365.66"/>
	<rect x="780.53" y="317.36" class="st11" width="2.05" height="365.66"/>
	<rect x="496.37" y="317.36" class="st11" width="2.05" height="365.66"/>
	<rect x="536.97" y="317.36" class="st11" width="2.05" height="365.66"/>
	<rect x="577.56" y="317.36" class="st11" width="2.05" height="365.66"/>
	<rect x="618.15" y="317.36" class="st11" width="2.05" height="365.66"/>
	<rect x="658.75" y="317.36" class="st11" width="2.05" height="365.66"/>
	<rect x="699.34" y="317.36" class="st11" width="2.05" height="365.66"/>
	<rect x="739.93" y="317.36" class="st11" width="2.05" height="365.66"/>
	<rect x="821.12" y="317.36" class="st11" width="2.05" height="365.66"/>
	<rect x="861.71" y="317.36" class="st11" width="2.05" height="365.66"/>
	<rect x="902.3" y="317.36" class="st11" width="2.05" height="365.66"/>
	<rect x="902.3" y="315.31" class="st5" width="2.05" height="2.05"/>
	<rect x="131.04" y="315.31" class="st5" width="2.05" height="2.05"/>
	<rect x="902.3" y="683.02" class="st5" width="2.05" height="2.05"/>
	<rect x="55.03" y="278.33" class="st5" width="8.22" height="2.05"/>
	<rect x="55.03" y="684.05" class="st5" width="8.22" height="2.05"/>
	<g>
		<line class="st13" x1="169.04" y1="684.05" x2="169.04" y2="561.82"/>
		<line class="st14" x1="169.04" y1="560.81" x2="169.04" y2="530.81"/>
		<line class="st15" x1="218.34" y1="684.05" x2="218.34" y2="477.59"/>
		<g>
			<g>
				<g>
					<line class="st16" x1="193.69" y1="684.05" x2="193.69" y2="630.64"/>
				</g>
				<g>
					<line class="st16" x1="193.69" y1="630.64" x2="193.69" y2="607.01"/>
				</g>
				<g>
					<line class="st16" x1="193.69" y1="608.04" x2="193.69" y2="538.19"/>
				</g>
			</g>
		</g>
	</g>
	<g>
		<path class="st13" d="M322.41,684.05v-204.4V684.05z"/>
		<path class="st14" d="M322.41,540.04v-60V540.04z"/>
		<line class="st15" x1="371.71" y1="684.05" x2="371.71" y2="584.42"/>
		<g>
			<line class="st16" x1="347.06" y1="684.05" x2="347.06" y2="630.64"/>
			<line class="st16" x1="347.06" y1="630.64" x2="347.06" y2="607.01"/>
			<line class="st16" x1="347.06" y1="608.04" x2="347.06" y2="456.02"/>
		</g>
	</g>
	<g>
		<line class="st13" x1="476.08" y1="684.05" x2="476.08" y2="479.65"/>
		<line class="st14" x1="476.08" y1="532.76" x2="476.08" y2="472.76"/>
		<line class="st15" x1="525.39" y1="684.05" x2="525.39" y2="395.42"/>
		<g>
			<line class="st16" x1="500.73" y1="684.05" x2="500.73" y2="630.64"/>
			<line class="st16" x1="500.73" y1="630.64" x2="500.73" y2="607.01"/>
			<line class="st16" x1="500.73" y1="608.04" x2="500.73" y2="456.02"/>
		</g>
	</g>
	<g>
		<path class="st13" d="M634.83,684.05v-204.4V684.05z"/>
		<path class="st14" d="M634.83,563.54v-100V563.54z"/>
		<line class="st15" x1="684.13" y1="684.05" x2="684.13" y2="584.42"/>
		<g>
			<line class="st16" x1="659.48" y1="684.05" x2="659.48" y2="548.47"/>
			<line class="st16" x1="659.48" y1="548.47" x2="659.48" y2="442.67"/>
			<line class="st16" x1="659.48" y1="443.7" x2="659.48" y2="406.72"/>
		</g>
	</g>
	<g>
		<line class="st13" x1="811.12" y1="682.57" x2="811.12" y2="582.94"/>
		<line class="st14" x1="811.12" y1="583.12" x2="811.12" y2="563.12"/>
		<line class="st15" x1="860.42" y1="682.57" x2="860.42" y2="582.94"/>
		<g>
			<line class="st16" x1="835.77" y1="682.57" x2="835.77" y2="629.16"/>
			<line class="st16" x1="835.77" y1="629.16" x2="835.77" y2="605.53"/>
			<line class="st16" x1="835.77" y1="606.56" x2="835.77" y2="454.55"/>
		</g>
	</g>
	<g>
		<text transform="matrix(1 0 0 1 166.0822 752.7545)" class="st17 st9 st18">A1</text>
		<text transform="matrix(1 0 0 1 324.3207 752.7545)" class="st17 st9 st18">A2</text>
		<text transform="matrix(1 0 0 1 482.5592 752.7545)" class="st17 st9 st18">A3</text>
		<text transform="matrix(1 0 0 1 640.7982 752.7549)" class="st17 st9 st18">A4</text>
		<text transform="matrix(1 0 0 1 702.3392 752.7545)" class="st17 st9 st18">           A6</text>
	</g>
</g>
</svg>
