<?xml version="1.0" encoding="utf-8"?>
<!-- Generator: Adobe Illustrator 23.0.0, SVG Export Plug-In . SVG Version: 6.00 Build 0)  -->
<svg version="1.1" id="图层_1" xmlns="http://www.w3.org/2000/svg" xmlns:xlink="http://www.w3.org/1999/xlink" x="0px" y="0px"
	 viewBox="0 0 1024 1024" style="enable-background:new 0 0 1024 1024;" xml:space="preserve">
<style type="text/css">
	.st0{fill:#4C7EF1;}
	.st1{fill:#29CB97;}
	.st2{fill:#FEC400;}
	.st3{fill:#B35AF1;}
	.st4{fill:#29C997;}
	.st5{fill:#FFFFFF;}
	.st6{fill:#6B6B6B;}
	.st7{fill:#444444;}
	.st8{opacity:0.1;fill:#FFFFFF;}
	.st9{opacity:0.1;}
	.st10{fill:none;stroke:#F24343;stroke-width:14;stroke-miterlimit:10;}
	.st11{fill:none;stroke:#FFFFFF;stroke-width:14;stroke-miterlimit:10;}
	.st12{fill:none;stroke:#4C7EF1;stroke-width:14;stroke-miterlimit:10;}
	.st13{fill:none;stroke:#FEAB05;stroke-width:14;stroke-miterlimit:10;}
	.st14{fill:none;stroke:#29CB97;stroke-width:8;stroke-miterlimit:10;}
	.st15{fill:none;stroke:#29CB97;stroke-width:16;stroke-miterlimit:10;}
	.st16{fill:none;stroke:#FEC400;stroke-width:16;stroke-miterlimit:10;}
	.st17{fill:none;stroke:#FEAB05;stroke-width:16;stroke-miterlimit:10;}
	.st18{fill:none;stroke:#FEC400;stroke-width:8;stroke-miterlimit:10;}
	.st19{fill:none;stroke:#676767;stroke-width:8;stroke-miterlimit:10;}
	.st20{fill:none;stroke:#FEC400;stroke-width:2;stroke-miterlimit:10;}
	.st21{fill:#E6E6E6;}
	.st22{fill:#74D889;}
	.st23{fill:#FFDC70;}
	.st24{fill:#47ABFC;}
	.st25{fill:none;stroke:#FFFFFF;stroke-miterlimit:10;}
	.st26{fill:#4C7EF1;stroke:#0B0C0E;stroke-miterlimit:10;}
	.st27{fill:#FEC400;stroke:#0B0C0E;stroke-miterlimit:10;}
	.st28{fill:none;stroke:#AAA9A9;stroke-miterlimit:10;}
	.st29{fill:none;stroke:#A5A4A4;stroke-width:2;stroke-miterlimit:10;stroke-dasharray:1.0005,4.002;}
	.st30{fill:none;stroke:#4C7EF1;stroke-width:40;stroke-miterlimit:10;}
	.st31{fill:none;stroke:#FEC400;stroke-width:40;stroke-miterlimit:10;}
	.st32{fill:none;stroke:#676767;stroke-width:20;stroke-miterlimit:10;}
	.st33{fill:none;stroke:#FEC400;stroke-width:20;stroke-miterlimit:10;}
	.st34{fill:none;stroke:#29C997;stroke-width:20;stroke-miterlimit:10;}
	.st35{fill:none;stroke:#FFFFFF;stroke-width:20;stroke-miterlimit:10;}
	.st36{fill:none;stroke:#000000;stroke-miterlimit:10;}
	.st37{fill:none;stroke:#FFFFFF;stroke-width:2;stroke-miterlimit:10;stroke-dasharray:3.941,3.941;}
	.st38{opacity:0.5;fill:none;stroke:#FFFFFF;stroke-width:0.4926;stroke-miterlimit:10;stroke-dasharray:3.941,3.941;}
	.st39{fill:none;stroke:#00B091;stroke-width:4;stroke-miterlimit:10;}
	.st40{fill:none;stroke:#EDBF00;stroke-width:4;stroke-miterlimit:10;}
	.st41{fill:#EDBF00;}
	.st42{fill:#00B091;}
	.st43{opacity:0.8;fill:#00B091;}
	.st44{opacity:0.8;fill:#EDBF00;}
	.st45{opacity:0.8;fill:#D85700;}
	.st46{fill:#4C7EF1;stroke:#4C7EF1;stroke-miterlimit:10;}
	.st47{opacity:0.65;fill:url(#SVGID_1_);}
	.st48{opacity:0.65;fill:url(#SVGID_2_);}
	.st49{opacity:0.65;fill:url(#SVGID_3_);}
	.st50{fill:#292E34;}
	.st51{opacity:0.6;}
	.st52{fill:#334469;}
	.st53{fill:#FEAB05;}
	.st54{opacity:0.4;fill:#0B0C0E;}
	.st55{opacity:0.7;}
	.st56{fill:#F24343;}
	.st57{opacity:0.42;fill:#676767;stroke:#F0F2F8;stroke-miterlimit:10;}
	.st58{fill:none;stroke:#F0F2F8;stroke-width:2;stroke-miterlimit:10;}
	.st59{clip-path:url(#SVGID_5_);}
	.st60{fill:#3B86FF;}
	.st61{opacity:0.36;}
	.st62{opacity:0.74;fill:none;stroke:#FCFCFC;stroke-miterlimit:10;}
	.st63{opacity:0.5;fill:none;stroke:#1E6D74;stroke-miterlimit:10;}
	.st64{opacity:0.85;fill:none;stroke:#FFFFFF;stroke-miterlimit:10;}
	.st65{opacity:0.86;}
	.st66{opacity:0.74;fill:#B35AF1;}
</style>
<g>
	<rect x="91.08" y="733.78" class="st8" width="837.75" height="1"/>
	<rect x="91.08" y="579.86" class="st8" width="837.75" height="1"/>
	<rect x="91.08" y="434.04" class="st8" width="837.75" height="1"/>
	<g>
		<rect x="607.57" y="272.75" class="st5" width="6.01" height="6.01"/>
		<rect x="613.57" y="274.75" class="st6" width="287.33" height="2"/>
		<rect x="900.79" y="272.75" class="st5" width="6.01" height="6.01"/>
	</g>
	<g>
		
			<rect x="76.96" y="272.75" transform="matrix(4.996429e-11 1 -1 4.996429e-11 351.7045 195.7897)" class="st5" width="2" height="2"/>
		
			<rect x="76.96" y="781.33" transform="matrix(4.996429e-11 1 -1 4.996429e-11 860.2894 704.3745)" class="st5" width="2" height="2"/>
		
			<rect x="-175.39" y="527.09" transform="matrix(6.931415e-11 1 -1 6.931415e-11 606.0527 450.1378)" class="st7" width="506.69" height="2"/>
	</g>
	<g>
		
			<rect x="943.95" y="272.75" transform="matrix(5.087290e-11 1 -1 5.087290e-11 1218.7015 -671.2073)" class="st5" width="2" height="2"/>
		
			<rect x="943.95" y="781.33" transform="matrix(5.087290e-11 1 -1 5.087290e-11 1727.2864 -162.6225)" class="st5" width="2" height="2"/>
		
			<rect x="691.61" y="527.09" transform="matrix(6.931415e-11 1 -1 6.931415e-11 1473.0497 -416.8592)" class="st7" width="506.69" height="2"/>
	</g>
	<g>
		<rect x="119" y="320.8" class="st6" width="781.9" height="2"/>
		
			<rect x="90.97" y="296.77" transform="matrix(5.932126e-11 1 -1 5.932126e-11 413.7759 181.7735)" class="st6" width="50.06" height="2"/>
		<rect x="900.79" y="318.8" class="st5" width="6.01" height="6.01"/>
		<rect x="113" y="318.8" class="st5" width="6.01" height="6.01"/>
		<rect x="113" y="272.75" class="st5" width="6.01" height="6.01"/>
	</g>
	<rect x="78.96" y="338.82" class="st5" width="8.01" height="2"/>
	<rect x="78.96" y="734.28" class="st5" width="8.01" height="2"/>
	<g class="st55">
		<polygon class="st5" points="511.04,652.41 531.51,717.41 551.99,652.41 552.52,651.99 510.5,651.99 		"/>
		<polygon class="st1" points="324.86,452.63 738.16,452.63 738.53,452.21 863.66,386.23 199.36,386.23 324.49,452.21 		"/>
		<polygon class="st0" points="738.01,452.8 325.01,452.8 383.38,519.02 679.65,519.02 		"/>
		<polygon class="st5" points="797.03,452.8 797.15,452.8 797.32,452.63 797.2,452.63 		"/>
		<polygon class="st5" points="738.16,452.63 324.86,452.63 325.01,452.8 738.01,452.8 		"/>
		<polygon class="st53" points="426.21,585.42 636.81,585.42 679.38,519.32 679.49,519.2 383.53,519.2 383.64,519.32 		"/>
		<polygon class="st5" points="679.65,519.02 383.38,519.02 383.53,519.2 679.49,519.2 		"/>
		<polygon class="st5" points="730.57,519.2 730.82,519.2 730.99,519.02 730.74,519.02 		"/>
		<polygon class="st56" points="636.7,585.59 426.32,585.59 426.86,586.43 510.5,651.99 552.52,651.99 636.16,586.43 		"/>
		<polygon class="st5" points="426.32,585.59 636.7,585.59 636.81,585.42 426.21,585.42 		"/>
		<polygon class="st5" points="664.12,585.59 664.49,585.59 664.66,585.42 664.29,585.42 		"/>
	</g>
</g>
</svg>
