<?xml version="1.0" encoding="utf-8"?>
<!-- Generator: Adobe Illustrator 23.0.0, SVG Export Plug-In . SVG Version: 6.00 Build 0)  -->
<svg version="1.1" id="图层_1" xmlns="http://www.w3.org/2000/svg" xmlns:xlink="http://www.w3.org/1999/xlink" x="0px" y="0px"
	 viewBox="0 0 114 65" style="enable-background:new 0 0 114 65;" xml:space="preserve">
<style type="text/css">
	.st0{fill:#4C7EF1;}
	.st1{fill:#29CB97;}
	.st2{fill:#FEC400;}
	.st3{fill:#B35AF1;}
	.st4{fill:#29C997;}
	.st5{fill:#FFFFFF;}
	.st6{fill:#6B6B6B;}
	.st7{fill:#444444;}
	.st8{opacity:0.1;fill:#FFFFFF;}
	.st9{opacity:0.1;}
	.st10{fill:none;stroke:#F24343;stroke-width:14;stroke-miterlimit:10;}
	.st11{fill:none;stroke:#FFFFFF;stroke-width:14;stroke-miterlimit:10;}
	.st12{fill:none;stroke:#4C7EF1;stroke-width:14;stroke-miterlimit:10;}
	.st13{fill:none;stroke:#FEAB05;stroke-width:14;stroke-miterlimit:10;}
	.st14{fill:none;stroke:#29CB97;stroke-width:8;stroke-miterlimit:10;}
	.st15{fill:none;stroke:#29CB97;stroke-width:16;stroke-miterlimit:10;}
	.st16{fill:none;stroke:#FEC400;stroke-width:16;stroke-miterlimit:10;}
	.st17{fill:none;stroke:#FEAB05;stroke-width:16;stroke-miterlimit:10;}
	.st18{fill:none;stroke:#FEC400;stroke-width:8;stroke-miterlimit:10;}
	.st19{fill:none;stroke:#676767;stroke-width:8;stroke-miterlimit:10;}
	.st20{fill:none;stroke:#FEC400;stroke-width:2;stroke-miterlimit:10;}
	.st21{fill:#E6E6E6;}
	.st22{fill:#74D889;}
	.st23{fill:#FFDC70;}
	.st24{fill:#47ABFC;}
	.st25{fill:none;stroke:#FFFFFF;stroke-miterlimit:10;}
	.st26{fill:#4C7EF1;stroke:#0B0C0E;stroke-miterlimit:10;}
	.st27{fill:#FEC400;stroke:#0B0C0E;stroke-miterlimit:10;}
	.st28{fill:none;stroke:#AAA9A9;stroke-miterlimit:10;}
	.st29{fill:none;stroke:#A5A4A4;stroke-width:2;stroke-miterlimit:10;stroke-dasharray:1.0005,4.002;}
	.st30{fill:none;stroke:#4C7EF1;stroke-width:40;stroke-miterlimit:10;}
	.st31{fill:none;stroke:#FEC400;stroke-width:40;stroke-miterlimit:10;}
	.st32{fill:none;stroke:#676767;stroke-width:20;stroke-miterlimit:10;}
	.st33{fill:none;stroke:#FEC400;stroke-width:20;stroke-miterlimit:10;}
	.st34{fill:none;stroke:#29C997;stroke-width:20;stroke-miterlimit:10;}
	.st35{fill:none;stroke:#FFFFFF;stroke-width:20;stroke-miterlimit:10;}
	.st36{fill:none;stroke:#000000;stroke-miterlimit:10;}
	.st37{fill:none;stroke:#FFFFFF;stroke-width:2;stroke-miterlimit:10;stroke-dasharray:3.941,3.941;}
	.st38{opacity:0.5;fill:none;stroke:#FFFFFF;stroke-width:0.4926;stroke-miterlimit:10;stroke-dasharray:3.941,3.941;}
	.st39{fill:none;stroke:#00B091;stroke-width:4;stroke-miterlimit:10;}
	.st40{fill:none;stroke:#EDBF00;stroke-width:4;stroke-miterlimit:10;}
	.st41{fill:#EDBF00;}
	.st42{fill:#00B091;}
	.st43{opacity:0.8;fill:#00B091;}
	.st44{opacity:0.8;fill:#EDBF00;}
	.st45{opacity:0.8;fill:#D85700;}
	.st46{fill:#4C7EF1;stroke:#4C7EF1;stroke-miterlimit:10;}
	.st47{opacity:0.65;fill:url(#SVGID_1_);}
	.st48{opacity:0.65;fill:url(#SVGID_2_);}
	.st49{opacity:0.65;fill:url(#SVGID_3_);}
	.st50{fill:#292E34;}
	.st51{opacity:0.6;}
	.st52{fill:#334469;}
	.st53{fill:#FEAB05;}
	.st54{opacity:0.4;fill:#0B0C0E;}
	.st55{opacity:0.7;}
	.st56{fill:#F24343;}
	.st57{opacity:0.42;fill:#676767;stroke:#F0F2F8;stroke-miterlimit:10;}
	.st58{fill:none;stroke:#F0F2F8;stroke-width:2;stroke-miterlimit:10;}
	.st59{clip-path:url(#SVGID_5_);}
	.st60{fill:#3B86FF;}
	.st61{opacity:0.36;}
	.st62{fill:#4170ED;}
	.st63{fill:#999999;}
	.st64{opacity:0.15;}
	.st65{clip-path:url(#SVGID_7_);}
	.st66{fill:#1CCC96;}
	.st67{opacity:0.43;}
	.st68{clip-path:url(#SVGID_9_);}
	.st69{fill:#30C3E9;}
	.st70{clip-path:url(#SVGID_11_);}
	.st71{fill:#BCEAEC;}
	.st72{opacity:0.14;}
	.st73{clip-path:url(#SVGID_13_);}
	.st74{fill:#FBC400;}
	.st75{fill:#1F1F1F;}
	.st76{fill:none;stroke:url(#SVGID_14_);stroke-width:0.15;stroke-miterlimit:10;}
	.st77{fill:none;stroke:#00B091;stroke-width:0.15;stroke-miterlimit:10;}
	.st78{fill:none;stroke:url(#SVGID_15_);stroke-width:0.15;stroke-miterlimit:10;}
	.st79{fill:none;stroke:url(#SVGID_16_);stroke-width:0.15;stroke-miterlimit:10;}
	.st80{fill:none;stroke:url(#SVGID_17_);stroke-width:0.15;stroke-miterlimit:10;}
	.st81{fill:none;stroke:url(#SVGID_18_);stroke-width:0.15;stroke-miterlimit:10;}
	.st82{opacity:0.5;fill:#4170ED;}
	.st83{fill:#666666;}
	.st84{fill:none;stroke:#4170ED;stroke-width:0.5;stroke-miterlimit:10;}
	.st85{fill:none;stroke:url(#SVGID_19_);stroke-width:0.5;stroke-miterlimit:10;stroke-dasharray:0.9965,0.9965;}
	.st86{opacity:0.4;}
	.st87{fill:url(#SVGID_20_);stroke:url(#SVGID_21_);stroke-width:0.5;stroke-miterlimit:10;}
	.st88{fill:none;stroke:url(#SVGID_22_);stroke-width:0.5;stroke-miterlimit:10;}
	.st89{fill:url(#SVGID_23_);stroke:url(#SVGID_24_);stroke-width:0.5;stroke-miterlimit:10;}
	.st90{fill:none;stroke:url(#SVGID_25_);stroke-width:0.5;stroke-miterlimit:10;stroke-dasharray:0.9965,0.9965;}
	.st91{fill:url(#SVGID_26_);}
	.st92{fill:none;stroke:url(#SVGID_27_);stroke-width:0.5;stroke-miterlimit:10;stroke-dasharray:0.994,0.994;}
	.st93{fill:none;stroke:url(#SVGID_28_);stroke-width:0.5;stroke-miterlimit:10;}
	.st94{fill:none;stroke:url(#SVGID_29_);stroke-width:0.5;stroke-miterlimit:10;}
	.st95{fill:none;stroke:url(#SVGID_30_);stroke-width:0.5;stroke-miterlimit:10;}
	.st96{fill:url(#SVGID_31_);stroke:url(#SVGID_32_);stroke-width:0.5;stroke-miterlimit:10;}
	.st97{fill:#3885E9;}
	.st98{opacity:0.33;}
	.st99{fill:none;stroke:#999999;stroke-miterlimit:10;}
	.st100{fill:none;stroke:#4170ED;stroke-miterlimit:10;}
	.st101{fill:none;stroke:url(#SVGID_33_);stroke-width:0.5;stroke-miterlimit:10;}
	.st102{fill:url(#SVGID_34_);}
	.st103{opacity:0.3;fill:none;stroke:#4170ED;stroke-miterlimit:10;}
	.st104{opacity:0.87;fill:none;stroke:url(#SVGID_35_);stroke-miterlimit:10;}
	.st105{opacity:0.53;fill:#FFFFFF;}
	.st106{clip-path:url(#SVGID_37_);fill:#BFBFBF;}
	.st107{fill:#BFBFBF;}
	.st108{clip-path:url(#SVGID_39_);fill:#BFBFBF;}
	.st109{clip-path:url(#SVGID_41_);fill:#BFBFBF;}
	.st110{clip-path:url(#SVGID_43_);fill:#BFBFBF;}
	.st111{clip-path:url(#SVGID_45_);fill:#BFBFBF;}
	.st112{clip-path:url(#SVGID_47_);fill:#BFBFBF;}
	.st113{clip-path:url(#SVGID_49_);fill:#BFBFBF;}
	.st114{fill:none;}
	.st115{fill:#1B3E60;}
	.st116{fill:#31446D;stroke:#4170ED;stroke-width:0.5;stroke-miterlimit:10;}
	.st117{opacity:0.31;fill:#EDBF00;}
	.st118{opacity:0.31;fill:#00B091;}
	.st119{fill:#31446D;stroke:#4C7EF1;stroke-width:0.5;stroke-miterlimit:10;}
	.st120{fill:url(#SVGID_50_);}
	.st121{fill:url(#SVGID_51_);stroke:url(#SVGID_52_);stroke-width:0.5;stroke-miterlimit:10;}
	.st122{fill:url(#SVGID_53_);}
	.st123{clip-path:url(#SVGID_55_);fill:#BFBFBF;}
	.st124{clip-path:url(#SVGID_57_);fill:#BFBFBF;}
	.st125{clip-path:url(#SVGID_59_);fill:#BFBFBF;}
	.st126{clip-path:url(#SVGID_61_);fill:#BFBFBF;}
	.st127{clip-path:url(#SVGID_63_);fill:#BFBFBF;}
	.st128{clip-path:url(#SVGID_65_);fill:#BFBFBF;}
	.st129{fill:url(#XMLID_638_);}
	.st130{fill:none;stroke:#4C7EF1;stroke-width:0.25;stroke-miterlimit:10;}
	.st131{opacity:0.5;fill:#4C7EF1;}
	.st132{fill:url(#SVGID_66_);}
	.st133{fill:url(#SVGID_67_);}
	.st134{fill:url(#SVGID_68_);}
	.st135{fill:url(#SVGID_69_);}
	.st136{fill:url(#SVGID_70_);}
	.st137{font-family:'MicrosoftYaHei';}
	.st138{font-size:1.351px;}
	.st139{font-size:2.8417px;}
</style>
<g>
	<g>
		<rect x="23.29" y="19.33" class="st114" width="2.55" height="29.87"/>
		<text transform="matrix(1 0 0 1 23.4633 20.4847)"><tspan x="0" y="0" class="st5 st137 st138">500</tspan><tspan x="0" y="6" class="st5 st137 st138">400</tspan><tspan x="0" y="12.01" class="st5 st137 st138">300</tspan><tspan x="0" y="18.01" class="st5 st137 st138">200</tspan><tspan x="0" y="24.02" class="st5 st137 st138">100</tspan><tspan x="1.58" y="27.02" class="st5 st137 st138">0</tspan></text>
	</g>
	<g>
		<rect x="36.55" y="11.33" class="st5" width="0.47" height="0.47"/>
		<rect x="37.03" y="11.49" class="st6" width="50.13" height="0.16"/>
		<rect x="87.15" y="11.33" class="st5" width="0.47" height="0.47"/>
	</g>
	<g>
		
			<rect x="90.55" y="11.33" transform="matrix(4.608029e-11 1 -1 4.608029e-11 102.0424 -79.223)" class="st5" width="0.16" height="0.16"/>
		
			<rect x="90.55" y="51.44" transform="matrix(4.608029e-11 1 -1 4.608029e-11 142.1483 -39.1171)" class="st5" width="0.16" height="0.16"/>
		
			<rect x="70.65" y="31.39" transform="matrix(6.926441e-11 1 -1 6.926441e-11 122.0997 -59.1656)" class="st7" width="39.96" height="0.16"/>
	</g>
	<g>
		<rect x="25.5" y="15.12" class="st6" width="61.66" height="0.16"/>
		
			<rect x="23.29" y="13.23" transform="matrix(5.944382e-11 1 -1 5.944382e-11 38.5676 -11.9587)" class="st6" width="3.95" height="0.16"/>
		<rect x="87.15" y="14.96" class="st5" width="0.47" height="0.47"/>
		<rect x="25.03" y="14.96" class="st5" width="0.47" height="0.47"/>
		<rect x="25.03" y="11.33" class="st5" width="0.47" height="0.47"/>
	</g>
	<g>
		<text transform="matrix(1 0 0 1 32.8254 52.9437)" class="st63 st137 st139">A1</text>
		<text transform="matrix(1 0 0 1 42.1066 52.9437)" class="st63 st137 st139">A2</text>
		<text transform="matrix(1 0 0 1 52.2897 52.9437)" class="st63 st137 st139">A3</text>
		<text transform="matrix(1 0 0 1 61.1398 52.9437)" class="st63 st137 st139">A4</text>
		<text transform="matrix(1 0 0 1 70.1877 52.9437)" class="st63 st137 st139">A5</text>
		<text transform="matrix(1 0 0 1 79.7057 52.9437)" class="st63 st137 st139">A6</text>
	</g>
	<rect x="28.18" y="19.38" class="st8" width="0.16" height="28.05"/>
	<rect x="28.34" y="47.28" class="st8" width="59.13" height="0.16"/>
	<rect x="28.18" y="47.28" class="st5" width="0.16" height="0.16"/>
	<rect x="28.34" y="19.38" class="st8" width="59.13" height="0.16"/>
	<g class="st9">
		<rect x="28.34" y="44.24" class="st5" width="59.29" height="0.16"/>
		<rect x="28.34" y="41.12" class="st5" width="59.29" height="0.16"/>
		<rect x="28.34" y="34.89" class="st5" width="59.29" height="0.16"/>
		<rect x="28.34" y="37.98" class="st5" width="59.29" height="0.16"/>
		<rect x="28.34" y="31.77" class="st5" width="59.29" height="0.16"/>
		<rect x="28.34" y="28.66" class="st5" width="59.29" height="0.16"/>
		<rect x="28.34" y="25.54" class="st5" width="59.29" height="0.16"/>
		<rect x="28.34" y="22.42" class="st5" width="59.29" height="0.16"/>
	</g>
	<rect x="53.14" y="19.54" class="st8" width="0.16" height="27.74"/>
	<rect x="31.3" y="19.54" class="st8" width="0.16" height="27.74"/>
	<rect x="34.42" y="19.54" class="st8" width="0.16" height="27.74"/>
	<rect x="37.54" y="19.54" class="st8" width="0.16" height="27.74"/>
	<rect x="40.66" y="19.54" class="st8" width="0.16" height="27.74"/>
	<rect x="43.78" y="19.54" class="st8" width="0.16" height="27.74"/>
	<rect x="46.9" y="19.54" class="st8" width="0.16" height="27.74"/>
	<rect x="50.02" y="19.54" class="st8" width="0.16" height="27.74"/>
	<rect x="78.11" y="19.54" class="st8" width="0.16" height="27.74"/>
	<rect x="56.27" y="19.54" class="st8" width="0.16" height="27.74"/>
	<rect x="59.39" y="19.54" class="st8" width="0.16" height="27.74"/>
	<rect x="62.51" y="19.54" class="st8" width="0.16" height="27.74"/>
	<rect x="65.63" y="19.54" class="st8" width="0.16" height="27.74"/>
	<rect x="68.75" y="19.54" class="st8" width="0.16" height="27.74"/>
	<rect x="71.87" y="19.54" class="st8" width="0.16" height="27.74"/>
	<rect x="74.99" y="19.54" class="st8" width="0.16" height="27.74"/>
	<rect x="81.23" y="19.54" class="st8" width="0.16" height="27.74"/>
	<rect x="84.35" y="19.54" class="st8" width="0.16" height="27.74"/>
	<rect x="87.47" y="19.54" class="st8" width="0.16" height="27.74"/>
	<rect x="87.47" y="19.38" class="st5" width="0.16" height="0.16"/>
	<rect x="28.18" y="19.38" class="st5" width="0.16" height="0.16"/>
	<rect x="87.47" y="47.28" class="st5" width="0.16" height="0.16"/>
	<g>
		<g>
			<g>
				<g>
					<g>
						<g>
							<rect x="60.78" y="27.51" class="st0" width="2.4" height="19.78"/>
						</g>
					</g>
				</g>
			</g>
			<g>
				<g>
					<g>
						<g>
							<rect x="42.4" y="37.87" class="st0" width="2.4" height="9.43"/>
						</g>
					</g>
				</g>
			</g>
			<g>
				<g>
					<g>
						<g>
							<rect x="52.61" y="31.6" class="st0" width="2.4" height="15.69"/>
						</g>
					</g>
				</g>
			</g>
			<g>
				<g>
					<g>
						<g>
							<rect x="33.38" y="39.43" class="st0" width="2.4" height="7.86"/>
						</g>
					</g>
				</g>
			</g>
			<g>
				<g>
					<g>
						<g>
							<rect x="70.15" y="32.06" class="st0" width="2.4" height="15.23"/>
						</g>
					</g>
				</g>
			</g>
			<g>
				<g>
					<g>
						<g>
							<rect x="80.11" y="37.73" class="st0" width="2.4" height="9.56"/>
						</g>
					</g>
				</g>
			</g>
		</g>
	</g>
	<path class="st20" d="M34.26,39.38l4.31,0.07l4.31-1.72l4.31-3.3l4.31-2.58l4.31-2.05l4.31-2.44l4.31-0.86l4.31,2.11l4.31,3.3
		l4.31,2.91l4.31,2.84"/>
	<path class="st2" d="M34.95,39.75h-0.73c-0.11,0-0.2-0.09-0.2-0.2v-0.73c0-0.11,0.09-0.2,0.2-0.2h0.73c0.11,0,0.2,0.09,0.2,0.2
		v0.73C35.15,39.66,35.06,39.75,34.95,39.75z"/>
	<path class="st2" d="M44.05,37.57h-0.73c-0.11,0-0.2-0.09-0.2-0.2v-0.73c0-0.11,0.09-0.2,0.2-0.2h0.73c0.11,0,0.2,0.09,0.2,0.2
		v0.73C44.25,37.48,44.16,37.57,44.05,37.57z"/>
	<path class="st2" d="M54.17,31.5h-0.73c-0.11,0-0.2-0.09-0.2-0.2v-0.73c0-0.11,0.09-0.2,0.2-0.2h0.73c0.11,0,0.2,0.09,0.2,0.2v0.73
		C54.37,31.41,54.28,31.5,54.17,31.5z"/>
	<path class="st2" d="M62.35,27.63h-0.73c-0.11,0-0.2-0.09-0.2-0.2V26.7c0-0.11,0.09-0.2,0.2-0.2h0.73c0.11,0,0.2,0.09,0.2,0.2v0.73
		C62.55,27.54,62.46,27.63,62.35,27.63z"/>
	<path class="st2" d="M71.71,30.94h-0.73c-0.11,0-0.2-0.09-0.2-0.2v-0.73c0-0.11,0.09-0.2,0.2-0.2h0.73c0.11,0,0.2,0.09,0.2,0.2
		v0.73C71.91,30.85,71.82,30.94,71.71,30.94z"/>
	<path class="st2" d="M81.75,38.3h-0.73c-0.11,0-0.2-0.09-0.2-0.2v-0.73c0-0.11,0.09-0.2,0.2-0.2h0.73c0.11,0,0.2,0.09,0.2,0.2v0.73
		C81.95,38.21,81.86,38.3,81.75,38.3z"/>
</g>
</svg>
