<?xml version="1.0" encoding="utf-8"?>
<!-- Generator: Adobe Illustrator 23.0.0, SVG Export Plug-In . SVG Version: 6.00 Build 0)  -->
<svg version="1.1" id="图层_1" xmlns="http://www.w3.org/2000/svg" xmlns:xlink="http://www.w3.org/1999/xlink" x="0px" y="0px"
	 viewBox="0 0 1024 1024" style="enable-background:new 0 0 1024 1024;" xml:space="preserve">
<style type="text/css">
	.st0{fill:#4C7EF1;}
	.st1{fill:#29CB97;}
	.st2{fill:#FEC400;}
	.st3{fill:#B35AF1;}
	.st4{fill:#29C997;}
	.st5{fill:#FFFFFF;}
	.st6{fill:#6B6B6B;}
	.st7{fill:#444444;}
	.st8{opacity:0.1;fill:#FFFFFF;}
	.st9{opacity:0.1;}
	.st10{fill:none;stroke:#F24343;stroke-width:14;stroke-miterlimit:10;}
	.st11{fill:none;stroke:#FFFFFF;stroke-width:14;stroke-miterlimit:10;}
	.st12{fill:none;stroke:#4C7EF1;stroke-width:14;stroke-miterlimit:10;}
	.st13{fill:none;stroke:#FEAB05;stroke-width:14;stroke-miterlimit:10;}
	.st14{fill:none;stroke:#29CB97;stroke-width:8;stroke-miterlimit:10;}
	.st15{fill:none;stroke:#29CB97;stroke-width:16;stroke-miterlimit:10;}
	.st16{fill:none;stroke:#FEC400;stroke-width:16;stroke-miterlimit:10;}
	.st17{fill:none;stroke:#FEAB05;stroke-width:16;stroke-miterlimit:10;}
	.st18{fill:none;stroke:#FEC400;stroke-width:8;stroke-miterlimit:10;}
	.st19{fill:none;stroke:#676767;stroke-width:8;stroke-miterlimit:10;}
	.st20{fill:none;stroke:#FEC400;stroke-width:2;stroke-miterlimit:10;}
	.st21{fill:#E6E6E6;}
	.st22{fill:#74D889;}
	.st23{fill:#FFDC70;}
	.st24{fill:#47ABFC;}
	.st25{fill:none;stroke:#FFFFFF;stroke-miterlimit:10;}
	.st26{fill:#4C7EF1;stroke:#0B0C0E;stroke-miterlimit:10;}
	.st27{fill:#FEC400;stroke:#0B0C0E;stroke-miterlimit:10;}
	.st28{fill:none;stroke:#AAA9A9;stroke-miterlimit:10;}
	.st29{fill:none;stroke:#A5A4A4;stroke-width:2;stroke-miterlimit:10;stroke-dasharray:1.0005,4.002;}
	.st30{fill:none;stroke:#4C7EF1;stroke-width:40;stroke-miterlimit:10;}
	.st31{fill:none;stroke:#FEC400;stroke-width:40;stroke-miterlimit:10;}
	.st32{fill:none;stroke:#676767;stroke-width:20;stroke-miterlimit:10;}
	.st33{fill:none;stroke:#FEC400;stroke-width:20;stroke-miterlimit:10;}
	.st34{fill:none;stroke:#29C997;stroke-width:20;stroke-miterlimit:10;}
	.st35{fill:none;stroke:#FFFFFF;stroke-width:20;stroke-miterlimit:10;}
	.st36{fill:none;stroke:#000000;stroke-miterlimit:10;}
	.st37{fill:none;stroke:#FFFFFF;stroke-width:2;stroke-miterlimit:10;stroke-dasharray:3.941,3.941;}
	.st38{opacity:0.5;fill:none;stroke:#FFFFFF;stroke-width:0.4926;stroke-miterlimit:10;stroke-dasharray:3.941,3.941;}
	.st39{fill:none;stroke:#00B091;stroke-width:4;stroke-miterlimit:10;}
	.st40{fill:none;stroke:#EDBF00;stroke-width:4;stroke-miterlimit:10;}
	.st41{fill:#EDBF00;}
	.st42{fill:#00B091;}
	.st43{opacity:0.8;fill:#00B091;}
	.st44{opacity:0.8;fill:#EDBF00;}
	.st45{opacity:0.8;fill:#D85700;}
	.st46{fill:#4C7EF1;stroke:#4C7EF1;stroke-miterlimit:10;}
	.st47{opacity:0.65;fill:url(#SVGID_1_);}
	.st48{opacity:0.65;fill:url(#SVGID_2_);}
	.st49{opacity:0.65;fill:url(#SVGID_3_);}
	.st50{fill:#292E34;}
	.st51{opacity:0.6;}
	.st52{fill:#334469;}
	.st53{fill:#FEAB05;}
	.st54{opacity:0.4;fill:#0B0C0E;}
	.st55{opacity:0.7;}
	.st56{fill:#F24343;}
	.st57{opacity:0.42;fill:#676767;stroke:#F0F2F8;stroke-miterlimit:10;}
	.st58{fill:none;stroke:#F0F2F8;stroke-width:2;stroke-miterlimit:10;}
	.st59{clip-path:url(#SVGID_5_);}
	.st60{fill:#3B86FF;}
	.st61{opacity:0.36;}
	.st62{opacity:0.74;fill:none;stroke:#FCFCFC;stroke-miterlimit:10;}
	.st63{opacity:0.5;fill:none;stroke:#1E6D74;stroke-miterlimit:10;}
	.st64{opacity:0.85;fill:none;stroke:#FFFFFF;stroke-miterlimit:10;}
	.st65{opacity:0.86;}
	.st66{opacity:0.74;fill:#B35AF1;}
</style>
<g>
	<circle class="st25" cx="530.5" cy="489.74" r="412.56"/>
	<path class="st26" d="M422.03,677.6l-81.79,141.67c55.98,32.39,120.92,51.02,190.25,51.02v-163.6
		C490.97,706.69,453.95,696.07,422.03,677.6z"/>
	<path class="st26" d="M530.5,706.69v163.6c69.33,0,134.27-18.63,190.25-51.02L638.96,677.6
		C607.04,696.07,570.02,706.69,530.5,706.69z"/>
	<path class="st26" d="M747.45,489.74c0,39.52-10.62,76.55-29.09,108.46l141.66,81.79c32.39-55.98,51.02-120.92,51.02-190.25H747.45
		z"/>
	<path class="st26" d="M313.55,489.74h-163.6c0,69.33,18.63,134.27,51.02,190.25l141.66-81.79
		C324.17,566.29,313.55,529.26,313.55,489.74z"/>
	<path class="st26" d="M718.36,381.28l141.66-81.79c-33.41-57.74-81.53-105.86-139.27-139.27l-81.79,141.67
		C671.88,320.93,699.31,348.36,718.36,381.28z"/>
	<path class="st26" d="M422.03,301.88l-81.79-141.67c-57.74,33.41-105.86,81.53-139.27,139.27l141.66,81.79
		C361.68,348.36,389.11,320.93,422.03,301.88z"/>
	<path class="st27" d="M500.29,542.06L422.03,677.6c31.92,18.47,68.94,29.09,108.46,29.09V550.2
		C519.48,550.2,509.18,547.21,500.29,542.06z"/>
	<g>
		<g>
			<path class="st27" d="M478.18,519.95L342.63,598.2c19.05,32.92,46.48,60.35,79.4,79.4l78.25-135.54
				C491.12,536.75,483.48,529.12,478.18,519.95z"/>
			<path class="st27" d="M530.5,550.2v156.49c39.52,0,76.55-10.62,108.46-29.09L560.7,542.06
				C551.81,547.21,541.51,550.2,530.5,550.2z"/>
			<path class="st27" d="M470.03,489.74H313.55c0,39.52,10.62,76.55,29.09,108.46l135.54-78.25
				C473.03,511.05,470.03,500.76,470.03,489.74z"/>
			<path class="st27" d="M560.7,437.42l78.25-135.54c-31.92-18.47-68.94-29.09-108.46-29.09v156.49
				C541.51,429.28,551.81,432.27,560.7,437.42z"/>
			<path class="st27" d="M582.82,519.95l135.54,78.25c18.47-31.92,29.09-68.94,29.09-108.46H590.96
				C590.96,500.76,587.96,511.05,582.82,519.95z"/>
			<path class="st27" d="M582.82,459.53l135.54-78.25c-19.05-32.92-46.48-60.35-79.4-79.4L560.7,437.42
				C569.87,442.73,577.51,450.36,582.82,459.53z"/>
			<path class="st27" d="M478.18,459.53l-135.54-78.25c-18.47,31.92-29.09,68.94-29.09,108.46h156.49
				C470.03,478.72,473.03,468.43,478.18,459.53z"/>
			<path class="st27" d="M500.29,437.42l-78.25-135.54c-32.92,19.05-60.35,46.48-79.4,79.4l135.54,78.25
				C483.48,450.36,491.12,442.73,500.29,437.42z"/>
		</g>
	</g>
	<g>
		<g>
			<path class="st26" d="M638.96,301.88l48.01-83.15c-46.04-26.64-99.45-41.96-156.47-41.96v96.03
				C570.02,272.79,607.04,283.41,638.96,301.88z"/>
		</g>
	</g>
	<path class="st26" d="M342.63,381.28l-107.79-62.23c-29.06,50.23-45.78,108.49-45.78,170.69h124.48
		C313.55,450.22,324.17,413.19,342.63,381.28z"/>
</g>
</svg>
