<?xml version="1.0" encoding="utf-8"?>
<!-- Generator: Adobe Illustrator 23.0.0, SVG Export Plug-In . SVG Version: 6.00 Build 0)  -->
<svg version="1.1" id="图层_1" xmlns="http://www.w3.org/2000/svg" xmlns:xlink="http://www.w3.org/1999/xlink" x="0px" y="0px"
	 viewBox="0 0 1024 1024" style="enable-background:new 0 0 1024 1024;" xml:space="preserve">
<style type="text/css">
	.st0{fill:#4C7EF1;}
	.st1{fill:#29CB97;}
	.st2{fill:#FEC400;}
	.st3{fill:#B35AF1;}
	.st4{fill:#29C997;}
	.st5{fill:#FFFFFF;}
	.st6{fill:#6B6B6B;}
	.st7{fill:#444444;}
	.st8{opacity:0.1;fill:#FFFFFF;}
	.st9{opacity:0.1;}
	.st10{fill:none;stroke:#F24343;stroke-width:14;stroke-miterlimit:10;}
	.st11{fill:none;stroke:#FFFFFF;stroke-width:14;stroke-miterlimit:10;}
	.st12{fill:none;stroke:#4C7EF1;stroke-width:14;stroke-miterlimit:10;}
	.st13{fill:none;stroke:#FEAB05;stroke-width:14;stroke-miterlimit:10;}
	.st14{fill:none;stroke:#29CB97;stroke-width:8;stroke-miterlimit:10;}
	.st15{fill:none;stroke:#29CB97;stroke-width:16;stroke-miterlimit:10;}
	.st16{fill:none;stroke:#FEC400;stroke-width:16;stroke-miterlimit:10;}
	.st17{fill:none;stroke:#FEAB05;stroke-width:16;stroke-miterlimit:10;}
	.st18{fill:none;stroke:#FEC400;stroke-width:8;stroke-miterlimit:10;}
	.st19{fill:none;stroke:#676767;stroke-width:8;stroke-miterlimit:10;}
	.st20{fill:none;stroke:#FEC400;stroke-width:2;stroke-miterlimit:10;}
	.st21{fill:#E6E6E6;}
	.st22{fill:#74D889;}
	.st23{fill:#FFDC70;}
	.st24{fill:#47ABFC;}
	.st25{fill:none;stroke:#FFFFFF;stroke-miterlimit:10;}
	.st26{fill:#4C7EF1;stroke:#0B0C0E;stroke-miterlimit:10;}
	.st27{fill:#FEC400;stroke:#0B0C0E;stroke-miterlimit:10;}
	.st28{fill:none;stroke:#AAA9A9;stroke-miterlimit:10;}
	.st29{fill:none;stroke:#A5A4A4;stroke-width:2;stroke-miterlimit:10;stroke-dasharray:1.0005,4.002;}
	.st30{fill:none;stroke:#4C7EF1;stroke-width:40;stroke-miterlimit:10;}
	.st31{fill:none;stroke:#FEC400;stroke-width:40;stroke-miterlimit:10;}
	.st32{fill:none;stroke:#676767;stroke-width:20;stroke-miterlimit:10;}
	.st33{fill:none;stroke:#FEC400;stroke-width:20;stroke-miterlimit:10;}
	.st34{fill:none;stroke:#29C997;stroke-width:20;stroke-miterlimit:10;}
	.st35{fill:none;stroke:#FFFFFF;stroke-width:20;stroke-miterlimit:10;}
	.st36{fill:none;stroke:#000000;stroke-miterlimit:10;}
	.st37{fill:none;}
	.st38{font-family:'MicrosoftYaHei';}
	.st39{font-size:17.1143px;}
	.st40{fill:#999999;}
	.st41{font-size:36px;}
	.st42{fill:none;stroke:#FFFFFF;stroke-width:2;stroke-miterlimit:10;stroke-dasharray:3.941,3.941;}
	.st43{opacity:0.5;fill:none;stroke:#FFFFFF;stroke-width:0.4926;stroke-miterlimit:10;stroke-dasharray:3.941,3.941;}
	.st44{fill:none;stroke:#00B091;stroke-width:4;stroke-miterlimit:10;}
	.st45{fill:none;stroke:#EDBF00;stroke-width:4;stroke-miterlimit:10;}
	.st46{fill:#EDBF00;}
	.st47{fill:#00B091;}
	.st48{opacity:0.8;fill:#00B091;}
	.st49{opacity:0.8;fill:#EDBF00;}
	.st50{opacity:0.8;fill:#D85700;}
	.st51{fill:#4C7EF1;stroke:#4C7EF1;stroke-miterlimit:10;}
	.st52{opacity:0.65;fill:url(#SVGID_1_);}
	.st53{opacity:0.65;fill:url(#SVGID_2_);}
	.st54{opacity:0.65;fill:url(#SVGID_3_);}
	.st55{fill:#292E34;}
	.st56{opacity:0.6;}
	.st57{fill:#334469;}
	.st58{fill:#FEAB05;}
	.st59{opacity:0.4;fill:#0B0C0E;}
	.st60{opacity:0.7;}
	.st61{fill:#F24343;}
	.st62{opacity:0.42;fill:#676767;stroke:#F0F2F8;stroke-miterlimit:10;}
	.st63{fill:none;stroke:#F0F2F8;stroke-width:2;stroke-miterlimit:10;}
	.st64{clip-path:url(#SVGID_5_);}
	.st65{fill:#3B86FF;}
	.st66{opacity:0.36;}
	.st67{opacity:0.74;fill:none;stroke:#FCFCFC;stroke-miterlimit:10;}
	.st68{opacity:0.5;fill:none;stroke:#1E6D74;stroke-miterlimit:10;}
	.st69{opacity:0.85;fill:none;stroke:#FFFFFF;stroke-miterlimit:10;}
	.st70{opacity:0.86;}
	.st71{opacity:0.74;fill:#B35AF1;}
</style>
<g>
	<rect x="74.53" y="357.41" class="st37" width="32.33" height="378.42"/>
	<text transform="matrix(1 0 0 1 76.7512 372.0841)"><tspan x="0" y="0" class="st5 st38 st39">500</tspan><tspan x="0" y="76.06" class="st5 st38 st39">400</tspan><tspan x="0" y="152.13" class="st5 st38 st39">300</tspan><tspan x="0" y="228.19" class="st5 st38 st39">200</tspan><tspan x="0" y="304.25" class="st5 st38 st39">100</tspan><tspan x="20.07" y="342.29" class="st5 st38 st39">0</tspan></text>
</g>
<g>
	<rect x="242.57" y="256.13" class="st5" width="6" height="6"/>
	<rect x="248.57" y="258.13" class="st6" width="635.09" height="2"/>
	<rect x="883.55" y="256.13" class="st5" width="6" height="6"/>
</g>
<g>
	
		<rect x="926.67" y="256.13" transform="matrix(5.001492e-11 1 -1 5.001492e-11 1184.8066 -670.5377)" class="st5" width="2" height="2"/>
	
		<rect x="926.67" y="764.21" transform="matrix(5.001492e-11 1 -1 5.001492e-11 1692.8824 -162.4619)" class="st5" width="2" height="2"/>
	
		<rect x="674.58" y="510.23" transform="matrix(6.930261e-11 1 -1 6.930261e-11 1438.9003 -416.4441)" class="st7" width="506.19" height="2"/>
</g>
<g>
	<rect x="102.55" y="304.14" class="st6" width="781.12" height="2"/>
	
		<rect x="74.54" y="280.14" transform="matrix(5.939942e-11 1 -1 5.939942e-11 380.6866 181.5895)" class="st6" width="50.01" height="2"/>
	<rect x="883.55" y="302.14" class="st5" width="6" height="6"/>
	<rect x="96.55" y="302.14" class="st5" width="6" height="6"/>
	<rect x="96.55" y="256.13" class="st5" width="6" height="6"/>
</g>
<g>
	<text transform="matrix(1 0 0 1 195.345 783.2773)" class="st40 st38 st41">A1</text>
	<text transform="matrix(1 0 0 1 312.9241 783.2773)" class="st40 st38 st41">A2</text>
	<text transform="matrix(1 0 0 1 441.9333 783.2773)" class="st40 st38 st41">A3</text>
	<text transform="matrix(1 0 0 1 554.0432 783.2773)" class="st40 st38 st41">A4</text>
	<text transform="matrix(1 0 0 1 668.6614 783.2773)" class="st40 st38 st41">A5</text>
	<text transform="matrix(1 0 0 1 789.241 783.2773)" class="st40 st38 st41">A6</text>
</g>
<g>
	<rect x="136.55" y="358.15" class="st8" width="2" height="355.34"/>
	<rect x="138.55" y="711.51" class="st8" width="749.02" height="1.97"/>
	<rect x="136.55" y="711.51" class="st5" width="2" height="1.97"/>
	<rect x="138.55" y="358.15" class="st8" width="749.11" height="1.97"/>
	<rect x="452.76" y="360.12" class="st8" width="2" height="351.39"/>
	<rect x="176.08" y="360.12" class="st8" width="2" height="351.39"/>
	<rect x="215.61" y="360.12" class="st8" width="2" height="351.39"/>
	<rect x="255.13" y="360.12" class="st8" width="2" height="351.39"/>
	<rect x="294.66" y="360.12" class="st8" width="2" height="351.39"/>
	<rect x="334.19" y="360.12" class="st8" width="2" height="351.39"/>
	<rect x="373.71" y="360.12" class="st8" width="2" height="351.39"/>
	<rect x="413.24" y="360.12" class="st8" width="2" height="351.39"/>
	<rect x="768.98" y="360.12" class="st8" width="2" height="351.39"/>
	<rect x="492.29" y="360.12" class="st8" width="2" height="351.39"/>
	<rect x="531.82" y="360.12" class="st8" width="2" height="351.39"/>
	<rect x="571.34" y="360.12" class="st8" width="2" height="351.39"/>
	<rect x="610.87" y="360.12" class="st8" width="2" height="351.39"/>
	<rect x="650.4" y="360.12" class="st8" width="2" height="351.39"/>
	<rect x="689.92" y="360.12" class="st8" width="2" height="351.39"/>
	<rect x="729.45" y="360.12" class="st8" width="2" height="351.39"/>
	<rect x="808.5" y="360.12" class="st8" width="2" height="351.39"/>
	<rect x="848.03" y="360.12" class="st8" width="2" height="351.39"/>
	<rect x="887.55" y="360.12" class="st8" width="2" height="351.39"/>
	<rect x="887.55" y="358.15" class="st5" width="2" height="1.97"/>
	<rect x="136.55" y="358.15" class="st5" width="2" height="1.97"/>
	<rect x="887.55" y="711.51" class="st5" width="2" height="1.97"/>
</g>
<g>
	<line id="XMLID_6_" class="st42" x1="138.55" y1="512.94" x2="884.07" y2="512.94"/>
	<line id="XMLID_5_" class="st43" x1="138.55" y1="442.27" x2="884.07" y2="442.27"/>
	<line id="XMLID_4_" class="st42" x1="138.55" y1="566.6" x2="884.07" y2="566.6"/>
	<line id="XMLID_3_" class="st43" x1="138.55" y1="620.25" x2="884.07" y2="620.25"/>
	<line id="XMLID_2_" class="st43" x1="138.55" y1="673.91" x2="884.07" y2="673.91"/>
</g>
<g transform="translate(67,71) scale(1 1)">
	<g>
		<path class="st44" d="M96.1,591.16l62.9,1.31l62.9-34.09l62.9-65.55l62.9-51.13l62.9-40.64l62.9-48.51l62.9-17.04l62.9,41.95
			l62.9,65.55l62.9,57.68l62.9,56.37"/>
	</g>
</g>
<g transform="translate(67,71) scale(1 1)">
	<g>
		<path class="st45" d="M96.1,631.8l62.9-3.93l62.9-19.67l62.9-36.71l62.9-44.57l62.9-43.26l62.9-23.6l62.9,5.24l62.9,31.46
			l62.9,51.13l62.9,48.51l62.9,23.6"/>
	</g>
</g>
<path class="st46" d="M164.17,706.72h-2.15c-1.38,0-2.5-1.12-2.5-2.5v-2.83c0-1.38,1.12-2.5,2.5-2.5h2.15c1.38,0,2.5,1.12,2.5,2.5
	l0,2.83C166.67,705.6,165.55,706.72,164.17,706.72z"/>
<path class="st47" d="M164.17,666.08h-2.15c-1.38,0-2.5-1.12-2.5-2.5v-2.83c0-1.38,1.12-2.5,2.5-2.5h2.15c1.38,0,2.5,1.12,2.5,2.5
	v2.83C166.67,664.96,165.55,666.08,164.17,666.08z"/>
<path class="st47" d="M227.14,667.39H225c-1.38,0-2.5-1.12-2.5-2.5v-2.83c0-1.38,1.12-2.5,2.5-2.5h2.15c1.38,0,2.5,1.12,2.5,2.5
	v2.83C229.64,666.27,228.52,667.39,227.14,667.39z"/>
<path class="st47" d="M290.11,632.92h-2.15c-1.38,0-2.5-1.12-2.5-2.5v-2.83c0-1.38,1.12-2.5,2.5-2.5h2.15c1.38,0,2.5,1.12,2.5,2.5
	v2.83C292.61,631.8,291.49,632.92,290.11,632.92z"/>
<path class="st47" d="M353.08,567.63h-2.15c-1.38,0-2.5-1.12-2.5-2.5v-2.83c0-1.38,1.12-2.5,2.5-2.5h2.15c1.38,0,2.5,1.12,2.5,2.5
	v2.83C355.58,566.51,354.46,567.63,353.08,567.63z"/>
<path class="st47" d="M416.77,516.03h-2.15c-1.38,0-2.5-1.12-2.5-2.5v-2.83c0-1.38,1.12-2.5,2.5-2.5h2.15c1.38,0,2.5,1.12,2.5,2.5
	v2.83C419.27,514.91,418.15,516.03,416.77,516.03z"/>
<path class="st47" d="M479.02,474.85h-2.15c-1.38,0-2.5-1.12-2.5-2.5v-2.83c0-1.38,1.12-2.5,2.5-2.5h2.15c1.38,0,2.5,1.12,2.5,2.5
	v2.83C481.52,473.73,480.4,474.85,479.02,474.85z"/>
<path class="st47" d="M541.99,427.85h-2.15c-1.38,0-2.5-1.12-2.5-2.5v-2.83c0-1.38,1.12-2.5,2.5-2.5h2.15c1.38,0,2.5,1.12,2.5,2.5
	v2.83C544.49,426.73,543.37,427.85,541.99,427.85z"/>
<path class="st47" d="M604.96,410.43h-2.15c-1.38,0-2.5-1.12-2.5-2.5v-2.83c0-1.38,1.12-2.5,2.5-2.5h2.15c1.38,0,2.5,1.12,2.5,2.5
	v2.83C607.46,409.31,606.34,410.43,604.96,410.43z"/>
<path class="st47" d="M667.93,453.08h-2.15c-1.38,0-2.5-1.12-2.5-2.5v-2.83c0-1.38,1.12-2.5,2.5-2.5h2.15c1.38,0,2.5,1.12,2.5,2.5
	v2.83C670.43,451.96,669.31,453.08,667.93,453.08z"/>
<path class="st47" d="M730.9,518.34h-2.15c-1.38,0-2.5-1.12-2.5-2.5v-2.83c0-1.38,1.12-2.5,2.5-2.5h2.15c1.38,0,2.5,1.12,2.5,2.5
	v2.83C733.4,517.22,732.28,518.34,730.9,518.34z"/>
<path class="st47" d="M791.23,574.61h-2.15c-1.38,0-2.5-1.12-2.5-2.5v-2.83c0-1.38,1.12-2.5,2.5-2.5h2.15c1.38,0,2.5,1.12,2.5,2.5
	v2.83C793.73,573.5,792.61,574.61,791.23,574.61z"/>
<path class="st47" d="M856.11,632.14h-2.15c-1.38,0-2.5-1.12-2.5-2.5v-2.83c0-1.38,1.12-2.5,2.5-2.5h2.15c1.38,0,2.5,1.12,2.5,2.5
	v2.83C858.61,631.02,857.49,632.14,856.11,632.14z"/>
<path class="st46" d="M227.14,702.8H225c-1.38,0-2.5-1.12-2.5-2.5v-2.83c0-1.38,1.12-2.5,2.5-2.5h2.15c1.38,0,2.5,1.12,2.5,2.5v2.83
	C229.64,701.69,228.52,702.8,227.14,702.8z"/>
<path class="st46" d="M290.11,682.67h-2.15c-1.38,0-2.5-1.12-2.5-2.5v-2.83c0-1.38,1.12-2.5,2.5-2.5h2.15c1.38,0,2.5,1.12,2.5,2.5
	v2.83C292.61,681.55,291.49,682.67,290.11,682.67z"/>
<path class="st46" d="M353.08,646.05h-2.15c-1.38,0-2.5-1.12-2.5-2.5v-2.83c0-1.38,1.12-2.5,2.5-2.5h2.15c1.38,0,2.5,1.12,2.5,2.5
	v2.83C355.58,644.93,354.46,646.05,353.08,646.05z"/>
<path class="st46" d="M416.05,601.26h-2.15c-1.38,0-2.5-1.12-2.5-2.5v-2.83c0-1.38,1.12-2.5,2.5-2.5h2.15c1.38,0,2.5,1.12,2.5,2.5
	v2.83C418.55,600.14,417.43,601.26,416.05,601.26z"/>
<path class="st46" d="M479.02,558.58h-2.15c-1.38,0-2.5-1.12-2.5-2.5v-2.83c0-1.38,1.12-2.5,2.5-2.5h2.15c1.38,0,2.5,1.12,2.5,2.5
	v2.83C481.52,557.46,480.4,558.58,479.02,558.58z"/>
<path class="st46" d="M541.99,535.22h-2.15c-1.38,0-2.5-1.12-2.5-2.5v-2.83c0-1.38,1.12-2.5,2.5-2.5h2.15c1.38,0,2.5,1.12,2.5,2.5
	v2.83C544.49,534.1,543.37,535.22,541.99,535.22z"/>
<path class="st46" d="M604.96,540.48h-2.15c-1.38,0-2.5-1.12-2.5-2.5v-2.83c0-1.38,1.12-2.5,2.5-2.5h2.15c1.38,0,2.5,1.12,2.5,2.5
	v2.83C607.46,539.36,606.34,540.48,604.96,540.48z"/>
<path class="st46" d="M667.93,572.26h-2.15c-1.38,0-2.5-1.12-2.5-2.5v-2.83c0-1.38,1.12-2.5,2.5-2.5h2.15c1.38,0,2.5,1.12,2.5,2.5
	v2.83C670.43,571.15,669.31,572.26,667.93,572.26z"/>
<path class="st46" d="M730.9,623.04h-2.15c-1.38,0-2.5-1.12-2.5-2.5v-2.83c0-1.38,1.12-2.5,2.5-2.5h2.15c1.38,0,2.5,1.12,2.5,2.5
	v2.83C733.4,621.93,732.28,623.04,730.9,623.04z"/>
<path class="st46" d="M791.23,670.24h-2.15c-1.38,0-2.5-1.12-2.5-2.5v-2.83c0-1.38,1.12-2.5,2.5-2.5h2.15c1.38,0,2.5,1.12,2.5,2.5
	v2.83C793.73,669.12,792.61,670.24,791.23,670.24z"/>
<path class="st46" d="M856.11,695.43h-2.15c-1.38,0-2.5-1.12-2.5-2.5v-2.83c0-1.38,1.12-2.5,2.5-2.5h2.15c1.38,0,2.5,1.12,2.5,2.5
	v2.83C858.61,694.31,857.49,695.43,856.11,695.43z"/>
</svg>
