<?xml version="1.0" encoding="utf-8"?>
<!-- Generator: Adobe Illustrator 23.0.0, SVG Export Plug-In . SVG Version: 6.00 Build 0)  -->
<svg version="1.1" id="图层_1" xmlns="http://www.w3.org/2000/svg" xmlns:xlink="http://www.w3.org/1999/xlink" x="0px" y="0px"
	 viewBox="0 0 114 65" style="enable-background:new 0 0 114 65;" xml:space="preserve">
<style type="text/css">
	.st0{fill:#4C7EF1;}
	.st1{fill:#29CB97;}
	.st2{fill:#FEC400;}
	.st3{fill:#29C997;}
	.st4{fill:#B35AF1;}
	.st5{fill:#FFFFFF;}
	.st6{fill:#6B6B6B;}
	.st7{fill:#444444;}
	.st8{opacity:0.1;fill:#FFFFFF;}
	.st9{opacity:0.1;}
	.st10{fill:none;stroke:#F24343;stroke-width:14;stroke-miterlimit:10;}
	.st11{fill:none;stroke:#FFFFFF;stroke-width:14;stroke-miterlimit:10;}
	.st12{fill:none;stroke:#4C7EF1;stroke-width:14;stroke-miterlimit:10;}
	.st13{fill:none;stroke:#FEAB05;stroke-width:14;stroke-miterlimit:10;}
	.st14{fill:none;stroke:#29CB97;stroke-width:8;stroke-miterlimit:10;}
	.st15{fill:none;stroke:#29CB97;stroke-width:16;stroke-miterlimit:10;}
	.st16{fill:none;stroke:#FEC400;stroke-width:16;stroke-miterlimit:10;}
	.st17{fill:none;stroke:#FEAB05;stroke-width:16;stroke-miterlimit:10;}
	.st18{fill:none;stroke:#FEC400;stroke-width:8;stroke-miterlimit:10;}
	.st19{fill:none;stroke:#676767;stroke-width:8;stroke-miterlimit:10;}
	.st20{fill:none;stroke:#FEC400;stroke-width:2;stroke-miterlimit:10;}
	.st21{fill:#E6E6E6;}
	.st22{fill:#74D889;}
	.st23{fill:#FFDC70;}
	.st24{fill:#47ABFC;}
	.st25{fill:none;stroke:#FFFFFF;stroke-miterlimit:10;}
	.st26{fill:#4C7EF1;stroke:#0B0C0E;stroke-miterlimit:10;}
	.st27{fill:#FEC400;stroke:#0B0C0E;stroke-miterlimit:10;}
	.st28{fill:none;stroke:#AAA9A9;stroke-miterlimit:10;}
	.st29{fill:none;stroke:#A5A4A4;stroke-width:2;stroke-miterlimit:10;stroke-dasharray:1.0005,4.002;}
	.st30{fill:none;stroke:#4C7EF1;stroke-width:40;stroke-miterlimit:10;}
	.st31{fill:none;stroke:#FEC400;stroke-width:40;stroke-miterlimit:10;}
	.st32{fill:none;stroke:#676767;stroke-width:20;stroke-miterlimit:10;}
	.st33{fill:none;stroke:#FEC400;stroke-width:20;stroke-miterlimit:10;}
	.st34{fill:none;stroke:#29C997;stroke-width:20;stroke-miterlimit:10;}
	.st35{fill:none;stroke:#FFFFFF;stroke-width:20;stroke-miterlimit:10;}
	.st36{fill:none;stroke:#000000;stroke-miterlimit:10;}
	.st37{fill:none;stroke:#FFFFFF;stroke-width:2;stroke-miterlimit:10;stroke-dasharray:3.941,3.941;}
	.st38{opacity:0.5;fill:none;stroke:#FFFFFF;stroke-width:0.4926;stroke-miterlimit:10;stroke-dasharray:3.941,3.941;}
	.st39{fill:none;stroke:#00B091;stroke-width:4;stroke-miterlimit:10;}
	.st40{fill:none;stroke:#EDBF00;stroke-width:4;stroke-miterlimit:10;}
	.st41{fill:#EDBF00;}
	.st42{fill:#00B091;}
	.st43{opacity:0.8;fill:#00B091;}
	.st44{opacity:0.8;fill:#EDBF00;}
	.st45{opacity:0.8;fill:#D85700;}
	.st46{fill:#4C7EF1;stroke:#4C7EF1;stroke-miterlimit:10;}
	.st47{fill:none;stroke:#676767;stroke-width:2;stroke-miterlimit:10;}
	.st48{fill:none;stroke:#FEC400;stroke-width:0.25;stroke-miterlimit:10;}
	.st49{fill:none;stroke:#999999;stroke-width:0.25;stroke-miterlimit:10;}
	.st50{fill:#4C7EF1;stroke:#0B0C0E;stroke-width:0.25;stroke-miterlimit:10;}
	.st51{fill:#FEC400;stroke:#0B0C0E;stroke-width:0.25;stroke-miterlimit:10;}
	.st52{fill:none;stroke:#AAA9A9;stroke-width:0.25;stroke-miterlimit:10;}
	.st53{fill:none;stroke:#A5A4A4;stroke-width:2;stroke-miterlimit:10;stroke-dasharray:0.9678,3.8712;}
	.st54{fill:none;stroke:#4C7EF1;stroke-width:4;stroke-miterlimit:10;}
	.st55{fill:none;stroke:#FEC400;stroke-width:4;stroke-miterlimit:10;}
	.st56{fill:none;stroke:#29C997;stroke-width:2;stroke-miterlimit:10;}
	.st57{fill:none;stroke:#FFFFFF;stroke-width:2;stroke-miterlimit:10;}
	.st58{fill:none;stroke:#000000;stroke-width:0.25;stroke-miterlimit:10;}
	.st59{fill:none;stroke:#FFFFFF;stroke-width:0.25;stroke-miterlimit:10;stroke-dasharray:3.941,3.941;}
	.st60{opacity:0.5;fill:none;stroke:#FFFFFF;stroke-width:0.25;stroke-miterlimit:10;stroke-dasharray:3.941,3.941;}
	.st61{fill:none;stroke:#00B091;stroke-width:0.5;stroke-miterlimit:10;}
	.st62{fill:none;stroke:#EDBF00;stroke-width:0.5;stroke-miterlimit:10;}
	.st63{opacity:0.65;fill:url(#SVGID_1_);}
	.st64{opacity:0.65;fill:url(#SVGID_2_);}
	.st65{opacity:0.65;fill:url(#SVGID_3_);}
	.st66{opacity:0.65;fill:url(#SVGID_4_);}
	.st67{opacity:0.65;fill:url(#SVGID_5_);}
	.st68{opacity:0.65;fill:url(#SVGID_6_);}
	.st69{fill:#292E34;}
	.st70{opacity:0.6;}
	.st71{fill:#334469;}
	.st72{fill:#FEAB05;}
	.st73{opacity:0.4;fill:#0B0C0E;}
	.st74{opacity:0.7;}
	.st75{fill:#F24343;}
	.st76{opacity:0.42;fill:#676767;stroke:#F0F2F8;stroke-miterlimit:10;}
	.st77{fill:none;stroke:#F0F2F8;stroke-width:2;stroke-miterlimit:10;}
	.st78{clip-path:url(#SVGID_8_);}
	.st79{fill:#3B86FF;}
	.st80{opacity:0.36;}
	.st81{fill:#4170ED;}
	.st82{fill:#999999;}
	.st83{opacity:0.15;}
	.st84{clip-path:url(#SVGID_10_);}
	.st85{fill:#1CCC96;}
	.st86{opacity:0.43;}
	.st87{clip-path:url(#SVGID_12_);}
	.st88{fill:#30C3E9;}
	.st89{clip-path:url(#SVGID_14_);}
	.st90{fill:#BCEAEC;}
	.st91{opacity:0.14;}
	.st92{clip-path:url(#SVGID_16_);}
	.st93{fill:#FBC400;}
	.st94{fill:#1F1F1F;}
	.st95{fill:none;stroke:url(#SVGID_17_);stroke-width:0.15;stroke-miterlimit:10;}
	.st96{fill:none;stroke:#00B091;stroke-width:0.15;stroke-miterlimit:10;}
	.st97{fill:none;stroke:url(#SVGID_18_);stroke-width:0.15;stroke-miterlimit:10;}
	.st98{fill:none;stroke:url(#SVGID_19_);stroke-width:0.15;stroke-miterlimit:10;}
	.st99{fill:none;stroke:url(#SVGID_20_);stroke-width:0.15;stroke-miterlimit:10;}
	.st100{fill:none;stroke:url(#SVGID_21_);stroke-width:0.15;stroke-miterlimit:10;}
	.st101{opacity:0.5;fill:#4170ED;}
	.st102{fill:#666666;}
	.st103{fill:none;stroke:#4170ED;stroke-width:0.5;stroke-miterlimit:10;}
	.st104{fill:none;stroke:url(#SVGID_22_);stroke-width:0.5;stroke-miterlimit:10;stroke-dasharray:0.9965,0.9965;}
	.st105{opacity:0.4;}
	.st106{fill:url(#SVGID_23_);stroke:url(#SVGID_24_);stroke-width:0.5;stroke-miterlimit:10;}
	.st107{fill:none;stroke:url(#SVGID_25_);stroke-width:0.5;stroke-miterlimit:10;}
	.st108{fill:url(#SVGID_26_);stroke:url(#SVGID_27_);stroke-width:0.5;stroke-miterlimit:10;}
	.st109{fill:none;stroke:url(#SVGID_28_);stroke-width:0.5;stroke-miterlimit:10;stroke-dasharray:0.9965,0.9965;}
	.st110{fill:url(#SVGID_29_);}
	.st111{fill:none;stroke:url(#SVGID_30_);stroke-width:0.5;stroke-miterlimit:10;stroke-dasharray:0.994,0.994;}
	.st112{fill:none;stroke:url(#SVGID_31_);stroke-width:0.5;stroke-miterlimit:10;}
	.st113{fill:none;stroke:url(#SVGID_32_);stroke-width:0.5;stroke-miterlimit:10;}
	.st114{fill:none;stroke:url(#SVGID_33_);stroke-width:0.5;stroke-miterlimit:10;}
	.st115{fill:url(#SVGID_34_);stroke:url(#SVGID_35_);stroke-width:0.5;stroke-miterlimit:10;}
	.st116{fill:#3885E9;}
	.st117{opacity:0.33;}
	.st118{fill:none;stroke:#999999;stroke-miterlimit:10;}
	.st119{fill:none;stroke:#4170ED;stroke-miterlimit:10;}
	.st120{fill:none;stroke:url(#SVGID_36_);stroke-width:0.5;stroke-miterlimit:10;}
	.st121{fill:url(#SVGID_37_);}
	.st122{opacity:0.3;fill:none;stroke:#4170ED;stroke-miterlimit:10;}
	.st123{opacity:0.87;fill:none;stroke:url(#SVGID_38_);stroke-miterlimit:10;}
	.st124{opacity:0.53;fill:#FFFFFF;}
	.st125{clip-path:url(#SVGID_40_);fill:#BFBFBF;}
	.st126{fill:#BFBFBF;}
	.st127{clip-path:url(#SVGID_42_);fill:#BFBFBF;}
	.st128{clip-path:url(#SVGID_44_);fill:#BFBFBF;}
	.st129{clip-path:url(#SVGID_46_);fill:#BFBFBF;}
	.st130{clip-path:url(#SVGID_48_);fill:#BFBFBF;}
	.st131{clip-path:url(#SVGID_50_);fill:#BFBFBF;}
	.st132{clip-path:url(#SVGID_52_);fill:#BFBFBF;}
	.st133{fill:none;}
	.st134{fill:#1B3E60;}
	.st135{fill:#31446D;stroke:#4170ED;stroke-width:0.5;stroke-miterlimit:10;}
	.st136{opacity:0.31;fill:#EDBF00;}
	.st137{opacity:0.31;fill:#00B091;}
	.st138{fill:#31446D;stroke:#4C7EF1;stroke-width:0.5;stroke-miterlimit:10;}
	.st139{fill:url(#SVGID_53_);}
	.st140{fill:url(#SVGID_54_);stroke:url(#SVGID_55_);stroke-width:0.5;stroke-miterlimit:10;}
	.st141{clip-path:url(#SVGID_57_);fill:#BFBFBF;}
	.st142{clip-path:url(#SVGID_59_);fill:#BFBFBF;}
	.st143{clip-path:url(#SVGID_61_);fill:#BFBFBF;}
	.st144{clip-path:url(#SVGID_63_);fill:#BFBFBF;}
	.st145{clip-path:url(#SVGID_65_);fill:#BFBFBF;}
	.st146{clip-path:url(#SVGID_67_);fill:#BFBFBF;}
	.st147{fill:url(#XMLID_643_);}
	.st148{fill:none;stroke:#4C7EF1;stroke-width:0.25;stroke-miterlimit:10;}
	.st149{opacity:0.5;fill:#4C7EF1;}
	.st150{fill:url(#SVGID_68_);}
	.st151{fill:url(#SVGID_69_);}
	.st152{fill:url(#SVGID_70_);}
	.st153{fill:url(#SVGID_71_);}
	.st154{fill:url(#SVGID_72_);}
	.st155{fill:none;stroke:#F24343;stroke-width:2;stroke-miterlimit:10;}
	.st156{fill:none;stroke:#4C7EF1;stroke-width:2;stroke-miterlimit:10;}
	.st157{fill:none;stroke:#FEAB05;stroke-width:2;stroke-miterlimit:10;}
	.st158{fill:none;stroke:#29CB97;stroke-width:2;stroke-miterlimit:10;}
	.st159{opacity:0.42;fill:#676767;stroke:#F0F2F8;stroke-width:0.5;stroke-miterlimit:10;}
	.st160{fill:none;stroke:#F0F2F8;stroke-miterlimit:10;}
	.st161{clip-path:url(#SVGID_74_);}
</style>
<g>
	<circle class="st49" cx="57" cy="32.5" r="24.51"/>
	<path class="st50" d="M50.56,43.66l-4.86,8.42c3.33,1.92,7.18,3.03,11.3,3.03v-9.72C54.65,45.39,52.45,44.76,50.56,43.66z"/>
	<path class="st50" d="M57,45.39v9.72c4.12,0,7.98-1.11,11.3-3.03l-4.86-8.42C61.55,44.76,59.35,45.39,57,45.39z"/>
	<path class="st50" d="M69.89,32.5c0,2.35-0.63,4.55-1.73,6.44l8.42,4.86c1.92-3.33,3.03-7.18,3.03-11.3H69.89z"/>
	<path class="st50" d="M44.11,32.5h-9.72c0,4.12,1.11,7.98,3.03,11.3l8.42-4.86C44.74,37.05,44.11,34.85,44.11,32.5z"/>
	<path class="st50" d="M68.16,26.06l8.42-4.86c-1.98-3.43-4.84-6.29-8.27-8.27l-4.86,8.42C65.4,22.47,67.03,24.1,68.16,26.06z"/>
	<path class="st50" d="M50.56,21.34l-4.86-8.42c-3.43,1.98-6.29,4.84-8.27,8.27l8.42,4.86C46.97,24.1,48.6,22.47,50.56,21.34z"/>
	<path class="st27" d="M55.21,35.61l-4.65,8.05c1.9,1.1,4.1,1.73,6.44,1.73v-9.3C56.35,36.09,55.73,35.91,55.21,35.61z"/>
	<g>
		<g>
			<path class="st51" d="M53.89,34.29l-8.05,4.65c1.13,1.96,2.76,3.59,4.72,4.72l4.65-8.05C54.66,35.29,54.21,34.84,53.89,34.29z"/>
			<path class="st51" d="M57,36.09v9.3c2.35,0,4.55-0.63,6.44-1.73l-4.65-8.05C58.27,35.91,57.65,36.09,57,36.09z"/>
			<path class="st51" d="M53.41,32.5h-9.3c0,2.35,0.63,4.55,1.73,6.44l8.05-4.65C53.59,33.77,53.41,33.15,53.41,32.5z"/>
			<path class="st51" d="M58.79,29.39l4.65-8.05c-1.9-1.1-4.1-1.73-6.44-1.73v9.3C57.65,28.91,58.27,29.09,58.79,29.39z"/>
			<path class="st51" d="M60.11,34.29l8.05,4.65c1.1-1.9,1.73-4.1,1.73-6.44h-9.3C60.59,33.15,60.41,33.77,60.11,34.29z"/>
			<path class="st51" d="M60.11,30.71l8.05-4.65c-1.13-1.96-2.76-3.59-4.72-4.72l-4.65,8.05C59.34,29.71,59.79,30.16,60.11,30.71z"
				/>
			<path class="st51" d="M53.89,30.71l-8.05-4.65c-1.1,1.9-1.73,4.1-1.73,6.44h9.3C53.41,31.85,53.59,31.23,53.89,30.71z"/>
			<path class="st51" d="M55.21,29.39l-4.65-8.05c-1.96,1.13-3.59,2.76-4.72,4.72l8.05,4.65C54.21,30.16,54.66,29.71,55.21,29.39z"
				/>
		</g>
	</g>
	<g>
		<g>
			<path class="st50" d="M63.44,21.34l2.85-4.94c-2.74-1.58-5.91-2.49-9.3-2.49v5.7C59.35,19.61,61.55,20.24,63.44,21.34z"/>
		</g>
	</g>
	<path class="st50" d="M45.84,26.06l-6.4-3.7c-1.73,2.98-2.72,6.45-2.72,10.14h7.4C44.11,30.15,44.74,27.95,45.84,26.06z"/>
</g>
</svg>
