<?xml version="1.0" encoding="utf-8"?>
<!-- Generator: Adobe Illustrator 23.0.0, SVG Export Plug-In . SVG Version: 6.00 Build 0)  -->
<svg version="1.1" id="图层_1" xmlns="http://www.w3.org/2000/svg" xmlns:xlink="http://www.w3.org/1999/xlink" x="0px" y="0px"
	 viewBox="0 0 114 65" style="enable-background:new 0 0 114 65;" xml:space="preserve">
<style type="text/css">
	.st0{fill:#4C7EF1;}
	.st1{fill:#29CB97;}
	.st2{fill:#FEC400;}
	.st3{fill:#29C997;}
	.st4{fill:#B35AF1;}
	.st5{fill:#FFFFFF;}
	.st6{fill:#6B6B6B;}
	.st7{fill:#444444;}
	.st8{opacity:0.1;fill:#FFFFFF;}
	.st9{opacity:0.1;}
	.st10{fill:none;stroke:#F24343;stroke-width:14;stroke-miterlimit:10;}
	.st11{fill:none;stroke:#FFFFFF;stroke-width:14;stroke-miterlimit:10;}
	.st12{fill:none;stroke:#4C7EF1;stroke-width:14;stroke-miterlimit:10;}
	.st13{fill:none;stroke:#FEAB05;stroke-width:14;stroke-miterlimit:10;}
	.st14{fill:none;stroke:#29CB97;stroke-width:8;stroke-miterlimit:10;}
	.st15{fill:none;stroke:#29CB97;stroke-width:16;stroke-miterlimit:10;}
	.st16{fill:none;stroke:#FEC400;stroke-width:16;stroke-miterlimit:10;}
	.st17{fill:none;stroke:#FEAB05;stroke-width:16;stroke-miterlimit:10;}
	.st18{fill:none;stroke:#FEC400;stroke-width:8;stroke-miterlimit:10;}
	.st19{fill:none;stroke:#676767;stroke-width:8;stroke-miterlimit:10;}
	.st20{fill:none;stroke:#FEC400;stroke-width:2;stroke-miterlimit:10;}
	.st21{fill:#E6E6E6;}
	.st22{fill:#74D889;}
	.st23{fill:#FFDC70;}
	.st24{fill:#47ABFC;}
	.st25{fill:none;stroke:#FFFFFF;stroke-miterlimit:10;}
	.st26{fill:#4C7EF1;stroke:#0B0C0E;stroke-miterlimit:10;}
	.st27{fill:#FEC400;stroke:#0B0C0E;stroke-miterlimit:10;}
	.st28{fill:none;stroke:#AAA9A9;stroke-miterlimit:10;}
	.st29{fill:none;stroke:#A5A4A4;stroke-width:2;stroke-miterlimit:10;stroke-dasharray:1.0005,4.002;}
	.st30{fill:none;stroke:#4C7EF1;stroke-width:40;stroke-miterlimit:10;}
	.st31{fill:none;stroke:#FEC400;stroke-width:40;stroke-miterlimit:10;}
	.st32{fill:none;stroke:#676767;stroke-width:20;stroke-miterlimit:10;}
	.st33{fill:none;stroke:#FEC400;stroke-width:20;stroke-miterlimit:10;}
	.st34{fill:none;stroke:#29C997;stroke-width:20;stroke-miterlimit:10;}
	.st35{fill:none;stroke:#FFFFFF;stroke-width:20;stroke-miterlimit:10;}
	.st36{fill:none;stroke:#000000;stroke-miterlimit:10;}
	.st37{fill:none;stroke:#FFFFFF;stroke-width:2;stroke-miterlimit:10;stroke-dasharray:3.941,3.941;}
	.st38{opacity:0.5;fill:none;stroke:#FFFFFF;stroke-width:0.4926;stroke-miterlimit:10;stroke-dasharray:3.941,3.941;}
	.st39{fill:none;stroke:#00B091;stroke-width:4;stroke-miterlimit:10;}
	.st40{fill:none;stroke:#EDBF00;stroke-width:4;stroke-miterlimit:10;}
	.st41{fill:#EDBF00;}
	.st42{fill:#00B091;}
	.st43{opacity:0.8;fill:#00B091;}
	.st44{opacity:0.8;fill:#EDBF00;}
	.st45{opacity:0.8;fill:#D85700;}
	.st46{fill:#4C7EF1;stroke:#4C7EF1;stroke-miterlimit:10;}
	.st47{fill:none;stroke:#676767;stroke-width:2;stroke-miterlimit:10;}
	.st48{fill:none;stroke:#FEC400;stroke-width:0.25;stroke-miterlimit:10;}
	.st49{fill:none;stroke:#999999;stroke-width:0.25;stroke-miterlimit:10;}
	.st50{fill:#4C7EF1;stroke:#0B0C0E;stroke-width:0.25;stroke-miterlimit:10;}
	.st51{fill:#FEC400;stroke:#0B0C0E;stroke-width:0.25;stroke-miterlimit:10;}
	.st52{fill:none;stroke:#AAA9A9;stroke-width:0.25;stroke-miterlimit:10;}
	.st53{fill:none;stroke:#A5A4A4;stroke-width:2;stroke-miterlimit:10;stroke-dasharray:0.9678,3.8712;}
	.st54{fill:none;stroke:#4C7EF1;stroke-width:4;stroke-miterlimit:10;}
	.st55{fill:none;stroke:#FEC400;stroke-width:4;stroke-miterlimit:10;}
	.st56{fill:none;stroke:#29C997;stroke-width:2;stroke-miterlimit:10;}
	.st57{fill:none;stroke:#FFFFFF;stroke-width:2;stroke-miterlimit:10;}
	.st58{fill:none;stroke:#000000;stroke-width:0.25;stroke-miterlimit:10;}
	.st59{fill:none;stroke:#FFFFFF;stroke-width:0.25;stroke-miterlimit:10;stroke-dasharray:3.941,3.941;}
	.st60{opacity:0.5;fill:none;stroke:#FFFFFF;stroke-width:0.25;stroke-miterlimit:10;stroke-dasharray:3.941,3.941;}
	.st61{fill:none;stroke:#00B091;stroke-width:0.5;stroke-miterlimit:10;}
	.st62{fill:none;stroke:#EDBF00;stroke-width:0.5;stroke-miterlimit:10;}
	.st63{opacity:0.65;fill:url(#SVGID_1_);}
	.st64{opacity:0.65;fill:url(#SVGID_2_);}
	.st65{opacity:0.65;fill:url(#SVGID_3_);}
	.st66{opacity:0.65;fill:url(#SVGID_4_);}
	.st67{opacity:0.65;fill:url(#SVGID_5_);}
	.st68{opacity:0.65;fill:url(#SVGID_6_);}
	.st69{fill:#292E34;}
	.st70{opacity:0.6;}
	.st71{fill:#334469;}
	.st72{fill:#FEAB05;}
	.st73{opacity:0.4;fill:#0B0C0E;}
	.st74{opacity:0.7;}
	.st75{fill:#F24343;}
	.st76{opacity:0.42;fill:#676767;stroke:#F0F2F8;stroke-miterlimit:10;}
	.st77{fill:none;stroke:#F0F2F8;stroke-width:2;stroke-miterlimit:10;}
	.st78{clip-path:url(#SVGID_8_);}
	.st79{fill:#3B86FF;}
	.st80{opacity:0.36;}
	.st81{fill:#4170ED;}
	.st82{fill:#999999;}
	.st83{opacity:0.15;}
	.st84{clip-path:url(#SVGID_10_);}
	.st85{fill:#1CCC96;}
	.st86{opacity:0.43;}
	.st87{clip-path:url(#SVGID_12_);}
	.st88{fill:#30C3E9;}
	.st89{clip-path:url(#SVGID_14_);}
	.st90{fill:#BCEAEC;}
	.st91{opacity:0.14;}
	.st92{clip-path:url(#SVGID_16_);}
	.st93{fill:#FBC400;}
	.st94{fill:#1F1F1F;}
	.st95{fill:none;stroke:url(#SVGID_17_);stroke-width:0.15;stroke-miterlimit:10;}
	.st96{fill:none;stroke:#00B091;stroke-width:0.15;stroke-miterlimit:10;}
	.st97{fill:none;stroke:url(#SVGID_18_);stroke-width:0.15;stroke-miterlimit:10;}
	.st98{fill:none;stroke:url(#SVGID_19_);stroke-width:0.15;stroke-miterlimit:10;}
	.st99{fill:none;stroke:url(#SVGID_20_);stroke-width:0.15;stroke-miterlimit:10;}
	.st100{fill:none;stroke:url(#SVGID_21_);stroke-width:0.15;stroke-miterlimit:10;}
	.st101{opacity:0.5;fill:#4170ED;}
	.st102{fill:#666666;}
	.st103{fill:none;stroke:#4170ED;stroke-width:0.5;stroke-miterlimit:10;}
	.st104{fill:none;stroke:url(#SVGID_22_);stroke-width:0.5;stroke-miterlimit:10;stroke-dasharray:0.9965,0.9965;}
	.st105{opacity:0.4;}
	.st106{fill:url(#SVGID_23_);stroke:url(#SVGID_24_);stroke-width:0.5;stroke-miterlimit:10;}
	.st107{fill:none;stroke:url(#SVGID_25_);stroke-width:0.5;stroke-miterlimit:10;}
	.st108{fill:url(#SVGID_26_);stroke:url(#SVGID_27_);stroke-width:0.5;stroke-miterlimit:10;}
	.st109{fill:none;stroke:url(#SVGID_28_);stroke-width:0.5;stroke-miterlimit:10;stroke-dasharray:0.9965,0.9965;}
	.st110{fill:url(#SVGID_29_);}
	.st111{fill:none;stroke:url(#SVGID_30_);stroke-width:0.5;stroke-miterlimit:10;stroke-dasharray:0.994,0.994;}
	.st112{fill:none;stroke:url(#SVGID_31_);stroke-width:0.5;stroke-miterlimit:10;}
	.st113{fill:none;stroke:url(#SVGID_32_);stroke-width:0.5;stroke-miterlimit:10;}
	.st114{fill:none;stroke:url(#SVGID_33_);stroke-width:0.5;stroke-miterlimit:10;}
	.st115{fill:url(#SVGID_34_);stroke:url(#SVGID_35_);stroke-width:0.5;stroke-miterlimit:10;}
	.st116{fill:#3885E9;}
	.st117{opacity:0.33;}
	.st118{fill:none;stroke:#999999;stroke-miterlimit:10;}
	.st119{fill:none;stroke:#4170ED;stroke-miterlimit:10;}
	.st120{fill:none;stroke:url(#SVGID_36_);stroke-width:0.5;stroke-miterlimit:10;}
	.st121{fill:url(#SVGID_37_);}
	.st122{opacity:0.3;fill:none;stroke:#4170ED;stroke-miterlimit:10;}
	.st123{opacity:0.87;fill:none;stroke:url(#SVGID_38_);stroke-miterlimit:10;}
	.st124{opacity:0.53;fill:#FFFFFF;}
	.st125{opacity:0.3;fill:none;stroke:#4170ED;stroke-width:0.25;stroke-miterlimit:10;}
	.st126{fill:url(#SVGID_39_);stroke:url(#SVGID_40_);stroke-width:0.25;stroke-miterlimit:10;}
	.st127{fill:url(#SVGID_41_);stroke:url(#SVGID_42_);stroke-width:0.25;stroke-miterlimit:10;}
	.st128{fill:url(#SVGID_43_);stroke:url(#SVGID_44_);stroke-width:0.25;stroke-miterlimit:10;}
	.st129{fill:url(#SVGID_45_);stroke:url(#SVGID_46_);stroke-width:0.25;stroke-miterlimit:10;}
	.st130{clip-path:url(#SVGID_48_);fill:#BFBFBF;}
	.st131{fill:#BFBFBF;}
	.st132{clip-path:url(#SVGID_50_);fill:#BFBFBF;}
	.st133{clip-path:url(#SVGID_52_);fill:#BFBFBF;}
	.st134{clip-path:url(#SVGID_54_);fill:#BFBFBF;}
	.st135{clip-path:url(#SVGID_56_);fill:#BFBFBF;}
	.st136{clip-path:url(#SVGID_58_);fill:#BFBFBF;}
	.st137{fill:none;}
	.st138{fill:#1B3E60;}
	.st139{fill:#31446D;stroke:#4170ED;stroke-width:0.5;stroke-miterlimit:10;}
	.st140{opacity:0.31;fill:#EDBF00;}
	.st141{opacity:0.31;fill:#00B091;}
	.st142{fill:#31446D;stroke:#4C7EF1;stroke-width:0.5;stroke-miterlimit:10;}
	.st143{clip-path:url(#SVGID_60_);fill:#BFBFBF;}
	.st144{clip-path:url(#SVGID_62_);fill:#BFBFBF;}
	.st145{clip-path:url(#SVGID_64_);fill:#BFBFBF;}
	.st146{clip-path:url(#SVGID_66_);fill:#BFBFBF;}
	.st147{clip-path:url(#SVGID_68_);fill:#BFBFBF;}
	.st148{clip-path:url(#SVGID_70_);fill:#BFBFBF;}
	.st149{fill:url(#XMLID_644_);}
	.st150{fill:none;stroke:#4C7EF1;stroke-width:0.25;stroke-miterlimit:10;}
	.st151{opacity:0.5;fill:#4C7EF1;}
	.st152{fill:url(#SVGID_71_);}
	.st153{fill:url(#SVGID_72_);}
	.st154{fill:url(#SVGID_73_);}
	.st155{fill:url(#SVGID_74_);}
	.st156{fill:url(#SVGID_75_);}
	.st157{fill:none;stroke:#F24343;stroke-width:2;stroke-miterlimit:10;}
	.st158{fill:none;stroke:#4C7EF1;stroke-width:2;stroke-miterlimit:10;}
	.st159{fill:none;stroke:#FEAB05;stroke-width:2;stroke-miterlimit:10;}
	.st160{fill:none;stroke:#29CB97;stroke-width:2;stroke-miterlimit:10;}
	.st161{opacity:0.42;fill:#676767;stroke:#F0F2F8;stroke-width:0.5;stroke-miterlimit:10;}
	.st162{fill:none;stroke:#F0F2F8;stroke-miterlimit:10;}
	.st163{clip-path:url(#SVGID_77_);}
	.st164{opacity:0.56;fill:#4C7EF1;}
	.st165{fill:none;stroke:url(#SVGID_78_);stroke-width:0.5;stroke-miterlimit:10;stroke-dasharray:1.0027,1.0027;}
	.st166{fill:none;stroke:url(#SVGID_79_);stroke-width:0.5;stroke-miterlimit:10;}
	.st167{fill:none;stroke:url(#SVGID_80_);stroke-width:0.5;stroke-miterlimit:10;}
	.st168{fill:none;stroke:url(#SVGID_81_);stroke-width:0.5;stroke-miterlimit:10;}
	.st169{opacity:0.14;fill:none;stroke:#4C7EF1;stroke-width:0.25;stroke-miterlimit:10;}
	.st170{fill:#F2F2F2;}
	.st171{fill:none;stroke:#3B86FF;stroke-width:0.25;stroke-miterlimit:10;}
	.st172{fill:#676767;stroke:#3B86FF;stroke-width:0.25;stroke-miterlimit:10;}
	.st173{fill:#606060;stroke:#3B86FF;stroke-width:0.25;stroke-miterlimit:10;}
	.st174{fill:url(#SVGID_82_);stroke:url(#SVGID_83_);stroke-width:0.25;stroke-miterlimit:10;}
	.st175{fill:url(#SVGID_84_);stroke:url(#SVGID_85_);stroke-width:0.25;stroke-miterlimit:10;}
	.st176{fill:url(#SVGID_86_);stroke:url(#SVGID_87_);stroke-width:0.25;stroke-miterlimit:10;}
	.st177{fill:url(#SVGID_88_);stroke:url(#SVGID_89_);stroke-width:0.25;stroke-miterlimit:10;}
	.st178{fill:url(#SVGID_90_);stroke:url(#SVGID_91_);stroke-width:0.25;stroke-miterlimit:10;}
	.st179{opacity:0.46;fill:url(#SVGID_92_);}
	.st180{opacity:0.14;fill:#29CB97;stroke:#4C7EF1;stroke-width:0.25;stroke-miterlimit:10;}
	.st181{opacity:0.35;fill:#999999;}
	.st182{fill:none;stroke:#3B86FF;stroke-width:0.1;stroke-miterlimit:10;}
	.st183{opacity:0.14;fill:#4170ED;stroke:#4C7EF1;stroke-width:0.25;stroke-miterlimit:10;}
</style>
<g>
	<g>
		<rect x="25.37" y="15.72" class="st125" width="30.96" height="16.7"/>
		<linearGradient id="SVGID_1_" gradientUnits="userSpaceOnUse" x1="25.1848" y1="13.5483" x2="56.1469" y2="13.5483">
			<stop  offset="0" style="stop-color:#292E34;stop-opacity:0"/>
			<stop  offset="1" style="stop-color:#4170ED;stop-opacity:0.4"/>
		</linearGradient>
		<linearGradient id="SVGID_2_" gradientUnits="userSpaceOnUse" x1="25.0598" y1="13.5483" x2="56.2719" y2="13.5483">
			<stop  offset="0" style="stop-color:#292E34"/>
			<stop  offset="1" style="stop-color:#4170ED"/>
		</linearGradient>
		
			<rect x="25.18" y="11.18" style="fill:url(#SVGID_1_);stroke:url(#SVGID_2_);stroke-width:0.25;stroke-miterlimit:10;" width="30.96" height="4.74"/>
		<g>
			<path class="st81" d="M45.5,23.7c0-2.77-2.25-5.02-5.02-5.02c-2.77,0-5.02,2.25-5.02,5.02c0,2.77,2.25,5.02,5.02,5.02
				c1.12,0,2.18-0.36,3.04-1.03c0.06-0.05,0.1-0.12,0.09-0.2c-0.01-0.08-0.06-0.15-0.13-0.18c-0.07-0.03-0.16-0.02-0.22,0.03
				c-0.79,0.6-1.76,0.94-2.78,0.94c-2.53,0-4.59-2.05-4.59-4.59c0-2.53,2.05-4.59,4.59-4.59c2.53,0,4.59,2.05,4.59,4.59
				c0,0.85-0.23,1.67-0.67,2.39c-0.06,0.1-0.03,0.24,0.07,0.3c0.1,0.06,0.24,0.03,0.3-0.07C45.24,25.54,45.5,24.64,45.5,23.7
				L45.5,23.7z M45.5,23.7"/>
			<path class="st81" d="M39.62,21.78l2.4,1.95l-2.41,1.93L39.62,21.78z M39.62,21.78"/>
		</g>
	</g>
	<g>
		<rect x="57.85" y="15.72" class="st125" width="30.96" height="16.7"/>
		<linearGradient id="SVGID_3_" gradientUnits="userSpaceOnUse" x1="57.6657" y1="13.5483" x2="88.6277" y2="13.5483">
			<stop  offset="0" style="stop-color:#292E34;stop-opacity:0"/>
			<stop  offset="1" style="stop-color:#4170ED;stop-opacity:0.4"/>
		</linearGradient>
		<linearGradient id="SVGID_4_" gradientUnits="userSpaceOnUse" x1="57.5407" y1="13.5483" x2="88.7527" y2="13.5483">
			<stop  offset="0" style="stop-color:#292E34"/>
			<stop  offset="1" style="stop-color:#4170ED"/>
		</linearGradient>
		
			<rect x="57.67" y="11.18" style="fill:url(#SVGID_3_);stroke:url(#SVGID_4_);stroke-width:0.25;stroke-miterlimit:10;" width="30.96" height="4.74"/>
		<g>
			<path class="st81" d="M77.98,23.7c0-2.77-2.25-5.02-5.02-5.02c-2.77,0-5.02,2.25-5.02,5.02c0,2.77,2.25,5.02,5.02,5.02
				c1.12,0,2.18-0.36,3.04-1.03c0.06-0.05,0.1-0.12,0.09-0.2c-0.01-0.08-0.06-0.15-0.13-0.18c-0.07-0.03-0.16-0.02-0.22,0.03
				c-0.79,0.6-1.76,0.94-2.78,0.94c-2.53,0-4.59-2.05-4.59-4.59c0-2.53,2.05-4.59,4.59-4.59c2.53,0,4.59,2.05,4.59,4.59
				c0,0.85-0.23,1.67-0.67,2.39c-0.06,0.1-0.03,0.24,0.07,0.3c0.1,0.06,0.24,0.03,0.3-0.07C77.73,25.54,77.98,24.64,77.98,23.7
				L77.98,23.7z M77.98,23.7"/>
			<path class="st81" d="M72.1,21.78l2.4,1.95l-2.41,1.93L72.1,21.78z M72.1,21.78"/>
		</g>
	</g>
	<g>
		<rect x="25.37" y="38.64" class="st125" width="30.96" height="16.7"/>
		<linearGradient id="SVGID_5_" gradientUnits="userSpaceOnUse" x1="25.1848" y1="36.468" x2="56.1469" y2="36.468">
			<stop  offset="0" style="stop-color:#292E34;stop-opacity:0"/>
			<stop  offset="1" style="stop-color:#4170ED;stop-opacity:0.4"/>
		</linearGradient>
		<linearGradient id="SVGID_6_" gradientUnits="userSpaceOnUse" x1="25.0598" y1="36.468" x2="56.2719" y2="36.468">
			<stop  offset="0" style="stop-color:#292E34"/>
			<stop  offset="1" style="stop-color:#4170ED"/>
		</linearGradient>
		
			<rect x="25.18" y="34.1" style="fill:url(#SVGID_5_);stroke:url(#SVGID_6_);stroke-width:0.25;stroke-miterlimit:10;" width="30.96" height="4.74"/>
		<g>
			<path class="st81" d="M45.5,46.62c0-2.77-2.25-5.02-5.02-5.02c-2.77,0-5.02,2.25-5.02,5.02c0,2.77,2.25,5.02,5.02,5.02
				c1.12,0,2.18-0.36,3.04-1.03c0.06-0.05,0.1-0.12,0.09-0.2c-0.01-0.08-0.06-0.15-0.13-0.18c-0.07-0.03-0.16-0.02-0.22,0.03
				c-0.79,0.6-1.76,0.94-2.78,0.94c-2.53,0-4.59-2.05-4.59-4.59c0-2.53,2.05-4.59,4.59-4.59c2.53,0,4.59,2.05,4.59,4.59
				c0,0.85-0.23,1.67-0.67,2.39c-0.06,0.1-0.03,0.24,0.07,0.3c0.1,0.06,0.24,0.03,0.3-0.07C45.24,48.46,45.5,47.56,45.5,46.62
				L45.5,46.62z M45.5,46.62"/>
			<path class="st81" d="M39.62,44.7l2.4,1.95l-2.41,1.93L39.62,44.7z M39.62,44.7"/>
		</g>
	</g>
	<g>
		<rect x="57.85" y="38.64" class="st125" width="30.96" height="16.7"/>
		<linearGradient id="SVGID_8_" gradientUnits="userSpaceOnUse" x1="57.6657" y1="36.468" x2="88.6277" y2="36.468">
			<stop  offset="0" style="stop-color:#292E34;stop-opacity:0"/>
			<stop  offset="1" style="stop-color:#4170ED;stop-opacity:0.4"/>
		</linearGradient>
		<linearGradient id="SVGID_10_" gradientUnits="userSpaceOnUse" x1="57.5407" y1="36.468" x2="88.7527" y2="36.468">
			<stop  offset="0" style="stop-color:#292E34"/>
			<stop  offset="1" style="stop-color:#4170ED"/>
		</linearGradient>
		
			<rect x="57.67" y="34.1" style="fill:url(#SVGID_8_);stroke:url(#SVGID_10_);stroke-width:0.25;stroke-miterlimit:10;" width="30.96" height="4.74"/>
		<g>
			<path class="st81" d="M77.98,46.62c0-2.77-2.25-5.02-5.02-5.02c-2.77,0-5.02,2.25-5.02,5.02c0,2.77,2.25,5.02,5.02,5.02
				c1.12,0,2.18-0.36,3.04-1.03c0.06-0.05,0.1-0.12,0.09-0.2c-0.01-0.08-0.06-0.15-0.13-0.18c-0.07-0.03-0.16-0.02-0.22,0.03
				c-0.79,0.6-1.76,0.94-2.78,0.94c-2.53,0-4.59-2.05-4.59-4.59c0-2.53,2.05-4.59,4.59-4.59c2.53,0,4.59,2.05,4.59,4.59
				c0,0.85-0.23,1.67-0.67,2.39c-0.06,0.1-0.03,0.24,0.07,0.3c0.1,0.06,0.24,0.03,0.3-0.07C77.73,48.46,77.98,47.56,77.98,46.62
				L77.98,46.62z M77.98,46.62"/>
			<path class="st81" d="M72.1,44.7l2.4,1.95l-2.41,1.93L72.1,44.7z M72.1,44.7"/>
		</g>
	</g>
</g>
</svg>
