<?xml version="1.0" encoding="utf-8"?>
<!-- Generator: Adobe Illustrator 23.0.0, SVG Export Plug-In . SVG Version: 6.00 Build 0)  -->
<svg version="1.1" id="图层_1" xmlns="http://www.w3.org/2000/svg" xmlns:xlink="http://www.w3.org/1999/xlink" x="0px" y="0px"
	 viewBox="0 0 114 65" style="enable-background:new 0 0 114 65;" xml:space="preserve">
<style type="text/css">
	.st0{fill:#4C7EF1;}
	.st1{fill:#29CB97;}
	.st2{fill:#FEC400;}
	.st3{fill:#29C997;}
	.st4{fill:#B35AF1;}
	.st5{fill:#FFFFFF;}
	.st6{fill:#6B6B6B;}
	.st7{fill:#444444;}
	.st8{opacity:0.1;fill:#FFFFFF;}
	.st9{opacity:0.1;}
	.st10{fill:none;stroke:#F24343;stroke-width:14;stroke-miterlimit:10;}
	.st11{fill:none;stroke:#FFFFFF;stroke-width:14;stroke-miterlimit:10;}
	.st12{fill:none;stroke:#4C7EF1;stroke-width:14;stroke-miterlimit:10;}
	.st13{fill:none;stroke:#FEAB05;stroke-width:14;stroke-miterlimit:10;}
	.st14{fill:none;stroke:#29CB97;stroke-width:8;stroke-miterlimit:10;}
	.st15{fill:none;stroke:#29CB97;stroke-width:16;stroke-miterlimit:10;}
	.st16{fill:none;stroke:#FEC400;stroke-width:16;stroke-miterlimit:10;}
	.st17{fill:none;stroke:#FEAB05;stroke-width:16;stroke-miterlimit:10;}
	.st18{fill:none;stroke:#FEC400;stroke-width:8;stroke-miterlimit:10;}
	.st19{fill:none;stroke:#676767;stroke-width:8;stroke-miterlimit:10;}
	.st20{fill:none;stroke:#FEC400;stroke-width:2;stroke-miterlimit:10;}
	.st21{fill:#E6E6E6;}
	.st22{fill:#74D889;}
	.st23{fill:#FFDC70;}
	.st24{fill:#47ABFC;}
	.st25{fill:none;stroke:#FFFFFF;stroke-miterlimit:10;}
	.st26{fill:#4C7EF1;stroke:#0B0C0E;stroke-miterlimit:10;}
	.st27{fill:#FEC400;stroke:#0B0C0E;stroke-miterlimit:10;}
	.st28{fill:none;stroke:#AAA9A9;stroke-miterlimit:10;}
	.st29{fill:none;stroke:#A5A4A4;stroke-width:2;stroke-miterlimit:10;stroke-dasharray:1.0005,4.002;}
	.st30{fill:none;stroke:#4C7EF1;stroke-width:40;stroke-miterlimit:10;}
	.st31{fill:none;stroke:#FEC400;stroke-width:40;stroke-miterlimit:10;}
	.st32{fill:none;stroke:#676767;stroke-width:20;stroke-miterlimit:10;}
	.st33{fill:none;stroke:#FEC400;stroke-width:20;stroke-miterlimit:10;}
	.st34{fill:none;stroke:#29C997;stroke-width:20;stroke-miterlimit:10;}
	.st35{fill:none;stroke:#FFFFFF;stroke-width:20;stroke-miterlimit:10;}
	.st36{fill:none;stroke:#000000;stroke-miterlimit:10;}
	.st37{fill:none;stroke:#FFFFFF;stroke-width:2;stroke-miterlimit:10;stroke-dasharray:3.941,3.941;}
	.st38{opacity:0.5;fill:none;stroke:#FFFFFF;stroke-width:0.4926;stroke-miterlimit:10;stroke-dasharray:3.941,3.941;}
	.st39{fill:none;stroke:#00B091;stroke-width:4;stroke-miterlimit:10;}
	.st40{fill:none;stroke:#EDBF00;stroke-width:4;stroke-miterlimit:10;}
	.st41{fill:#EDBF00;}
	.st42{fill:#00B091;}
	.st43{opacity:0.8;fill:#00B091;}
	.st44{opacity:0.8;fill:#EDBF00;}
	.st45{opacity:0.8;fill:#D85700;}
	.st46{fill:#4C7EF1;stroke:#4C7EF1;stroke-miterlimit:10;}
	.st47{fill:none;stroke:#676767;stroke-width:2;stroke-miterlimit:10;}
	.st48{fill:none;stroke:#FEC400;stroke-width:0.25;stroke-miterlimit:10;}
	.st49{fill:none;stroke:#999999;stroke-width:0.25;stroke-miterlimit:10;}
	.st50{fill:#4C7EF1;stroke:#0B0C0E;stroke-width:0.25;stroke-miterlimit:10;}
	.st51{fill:#FEC400;stroke:#0B0C0E;stroke-width:0.25;stroke-miterlimit:10;}
	.st52{fill:none;stroke:#AAA9A9;stroke-width:0.25;stroke-miterlimit:10;}
	.st53{fill:none;stroke:#A5A4A4;stroke-width:2;stroke-miterlimit:10;stroke-dasharray:0.9678,3.8712;}
	.st54{fill:none;stroke:#4C7EF1;stroke-width:4;stroke-miterlimit:10;}
	.st55{fill:none;stroke:#FEC400;stroke-width:4;stroke-miterlimit:10;}
	.st56{fill:none;stroke:#29C997;stroke-width:2;stroke-miterlimit:10;}
	.st57{fill:none;stroke:#FFFFFF;stroke-width:2;stroke-miterlimit:10;}
	.st58{fill:none;stroke:#000000;stroke-width:0.25;stroke-miterlimit:10;}
	.st59{fill:none;stroke:#FFFFFF;stroke-width:0.25;stroke-miterlimit:10;stroke-dasharray:3.941,3.941;}
	.st60{opacity:0.5;fill:none;stroke:#FFFFFF;stroke-width:0.25;stroke-miterlimit:10;stroke-dasharray:3.941,3.941;}
	.st61{fill:none;stroke:#00B091;stroke-width:0.5;stroke-miterlimit:10;}
	.st62{fill:none;stroke:#EDBF00;stroke-width:0.5;stroke-miterlimit:10;}
	.st63{opacity:0.65;fill:url(#SVGID_1_);}
	.st64{opacity:0.65;fill:url(#SVGID_2_);}
	.st65{opacity:0.65;fill:url(#SVGID_3_);}
	.st66{opacity:0.65;fill:url(#SVGID_4_);}
	.st67{opacity:0.65;fill:url(#SVGID_5_);}
	.st68{opacity:0.65;fill:url(#SVGID_6_);}
	.st69{fill:#292E34;}
	.st70{opacity:0.6;}
	.st71{fill:#334469;}
	.st72{fill:#FEAB05;}
	.st73{opacity:0.4;fill:#0B0C0E;}
	.st74{opacity:0.7;}
	.st75{fill:#F24343;}
	.st76{opacity:0.42;fill:#676767;stroke:#F0F2F8;stroke-miterlimit:10;}
	.st77{fill:none;stroke:#F0F2F8;stroke-width:2;stroke-miterlimit:10;}
	.st78{clip-path:url(#SVGID_8_);}
	.st79{fill:#3B86FF;}
	.st80{opacity:0.36;}
	.st81{fill:#4170ED;}
	.st82{fill:#999999;}
	.st83{opacity:0.15;}
	.st84{clip-path:url(#SVGID_10_);}
	.st85{fill:#1CCC96;}
	.st86{opacity:0.43;}
	.st87{clip-path:url(#SVGID_12_);}
	.st88{fill:#30C3E9;}
	.st89{clip-path:url(#SVGID_14_);}
	.st90{fill:#BCEAEC;}
	.st91{opacity:0.14;}
	.st92{clip-path:url(#SVGID_16_);}
	.st93{fill:#FBC400;}
	.st94{fill:#1F1F1F;}
	.st95{fill:none;stroke:url(#SVGID_17_);stroke-width:0.15;stroke-miterlimit:10;}
	.st96{fill:none;stroke:#00B091;stroke-width:0.15;stroke-miterlimit:10;}
	.st97{fill:none;stroke:url(#SVGID_18_);stroke-width:0.15;stroke-miterlimit:10;}
	.st98{fill:none;stroke:url(#SVGID_19_);stroke-width:0.15;stroke-miterlimit:10;}
	.st99{fill:none;stroke:url(#SVGID_20_);stroke-width:0.15;stroke-miterlimit:10;}
	.st100{fill:none;stroke:url(#SVGID_21_);stroke-width:0.15;stroke-miterlimit:10;}
	.st101{opacity:0.5;fill:#4170ED;}
	.st102{fill:#666666;}
	.st103{fill:none;stroke:#4170ED;stroke-width:0.5;stroke-miterlimit:10;}
	.st104{fill:none;stroke:url(#SVGID_22_);stroke-width:0.5;stroke-miterlimit:10;stroke-dasharray:0.9965,0.9965;}
	.st105{opacity:0.4;}
	.st106{fill:url(#SVGID_23_);stroke:url(#SVGID_24_);stroke-width:0.5;stroke-miterlimit:10;}
	.st107{fill:none;stroke:url(#SVGID_25_);stroke-width:0.5;stroke-miterlimit:10;}
	.st108{fill:url(#SVGID_26_);stroke:url(#SVGID_27_);stroke-width:0.5;stroke-miterlimit:10;}
	.st109{fill:none;stroke:url(#SVGID_28_);stroke-width:0.5;stroke-miterlimit:10;stroke-dasharray:0.9965,0.9965;}
	.st110{fill:url(#SVGID_29_);}
	.st111{fill:none;stroke:url(#SVGID_30_);stroke-width:0.5;stroke-miterlimit:10;stroke-dasharray:0.994,0.994;}
	.st112{fill:none;stroke:url(#SVGID_31_);stroke-width:0.5;stroke-miterlimit:10;}
	.st113{fill:none;stroke:url(#SVGID_32_);stroke-width:0.5;stroke-miterlimit:10;}
	.st114{fill:none;stroke:url(#SVGID_33_);stroke-width:0.5;stroke-miterlimit:10;}
	.st115{fill:url(#SVGID_34_);stroke:url(#SVGID_35_);stroke-width:0.5;stroke-miterlimit:10;}
	.st116{fill:#3885E9;}
	.st117{opacity:0.33;}
	.st118{fill:none;stroke:#999999;stroke-miterlimit:10;}
	.st119{fill:none;stroke:#4170ED;stroke-miterlimit:10;}
	.st120{fill:none;stroke:url(#SVGID_36_);stroke-width:0.5;stroke-miterlimit:10;}
	.st121{fill:url(#SVGID_37_);}
	.st122{opacity:0.3;fill:none;stroke:#4170ED;stroke-miterlimit:10;}
	.st123{opacity:0.87;fill:none;stroke:url(#SVGID_38_);stroke-miterlimit:10;}
	.st124{opacity:0.53;fill:#FFFFFF;}
	.st125{opacity:0.3;fill:none;stroke:#4170ED;stroke-width:0.25;stroke-miterlimit:10;}
	.st126{fill:url(#SVGID_39_);stroke:url(#SVGID_40_);stroke-width:0.25;stroke-miterlimit:10;}
	.st127{fill:url(#SVGID_41_);stroke:url(#SVGID_42_);stroke-width:0.25;stroke-miterlimit:10;}
	.st128{fill:url(#SVGID_43_);stroke:url(#SVGID_44_);stroke-width:0.25;stroke-miterlimit:10;}
	.st129{fill:url(#SVGID_45_);stroke:url(#SVGID_46_);stroke-width:0.25;stroke-miterlimit:10;}
	.st130{clip-path:url(#SVGID_48_);fill:#BFBFBF;}
	.st131{fill:#BFBFBF;}
	.st132{clip-path:url(#SVGID_50_);fill:#BFBFBF;}
	.st133{clip-path:url(#SVGID_52_);fill:#BFBFBF;}
	.st134{clip-path:url(#SVGID_54_);fill:#BFBFBF;}
	.st135{clip-path:url(#SVGID_56_);fill:#BFBFBF;}
	.st136{clip-path:url(#SVGID_58_);fill:#BFBFBF;}
	.st137{fill:none;}
	.st138{fill:#1B3E60;}
	.st139{fill:#31446D;stroke:#4170ED;stroke-width:0.5;stroke-miterlimit:10;}
	.st140{opacity:0.31;fill:#EDBF00;}
	.st141{opacity:0.31;fill:#00B091;}
	.st142{fill:#31446D;stroke:#4C7EF1;stroke-width:0.5;stroke-miterlimit:10;}
	.st143{clip-path:url(#SVGID_60_);fill:#BFBFBF;}
	.st144{clip-path:url(#SVGID_62_);fill:#BFBFBF;}
	.st145{clip-path:url(#SVGID_64_);fill:#BFBFBF;}
	.st146{clip-path:url(#SVGID_66_);fill:#BFBFBF;}
	.st147{clip-path:url(#SVGID_68_);fill:#BFBFBF;}
	.st148{clip-path:url(#SVGID_70_);fill:#BFBFBF;}
	.st149{fill:url(#XMLID_644_);}
	.st150{fill:none;stroke:#4C7EF1;stroke-width:0.25;stroke-miterlimit:10;}
	.st151{opacity:0.5;fill:#4C7EF1;}
	.st152{fill:url(#SVGID_71_);}
	.st153{fill:url(#SVGID_72_);}
	.st154{fill:url(#SVGID_73_);}
	.st155{fill:url(#SVGID_74_);}
	.st156{fill:url(#SVGID_75_);}
	.st157{fill:none;stroke:#F24343;stroke-width:2;stroke-miterlimit:10;}
	.st158{fill:none;stroke:#4C7EF1;stroke-width:2;stroke-miterlimit:10;}
	.st159{fill:none;stroke:#FEAB05;stroke-width:2;stroke-miterlimit:10;}
	.st160{fill:none;stroke:#29CB97;stroke-width:2;stroke-miterlimit:10;}
	.st161{opacity:0.42;fill:#676767;stroke:#F0F2F8;stroke-width:0.5;stroke-miterlimit:10;}
	.st162{fill:none;stroke:#F0F2F8;stroke-miterlimit:10;}
	.st163{clip-path:url(#SVGID_77_);}
	.st164{opacity:0.56;fill:#4C7EF1;}
	.st165{fill:none;stroke:url(#SVGID_78_);stroke-width:0.5;stroke-miterlimit:10;stroke-dasharray:1.0027,1.0027;}
	.st166{fill:none;stroke:url(#SVGID_79_);stroke-width:0.5;stroke-miterlimit:10;}
	.st167{fill:none;stroke:url(#SVGID_80_);stroke-width:0.5;stroke-miterlimit:10;}
	.st168{fill:none;stroke:url(#SVGID_81_);stroke-width:0.5;stroke-miterlimit:10;}
	.st169{opacity:0.14;fill:none;stroke:#4C7EF1;stroke-width:0.25;stroke-miterlimit:10;}
	.st170{fill:#F2F2F2;}
	.st171{fill:none;stroke:#3B86FF;stroke-width:0.25;stroke-miterlimit:10;}
	.st172{fill:#676767;stroke:#3B86FF;stroke-width:0.25;stroke-miterlimit:10;}
	.st173{fill:#606060;stroke:#3B86FF;stroke-width:0.25;stroke-miterlimit:10;}
	.st174{fill:url(#SVGID_82_);stroke:url(#SVGID_83_);stroke-width:0.25;stroke-miterlimit:10;}
	.st175{fill:url(#SVGID_84_);stroke:url(#SVGID_85_);stroke-width:0.25;stroke-miterlimit:10;}
	.st176{fill:url(#SVGID_86_);stroke:url(#SVGID_87_);stroke-width:0.25;stroke-miterlimit:10;}
	.st177{fill:url(#SVGID_88_);stroke:url(#SVGID_89_);stroke-width:0.25;stroke-miterlimit:10;}
	.st178{fill:url(#SVGID_90_);stroke:url(#SVGID_91_);stroke-width:0.25;stroke-miterlimit:10;}
	.st179{opacity:0.46;fill:url(#SVGID_92_);}
	.st180{opacity:0.14;fill:#29CB97;stroke:#4C7EF1;stroke-width:0.25;stroke-miterlimit:10;}
	.st181{opacity:0.35;fill:#999999;}
	.st182{fill:none;stroke:#3B86FF;stroke-width:0.1;stroke-miterlimit:10;}
	.st183{opacity:0.14;fill:#4170ED;stroke:#4C7EF1;stroke-width:0.25;stroke-miterlimit:10;}
</style>
<g>
	<linearGradient id="SVGID_1_" gradientUnits="userSpaceOnUse" x1="85.9874" y1="13.4764" x2="61.9815" y2="55.0559">
		<stop  offset="0" style="stop-color:#292E34"/>
		<stop  offset="1" style="stop-color:#29C794"/>
	</linearGradient>
	<path style="fill:none;stroke:url(#SVGID_1_);stroke-width:0.5;stroke-miterlimit:10;stroke-dasharray:1.0027,1.0027;" d="
		M95.94,48.88h-43.9c-0.52,0-0.95-0.42-0.95-0.95V20.61c0-0.52,0.43-0.95,0.95-0.95h43.9c0.52,0,0.95,0.43,0.95,0.95v27.32
		C96.89,48.45,96.46,48.88,95.94,48.88z"/>
</g>
<linearGradient id="SVGID_2_" gradientUnits="userSpaceOnUse" x1="37.6473" y1="15.3101" x2="28.3019" y2="31.4967">
	<stop  offset="0" style="stop-color:#292E34"/>
	<stop  offset="1" style="stop-color:#29CB97"/>
</linearGradient>
<path style="fill:none;stroke:url(#SVGID_2_);stroke-width:0.5;stroke-miterlimit:10;" d="M44.42,27.15H21.53
	c-0.52,0-0.95-0.42-0.95-0.95v-5.6c0-0.52,0.42-0.95,0.95-0.95h22.89c0.52,0,0.95,0.42,0.95,0.95v5.6
	C45.37,26.73,44.94,27.15,44.42,27.15z"/>
<linearGradient id="SVGID_3_" gradientUnits="userSpaceOnUse" x1="37.6473" y1="25.6477" x2="28.3019" y2="41.8343">
	<stop  offset="0" style="stop-color:#292E34"/>
	<stop  offset="1" style="stop-color:#525559"/>
</linearGradient>
<path style="fill:none;stroke:url(#SVGID_3_);stroke-width:0.5;stroke-miterlimit:10;" d="M44.42,37.49H21.53
	c-0.52,0-0.95-0.42-0.95-0.95v-5.6c0-0.52,0.42-0.95,0.95-0.95h22.89c0.52,0,0.95,0.42,0.95,0.95v5.6
	C45.37,37.06,44.94,37.49,44.42,37.49z"/>
<linearGradient id="SVGID_4_" gradientUnits="userSpaceOnUse" x1="37.6473" y1="35.9852" x2="28.3019" y2="52.1719">
	<stop  offset="0" style="stop-color:#292E34"/>
	<stop  offset="1" style="stop-color:#525559"/>
</linearGradient>
<path style="fill:none;stroke:url(#SVGID_4_);stroke-width:0.5;stroke-miterlimit:10;" d="M44.42,47.83H21.53
	c-0.52,0-0.95-0.42-0.95-0.95v-5.6c0-0.52,0.42-0.95,0.95-0.95h22.89c0.52,0,0.95,0.42,0.95,0.95v5.6
	C45.37,47.4,44.94,47.83,44.42,47.83z"/>
<g>
	<g>
		<path class="st82" d="M27.9,31.8h2.77v0.34h-1.19v3.04h-0.38v-3.04H27.9V31.8z"/>
		<path class="st82" d="M31.56,31.89c0.06,0.05,0.09,0.11,0.09,0.2c0,0.08-0.03,0.15-0.09,0.2c-0.06,0.05-0.13,0.08-0.2,0.08
			c-0.08,0-0.14-0.03-0.2-0.08c-0.05-0.05-0.08-0.12-0.08-0.2c0-0.09,0.03-0.15,0.08-0.2c0.05-0.05,0.12-0.08,0.2-0.08
			S31.51,31.84,31.56,31.89z M31.17,32.74h0.38v2.45h-0.38V32.74z"/>
		<path class="st82" d="M32.91,31.95v0.79h0.61v0.32h-0.61v1.56c0,0.09,0.02,0.16,0.05,0.19c0.03,0.04,0.09,0.06,0.18,0.06h0.31
			v0.32h-0.37c-0.2,0-0.35-0.05-0.43-0.16c-0.08-0.09-0.12-0.23-0.12-0.42v-1.56h-0.49v-0.32h0.49V32.1L32.91,31.95z"/>
		<path class="st82" d="M34.01,31.74h0.37v3.45h-0.37V31.74z"/>
		<path class="st82" d="M36.95,33.07c0.18,0.24,0.27,0.57,0.28,1H35.3c0.02,0.28,0.09,0.49,0.22,0.64c0.13,0.15,0.32,0.23,0.55,0.23
			c0.2,0,0.36-0.05,0.49-0.15c0.1-0.08,0.18-0.21,0.25-0.38h0.38c-0.06,0.23-0.17,0.43-0.33,0.58c-0.21,0.18-0.47,0.27-0.78,0.27
			c-0.35,0-0.63-0.12-0.84-0.35c-0.21-0.23-0.32-0.55-0.32-0.95c0-0.37,0.1-0.67,0.31-0.9c0.21-0.26,0.49-0.38,0.84-0.38
			C36.45,32.67,36.75,32.8,36.95,33.07z M35.54,33.2c-0.13,0.14-0.21,0.33-0.23,0.57h1.53c-0.05-0.52-0.3-0.79-0.77-0.79
			C35.85,32.99,35.67,33.06,35.54,33.2z"/>
	</g>
</g>
<g>
	<g>
		<path class="st82" d="M27.9,42.39h2.77v0.34h-1.19v3.04h-0.38v-3.04H27.9V42.39z"/>
		<path class="st82" d="M31.56,42.48c0.06,0.05,0.09,0.11,0.09,0.2c0,0.08-0.03,0.15-0.09,0.2c-0.06,0.05-0.13,0.08-0.2,0.08
			c-0.08,0-0.14-0.03-0.2-0.08c-0.05-0.05-0.08-0.12-0.08-0.2c0-0.09,0.03-0.15,0.08-0.2c0.05-0.05,0.12-0.08,0.2-0.08
			S31.51,42.43,31.56,42.48z M31.17,43.32h0.38v2.45h-0.38V43.32z"/>
		<path class="st82" d="M32.91,42.53v0.79h0.61v0.32h-0.61v1.56c0,0.09,0.02,0.16,0.05,0.19c0.03,0.04,0.09,0.06,0.18,0.06h0.31
			v0.32h-0.37c-0.2,0-0.35-0.05-0.43-0.16c-0.08-0.09-0.12-0.23-0.12-0.42v-1.56h-0.49v-0.32h0.49v-0.63L32.91,42.53z"/>
		<path class="st82" d="M34.01,42.32h0.37v3.45h-0.37V42.32z"/>
		<path class="st82" d="M36.95,43.65c0.18,0.24,0.27,0.57,0.28,1H35.3c0.02,0.28,0.09,0.49,0.22,0.64c0.13,0.15,0.32,0.23,0.55,0.23
			c0.2,0,0.36-0.05,0.49-0.15c0.1-0.08,0.18-0.21,0.25-0.38h0.38c-0.06,0.23-0.17,0.43-0.33,0.58c-0.21,0.18-0.47,0.27-0.78,0.27
			c-0.35,0-0.63-0.12-0.84-0.35c-0.21-0.23-0.32-0.55-0.32-0.95c0-0.37,0.1-0.67,0.31-0.9c0.21-0.26,0.49-0.38,0.84-0.38
			C36.45,43.26,36.75,43.39,36.95,43.65z M35.54,43.79c-0.13,0.14-0.21,0.33-0.23,0.57h1.53c-0.05-0.52-0.3-0.79-0.77-0.79
			C35.85,43.57,35.67,43.64,35.54,43.79z"/>
	</g>
</g>
<g>
	<g>
		<path class="st1" d="M27.9,21.71h2.77v0.34h-1.19v3.04h-0.38v-3.04H27.9V21.71z"/>
		<path class="st1" d="M31.56,21.8c0.06,0.05,0.09,0.11,0.09,0.2c0,0.08-0.03,0.15-0.09,0.2c-0.06,0.05-0.13,0.08-0.2,0.08
			c-0.08,0-0.14-0.03-0.2-0.08c-0.05-0.05-0.08-0.12-0.08-0.2c0-0.09,0.03-0.15,0.08-0.2c0.05-0.05,0.12-0.08,0.2-0.08
			S31.51,21.75,31.56,21.8z M31.17,22.65h0.38v2.45h-0.38V22.65z"/>
		<path class="st1" d="M32.91,21.86v0.79h0.61v0.32h-0.61v1.56c0,0.09,0.02,0.16,0.05,0.19c0.03,0.04,0.09,0.06,0.18,0.06h0.31v0.32
			h-0.37c-0.2,0-0.35-0.05-0.43-0.16c-0.08-0.09-0.12-0.23-0.12-0.42v-1.56h-0.49v-0.32h0.49v-0.63L32.91,21.86z"/>
		<path class="st1" d="M34.01,21.65h0.37v3.45h-0.37V21.65z"/>
		<path class="st1" d="M36.95,22.98c0.18,0.24,0.27,0.57,0.28,1H35.3c0.02,0.28,0.09,0.49,0.22,0.64c0.13,0.15,0.32,0.23,0.55,0.23
			c0.2,0,0.36-0.05,0.49-0.15c0.1-0.08,0.18-0.21,0.25-0.38h0.38c-0.06,0.23-0.17,0.43-0.33,0.58c-0.21,0.18-0.47,0.27-0.78,0.27
			c-0.35,0-0.63-0.12-0.84-0.35c-0.21-0.23-0.32-0.55-0.32-0.95c0-0.37,0.1-0.67,0.31-0.9c0.21-0.26,0.49-0.38,0.84-0.38
			C36.45,22.58,36.75,22.71,36.95,22.98z M35.54,23.11c-0.13,0.14-0.21,0.33-0.23,0.57h1.53c-0.05-0.52-0.3-0.79-0.77-0.79
			C35.85,22.9,35.67,22.97,35.54,23.11z"/>
	</g>
</g>
<g>
	<g>
		<path class="st82" d="M53.95,26.9h0.62c-0.04-0.09-0.09-0.17-0.15-0.25l0.11-0.04c0.05,0.07,0.11,0.17,0.16,0.29h0.58v0.12h-0.24
			c-0.07,0.26-0.19,0.48-0.33,0.65c0.16,0.15,0.36,0.27,0.6,0.36l-0.06,0.1c-0.25-0.1-0.46-0.23-0.62-0.38
			c-0.17,0.17-0.39,0.3-0.64,0.38l-0.06-0.1c0.25-0.07,0.46-0.19,0.62-0.35c-0.17-0.19-0.29-0.4-0.36-0.66h-0.23V26.9z M54.29,27.02
			c0.06,0.22,0.17,0.41,0.33,0.58c0.13-0.16,0.23-0.35,0.3-0.58H54.29z"/>
		<path class="st82" d="M55.71,27.08h0.81v0.11c-0.09,0.07-0.2,0.14-0.33,0.22v0.11h0.59v0.11h-0.59v0.35
			c0,0.09-0.04,0.14-0.13,0.14h-0.19l-0.03-0.11c0.07,0,0.13,0,0.17,0c0.04,0,0.06-0.02,0.06-0.07v-0.31h-0.63v-0.11h0.63v-0.16
			c0.11-0.06,0.21-0.12,0.28-0.17h-0.65V27.08z M56.75,26.79v0.36h-0.11v-0.25h-1.06v0.25h-0.11v-0.36h0.59
			c-0.02-0.06-0.04-0.11-0.07-0.16l0.12-0.02c0.02,0.05,0.04,0.11,0.06,0.18H56.75z"/>
		<path class="st82" d="M57.16,26.63h0.11v0.31h0.17v0.11h-0.17v0.13c0.07,0.08,0.15,0.17,0.22,0.27l-0.06,0.1
			c-0.06-0.1-0.12-0.19-0.16-0.25v0.82h-0.11V27.3c-0.05,0.16-0.11,0.3-0.19,0.43l-0.05-0.13c0.11-0.16,0.18-0.34,0.23-0.55h-0.18
			v-0.11h0.18V26.63z M57.7,27.39c-0.05,0.22-0.12,0.42-0.21,0.59l-0.09-0.07c0.09-0.17,0.16-0.35,0.2-0.55L57.7,27.39z
			 M57.66,28.11L57.63,28C57.7,28,57.74,28,57.77,28c0.04,0,0.06-0.02,0.06-0.07v-0.7h-0.37v-0.11h0.85v0.11h-0.37v0.73
			c0,0.1-0.04,0.15-0.13,0.15H57.66z M57.55,26.72h0.69v0.11h-0.69V26.72z M58.15,27.36c0.06,0.18,0.12,0.38,0.16,0.59L58.21,28
			c-0.05-0.23-0.1-0.43-0.16-0.61L58.15,27.36z"/>
		<path class="st82" d="M59.16,27.03c0.19,0.15,0.4,0.27,0.65,0.35l-0.05,0.1c-0.25-0.09-0.46-0.21-0.63-0.36
			c-0.16,0.14-0.37,0.25-0.63,0.36l-0.05-0.1c0.26-0.1,0.48-0.21,0.65-0.35H59.16z M58.68,26.87c-0.04,0.08-0.08,0.16-0.13,0.23
			l-0.09-0.06c0.09-0.12,0.16-0.26,0.2-0.41l0.11,0.02c-0.01,0.03-0.02,0.07-0.04,0.12h0.4v0.1H58.9c0.03,0.06,0.05,0.12,0.06,0.16
			l-0.1,0.04c-0.02-0.07-0.04-0.14-0.07-0.2H58.68z M59.59,27.59c-0.04,0.14-0.09,0.26-0.14,0.37h0.32v0.11H58.5v-0.11h0.83
			c0.06-0.11,0.11-0.24,0.16-0.4L59.59,27.59z M58.76,27.58c0.04,0.09,0.08,0.19,0.12,0.31l-0.1,0.03c-0.03-0.11-0.07-0.2-0.12-0.3
			L58.76,27.58z M58.74,27.39h0.78v0.1h-0.78V27.39z M59.11,27.55c0.04,0.1,0.07,0.21,0.09,0.33l-0.1,0.03
			c-0.03-0.11-0.06-0.22-0.1-0.32L59.11,27.55z M59.31,26.87c-0.03,0.06-0.06,0.12-0.09,0.16l-0.09-0.06
			c0.07-0.11,0.12-0.22,0.15-0.35l0.1,0.02c-0.01,0.03-0.02,0.07-0.04,0.12h0.44v0.1h-0.24c0.03,0.06,0.06,0.12,0.08,0.17l-0.1,0.04
			c-0.03-0.08-0.06-0.15-0.09-0.21H59.31z"/>
		<path class="st82" d="M59.98,27.26h0.31v-0.63h0.11v0.63h0.91v0.11h-0.5c0.06,0.26,0.23,0.47,0.51,0.61l-0.06,0.11
			c-0.3-0.17-0.49-0.42-0.55-0.72h-0.31v0.59c0.11-0.03,0.23-0.07,0.34-0.11l0.03,0.11c-0.15,0.06-0.31,0.1-0.47,0.15L60.25,28
			c0.02-0.01,0.03-0.03,0.03-0.06v-0.57h-0.31V27.26z M61.15,26.73c-0.12,0.15-0.3,0.28-0.54,0.4l-0.06-0.09
			c0.24-0.11,0.42-0.24,0.54-0.38L61.15,26.73z"/>
		<path class="st82" d="M61.7,27.16v0.13c-0.01,0.35-0.06,0.62-0.16,0.83l-0.08-0.08c0.09-0.18,0.13-0.43,0.14-0.76v-0.53h0.58
			c-0.02-0.05-0.04-0.08-0.06-0.12l0.11-0.02c0.02,0.04,0.04,0.09,0.05,0.14h0.52v0.11h-1.1v0.19h0.25v-0.13h0.11v0.13h0.4v-0.13
			h0.11v0.13h0.23v0.11h-0.23v0.26h-0.61v-0.26H61.7z M61.78,27.53h0.88v0.09c-0.09,0.11-0.19,0.21-0.31,0.29
			c0.14,0.06,0.29,0.11,0.47,0.13l-0.05,0.1c-0.21-0.04-0.39-0.1-0.53-0.17c-0.15,0.08-0.33,0.14-0.53,0.17l-0.05-0.1
			c0.18-0.03,0.33-0.07,0.47-0.13c-0.11-0.08-0.2-0.17-0.27-0.27h-0.09V27.53z M61.99,27.63c0.07,0.09,0.16,0.16,0.26,0.22
			c0.11-0.06,0.2-0.13,0.28-0.22H61.99z M62.06,27.16v0.16h0.4v-0.16H62.06z"/>
	</g>
	<g>
		<g>
			<path class="st0" d="M54.53,23.58h1.27v0.15h-0.55v1.4h-0.18v-1.4h-0.55V23.58z"/>
			<path class="st0" d="M56.21,23.62c0.03,0.02,0.04,0.05,0.04,0.09c0,0.04-0.01,0.07-0.04,0.09c-0.03,0.02-0.06,0.04-0.09,0.04
				c-0.03,0-0.07-0.01-0.09-0.04c-0.02-0.02-0.04-0.06-0.04-0.09c0-0.04,0.01-0.07,0.04-0.09c0.02-0.02,0.06-0.04,0.09-0.04
				S56.19,23.6,56.21,23.62z M56.03,24.01h0.17v1.12h-0.17V24.01z"/>
			<path class="st0" d="M56.83,23.64v0.36h0.28v0.15h-0.28v0.71c0,0.04,0.01,0.07,0.02,0.09c0.02,0.02,0.04,0.03,0.08,0.03h0.14
				v0.15h-0.17c-0.09,0-0.16-0.02-0.2-0.07c-0.04-0.04-0.05-0.11-0.05-0.19v-0.71h-0.23v-0.15h0.23v-0.29L56.83,23.64z"/>
			<path class="st0" d="M57.34,23.55h0.17v1.58h-0.17V23.55z"/>
			<path class="st0" d="M58.69,24.16c0.08,0.11,0.13,0.26,0.13,0.46h-0.89c0.01,0.13,0.04,0.23,0.1,0.29
				c0.06,0.07,0.14,0.1,0.25,0.1c0.09,0,0.17-0.02,0.22-0.07c0.05-0.04,0.08-0.1,0.11-0.18h0.17c-0.03,0.11-0.08,0.2-0.15,0.27
				c-0.1,0.08-0.22,0.13-0.36,0.13c-0.16,0-0.29-0.05-0.39-0.16c-0.1-0.11-0.15-0.25-0.15-0.43c0-0.17,0.05-0.31,0.14-0.41
				c0.1-0.12,0.22-0.18,0.39-0.18C58.46,23.98,58.59,24.04,58.69,24.16z M58.04,24.22c-0.06,0.06-0.09,0.15-0.11,0.26h0.7
				c-0.02-0.24-0.14-0.36-0.35-0.36C58.18,24.12,58.1,24.15,58.04,24.22z"/>
		</g>
	</g>
	<rect x="54.13" y="22.86" class="st169" width="13.47" height="2.78"/>
</g>
<g>
	<g>
		<path class="st82" d="M53.95,34.84h0.62c-0.04-0.09-0.09-0.17-0.15-0.25l0.11-0.04c0.05,0.07,0.11,0.17,0.16,0.29h0.58v0.12h-0.24
			c-0.07,0.26-0.19,0.48-0.33,0.65c0.16,0.15,0.36,0.27,0.6,0.36l-0.06,0.1c-0.25-0.1-0.46-0.23-0.62-0.38
			c-0.17,0.17-0.39,0.3-0.64,0.38l-0.06-0.1c0.25-0.07,0.46-0.19,0.62-0.35c-0.17-0.19-0.29-0.4-0.36-0.66h-0.23V34.84z
			 M54.29,34.95c0.06,0.22,0.17,0.41,0.33,0.58c0.13-0.16,0.23-0.35,0.3-0.58H54.29z"/>
		<path class="st82" d="M55.71,35.02h0.81v0.11c-0.09,0.07-0.2,0.14-0.33,0.22v0.11h0.59v0.11h-0.59v0.35
			c0,0.09-0.04,0.14-0.13,0.14h-0.19l-0.03-0.11c0.07,0,0.13,0,0.17,0c0.04,0,0.06-0.02,0.06-0.07v-0.31h-0.63v-0.11h0.63V35.3
			c0.11-0.06,0.21-0.12,0.28-0.17h-0.65V35.02z M56.75,34.73v0.36h-0.11v-0.25h-1.06v0.25h-0.11v-0.36h0.59
			c-0.02-0.06-0.04-0.11-0.07-0.16l0.12-0.02c0.02,0.05,0.04,0.11,0.06,0.18H56.75z"/>
		<path class="st82" d="M57.16,34.56h0.11v0.31h0.17v0.11h-0.17v0.13c0.07,0.08,0.15,0.17,0.22,0.27l-0.06,0.1
			c-0.06-0.1-0.12-0.19-0.16-0.25v0.82h-0.11v-0.82c-0.05,0.16-0.11,0.3-0.19,0.43l-0.05-0.13c0.11-0.16,0.18-0.34,0.23-0.55h-0.18
			v-0.11h0.18V34.56z M57.7,35.33c-0.05,0.22-0.12,0.42-0.21,0.59l-0.09-0.07c0.09-0.17,0.16-0.35,0.2-0.55L57.7,35.33z
			 M57.66,36.04l-0.02-0.11c0.06,0,0.11,0.01,0.14,0.01c0.04,0,0.06-0.02,0.06-0.07v-0.7h-0.37v-0.11h0.85v0.11h-0.37v0.73
			c0,0.1-0.04,0.15-0.13,0.15H57.66z M57.55,34.66h0.69v0.11h-0.69V34.66z M58.15,35.3c0.06,0.18,0.12,0.38,0.16,0.59l-0.1,0.05
			c-0.05-0.23-0.1-0.43-0.16-0.61L58.15,35.3z"/>
		<path class="st82" d="M59.16,34.97c0.19,0.15,0.4,0.27,0.65,0.35l-0.05,0.1c-0.25-0.09-0.46-0.21-0.63-0.36
			c-0.16,0.14-0.37,0.25-0.63,0.36l-0.05-0.1c0.26-0.1,0.48-0.21,0.65-0.35H59.16z M58.68,34.8c-0.04,0.08-0.08,0.16-0.13,0.23
			l-0.09-0.06c0.09-0.12,0.16-0.26,0.2-0.41l0.11,0.02c-0.01,0.03-0.02,0.07-0.04,0.12h0.4v0.1H58.9c0.03,0.06,0.05,0.12,0.06,0.16
			L58.86,35c-0.02-0.07-0.04-0.14-0.07-0.2H58.68z M59.59,35.53c-0.04,0.14-0.09,0.26-0.14,0.37h0.32V36H58.5v-0.11h0.83
			c0.06-0.11,0.11-0.24,0.16-0.4L59.59,35.53z M58.76,35.52c0.04,0.09,0.08,0.19,0.12,0.31l-0.1,0.03c-0.03-0.11-0.07-0.2-0.12-0.3
			L58.76,35.52z M58.74,35.33h0.78v0.1h-0.78V35.33z M59.11,35.48c0.04,0.1,0.07,0.21,0.09,0.33l-0.1,0.03
			c-0.03-0.11-0.06-0.22-0.1-0.32L59.11,35.48z M59.31,34.8c-0.03,0.06-0.06,0.12-0.09,0.16l-0.09-0.06
			c0.07-0.11,0.12-0.22,0.15-0.35l0.1,0.02c-0.01,0.03-0.02,0.07-0.04,0.12h0.44v0.1h-0.24c0.03,0.06,0.06,0.12,0.08,0.17l-0.1,0.04
			c-0.03-0.08-0.06-0.15-0.09-0.21H59.31z"/>
		<path class="st82" d="M59.98,35.19h0.31v-0.63h0.11v0.63h0.91v0.11h-0.5c0.06,0.26,0.23,0.47,0.51,0.61l-0.06,0.11
			c-0.3-0.17-0.49-0.42-0.55-0.72h-0.31v0.59c0.11-0.03,0.23-0.07,0.34-0.11l0.03,0.11c-0.15,0.06-0.31,0.1-0.47,0.15l-0.03-0.11
			c0.02-0.01,0.03-0.03,0.03-0.06v-0.57h-0.31V35.19z M61.15,34.66c-0.12,0.15-0.3,0.28-0.54,0.4l-0.06-0.09
			c0.24-0.11,0.42-0.24,0.54-0.38L61.15,34.66z"/>
		<path class="st82" d="M61.7,35.09v0.13c-0.01,0.35-0.06,0.62-0.16,0.83l-0.08-0.08c0.09-0.18,0.13-0.43,0.14-0.76v-0.53h0.58
			c-0.02-0.05-0.04-0.08-0.06-0.12l0.11-0.02c0.02,0.04,0.04,0.09,0.05,0.14h0.52v0.11h-1.1v0.19h0.25v-0.13h0.11v0.13h0.4v-0.13
			h0.11v0.13h0.23v0.11h-0.23v0.26h-0.61v-0.26H61.7z M61.78,35.46h0.88v0.09c-0.09,0.11-0.19,0.21-0.31,0.29
			c0.14,0.06,0.29,0.11,0.47,0.13l-0.05,0.1c-0.21-0.04-0.39-0.1-0.53-0.17c-0.15,0.08-0.33,0.14-0.53,0.17l-0.05-0.1
			c0.18-0.03,0.33-0.07,0.47-0.13c-0.11-0.08-0.2-0.17-0.27-0.27h-0.09V35.46z M61.99,35.56c0.07,0.09,0.16,0.16,0.26,0.22
			c0.11-0.06,0.2-0.13,0.28-0.22H61.99z M62.06,35.09v0.16h0.4v-0.16H62.06z"/>
	</g>
	<g>
		<g>
			<path class="st0" d="M54.53,31.51h1.27v0.15h-0.55v1.4h-0.18v-1.4h-0.55V31.51z"/>
			<path class="st0" d="M56.21,31.55c0.03,0.02,0.04,0.05,0.04,0.09c0,0.04-0.01,0.07-0.04,0.09c-0.03,0.02-0.06,0.04-0.09,0.04
				c-0.03,0-0.07-0.01-0.09-0.04c-0.02-0.02-0.04-0.06-0.04-0.09c0-0.04,0.01-0.07,0.04-0.09c0.02-0.02,0.06-0.04,0.09-0.04
				S56.19,31.53,56.21,31.55z M56.03,31.94h0.17v1.12h-0.17V31.94z"/>
			<path class="st0" d="M56.83,31.58v0.36h0.28v0.15h-0.28v0.71c0,0.04,0.01,0.07,0.02,0.09c0.02,0.02,0.04,0.03,0.08,0.03h0.14
				v0.15h-0.17c-0.09,0-0.16-0.02-0.2-0.07c-0.04-0.04-0.05-0.11-0.05-0.19v-0.71h-0.23v-0.15h0.23v-0.29L56.83,31.58z"/>
			<path class="st0" d="M57.34,31.48h0.17v1.58h-0.17V31.48z"/>
			<path class="st0" d="M58.69,32.09c0.08,0.11,0.13,0.26,0.13,0.46h-0.89c0.01,0.13,0.04,0.23,0.1,0.29
				c0.06,0.07,0.14,0.1,0.25,0.1c0.09,0,0.17-0.02,0.22-0.07c0.05-0.04,0.08-0.1,0.11-0.18h0.17c-0.03,0.11-0.08,0.2-0.15,0.27
				c-0.1,0.08-0.22,0.13-0.36,0.13c-0.16,0-0.29-0.05-0.39-0.16c-0.1-0.11-0.15-0.25-0.15-0.43c0-0.17,0.05-0.31,0.14-0.41
				c0.1-0.12,0.22-0.18,0.39-0.18C58.46,31.91,58.59,31.97,58.69,32.09z M58.04,32.15c-0.06,0.06-0.09,0.15-0.11,0.26h0.7
				c-0.02-0.24-0.14-0.36-0.35-0.36C58.18,32.06,58.1,32.09,58.04,32.15z"/>
		</g>
	</g>
	<rect x="54.13" y="30.79" class="st169" width="13.47" height="2.78"/>
</g>
<g>
	<g>
		<path class="st82" d="M53.95,43.2h0.62c-0.04-0.09-0.09-0.17-0.15-0.25l0.11-0.04c0.05,0.07,0.11,0.17,0.16,0.29h0.58v0.12h-0.24
			c-0.07,0.26-0.19,0.48-0.33,0.65c0.16,0.15,0.36,0.27,0.6,0.36l-0.06,0.1c-0.25-0.1-0.46-0.23-0.62-0.38
			c-0.17,0.17-0.39,0.3-0.64,0.38l-0.06-0.1c0.25-0.07,0.46-0.19,0.62-0.35c-0.17-0.19-0.29-0.4-0.36-0.66h-0.23V43.2z M54.29,43.31
			c0.06,0.22,0.17,0.41,0.33,0.58c0.13-0.16,0.23-0.35,0.3-0.58H54.29z"/>
		<path class="st82" d="M55.71,43.38h0.81v0.11c-0.09,0.07-0.2,0.14-0.33,0.22v0.11h0.59v0.11h-0.59v0.35
			c0,0.09-0.04,0.14-0.13,0.14h-0.19l-0.03-0.11c0.07,0,0.13,0,0.17,0c0.04,0,0.06-0.02,0.06-0.07v-0.31h-0.63v-0.11h0.63v-0.16
			c0.11-0.06,0.21-0.12,0.28-0.17h-0.65V43.38z M56.75,43.09v0.36h-0.11V43.2h-1.06v0.25h-0.11v-0.36h0.59
			c-0.02-0.06-0.04-0.11-0.07-0.16l0.12-0.02c0.02,0.05,0.04,0.11,0.06,0.18H56.75z"/>
		<path class="st82" d="M57.16,42.93h0.11v0.31h0.17v0.11h-0.17v0.13c0.07,0.08,0.15,0.17,0.22,0.27l-0.06,0.1
			c-0.06-0.1-0.12-0.19-0.16-0.25v0.82h-0.11V43.6c-0.05,0.16-0.11,0.3-0.19,0.43l-0.05-0.13c0.11-0.16,0.18-0.34,0.23-0.55h-0.18
			v-0.11h0.18V42.93z M57.7,43.69c-0.05,0.22-0.12,0.42-0.21,0.59l-0.09-0.07c0.09-0.17,0.16-0.35,0.2-0.55L57.7,43.69z M57.66,44.4
			l-0.02-0.11c0.06,0,0.11,0.01,0.14,0.01c0.04,0,0.06-0.02,0.06-0.07v-0.7h-0.37v-0.11h0.85v0.11h-0.37v0.73
			c0,0.1-0.04,0.15-0.13,0.15H57.66z M57.55,43.02h0.69v0.11h-0.69V43.02z M58.15,43.66c0.06,0.18,0.12,0.38,0.16,0.59l-0.1,0.05
			c-0.05-0.23-0.1-0.43-0.16-0.61L58.15,43.66z"/>
		<path class="st82" d="M59.16,43.33c0.19,0.15,0.4,0.27,0.65,0.35l-0.05,0.1c-0.25-0.09-0.46-0.21-0.63-0.36
			c-0.16,0.14-0.37,0.25-0.63,0.36l-0.05-0.1c0.26-0.1,0.48-0.21,0.65-0.35H59.16z M58.68,43.17c-0.04,0.08-0.08,0.16-0.13,0.23
			l-0.09-0.06c0.09-0.12,0.16-0.26,0.2-0.41l0.11,0.02c-0.01,0.03-0.02,0.07-0.04,0.12h0.4v0.1H58.9c0.03,0.06,0.05,0.12,0.06,0.16
			l-0.1,0.04c-0.02-0.07-0.04-0.14-0.07-0.2H58.68z M59.59,43.89c-0.04,0.14-0.09,0.26-0.14,0.37h0.32v0.11H58.5v-0.11h0.83
			c0.06-0.11,0.11-0.24,0.16-0.4L59.59,43.89z M58.76,43.88c0.04,0.09,0.08,0.19,0.12,0.31l-0.1,0.03c-0.03-0.11-0.07-0.2-0.12-0.3
			L58.76,43.88z M58.74,43.69h0.78v0.1h-0.78V43.69z M59.11,43.84c0.04,0.1,0.07,0.21,0.09,0.33l-0.1,0.03
			c-0.03-0.11-0.06-0.22-0.1-0.32L59.11,43.84z M59.31,43.17c-0.03,0.06-0.06,0.12-0.09,0.16l-0.09-0.06
			c0.07-0.11,0.12-0.22,0.15-0.35l0.1,0.02c-0.01,0.03-0.02,0.07-0.04,0.12h0.44v0.1h-0.24c0.03,0.06,0.06,0.12,0.08,0.17l-0.1,0.04
			c-0.03-0.08-0.06-0.15-0.09-0.21H59.31z"/>
		<path class="st82" d="M59.98,43.56h0.31v-0.63h0.11v0.63h0.91v0.11h-0.5c0.06,0.26,0.23,0.47,0.51,0.61l-0.06,0.11
			c-0.3-0.17-0.49-0.42-0.55-0.72h-0.31v0.59c0.11-0.03,0.23-0.07,0.34-0.11l0.03,0.11c-0.15,0.06-0.31,0.1-0.47,0.15l-0.03-0.11
			c0.02-0.01,0.03-0.03,0.03-0.06v-0.57h-0.31V43.56z M61.15,43.02c-0.12,0.15-0.3,0.28-0.54,0.4l-0.06-0.09
			c0.24-0.11,0.42-0.24,0.54-0.38L61.15,43.02z"/>
		<path class="st82" d="M61.7,43.45v0.13c-0.01,0.35-0.06,0.62-0.16,0.83l-0.08-0.08c0.09-0.18,0.13-0.43,0.14-0.76v-0.53h0.58
			c-0.02-0.05-0.04-0.08-0.06-0.12l0.11-0.02c0.02,0.04,0.04,0.09,0.05,0.14h0.52v0.11h-1.1v0.19h0.25v-0.13h0.11v0.13h0.4v-0.13
			h0.11v0.13h0.23v0.11h-0.23v0.26h-0.61v-0.26H61.7z M61.78,43.82h0.88v0.09c-0.09,0.11-0.19,0.21-0.31,0.29
			c0.14,0.06,0.29,0.11,0.47,0.13l-0.05,0.1c-0.21-0.04-0.39-0.1-0.53-0.17c-0.15,0.08-0.33,0.14-0.53,0.17l-0.05-0.1
			c0.18-0.03,0.33-0.07,0.47-0.13c-0.11-0.08-0.2-0.17-0.27-0.27h-0.09V43.82z M61.99,43.92c0.07,0.09,0.16,0.16,0.26,0.22
			c0.11-0.06,0.2-0.13,0.28-0.22H61.99z M62.06,43.45v0.16h0.4v-0.16H62.06z"/>
	</g>
	<g>
		<g>
			<path class="st0" d="M54.53,39.87h1.27v0.15h-0.55v1.4h-0.18v-1.4h-0.55V39.87z"/>
			<path class="st0" d="M56.21,39.92c0.03,0.02,0.04,0.05,0.04,0.09c0,0.04-0.01,0.07-0.04,0.09c-0.03,0.02-0.06,0.04-0.09,0.04
				c-0.03,0-0.07-0.01-0.09-0.04c-0.02-0.02-0.04-0.06-0.04-0.09c0-0.04,0.01-0.07,0.04-0.09c0.02-0.02,0.06-0.04,0.09-0.04
				S56.19,39.89,56.21,39.92z M56.03,40.3h0.17v1.12h-0.17V40.3z"/>
			<path class="st0" d="M56.83,39.94v0.36h0.28v0.15h-0.28v0.71c0,0.04,0.01,0.07,0.02,0.09c0.02,0.02,0.04,0.03,0.08,0.03h0.14
				v0.15h-0.17c-0.09,0-0.16-0.02-0.2-0.07c-0.04-0.04-0.05-0.11-0.05-0.19v-0.71h-0.23V40.3h0.23v-0.29L56.83,39.94z"/>
			<path class="st0" d="M57.34,39.84h0.17v1.58h-0.17V39.84z"/>
			<path class="st0" d="M58.69,40.45c0.08,0.11,0.13,0.26,0.13,0.46h-0.89c0.01,0.13,0.04,0.23,0.1,0.29
				c0.06,0.07,0.14,0.1,0.25,0.1c0.09,0,0.17-0.02,0.22-0.07c0.05-0.04,0.08-0.1,0.11-0.18h0.17c-0.03,0.11-0.08,0.2-0.15,0.27
				c-0.1,0.08-0.22,0.13-0.36,0.13c-0.16,0-0.29-0.05-0.39-0.16c-0.1-0.11-0.15-0.25-0.15-0.43c0-0.17,0.05-0.31,0.14-0.41
				c0.1-0.12,0.22-0.18,0.39-0.18C58.46,40.27,58.59,40.33,58.69,40.45z M58.04,40.52c-0.06,0.06-0.09,0.15-0.11,0.26h0.7
				c-0.02-0.24-0.14-0.36-0.35-0.36C58.18,40.42,58.1,40.45,58.04,40.52z"/>
		</g>
	</g>
	<rect x="54.13" y="39.15" class="st169" width="13.47" height="2.78"/>
</g>
</svg>
