<?xml version="1.0" encoding="utf-8"?>
<!-- Generator: Adobe Illustrator 23.0.0, SVG Export Plug-In . SVG Version: 6.00 Build 0)  -->
<svg version="1.1" id="图层_1" xmlns="http://www.w3.org/2000/svg" xmlns:xlink="http://www.w3.org/1999/xlink" x="0px" y="0px"
	 viewBox="0 0 114 65" style="enable-background:new 0 0 114 65;" xml:space="preserve">
<style type="text/css">
	.st0{fill:#4C7EF1;}
	.st1{fill:#29CB97;}
	.st2{fill:#FEC400;}
	.st3{fill:#29C997;}
	.st4{fill:#B35AF1;}
	.st5{fill:#FFFFFF;}
	.st6{fill:#6B6B6B;}
	.st7{fill:#444444;}
	.st8{opacity:0.1;fill:#FFFFFF;}
	.st9{opacity:0.1;}
	.st10{fill:none;stroke:#F24343;stroke-width:14;stroke-miterlimit:10;}
	.st11{fill:none;stroke:#FFFFFF;stroke-width:14;stroke-miterlimit:10;}
	.st12{fill:none;stroke:#4C7EF1;stroke-width:14;stroke-miterlimit:10;}
	.st13{fill:none;stroke:#FEAB05;stroke-width:14;stroke-miterlimit:10;}
	.st14{fill:none;stroke:#29CB97;stroke-width:8;stroke-miterlimit:10;}
	.st15{fill:none;stroke:#29CB97;stroke-width:16;stroke-miterlimit:10;}
	.st16{fill:none;stroke:#FEC400;stroke-width:16;stroke-miterlimit:10;}
	.st17{fill:none;stroke:#FEAB05;stroke-width:16;stroke-miterlimit:10;}
	.st18{fill:none;stroke:#FEC400;stroke-width:8;stroke-miterlimit:10;}
	.st19{fill:none;stroke:#676767;stroke-width:8;stroke-miterlimit:10;}
	.st20{fill:none;stroke:#FEC400;stroke-width:2;stroke-miterlimit:10;}
	.st21{fill:#E6E6E6;}
	.st22{fill:#74D889;}
	.st23{fill:#FFDC70;}
	.st24{fill:#47ABFC;}
	.st25{fill:none;stroke:#FFFFFF;stroke-miterlimit:10;}
	.st26{fill:#4C7EF1;stroke:#0B0C0E;stroke-miterlimit:10;}
	.st27{fill:#FEC400;stroke:#0B0C0E;stroke-miterlimit:10;}
	.st28{fill:none;stroke:#AAA9A9;stroke-miterlimit:10;}
	.st29{fill:none;stroke:#A5A4A4;stroke-width:2;stroke-miterlimit:10;stroke-dasharray:1.0005,4.002;}
	.st30{fill:none;stroke:#4C7EF1;stroke-width:40;stroke-miterlimit:10;}
	.st31{fill:none;stroke:#FEC400;stroke-width:40;stroke-miterlimit:10;}
	.st32{fill:none;stroke:#676767;stroke-width:20;stroke-miterlimit:10;}
	.st33{fill:none;stroke:#FEC400;stroke-width:20;stroke-miterlimit:10;}
	.st34{fill:none;stroke:#29C997;stroke-width:20;stroke-miterlimit:10;}
	.st35{fill:none;stroke:#FFFFFF;stroke-width:20;stroke-miterlimit:10;}
	.st36{fill:none;stroke:#000000;stroke-miterlimit:10;}
	.st37{fill:none;stroke:#FFFFFF;stroke-width:2;stroke-miterlimit:10;stroke-dasharray:3.941,3.941;}
	.st38{opacity:0.5;fill:none;stroke:#FFFFFF;stroke-width:0.4926;stroke-miterlimit:10;stroke-dasharray:3.941,3.941;}
	.st39{fill:none;stroke:#00B091;stroke-width:4;stroke-miterlimit:10;}
	.st40{fill:none;stroke:#EDBF00;stroke-width:4;stroke-miterlimit:10;}
	.st41{fill:#EDBF00;}
	.st42{fill:#00B091;}
	.st43{opacity:0.8;fill:#00B091;}
	.st44{opacity:0.8;fill:#EDBF00;}
	.st45{opacity:0.8;fill:#D85700;}
	.st46{fill:#4C7EF1;stroke:#4C7EF1;stroke-miterlimit:10;}
	.st47{fill:none;stroke:#676767;stroke-width:2;stroke-miterlimit:10;}
	.st48{fill:none;stroke:#FEC400;stroke-width:0.25;stroke-miterlimit:10;}
	.st49{fill:none;stroke:#999999;stroke-width:0.25;stroke-miterlimit:10;}
	.st50{fill:#4C7EF1;stroke:#0B0C0E;stroke-width:0.25;stroke-miterlimit:10;}
	.st51{fill:#FEC400;stroke:#0B0C0E;stroke-width:0.25;stroke-miterlimit:10;}
	.st52{fill:none;stroke:#AAA9A9;stroke-width:0.25;stroke-miterlimit:10;}
	.st53{fill:none;stroke:#A5A4A4;stroke-width:2;stroke-miterlimit:10;stroke-dasharray:0.9678,3.8712;}
	.st54{fill:none;stroke:#4C7EF1;stroke-width:4;stroke-miterlimit:10;}
	.st55{fill:none;stroke:#FEC400;stroke-width:4;stroke-miterlimit:10;}
	.st56{fill:none;stroke:#29C997;stroke-width:2;stroke-miterlimit:10;}
	.st57{fill:none;stroke:#FFFFFF;stroke-width:2;stroke-miterlimit:10;}
	.st58{fill:none;stroke:#000000;stroke-width:0.25;stroke-miterlimit:10;}
	.st59{fill:none;stroke:#FFFFFF;stroke-width:0.25;stroke-miterlimit:10;stroke-dasharray:3.941,3.941;}
	.st60{opacity:0.5;fill:none;stroke:#FFFFFF;stroke-width:0.25;stroke-miterlimit:10;stroke-dasharray:3.941,3.941;}
	.st61{fill:none;stroke:#00B091;stroke-width:0.5;stroke-miterlimit:10;}
	.st62{fill:none;stroke:#EDBF00;stroke-width:0.5;stroke-miterlimit:10;}
	.st63{opacity:0.65;fill:url(#SVGID_1_);}
	.st64{opacity:0.65;fill:url(#SVGID_2_);}
	.st65{opacity:0.65;fill:url(#SVGID_3_);}
	.st66{opacity:0.65;fill:url(#SVGID_4_);}
	.st67{opacity:0.65;fill:url(#SVGID_5_);}
	.st68{opacity:0.65;fill:url(#SVGID_6_);}
	.st69{fill:#292E34;}
	.st70{opacity:0.6;}
	.st71{fill:#334469;}
	.st72{fill:#FEAB05;}
	.st73{opacity:0.4;fill:#0B0C0E;}
	.st74{opacity:0.7;}
	.st75{fill:#F24343;}
	.st76{opacity:0.42;fill:#676767;stroke:#F0F2F8;stroke-miterlimit:10;}
	.st77{fill:none;stroke:#F0F2F8;stroke-width:2;stroke-miterlimit:10;}
	.st78{clip-path:url(#SVGID_8_);}
	.st79{fill:#3B86FF;}
	.st80{opacity:0.36;}
	.st81{fill:#4170ED;}
	.st82{fill:#999999;}
	.st83{opacity:0.15;}
	.st84{clip-path:url(#SVGID_10_);}
	.st85{fill:#1CCC96;}
	.st86{opacity:0.43;}
	.st87{clip-path:url(#SVGID_12_);}
	.st88{fill:#30C3E9;}
	.st89{clip-path:url(#SVGID_14_);}
	.st90{fill:#BCEAEC;}
	.st91{opacity:0.14;}
	.st92{clip-path:url(#SVGID_16_);}
	.st93{fill:#FBC400;}
	.st94{fill:#1F1F1F;}
	.st95{fill:none;stroke:url(#SVGID_17_);stroke-width:0.15;stroke-miterlimit:10;}
	.st96{fill:none;stroke:#00B091;stroke-width:0.15;stroke-miterlimit:10;}
	.st97{fill:none;stroke:url(#SVGID_18_);stroke-width:0.15;stroke-miterlimit:10;}
	.st98{fill:none;stroke:url(#SVGID_19_);stroke-width:0.15;stroke-miterlimit:10;}
	.st99{fill:none;stroke:url(#SVGID_20_);stroke-width:0.15;stroke-miterlimit:10;}
	.st100{fill:none;stroke:url(#SVGID_21_);stroke-width:0.15;stroke-miterlimit:10;}
	.st101{opacity:0.5;fill:#4170ED;}
	.st102{fill:#666666;}
	.st103{fill:none;stroke:#4170ED;stroke-width:0.5;stroke-miterlimit:10;}
	.st104{fill:none;stroke:url(#SVGID_22_);stroke-width:0.5;stroke-miterlimit:10;stroke-dasharray:0.9965,0.9965;}
	.st105{opacity:0.4;}
	.st106{fill:url(#SVGID_23_);stroke:url(#SVGID_24_);stroke-width:0.5;stroke-miterlimit:10;}
	.st107{fill:none;stroke:url(#SVGID_25_);stroke-width:0.5;stroke-miterlimit:10;}
	.st108{fill:url(#SVGID_26_);stroke:url(#SVGID_27_);stroke-width:0.5;stroke-miterlimit:10;}
	.st109{fill:none;stroke:url(#SVGID_28_);stroke-width:0.5;stroke-miterlimit:10;stroke-dasharray:0.9965,0.9965;}
	.st110{fill:url(#SVGID_29_);}
	.st111{fill:none;stroke:url(#SVGID_30_);stroke-width:0.5;stroke-miterlimit:10;stroke-dasharray:0.994,0.994;}
	.st112{fill:none;stroke:url(#SVGID_31_);stroke-width:0.5;stroke-miterlimit:10;}
	.st113{fill:none;stroke:url(#SVGID_32_);stroke-width:0.5;stroke-miterlimit:10;}
	.st114{fill:none;stroke:url(#SVGID_33_);stroke-width:0.5;stroke-miterlimit:10;}
	.st115{fill:url(#SVGID_34_);stroke:url(#SVGID_35_);stroke-width:0.5;stroke-miterlimit:10;}
	.st116{fill:#3885E9;}
	.st117{opacity:0.33;}
	.st118{fill:none;stroke:#999999;stroke-miterlimit:10;}
	.st119{fill:none;stroke:#4170ED;stroke-miterlimit:10;}
	.st120{fill:none;stroke:url(#SVGID_36_);stroke-width:0.5;stroke-miterlimit:10;}
	.st121{fill:url(#SVGID_37_);}
	.st122{opacity:0.3;fill:none;stroke:#4170ED;stroke-miterlimit:10;}
	.st123{opacity:0.87;fill:none;stroke:url(#SVGID_38_);stroke-miterlimit:10;}
	.st124{opacity:0.53;fill:#FFFFFF;}
	.st125{opacity:0.3;fill:none;stroke:#4170ED;stroke-width:0.25;stroke-miterlimit:10;}
	.st126{fill:url(#SVGID_39_);stroke:url(#SVGID_40_);stroke-width:0.25;stroke-miterlimit:10;}
	.st127{fill:url(#SVGID_41_);stroke:url(#SVGID_42_);stroke-width:0.25;stroke-miterlimit:10;}
	.st128{fill:url(#SVGID_43_);stroke:url(#SVGID_44_);stroke-width:0.25;stroke-miterlimit:10;}
	.st129{fill:url(#SVGID_45_);stroke:url(#SVGID_46_);stroke-width:0.25;stroke-miterlimit:10;}
	.st130{clip-path:url(#SVGID_48_);fill:#BFBFBF;}
	.st131{fill:#BFBFBF;}
	.st132{clip-path:url(#SVGID_50_);fill:#BFBFBF;}
	.st133{clip-path:url(#SVGID_52_);fill:#BFBFBF;}
	.st134{clip-path:url(#SVGID_54_);fill:#BFBFBF;}
	.st135{clip-path:url(#SVGID_56_);fill:#BFBFBF;}
	.st136{clip-path:url(#SVGID_58_);fill:#BFBFBF;}
	.st137{fill:none;}
	.st138{fill:#1B3E60;}
	.st139{fill:#31446D;stroke:#4170ED;stroke-width:0.5;stroke-miterlimit:10;}
	.st140{opacity:0.31;fill:#EDBF00;}
	.st141{opacity:0.31;fill:#00B091;}
	.st142{fill:#31446D;stroke:#4C7EF1;stroke-width:0.5;stroke-miterlimit:10;}
	.st143{clip-path:url(#SVGID_60_);fill:#BFBFBF;}
	.st144{clip-path:url(#SVGID_62_);fill:#BFBFBF;}
	.st145{clip-path:url(#SVGID_64_);fill:#BFBFBF;}
	.st146{clip-path:url(#SVGID_66_);fill:#BFBFBF;}
	.st147{clip-path:url(#SVGID_68_);fill:#BFBFBF;}
	.st148{clip-path:url(#SVGID_70_);fill:#BFBFBF;}
	.st149{fill:url(#XMLID_644_);}
	.st150{fill:none;stroke:#4C7EF1;stroke-width:0.25;stroke-miterlimit:10;}
	.st151{opacity:0.5;fill:#4C7EF1;}
	.st152{fill:url(#SVGID_71_);}
	.st153{fill:url(#SVGID_72_);}
	.st154{fill:url(#SVGID_73_);}
	.st155{fill:url(#SVGID_74_);}
	.st156{fill:url(#SVGID_75_);}
	.st157{fill:none;stroke:#F24343;stroke-width:2;stroke-miterlimit:10;}
	.st158{fill:none;stroke:#4C7EF1;stroke-width:2;stroke-miterlimit:10;}
	.st159{fill:none;stroke:#FEAB05;stroke-width:2;stroke-miterlimit:10;}
	.st160{fill:none;stroke:#29CB97;stroke-width:2;stroke-miterlimit:10;}
	.st161{opacity:0.42;fill:#676767;stroke:#F0F2F8;stroke-width:0.5;stroke-miterlimit:10;}
	.st162{fill:none;stroke:#F0F2F8;stroke-miterlimit:10;}
	.st163{clip-path:url(#SVGID_77_);}
	.st164{opacity:0.56;fill:#4C7EF1;}
	.st165{fill:none;stroke:url(#SVGID_78_);stroke-width:0.5;stroke-miterlimit:10;stroke-dasharray:1.0027,1.0027;}
	.st166{fill:none;stroke:url(#SVGID_79_);stroke-width:0.5;stroke-miterlimit:10;}
	.st167{fill:none;stroke:url(#SVGID_80_);stroke-width:0.5;stroke-miterlimit:10;}
	.st168{fill:none;stroke:url(#SVGID_81_);stroke-width:0.5;stroke-miterlimit:10;}
	.st169{opacity:0.14;fill:none;stroke:#4C7EF1;stroke-width:0.25;stroke-miterlimit:10;}
	.st170{fill:#F2F2F2;}
	.st171{fill:none;stroke:#3B86FF;stroke-width:0.25;stroke-miterlimit:10;}
	.st172{fill:#676767;stroke:#3B86FF;stroke-width:0.25;stroke-miterlimit:10;}
	.st173{fill:#606060;stroke:#3B86FF;stroke-width:0.25;stroke-miterlimit:10;}
	.st174{fill:url(#SVGID_82_);stroke:url(#SVGID_83_);stroke-width:0.25;stroke-miterlimit:10;}
	.st175{fill:url(#SVGID_84_);stroke:url(#SVGID_85_);stroke-width:0.25;stroke-miterlimit:10;}
	.st176{fill:url(#SVGID_86_);stroke:url(#SVGID_87_);stroke-width:0.25;stroke-miterlimit:10;}
	.st177{fill:url(#SVGID_88_);stroke:url(#SVGID_89_);stroke-width:0.25;stroke-miterlimit:10;}
	.st178{fill:url(#SVGID_90_);stroke:url(#SVGID_91_);stroke-width:0.25;stroke-miterlimit:10;}
	.st179{opacity:0.46;fill:url(#SVGID_92_);}
	.st180{opacity:0.14;fill:#29CB97;stroke:#4C7EF1;stroke-width:0.25;stroke-miterlimit:10;}
	.st181{opacity:0.35;fill:#999999;}
	.st182{fill:none;stroke:#3B86FF;stroke-width:0.1;stroke-miterlimit:10;}
	.st183{opacity:0.14;fill:#4170ED;stroke:#4C7EF1;stroke-width:0.25;stroke-miterlimit:10;}
</style>
<g>
	<rect id="XMLID_681_" x="26.69" y="24.84" class="st101" width="20" height="0.5"/>
	<rect id="XMLID_677_" x="21.06" y="32.49" class="st81" width="3.09" height="0.2"/>
	<rect id="XMLID_673_" x="21.06" y="41.72" class="st81" width="3.09" height="0.2"/>
	<rect id="XMLID_664_" x="26.69" y="19" class="st101" width="0.4" height="6.19"/>
	<g>
		<g>
			<path class="st102" d="M30.25,23.22v-2.15h0.3l0.69,1.09c0.16,0.25,0.28,0.48,0.39,0.7l0.01,0c-0.03-0.29-0.03-0.55-0.03-0.88
				v-0.9h0.26v2.15h-0.28l-0.68-1.09c-0.15-0.24-0.29-0.48-0.4-0.72l-0.01,0c0.02,0.27,0.02,0.53,0.02,0.89v0.92H30.25z"/>
			<path class="st102" d="M34.19,22.12c0,0.74-0.45,1.13-1,1.13c-0.57,0-0.97-0.44-0.97-1.09c0-0.68,0.42-1.13,1-1.13
				C33.81,21.04,34.19,21.49,34.19,22.12z M32.52,22.16c0,0.46,0.25,0.87,0.69,0.87c0.44,0,0.69-0.41,0.69-0.89
				c0-0.43-0.22-0.87-0.69-0.87C32.75,21.26,32.52,21.69,32.52,22.16z"/>
			<path class="st102" d="M34.36,23.05c0-0.12,0.08-0.2,0.19-0.2s0.19,0.08,0.19,0.2c0,0.12-0.07,0.2-0.19,0.2
				C34.44,23.26,34.36,23.17,34.36,23.05z"/>
			<path class="st102" d="M35.61,21.41L35.61,21.41l-0.37,0.19l-0.05-0.21l0.45-0.24h0.24v2.07h-0.27V21.41z"/>
		</g>
	</g>
	<g>
		<g>
			<path class="st42" d="M41.49,21.35h-0.61v1.87H40.6v-1.87H40v-0.24h1.49V21.35z"/>
			<path class="st42" d="M41.74,21.18c0-0.05,0.02-0.09,0.05-0.12s0.07-0.05,0.12-0.05c0.05,0,0.09,0.02,0.12,0.05
				c0.03,0.03,0.05,0.07,0.05,0.12c0,0.05-0.02,0.09-0.05,0.12s-0.07,0.05-0.12,0.05s-0.09-0.02-0.12-0.05S41.74,21.23,41.74,21.18z
				 M41.77,23.22v-1.51h0.27v1.51H41.77z"/>
			<path class="st42" d="M43.24,23.21c-0.06,0.03-0.14,0.05-0.24,0.05c-0.27,0-0.4-0.15-0.4-0.45v-0.87h-0.26v-0.22h0.26v-0.36
				l0.27-0.08v0.45h0.37v0.22h-0.37v0.82c0,0.1,0.02,0.17,0.05,0.21c0.03,0.04,0.09,0.06,0.17,0.06c0.06,0,0.11-0.02,0.16-0.05
				V23.21z"/>
			<path class="st42" d="M43.56,23.22v-2.23h0.27v2.23H43.56z"/>
			<path class="st42" d="M45.53,22.54h-1.05c0,0.16,0.05,0.29,0.13,0.37s0.2,0.13,0.35,0.13c0.17,0,0.32-0.05,0.46-0.16v0.24
				c-0.13,0.09-0.31,0.14-0.53,0.14c-0.22,0-0.39-0.07-0.51-0.21c-0.12-0.14-0.18-0.33-0.18-0.58c0-0.23,0.07-0.42,0.2-0.57
				c0.13-0.15,0.3-0.23,0.5-0.23c0.2,0,0.35,0.06,0.46,0.19s0.17,0.3,0.17,0.53V22.54z M45.26,22.32c0-0.14-0.03-0.24-0.1-0.32
				c-0.06-0.07-0.15-0.11-0.27-0.11c-0.11,0-0.2,0.04-0.28,0.12c-0.08,0.08-0.13,0.18-0.15,0.31H45.26z"/>
		</g>
	</g>
	<rect x="32.25" y="24.89" class="st81" width="1.45" height="0.4"/>
	<rect x="21.01" y="18.93" class="st164" width="0.2" height="27.13"/>
	<g>
		<g>
			<g>
				<path class="st1" d="M56.1,22.44h1.78v0.22h-0.77v1.96h-0.25v-1.96H56.1V22.44z"/>
				<path class="st1" d="M58.45,22.49c0.04,0.03,0.05,0.07,0.05,0.13c0,0.05-0.02,0.09-0.05,0.13c-0.04,0.03-0.08,0.05-0.13,0.05
					c-0.05,0-0.09-0.02-0.13-0.05c-0.03-0.03-0.05-0.08-0.05-0.13c0-0.06,0.02-0.1,0.05-0.13c0.03-0.03,0.08-0.05,0.13-0.05
					C58.38,22.44,58.42,22.46,58.45,22.49z M58.2,23.04h0.24v1.58H58.2V23.04z"/>
				<path class="st1" d="M59.32,22.53v0.51h0.39v0.2h-0.39v1c0,0.06,0.01,0.1,0.03,0.12c0.02,0.03,0.06,0.04,0.12,0.04h0.2v0.2
					h-0.24c-0.13,0-0.22-0.03-0.28-0.1c-0.05-0.06-0.08-0.15-0.08-0.27v-1h-0.32v-0.2h0.32v-0.41L59.32,22.53z"/>
				<path class="st1" d="M60.03,22.39h0.24v2.22h-0.24V22.39z"/>
				<path class="st1" d="M61.92,23.25c0.12,0.15,0.18,0.37,0.18,0.64h-1.24c0.01,0.18,0.06,0.32,0.14,0.41
					c0.09,0.1,0.2,0.15,0.35,0.15c0.13,0,0.23-0.03,0.31-0.1c0.06-0.05,0.12-0.14,0.16-0.25h0.24c-0.04,0.15-0.11,0.27-0.21,0.37
					c-0.13,0.12-0.3,0.18-0.5,0.18c-0.23,0-0.41-0.07-0.54-0.22c-0.14-0.15-0.21-0.35-0.21-0.61c0-0.24,0.07-0.43,0.2-0.58
					c0.13-0.16,0.31-0.25,0.54-0.25C61.6,22.99,61.79,23.08,61.92,23.25z M61.02,23.33c-0.08,0.09-0.13,0.21-0.15,0.37h0.98
					c-0.03-0.34-0.2-0.51-0.5-0.51C61.21,23.2,61.1,23.24,61.02,23.33z"/>
			</g>
		</g>
		<rect x="48.34" y="21.03" class="st180" width="21.53" height="4.45"/>
	</g>
	<g>
		<g>
			<g>
				<path class="st1" d="M79.23,22.44h1.78v0.22h-0.77v1.96h-0.25v-1.96h-0.77V22.44z"/>
				<path class="st1" d="M81.58,22.49c0.04,0.03,0.05,0.07,0.05,0.13c0,0.05-0.02,0.09-0.05,0.13c-0.04,0.03-0.08,0.05-0.13,0.05
					c-0.05,0-0.09-0.02-0.13-0.05c-0.03-0.03-0.05-0.08-0.05-0.13c0-0.06,0.02-0.1,0.05-0.13c0.03-0.03,0.08-0.05,0.13-0.05
					S81.55,22.46,81.58,22.49z M81.33,23.04h0.24v1.58h-0.24V23.04z"/>
				<path class="st1" d="M82.45,22.53v0.51h0.39v0.2h-0.39v1c0,0.06,0.01,0.1,0.03,0.12c0.02,0.03,0.06,0.04,0.12,0.04h0.2v0.2
					h-0.24c-0.13,0-0.22-0.03-0.28-0.1c-0.05-0.06-0.08-0.15-0.08-0.27v-1h-0.32v-0.2h0.32v-0.41L82.45,22.53z"/>
				<path class="st1" d="M83.16,22.39h0.24v2.22h-0.24V22.39z"/>
				<path class="st1" d="M85.05,23.25c0.12,0.15,0.18,0.37,0.18,0.64h-1.24c0.01,0.18,0.06,0.32,0.14,0.41
					c0.09,0.1,0.2,0.15,0.35,0.15c0.13,0,0.23-0.03,0.31-0.1c0.06-0.05,0.12-0.14,0.16-0.25h0.24c-0.04,0.15-0.11,0.27-0.21,0.37
					c-0.13,0.12-0.3,0.18-0.5,0.18c-0.23,0-0.41-0.07-0.54-0.22c-0.14-0.15-0.21-0.35-0.21-0.61c0-0.24,0.07-0.43,0.2-0.58
					c0.13-0.16,0.31-0.25,0.54-0.25C84.73,22.99,84.92,23.08,85.05,23.25z M84.14,23.33c-0.08,0.09-0.13,0.21-0.15,0.37h0.98
					c-0.03-0.34-0.2-0.51-0.5-0.51C84.34,23.2,84.23,23.24,84.14,23.33z"/>
			</g>
		</g>
		<rect x="71.46" y="21.03" class="st180" width="21.53" height="4.45"/>
	</g>
	<g>
		<g>
			<g>
				<path class="st82" d="M29.79,30.86h0.88c-0.06-0.12-0.13-0.24-0.21-0.34l0.15-0.06c0.08,0.1,0.15,0.24,0.22,0.4h0.81v0.16H31.3
					c-0.1,0.36-0.26,0.67-0.47,0.91c0.22,0.2,0.5,0.38,0.84,0.51l-0.08,0.14c-0.35-0.14-0.64-0.32-0.87-0.53
					c-0.24,0.24-0.54,0.42-0.9,0.53l-0.08-0.14c0.36-0.1,0.65-0.27,0.88-0.49c-0.24-0.26-0.41-0.57-0.51-0.92h-0.33V30.86z
					 M30.26,31.03c0.09,0.31,0.25,0.58,0.46,0.81c0.19-0.22,0.33-0.49,0.41-0.81H30.26z"/>
				<path class="st82" d="M32.25,31.12h1.13v0.15c-0.13,0.1-0.28,0.2-0.46,0.31v0.15h0.83v0.16h-0.83v0.49
					c0,0.13-0.06,0.19-0.18,0.19h-0.26l-0.04-0.15c0.1,0,0.18,0,0.24,0c0.05,0,0.08-0.03,0.08-0.1v-0.43h-0.88v-0.16h0.88v-0.22
					c0.16-0.09,0.29-0.17,0.39-0.24h-0.91V31.12z M33.72,30.71v0.51h-0.15v-0.35h-1.49v0.35h-0.15v-0.51h0.83
					c-0.03-0.08-0.06-0.15-0.1-0.22l0.17-0.03c0.03,0.07,0.06,0.16,0.09,0.25H33.72z"/>
				<path class="st82" d="M34.28,30.48h0.15v0.43h0.25v0.16h-0.25v0.18c0.1,0.11,0.2,0.24,0.31,0.38l-0.09,0.14
					c-0.09-0.15-0.16-0.26-0.22-0.35v1.15h-0.15v-1.15c-0.07,0.22-0.15,0.42-0.26,0.6l-0.07-0.18c0.15-0.22,0.26-0.48,0.32-0.77
					h-0.25v-0.16h0.26V30.48z M35.05,31.55c-0.07,0.32-0.16,0.59-0.29,0.83l-0.13-0.09c0.13-0.23,0.23-0.49,0.29-0.77L35.05,31.55z
					 M34.98,32.55l-0.03-0.15c0.09,0.01,0.15,0.01,0.19,0.01c0.06,0,0.09-0.03,0.09-0.1v-0.98h-0.52v-0.16h1.19v0.16h-0.52v1.02
					c0,0.14-0.06,0.2-0.19,0.2H34.98z M34.83,30.61h0.96v0.16h-0.96V30.61z M35.67,31.51c0.09,0.26,0.16,0.53,0.23,0.83l-0.14,0.07
					c-0.07-0.32-0.14-0.6-0.23-0.85L35.67,31.51z"/>
				<path class="st82" d="M37.1,31.05c0.26,0.21,0.57,0.37,0.91,0.49l-0.07,0.14c-0.35-0.13-0.64-0.3-0.89-0.5
					c-0.22,0.19-0.52,0.36-0.89,0.5l-0.07-0.14c0.37-0.14,0.67-0.3,0.91-0.49H37.1z M36.42,30.82c-0.06,0.12-0.12,0.22-0.19,0.32
					l-0.13-0.09c0.13-0.17,0.23-0.37,0.29-0.58l0.15,0.03c-0.01,0.04-0.03,0.1-0.05,0.17h0.56v0.15h-0.3
					c0.04,0.09,0.07,0.16,0.08,0.23l-0.14,0.05c-0.03-0.1-0.06-0.2-0.1-0.28H36.42z M37.69,31.83c-0.05,0.19-0.12,0.36-0.2,0.51
					h0.45v0.15h-1.78v-0.15h1.17c0.08-0.15,0.15-0.34,0.22-0.56L37.69,31.83z M36.53,31.82c0.06,0.12,0.12,0.26,0.16,0.43
					l-0.14,0.04c-0.04-0.15-0.1-0.29-0.16-0.42L36.53,31.82z M36.5,31.55h1.1v0.15h-1.1V31.55z M37.02,31.77
					c0.05,0.14,0.09,0.29,0.13,0.46l-0.14,0.04c-0.04-0.16-0.08-0.31-0.14-0.45L37.02,31.77z M37.31,30.82
					c-0.04,0.09-0.08,0.16-0.12,0.23l-0.13-0.09c0.1-0.15,0.17-0.31,0.22-0.49l0.15,0.03c-0.01,0.04-0.03,0.1-0.05,0.17h0.62v0.15
					h-0.34c0.05,0.09,0.08,0.17,0.11,0.25l-0.14,0.06c-0.04-0.11-0.08-0.21-0.13-0.3H37.31z"/>
				<path class="st82" d="M38.24,31.36h0.43v-0.88h0.15v0.88h1.28v0.16h-0.7c0.09,0.37,0.33,0.65,0.72,0.86l-0.09,0.15
					c-0.43-0.24-0.68-0.58-0.78-1.01h-0.44v0.83c0.16-0.04,0.32-0.09,0.47-0.16l0.04,0.16c-0.21,0.08-0.43,0.15-0.67,0.21
					l-0.05-0.15c0.03-0.02,0.05-0.05,0.05-0.08v-0.8h-0.43V31.36z M39.88,30.62c-0.17,0.2-0.42,0.39-0.76,0.56l-0.09-0.13
					c0.34-0.16,0.59-0.34,0.75-0.54L39.88,30.62z"/>
				<path class="st82" d="M40.65,31.22v0.18c-0.01,0.49-0.08,0.88-0.23,1.17l-0.11-0.11c0.12-0.26,0.19-0.61,0.19-1.06v-0.75h0.81
					c-0.03-0.06-0.05-0.12-0.08-0.16l0.16-0.03c0.03,0.06,0.05,0.12,0.07,0.19h0.72v0.16h-1.54v0.26H41v-0.19h0.15v0.19h0.56v-0.19
					h0.15v0.19h0.33v0.15h-0.33v0.36H41v-0.36H40.65z M40.77,31.74h1.24v0.12c-0.12,0.16-0.27,0.29-0.43,0.4
					c0.19,0.09,0.41,0.15,0.66,0.19l-0.07,0.14c-0.29-0.05-0.54-0.14-0.74-0.24c-0.22,0.11-0.46,0.19-0.74,0.24l-0.07-0.14
					c0.25-0.04,0.47-0.1,0.66-0.19c-0.16-0.11-0.29-0.23-0.38-0.38h-0.13V31.74z M41.06,31.88c0.1,0.12,0.22,0.22,0.36,0.3
					c0.15-0.09,0.28-0.19,0.39-0.3H41.06z M41.15,31.22v0.22h0.56v-0.22H41.15z"/>
			</g>
			<polygon class="st0" points="27.92,30.4 28.21,30.99 28.86,31.09 28.39,31.55 28.5,32.2 27.92,31.89 27.34,32.2 27.45,31.55 
				26.98,31.09 27.63,30.99 			"/>
		</g>
		<rect x="26.99" y="34.63" class="st181" width="66" height="0.11"/>
		<g>
			<g>
				<path class="st82" d="M55.06,30.86h0.88c-0.06-0.12-0.13-0.24-0.21-0.34l0.15-0.06c0.08,0.1,0.15,0.24,0.22,0.4h0.81v0.16h-0.33
					c-0.1,0.36-0.26,0.67-0.47,0.91c0.22,0.2,0.5,0.38,0.84,0.51l-0.08,0.14c-0.35-0.14-0.64-0.32-0.87-0.53
					c-0.24,0.24-0.54,0.42-0.9,0.53l-0.08-0.14c0.36-0.1,0.65-0.27,0.88-0.49c-0.24-0.26-0.41-0.57-0.51-0.92h-0.33V30.86z
					 M55.53,31.03c0.09,0.31,0.25,0.58,0.46,0.81c0.19-0.22,0.33-0.49,0.41-0.81H55.53z"/>
				<path class="st82" d="M57.52,31.12h1.13v0.15c-0.13,0.1-0.28,0.2-0.46,0.31v0.15h0.83v0.16h-0.83v0.49
					c0,0.13-0.06,0.19-0.18,0.19h-0.26l-0.04-0.15c0.1,0,0.18,0,0.24,0c0.05,0,0.08-0.03,0.08-0.1v-0.43h-0.88v-0.16h0.88v-0.22
					c0.16-0.09,0.29-0.17,0.39-0.24h-0.91V31.12z M58.99,30.71v0.51h-0.15v-0.35h-1.49v0.35h-0.15v-0.51h0.83
					c-0.03-0.08-0.06-0.15-0.1-0.22l0.17-0.03c0.03,0.07,0.06,0.16,0.09,0.25H58.99z"/>
				<path class="st82" d="M59.55,30.48h0.15v0.43h0.25v0.16H59.7v0.18c0.1,0.11,0.2,0.24,0.31,0.38l-0.09,0.14
					c-0.09-0.15-0.16-0.26-0.22-0.35v1.15h-0.15v-1.15c-0.07,0.22-0.15,0.42-0.26,0.6l-0.07-0.18c0.15-0.22,0.26-0.48,0.32-0.77
					h-0.25v-0.16h0.26V30.48z M60.31,31.55c-0.07,0.32-0.16,0.59-0.29,0.83l-0.13-0.09c0.13-0.23,0.23-0.49,0.29-0.77L60.31,31.55z
					 M60.25,32.55l-0.03-0.15c0.09,0.01,0.15,0.01,0.19,0.01c0.06,0,0.09-0.03,0.09-0.1v-0.98h-0.52v-0.16h1.19v0.16h-0.52v1.02
					c0,0.14-0.06,0.2-0.19,0.2H60.25z M60.1,30.61h0.96v0.16H60.1V30.61z M60.94,31.51c0.09,0.26,0.16,0.53,0.23,0.83l-0.14,0.07
					c-0.07-0.32-0.14-0.6-0.23-0.85L60.94,31.51z"/>
				<path class="st82" d="M62.37,31.05c0.26,0.21,0.57,0.37,0.91,0.49l-0.07,0.14c-0.35-0.13-0.64-0.3-0.89-0.5
					c-0.22,0.19-0.52,0.36-0.89,0.5l-0.07-0.14c0.37-0.14,0.67-0.3,0.91-0.49H62.37z M61.69,30.82c-0.06,0.12-0.12,0.22-0.19,0.32
					l-0.13-0.09c0.13-0.17,0.23-0.37,0.29-0.58l0.15,0.03c-0.01,0.04-0.03,0.1-0.05,0.17h0.56v0.15H62
					c0.04,0.09,0.07,0.16,0.08,0.23l-0.14,0.05c-0.03-0.1-0.06-0.2-0.1-0.28H61.69z M62.96,31.83c-0.05,0.19-0.12,0.36-0.2,0.51
					h0.45v0.15h-1.78v-0.15h1.17c0.08-0.15,0.15-0.34,0.22-0.56L62.96,31.83z M61.8,31.82c0.06,0.12,0.12,0.26,0.16,0.43l-0.14,0.04
					c-0.04-0.15-0.1-0.29-0.16-0.42L61.8,31.82z M61.77,31.55h1.1v0.15h-1.1V31.55z M62.29,31.77c0.05,0.14,0.09,0.29,0.13,0.46
					l-0.14,0.04c-0.04-0.16-0.08-0.31-0.14-0.45L62.29,31.77z M62.58,30.82c-0.04,0.09-0.08,0.16-0.12,0.23l-0.13-0.09
					c0.1-0.15,0.17-0.31,0.22-0.49l0.15,0.03c-0.01,0.04-0.03,0.1-0.05,0.17h0.62v0.15h-0.34c0.05,0.09,0.08,0.17,0.11,0.25
					l-0.14,0.06c-0.04-0.11-0.08-0.21-0.13-0.3H62.58z"/>
				<path class="st82" d="M63.5,31.36h0.43v-0.88h0.15v0.88h1.28v0.16h-0.7c0.09,0.37,0.33,0.65,0.72,0.86l-0.09,0.15
					c-0.43-0.24-0.68-0.58-0.78-1.01h-0.44v0.83c0.16-0.04,0.32-0.09,0.47-0.16l0.04,0.16c-0.21,0.08-0.43,0.15-0.67,0.21
					l-0.05-0.15c0.03-0.02,0.05-0.05,0.05-0.08v-0.8H63.5V31.36z M65.15,30.62c-0.17,0.2-0.42,0.39-0.76,0.56l-0.09-0.13
					c0.34-0.16,0.59-0.34,0.75-0.54L65.15,30.62z"/>
				<path class="st82" d="M65.92,31.22v0.18c-0.01,0.49-0.08,0.88-0.23,1.17l-0.11-0.11c0.12-0.26,0.19-0.61,0.19-1.06v-0.75h0.81
					c-0.03-0.06-0.05-0.12-0.08-0.16l0.16-0.03c0.03,0.06,0.05,0.12,0.07,0.19h0.72v0.16h-1.54v0.26h0.36v-0.19h0.15v0.19h0.56
					v-0.19h0.15v0.19h0.33v0.15h-0.33v0.36h-0.86v-0.36H65.92z M66.04,31.74h1.24v0.12c-0.12,0.16-0.27,0.29-0.43,0.4
					c0.19,0.09,0.41,0.15,0.66,0.19l-0.07,0.14c-0.29-0.05-0.54-0.14-0.74-0.24c-0.22,0.11-0.46,0.19-0.74,0.24l-0.07-0.14
					c0.25-0.04,0.47-0.1,0.66-0.19c-0.16-0.11-0.29-0.23-0.38-0.38h-0.13V31.74z M66.33,31.88c0.1,0.12,0.22,0.22,0.36,0.3
					c0.15-0.09,0.28-0.19,0.39-0.3H66.33z M66.42,31.22v0.22h0.56v-0.22H66.42z"/>
			</g>
			<circle class="st2" cx="53.04" cy="31.43" r="0.71"/>
		</g>
		<g>
			<g>
				<path class="st82" d="M80.37,30.86h0.88c-0.06-0.12-0.13-0.24-0.21-0.34l0.15-0.06c0.08,0.1,0.15,0.24,0.22,0.4h0.81v0.16h-0.33
					c-0.1,0.36-0.26,0.67-0.47,0.91c0.22,0.2,0.5,0.38,0.84,0.51l-0.08,0.14c-0.35-0.14-0.64-0.32-0.87-0.53
					c-0.24,0.24-0.54,0.42-0.9,0.53l-0.08-0.14c0.36-0.1,0.65-0.27,0.88-0.49c-0.24-0.26-0.41-0.57-0.51-0.92h-0.33V30.86z
					 M80.84,31.03c0.09,0.31,0.25,0.58,0.46,0.81c0.19-0.22,0.33-0.49,0.41-0.81H80.84z"/>
				<path class="st82" d="M82.83,31.12h1.13v0.15c-0.13,0.1-0.28,0.2-0.46,0.31v0.15h0.83v0.16h-0.83v0.49
					c0,0.13-0.06,0.19-0.18,0.19h-0.26l-0.04-0.15c0.1,0,0.18,0,0.24,0c0.05,0,0.08-0.03,0.08-0.1v-0.43h-0.88v-0.16h0.88v-0.22
					c0.16-0.09,0.29-0.17,0.39-0.24h-0.91V31.12z M84.3,30.71v0.51h-0.15v-0.35h-1.49v0.35h-0.15v-0.51h0.83
					c-0.03-0.08-0.06-0.15-0.1-0.22l0.17-0.03c0.03,0.07,0.06,0.16,0.09,0.25H84.3z"/>
				<path class="st82" d="M84.86,30.48h0.15v0.43h0.25v0.16h-0.25v0.18c0.1,0.11,0.2,0.24,0.31,0.38l-0.09,0.14
					c-0.09-0.15-0.16-0.26-0.22-0.35v1.15h-0.15v-1.15c-0.07,0.22-0.15,0.42-0.26,0.6l-0.07-0.18c0.15-0.22,0.26-0.48,0.32-0.77
					H84.6v-0.16h0.26V30.48z M85.63,31.55c-0.07,0.32-0.16,0.59-0.29,0.83l-0.13-0.09c0.13-0.23,0.23-0.49,0.29-0.77L85.63,31.55z
					 M85.56,32.55l-0.03-0.15c0.09,0.01,0.15,0.01,0.19,0.01c0.06,0,0.09-0.03,0.09-0.1v-0.98H85.3v-0.16h1.19v0.16h-0.52v1.02
					c0,0.14-0.06,0.2-0.19,0.2H85.56z M85.41,30.61h0.96v0.16h-0.96V30.61z M86.25,31.51c0.09,0.26,0.16,0.53,0.23,0.83l-0.14,0.07
					c-0.07-0.32-0.14-0.6-0.23-0.85L86.25,31.51z"/>
				<path class="st82" d="M87.68,31.05c0.26,0.21,0.57,0.37,0.91,0.49l-0.07,0.14c-0.35-0.13-0.64-0.3-0.89-0.5
					c-0.22,0.19-0.52,0.36-0.89,0.5l-0.07-0.14c0.37-0.14,0.67-0.3,0.91-0.49H87.68z M87,30.82c-0.06,0.12-0.12,0.22-0.19,0.32
					l-0.13-0.09c0.13-0.17,0.23-0.37,0.29-0.58l0.15,0.03c-0.01,0.04-0.03,0.1-0.05,0.17h0.56v0.15h-0.3
					c0.04,0.09,0.07,0.16,0.08,0.23l-0.14,0.05c-0.03-0.1-0.06-0.2-0.1-0.28H87z M88.27,31.83c-0.05,0.19-0.12,0.36-0.2,0.51h0.45
					v0.15h-1.78v-0.15h1.17c0.08-0.15,0.15-0.34,0.22-0.56L88.27,31.83z M87.11,31.82c0.06,0.12,0.12,0.26,0.16,0.43l-0.14,0.04
					c-0.04-0.15-0.1-0.29-0.16-0.42L87.11,31.82z M87.08,31.55h1.1v0.15h-1.1V31.55z M87.6,31.77c0.05,0.14,0.09,0.29,0.13,0.46
					l-0.14,0.04c-0.04-0.16-0.08-0.31-0.14-0.45L87.6,31.77z M87.89,30.82c-0.04,0.09-0.08,0.16-0.12,0.23l-0.13-0.09
					c0.1-0.15,0.17-0.31,0.22-0.49L88,30.5c-0.01,0.04-0.03,0.1-0.05,0.17h0.62v0.15h-0.34c0.05,0.09,0.08,0.17,0.11,0.25
					l-0.14,0.06c-0.04-0.11-0.08-0.21-0.13-0.3H87.89z"/>
				<path class="st82" d="M88.82,31.36h0.43v-0.88h0.15v0.88h1.28v0.16h-0.7c0.09,0.37,0.33,0.65,0.72,0.86l-0.09,0.15
					c-0.43-0.24-0.68-0.58-0.78-1.01H89.4v0.83c0.16-0.04,0.32-0.09,0.47-0.16l0.04,0.16c-0.21,0.08-0.43,0.15-0.67,0.21l-0.05-0.15
					c0.03-0.02,0.05-0.05,0.05-0.08v-0.8h-0.43V31.36z M90.46,30.62c-0.17,0.2-0.42,0.39-0.76,0.56l-0.09-0.13
					c0.34-0.16,0.59-0.34,0.75-0.54L90.46,30.62z"/>
				<path class="st82" d="M91.23,31.22v0.18c-0.01,0.49-0.08,0.88-0.23,1.17l-0.11-0.11c0.12-0.26,0.19-0.61,0.19-1.06v-0.75h0.81
					c-0.03-0.06-0.05-0.12-0.08-0.16l0.16-0.03c0.03,0.06,0.05,0.12,0.07,0.19h0.72v0.16h-1.54v0.26h0.36v-0.19h0.15v0.19h0.56
					v-0.19h0.15v0.19h0.33v0.15h-0.33v0.36h-0.86v-0.36H91.23z M91.35,31.74h1.24v0.12c-0.12,0.16-0.27,0.29-0.43,0.4
					c0.19,0.09,0.41,0.15,0.66,0.19l-0.07,0.14c-0.29-0.05-0.54-0.14-0.74-0.24c-0.22,0.11-0.46,0.19-0.74,0.24l-0.07-0.14
					c0.25-0.04,0.47-0.1,0.66-0.19c-0.16-0.11-0.29-0.23-0.38-0.38h-0.13V31.74z M91.64,31.88c0.1,0.12,0.22,0.22,0.36,0.3
					c0.15-0.09,0.28-0.19,0.39-0.3H91.64z M91.73,31.22v0.22h0.56v-0.22H91.73z"/>
			</g>
			<circle class="st2" cx="78.35" cy="31.43" r="0.71"/>
		</g>
	</g>
	<g>
		<g>
			<g>
				<path class="st82" d="M29.79,41.32h0.88c-0.06-0.12-0.13-0.24-0.21-0.34l0.15-0.06c0.08,0.1,0.15,0.24,0.22,0.4h0.81v0.16H31.3
					c-0.1,0.36-0.26,0.67-0.47,0.91c0.22,0.2,0.5,0.38,0.84,0.51l-0.08,0.14c-0.35-0.14-0.64-0.32-0.87-0.53
					c-0.24,0.24-0.54,0.42-0.9,0.53l-0.08-0.14c0.36-0.1,0.65-0.27,0.88-0.49c-0.24-0.26-0.41-0.57-0.51-0.92h-0.33V41.32z
					 M30.26,41.48c0.09,0.31,0.25,0.58,0.46,0.81c0.19-0.22,0.33-0.49,0.41-0.81H30.26z"/>
				<path class="st82" d="M32.25,41.57h1.13v0.15c-0.13,0.1-0.28,0.2-0.46,0.31v0.15h0.83v0.16h-0.83v0.49
					c0,0.13-0.06,0.19-0.18,0.19h-0.26l-0.04-0.15c0.1,0,0.18,0,0.24,0c0.05,0,0.08-0.03,0.08-0.1v-0.43h-0.88v-0.16h0.88v-0.22
					c0.16-0.09,0.29-0.17,0.39-0.24h-0.91V41.57z M33.72,41.17v0.51h-0.15v-0.35h-1.49v0.35h-0.15v-0.51h0.83
					c-0.03-0.08-0.06-0.15-0.1-0.22l0.17-0.03c0.03,0.07,0.06,0.16,0.09,0.25H33.72z"/>
				<path class="st82" d="M34.28,40.94h0.15v0.43h0.25v0.16h-0.25v0.18c0.1,0.11,0.2,0.24,0.31,0.38l-0.09,0.14
					c-0.09-0.15-0.16-0.26-0.22-0.35v1.15h-0.15v-1.15c-0.07,0.22-0.15,0.42-0.26,0.6l-0.07-0.18c0.15-0.22,0.26-0.48,0.32-0.77
					h-0.25v-0.16h0.26V40.94z M35.05,42.01c-0.07,0.32-0.16,0.59-0.29,0.83l-0.13-0.09c0.13-0.23,0.23-0.49,0.29-0.77L35.05,42.01z
					 M34.98,43.01l-0.03-0.15c0.09,0.01,0.15,0.01,0.19,0.01c0.06,0,0.09-0.03,0.09-0.1v-0.98h-0.52v-0.16h1.19v0.16h-0.52v1.02
					c0,0.14-0.06,0.2-0.19,0.2H34.98z M34.83,41.07h0.96v0.16h-0.96V41.07z M35.67,41.96c0.09,0.26,0.16,0.53,0.23,0.83l-0.14,0.07
					c-0.07-0.32-0.14-0.6-0.23-0.85L35.67,41.96z"/>
				<path class="st82" d="M37.1,41.5c0.26,0.21,0.57,0.37,0.91,0.49l-0.07,0.14c-0.35-0.13-0.64-0.3-0.89-0.5
					c-0.22,0.19-0.52,0.36-0.89,0.5l-0.07-0.14c0.37-0.14,0.67-0.3,0.91-0.49H37.1z M36.42,41.28c-0.06,0.12-0.12,0.22-0.19,0.32
					L36.1,41.5c0.13-0.17,0.23-0.37,0.29-0.58l0.15,0.03c-0.01,0.04-0.03,0.1-0.05,0.17h0.56v0.15h-0.3
					c0.04,0.09,0.07,0.16,0.08,0.23l-0.14,0.05c-0.03-0.1-0.06-0.2-0.1-0.28H36.42z M37.69,42.29c-0.05,0.19-0.12,0.36-0.2,0.51
					h0.45v0.15h-1.78V42.8h1.17c0.08-0.15,0.15-0.34,0.22-0.56L37.69,42.29z M36.53,42.27c0.06,0.12,0.12,0.26,0.16,0.43l-0.14,0.04
					c-0.04-0.15-0.1-0.29-0.16-0.42L36.53,42.27z M36.5,42.01h1.1v0.15h-1.1V42.01z M37.02,42.23c0.05,0.14,0.09,0.29,0.13,0.46
					l-0.14,0.04c-0.04-0.16-0.08-0.31-0.14-0.45L37.02,42.23z M37.31,41.28c-0.04,0.09-0.08,0.16-0.12,0.23l-0.13-0.09
					c0.1-0.15,0.17-0.31,0.22-0.49l0.15,0.03c-0.01,0.04-0.03,0.1-0.05,0.17h0.62v0.15h-0.34c0.05,0.09,0.08,0.17,0.11,0.25
					l-0.14,0.06c-0.04-0.11-0.08-0.21-0.13-0.3H37.31z"/>
				<path class="st82" d="M38.24,41.82h0.43v-0.88h0.15v0.88h1.28v0.16h-0.7c0.09,0.37,0.33,0.65,0.72,0.86L40.03,43
					c-0.43-0.24-0.68-0.58-0.78-1.01h-0.44v0.83c0.16-0.04,0.32-0.09,0.47-0.16l0.04,0.16c-0.21,0.08-0.43,0.15-0.67,0.21
					l-0.05-0.15c0.03-0.02,0.05-0.05,0.05-0.08v-0.8h-0.43V41.82z M39.88,41.07c-0.17,0.2-0.42,0.39-0.76,0.56l-0.09-0.13
					c0.34-0.16,0.59-0.34,0.75-0.54L39.88,41.07z"/>
				<path class="st82" d="M40.65,41.68v0.18c-0.01,0.49-0.08,0.88-0.23,1.17l-0.11-0.11c0.12-0.26,0.19-0.61,0.19-1.06v-0.75h0.81
					c-0.03-0.06-0.05-0.12-0.08-0.16l0.16-0.03c0.03,0.06,0.05,0.12,0.07,0.19h0.72v0.16h-1.54v0.26H41v-0.19h0.15v0.19h0.56v-0.19
					h0.15v0.19h0.33v0.15h-0.33v0.36H41v-0.36H40.65z M40.77,42.19h1.24v0.12c-0.12,0.16-0.27,0.29-0.43,0.4
					c0.19,0.09,0.41,0.15,0.66,0.19l-0.07,0.14c-0.29-0.05-0.54-0.14-0.74-0.24c-0.22,0.11-0.46,0.19-0.74,0.24l-0.07-0.14
					c0.25-0.04,0.47-0.1,0.66-0.19c-0.16-0.11-0.29-0.23-0.38-0.38h-0.13V42.19z M41.06,42.34c0.1,0.12,0.22,0.22,0.36,0.3
					c0.15-0.09,0.28-0.19,0.39-0.3H41.06z M41.15,41.68v0.22h0.56v-0.22H41.15z"/>
			</g>
			<polygon class="st0" points="27.92,40.86 28.21,41.45 28.86,41.54 28.39,42 28.5,42.65 27.92,42.35 27.34,42.65 27.45,42 
				26.98,41.54 27.63,41.45 			"/>
		</g>
		<rect x="26.99" y="45.09" class="st181" width="66" height="0.11"/>
		<g>
			<g>
				<path class="st82" d="M55.06,41.32h0.88c-0.06-0.12-0.13-0.24-0.21-0.34l0.15-0.06c0.08,0.1,0.15,0.24,0.22,0.4h0.81v0.16h-0.33
					c-0.1,0.36-0.26,0.67-0.47,0.91c0.22,0.2,0.5,0.38,0.84,0.51l-0.08,0.14c-0.35-0.14-0.64-0.32-0.87-0.53
					c-0.24,0.24-0.54,0.42-0.9,0.53l-0.08-0.14c0.36-0.1,0.65-0.27,0.88-0.49c-0.24-0.26-0.41-0.57-0.51-0.92h-0.33V41.32z
					 M55.53,41.48c0.09,0.31,0.25,0.58,0.46,0.81c0.19-0.22,0.33-0.49,0.41-0.81H55.53z"/>
				<path class="st82" d="M57.52,41.57h1.13v0.15c-0.13,0.1-0.28,0.2-0.46,0.31v0.15h0.83v0.16h-0.83v0.49
					c0,0.13-0.06,0.19-0.18,0.19h-0.26l-0.04-0.15c0.1,0,0.18,0,0.24,0c0.05,0,0.08-0.03,0.08-0.1v-0.43h-0.88v-0.16h0.88v-0.22
					c0.16-0.09,0.29-0.17,0.39-0.24h-0.91V41.57z M58.99,41.17v0.51h-0.15v-0.35h-1.49v0.35h-0.15v-0.51h0.83
					c-0.03-0.08-0.06-0.15-0.1-0.22l0.17-0.03c0.03,0.07,0.06,0.16,0.09,0.25H58.99z"/>
				<path class="st82" d="M59.55,40.94h0.15v0.43h0.25v0.16H59.7v0.18c0.1,0.11,0.2,0.24,0.31,0.38l-0.09,0.14
					c-0.09-0.15-0.16-0.26-0.22-0.35v1.15h-0.15v-1.15c-0.07,0.22-0.15,0.42-0.26,0.6l-0.07-0.18c0.15-0.22,0.26-0.48,0.32-0.77
					h-0.25v-0.16h0.26V40.94z M60.31,42.01c-0.07,0.32-0.16,0.59-0.29,0.83l-0.13-0.09c0.13-0.23,0.23-0.49,0.29-0.77L60.31,42.01z
					 M60.25,43.01l-0.03-0.15c0.09,0.01,0.15,0.01,0.19,0.01c0.06,0,0.09-0.03,0.09-0.1v-0.98h-0.52v-0.16h1.19v0.16h-0.52v1.02
					c0,0.14-0.06,0.2-0.19,0.2H60.25z M60.1,41.07h0.96v0.16H60.1V41.07z M60.94,41.96c0.09,0.26,0.16,0.53,0.23,0.83l-0.14,0.07
					c-0.07-0.32-0.14-0.6-0.23-0.85L60.94,41.96z"/>
				<path class="st82" d="M62.37,41.5c0.26,0.21,0.57,0.37,0.91,0.49l-0.07,0.14c-0.35-0.13-0.64-0.3-0.89-0.5
					c-0.22,0.19-0.52,0.36-0.89,0.5l-0.07-0.14c0.37-0.14,0.67-0.3,0.91-0.49H62.37z M61.69,41.28c-0.06,0.12-0.12,0.22-0.19,0.32
					l-0.13-0.09c0.13-0.17,0.23-0.37,0.29-0.58l0.15,0.03c-0.01,0.04-0.03,0.1-0.05,0.17h0.56v0.15H62
					c0.04,0.09,0.07,0.16,0.08,0.23l-0.14,0.05c-0.03-0.1-0.06-0.2-0.1-0.28H61.69z M62.96,42.29c-0.05,0.19-0.12,0.36-0.2,0.51
					h0.45v0.15h-1.78V42.8h1.17c0.08-0.15,0.15-0.34,0.22-0.56L62.96,42.29z M61.8,42.27c0.06,0.12,0.12,0.26,0.16,0.43l-0.14,0.04
					c-0.04-0.15-0.1-0.29-0.16-0.42L61.8,42.27z M61.77,42.01h1.1v0.15h-1.1V42.01z M62.29,42.23c0.05,0.14,0.09,0.29,0.13,0.46
					l-0.14,0.04c-0.04-0.16-0.08-0.31-0.14-0.45L62.29,42.23z M62.58,41.28c-0.04,0.09-0.08,0.16-0.12,0.23l-0.13-0.09
					c0.1-0.15,0.17-0.31,0.22-0.49l0.15,0.03c-0.01,0.04-0.03,0.1-0.05,0.17h0.62v0.15h-0.34c0.05,0.09,0.08,0.17,0.11,0.25
					l-0.14,0.06c-0.04-0.11-0.08-0.21-0.13-0.3H62.58z"/>
				<path class="st82" d="M63.5,41.82h0.43v-0.88h0.15v0.88h1.28v0.16h-0.7c0.09,0.37,0.33,0.65,0.72,0.86L65.3,43
					c-0.43-0.24-0.68-0.58-0.78-1.01h-0.44v0.83c0.16-0.04,0.32-0.09,0.47-0.16l0.04,0.16c-0.21,0.08-0.43,0.15-0.67,0.21
					l-0.05-0.15c0.03-0.02,0.05-0.05,0.05-0.08v-0.8H63.5V41.82z M65.15,41.07c-0.17,0.2-0.42,0.39-0.76,0.56l-0.09-0.13
					c0.34-0.16,0.59-0.34,0.75-0.54L65.15,41.07z"/>
				<path class="st82" d="M65.92,41.68v0.18c-0.01,0.49-0.08,0.88-0.23,1.17l-0.11-0.11c0.12-0.26,0.19-0.61,0.19-1.06v-0.75h0.81
					c-0.03-0.06-0.05-0.12-0.08-0.16l0.16-0.03c0.03,0.06,0.05,0.12,0.07,0.19h0.72v0.16h-1.54v0.26h0.36v-0.19h0.15v0.19h0.56
					v-0.19h0.15v0.19h0.33v0.15h-0.33v0.36h-0.86v-0.36H65.92z M66.04,42.19h1.24v0.12c-0.12,0.16-0.27,0.29-0.43,0.4
					c0.19,0.09,0.41,0.15,0.66,0.19l-0.07,0.14c-0.29-0.05-0.54-0.14-0.74-0.24c-0.22,0.11-0.46,0.19-0.74,0.24L65.9,42.9
					c0.25-0.04,0.47-0.1,0.66-0.19c-0.16-0.11-0.29-0.23-0.38-0.38h-0.13V42.19z M66.33,42.34c0.1,0.12,0.22,0.22,0.36,0.3
					c0.15-0.09,0.28-0.19,0.39-0.3H66.33z M66.42,41.68v0.22h0.56v-0.22H66.42z"/>
			</g>
			<circle class="st2" cx="53.04" cy="41.89" r="0.71"/>
		</g>
		<g>
			<g>
				<path class="st82" d="M80.37,41.32h0.88c-0.06-0.12-0.13-0.24-0.21-0.34l0.15-0.06c0.08,0.1,0.15,0.24,0.22,0.4h0.81v0.16h-0.33
					c-0.1,0.36-0.26,0.67-0.47,0.91c0.22,0.2,0.5,0.38,0.84,0.51l-0.08,0.14c-0.35-0.14-0.64-0.32-0.87-0.53
					c-0.24,0.24-0.54,0.42-0.9,0.53l-0.08-0.14c0.36-0.1,0.65-0.27,0.88-0.49c-0.24-0.26-0.41-0.57-0.51-0.92h-0.33V41.32z
					 M80.84,41.48c0.09,0.31,0.25,0.58,0.46,0.81c0.19-0.22,0.33-0.49,0.41-0.81H80.84z"/>
				<path class="st82" d="M82.83,41.57h1.13v0.15c-0.13,0.1-0.28,0.2-0.46,0.31v0.15h0.83v0.16h-0.83v0.49
					c0,0.13-0.06,0.19-0.18,0.19h-0.26l-0.04-0.15c0.1,0,0.18,0,0.24,0c0.05,0,0.08-0.03,0.08-0.1v-0.43h-0.88v-0.16h0.88v-0.22
					c0.16-0.09,0.29-0.17,0.39-0.24h-0.91V41.57z M84.3,41.17v0.51h-0.15v-0.35h-1.49v0.35h-0.15v-0.51h0.83
					c-0.03-0.08-0.06-0.15-0.1-0.22l0.17-0.03c0.03,0.07,0.06,0.16,0.09,0.25H84.3z"/>
				<path class="st82" d="M84.86,40.94h0.15v0.43h0.25v0.16h-0.25v0.18c0.1,0.11,0.2,0.24,0.31,0.38l-0.09,0.14
					c-0.09-0.15-0.16-0.26-0.22-0.35v1.15h-0.15v-1.15c-0.07,0.22-0.15,0.42-0.26,0.6l-0.07-0.18c0.15-0.22,0.26-0.48,0.32-0.77
					H84.6v-0.16h0.26V40.94z M85.63,42.01c-0.07,0.32-0.16,0.59-0.29,0.83l-0.13-0.09c0.13-0.23,0.23-0.49,0.29-0.77L85.63,42.01z
					 M85.56,43.01l-0.03-0.15c0.09,0.01,0.15,0.01,0.19,0.01c0.06,0,0.09-0.03,0.09-0.1v-0.98H85.3v-0.16h1.19v0.16h-0.52v1.02
					c0,0.14-0.06,0.2-0.19,0.2H85.56z M85.41,41.07h0.96v0.16h-0.96V41.07z M86.25,41.96c0.09,0.26,0.16,0.53,0.23,0.83l-0.14,0.07
					c-0.07-0.32-0.14-0.6-0.23-0.85L86.25,41.96z"/>
				<path class="st82" d="M87.68,41.5c0.26,0.21,0.57,0.37,0.91,0.49l-0.07,0.14c-0.35-0.13-0.64-0.3-0.89-0.5
					c-0.22,0.19-0.52,0.36-0.89,0.5l-0.07-0.14c0.37-0.14,0.67-0.3,0.91-0.49H87.68z M87,41.28c-0.06,0.12-0.12,0.22-0.19,0.32
					l-0.13-0.09c0.13-0.17,0.23-0.37,0.29-0.58l0.15,0.03c-0.01,0.04-0.03,0.1-0.05,0.17h0.56v0.15h-0.3
					c0.04,0.09,0.07,0.16,0.08,0.23l-0.14,0.05c-0.03-0.1-0.06-0.2-0.1-0.28H87z M88.27,42.29c-0.05,0.19-0.12,0.36-0.2,0.51h0.45
					v0.15h-1.78V42.8h1.17c0.08-0.15,0.15-0.34,0.22-0.56L88.27,42.29z M87.11,42.27c0.06,0.12,0.12,0.26,0.16,0.43l-0.14,0.04
					c-0.04-0.15-0.1-0.29-0.16-0.42L87.11,42.27z M87.08,42.01h1.1v0.15h-1.1V42.01z M87.6,42.23c0.05,0.14,0.09,0.29,0.13,0.46
					l-0.14,0.04c-0.04-0.16-0.08-0.31-0.14-0.45L87.6,42.23z M87.89,41.28c-0.04,0.09-0.08,0.16-0.12,0.23l-0.13-0.09
					c0.1-0.15,0.17-0.31,0.22-0.49L88,40.96c-0.01,0.04-0.03,0.1-0.05,0.17h0.62v0.15h-0.34c0.05,0.09,0.08,0.17,0.11,0.25
					l-0.14,0.06c-0.04-0.11-0.08-0.21-0.13-0.3H87.89z"/>
				<path class="st82" d="M88.82,41.82h0.43v-0.88h0.15v0.88h1.28v0.16h-0.7c0.09,0.37,0.33,0.65,0.72,0.86L90.61,43
					c-0.43-0.24-0.68-0.58-0.78-1.01H89.4v0.83c0.16-0.04,0.32-0.09,0.47-0.16l0.04,0.16c-0.21,0.08-0.43,0.15-0.67,0.21l-0.05-0.15
					c0.03-0.02,0.05-0.05,0.05-0.08v-0.8h-0.43V41.82z M90.46,41.07c-0.17,0.2-0.42,0.39-0.76,0.56l-0.09-0.13
					c0.34-0.16,0.59-0.34,0.75-0.54L90.46,41.07z"/>
				<path class="st82" d="M91.23,41.68v0.18c-0.01,0.49-0.08,0.88-0.23,1.17l-0.11-0.11c0.12-0.26,0.19-0.61,0.19-1.06v-0.75h0.81
					c-0.03-0.06-0.05-0.12-0.08-0.16l0.16-0.03c0.03,0.06,0.05,0.12,0.07,0.19h0.72v0.16h-1.54v0.26h0.36v-0.19h0.15v0.19h0.56
					v-0.19h0.15v0.19h0.33v0.15h-0.33v0.36h-0.86v-0.36H91.23z M91.35,42.19h1.24v0.12c-0.12,0.16-0.27,0.29-0.43,0.4
					c0.19,0.09,0.41,0.15,0.66,0.19l-0.07,0.14c-0.29-0.05-0.54-0.14-0.74-0.24c-0.22,0.11-0.46,0.19-0.74,0.24l-0.07-0.14
					c0.25-0.04,0.47-0.1,0.66-0.19c-0.16-0.11-0.29-0.23-0.38-0.38h-0.13V42.19z M91.64,42.34c0.1,0.12,0.22,0.22,0.36,0.3
					c0.15-0.09,0.28-0.19,0.39-0.3H91.64z M91.73,41.68v0.22h0.56v-0.22H91.73z"/>
			</g>
			<circle class="st2" cx="78.35" cy="41.89" r="0.71"/>
		</g>
	</g>
</g>
</svg>
