<?xml version="1.0" encoding="utf-8"?>
<!-- Generator: Adobe Illustrator 23.0.0, SVG Export Plug-In . SVG Version: 6.00 Build 0)  -->
<svg version="1.1" id="图层_1" xmlns="http://www.w3.org/2000/svg" xmlns:xlink="http://www.w3.org/1999/xlink" x="0px" y="0px"
	 viewBox="0 0 114 65" style="enable-background:new 0 0 114 65;" xml:space="preserve">
<style type="text/css">
	.st0{fill:#4C7EF1;}
	.st1{fill:#29CB97;}
	.st2{fill:#FEC400;}
	.st3{fill:#29C997;}
	.st4{fill:#B35AF1;}
	.st5{fill:#FFFFFF;}
	.st6{fill:#6B6B6B;}
	.st7{fill:#444444;}
	.st8{opacity:0.1;fill:#FFFFFF;}
	.st9{opacity:0.1;}
	.st10{fill:none;stroke:#F24343;stroke-width:14;stroke-miterlimit:10;}
	.st11{fill:none;stroke:#FFFFFF;stroke-width:14;stroke-miterlimit:10;}
	.st12{fill:none;stroke:#4C7EF1;stroke-width:14;stroke-miterlimit:10;}
	.st13{fill:none;stroke:#FEAB05;stroke-width:14;stroke-miterlimit:10;}
	.st14{fill:none;stroke:#29CB97;stroke-width:8;stroke-miterlimit:10;}
	.st15{fill:none;stroke:#29CB97;stroke-width:16;stroke-miterlimit:10;}
	.st16{fill:none;stroke:#FEC400;stroke-width:16;stroke-miterlimit:10;}
	.st17{fill:none;stroke:#FEAB05;stroke-width:16;stroke-miterlimit:10;}
	.st18{fill:none;stroke:#FEC400;stroke-width:8;stroke-miterlimit:10;}
	.st19{fill:none;stroke:#676767;stroke-width:8;stroke-miterlimit:10;}
	.st20{fill:none;stroke:#FEC400;stroke-width:2;stroke-miterlimit:10;}
	.st21{fill:#E6E6E6;}
	.st22{fill:#74D889;}
	.st23{fill:#FFDC70;}
	.st24{fill:#47ABFC;}
	.st25{fill:none;stroke:#FFFFFF;stroke-miterlimit:10;}
	.st26{fill:#4C7EF1;stroke:#0B0C0E;stroke-miterlimit:10;}
	.st27{fill:#FEC400;stroke:#0B0C0E;stroke-miterlimit:10;}
	.st28{fill:none;stroke:#AAA9A9;stroke-miterlimit:10;}
	.st29{fill:none;stroke:#A5A4A4;stroke-width:2;stroke-miterlimit:10;stroke-dasharray:1.0005,4.002;}
	.st30{fill:none;stroke:#4C7EF1;stroke-width:40;stroke-miterlimit:10;}
	.st31{fill:none;stroke:#FEC400;stroke-width:40;stroke-miterlimit:10;}
	.st32{fill:none;stroke:#676767;stroke-width:20;stroke-miterlimit:10;}
	.st33{fill:none;stroke:#FEC400;stroke-width:20;stroke-miterlimit:10;}
	.st34{fill:none;stroke:#29C997;stroke-width:20;stroke-miterlimit:10;}
	.st35{fill:none;stroke:#FFFFFF;stroke-width:20;stroke-miterlimit:10;}
	.st36{fill:none;stroke:#000000;stroke-miterlimit:10;}
	.st37{fill:none;stroke:#FFFFFF;stroke-width:2;stroke-miterlimit:10;stroke-dasharray:3.941,3.941;}
	.st38{opacity:0.5;fill:none;stroke:#FFFFFF;stroke-width:0.4926;stroke-miterlimit:10;stroke-dasharray:3.941,3.941;}
	.st39{fill:none;stroke:#00B091;stroke-width:4;stroke-miterlimit:10;}
	.st40{fill:none;stroke:#EDBF00;stroke-width:4;stroke-miterlimit:10;}
	.st41{fill:#EDBF00;}
	.st42{fill:#00B091;}
	.st43{opacity:0.8;fill:#00B091;}
	.st44{opacity:0.8;fill:#EDBF00;}
	.st45{opacity:0.8;fill:#D85700;}
	.st46{fill:#4C7EF1;stroke:#4C7EF1;stroke-miterlimit:10;}
	.st47{fill:none;stroke:#676767;stroke-width:2;stroke-miterlimit:10;}
	.st48{fill:none;stroke:#FEC400;stroke-width:0.25;stroke-miterlimit:10;}
	.st49{fill:none;stroke:#999999;stroke-width:0.25;stroke-miterlimit:10;}
	.st50{fill:#4C7EF1;stroke:#0B0C0E;stroke-width:0.25;stroke-miterlimit:10;}
	.st51{fill:#FEC400;stroke:#0B0C0E;stroke-width:0.25;stroke-miterlimit:10;}
	.st52{fill:none;stroke:#AAA9A9;stroke-width:0.25;stroke-miterlimit:10;}
	.st53{fill:none;stroke:#A5A4A4;stroke-width:2;stroke-miterlimit:10;stroke-dasharray:0.9678,3.8712;}
	.st54{fill:none;stroke:#4C7EF1;stroke-width:4;stroke-miterlimit:10;}
	.st55{fill:none;stroke:#FEC400;stroke-width:4;stroke-miterlimit:10;}
	.st56{fill:none;stroke:#29C997;stroke-width:2;stroke-miterlimit:10;}
	.st57{fill:none;stroke:#FFFFFF;stroke-width:2;stroke-miterlimit:10;}
	.st58{fill:none;stroke:#000000;stroke-width:0.25;stroke-miterlimit:10;}
	.st59{fill:none;stroke:#FFFFFF;stroke-width:0.25;stroke-miterlimit:10;stroke-dasharray:3.941,3.941;}
	.st60{opacity:0.5;fill:none;stroke:#FFFFFF;stroke-width:0.25;stroke-miterlimit:10;stroke-dasharray:3.941,3.941;}
	.st61{fill:none;stroke:#00B091;stroke-width:0.5;stroke-miterlimit:10;}
	.st62{fill:none;stroke:#EDBF00;stroke-width:0.5;stroke-miterlimit:10;}
	.st63{opacity:0.65;fill:url(#SVGID_1_);}
	.st64{opacity:0.65;fill:url(#SVGID_2_);}
	.st65{opacity:0.65;fill:url(#SVGID_3_);}
	.st66{opacity:0.65;fill:url(#SVGID_4_);}
	.st67{opacity:0.65;fill:url(#SVGID_5_);}
	.st68{opacity:0.65;fill:url(#SVGID_6_);}
	.st69{fill:#292E34;}
	.st70{opacity:0.6;}
	.st71{fill:#334469;}
	.st72{fill:#FEAB05;}
	.st73{opacity:0.4;fill:#0B0C0E;}
	.st74{opacity:0.7;}
	.st75{fill:#F24343;}
	.st76{opacity:0.42;fill:#676767;stroke:#F0F2F8;stroke-miterlimit:10;}
	.st77{fill:none;stroke:#F0F2F8;stroke-width:2;stroke-miterlimit:10;}
	.st78{clip-path:url(#SVGID_8_);}
	.st79{fill:#3B86FF;}
	.st80{opacity:0.36;}
	.st81{fill:#4170ED;}
	.st82{fill:#999999;}
	.st83{opacity:0.15;}
	.st84{clip-path:url(#SVGID_10_);}
	.st85{fill:#1CCC96;}
	.st86{opacity:0.43;}
	.st87{clip-path:url(#SVGID_12_);}
	.st88{fill:#30C3E9;}
	.st89{clip-path:url(#SVGID_14_);}
	.st90{fill:#BCEAEC;}
	.st91{opacity:0.14;}
	.st92{clip-path:url(#SVGID_16_);}
	.st93{fill:#FBC400;}
	.st94{fill:#1F1F1F;}
	.st95{fill:none;stroke:url(#SVGID_17_);stroke-width:0.15;stroke-miterlimit:10;}
	.st96{fill:none;stroke:#00B091;stroke-width:0.15;stroke-miterlimit:10;}
	.st97{fill:none;stroke:url(#SVGID_18_);stroke-width:0.15;stroke-miterlimit:10;}
	.st98{fill:none;stroke:url(#SVGID_19_);stroke-width:0.15;stroke-miterlimit:10;}
	.st99{fill:none;stroke:url(#SVGID_20_);stroke-width:0.15;stroke-miterlimit:10;}
	.st100{fill:none;stroke:url(#SVGID_21_);stroke-width:0.15;stroke-miterlimit:10;}
	.st101{opacity:0.5;fill:#4170ED;}
	.st102{fill:#666666;}
	.st103{fill:none;stroke:#4170ED;stroke-width:0.5;stroke-miterlimit:10;}
	.st104{fill:none;stroke:url(#SVGID_22_);stroke-width:0.5;stroke-miterlimit:10;stroke-dasharray:0.9965,0.9965;}
	.st105{opacity:0.4;}
	.st106{fill:url(#SVGID_23_);stroke:url(#SVGID_24_);stroke-width:0.5;stroke-miterlimit:10;}
	.st107{fill:none;stroke:url(#SVGID_25_);stroke-width:0.5;stroke-miterlimit:10;}
	.st108{fill:url(#SVGID_26_);stroke:url(#SVGID_27_);stroke-width:0.5;stroke-miterlimit:10;}
	.st109{fill:none;stroke:url(#SVGID_28_);stroke-width:0.5;stroke-miterlimit:10;stroke-dasharray:0.9965,0.9965;}
	.st110{fill:url(#SVGID_29_);}
	.st111{fill:none;stroke:url(#SVGID_30_);stroke-width:0.5;stroke-miterlimit:10;stroke-dasharray:0.994,0.994;}
	.st112{fill:none;stroke:url(#SVGID_31_);stroke-width:0.5;stroke-miterlimit:10;}
	.st113{fill:none;stroke:url(#SVGID_32_);stroke-width:0.5;stroke-miterlimit:10;}
	.st114{fill:none;stroke:url(#SVGID_33_);stroke-width:0.5;stroke-miterlimit:10;}
	.st115{fill:url(#SVGID_34_);stroke:url(#SVGID_35_);stroke-width:0.5;stroke-miterlimit:10;}
	.st116{fill:#3885E9;}
	.st117{opacity:0.33;}
	.st118{fill:none;stroke:#999999;stroke-miterlimit:10;}
	.st119{fill:none;stroke:#4170ED;stroke-miterlimit:10;}
	.st120{fill:none;stroke:url(#SVGID_36_);stroke-width:0.5;stroke-miterlimit:10;}
	.st121{fill:url(#SVGID_37_);}
	.st122{opacity:0.3;fill:none;stroke:#4170ED;stroke-miterlimit:10;}
	.st123{opacity:0.87;fill:none;stroke:url(#SVGID_38_);stroke-miterlimit:10;}
	.st124{opacity:0.53;fill:#FFFFFF;}
	.st125{opacity:0.3;fill:none;stroke:#4170ED;stroke-width:0.25;stroke-miterlimit:10;}
	.st126{fill:url(#SVGID_39_);stroke:url(#SVGID_40_);stroke-width:0.25;stroke-miterlimit:10;}
	.st127{fill:url(#SVGID_41_);stroke:url(#SVGID_42_);stroke-width:0.25;stroke-miterlimit:10;}
	.st128{fill:url(#SVGID_43_);stroke:url(#SVGID_44_);stroke-width:0.25;stroke-miterlimit:10;}
	.st129{fill:url(#SVGID_45_);stroke:url(#SVGID_46_);stroke-width:0.25;stroke-miterlimit:10;}
	.st130{clip-path:url(#SVGID_48_);fill:#BFBFBF;}
	.st131{fill:#BFBFBF;}
	.st132{clip-path:url(#SVGID_50_);fill:#BFBFBF;}
	.st133{clip-path:url(#SVGID_52_);fill:#BFBFBF;}
	.st134{clip-path:url(#SVGID_54_);fill:#BFBFBF;}
	.st135{clip-path:url(#SVGID_56_);fill:#BFBFBF;}
	.st136{clip-path:url(#SVGID_58_);fill:#BFBFBF;}
	.st137{fill:none;}
	.st138{fill:#1B3E60;}
	.st139{fill:#31446D;stroke:#4170ED;stroke-width:0.5;stroke-miterlimit:10;}
	.st140{opacity:0.31;fill:#EDBF00;}
	.st141{opacity:0.31;fill:#00B091;}
	.st142{fill:#31446D;stroke:#4C7EF1;stroke-width:0.5;stroke-miterlimit:10;}
	.st143{clip-path:url(#SVGID_60_);fill:#BFBFBF;}
	.st144{clip-path:url(#SVGID_62_);fill:#BFBFBF;}
	.st145{clip-path:url(#SVGID_64_);fill:#BFBFBF;}
	.st146{clip-path:url(#SVGID_66_);fill:#BFBFBF;}
	.st147{clip-path:url(#SVGID_68_);fill:#BFBFBF;}
	.st148{clip-path:url(#SVGID_70_);fill:#BFBFBF;}
	.st149{fill:url(#XMLID_644_);}
	.st150{fill:none;stroke:#4C7EF1;stroke-width:0.25;stroke-miterlimit:10;}
	.st151{opacity:0.5;fill:#4C7EF1;}
	.st152{fill:url(#SVGID_71_);}
	.st153{fill:url(#SVGID_72_);}
	.st154{fill:url(#SVGID_73_);}
	.st155{fill:url(#SVGID_74_);}
	.st156{fill:url(#SVGID_75_);}
	.st157{fill:none;stroke:#F24343;stroke-width:2;stroke-miterlimit:10;}
	.st158{fill:none;stroke:#4C7EF1;stroke-width:2;stroke-miterlimit:10;}
	.st159{fill:none;stroke:#FEAB05;stroke-width:2;stroke-miterlimit:10;}
	.st160{fill:none;stroke:#29CB97;stroke-width:2;stroke-miterlimit:10;}
	.st161{opacity:0.42;fill:#676767;stroke:#F0F2F8;stroke-width:0.5;stroke-miterlimit:10;}
	.st162{fill:none;stroke:#F0F2F8;stroke-miterlimit:10;}
	.st163{clip-path:url(#SVGID_77_);}
	.st164{opacity:0.56;fill:#4C7EF1;}
	.st165{fill:none;stroke:url(#SVGID_78_);stroke-width:0.5;stroke-miterlimit:10;stroke-dasharray:1.0027,1.0027;}
	.st166{fill:none;stroke:url(#SVGID_79_);stroke-width:0.5;stroke-miterlimit:10;}
	.st167{fill:none;stroke:url(#SVGID_80_);stroke-width:0.5;stroke-miterlimit:10;}
	.st168{fill:none;stroke:url(#SVGID_81_);stroke-width:0.5;stroke-miterlimit:10;}
	.st169{opacity:0.14;fill:none;stroke:#4C7EF1;stroke-width:0.25;stroke-miterlimit:10;}
	.st170{fill:#F2F2F2;}
	.st171{fill:none;stroke:#3B86FF;stroke-width:0.25;stroke-miterlimit:10;}
	.st172{fill:#676767;stroke:#3B86FF;stroke-width:0.25;stroke-miterlimit:10;}
	.st173{fill:#606060;stroke:#3B86FF;stroke-width:0.25;stroke-miterlimit:10;}
	.st174{fill:url(#SVGID_82_);stroke:url(#SVGID_83_);stroke-width:0.25;stroke-miterlimit:10;}
	.st175{fill:url(#SVGID_84_);stroke:url(#SVGID_85_);stroke-width:0.25;stroke-miterlimit:10;}
	.st176{fill:url(#SVGID_86_);stroke:url(#SVGID_87_);stroke-width:0.25;stroke-miterlimit:10;}
	.st177{fill:url(#SVGID_88_);stroke:url(#SVGID_89_);stroke-width:0.25;stroke-miterlimit:10;}
	.st178{fill:url(#SVGID_90_);stroke:url(#SVGID_91_);stroke-width:0.25;stroke-miterlimit:10;}
	.st179{opacity:0.46;fill:url(#SVGID_92_);}
	.st180{opacity:0.14;fill:#29CB97;stroke:#4C7EF1;stroke-width:0.25;stroke-miterlimit:10;}
	.st181{opacity:0.35;fill:#999999;}
	.st182{fill:none;stroke:#3B86FF;stroke-width:0.1;stroke-miterlimit:10;}
	.st183{opacity:0.14;fill:#4170ED;stroke:#4C7EF1;stroke-width:0.25;stroke-miterlimit:10;}
</style>
<g>
	<g>
		<g>
			<path class="st0" d="M42.03,21.95h5.83v0.71h-2.51v6.41h-0.81v-6.41h-2.51V21.95z"/>
			<path class="st0" d="M49.73,22.14c0.12,0.1,0.18,0.24,0.18,0.42c0,0.17-0.06,0.31-0.18,0.43c-0.13,0.11-0.27,0.17-0.43,0.17
				c-0.16,0-0.3-0.06-0.43-0.17c-0.11-0.11-0.17-0.26-0.17-0.43c0-0.19,0.06-0.32,0.17-0.42c0.11-0.11,0.26-0.17,0.43-0.17
				S49.62,22.03,49.73,22.14z M48.9,23.91h0.8v5.15h-0.8V23.91z"/>
			<path class="st0" d="M52.57,22.25v1.66h1.28v0.67h-1.28v3.28c0,0.2,0.04,0.34,0.11,0.41c0.07,0.09,0.2,0.13,0.38,0.13h0.66v0.67
				h-0.78c-0.43,0-0.73-0.11-0.91-0.33c-0.17-0.19-0.25-0.48-0.25-0.88v-3.28h-1.04v-0.67h1.04v-1.33L52.57,22.25z"/>
			<path class="st0" d="M54.89,21.81h0.79v7.25h-0.79V21.81z"/>
			<path class="st0" d="M61.07,24.61c0.38,0.5,0.58,1.2,0.6,2.1H57.6c0.04,0.58,0.2,1.03,0.47,1.34c0.28,0.32,0.66,0.48,1.16,0.48
				c0.42,0,0.76-0.11,1.03-0.32c0.21-0.17,0.39-0.44,0.52-0.81h0.8c-0.12,0.49-0.35,0.9-0.7,1.22c-0.44,0.39-0.99,0.58-1.64,0.58
				c-0.74,0-1.33-0.24-1.77-0.73c-0.45-0.49-0.68-1.16-0.68-1.99c0-0.77,0.22-1.4,0.65-1.9c0.44-0.54,1.03-0.81,1.77-0.81
				C60.03,23.77,60.65,24.05,61.07,24.61z M58.11,24.89c-0.27,0.29-0.44,0.69-0.49,1.21h3.22c-0.1-1.1-0.64-1.65-1.62-1.65
				C58.76,24.44,58.39,24.59,58.11,24.89z"/>
		</g>
	</g>
	<g>
		<g>
			<path class="st82" d="M83.68,39.54c-0.18,0.28-0.4,0.59-0.67,0.93l-0.14-0.53c0.67-0.88,1.16-1.87,1.45-2.98l0.4,0.23
				c-0.16,0.55-0.36,1.07-0.6,1.57v4.81h-0.45V39.54z M84.99,37.7h3.04v0.45c-0.86,1.01-1.45,1.75-1.79,2.21
				c-0.37,0.5-0.62,0.92-0.75,1.27c-0.11,0.28-0.17,0.51-0.17,0.69c0,0.13,0.04,0.25,0.11,0.35c0.08,0.1,0.24,0.16,0.48,0.16h1.61
				c0.19-0.01,0.32-0.09,0.4-0.26c0.07-0.17,0.11-0.56,0.11-1.17l0.42,0.15c0,0.73-0.06,1.2-0.18,1.42
				c-0.12,0.22-0.32,0.33-0.61,0.33h-1.82c-0.34,0-0.58-0.08-0.73-0.24c-0.14-0.2-0.22-0.45-0.22-0.75c0-0.23,0.06-0.5,0.17-0.79
				c0.15-0.4,0.43-0.87,0.83-1.39c0.39-0.55,0.89-1.19,1.51-1.93h-2.4V37.7z"/>
			<path class="st82" d="M89.15,39.51h5.15v0.5h-1.66v2.65c0,0.2,0.09,0.31,0.27,0.31h0.67c0.13,0,0.22-0.05,0.27-0.16
				c0.07-0.12,0.11-0.5,0.14-1.15l0.4,0.15c-0.04,0.78-0.12,1.25-0.24,1.41c-0.1,0.15-0.27,0.22-0.48,0.22h-0.87
				c-0.38,0-0.57-0.22-0.57-0.66v-2.76h-1.08v0.11c-0.02,0.92-0.18,1.67-0.48,2.23c-0.3,0.52-0.79,0.93-1.45,1.22l-0.23-0.43
				c0.65-0.28,1.11-0.66,1.36-1.12c0.25-0.49,0.37-1.12,0.39-1.89v-0.11h-1.56V39.51z M89.61,37.42h4.16v0.5h-4.16V37.42z"/>
		</g>
	</g>
	<g>
		<g>
			<path class="st2" d="M43.78,42.74V41.9h3.96v-2.63h-3.93v-3.79h5.16v0.83h-3.93v2.14h3.93v4.29H43.78z"/>
			<path class="st2" d="M50.17,42.74v-7.26h5.18v0.83H51.4v2.12h3.96v4.31H50.17z M54.12,39.25H51.4v2.67h2.72V39.25z"/>
			<path class="st2" d="M56.82,44.29l0.86-1.54H56.9v-1.46h1.34v1.4l-0.91,1.61H56.82z"/>
			<path class="st2" d="M59.7,42.74V39.4l0.57-0.51l-0.45-0.47v-2.94h4.97v2.94l-0.44,0.47l0.56,0.51v3.34H59.7z M60.93,41.9h2.73
				v-2.56h-2.73V41.9z M61.03,36.3v2.2h2.51v-2.2H61.03z"/>
			<path class="st2" d="M66.07,42.74v-0.83h4.01v-2.1h-3.96v-4.34h5.18v7.27H66.07z M67.35,36.3v2.69h2.73V36.3H67.35z"/>
			<path class="st2" d="M74.57,42.74V36.3h-1.72v-0.83h2.96v7.27H74.57z"/>
		</g>
	</g>
	<g>
		<g>
			<path class="st0" d="M29.08,21.33c5.22,0,9.45,4.23,9.45,9.45s-4.23,9.45-9.45,9.45s-9.45-4.23-9.45-9.45
				S23.85,21.33,29.08,21.33z M29.08,22.08c-4.8,0-8.7,3.89-8.7,8.7s3.89,8.7,8.7,8.7s8.7-3.89,8.7-8.7S33.88,22.08,29.08,22.08z
				 M29.38,33.2c0.75,0,1.36,0.61,1.36,1.36c0,0.75-0.61,1.36-1.36,1.36c-0.75,0-1.36-0.61-1.36-1.36
				C28.02,33.81,28.63,33.2,29.38,33.2z M26.31,32.07c0.69,0,1.25,0.56,1.25,1.25c0,0.69-0.56,1.25-1.25,1.25
				c-0.69,0-1.25-0.56-1.25-1.25C25.07,32.63,25.63,32.07,26.31,32.07z M32.44,32.98c0.19,0,0.34,0.15,0.34,0.34
				c0,0.19-0.15,0.34-0.34,0.34c-0.19,0-0.34-0.15-0.34-0.34C32.1,33.13,32.25,32.98,32.44,32.98z M33.24,31.62
				c0.25,0,0.45,0.2,0.45,0.45c0,0.25-0.2,0.45-0.45,0.45l0,0c-0.25,0-0.45-0.2-0.45-0.45C32.78,31.82,32.99,31.62,33.24,31.62z
				 M25.29,29.12c0.63,0,1.13,0.51,1.13,1.13c0,0.63-0.51,1.13-1.13,1.13c-0.63,0-1.13-0.51-1.13-1.13
				C24.16,29.63,24.67,29.12,25.29,29.12z M33.35,30.03c0.31,0,0.57,0.25,0.57,0.57s-0.25,0.57-0.57,0.57
				c-0.31,0-0.57-0.25-0.57-0.57S33.04,30.03,33.35,30.03L33.35,30.03z M33.01,28.21c0.38,0,0.68,0.3,0.68,0.68
				c0,0.38-0.3,0.68-0.68,0.68l0,0c-0.38,0-0.68-0.31-0.68-0.68C32.33,28.52,32.63,28.21,33.01,28.21z M26.54,26.4
				c0.56,0,1.02,0.46,1.02,1.02c0,0.56-0.46,1.02-1.02,1.02c0,0,0,0,0,0c-0.56,0-1.02-0.46-1.02-1.02
				C25.52,26.85,25.98,26.4,26.54,26.4z M31.76,26.4c0.44,0,0.79,0.36,0.79,0.79c0,0.44-0.36,0.79-0.79,0.79
				c-0.44,0-0.79-0.36-0.79-0.79C30.97,26.75,31.32,26.4,31.76,26.4z M29.38,25.49c0.5,0,0.91,0.41,0.91,0.91
				c0,0.5-0.41,0.91-0.91,0.91c0,0,0,0,0,0c-0.5,0-0.91-0.41-0.91-0.91C28.47,25.89,28.88,25.49,29.38,25.49z"/>
		</g>
	</g>
</g>
</svg>
