<?xml version="1.0" encoding="utf-8"?>
<!-- Generator: Adobe Illustrator 23.0.0, SVG Export Plug-In . SVG Version: 6.00 Build 0)  -->
<svg version="1.1" id="图层_1" xmlns="http://www.w3.org/2000/svg" xmlns:xlink="http://www.w3.org/1999/xlink" x="0px" y="0px"
	 viewBox="0 0 114 65" style="enable-background:new 0 0 114 65;" xml:space="preserve">
<style type="text/css">
	.st0{fill:#4C7EF1;}
	.st1{fill:#29CB97;}
	.st2{fill:#FEC400;}
	.st3{fill:#29C997;}
	.st4{fill:#B35AF1;}
	.st5{fill:#FFFFFF;}
	.st6{fill:#6B6B6B;}
	.st7{fill:#444444;}
	.st8{opacity:0.1;fill:#FFFFFF;}
	.st9{opacity:0.1;}
	.st10{fill:none;stroke:#F24343;stroke-width:14;stroke-miterlimit:10;}
	.st11{fill:none;stroke:#FFFFFF;stroke-width:14;stroke-miterlimit:10;}
	.st12{fill:none;stroke:#4C7EF1;stroke-width:14;stroke-miterlimit:10;}
	.st13{fill:none;stroke:#FEAB05;stroke-width:14;stroke-miterlimit:10;}
	.st14{fill:none;stroke:#29CB97;stroke-width:8;stroke-miterlimit:10;}
	.st15{fill:none;stroke:#29CB97;stroke-width:16;stroke-miterlimit:10;}
	.st16{fill:none;stroke:#FEC400;stroke-width:16;stroke-miterlimit:10;}
	.st17{fill:none;stroke:#FEAB05;stroke-width:16;stroke-miterlimit:10;}
	.st18{fill:none;stroke:#FEC400;stroke-width:8;stroke-miterlimit:10;}
	.st19{fill:none;stroke:#676767;stroke-width:8;stroke-miterlimit:10;}
	.st20{fill:none;stroke:#FEC400;stroke-width:2;stroke-miterlimit:10;}
	.st21{fill:#E6E6E6;}
	.st22{fill:#74D889;}
	.st23{fill:#FFDC70;}
	.st24{fill:#47ABFC;}
	.st25{fill:none;stroke:#FFFFFF;stroke-miterlimit:10;}
	.st26{fill:#4C7EF1;stroke:#0B0C0E;stroke-miterlimit:10;}
	.st27{fill:#FEC400;stroke:#0B0C0E;stroke-miterlimit:10;}
	.st28{fill:none;stroke:#AAA9A9;stroke-miterlimit:10;}
	.st29{fill:none;stroke:#A5A4A4;stroke-width:2;stroke-miterlimit:10;stroke-dasharray:1.0005,4.002;}
	.st30{fill:none;stroke:#4C7EF1;stroke-width:40;stroke-miterlimit:10;}
	.st31{fill:none;stroke:#FEC400;stroke-width:40;stroke-miterlimit:10;}
	.st32{fill:none;stroke:#676767;stroke-width:20;stroke-miterlimit:10;}
	.st33{fill:none;stroke:#FEC400;stroke-width:20;stroke-miterlimit:10;}
	.st34{fill:none;stroke:#29C997;stroke-width:20;stroke-miterlimit:10;}
	.st35{fill:none;stroke:#FFFFFF;stroke-width:20;stroke-miterlimit:10;}
	.st36{fill:none;stroke:#000000;stroke-miterlimit:10;}
	.st37{fill:none;stroke:#FFFFFF;stroke-width:2;stroke-miterlimit:10;stroke-dasharray:3.941,3.941;}
	.st38{opacity:0.5;fill:none;stroke:#FFFFFF;stroke-width:0.4926;stroke-miterlimit:10;stroke-dasharray:3.941,3.941;}
	.st39{fill:none;stroke:#00B091;stroke-width:4;stroke-miterlimit:10;}
	.st40{fill:none;stroke:#EDBF00;stroke-width:4;stroke-miterlimit:10;}
	.st41{fill:#EDBF00;}
	.st42{fill:#00B091;}
	.st43{opacity:0.8;fill:#00B091;}
	.st44{opacity:0.8;fill:#EDBF00;}
	.st45{opacity:0.8;fill:#D85700;}
	.st46{fill:#4C7EF1;stroke:#4C7EF1;stroke-miterlimit:10;}
	.st47{fill:none;stroke:#676767;stroke-width:2;stroke-miterlimit:10;}
	.st48{fill:none;stroke:#FEC400;stroke-width:0.25;stroke-miterlimit:10;}
	.st49{fill:none;stroke:#999999;stroke-width:0.25;stroke-miterlimit:10;}
	.st50{fill:#4C7EF1;stroke:#0B0C0E;stroke-width:0.25;stroke-miterlimit:10;}
	.st51{fill:#FEC400;stroke:#0B0C0E;stroke-width:0.25;stroke-miterlimit:10;}
	.st52{fill:none;stroke:#AAA9A9;stroke-width:0.25;stroke-miterlimit:10;}
	.st53{fill:none;stroke:#A5A4A4;stroke-width:2;stroke-miterlimit:10;stroke-dasharray:0.9678,3.8712;}
	.st54{fill:none;stroke:#4C7EF1;stroke-width:4;stroke-miterlimit:10;}
	.st55{fill:none;stroke:#FEC400;stroke-width:4;stroke-miterlimit:10;}
	.st56{fill:none;stroke:#29C997;stroke-width:2;stroke-miterlimit:10;}
	.st57{fill:none;stroke:#FFFFFF;stroke-width:2;stroke-miterlimit:10;}
	.st58{fill:none;stroke:#000000;stroke-width:0.25;stroke-miterlimit:10;}
	.st59{fill:none;stroke:#FFFFFF;stroke-width:0.25;stroke-miterlimit:10;stroke-dasharray:3.941,3.941;}
	.st60{opacity:0.5;fill:none;stroke:#FFFFFF;stroke-width:0.25;stroke-miterlimit:10;stroke-dasharray:3.941,3.941;}
	.st61{fill:none;stroke:#00B091;stroke-width:0.5;stroke-miterlimit:10;}
	.st62{fill:none;stroke:#EDBF00;stroke-width:0.5;stroke-miterlimit:10;}
	.st63{opacity:0.65;fill:url(#SVGID_1_);}
	.st64{opacity:0.65;fill:url(#SVGID_2_);}
	.st65{opacity:0.65;fill:url(#SVGID_3_);}
	.st66{opacity:0.65;fill:url(#SVGID_4_);}
	.st67{opacity:0.65;fill:url(#SVGID_5_);}
	.st68{opacity:0.65;fill:url(#SVGID_6_);}
	.st69{fill:#292E34;}
	.st70{opacity:0.6;}
	.st71{fill:#334469;}
	.st72{fill:#FEAB05;}
	.st73{opacity:0.4;fill:#0B0C0E;}
	.st74{opacity:0.7;}
	.st75{fill:#F24343;}
	.st76{opacity:0.42;fill:#676767;stroke:#F0F2F8;stroke-miterlimit:10;}
	.st77{fill:none;stroke:#F0F2F8;stroke-width:2;stroke-miterlimit:10;}
	.st78{clip-path:url(#SVGID_8_);}
	.st79{fill:#3B86FF;}
	.st80{opacity:0.36;}
	.st81{fill:#4170ED;}
	.st82{fill:#999999;}
	.st83{opacity:0.15;}
	.st84{clip-path:url(#SVGID_10_);}
	.st85{fill:#1CCC96;}
	.st86{opacity:0.43;}
	.st87{clip-path:url(#SVGID_12_);}
	.st88{fill:#30C3E9;}
	.st89{clip-path:url(#SVGID_14_);}
	.st90{fill:#BCEAEC;}
	.st91{opacity:0.14;}
	.st92{clip-path:url(#SVGID_16_);}
	.st93{fill:#FBC400;}
	.st94{fill:#1F1F1F;}
	.st95{fill:none;stroke:url(#SVGID_17_);stroke-width:0.15;stroke-miterlimit:10;}
	.st96{fill:none;stroke:#00B091;stroke-width:0.15;stroke-miterlimit:10;}
	.st97{fill:none;stroke:url(#SVGID_18_);stroke-width:0.15;stroke-miterlimit:10;}
	.st98{fill:none;stroke:url(#SVGID_19_);stroke-width:0.15;stroke-miterlimit:10;}
	.st99{fill:none;stroke:url(#SVGID_20_);stroke-width:0.15;stroke-miterlimit:10;}
	.st100{fill:none;stroke:url(#SVGID_21_);stroke-width:0.15;stroke-miterlimit:10;}
	.st101{opacity:0.5;fill:#4170ED;}
	.st102{fill:#666666;}
	.st103{fill:none;stroke:#4170ED;stroke-width:0.5;stroke-miterlimit:10;}
	.st104{fill:none;stroke:url(#SVGID_22_);stroke-width:0.5;stroke-miterlimit:10;stroke-dasharray:0.9965,0.9965;}
	.st105{opacity:0.4;}
	.st106{fill:url(#SVGID_23_);stroke:url(#SVGID_24_);stroke-width:0.5;stroke-miterlimit:10;}
	.st107{fill:none;stroke:url(#SVGID_25_);stroke-width:0.5;stroke-miterlimit:10;}
	.st108{fill:url(#SVGID_26_);stroke:url(#SVGID_27_);stroke-width:0.5;stroke-miterlimit:10;}
	.st109{fill:none;stroke:url(#SVGID_28_);stroke-width:0.5;stroke-miterlimit:10;stroke-dasharray:0.9965,0.9965;}
	.st110{fill:url(#SVGID_29_);}
	.st111{fill:none;stroke:url(#SVGID_30_);stroke-width:0.5;stroke-miterlimit:10;stroke-dasharray:0.994,0.994;}
	.st112{fill:none;stroke:url(#SVGID_31_);stroke-width:0.5;stroke-miterlimit:10;}
	.st113{fill:none;stroke:url(#SVGID_32_);stroke-width:0.5;stroke-miterlimit:10;}
	.st114{fill:none;stroke:url(#SVGID_33_);stroke-width:0.5;stroke-miterlimit:10;}
	.st115{fill:url(#SVGID_34_);stroke:url(#SVGID_35_);stroke-width:0.5;stroke-miterlimit:10;}
	.st116{fill:#3885E9;}
	.st117{opacity:0.33;}
	.st118{fill:none;stroke:#999999;stroke-miterlimit:10;}
	.st119{fill:none;stroke:#4170ED;stroke-miterlimit:10;}
	.st120{fill:none;stroke:url(#SVGID_36_);stroke-width:0.5;stroke-miterlimit:10;}
	.st121{fill:url(#SVGID_37_);}
	.st122{opacity:0.3;fill:none;stroke:#4170ED;stroke-miterlimit:10;}
	.st123{opacity:0.87;fill:none;stroke:url(#SVGID_38_);stroke-miterlimit:10;}
	.st124{opacity:0.53;fill:#FFFFFF;}
	.st125{opacity:0.3;fill:none;stroke:#4170ED;stroke-width:0.25;stroke-miterlimit:10;}
	.st126{fill:url(#SVGID_39_);stroke:url(#SVGID_40_);stroke-width:0.25;stroke-miterlimit:10;}
	.st127{fill:url(#SVGID_41_);stroke:url(#SVGID_42_);stroke-width:0.25;stroke-miterlimit:10;}
	.st128{fill:url(#SVGID_43_);stroke:url(#SVGID_44_);stroke-width:0.25;stroke-miterlimit:10;}
	.st129{fill:url(#SVGID_45_);stroke:url(#SVGID_46_);stroke-width:0.25;stroke-miterlimit:10;}
	.st130{clip-path:url(#SVGID_48_);fill:#BFBFBF;}
	.st131{fill:#BFBFBF;}
	.st132{clip-path:url(#SVGID_50_);fill:#BFBFBF;}
	.st133{clip-path:url(#SVGID_52_);fill:#BFBFBF;}
	.st134{clip-path:url(#SVGID_54_);fill:#BFBFBF;}
	.st135{clip-path:url(#SVGID_56_);fill:#BFBFBF;}
	.st136{clip-path:url(#SVGID_58_);fill:#BFBFBF;}
	.st137{fill:none;}
	.st138{fill:#1B3E60;}
	.st139{fill:#31446D;stroke:#4170ED;stroke-width:0.5;stroke-miterlimit:10;}
	.st140{opacity:0.31;fill:#EDBF00;}
	.st141{opacity:0.31;fill:#00B091;}
	.st142{fill:#31446D;stroke:#4C7EF1;stroke-width:0.5;stroke-miterlimit:10;}
	.st143{clip-path:url(#SVGID_60_);fill:#BFBFBF;}
	.st144{clip-path:url(#SVGID_62_);fill:#BFBFBF;}
	.st145{clip-path:url(#SVGID_64_);fill:#BFBFBF;}
	.st146{clip-path:url(#SVGID_66_);fill:#BFBFBF;}
	.st147{clip-path:url(#SVGID_68_);fill:#BFBFBF;}
	.st148{clip-path:url(#SVGID_70_);fill:#BFBFBF;}
	.st149{fill:url(#XMLID_644_);}
	.st150{fill:none;stroke:#4C7EF1;stroke-width:0.25;stroke-miterlimit:10;}
	.st151{opacity:0.5;fill:#4C7EF1;}
	.st152{fill:url(#SVGID_71_);}
	.st153{fill:url(#SVGID_72_);}
	.st154{fill:url(#SVGID_73_);}
	.st155{fill:url(#SVGID_74_);}
	.st156{fill:url(#SVGID_75_);}
	.st157{fill:none;stroke:#F24343;stroke-width:2;stroke-miterlimit:10;}
	.st158{fill:none;stroke:#4C7EF1;stroke-width:2;stroke-miterlimit:10;}
	.st159{fill:none;stroke:#FEAB05;stroke-width:2;stroke-miterlimit:10;}
	.st160{fill:none;stroke:#29CB97;stroke-width:2;stroke-miterlimit:10;}
	.st161{opacity:0.42;fill:#676767;stroke:#F0F2F8;stroke-width:0.5;stroke-miterlimit:10;}
	.st162{fill:none;stroke:#F0F2F8;stroke-miterlimit:10;}
	.st163{clip-path:url(#SVGID_77_);}
	.st164{opacity:0.56;fill:#4C7EF1;}
	.st165{fill:none;stroke:url(#SVGID_78_);stroke-width:0.5;stroke-miterlimit:10;stroke-dasharray:1.0027,1.0027;}
	.st166{fill:none;stroke:url(#SVGID_79_);stroke-width:0.5;stroke-miterlimit:10;}
	.st167{fill:none;stroke:url(#SVGID_80_);stroke-width:0.5;stroke-miterlimit:10;}
	.st168{fill:none;stroke:url(#SVGID_81_);stroke-width:0.5;stroke-miterlimit:10;}
	.st169{opacity:0.14;fill:none;stroke:#4C7EF1;stroke-width:0.25;stroke-miterlimit:10;}
	.st170{fill:#F2F2F2;}
	.st171{fill:none;stroke:#3B86FF;stroke-width:0.25;stroke-miterlimit:10;}
	.st172{fill:#676767;stroke:#3B86FF;stroke-width:0.25;stroke-miterlimit:10;}
	.st173{fill:#606060;stroke:#3B86FF;stroke-width:0.25;stroke-miterlimit:10;}
	.st174{fill:url(#SVGID_82_);stroke:url(#SVGID_83_);stroke-width:0.25;stroke-miterlimit:10;}
	.st175{fill:url(#SVGID_84_);stroke:url(#SVGID_85_);stroke-width:0.25;stroke-miterlimit:10;}
	.st176{fill:url(#SVGID_86_);stroke:url(#SVGID_87_);stroke-width:0.25;stroke-miterlimit:10;}
	.st177{fill:url(#SVGID_88_);stroke:url(#SVGID_89_);stroke-width:0.25;stroke-miterlimit:10;}
	.st178{fill:url(#SVGID_90_);stroke:url(#SVGID_91_);stroke-width:0.25;stroke-miterlimit:10;}
	.st179{opacity:0.46;fill:url(#SVGID_92_);}
	.st180{opacity:0.14;fill:#29CB97;stroke:#4C7EF1;stroke-width:0.25;stroke-miterlimit:10;}
	.st181{opacity:0.35;fill:#999999;}
	.st182{fill:none;stroke:#3B86FF;stroke-width:0.1;stroke-miterlimit:10;}
	.st183{opacity:0.14;fill:#4170ED;stroke:#4C7EF1;stroke-width:0.25;stroke-miterlimit:10;}
</style>
<linearGradient id="SVGID_1_" gradientUnits="userSpaceOnUse" x1="96.0822" y1="35.5596" x2="96.5822" y2="35.5596">
	<stop  offset="0" style="stop-color:#31446D"/>
	<stop  offset="0.2152" style="stop-color:#2F426A;stop-opacity:0.7848"/>
	<stop  offset="0.4027" style="stop-color:#2B3B5F;stop-opacity:0.5973"/>
	<stop  offset="0.5798" style="stop-color:#23304D;stop-opacity:0.4202"/>
	<stop  offset="0.7506" style="stop-color:#172034;stop-opacity:0.2494"/>
	<stop  offset="0.9153" style="stop-color:#090C14;stop-opacity:0.0847"/>
	<stop  offset="1" style="stop-color:#000000;stop-opacity:0"/>
</linearGradient>
<rect x="26.22" y="19.16" style="opacity:0.46;fill:url(#SVGID_1_);" width="61.48" height="32.8"/>
<rect x="26.3" y="12.89" class="st0" width="61.48" height="6.42"/>
<rect x="63.47" y="22.52" class="st125" width="20.14" height="25.3"/>
<g>
	<g>
		<path class="st81" d="M69.87,31.31c0,0.52,0.45,0.95,0.98,0.92c0.46-0.03,0.82-0.4,0.86-0.86c0.03-0.53-0.39-0.98-0.92-0.98
			C70.28,30.4,69.87,30.81,69.87,31.31L69.87,31.31z M78.16,37.23l-2.74-4.75c-0.13-0.22-0.45-0.22-0.58,0l-2.2,3.81l-1.3-2.26
			c-0.06-0.1-0.17-0.17-0.29-0.17c-0.12,0-0.23,0.06-0.29,0.17l-1.85,3.2c-0.06,0.1-0.06,0.23,0,0.33c0.06,0.1,0.17,0.17,0.29,0.17
			h8.67c0.12,0,0.23-0.06,0.29-0.17C78.22,37.46,78.22,37.33,78.16,37.23L78.16,37.23z M78.16,37.23"/>
	</g>
</g>
<g class="st86">
	<path class="st170" d="M29.65,25.61c0.11-0.02,0.16-0.03,0.16-0.08c0-0.05-0.06-0.21-0.13-0.39h-0.46
		c-0.02,0.04-0.12,0.31-0.12,0.37c0,0.07,0.05,0.08,0.17,0.1v0.03H28.8v-0.03c0.14-0.03,0.17-0.05,0.24-0.23l0.43-1.02l0.02-0.01
		l0.13,0.37c0.09,0.25,0.18,0.5,0.26,0.69c0.06,0.15,0.08,0.17,0.22,0.19v0.03h-0.46V25.61z M29.45,24.54
		c-0.08,0.18-0.16,0.37-0.22,0.54h0.42L29.45,24.54L29.45,24.54z"/>
	<path class="st170" d="M31.42,24.8c0,0.04-0.01,0.08-0.01,0.2v0.93c0,0.13,0.03,0.16,0.15,0.16v0.03h-0.45v-0.03
		c0.16-0.01,0.2-0.04,0.2-0.18v-0.35l-0.26,0.1c-0.29,0-0.43-0.21-0.43-0.39c0-0.28,0.25-0.48,0.56-0.48
		c0.06,0.01,0.11,0.01,0.13,0.02c0.02,0.01,0.03,0.01,0.04,0.01C31.37,24.82,31.4,24.81,31.42,24.8L31.42,24.8z M31.32,24.96
		c-0.05-0.07-0.15-0.11-0.25-0.11c-0.18,0-0.32,0.12-0.32,0.35c0,0.24,0.17,0.37,0.36,0.37c0.09,0,0.17-0.03,0.21-0.05V24.96z"/>
	<path class="st170" d="M31.85,25.32c0,0.2,0.1,0.25,0.21,0.25c0.08,0,0.18-0.04,0.26-0.12V25c0-0.12-0.03-0.13-0.1-0.14l-0.08-0.01
		v-0.02c0.09,0,0.22-0.02,0.27-0.04v0.65c0,0.1,0.02,0.11,0.1,0.12l0.06,0v0.03c-0.08,0.01-0.17,0.04-0.25,0.07l-0.01-0.01V25.5
		c-0.05,0.04-0.1,0.08-0.17,0.12c-0.06,0.03-0.1,0.04-0.15,0.04c-0.12,0-0.24-0.06-0.24-0.28v-0.37c0-0.12-0.03-0.13-0.07-0.14
		l-0.06-0.01v-0.02c0.05,0,0.19-0.03,0.24-0.04c-0.01,0.04-0.01,0.11-0.01,0.26V25.32z"/>
	<path class="st170" d="M32.65,25.61c0.13-0.01,0.15-0.04,0.15-0.15v-0.42c0-0.13-0.01-0.14-0.13-0.16v-0.03
		c0.08-0.02,0.15-0.04,0.22-0.08v0.68c0,0.12,0.02,0.14,0.15,0.15v0.03h-0.39V25.61z M32.92,24.42c0,0.04-0.03,0.08-0.08,0.08
		c-0.04,0-0.08-0.04-0.08-0.08c0-0.05,0.04-0.08,0.08-0.08C32.89,24.34,32.92,24.38,32.92,24.42z"/>
	<path class="st170" d="M33.89,25.46c-0.08,0.11-0.22,0.2-0.34,0.2c-0.24,0-0.4-0.19-0.4-0.39c0-0.37,0.35-0.49,0.5-0.49
		c0.05,0,0.21,0.03,0.21,0.1c0,0.03-0.04,0.07-0.07,0.07c-0.01,0-0.02-0.01-0.03-0.02c-0.07-0.05-0.14-0.07-0.24-0.07
		c-0.12,0-0.27,0.09-0.27,0.33c0,0.29,0.21,0.38,0.34,0.38c0.1,0,0.17-0.02,0.27-0.14L33.89,25.46z"/>
	<path class="st170" d="M33.95,25.61c0.14-0.01,0.16-0.04,0.16-0.17v-0.93c0-0.13-0.01-0.15-0.15-0.17v-0.02
		c0.1-0.01,0.21-0.05,0.24-0.07v0.93c0.08-0.02,0.11-0.04,0.14-0.06c0.08-0.07,0.19-0.22,0.19-0.25c0-0.02-0.03-0.03-0.08-0.04
		v-0.03l0.39-0.02v0.03c-0.15,0.02-0.2,0.04-0.46,0.33c0.04,0.06,0.27,0.3,0.33,0.35c0.09,0.08,0.13,0.11,0.19,0.11v0.03l-0.21,0
		c-0.12-0.11-0.25-0.27-0.37-0.38c-0.03-0.03-0.06-0.05-0.09-0.05c-0.01,0-0.03,0-0.05,0.01v0.22c0,0.13,0.02,0.16,0.16,0.17v0.03
		h-0.41V25.61z"/>
	<path class="st170" d="M35.82,24.79c0.01,0,0.03,0,0.05,0c0.21,0,0.39,0.16,0.39,0.4c0,0.28-0.23,0.48-0.5,0.48
		c-0.08,0-0.19-0.01-0.28-0.06v-1.09c0-0.13-0.01-0.14-0.14-0.16v-0.02c0.09-0.01,0.2-0.05,0.24-0.07v0.62L35.82,24.79z
		 M35.57,25.39c0,0.03,0,0.05,0.01,0.08c0.01,0.05,0.1,0.13,0.25,0.13c0.19,0,0.31-0.15,0.31-0.37c0-0.21-0.14-0.36-0.34-0.36
		c-0.09,0-0.18,0.02-0.23,0.05V25.39z"/>
	<path class="st170" d="M36.4,25.61c0.12-0.01,0.14-0.04,0.14-0.16v-0.39c0-0.15-0.01-0.16-0.14-0.17v-0.02
		c0.08-0.02,0.16-0.04,0.23-0.08v0.24h0c0.05-0.11,0.16-0.24,0.25-0.24c0.06,0,0.1,0.05,0.1,0.08c0,0.04-0.04,0.07-0.07,0.07
		c-0.01,0-0.01,0-0.02-0.01c-0.03-0.03-0.05-0.04-0.08-0.04c-0.05,0-0.13,0.09-0.18,0.24v0.33c0,0.12,0.02,0.15,0.18,0.16v0.03H36.4
		V25.61z"/>
	<path class="st170" d="M37.98,25.21c0,0.3-0.25,0.45-0.44,0.45c-0.26,0-0.44-0.2-0.44-0.42c0-0.32,0.27-0.46,0.44-0.46
		C37.78,24.78,37.98,24.98,37.98,25.21z M37.22,25.18c0,0.26,0.13,0.44,0.35,0.44c0.17,0,0.29-0.11,0.29-0.38
		c0-0.19-0.12-0.4-0.34-0.4C37.33,24.83,37.22,24.98,37.22,25.18z"/>
	<path class="st170" d="M38.97,25.66c-0.08-0.24-0.17-0.44-0.25-0.67c-0.08,0.22-0.17,0.44-0.25,0.67h-0.04
		c-0.07-0.23-0.14-0.46-0.22-0.67c-0.04-0.12-0.05-0.14-0.16-0.16v-0.03h0.36v0.03c-0.08,0.02-0.11,0.03-0.11,0.07
		c0,0.05,0.12,0.4,0.19,0.58h0c0.07-0.2,0.16-0.42,0.25-0.67h0.03c0.08,0.21,0.16,0.43,0.25,0.67h0c0.06-0.18,0.12-0.33,0.16-0.52
		c0.01-0.03,0.01-0.05,0.01-0.07c0-0.05-0.04-0.05-0.13-0.07v-0.03h0.35v0.03c-0.1,0.02-0.11,0.05-0.16,0.15
		c-0.05,0.12-0.16,0.43-0.25,0.68H38.97z"/>
	<path class="st170" d="M39.42,25.61c0.12-0.01,0.15-0.04,0.15-0.16v-0.4c0-0.13-0.01-0.14-0.13-0.16v-0.03
		c0.08-0.02,0.16-0.04,0.22-0.08v0.17c0.04-0.02,0.09-0.06,0.15-0.1c0.06-0.03,0.11-0.06,0.16-0.06c0.17,0,0.26,0.1,0.26,0.26v0.4
		c0,0.14,0.02,0.16,0.13,0.17v0.03h-0.39v-0.03c0.14-0.01,0.16-0.04,0.16-0.17v-0.33c0-0.11-0.03-0.24-0.22-0.24
		c-0.1,0-0.2,0.06-0.26,0.12v0.45c0,0.13,0.02,0.16,0.16,0.17v0.03h-0.4V25.61z"/>
	<path class="st170" d="M40.89,25.61c0.12-0.01,0.14-0.03,0.14-0.16v-0.58h-0.14l-0.01-0.02l0.05-0.04h0.1c0-0.08,0-0.18,0.02-0.21
		c0.02-0.04,0.05-0.15,0.15-0.23c0.07-0.06,0.15-0.1,0.21-0.11c0.07,0,0.16,0.06,0.16,0.1s-0.05,0.06-0.06,0.06
		c-0.01,0-0.02,0-0.02-0.01c-0.03-0.03-0.1-0.06-0.17-0.06c-0.05,0-0.09,0.02-0.12,0.05c-0.03,0.04-0.07,0.16-0.07,0.31l0,0.09h0.24
		c0,0.01,0.01,0.02,0.01,0.03c0,0.01-0.01,0.03-0.02,0.04h-0.23v0.58c0,0.12,0.02,0.15,0.18,0.16v0.02h-0.42V25.61z"/>
	<path class="st170" d="M42.32,25.21c0,0.3-0.25,0.45-0.44,0.45c-0.26,0-0.44-0.2-0.44-0.42c0-0.32,0.27-0.46,0.44-0.46
		C42.13,24.78,42.32,24.98,42.32,25.21z M41.57,25.18c0,0.26,0.13,0.44,0.35,0.44c0.17,0,0.29-0.11,0.29-0.38
		c0-0.19-0.12-0.4-0.34-0.4C41.68,24.83,41.57,24.98,41.57,25.18z"/>
	<path class="st170" d="M42.44,24.81h0.37v0.03c-0.06,0.01-0.09,0.02-0.09,0.04c0,0.01,0.01,0.03,0.03,0.06l0.14,0.2
		c0.03-0.06,0.08-0.12,0.13-0.2c0.01-0.02,0.02-0.04,0.02-0.05c0-0.03-0.03-0.04-0.09-0.05v-0.03h0.39v0.03
		c-0.14,0.01-0.18,0.04-0.26,0.14c-0.03,0.04-0.09,0.1-0.15,0.2l0.22,0.3c0.07,0.1,0.08,0.12,0.23,0.14v0.03h-0.4v-0.03
		c0.06-0.01,0.1-0.02,0.1-0.04c0-0.01-0.01-0.03-0.02-0.05l-0.18-0.26c-0.06,0.09-0.11,0.16-0.15,0.23
		c-0.02,0.03-0.03,0.05-0.03,0.07c0,0.03,0.03,0.04,0.1,0.05v0.03h-0.38v-0.03c0.15-0.02,0.15-0.03,0.24-0.14
		c0.06-0.08,0.12-0.16,0.19-0.25l-0.18-0.25c-0.06-0.09-0.1-0.12-0.22-0.14V24.81z"/>
	<path class="st170" d="M44.06,25.45c0,0.14,0,0.22-0.05,0.32c-0.06,0.14-0.18,0.38-0.24,0.38c-0.03,0-0.07-0.03-0.07-0.08
		c0-0.03,0.01-0.04,0.04-0.05c0.17-0.03,0.19-0.13,0.2-0.2c0.02-0.13,0.02-0.27,0.02-0.39v-0.39c0-0.13-0.02-0.14-0.15-0.16v-0.03
		c0.1-0.02,0.19-0.04,0.25-0.08V25.45z M44.01,24.34c0.05,0,0.08,0.04,0.08,0.08s-0.03,0.08-0.08,0.08c-0.04,0-0.08-0.04-0.08-0.08
		C43.94,24.38,43.97,24.34,44.01,24.34L44.01,24.34z"/>
	<path class="st170" d="M44.5,25.32c0,0.2,0.1,0.25,0.21,0.25c0.08,0,0.18-0.04,0.26-0.12V25c0-0.12-0.03-0.13-0.1-0.14l-0.08-0.01
		v-0.02c0.09,0,0.22-0.02,0.27-0.04v0.65c0,0.1,0.02,0.11,0.1,0.12l0.06,0v0.03c-0.08,0.01-0.17,0.04-0.25,0.07l-0.01-0.01V25.5
		c-0.05,0.04-0.1,0.08-0.17,0.12c-0.06,0.03-0.1,0.04-0.15,0.04c-0.12,0-0.24-0.06-0.24-0.28v-0.37c0-0.12-0.03-0.13-0.07-0.14
		l-0.06-0.01v-0.02c0.05,0,0.19-0.03,0.24-0.04c-0.01,0.04-0.01,0.11-0.01,0.26V25.32z"/>
	<path class="st170" d="M45.28,25.61c0.14-0.01,0.17-0.04,0.17-0.16v-0.39c0-0.13-0.01-0.14-0.13-0.17v-0.03
		c0.08-0.02,0.17-0.04,0.23-0.08v0.16c0.21-0.14,0.26-0.15,0.32-0.15c0.07,0,0.17,0.06,0.21,0.16c0.23-0.16,0.29-0.16,0.33-0.16
		c0.15,0,0.24,0.1,0.24,0.24v0.41c0,0.15,0.02,0.17,0.14,0.17v0.03h-0.41v-0.03c0.14-0.01,0.17-0.03,0.17-0.18v-0.31
		c0-0.13-0.03-0.25-0.21-0.25c-0.08,0-0.17,0.06-0.25,0.12c0,0.03,0.01,0.05,0.01,0.06v0.39c0,0.14,0.02,0.17,0.14,0.17v0.03h-0.41
		v-0.03c0.15-0.01,0.17-0.04,0.17-0.17v-0.32c0-0.13-0.04-0.24-0.21-0.24c-0.09,0-0.18,0.07-0.24,0.12v0.45
		c0,0.14,0.02,0.17,0.13,0.17v0.03h-0.4V25.61z"/>
	<path class="st170" d="M46.88,26.1c0.12-0.01,0.15-0.03,0.15-0.16v-0.9c0-0.13-0.01-0.14-0.14-0.16v-0.03
		c0.06-0.01,0.17-0.05,0.24-0.08v0.14l0.24-0.1c0.03-0.01,0.06-0.02,0.08-0.02c0.23,0,0.36,0.17,0.36,0.34
		c0,0.3-0.24,0.49-0.55,0.53c-0.06,0-0.11-0.03-0.13-0.04v0.29c0,0.16,0.03,0.18,0.2,0.19v0.02h-0.45V26.1z M47.12,25.48
		c0.04,0.05,0.12,0.09,0.23,0.09c0.17,0,0.34-0.12,0.34-0.37c0-0.19-0.11-0.34-0.32-0.34c-0.08,0-0.18,0.04-0.24,0.09V25.48z"/>
	<path class="st170" d="M47.99,25.37c0.04,0.13,0.13,0.25,0.25,0.25c0.08,0,0.16-0.05,0.16-0.16c0-0.11-0.07-0.16-0.17-0.2
		c-0.13-0.05-0.24-0.11-0.24-0.24c0-0.12,0.11-0.24,0.29-0.24c0.07,0,0.12,0.02,0.16,0.03c0.01,0.05,0.03,0.15,0.04,0.2l-0.03,0.01
		c-0.03-0.1-0.11-0.2-0.21-0.2c-0.1,0-0.15,0.07-0.15,0.15c0,0.1,0.1,0.15,0.18,0.18c0.14,0.05,0.24,0.13,0.24,0.26
		c0,0.16-0.15,0.25-0.3,0.25c-0.1,0-0.19-0.04-0.22-0.07c-0.01-0.03-0.02-0.15-0.03-0.22L47.99,25.37z"/>
	<path class="st170" d="M49.93,25.21c0,0.3-0.25,0.45-0.44,0.45c-0.26,0-0.44-0.2-0.44-0.42c0-0.32,0.27-0.46,0.44-0.46
		C49.74,24.78,49.93,24.98,49.93,25.21z M49.17,25.18c0,0.26,0.13,0.44,0.35,0.44c0.17,0,0.29-0.11,0.29-0.38
		c0-0.19-0.12-0.4-0.34-0.4C49.29,24.83,49.17,24.98,49.17,25.18z"/>
	<path class="st170" d="M50.96,24.83c-0.11,0.02-0.12,0.04-0.19,0.16c-0.06,0.12-0.19,0.38-0.3,0.66h-0.03
		c-0.08-0.22-0.17-0.45-0.25-0.66c-0.05-0.13-0.06-0.15-0.19-0.17v-0.03h0.36v0.03c-0.07,0.01-0.1,0.02-0.1,0.06
		c0,0.02,0.01,0.05,0.02,0.09c0.04,0.11,0.13,0.35,0.19,0.52c0.08-0.17,0.24-0.52,0.24-0.59c0-0.05-0.03-0.06-0.11-0.07v-0.03h0.35
		V24.83z"/>
	<path class="st170" d="M51.68,25.49c-0.12,0.14-0.25,0.17-0.3,0.17c-0.24,0-0.38-0.19-0.38-0.4c0-0.29,0.24-0.48,0.4-0.48
		c0.17,0,0.3,0.14,0.3,0.28c0,0.04,0,0.05-0.03,0.05c-0.03,0.01-0.29,0.03-0.56,0.04c0,0.3,0.18,0.41,0.32,0.41
		c0.07,0,0.14-0.01,0.24-0.11L51.68,25.49z M51.11,25.09c0.05,0,0.33,0,0.41-0.01c0.05,0,0.05-0.02,0.05-0.03
		c0-0.11-0.08-0.21-0.23-0.21C51.24,24.84,51.14,24.93,51.11,25.09z"/>
	<path class="st170" d="M51.81,25.61c0.12-0.01,0.14-0.04,0.14-0.16v-0.39c0-0.15-0.01-0.16-0.14-0.17v-0.02
		c0.08-0.02,0.16-0.04,0.23-0.08v0.24h0c0.05-0.11,0.16-0.24,0.25-0.24c0.06,0,0.1,0.05,0.1,0.08c0,0.04-0.04,0.07-0.07,0.07
		c-0.01,0-0.01,0-0.02-0.01c-0.03-0.03-0.05-0.04-0.08-0.04c-0.05,0-0.13,0.09-0.18,0.24v0.33c0,0.12,0.02,0.15,0.18,0.16v0.03
		h-0.42V25.61z"/>
	<path class="st170" d="M53.5,25.66c0,0-0.04-0.02-0.06-0.04c-0.02-0.03-0.03-0.05-0.04-0.09c-0.08,0.06-0.17,0.13-0.24,0.13
		c-0.14,0-0.23-0.1-0.23-0.23c0-0.09,0.06-0.15,0.2-0.2c0.1-0.03,0.23-0.08,0.27-0.11c0-0.1,0-0.27-0.18-0.27
		c-0.03,0-0.14,0.01-0.17,0.17c0,0.01-0.02,0.03-0.04,0.03c-0.03,0-0.06-0.03-0.06-0.07c0-0.03,0.02-0.05,0.06-0.07
		c0.05-0.03,0.18-0.12,0.28-0.14c0.1,0,0.22,0.06,0.22,0.24v0.43c0,0.08,0.03,0.11,0.07,0.11c0.03,0,0.07-0.01,0.09-0.03l0.02,0.03
		L53.5,25.66z M53.39,25.18c-0.04,0.02-0.17,0.07-0.21,0.09c-0.09,0.03-0.14,0.07-0.14,0.15c0,0.1,0.08,0.16,0.16,0.16
		c0.07,0,0.16-0.05,0.2-0.1V25.18z"/>
	<path class="st170" d="M54.12,25.61c0.13-0.01,0.15-0.04,0.15-0.16v-0.94c0-0.14-0.02-0.15-0.14-0.16v-0.02
		c0.1-0.01,0.21-0.05,0.24-0.07v1.19c0,0.12,0.02,0.15,0.15,0.16v0.03h-0.39V25.61z"/>
	<path class="st170" d="M55.2,25.66c0,0-0.04-0.02-0.06-0.04c-0.02-0.03-0.03-0.05-0.04-0.09c-0.08,0.06-0.17,0.13-0.24,0.13
		c-0.14,0-0.23-0.1-0.23-0.23c0-0.09,0.06-0.15,0.2-0.2c0.1-0.03,0.23-0.08,0.27-0.11c0-0.1,0-0.27-0.18-0.27
		c-0.03,0-0.14,0.01-0.17,0.17c0,0.01-0.02,0.03-0.04,0.03c-0.03,0-0.06-0.03-0.06-0.07c0-0.03,0.02-0.05,0.06-0.07
		c0.05-0.03,0.18-0.12,0.28-0.14c0.1,0,0.22,0.06,0.22,0.24v0.43c0,0.08,0.03,0.11,0.07,0.11c0.03,0,0.07-0.01,0.09-0.03l0.02,0.03
		L55.2,25.66z M55.09,25.18c-0.04,0.02-0.17,0.07-0.21,0.09c-0.09,0.03-0.14,0.07-0.14,0.15c0,0.1,0.08,0.16,0.16,0.16
		c0.07,0,0.16-0.05,0.2-0.1V25.18z"/>
	<path class="st170" d="M55.54,24.77c0.01,0.03,0.04,0.04,0.11,0.04h0.46l0.01,0.02c-0.18,0.25-0.38,0.5-0.55,0.77h0.26
		c0.16,0,0.19-0.05,0.31-0.19l0.03,0.02c-0.02,0.05-0.05,0.13-0.09,0.22h-0.65l0-0.02c0.19-0.25,0.37-0.51,0.55-0.77h-0.21
		c-0.16,0-0.2,0.05-0.28,0.19l-0.03-0.01c0.02-0.06,0.05-0.19,0.06-0.26L55.54,24.77z"/>
	<path class="st170" d="M56.18,24.81h0.37v0.03c-0.07,0.01-0.1,0.03-0.1,0.07c0,0.01,0,0.03,0.01,0.05l0.22,0.53
		c0.03-0.06,0.22-0.47,0.22-0.57c0-0.05-0.03-0.06-0.12-0.08v-0.03h0.37v0.03c-0.11,0.01-0.12,0.04-0.18,0.14
		c-0.06,0.1-0.13,0.27-0.3,0.61c-0.15,0.3-0.2,0.41-0.23,0.52c-0.01,0.03-0.03,0.04-0.06,0.04c-0.05,0-0.09-0.04-0.09-0.08
		c0-0.03,0.02-0.04,0.05-0.06c0.15-0.1,0.25-0.36,0.25-0.39c0-0.02-0.12-0.35-0.23-0.63c-0.04-0.1-0.06-0.13-0.18-0.15V24.81z"/>
	<path class="st170" d="M58.12,24.33c0.1-0.01,0.23-0.05,0.27-0.07v1.17c0,0.1,0.02,0.12,0.09,0.13l0.07,0.01v0.02
		c-0.04,0.01-0.17,0.03-0.26,0.07v-0.14l-0.12,0.06c-0.12,0.06-0.18,0.08-0.21,0.08c-0.17,0-0.38-0.14-0.38-0.4
		c0-0.26,0.22-0.47,0.53-0.47c0.04,0,0.12,0.01,0.18,0.02v-0.3c0-0.14-0.02-0.14-0.17-0.16V24.33z M58.29,24.95
		c-0.06-0.07-0.16-0.1-0.26-0.1c-0.13,0-0.32,0.07-0.32,0.36c0,0.23,0.15,0.37,0.33,0.37c0.12,0,0.2-0.07,0.26-0.11V24.95z"/>
	<path class="st170" d="M59.53,25.21c0,0.3-0.25,0.45-0.44,0.45c-0.26,0-0.44-0.2-0.44-0.42c0-0.32,0.27-0.46,0.44-0.46
		C59.34,24.78,59.53,24.98,59.53,25.21z M58.77,25.18c0,0.26,0.13,0.44,0.35,0.44c0.17,0,0.29-0.11,0.29-0.38
		c0-0.19-0.12-0.4-0.34-0.4C58.88,24.83,58.77,24.98,58.77,25.18z"/>
	<path class="st170" d="M60.29,24.9c0.04,0.04,0.07,0.11,0.07,0.17c0,0.21-0.19,0.31-0.33,0.31c-0.02,0-0.04,0-0.07-0.01
		c-0.05,0.02-0.12,0.06-0.12,0.1c0,0.04,0.05,0.07,0.12,0.07c0.08,0,0.16-0.01,0.24-0.01c0.14,0,0.28,0.04,0.28,0.22
		c0,0.18-0.22,0.38-0.48,0.38c-0.22,0-0.34-0.13-0.34-0.26c0-0.05,0.02-0.09,0.04-0.12c0.04-0.05,0.13-0.11,0.18-0.15
		c-0.08-0.02-0.17-0.09-0.17-0.17c0.06-0.02,0.16-0.07,0.19-0.1c-0.09-0.03-0.18-0.13-0.18-0.24c0-0.27,0.3-0.4,0.5-0.28
		c0.1-0.01,0.18-0.02,0.27-0.03l0.01,0.02c-0.02,0.03-0.06,0.07-0.09,0.08H60.29z M59.77,25.85c0,0.13,0.12,0.23,0.28,0.23
		c0.23,0,0.33-0.12,0.33-0.26c0-0.06-0.03-0.12-0.08-0.15c-0.06-0.03-0.12-0.03-0.23-0.03C59.78,25.63,59.77,25.81,59.77,25.85z
		 M59.84,25.05c0,0.19,0.09,0.29,0.22,0.29c0.09,0,0.18-0.06,0.18-0.23c0-0.18-0.07-0.28-0.21-0.28
		C59.92,24.82,59.84,24.9,59.84,25.05z"/>
</g>
<g class="st86">
	<path class="st170" d="M29.65,29.97c0.11-0.02,0.16-0.03,0.16-0.08c0-0.05-0.06-0.21-0.13-0.39h-0.46
		c-0.02,0.04-0.12,0.31-0.12,0.37c0,0.07,0.05,0.08,0.17,0.1v0.03H28.8v-0.03c0.14-0.03,0.17-0.05,0.24-0.23l0.43-1.02l0.02-0.01
		l0.13,0.37c0.09,0.25,0.18,0.5,0.26,0.69c0.06,0.15,0.08,0.17,0.22,0.19v0.03h-0.46V29.97z M29.45,28.9
		c-0.08,0.18-0.16,0.37-0.22,0.54h0.42L29.45,28.9L29.45,28.9z"/>
	<path class="st170" d="M31.42,29.16c0,0.04-0.01,0.08-0.01,0.2v0.93c0,0.13,0.03,0.16,0.15,0.16v0.03h-0.45v-0.03
		c0.16-0.01,0.2-0.04,0.2-0.18v-0.35l-0.26,0.1c-0.29,0-0.43-0.21-0.43-0.39c0-0.28,0.25-0.48,0.56-0.48
		c0.06,0.01,0.11,0.01,0.13,0.02c0.02,0.01,0.03,0.01,0.04,0.01C31.37,29.18,31.4,29.16,31.42,29.16L31.42,29.16z M31.32,29.31
		c-0.05-0.07-0.15-0.11-0.25-0.11c-0.18,0-0.32,0.12-0.32,0.35c0,0.24,0.17,0.37,0.36,0.37c0.09,0,0.17-0.03,0.21-0.05V29.31z"/>
	<path class="st170" d="M31.85,29.67c0,0.2,0.1,0.25,0.21,0.25c0.08,0,0.18-0.04,0.26-0.12v-0.44c0-0.12-0.03-0.13-0.1-0.14
		l-0.08-0.01v-0.02c0.09,0,0.22-0.02,0.27-0.04v0.65c0,0.1,0.02,0.11,0.1,0.12l0.06,0v0.03c-0.08,0.01-0.17,0.04-0.25,0.07
		l-0.01-0.01v-0.15c-0.05,0.04-0.1,0.08-0.17,0.12c-0.06,0.03-0.1,0.04-0.15,0.04c-0.12,0-0.24-0.06-0.24-0.28v-0.37
		c0-0.12-0.03-0.13-0.07-0.14l-0.06-0.01v-0.02c0.05,0,0.19-0.03,0.24-0.04c-0.01,0.04-0.01,0.11-0.01,0.26V29.67z"/>
	<path class="st170" d="M32.65,29.97c0.13-0.01,0.15-0.04,0.15-0.15V29.4c0-0.13-0.01-0.14-0.13-0.16v-0.03
		c0.08-0.02,0.15-0.04,0.22-0.08v0.68c0,0.12,0.02,0.14,0.15,0.15v0.03h-0.39V29.97z M32.92,28.78c0,0.04-0.03,0.08-0.08,0.08
		c-0.04,0-0.08-0.04-0.08-0.08c0-0.05,0.04-0.08,0.08-0.08C32.89,28.69,32.92,28.74,32.92,28.78z"/>
	<path class="st170" d="M33.89,29.81c-0.08,0.11-0.22,0.2-0.34,0.2c-0.24,0-0.4-0.19-0.4-0.39c0-0.37,0.35-0.49,0.5-0.49
		c0.05,0,0.21,0.03,0.21,0.1c0,0.03-0.04,0.07-0.07,0.07c-0.01,0-0.02-0.01-0.03-0.02c-0.07-0.05-0.14-0.07-0.24-0.07
		c-0.12,0-0.27,0.09-0.27,0.33c0,0.29,0.21,0.38,0.34,0.38c0.1,0,0.17-0.02,0.27-0.14L33.89,29.81z"/>
	<path class="st170" d="M33.95,29.97c0.14-0.01,0.16-0.04,0.16-0.17v-0.93c0-0.13-0.01-0.15-0.15-0.17v-0.02
		c0.1-0.01,0.21-0.05,0.24-0.07v0.93c0.08-0.02,0.11-0.04,0.14-0.06c0.08-0.07,0.19-0.22,0.19-0.25c0-0.02-0.03-0.03-0.08-0.04
		v-0.03l0.39-0.02v0.03c-0.15,0.02-0.2,0.04-0.46,0.33c0.04,0.06,0.27,0.3,0.33,0.35c0.09,0.08,0.13,0.11,0.19,0.11v0.03l-0.21,0
		c-0.12-0.11-0.25-0.27-0.37-0.38c-0.03-0.03-0.06-0.05-0.09-0.05c-0.01,0-0.03,0-0.05,0.01v0.22c0,0.13,0.02,0.16,0.16,0.17v0.03
		h-0.41V29.97z"/>
	<path class="st170" d="M35.82,29.14c0.01,0,0.03,0,0.05,0c0.21,0,0.39,0.16,0.39,0.4c0,0.28-0.23,0.48-0.5,0.48
		c-0.08,0-0.19-0.01-0.28-0.06v-1.09c0-0.13-0.01-0.14-0.14-0.16v-0.02c0.09-0.01,0.2-0.05,0.24-0.07v0.62L35.82,29.14z
		 M35.57,29.74c0,0.03,0,0.05,0.01,0.08c0.01,0.05,0.1,0.13,0.25,0.13c0.19,0,0.31-0.15,0.31-0.37c0-0.21-0.14-0.36-0.34-0.36
		c-0.09,0-0.18,0.02-0.23,0.05V29.74z"/>
	<path class="st170" d="M36.4,29.97c0.12-0.01,0.14-0.04,0.14-0.16v-0.39c0-0.15-0.01-0.16-0.14-0.17v-0.02
		c0.08-0.02,0.16-0.04,0.23-0.08v0.24h0c0.05-0.11,0.16-0.24,0.25-0.24c0.06,0,0.1,0.05,0.1,0.08c0,0.04-0.04,0.07-0.07,0.07
		c-0.01,0-0.01,0-0.02-0.01c-0.03-0.03-0.05-0.04-0.08-0.04c-0.05,0-0.13,0.09-0.18,0.24v0.33c0,0.12,0.02,0.15,0.18,0.16v0.03H36.4
		V29.97z"/>
	<path class="st170" d="M37.98,29.56c0,0.3-0.25,0.45-0.44,0.45c-0.26,0-0.44-0.2-0.44-0.42c0-0.32,0.27-0.46,0.44-0.46
		C37.78,29.14,37.98,29.33,37.98,29.56z M37.22,29.53c0,0.26,0.13,0.44,0.35,0.44c0.17,0,0.29-0.11,0.29-0.38
		c0-0.19-0.12-0.4-0.34-0.4C37.33,29.19,37.22,29.33,37.22,29.53z"/>
	<path class="st170" d="M38.97,30.02c-0.08-0.24-0.17-0.44-0.25-0.67c-0.08,0.22-0.17,0.44-0.25,0.67h-0.04
		c-0.07-0.23-0.14-0.46-0.22-0.67c-0.04-0.12-0.05-0.14-0.16-0.16v-0.03h0.36v0.03c-0.08,0.02-0.11,0.03-0.11,0.07
		c0,0.05,0.12,0.4,0.19,0.58h0c0.07-0.2,0.16-0.42,0.25-0.67h0.03c0.08,0.21,0.16,0.43,0.25,0.67h0c0.06-0.18,0.12-0.33,0.16-0.52
		c0.01-0.03,0.01-0.05,0.01-0.07c0-0.04-0.04-0.05-0.13-0.07v-0.03h0.35v0.03c-0.1,0.02-0.11,0.05-0.16,0.15
		c-0.05,0.12-0.16,0.43-0.25,0.68H38.97z"/>
	<path class="st170" d="M39.42,29.97c0.12-0.01,0.15-0.04,0.15-0.16v-0.4c0-0.13-0.01-0.14-0.13-0.16v-0.03
		c0.08-0.02,0.16-0.04,0.22-0.08v0.17c0.04-0.02,0.09-0.06,0.15-0.1c0.06-0.04,0.11-0.06,0.16-0.06c0.17,0,0.26,0.1,0.26,0.26v0.4
		c0,0.14,0.02,0.16,0.13,0.17v0.03h-0.39v-0.03c0.14-0.01,0.16-0.04,0.16-0.17v-0.33c0-0.11-0.03-0.24-0.22-0.24
		c-0.1,0-0.2,0.06-0.26,0.12v0.45c0,0.13,0.02,0.16,0.16,0.17v0.03h-0.4V29.97z"/>
	<path class="st170" d="M40.89,29.97c0.12-0.01,0.14-0.03,0.14-0.16v-0.58h-0.14l-0.01-0.02l0.05-0.04h0.1c0-0.08,0-0.18,0.02-0.21
		c0.02-0.04,0.05-0.15,0.15-0.23c0.07-0.06,0.15-0.1,0.21-0.11c0.07,0,0.16,0.06,0.16,0.1s-0.05,0.06-0.06,0.06
		c-0.01,0-0.02,0-0.02-0.01c-0.03-0.03-0.1-0.06-0.17-0.06c-0.05,0-0.09,0.02-0.12,0.05c-0.03,0.04-0.07,0.16-0.07,0.31l0,0.09h0.24
		c0,0.01,0.01,0.02,0.01,0.03c0,0.01-0.01,0.03-0.02,0.04h-0.23v0.58c0,0.12,0.02,0.15,0.18,0.16v0.02h-0.42V29.97z"/>
	<path class="st170" d="M42.32,29.56c0,0.3-0.25,0.45-0.44,0.45c-0.26,0-0.44-0.2-0.44-0.42c0-0.32,0.27-0.46,0.44-0.46
		C42.13,29.14,42.32,29.33,42.32,29.56z M41.57,29.53c0,0.26,0.13,0.44,0.35,0.44c0.17,0,0.29-0.11,0.29-0.38
		c0-0.19-0.12-0.4-0.34-0.4C41.68,29.19,41.57,29.33,41.57,29.53z"/>
	<path class="st170" d="M42.44,29.16h0.37v0.03c-0.06,0.01-0.09,0.02-0.09,0.04c0,0.01,0.01,0.03,0.03,0.06l0.14,0.2
		c0.03-0.06,0.08-0.12,0.13-0.2c0.01-0.02,0.02-0.04,0.02-0.05c0-0.03-0.03-0.04-0.09-0.05v-0.03h0.39v0.03
		c-0.14,0.01-0.18,0.04-0.26,0.14c-0.03,0.04-0.09,0.1-0.15,0.2l0.22,0.3c0.07,0.1,0.08,0.12,0.23,0.14v0.03h-0.4v-0.03
		c0.06-0.01,0.1-0.02,0.1-0.04c0-0.01-0.01-0.03-0.02-0.05l-0.18-0.26c-0.06,0.09-0.11,0.16-0.15,0.23
		c-0.02,0.03-0.03,0.05-0.03,0.07c0,0.03,0.03,0.04,0.1,0.05v0.03h-0.38v-0.03c0.15-0.02,0.15-0.03,0.24-0.14
		c0.06-0.08,0.12-0.16,0.19-0.25l-0.18-0.25c-0.06-0.09-0.1-0.12-0.22-0.14V29.16z"/>
	<path class="st170" d="M44.06,29.81c0,0.14,0,0.22-0.05,0.32c-0.06,0.14-0.18,0.38-0.24,0.38c-0.03,0-0.07-0.03-0.07-0.08
		c0-0.03,0.01-0.04,0.04-0.05c0.17-0.03,0.19-0.13,0.2-0.2c0.02-0.13,0.02-0.27,0.02-0.39V29.4c0-0.13-0.02-0.14-0.15-0.16v-0.03
		c0.1-0.02,0.19-0.04,0.25-0.08V29.81z M44.01,28.7c0.05,0,0.08,0.04,0.08,0.08c0,0.04-0.03,0.08-0.08,0.08
		c-0.04,0-0.08-0.04-0.08-0.08C43.94,28.73,43.97,28.69,44.01,28.7L44.01,28.7z"/>
	<path class="st170" d="M44.5,29.67c0,0.2,0.1,0.25,0.21,0.25c0.08,0,0.18-0.04,0.26-0.12v-0.44c0-0.12-0.03-0.13-0.1-0.14
		l-0.08-0.01v-0.02c0.09,0,0.22-0.02,0.27-0.04v0.65c0,0.1,0.02,0.11,0.1,0.12l0.06,0v0.03c-0.08,0.01-0.17,0.04-0.25,0.07
		l-0.01-0.01v-0.15c-0.05,0.04-0.1,0.08-0.17,0.12c-0.06,0.03-0.1,0.04-0.15,0.04c-0.12,0-0.24-0.06-0.24-0.28v-0.37
		c0-0.12-0.03-0.13-0.07-0.14l-0.06-0.01v-0.02c0.05,0,0.19-0.03,0.24-0.04c-0.01,0.04-0.01,0.11-0.01,0.26V29.67z"/>
	<path class="st170" d="M45.28,29.97c0.14-0.01,0.17-0.04,0.17-0.16v-0.39c0-0.13-0.01-0.14-0.13-0.17v-0.03
		c0.08-0.02,0.17-0.04,0.23-0.08v0.16c0.21-0.14,0.26-0.15,0.32-0.15c0.07,0,0.17,0.06,0.21,0.16c0.23-0.16,0.29-0.16,0.33-0.16
		c0.15,0,0.24,0.1,0.24,0.24v0.41c0,0.14,0.02,0.17,0.14,0.17v0.03h-0.41v-0.03c0.14-0.01,0.17-0.04,0.17-0.18v-0.31
		c0-0.13-0.03-0.25-0.21-0.25c-0.08,0-0.17,0.06-0.25,0.12c0,0.03,0.01,0.05,0.01,0.06v0.39c0,0.13,0.02,0.17,0.14,0.17v0.03h-0.41
		v-0.03c0.15-0.01,0.17-0.04,0.17-0.17v-0.32c0-0.13-0.04-0.24-0.21-0.24c-0.09,0-0.18,0.07-0.24,0.12v0.45
		c0,0.13,0.02,0.17,0.13,0.17v0.03h-0.4V29.97z"/>
	<path class="st170" d="M46.88,30.45c0.12-0.01,0.15-0.03,0.15-0.16v-0.9c0-0.13-0.01-0.14-0.14-0.16V29.2
		c0.06-0.01,0.17-0.05,0.24-0.08v0.14l0.24-0.1c0.03-0.01,0.06-0.02,0.08-0.02c0.23,0,0.36,0.17,0.36,0.34
		c0,0.3-0.24,0.49-0.55,0.53c-0.06,0-0.11-0.03-0.13-0.04v0.29c0,0.16,0.03,0.18,0.2,0.19v0.02h-0.45V30.45z M47.12,29.83
		c0.04,0.05,0.12,0.09,0.23,0.09c0.17,0,0.34-0.12,0.34-0.37c0-0.19-0.11-0.34-0.32-0.34c-0.08,0-0.18,0.04-0.24,0.09V29.83z"/>
	<path class="st170" d="M47.99,29.72c0.04,0.13,0.13,0.25,0.25,0.25c0.08,0,0.16-0.05,0.16-0.16c0-0.11-0.07-0.16-0.17-0.2
		c-0.13-0.05-0.24-0.11-0.24-0.24s0.11-0.24,0.29-0.24c0.07,0,0.12,0.02,0.16,0.03c0.01,0.05,0.03,0.15,0.04,0.2l-0.03,0.01
		c-0.03-0.1-0.11-0.2-0.21-0.2c-0.1,0-0.15,0.07-0.15,0.15c0,0.1,0.1,0.15,0.18,0.18c0.14,0.05,0.24,0.13,0.24,0.26
		c0,0.16-0.15,0.25-0.3,0.25c-0.1,0-0.19-0.04-0.22-0.07c-0.01-0.03-0.02-0.15-0.03-0.22L47.99,29.72z"/>
	<path class="st170" d="M49.93,29.56c0,0.3-0.25,0.45-0.44,0.45c-0.26,0-0.44-0.2-0.44-0.42c0-0.32,0.27-0.46,0.44-0.46
		C49.74,29.14,49.93,29.33,49.93,29.56z M49.17,29.53c0,0.26,0.13,0.44,0.35,0.44c0.17,0,0.29-0.11,0.29-0.38
		c0-0.19-0.12-0.4-0.34-0.4C49.29,29.19,49.17,29.33,49.17,29.53z"/>
	<path class="st170" d="M50.96,29.19c-0.11,0.02-0.12,0.04-0.19,0.16c-0.06,0.12-0.19,0.38-0.3,0.66h-0.03
		c-0.08-0.22-0.17-0.45-0.25-0.66c-0.05-0.13-0.06-0.15-0.19-0.17v-0.03h0.36v0.03c-0.07,0.01-0.1,0.02-0.1,0.06
		c0,0.02,0.01,0.05,0.02,0.09c0.04,0.11,0.13,0.35,0.19,0.52c0.08-0.17,0.24-0.52,0.24-0.59c0-0.05-0.03-0.06-0.11-0.07v-0.03h0.35
		V29.19z"/>
	<path class="st170" d="M51.68,29.84c-0.12,0.14-0.25,0.17-0.3,0.17c-0.24,0-0.38-0.19-0.38-0.4c0-0.29,0.24-0.48,0.4-0.48
		c0.17,0,0.3,0.14,0.3,0.28c0,0.04,0,0.05-0.03,0.05c-0.03,0.01-0.29,0.03-0.56,0.04c0,0.3,0.18,0.41,0.32,0.41
		c0.07,0,0.14-0.01,0.24-0.11L51.68,29.84z M51.11,29.45c0.05,0,0.33,0,0.41-0.01c0.05,0,0.05-0.02,0.05-0.03
		c0-0.11-0.08-0.21-0.23-0.21C51.24,29.2,51.14,29.28,51.11,29.45z"/>
	<path class="st170" d="M51.81,29.97c0.12-0.01,0.14-0.04,0.14-0.16v-0.39c0-0.15-0.01-0.16-0.14-0.17v-0.02
		c0.08-0.02,0.16-0.04,0.23-0.08v0.24h0c0.05-0.11,0.16-0.24,0.25-0.24c0.06,0,0.1,0.05,0.1,0.08c0,0.04-0.04,0.07-0.07,0.07
		c-0.01,0-0.01,0-0.02-0.01c-0.03-0.03-0.05-0.04-0.08-0.04c-0.05,0-0.13,0.09-0.18,0.24v0.33c0,0.12,0.02,0.15,0.18,0.16v0.03
		h-0.42V29.97z"/>
	<path class="st170" d="M53.5,30.02c0,0-0.04-0.02-0.06-0.04c-0.02-0.03-0.03-0.05-0.04-0.09c-0.08,0.06-0.17,0.13-0.24,0.13
		c-0.14,0-0.23-0.1-0.23-0.23c0-0.09,0.06-0.15,0.2-0.2c0.1-0.03,0.23-0.08,0.27-0.11c0-0.1,0-0.27-0.18-0.27
		c-0.03,0-0.14,0.01-0.17,0.17c0,0.01-0.02,0.03-0.04,0.03c-0.03,0-0.06-0.03-0.06-0.07c0-0.03,0.02-0.05,0.06-0.07
		c0.05-0.03,0.18-0.12,0.28-0.14c0.1,0,0.22,0.06,0.22,0.24v0.43c0,0.08,0.03,0.11,0.07,0.11c0.03,0,0.07-0.01,0.09-0.03l0.02,0.03
		L53.5,30.02z M53.39,29.54c-0.04,0.02-0.17,0.07-0.21,0.09c-0.09,0.03-0.14,0.07-0.14,0.15c0,0.1,0.08,0.16,0.16,0.16
		c0.07,0,0.16-0.05,0.2-0.1V29.54z"/>
	<path class="st170" d="M54.12,29.97c0.13-0.01,0.15-0.04,0.15-0.16v-0.94c0-0.14-0.02-0.15-0.14-0.16v-0.02
		c0.1-0.01,0.21-0.05,0.24-0.07v1.19c0,0.12,0.02,0.15,0.15,0.16v0.03h-0.39V29.97z"/>
	<path class="st170" d="M55.2,30.02c0,0-0.04-0.02-0.06-0.04c-0.02-0.03-0.03-0.05-0.04-0.09c-0.08,0.06-0.17,0.13-0.24,0.13
		c-0.14,0-0.23-0.1-0.23-0.23c0-0.09,0.06-0.15,0.2-0.2c0.1-0.03,0.23-0.08,0.27-0.11c0-0.1,0-0.27-0.18-0.27
		c-0.03,0-0.14,0.01-0.17,0.17c0,0.01-0.02,0.03-0.04,0.03c-0.03,0-0.06-0.03-0.06-0.07c0-0.03,0.02-0.05,0.06-0.07
		c0.05-0.03,0.18-0.12,0.28-0.14c0.1,0,0.22,0.06,0.22,0.24v0.43c0,0.08,0.03,0.11,0.07,0.11c0.03,0,0.07-0.01,0.09-0.03l0.02,0.03
		L55.2,30.02z M55.09,29.54c-0.04,0.02-0.17,0.07-0.21,0.09c-0.09,0.03-0.14,0.07-0.14,0.15c0,0.1,0.08,0.16,0.16,0.16
		c0.07,0,0.16-0.05,0.2-0.1V29.54z"/>
	<path class="st170" d="M55.54,29.13c0.01,0.03,0.04,0.04,0.11,0.04h0.46l0.01,0.02c-0.18,0.25-0.38,0.5-0.55,0.77h0.26
		c0.16,0,0.19-0.05,0.31-0.19l0.03,0.02c-0.02,0.05-0.05,0.13-0.09,0.22h-0.65l0-0.02c0.19-0.25,0.37-0.51,0.55-0.77h-0.21
		c-0.16,0-0.2,0.05-0.28,0.19l-0.03-0.01c0.02-0.06,0.05-0.19,0.06-0.26L55.54,29.13z"/>
	<path class="st170" d="M56.18,29.16h0.37v0.03c-0.07,0.01-0.1,0.03-0.1,0.07c0,0.01,0,0.03,0.01,0.05l0.22,0.53
		c0.03-0.06,0.22-0.47,0.22-0.57c0-0.05-0.03-0.06-0.12-0.08v-0.03h0.37v0.03c-0.11,0.01-0.12,0.04-0.18,0.14
		c-0.06,0.1-0.13,0.27-0.3,0.61c-0.15,0.3-0.2,0.41-0.23,0.52c-0.01,0.03-0.03,0.04-0.06,0.04c-0.05,0-0.09-0.04-0.09-0.08
		c0-0.03,0.02-0.04,0.05-0.06c0.15-0.1,0.25-0.36,0.25-0.39c0-0.02-0.12-0.35-0.23-0.63c-0.04-0.1-0.06-0.13-0.18-0.15V29.16z"/>
	<path class="st170" d="M58.12,28.68c0.1-0.01,0.23-0.05,0.27-0.07v1.17c0,0.1,0.02,0.12,0.09,0.13l0.07,0.01v0.02
		c-0.04,0.01-0.17,0.03-0.26,0.07v-0.14l-0.12,0.06C58.06,30,58,30.02,57.97,30.02c-0.17,0-0.38-0.14-0.38-0.4
		c0-0.26,0.22-0.47,0.53-0.47c0.04,0,0.12,0.01,0.18,0.02v-0.29c0-0.14-0.02-0.14-0.17-0.16V28.68z M58.29,29.3
		c-0.06-0.07-0.16-0.1-0.26-0.1c-0.13,0-0.32,0.07-0.32,0.36c0,0.23,0.15,0.37,0.33,0.37c0.12,0,0.2-0.07,0.26-0.11V29.3z"/>
	<path class="st170" d="M59.53,29.56c0,0.3-0.25,0.45-0.44,0.45c-0.26,0-0.44-0.2-0.44-0.42c0-0.32,0.27-0.46,0.44-0.46
		C59.34,29.14,59.53,29.33,59.53,29.56z M58.77,29.53c0,0.26,0.13,0.44,0.35,0.44c0.17,0,0.29-0.11,0.29-0.38
		c0-0.19-0.12-0.4-0.34-0.4C58.88,29.19,58.77,29.33,58.77,29.53z"/>
	<path class="st170" d="M60.29,29.25c0.04,0.04,0.07,0.11,0.07,0.17c0,0.21-0.19,0.31-0.33,0.31c-0.02,0-0.04,0-0.07-0.01
		c-0.05,0.02-0.12,0.06-0.12,0.1c0,0.04,0.05,0.07,0.12,0.07c0.08,0,0.16-0.01,0.24-0.01c0.14,0,0.28,0.04,0.28,0.22
		c0,0.18-0.22,0.38-0.48,0.38c-0.22,0-0.34-0.13-0.34-0.26c0-0.05,0.02-0.09,0.04-0.12c0.04-0.05,0.13-0.11,0.18-0.15
		c-0.08-0.02-0.17-0.09-0.17-0.17c0.06-0.02,0.16-0.07,0.19-0.1c-0.09-0.03-0.18-0.13-0.18-0.24c0-0.27,0.3-0.4,0.5-0.28
		c0.1-0.01,0.18-0.02,0.27-0.03l0.01,0.02c-0.02,0.03-0.06,0.07-0.09,0.08H60.29z M59.77,30.2c0,0.13,0.12,0.23,0.28,0.23
		c0.23,0,0.33-0.12,0.33-0.26c0-0.06-0.03-0.12-0.08-0.15c-0.06-0.03-0.12-0.03-0.23-0.03C59.78,29.99,59.77,30.17,59.77,30.2z
		 M59.84,29.41c0,0.19,0.09,0.29,0.22,0.29c0.09,0,0.18-0.06,0.18-0.23c0-0.18-0.07-0.28-0.21-0.28
		C59.92,29.18,59.84,29.26,59.84,29.41z"/>
</g>
</svg>
