<?xml version="1.0" encoding="utf-8"?>
<!-- Generator: Adobe Illustrator 23.0.0, SVG Export Plug-In . SVG Version: 6.00 Build 0)  -->
<svg version="1.1" id="图层_1" xmlns="http://www.w3.org/2000/svg" xmlns:xlink="http://www.w3.org/1999/xlink" x="0px" y="0px"
	 viewBox="0 0 114 65" style="enable-background:new 0 0 114 65;" xml:space="preserve">
<style type="text/css">
	.st0{fill:#4C7EF1;}
	.st1{fill:#29CB97;}
	.st2{fill:#FEC400;}
	.st3{fill:#29C997;}
	.st4{fill:#B35AF1;}
	.st5{fill:#FFFFFF;}
	.st6{fill:#6B6B6B;}
	.st7{fill:#444444;}
	.st8{opacity:0.1;fill:#FFFFFF;}
	.st9{opacity:0.1;}
	.st10{fill:none;stroke:#F24343;stroke-width:14;stroke-miterlimit:10;}
	.st11{fill:none;stroke:#FFFFFF;stroke-width:14;stroke-miterlimit:10;}
	.st12{fill:none;stroke:#4C7EF1;stroke-width:14;stroke-miterlimit:10;}
	.st13{fill:none;stroke:#FEAB05;stroke-width:14;stroke-miterlimit:10;}
	.st14{fill:none;stroke:#29CB97;stroke-width:8;stroke-miterlimit:10;}
	.st15{fill:none;stroke:#29CB97;stroke-width:16;stroke-miterlimit:10;}
	.st16{fill:none;stroke:#FEC400;stroke-width:16;stroke-miterlimit:10;}
	.st17{fill:none;stroke:#FEAB05;stroke-width:16;stroke-miterlimit:10;}
	.st18{fill:none;stroke:#FEC400;stroke-width:8;stroke-miterlimit:10;}
	.st19{fill:none;stroke:#676767;stroke-width:8;stroke-miterlimit:10;}
	.st20{fill:none;stroke:#FEC400;stroke-width:2;stroke-miterlimit:10;}
	.st21{fill:#E6E6E6;}
	.st22{fill:#74D889;}
	.st23{fill:#FFDC70;}
	.st24{fill:#47ABFC;}
	.st25{fill:none;stroke:#FFFFFF;stroke-miterlimit:10;}
	.st26{fill:#4C7EF1;stroke:#0B0C0E;stroke-miterlimit:10;}
	.st27{fill:#FEC400;stroke:#0B0C0E;stroke-miterlimit:10;}
	.st28{fill:none;stroke:#AAA9A9;stroke-miterlimit:10;}
	.st29{fill:none;stroke:#A5A4A4;stroke-width:2;stroke-miterlimit:10;stroke-dasharray:1.0005,4.002;}
	.st30{fill:none;stroke:#4C7EF1;stroke-width:40;stroke-miterlimit:10;}
	.st31{fill:none;stroke:#FEC400;stroke-width:40;stroke-miterlimit:10;}
	.st32{fill:none;stroke:#676767;stroke-width:20;stroke-miterlimit:10;}
	.st33{fill:none;stroke:#FEC400;stroke-width:20;stroke-miterlimit:10;}
	.st34{fill:none;stroke:#29C997;stroke-width:20;stroke-miterlimit:10;}
	.st35{fill:none;stroke:#FFFFFF;stroke-width:20;stroke-miterlimit:10;}
	.st36{fill:none;stroke:#000000;stroke-miterlimit:10;}
	.st37{fill:none;stroke:#FFFFFF;stroke-width:2;stroke-miterlimit:10;stroke-dasharray:3.941,3.941;}
	.st38{opacity:0.5;fill:none;stroke:#FFFFFF;stroke-width:0.4926;stroke-miterlimit:10;stroke-dasharray:3.941,3.941;}
	.st39{fill:none;stroke:#00B091;stroke-width:4;stroke-miterlimit:10;}
	.st40{fill:none;stroke:#EDBF00;stroke-width:4;stroke-miterlimit:10;}
	.st41{fill:#EDBF00;}
	.st42{fill:#00B091;}
	.st43{opacity:0.8;fill:#00B091;}
	.st44{opacity:0.8;fill:#EDBF00;}
	.st45{opacity:0.8;fill:#D85700;}
	.st46{fill:#4C7EF1;stroke:#4C7EF1;stroke-miterlimit:10;}
	.st47{fill:none;stroke:#676767;stroke-width:2;stroke-miterlimit:10;}
	.st48{fill:none;stroke:#FEC400;stroke-width:0.25;stroke-miterlimit:10;}
	.st49{fill:none;stroke:#999999;stroke-width:0.25;stroke-miterlimit:10;}
	.st50{fill:#4C7EF1;stroke:#0B0C0E;stroke-width:0.25;stroke-miterlimit:10;}
	.st51{fill:#FEC400;stroke:#0B0C0E;stroke-width:0.25;stroke-miterlimit:10;}
	.st52{fill:none;stroke:#AAA9A9;stroke-width:0.25;stroke-miterlimit:10;}
	.st53{fill:none;stroke:#A5A4A4;stroke-width:2;stroke-miterlimit:10;stroke-dasharray:0.9678,3.8712;}
	.st54{fill:none;stroke:#4C7EF1;stroke-width:4;stroke-miterlimit:10;}
	.st55{fill:none;stroke:#FEC400;stroke-width:4;stroke-miterlimit:10;}
	.st56{fill:none;stroke:#29C997;stroke-width:2;stroke-miterlimit:10;}
	.st57{fill:none;stroke:#FFFFFF;stroke-width:2;stroke-miterlimit:10;}
	.st58{fill:none;stroke:#000000;stroke-width:0.25;stroke-miterlimit:10;}
	.st59{fill:none;stroke:#FFFFFF;stroke-width:0.25;stroke-miterlimit:10;stroke-dasharray:3.941,3.941;}
	.st60{opacity:0.5;fill:none;stroke:#FFFFFF;stroke-width:0.25;stroke-miterlimit:10;stroke-dasharray:3.941,3.941;}
	.st61{fill:none;stroke:#00B091;stroke-width:0.5;stroke-miterlimit:10;}
	.st62{fill:none;stroke:#EDBF00;stroke-width:0.5;stroke-miterlimit:10;}
	.st63{opacity:0.65;fill:url(#SVGID_1_);}
	.st64{opacity:0.65;fill:url(#SVGID_2_);}
	.st65{opacity:0.65;fill:url(#SVGID_3_);}
	.st66{opacity:0.65;fill:url(#SVGID_4_);}
	.st67{opacity:0.65;fill:url(#SVGID_5_);}
	.st68{opacity:0.65;fill:url(#SVGID_6_);}
	.st69{fill:#292E34;}
	.st70{opacity:0.6;}
	.st71{fill:#334469;}
	.st72{fill:#FEAB05;}
	.st73{opacity:0.4;fill:#0B0C0E;}
	.st74{opacity:0.7;}
	.st75{fill:#F24343;}
	.st76{opacity:0.42;fill:#676767;stroke:#F0F2F8;stroke-miterlimit:10;}
	.st77{fill:none;stroke:#F0F2F8;stroke-width:2;stroke-miterlimit:10;}
	.st78{clip-path:url(#SVGID_8_);}
	.st79{fill:#3B86FF;}
	.st80{opacity:0.36;}
	.st81{fill:#4170ED;}
	.st82{fill:#999999;}
	.st83{opacity:0.15;}
	.st84{clip-path:url(#SVGID_10_);}
	.st85{fill:#1CCC96;}
	.st86{opacity:0.43;}
	.st87{clip-path:url(#SVGID_12_);}
	.st88{fill:#30C3E9;}
	.st89{clip-path:url(#SVGID_14_);}
	.st90{fill:#BCEAEC;}
	.st91{opacity:0.14;}
	.st92{clip-path:url(#SVGID_16_);}
	.st93{fill:#FBC400;}
	.st94{fill:#1F1F1F;}
	.st95{fill:none;stroke:url(#SVGID_17_);stroke-width:0.15;stroke-miterlimit:10;}
	.st96{fill:none;stroke:#00B091;stroke-width:0.15;stroke-miterlimit:10;}
	.st97{fill:none;stroke:url(#SVGID_18_);stroke-width:0.15;stroke-miterlimit:10;}
	.st98{fill:none;stroke:url(#SVGID_19_);stroke-width:0.15;stroke-miterlimit:10;}
	.st99{fill:none;stroke:url(#SVGID_20_);stroke-width:0.15;stroke-miterlimit:10;}
	.st100{fill:none;stroke:url(#SVGID_21_);stroke-width:0.15;stroke-miterlimit:10;}
	.st101{opacity:0.5;fill:#4170ED;}
	.st102{fill:#666666;}
	.st103{fill:none;stroke:#4170ED;stroke-width:0.5;stroke-miterlimit:10;}
	.st104{fill:none;stroke:url(#SVGID_22_);stroke-width:0.5;stroke-miterlimit:10;stroke-dasharray:0.9965,0.9965;}
	.st105{opacity:0.4;}
	.st106{fill:url(#SVGID_23_);stroke:url(#SVGID_24_);stroke-width:0.5;stroke-miterlimit:10;}
	.st107{fill:none;stroke:url(#SVGID_25_);stroke-width:0.5;stroke-miterlimit:10;}
	.st108{fill:url(#SVGID_26_);stroke:url(#SVGID_27_);stroke-width:0.5;stroke-miterlimit:10;}
	.st109{fill:none;stroke:url(#SVGID_28_);stroke-width:0.5;stroke-miterlimit:10;stroke-dasharray:0.9965,0.9965;}
	.st110{fill:url(#SVGID_29_);}
	.st111{fill:none;stroke:url(#SVGID_30_);stroke-width:0.5;stroke-miterlimit:10;stroke-dasharray:0.994,0.994;}
	.st112{fill:none;stroke:url(#SVGID_31_);stroke-width:0.5;stroke-miterlimit:10;}
	.st113{fill:none;stroke:url(#SVGID_32_);stroke-width:0.5;stroke-miterlimit:10;}
	.st114{fill:none;stroke:url(#SVGID_33_);stroke-width:0.5;stroke-miterlimit:10;}
	.st115{fill:url(#SVGID_34_);stroke:url(#SVGID_35_);stroke-width:0.5;stroke-miterlimit:10;}
	.st116{fill:#3885E9;}
	.st117{opacity:0.33;}
	.st118{fill:none;stroke:#999999;stroke-miterlimit:10;}
	.st119{fill:none;stroke:#4170ED;stroke-miterlimit:10;}
	.st120{fill:none;stroke:url(#SVGID_36_);stroke-width:0.5;stroke-miterlimit:10;}
	.st121{fill:url(#SVGID_37_);}
	.st122{opacity:0.3;fill:none;stroke:#4170ED;stroke-miterlimit:10;}
	.st123{opacity:0.87;fill:none;stroke:url(#SVGID_38_);stroke-miterlimit:10;}
	.st124{opacity:0.53;fill:#FFFFFF;}
	.st125{opacity:0.3;fill:none;stroke:#4170ED;stroke-width:0.25;stroke-miterlimit:10;}
	.st126{fill:url(#SVGID_39_);stroke:url(#SVGID_40_);stroke-width:0.25;stroke-miterlimit:10;}
	.st127{fill:url(#SVGID_41_);stroke:url(#SVGID_42_);stroke-width:0.25;stroke-miterlimit:10;}
	.st128{fill:url(#SVGID_43_);stroke:url(#SVGID_44_);stroke-width:0.25;stroke-miterlimit:10;}
	.st129{fill:url(#SVGID_45_);stroke:url(#SVGID_46_);stroke-width:0.25;stroke-miterlimit:10;}
	.st130{clip-path:url(#SVGID_48_);fill:#BFBFBF;}
	.st131{fill:#BFBFBF;}
	.st132{clip-path:url(#SVGID_50_);fill:#BFBFBF;}
	.st133{clip-path:url(#SVGID_52_);fill:#BFBFBF;}
	.st134{clip-path:url(#SVGID_54_);fill:#BFBFBF;}
	.st135{clip-path:url(#SVGID_56_);fill:#BFBFBF;}
	.st136{clip-path:url(#SVGID_58_);fill:#BFBFBF;}
	.st137{fill:none;}
	.st138{fill:#1B3E60;}
	.st139{fill:#31446D;stroke:#4170ED;stroke-width:0.5;stroke-miterlimit:10;}
	.st140{opacity:0.31;fill:#EDBF00;}
	.st141{opacity:0.31;fill:#00B091;}
	.st142{fill:#31446D;stroke:#4C7EF1;stroke-width:0.5;stroke-miterlimit:10;}
	.st143{clip-path:url(#SVGID_60_);fill:#BFBFBF;}
	.st144{clip-path:url(#SVGID_62_);fill:#BFBFBF;}
	.st145{clip-path:url(#SVGID_64_);fill:#BFBFBF;}
	.st146{clip-path:url(#SVGID_66_);fill:#BFBFBF;}
	.st147{clip-path:url(#SVGID_68_);fill:#BFBFBF;}
	.st148{clip-path:url(#SVGID_70_);fill:#BFBFBF;}
	.st149{fill:url(#XMLID_644_);}
	.st150{fill:none;stroke:#4C7EF1;stroke-width:0.25;stroke-miterlimit:10;}
	.st151{opacity:0.5;fill:#4C7EF1;}
	.st152{fill:url(#SVGID_71_);}
	.st153{fill:url(#SVGID_72_);}
	.st154{fill:url(#SVGID_73_);}
	.st155{fill:url(#SVGID_74_);}
	.st156{fill:url(#SVGID_75_);}
	.st157{fill:none;stroke:#F24343;stroke-width:2;stroke-miterlimit:10;}
	.st158{fill:none;stroke:#4C7EF1;stroke-width:2;stroke-miterlimit:10;}
	.st159{fill:none;stroke:#FEAB05;stroke-width:2;stroke-miterlimit:10;}
	.st160{fill:none;stroke:#29CB97;stroke-width:2;stroke-miterlimit:10;}
	.st161{opacity:0.42;fill:#676767;stroke:#F0F2F8;stroke-width:0.5;stroke-miterlimit:10;}
	.st162{fill:none;stroke:#F0F2F8;stroke-miterlimit:10;}
	.st163{clip-path:url(#SVGID_77_);}
	.st164{opacity:0.56;fill:#4C7EF1;}
	.st165{fill:none;stroke:url(#SVGID_78_);stroke-width:0.5;stroke-miterlimit:10;stroke-dasharray:1.0027,1.0027;}
	.st166{fill:none;stroke:url(#SVGID_79_);stroke-width:0.5;stroke-miterlimit:10;}
	.st167{fill:none;stroke:url(#SVGID_80_);stroke-width:0.5;stroke-miterlimit:10;}
	.st168{fill:none;stroke:url(#SVGID_81_);stroke-width:0.5;stroke-miterlimit:10;}
	.st169{opacity:0.14;fill:none;stroke:#4C7EF1;stroke-width:0.25;stroke-miterlimit:10;}
	.st170{fill:#F2F2F2;}
	.st171{fill:none;stroke:#3B86FF;stroke-width:0.25;stroke-miterlimit:10;}
	.st172{fill:#676767;stroke:#3B86FF;stroke-width:0.25;stroke-miterlimit:10;}
	.st173{fill:#606060;stroke:#3B86FF;stroke-width:0.25;stroke-miterlimit:10;}
	.st174{fill:url(#SVGID_82_);stroke:url(#SVGID_83_);stroke-width:0.25;stroke-miterlimit:10;}
	.st175{fill:url(#SVGID_84_);stroke:url(#SVGID_85_);stroke-width:0.25;stroke-miterlimit:10;}
	.st176{fill:url(#SVGID_86_);stroke:url(#SVGID_87_);stroke-width:0.25;stroke-miterlimit:10;}
	.st177{fill:url(#SVGID_88_);stroke:url(#SVGID_89_);stroke-width:0.25;stroke-miterlimit:10;}
	.st178{fill:url(#SVGID_90_);stroke:url(#SVGID_91_);stroke-width:0.25;stroke-miterlimit:10;}
	.st179{opacity:0.46;fill:url(#SVGID_92_);}
	.st180{opacity:0.14;fill:#29CB97;stroke:#4C7EF1;stroke-width:0.25;stroke-miterlimit:10;}
	.st181{opacity:0.35;fill:#999999;}
	.st182{fill:none;stroke:#3B86FF;stroke-width:0.1;stroke-miterlimit:10;}
	.st183{opacity:0.14;fill:#4170ED;stroke:#4C7EF1;stroke-width:0.25;stroke-miterlimit:10;}
</style>
<g>
	<g>
		<g>
			<path class="st82" d="M24.99,26.14h0.66c-0.04-0.09-0.1-0.18-0.16-0.26l0.11-0.04c0.06,0.08,0.11,0.18,0.17,0.3h0.61v0.12h-0.25
				c-0.08,0.27-0.2,0.5-0.35,0.69c0.17,0.15,0.38,0.28,0.64,0.39l-0.06,0.1c-0.26-0.11-0.48-0.24-0.65-0.4
				c-0.18,0.18-0.41,0.31-0.68,0.4l-0.06-0.11c0.27-0.08,0.49-0.2,0.66-0.37c-0.18-0.2-0.31-0.43-0.38-0.7h-0.25V26.14z
				 M25.34,26.26c0.07,0.23,0.18,0.44,0.35,0.61c0.14-0.17,0.25-0.37,0.31-0.61H25.34z"/>
			<path class="st82" d="M26.84,26.33h0.86v0.12c-0.09,0.07-0.21,0.15-0.35,0.23v0.12h0.63v0.12h-0.63v0.37
				c0,0.1-0.05,0.14-0.14,0.14h-0.2l-0.03-0.11c0.07,0,0.14,0,0.18,0c0.04,0,0.06-0.03,0.06-0.08v-0.32h-0.67v-0.12h0.67v-0.17
				c0.12-0.07,0.22-0.13,0.29-0.18h-0.68V26.33z M27.95,26.02v0.39h-0.11v-0.27h-1.12v0.27H26.6v-0.39h0.63
				c-0.02-0.06-0.05-0.12-0.07-0.17l0.13-0.02c0.02,0.06,0.04,0.12,0.07,0.19H27.95z"/>
			<path class="st82" d="M28.38,25.85h0.11v0.33h0.19v0.12h-0.19v0.13c0.08,0.08,0.15,0.18,0.23,0.29l-0.07,0.11
				c-0.07-0.11-0.12-0.2-0.17-0.26v0.87h-0.11v-0.87c-0.05,0.17-0.12,0.32-0.2,0.45l-0.05-0.14c0.11-0.17,0.19-0.36,0.24-0.58h-0.19
				v-0.12h0.19V25.85z M28.95,26.66c-0.05,0.24-0.12,0.45-0.22,0.63l-0.1-0.07c0.1-0.18,0.17-0.37,0.22-0.58L28.95,26.66z
				 M28.9,27.41l-0.02-0.12c0.07,0,0.12,0.01,0.15,0.01c0.04,0,0.07-0.03,0.07-0.08v-0.74H28.7v-0.12h0.89v0.12h-0.39v0.77
				c0,0.1-0.05,0.15-0.14,0.15H28.9z M28.79,25.95h0.73v0.12h-0.73V25.95z M29.42,26.62c0.07,0.19,0.12,0.4,0.17,0.63l-0.1,0.05
				c-0.05-0.24-0.11-0.45-0.17-0.64L29.42,26.62z"/>
			<path class="st82" d="M30.5,26.28c0.2,0.16,0.43,0.28,0.69,0.37l-0.06,0.11c-0.26-0.1-0.49-0.22-0.67-0.38
				c-0.17,0.14-0.39,0.27-0.67,0.38l-0.05-0.11c0.28-0.1,0.51-0.23,0.69-0.37H30.5z M29.99,26.11c-0.04,0.09-0.09,0.17-0.14,0.24
				l-0.1-0.07c0.1-0.13,0.17-0.28,0.22-0.44l0.11,0.03c-0.01,0.03-0.02,0.07-0.04,0.13h0.42v0.11h-0.23
				c0.03,0.07,0.05,0.12,0.06,0.17l-0.11,0.04c-0.02-0.08-0.05-0.15-0.07-0.21H29.99z M30.95,26.87c-0.04,0.15-0.09,0.27-0.15,0.39
				h0.34v0.12h-1.35v-0.12h0.88c0.06-0.12,0.12-0.26,0.16-0.42L30.95,26.87z M30.07,26.86c0.05,0.09,0.09,0.2,0.12,0.32l-0.1,0.03
				c-0.03-0.11-0.07-0.22-0.12-0.32L30.07,26.86z M30.05,26.66h0.83v0.11h-0.83V26.66z M30.44,26.82c0.04,0.11,0.07,0.22,0.1,0.34
				l-0.1,0.03c-0.03-0.12-0.06-0.23-0.1-0.34L30.44,26.82z M30.66,26.11c-0.03,0.07-0.06,0.12-0.09,0.17l-0.1-0.07
				c0.08-0.11,0.13-0.23,0.16-0.37l0.11,0.03c-0.01,0.03-0.02,0.07-0.04,0.13h0.47v0.11h-0.25c0.04,0.06,0.06,0.13,0.08,0.19
				l-0.11,0.04c-0.03-0.08-0.06-0.16-0.1-0.23H30.66z"/>
			<path class="st82" d="M31.36,26.52h0.32v-0.66h0.11v0.66h0.97v0.12h-0.52c0.07,0.28,0.25,0.49,0.54,0.65l-0.07,0.12
				c-0.32-0.18-0.52-0.44-0.59-0.76H31.8v0.63c0.12-0.03,0.24-0.07,0.36-0.12l0.03,0.12c-0.16,0.06-0.32,0.11-0.5,0.16l-0.04-0.11
				c0.02-0.01,0.04-0.03,0.04-0.06v-0.61h-0.32V26.52z M32.6,25.95c-0.13,0.15-0.32,0.29-0.58,0.42l-0.07-0.1
				c0.25-0.12,0.44-0.26,0.57-0.41L32.6,25.95z"/>
			<path class="st82" d="M33.18,26.41v0.13c-0.01,0.37-0.06,0.66-0.17,0.88l-0.09-0.08c0.09-0.19,0.14-0.46,0.14-0.8v-0.56h0.61
				c-0.02-0.05-0.04-0.09-0.06-0.12l0.12-0.02c0.02,0.05,0.04,0.09,0.06,0.14h0.55v0.12h-1.16v0.2h0.27v-0.14h0.11v0.14h0.42v-0.14
				h0.11v0.14h0.25v0.11h-0.25v0.27h-0.65v-0.27H33.18z M33.27,26.8h0.93v0.09c-0.09,0.12-0.2,0.22-0.33,0.3
				c0.14,0.07,0.31,0.11,0.5,0.14l-0.05,0.11c-0.22-0.04-0.41-0.1-0.56-0.18c-0.16,0.08-0.35,0.15-0.56,0.18l-0.05-0.11
				c0.19-0.03,0.35-0.08,0.49-0.14c-0.12-0.08-0.22-0.18-0.29-0.28h-0.1V26.8z M33.49,26.9c0.07,0.09,0.16,0.17,0.27,0.23
				c0.11-0.06,0.21-0.14,0.29-0.23H33.49z M33.56,26.41v0.16h0.42v-0.16H33.56z"/>
		</g>
		<g>
			<g>
				<path class="st0" d="M18.76,25.83h1.34v0.16h-0.58v1.48h-0.19v-1.48h-0.58V25.83z"/>
				<path class="st0" d="M20.53,25.88c0.03,0.02,0.04,0.06,0.04,0.1c0,0.04-0.01,0.07-0.04,0.1c-0.03,0.03-0.06,0.04-0.1,0.04
					c-0.04,0-0.07-0.01-0.1-0.04c-0.03-0.03-0.04-0.06-0.04-0.1c0-0.04,0.01-0.07,0.04-0.1c0.03-0.03,0.06-0.04,0.1-0.04
					S20.51,25.85,20.53,25.88z M20.34,26.28h0.18v1.19h-0.18V26.28z"/>
				<path class="st0" d="M21.19,25.9v0.38h0.29v0.15h-0.29v0.76c0,0.05,0.01,0.08,0.03,0.09c0.02,0.02,0.05,0.03,0.09,0.03h0.15
					v0.15h-0.18c-0.1,0-0.17-0.03-0.21-0.08c-0.04-0.04-0.06-0.11-0.06-0.2v-0.76h-0.24v-0.15h0.24v-0.31L21.19,25.9z"/>
				<path class="st0" d="M21.72,25.8h0.18v1.67h-0.18V25.8z"/>
				<path class="st0" d="M23.15,26.45c0.09,0.12,0.13,0.28,0.14,0.48h-0.94c0.01,0.13,0.05,0.24,0.11,0.31
					c0.06,0.07,0.15,0.11,0.27,0.11c0.1,0,0.18-0.02,0.24-0.07c0.05-0.04,0.09-0.1,0.12-0.19h0.18c-0.03,0.11-0.08,0.21-0.16,0.28
					c-0.1,0.09-0.23,0.13-0.38,0.13c-0.17,0-0.31-0.06-0.41-0.17c-0.1-0.11-0.16-0.27-0.16-0.46c0-0.18,0.05-0.32,0.15-0.44
					c0.1-0.12,0.24-0.19,0.41-0.19C22.91,26.25,23.05,26.32,23.15,26.45z M22.47,26.51c-0.06,0.07-0.1,0.16-0.11,0.28h0.74
					c-0.02-0.25-0.15-0.38-0.37-0.38C22.62,26.41,22.53,26.44,22.47,26.51z"/>
			</g>
		</g>
		<g>
			<path class="st82" d="M24.99,30.35h0.66c-0.04-0.09-0.1-0.18-0.16-0.26l0.11-0.04c0.06,0.08,0.11,0.18,0.17,0.3h0.61v0.12h-0.25
				c-0.08,0.27-0.2,0.5-0.35,0.69c0.17,0.15,0.38,0.28,0.64,0.39l-0.06,0.1c-0.26-0.11-0.48-0.24-0.65-0.4
				c-0.18,0.18-0.41,0.31-0.68,0.4l-0.06-0.11c0.27-0.08,0.49-0.2,0.66-0.37c-0.18-0.2-0.31-0.43-0.38-0.7h-0.25V30.35z
				 M25.34,30.47c0.07,0.23,0.18,0.44,0.35,0.61c0.14-0.17,0.25-0.37,0.31-0.61H25.34z"/>
			<path class="st82" d="M26.84,30.54h0.86v0.12c-0.09,0.07-0.21,0.15-0.35,0.23V31h0.63v0.12h-0.63v0.37c0,0.1-0.05,0.14-0.14,0.14
				h-0.2l-0.03-0.11c0.07,0,0.14,0,0.18,0c0.04,0,0.06-0.03,0.06-0.08v-0.32h-0.67V31h0.67v-0.17c0.12-0.07,0.22-0.13,0.29-0.18
				h-0.68V30.54z M27.95,30.23v0.39h-0.11v-0.27h-1.12v0.27H26.6v-0.39h0.63c-0.02-0.06-0.05-0.12-0.07-0.17l0.13-0.02
				c0.02,0.06,0.04,0.12,0.07,0.19H27.95z"/>
			<path class="st82" d="M28.38,30.06h0.11v0.33h0.19v0.12h-0.19v0.13c0.08,0.08,0.15,0.18,0.23,0.29l-0.07,0.11
				c-0.07-0.11-0.12-0.2-0.17-0.26v0.87h-0.11v-0.87c-0.05,0.17-0.12,0.32-0.2,0.45l-0.05-0.14c0.11-0.17,0.19-0.36,0.24-0.58h-0.19
				v-0.12h0.19V30.06z M28.95,30.87c-0.05,0.24-0.12,0.45-0.22,0.63l-0.1-0.07c0.1-0.18,0.17-0.37,0.22-0.58L28.95,30.87z
				 M28.9,31.62l-0.02-0.12c0.07,0,0.12,0.01,0.15,0.01c0.04,0,0.07-0.03,0.07-0.08V30.7H28.7v-0.12h0.89v0.12h-0.39v0.77
				c0,0.1-0.05,0.15-0.14,0.15H28.9z M28.79,30.16h0.73v0.12h-0.73V30.16z M29.42,30.83c0.07,0.19,0.12,0.4,0.17,0.63l-0.1,0.05
				c-0.05-0.24-0.11-0.45-0.17-0.64L29.42,30.83z"/>
			<path class="st82" d="M30.5,30.49c0.2,0.16,0.43,0.28,0.69,0.37l-0.06,0.11c-0.26-0.1-0.49-0.22-0.67-0.38
				c-0.17,0.14-0.39,0.27-0.67,0.38l-0.05-0.11c0.28-0.1,0.51-0.23,0.69-0.37H30.5z M29.99,30.31c-0.04,0.09-0.09,0.17-0.14,0.24
				l-0.1-0.07c0.1-0.13,0.17-0.28,0.22-0.44l0.11,0.03c-0.01,0.03-0.02,0.07-0.04,0.13h0.42v0.11h-0.23
				c0.03,0.07,0.05,0.12,0.06,0.17l-0.11,0.04c-0.02-0.08-0.05-0.15-0.07-0.21H29.99z M30.95,31.08c-0.04,0.15-0.09,0.27-0.15,0.39
				h0.34v0.12h-1.35v-0.12h0.88c0.06-0.12,0.12-0.26,0.16-0.42L30.95,31.08z M30.07,31.07c0.05,0.09,0.09,0.2,0.12,0.32l-0.1,0.03
				c-0.03-0.11-0.07-0.22-0.12-0.32L30.07,31.07z M30.05,30.87h0.83v0.11h-0.83V30.87z M30.44,31.03c0.04,0.11,0.07,0.22,0.1,0.34
				l-0.1,0.03c-0.03-0.12-0.06-0.23-0.1-0.34L30.44,31.03z M30.66,30.31c-0.03,0.07-0.06,0.12-0.09,0.17l-0.1-0.07
				c0.08-0.11,0.13-0.23,0.16-0.37l0.11,0.03c-0.01,0.03-0.02,0.07-0.04,0.13h0.47v0.11h-0.25c0.04,0.06,0.06,0.13,0.08,0.19
				l-0.11,0.04c-0.03-0.08-0.06-0.16-0.1-0.23H30.66z"/>
			<path class="st82" d="M31.36,30.73h0.32v-0.66h0.11v0.66h0.97v0.12h-0.52c0.07,0.28,0.25,0.49,0.54,0.65l-0.07,0.12
				c-0.32-0.18-0.52-0.44-0.59-0.76H31.8v0.63c0.12-0.03,0.24-0.07,0.36-0.12l0.03,0.12c-0.16,0.06-0.32,0.11-0.5,0.16l-0.04-0.11
				c0.02-0.01,0.04-0.03,0.04-0.06v-0.61h-0.32V30.73z M32.6,30.16c-0.13,0.15-0.32,0.29-0.58,0.42l-0.07-0.1
				c0.25-0.12,0.44-0.26,0.57-0.41L32.6,30.16z"/>
			<path class="st82" d="M33.18,30.62v0.13c-0.01,0.37-0.06,0.66-0.17,0.88l-0.09-0.08c0.09-0.19,0.14-0.46,0.14-0.8v-0.56h0.61
				c-0.02-0.05-0.04-0.09-0.06-0.12l0.12-0.02c0.02,0.05,0.04,0.09,0.06,0.14h0.55v0.12h-1.16v0.2h0.27v-0.14h0.11v0.14h0.42v-0.14
				h0.11v0.14h0.25v0.11h-0.25v0.27h-0.65v-0.27H33.18z M33.27,31.01h0.93v0.09c-0.09,0.12-0.2,0.22-0.33,0.3
				c0.14,0.07,0.31,0.11,0.5,0.14l-0.05,0.11c-0.22-0.04-0.41-0.1-0.56-0.18c-0.16,0.08-0.35,0.15-0.56,0.18l-0.05-0.11
				c0.19-0.03,0.35-0.08,0.49-0.14c-0.12-0.08-0.22-0.18-0.29-0.28h-0.1V31.01z M33.49,31.11c0.07,0.09,0.16,0.17,0.27,0.23
				c0.11-0.06,0.21-0.14,0.29-0.23H33.49z M33.56,30.62v0.16h0.42v-0.16H33.56z"/>
		</g>
		<g>
			<g>
				<path class="st0" d="M18.76,30.04h1.34v0.16h-0.58v1.48h-0.19V30.2h-0.58V30.04z"/>
				<path class="st0" d="M20.53,30.08c0.03,0.02,0.04,0.06,0.04,0.1c0,0.04-0.01,0.07-0.04,0.1c-0.03,0.03-0.06,0.04-0.1,0.04
					c-0.04,0-0.07-0.01-0.1-0.04c-0.03-0.03-0.04-0.06-0.04-0.1c0-0.04,0.01-0.07,0.04-0.1c0.03-0.03,0.06-0.04,0.1-0.04
					S20.51,30.06,20.53,30.08z M20.34,30.49h0.18v1.19h-0.18V30.49z"/>
				<path class="st0" d="M21.19,30.11v0.38h0.29v0.15h-0.29v0.76c0,0.05,0.01,0.08,0.03,0.09c0.02,0.02,0.05,0.03,0.09,0.03h0.15
					v0.15h-0.18c-0.1,0-0.17-0.03-0.21-0.08c-0.04-0.04-0.06-0.11-0.06-0.2v-0.76h-0.24v-0.15h0.24v-0.31L21.19,30.11z"/>
				<path class="st0" d="M21.72,30.01h0.18v1.67h-0.18V30.01z"/>
				<path class="st0" d="M23.15,30.65c0.09,0.12,0.13,0.28,0.14,0.48h-0.94c0.01,0.13,0.05,0.24,0.11,0.31
					c0.06,0.07,0.15,0.11,0.27,0.11c0.1,0,0.18-0.02,0.24-0.07c0.05-0.04,0.09-0.1,0.12-0.19h0.18c-0.03,0.11-0.08,0.21-0.16,0.28
					c-0.1,0.09-0.23,0.13-0.38,0.13c-0.17,0-0.31-0.06-0.41-0.17c-0.1-0.11-0.16-0.27-0.16-0.46c0-0.18,0.05-0.32,0.15-0.44
					c0.1-0.12,0.24-0.19,0.41-0.19C22.91,30.46,23.05,30.53,23.15,30.65z M22.47,30.72c-0.06,0.07-0.1,0.16-0.11,0.28h0.74
					c-0.02-0.25-0.15-0.38-0.37-0.38C22.62,30.62,22.53,30.65,22.47,30.72z"/>
			</g>
		</g>
		<rect x="17.41" y="23.78" class="st182" width="18.7" height="23.43"/>
	</g>
	<g>
		<g>
			<path class="st82" d="M64.93,26.14h0.66c-0.04-0.09-0.1-0.18-0.16-0.26l0.11-0.04c0.06,0.08,0.11,0.18,0.17,0.3h0.61v0.12h-0.25
				c-0.08,0.27-0.2,0.5-0.35,0.69c0.17,0.15,0.38,0.28,0.64,0.39l-0.06,0.1c-0.26-0.11-0.48-0.24-0.65-0.4
				c-0.18,0.18-0.41,0.31-0.68,0.4l-0.06-0.11c0.27-0.08,0.49-0.2,0.66-0.37c-0.18-0.2-0.31-0.43-0.38-0.7h-0.25V26.14z
				 M65.29,26.26c0.07,0.23,0.18,0.44,0.35,0.61c0.14-0.17,0.25-0.37,0.31-0.61H65.29z"/>
			<path class="st82" d="M66.79,26.33h0.86v0.12c-0.09,0.07-0.21,0.15-0.35,0.23v0.12h0.63v0.12H67.3v0.37
				c0,0.1-0.05,0.14-0.14,0.14h-0.2l-0.03-0.11c0.07,0,0.14,0,0.18,0c0.04,0,0.06-0.03,0.06-0.08v-0.32h-0.67v-0.12h0.67v-0.17
				c0.12-0.07,0.22-0.13,0.29-0.18h-0.68V26.33z M67.9,26.02v0.39h-0.11v-0.27h-1.12v0.27h-0.11v-0.39h0.63
				c-0.02-0.06-0.05-0.12-0.07-0.17l0.13-0.02c0.02,0.06,0.04,0.12,0.07,0.19H67.9z"/>
			<path class="st82" d="M68.32,25.85h0.11v0.33h0.19v0.12h-0.19v0.13c0.08,0.08,0.15,0.18,0.23,0.29l-0.07,0.11
				c-0.07-0.11-0.12-0.2-0.17-0.26v0.87h-0.11v-0.87c-0.05,0.17-0.12,0.32-0.2,0.45l-0.05-0.14c0.11-0.17,0.19-0.36,0.24-0.58h-0.19
				v-0.12h0.19V25.85z M68.9,26.66c-0.05,0.24-0.12,0.45-0.22,0.63l-0.1-0.07c0.1-0.18,0.17-0.37,0.22-0.58L68.9,26.66z
				 M68.85,27.41l-0.02-0.12c0.07,0,0.12,0.01,0.15,0.01c0.04,0,0.07-0.03,0.07-0.08v-0.74h-0.39v-0.12h0.89v0.12h-0.39v0.77
				c0,0.1-0.05,0.15-0.14,0.15H68.85z M68.73,25.95h0.73v0.12h-0.73V25.95z M69.37,26.62c0.07,0.19,0.12,0.4,0.17,0.63l-0.1,0.05
				c-0.05-0.24-0.11-0.45-0.17-0.64L69.37,26.62z"/>
			<path class="st82" d="M70.44,26.28c0.2,0.16,0.43,0.28,0.69,0.37l-0.06,0.11c-0.26-0.1-0.49-0.22-0.67-0.38
				c-0.17,0.14-0.39,0.27-0.67,0.38l-0.05-0.11c0.28-0.1,0.51-0.23,0.69-0.37H70.44z M69.93,26.11c-0.04,0.09-0.09,0.17-0.14,0.24
				l-0.1-0.07c0.1-0.13,0.17-0.28,0.22-0.44l0.11,0.03c-0.01,0.03-0.02,0.07-0.04,0.13h0.42v0.11h-0.23
				c0.03,0.07,0.05,0.12,0.06,0.17l-0.11,0.04c-0.02-0.08-0.05-0.15-0.07-0.21H69.93z M70.89,26.87c-0.04,0.15-0.09,0.27-0.15,0.39
				h0.34v0.12h-1.35v-0.12h0.88c0.06-0.12,0.12-0.26,0.16-0.42L70.89,26.87z M70.02,26.86c0.05,0.09,0.09,0.2,0.12,0.32l-0.1,0.03
				c-0.03-0.11-0.07-0.22-0.12-0.32L70.02,26.86z M70,26.66h0.83v0.11H70V26.66z M70.39,26.82c0.04,0.11,0.07,0.22,0.1,0.34
				l-0.1,0.03c-0.03-0.12-0.06-0.23-0.1-0.34L70.39,26.82z M70.6,26.11c-0.03,0.07-0.06,0.12-0.09,0.17l-0.1-0.07
				c0.08-0.11,0.13-0.23,0.16-0.37l0.11,0.03c-0.01,0.03-0.02,0.07-0.04,0.13h0.47v0.11h-0.25c0.04,0.06,0.06,0.13,0.08,0.19
				l-0.11,0.04c-0.03-0.08-0.06-0.16-0.1-0.23H70.6z"/>
			<path class="st82" d="M71.3,26.52h0.32v-0.66h0.11v0.66h0.97v0.12h-0.52c0.07,0.28,0.25,0.49,0.54,0.65l-0.07,0.12
				c-0.32-0.18-0.52-0.44-0.59-0.76h-0.33v0.63c0.12-0.03,0.24-0.07,0.36-0.12l0.03,0.12c-0.16,0.06-0.32,0.11-0.5,0.16l-0.04-0.11
				c0.02-0.01,0.04-0.03,0.04-0.06v-0.61H71.3V26.52z M72.54,25.95c-0.13,0.15-0.32,0.29-0.58,0.42l-0.07-0.1
				c0.25-0.12,0.44-0.26,0.57-0.41L72.54,25.95z"/>
			<path class="st82" d="M73.12,26.41v0.13c-0.01,0.37-0.06,0.66-0.17,0.88l-0.09-0.08c0.09-0.19,0.14-0.46,0.14-0.8v-0.56h0.61
				c-0.02-0.05-0.04-0.09-0.06-0.12l0.12-0.02c0.02,0.05,0.04,0.09,0.06,0.14h0.55v0.12h-1.16v0.2h0.27v-0.14h0.11v0.14h0.42v-0.14
				h0.11v0.14h0.25v0.11h-0.25v0.27h-0.65v-0.27H73.12z M73.22,26.8h0.93v0.09c-0.09,0.12-0.2,0.22-0.33,0.3
				c0.14,0.07,0.31,0.11,0.5,0.14l-0.05,0.11c-0.22-0.04-0.41-0.1-0.56-0.18c-0.16,0.08-0.35,0.15-0.56,0.18l-0.05-0.11
				c0.19-0.03,0.35-0.08,0.49-0.14c-0.12-0.08-0.22-0.18-0.29-0.28h-0.1V26.8z M73.43,26.9c0.07,0.09,0.16,0.17,0.27,0.23
				c0.11-0.06,0.21-0.14,0.29-0.23H73.43z M73.5,26.41v0.16h0.42v-0.16H73.5z"/>
		</g>
		<g>
			<g>
				<path class="st0" d="M58.7,25.83h1.34v0.16h-0.58v1.48h-0.19v-1.48H58.7V25.83z"/>
				<path class="st0" d="M60.48,25.88c0.03,0.02,0.04,0.06,0.04,0.1c0,0.04-0.01,0.07-0.04,0.1c-0.03,0.03-0.06,0.04-0.1,0.04
					c-0.04,0-0.07-0.01-0.1-0.04c-0.03-0.03-0.04-0.06-0.04-0.1c0-0.04,0.01-0.07,0.04-0.1c0.03-0.03,0.06-0.04,0.1-0.04
					C60.42,25.84,60.45,25.85,60.48,25.88z M60.29,26.28h0.18v1.19h-0.18V26.28z"/>
				<path class="st0" d="M61.13,25.9v0.38h0.29v0.15h-0.29v0.76c0,0.05,0.01,0.08,0.03,0.09c0.02,0.02,0.05,0.03,0.09,0.03h0.15
					v0.15h-0.18c-0.1,0-0.17-0.03-0.21-0.08c-0.04-0.04-0.06-0.11-0.06-0.2v-0.76h-0.24v-0.15h0.24v-0.31L61.13,25.9z"/>
				<path class="st0" d="M61.67,25.8h0.18v1.67h-0.18V25.8z"/>
				<path class="st0" d="M63.09,26.45c0.09,0.12,0.13,0.28,0.14,0.48h-0.94c0.01,0.13,0.05,0.24,0.11,0.31
					c0.06,0.07,0.15,0.11,0.27,0.11c0.1,0,0.18-0.02,0.24-0.07c0.05-0.04,0.09-0.1,0.12-0.19h0.18c-0.03,0.11-0.08,0.21-0.16,0.28
					c-0.1,0.09-0.23,0.13-0.38,0.13c-0.17,0-0.31-0.06-0.41-0.17c-0.1-0.11-0.16-0.27-0.16-0.46c0-0.18,0.05-0.32,0.15-0.44
					c0.1-0.12,0.24-0.19,0.41-0.19C62.85,26.25,63,26.32,63.09,26.45z M62.41,26.51c-0.06,0.07-0.1,0.16-0.11,0.28h0.74
					c-0.02-0.25-0.15-0.38-0.37-0.38C62.56,26.41,62.48,26.44,62.41,26.51z"/>
			</g>
		</g>
		<g>
			<path class="st82" d="M64.93,30.35h0.66c-0.04-0.09-0.1-0.18-0.16-0.26l0.11-0.04c0.06,0.08,0.11,0.18,0.17,0.3h0.61v0.12h-0.25
				c-0.08,0.27-0.2,0.5-0.35,0.69c0.17,0.15,0.38,0.28,0.64,0.39l-0.06,0.1c-0.26-0.11-0.48-0.24-0.65-0.4
				c-0.18,0.18-0.41,0.31-0.68,0.4l-0.06-0.11c0.27-0.08,0.49-0.2,0.66-0.37c-0.18-0.2-0.31-0.43-0.38-0.7h-0.25V30.35z
				 M65.29,30.47c0.07,0.23,0.18,0.44,0.35,0.61c0.14-0.17,0.25-0.37,0.31-0.61H65.29z"/>
			<path class="st82" d="M66.79,30.54h0.86v0.12c-0.09,0.07-0.21,0.15-0.35,0.23V31h0.63v0.12H67.3v0.37c0,0.1-0.05,0.14-0.14,0.14
				h-0.2l-0.03-0.11c0.07,0,0.14,0,0.18,0c0.04,0,0.06-0.03,0.06-0.08v-0.32h-0.67V31h0.67v-0.17c0.12-0.07,0.22-0.13,0.29-0.18
				h-0.68V30.54z M67.9,30.23v0.39h-0.11v-0.27h-1.12v0.27h-0.11v-0.39h0.63c-0.02-0.06-0.05-0.12-0.07-0.17l0.13-0.02
				c0.02,0.06,0.04,0.12,0.07,0.19H67.9z"/>
			<path class="st82" d="M68.32,30.06h0.11v0.33h0.19v0.12h-0.19v0.13c0.08,0.08,0.15,0.18,0.23,0.29l-0.07,0.11
				c-0.07-0.11-0.12-0.2-0.17-0.26v0.87h-0.11v-0.87c-0.05,0.17-0.12,0.32-0.2,0.45l-0.05-0.14c0.11-0.17,0.19-0.36,0.24-0.58h-0.19
				v-0.12h0.19V30.06z M68.9,30.87c-0.05,0.24-0.12,0.45-0.22,0.63l-0.1-0.07c0.1-0.18,0.17-0.37,0.22-0.58L68.9,30.87z
				 M68.85,31.62l-0.02-0.12c0.07,0,0.12,0.01,0.15,0.01c0.04,0,0.07-0.03,0.07-0.08V30.7h-0.39v-0.12h0.89v0.12h-0.39v0.77
				c0,0.1-0.05,0.15-0.14,0.15H68.85z M68.73,30.16h0.73v0.12h-0.73V30.16z M69.37,30.83c0.07,0.19,0.12,0.4,0.17,0.63l-0.1,0.05
				c-0.05-0.24-0.11-0.45-0.17-0.64L69.37,30.83z"/>
			<path class="st82" d="M70.44,30.49c0.2,0.16,0.43,0.28,0.69,0.37l-0.06,0.11c-0.26-0.1-0.49-0.22-0.67-0.38
				c-0.17,0.14-0.39,0.27-0.67,0.38l-0.05-0.11c0.28-0.1,0.51-0.23,0.69-0.37H70.44z M69.93,30.31c-0.04,0.09-0.09,0.17-0.14,0.24
				l-0.1-0.07c0.1-0.13,0.17-0.28,0.22-0.44l0.11,0.03c-0.01,0.03-0.02,0.07-0.04,0.13h0.42v0.11h-0.23
				c0.03,0.07,0.05,0.12,0.06,0.17l-0.11,0.04c-0.02-0.08-0.05-0.15-0.07-0.21H69.93z M70.89,31.08c-0.04,0.15-0.09,0.27-0.15,0.39
				h0.34v0.12h-1.35v-0.12h0.88c0.06-0.12,0.12-0.26,0.16-0.42L70.89,31.08z M70.02,31.07c0.05,0.09,0.09,0.2,0.12,0.32l-0.1,0.03
				c-0.03-0.11-0.07-0.22-0.12-0.32L70.02,31.07z M70,30.87h0.83v0.11H70V30.87z M70.39,31.03c0.04,0.11,0.07,0.22,0.1,0.34
				l-0.1,0.03c-0.03-0.12-0.06-0.23-0.1-0.34L70.39,31.03z M70.6,30.31c-0.03,0.07-0.06,0.12-0.09,0.17l-0.1-0.07
				c0.08-0.11,0.13-0.23,0.16-0.37l0.11,0.03c-0.01,0.03-0.02,0.07-0.04,0.13h0.47v0.11h-0.25c0.04,0.06,0.06,0.13,0.08,0.19
				l-0.11,0.04c-0.03-0.08-0.06-0.16-0.1-0.23H70.6z"/>
			<path class="st82" d="M71.3,30.73h0.32v-0.66h0.11v0.66h0.97v0.12h-0.52c0.07,0.28,0.25,0.49,0.54,0.65l-0.07,0.12
				c-0.32-0.18-0.52-0.44-0.59-0.76h-0.33v0.63c0.12-0.03,0.24-0.07,0.36-0.12l0.03,0.12c-0.16,0.06-0.32,0.11-0.5,0.16l-0.04-0.11
				c0.02-0.01,0.04-0.03,0.04-0.06v-0.61H71.3V30.73z M72.54,30.16c-0.13,0.15-0.32,0.29-0.58,0.42l-0.07-0.1
				c0.25-0.12,0.44-0.26,0.57-0.41L72.54,30.16z"/>
			<path class="st82" d="M73.12,30.62v0.13c-0.01,0.37-0.06,0.66-0.17,0.88l-0.09-0.08c0.09-0.19,0.14-0.46,0.14-0.8v-0.56h0.61
				c-0.02-0.05-0.04-0.09-0.06-0.12l0.12-0.02c0.02,0.05,0.04,0.09,0.06,0.14h0.55v0.12h-1.16v0.2h0.27v-0.14h0.11v0.14h0.42v-0.14
				h0.11v0.14h0.25v0.11h-0.25v0.27h-0.65v-0.27H73.12z M73.22,31.01h0.93v0.09c-0.09,0.12-0.2,0.22-0.33,0.3
				c0.14,0.07,0.31,0.11,0.5,0.14l-0.05,0.11c-0.22-0.04-0.41-0.1-0.56-0.18c-0.16,0.08-0.35,0.15-0.56,0.18l-0.05-0.11
				c0.19-0.03,0.35-0.08,0.49-0.14c-0.12-0.08-0.22-0.18-0.29-0.28h-0.1V31.01z M73.43,31.11c0.07,0.09,0.16,0.17,0.27,0.23
				c0.11-0.06,0.21-0.14,0.29-0.23H73.43z M73.5,30.62v0.16h0.42v-0.16H73.5z"/>
		</g>
		<g>
			<g>
				<path class="st0" d="M58.7,30.04h1.34v0.16h-0.58v1.48h-0.19V30.2H58.7V30.04z"/>
				<path class="st0" d="M60.48,30.08c0.03,0.02,0.04,0.06,0.04,0.1c0,0.04-0.01,0.07-0.04,0.1c-0.03,0.03-0.06,0.04-0.1,0.04
					c-0.04,0-0.07-0.01-0.1-0.04c-0.03-0.03-0.04-0.06-0.04-0.1c0-0.04,0.01-0.07,0.04-0.1c0.03-0.03,0.06-0.04,0.1-0.04
					C60.42,30.05,60.45,30.06,60.48,30.08z M60.29,30.49h0.18v1.19h-0.18V30.49z"/>
				<path class="st0" d="M61.13,30.11v0.38h0.29v0.15h-0.29v0.76c0,0.05,0.01,0.08,0.03,0.09c0.02,0.02,0.05,0.03,0.09,0.03h0.15
					v0.15h-0.18c-0.1,0-0.17-0.03-0.21-0.08c-0.04-0.04-0.06-0.11-0.06-0.2v-0.76h-0.24v-0.15h0.24v-0.31L61.13,30.11z"/>
				<path class="st0" d="M61.67,30.01h0.18v1.67h-0.18V30.01z"/>
				<path class="st0" d="M63.09,30.65c0.09,0.12,0.13,0.28,0.14,0.48h-0.94c0.01,0.13,0.05,0.24,0.11,0.31
					c0.06,0.07,0.15,0.11,0.27,0.11c0.1,0,0.18-0.02,0.24-0.07c0.05-0.04,0.09-0.1,0.12-0.19h0.18c-0.03,0.11-0.08,0.21-0.16,0.28
					c-0.1,0.09-0.23,0.13-0.38,0.13c-0.17,0-0.31-0.06-0.41-0.17c-0.1-0.11-0.16-0.27-0.16-0.46c0-0.18,0.05-0.32,0.15-0.44
					c0.1-0.12,0.24-0.19,0.41-0.19C62.85,30.46,63,30.53,63.09,30.65z M62.41,30.72c-0.06,0.07-0.1,0.16-0.11,0.28h0.74
					c-0.02-0.25-0.15-0.38-0.37-0.38C62.56,30.62,62.48,30.65,62.41,30.72z"/>
			</g>
		</g>
		<rect x="57.36" y="23.78" class="st182" width="18.7" height="23.43"/>
	</g>
	<g>
		<g>
			<path class="st82" d="M85.46,26.14h0.66c-0.04-0.09-0.1-0.18-0.16-0.26l0.11-0.04c0.06,0.08,0.11,0.18,0.17,0.3h0.61v0.12H86.6
				c-0.08,0.27-0.2,0.5-0.35,0.69c0.17,0.15,0.38,0.28,0.64,0.39l-0.06,0.1c-0.26-0.11-0.48-0.24-0.65-0.4
				c-0.18,0.18-0.41,0.31-0.68,0.4l-0.06-0.11c0.27-0.08,0.49-0.2,0.66-0.37c-0.18-0.2-0.31-0.43-0.38-0.7h-0.25V26.14z
				 M85.82,26.26c0.07,0.23,0.18,0.44,0.35,0.61c0.14-0.17,0.25-0.37,0.31-0.61H85.82z"/>
			<path class="st82" d="M87.32,26.33h0.86v0.12c-0.09,0.07-0.21,0.15-0.35,0.23v0.12h0.63v0.12h-0.63v0.37
				c0,0.1-0.05,0.14-0.14,0.14h-0.2l-0.03-0.11c0.07,0,0.14,0,0.18,0c0.04,0,0.06-0.03,0.06-0.08v-0.32h-0.67v-0.12h0.67v-0.17
				c0.12-0.07,0.22-0.13,0.29-0.18h-0.68V26.33z M88.43,26.02v0.39h-0.11v-0.27h-1.12v0.27h-0.11v-0.39h0.63
				c-0.02-0.06-0.05-0.12-0.07-0.17l0.13-0.02c0.02,0.06,0.04,0.12,0.07,0.19H88.43z"/>
			<path class="st82" d="M88.85,25.85h0.11v0.33h0.19v0.12h-0.19v0.13c0.08,0.08,0.15,0.18,0.23,0.29l-0.07,0.11
				c-0.07-0.11-0.12-0.2-0.17-0.26v0.87h-0.11v-0.87c-0.05,0.17-0.12,0.32-0.2,0.45l-0.05-0.14c0.11-0.17,0.19-0.36,0.24-0.58h-0.19
				v-0.12h0.19V25.85z M89.43,26.66c-0.05,0.24-0.12,0.45-0.22,0.63l-0.1-0.07c0.1-0.18,0.17-0.37,0.22-0.58L89.43,26.66z
				 M89.38,27.41l-0.02-0.12c0.07,0,0.12,0.01,0.15,0.01c0.04,0,0.07-0.03,0.07-0.08v-0.74h-0.39v-0.12h0.89v0.12h-0.39v0.77
				c0,0.1-0.05,0.15-0.14,0.15H89.38z M89.26,25.95h0.73v0.12h-0.73V25.95z M89.9,26.62c0.07,0.19,0.12,0.4,0.17,0.63l-0.1,0.05
				c-0.05-0.24-0.11-0.45-0.17-0.64L89.9,26.62z"/>
			<path class="st82" d="M90.97,26.28c0.2,0.16,0.43,0.28,0.69,0.37l-0.06,0.11c-0.26-0.1-0.49-0.22-0.67-0.38
				c-0.17,0.14-0.39,0.27-0.67,0.38l-0.05-0.11c0.28-0.1,0.51-0.23,0.69-0.37H90.97z M90.46,26.11c-0.04,0.09-0.09,0.17-0.14,0.24
				l-0.1-0.07c0.1-0.13,0.17-0.28,0.22-0.44l0.11,0.03c-0.01,0.03-0.02,0.07-0.04,0.13h0.42v0.11H90.7
				c0.03,0.07,0.05,0.12,0.06,0.17l-0.11,0.04c-0.02-0.08-0.05-0.15-0.07-0.21H90.46z M91.42,26.87c-0.04,0.15-0.09,0.27-0.15,0.39
				h0.34v0.12h-1.35v-0.12h0.88c0.06-0.12,0.12-0.26,0.16-0.42L91.42,26.87z M90.55,26.86c0.05,0.09,0.09,0.2,0.12,0.32l-0.1,0.03
				c-0.03-0.11-0.07-0.22-0.12-0.32L90.55,26.86z M90.53,26.66h0.83v0.11h-0.83V26.66z M90.92,26.82c0.04,0.11,0.07,0.22,0.1,0.34
				l-0.1,0.03c-0.03-0.12-0.06-0.23-0.1-0.34L90.92,26.82z M91.13,26.11c-0.03,0.07-0.06,0.12-0.09,0.17l-0.1-0.07
				c0.08-0.11,0.13-0.23,0.16-0.37l0.11,0.03c-0.01,0.03-0.02,0.07-0.04,0.13h0.47v0.11h-0.25c0.04,0.06,0.06,0.13,0.08,0.19
				l-0.11,0.04c-0.03-0.08-0.06-0.16-0.1-0.23H91.13z"/>
			<path class="st82" d="M91.83,26.52h0.32v-0.66h0.11v0.66h0.97v0.12h-0.52c0.07,0.28,0.25,0.49,0.54,0.65l-0.07,0.12
				c-0.32-0.18-0.52-0.44-0.59-0.76h-0.33v0.63c0.12-0.03,0.24-0.07,0.36-0.12l0.03,0.12c-0.16,0.06-0.32,0.11-0.5,0.16l-0.04-0.11
				c0.02-0.01,0.04-0.03,0.04-0.06v-0.61h-0.32V26.52z M93.07,25.95c-0.13,0.15-0.32,0.29-0.58,0.42l-0.07-0.1
				c0.25-0.12,0.44-0.26,0.57-0.41L93.07,25.95z"/>
			<path class="st82" d="M93.65,26.41v0.13c-0.01,0.37-0.06,0.66-0.17,0.88l-0.09-0.08c0.09-0.19,0.14-0.46,0.14-0.8v-0.56h0.61
				c-0.02-0.05-0.04-0.09-0.06-0.12l0.12-0.02c0.02,0.05,0.04,0.09,0.06,0.14h0.55v0.12h-1.16v0.2h0.27v-0.14h0.11v0.14h0.42v-0.14
				h0.11v0.14h0.25v0.11h-0.25v0.27h-0.65v-0.27H93.65z M93.75,26.8h0.93v0.09c-0.09,0.12-0.2,0.22-0.33,0.3
				c0.14,0.07,0.31,0.11,0.5,0.14l-0.05,0.11c-0.22-0.04-0.41-0.1-0.56-0.18c-0.16,0.08-0.35,0.15-0.56,0.18l-0.05-0.11
				c0.19-0.03,0.35-0.08,0.49-0.14c-0.12-0.08-0.22-0.18-0.29-0.28h-0.1V26.8z M93.96,26.9c0.07,0.09,0.16,0.17,0.27,0.23
				c0.11-0.06,0.21-0.14,0.29-0.23H93.96z M94.03,26.41v0.16h0.42v-0.16H94.03z"/>
		</g>
		<g>
			<g>
				<path class="st0" d="M79.23,25.83h1.34v0.16H80v1.48h-0.19v-1.48h-0.58V25.83z"/>
				<path class="st0" d="M81.01,25.88c0.03,0.02,0.04,0.06,0.04,0.1c0,0.04-0.01,0.07-0.04,0.1c-0.03,0.03-0.06,0.04-0.1,0.04
					c-0.04,0-0.07-0.01-0.1-0.04c-0.03-0.03-0.04-0.06-0.04-0.1c0-0.04,0.01-0.07,0.04-0.1c0.03-0.03,0.06-0.04,0.1-0.04
					C80.95,25.84,80.98,25.85,81.01,25.88z M80.82,26.28H81v1.19h-0.18V26.28z"/>
				<path class="st0" d="M81.66,25.9v0.38h0.29v0.15h-0.29v0.76c0,0.05,0.01,0.08,0.03,0.09c0.02,0.02,0.05,0.03,0.09,0.03h0.15
					v0.15h-0.18c-0.1,0-0.17-0.03-0.21-0.08c-0.04-0.04-0.06-0.11-0.06-0.2v-0.76h-0.24v-0.15h0.24v-0.31L81.66,25.9z"/>
				<path class="st0" d="M82.2,25.8h0.18v1.67H82.2V25.8z"/>
				<path class="st0" d="M83.62,26.45c0.09,0.12,0.13,0.28,0.14,0.48h-0.94c0.01,0.13,0.05,0.24,0.11,0.31
					c0.06,0.07,0.15,0.11,0.27,0.11c0.1,0,0.18-0.02,0.24-0.07c0.05-0.04,0.09-0.1,0.12-0.19h0.18c-0.03,0.11-0.08,0.21-0.16,0.28
					c-0.1,0.09-0.23,0.13-0.38,0.13c-0.17,0-0.31-0.06-0.41-0.17c-0.1-0.11-0.16-0.27-0.16-0.46c0-0.18,0.05-0.32,0.15-0.44
					c0.1-0.12,0.24-0.19,0.41-0.19C83.38,26.25,83.53,26.32,83.62,26.45z M82.94,26.51c-0.06,0.07-0.1,0.16-0.11,0.28h0.74
					c-0.02-0.25-0.15-0.38-0.37-0.38C83.09,26.41,83.01,26.44,82.94,26.51z"/>
			</g>
		</g>
		<g>
			<path class="st82" d="M85.46,30.35h0.66c-0.04-0.09-0.1-0.18-0.16-0.26l0.11-0.04c0.06,0.08,0.11,0.18,0.17,0.3h0.61v0.12H86.6
				c-0.08,0.27-0.2,0.5-0.35,0.69c0.17,0.15,0.38,0.28,0.64,0.39l-0.06,0.1c-0.26-0.11-0.48-0.24-0.65-0.4
				c-0.18,0.18-0.41,0.31-0.68,0.4l-0.06-0.11c0.27-0.08,0.49-0.2,0.66-0.37c-0.18-0.2-0.31-0.43-0.38-0.7h-0.25V30.35z
				 M85.82,30.47c0.07,0.23,0.18,0.44,0.35,0.61c0.14-0.17,0.25-0.37,0.31-0.61H85.82z"/>
			<path class="st82" d="M87.32,30.54h0.86v0.12c-0.09,0.07-0.21,0.15-0.35,0.23V31h0.63v0.12h-0.63v0.37c0,0.1-0.05,0.14-0.14,0.14
				h-0.2l-0.03-0.11c0.07,0,0.14,0,0.18,0c0.04,0,0.06-0.03,0.06-0.08v-0.32h-0.67V31h0.67v-0.17c0.12-0.07,0.22-0.13,0.29-0.18
				h-0.68V30.54z M88.43,30.23v0.39h-0.11v-0.27h-1.12v0.27h-0.11v-0.39h0.63c-0.02-0.06-0.05-0.12-0.07-0.17l0.13-0.02
				c0.02,0.06,0.04,0.12,0.07,0.19H88.43z"/>
			<path class="st82" d="M88.85,30.06h0.11v0.33h0.19v0.12h-0.19v0.13c0.08,0.08,0.15,0.18,0.23,0.29l-0.07,0.11
				c-0.07-0.11-0.12-0.2-0.17-0.26v0.87h-0.11v-0.87c-0.05,0.17-0.12,0.32-0.2,0.45l-0.05-0.14c0.11-0.17,0.19-0.36,0.24-0.58h-0.19
				v-0.12h0.19V30.06z M89.43,30.87c-0.05,0.24-0.12,0.45-0.22,0.63l-0.1-0.07c0.1-0.18,0.17-0.37,0.22-0.58L89.43,30.87z
				 M89.38,31.62l-0.02-0.12c0.07,0,0.12,0.01,0.15,0.01c0.04,0,0.07-0.03,0.07-0.08V30.7h-0.39v-0.12h0.89v0.12h-0.39v0.77
				c0,0.1-0.05,0.15-0.14,0.15H89.38z M89.26,30.16h0.73v0.12h-0.73V30.16z M89.9,30.83c0.07,0.19,0.12,0.4,0.17,0.63l-0.1,0.05
				c-0.05-0.24-0.11-0.45-0.17-0.64L89.9,30.83z"/>
			<path class="st82" d="M90.97,30.49c0.2,0.16,0.43,0.28,0.69,0.37l-0.06,0.11c-0.26-0.1-0.49-0.22-0.67-0.38
				c-0.17,0.14-0.39,0.27-0.67,0.38l-0.05-0.11c0.28-0.1,0.51-0.23,0.69-0.37H90.97z M90.46,30.31c-0.04,0.09-0.09,0.17-0.14,0.24
				l-0.1-0.07c0.1-0.13,0.17-0.28,0.22-0.44l0.11,0.03c-0.01,0.03-0.02,0.07-0.04,0.13h0.42v0.11H90.7
				c0.03,0.07,0.05,0.12,0.06,0.17l-0.11,0.04c-0.02-0.08-0.05-0.15-0.07-0.21H90.46z M91.42,31.08c-0.04,0.15-0.09,0.27-0.15,0.39
				h0.34v0.12h-1.35v-0.12h0.88c0.06-0.12,0.12-0.26,0.16-0.42L91.42,31.08z M90.55,31.07c0.05,0.09,0.09,0.2,0.12,0.32l-0.1,0.03
				c-0.03-0.11-0.07-0.22-0.12-0.32L90.55,31.07z M90.53,30.87h0.83v0.11h-0.83V30.87z M90.92,31.03c0.04,0.11,0.07,0.22,0.1,0.34
				l-0.1,0.03c-0.03-0.12-0.06-0.23-0.1-0.34L90.92,31.03z M91.13,30.31c-0.03,0.07-0.06,0.12-0.09,0.17l-0.1-0.07
				c0.08-0.11,0.13-0.23,0.16-0.37l0.11,0.03c-0.01,0.03-0.02,0.07-0.04,0.13h0.47v0.11h-0.25c0.04,0.06,0.06,0.13,0.08,0.19
				l-0.11,0.04c-0.03-0.08-0.06-0.16-0.1-0.23H91.13z"/>
			<path class="st82" d="M91.83,30.73h0.32v-0.66h0.11v0.66h0.97v0.12h-0.52c0.07,0.28,0.25,0.49,0.54,0.65l-0.07,0.12
				c-0.32-0.18-0.52-0.44-0.59-0.76h-0.33v0.63c0.12-0.03,0.24-0.07,0.36-0.12l0.03,0.12c-0.16,0.06-0.32,0.11-0.5,0.16l-0.04-0.11
				c0.02-0.01,0.04-0.03,0.04-0.06v-0.61h-0.32V30.73z M93.07,30.16c-0.13,0.15-0.32,0.29-0.58,0.42l-0.07-0.1
				c0.25-0.12,0.44-0.26,0.57-0.41L93.07,30.16z"/>
			<path class="st82" d="M93.65,30.62v0.13c-0.01,0.37-0.06,0.66-0.17,0.88l-0.09-0.08c0.09-0.19,0.14-0.46,0.14-0.8v-0.56h0.61
				c-0.02-0.05-0.04-0.09-0.06-0.12l0.12-0.02c0.02,0.05,0.04,0.09,0.06,0.14h0.55v0.12h-1.16v0.2h0.27v-0.14h0.11v0.14h0.42v-0.14
				h0.11v0.14h0.25v0.11h-0.25v0.27h-0.65v-0.27H93.65z M93.75,31.01h0.93v0.09c-0.09,0.12-0.2,0.22-0.33,0.3
				c0.14,0.07,0.31,0.11,0.5,0.14l-0.05,0.11c-0.22-0.04-0.41-0.1-0.56-0.18c-0.16,0.08-0.35,0.15-0.56,0.18l-0.05-0.11
				c0.19-0.03,0.35-0.08,0.49-0.14c-0.12-0.08-0.22-0.18-0.29-0.28h-0.1V31.01z M93.96,31.11c0.07,0.09,0.16,0.17,0.27,0.23
				c0.11-0.06,0.21-0.14,0.29-0.23H93.96z M94.03,30.62v0.16h0.42v-0.16H94.03z"/>
		</g>
		<g>
			<g>
				<path class="st0" d="M79.23,30.04h1.34v0.16H80v1.48h-0.19V30.2h-0.58V30.04z"/>
				<path class="st0" d="M81.01,30.08c0.03,0.02,0.04,0.06,0.04,0.1c0,0.04-0.01,0.07-0.04,0.1c-0.03,0.03-0.06,0.04-0.1,0.04
					c-0.04,0-0.07-0.01-0.1-0.04c-0.03-0.03-0.04-0.06-0.04-0.1c0-0.04,0.01-0.07,0.04-0.1c0.03-0.03,0.06-0.04,0.1-0.04
					C80.95,30.05,80.98,30.06,81.01,30.08z M80.82,30.49H81v1.19h-0.18V30.49z"/>
				<path class="st0" d="M81.66,30.11v0.38h0.29v0.15h-0.29v0.76c0,0.05,0.01,0.08,0.03,0.09c0.02,0.02,0.05,0.03,0.09,0.03h0.15
					v0.15h-0.18c-0.1,0-0.17-0.03-0.21-0.08c-0.04-0.04-0.06-0.11-0.06-0.2v-0.76h-0.24v-0.15h0.24v-0.31L81.66,30.11z"/>
				<path class="st0" d="M82.2,30.01h0.18v1.67H82.2V30.01z"/>
				<path class="st0" d="M83.62,30.65c0.09,0.12,0.13,0.28,0.14,0.48h-0.94c0.01,0.13,0.05,0.24,0.11,0.31
					c0.06,0.07,0.15,0.11,0.27,0.11c0.1,0,0.18-0.02,0.24-0.07c0.05-0.04,0.09-0.1,0.12-0.19h0.18c-0.03,0.11-0.08,0.21-0.16,0.28
					c-0.1,0.09-0.23,0.13-0.38,0.13c-0.17,0-0.31-0.06-0.41-0.17c-0.1-0.11-0.16-0.27-0.16-0.46c0-0.18,0.05-0.32,0.15-0.44
					c0.1-0.12,0.24-0.19,0.41-0.19C83.38,30.46,83.53,30.53,83.62,30.65z M82.94,30.72c-0.06,0.07-0.1,0.16-0.11,0.28h0.74
					c-0.02-0.25-0.15-0.38-0.37-0.38C83.09,30.62,83.01,30.65,82.94,30.72z"/>
			</g>
		</g>
		<rect x="77.89" y="23.78" class="st182" width="18.7" height="23.43"/>
	</g>
	<g>
		<rect x="37.72" y="23.96" class="st125" width="18.51" height="23.25"/>
		<g>
			<g>
				<path class="st81" d="M43.61,32.03c0,0.48,0.41,0.87,0.9,0.84c0.42-0.03,0.76-0.36,0.79-0.79c0.03-0.49-0.36-0.9-0.84-0.9
					C43.99,31.19,43.61,31.57,43.61,32.03L43.61,32.03z M51.23,37.47l-2.52-4.37c-0.12-0.2-0.41-0.2-0.53,0l-2.02,3.5l-1.2-2.07
					c-0.05-0.09-0.16-0.15-0.27-0.15c-0.11,0-0.21,0.06-0.27,0.15l-1.7,2.94c-0.05,0.09-0.05,0.21,0,0.31
					c0.05,0.09,0.16,0.15,0.27,0.15h7.97c0.11,0,0.21-0.06,0.27-0.15C51.28,37.69,51.28,37.57,51.23,37.47L51.23,37.47z
					 M51.23,37.47"/>
			</g>
		</g>
	</g>
	<g>
		<g>
			<g>
				<path class="st1" d="M64.39,19.41h1.55v0.22h-0.67v1.96h-0.21v-1.96h-0.67V19.41z"/>
				<path class="st1" d="M66.44,19.47c0.03,0.03,0.05,0.07,0.05,0.13c0,0.05-0.02,0.09-0.05,0.13c-0.03,0.03-0.07,0.05-0.11,0.05
					c-0.04,0-0.08-0.02-0.11-0.05c-0.03-0.03-0.05-0.08-0.05-0.13c0-0.06,0.01-0.1,0.05-0.13c0.03-0.03,0.07-0.05,0.11-0.05
					C66.37,19.42,66.41,19.44,66.44,19.47z M66.22,20.01h0.21v1.58h-0.21V20.01z"/>
				<path class="st1" d="M67.19,19.5v0.51h0.34v0.2h-0.34v1c0,0.06,0.01,0.1,0.03,0.12c0.02,0.03,0.05,0.04,0.1,0.04h0.17v0.2h-0.21
					c-0.11,0-0.19-0.03-0.24-0.1c-0.04-0.06-0.07-0.15-0.07-0.27v-1h-0.28v-0.2h0.28V19.6L67.19,19.5z"/>
				<path class="st1" d="M67.81,19.37h0.21v2.22h-0.21V19.37z"/>
				<path class="st1" d="M69.45,20.23c0.1,0.15,0.15,0.37,0.16,0.64h-1.08c0.01,0.18,0.05,0.32,0.12,0.41
					c0.07,0.1,0.18,0.15,0.31,0.15c0.11,0,0.2-0.03,0.27-0.1c0.06-0.05,0.1-0.14,0.14-0.25h0.21c-0.03,0.15-0.09,0.27-0.19,0.37
					c-0.12,0.12-0.26,0.18-0.44,0.18c-0.2,0-0.35-0.07-0.47-0.22c-0.12-0.15-0.18-0.35-0.18-0.61c0-0.24,0.06-0.43,0.17-0.58
					c0.12-0.16,0.27-0.25,0.47-0.25C69.17,19.97,69.34,20.05,69.45,20.23z M68.66,20.31c-0.07,0.09-0.12,0.21-0.13,0.37h0.85
					c-0.03-0.34-0.17-0.51-0.43-0.51C68.84,20.17,68.74,20.22,68.66,20.31z"/>
			</g>
		</g>
		<rect x="57.65" y="18.01" class="st180" width="18.7" height="4.45"/>
	</g>
	<g>
		<g>
			<g>
				<path class="st1" d="M44.27,19.19h1.55v0.22h-0.67v1.96h-0.21v-1.96h-0.67V19.19z"/>
				<path class="st1" d="M46.32,19.25c0.03,0.03,0.05,0.07,0.05,0.13c0,0.05-0.02,0.09-0.05,0.13c-0.03,0.03-0.07,0.05-0.11,0.05
					c-0.04,0-0.08-0.02-0.11-0.05c-0.03-0.03-0.05-0.08-0.05-0.13c0-0.06,0.01-0.1,0.05-0.13c0.03-0.03,0.07-0.05,0.11-0.05
					C46.25,19.2,46.29,19.21,46.32,19.25z M46.1,19.79h0.21v1.58H46.1V19.79z"/>
				<path class="st1" d="M47.07,19.28v0.51h0.34V20h-0.34v1c0,0.06,0.01,0.1,0.03,0.12c0.02,0.03,0.05,0.04,0.1,0.04h0.17v0.2h-0.21
					c-0.11,0-0.19-0.03-0.24-0.1c-0.04-0.06-0.07-0.15-0.07-0.27v-1h-0.28v-0.2h0.28v-0.41L47.07,19.28z"/>
				<path class="st1" d="M47.69,19.15h0.21v2.22h-0.21V19.15z"/>
				<path class="st1" d="M49.33,20c0.1,0.15,0.15,0.37,0.16,0.64h-1.08c0.01,0.18,0.05,0.32,0.12,0.41c0.07,0.1,0.18,0.15,0.31,0.15
					c0.11,0,0.2-0.03,0.27-0.1c0.06-0.05,0.1-0.14,0.14-0.25h0.21c-0.03,0.15-0.09,0.27-0.19,0.37c-0.12,0.12-0.26,0.18-0.44,0.18
					c-0.2,0-0.35-0.07-0.47-0.22c-0.12-0.15-0.18-0.35-0.18-0.61c0-0.24,0.06-0.43,0.17-0.58c0.12-0.16,0.27-0.25,0.47-0.25
					C49.05,19.75,49.22,19.83,49.33,20z M48.54,20.09c-0.07,0.09-0.12,0.21-0.13,0.37h0.85c-0.03-0.34-0.17-0.51-0.43-0.51
					C48.72,19.95,48.62,20,48.54,20.09z"/>
			</g>
		</g>
		<rect x="37.53" y="17.79" class="st180" width="18.7" height="4.45"/>
	</g>
	<g>
		<g>
			<g>
				<path class="st81" d="M24.15,19.19h1.55v0.22h-0.67v1.96h-0.21v-1.96h-0.67V19.19z"/>
				<path class="st81" d="M26.2,19.25c0.03,0.03,0.05,0.07,0.05,0.13c0,0.05-0.02,0.09-0.05,0.13c-0.03,0.03-0.07,0.05-0.11,0.05
					c-0.04,0-0.08-0.02-0.11-0.05c-0.03-0.03-0.05-0.08-0.05-0.13c0-0.06,0.01-0.1,0.05-0.13c0.03-0.03,0.07-0.05,0.11-0.05
					S26.17,19.21,26.2,19.25z M25.98,19.79h0.21v1.58h-0.21V19.79z"/>
				<path class="st81" d="M26.95,19.28v0.51h0.34V20h-0.34v1c0,0.06,0.01,0.1,0.03,0.12c0.02,0.03,0.05,0.04,0.1,0.04h0.17v0.2
					h-0.21c-0.11,0-0.19-0.03-0.24-0.1c-0.04-0.06-0.07-0.15-0.07-0.27v-1h-0.28v-0.2h0.28v-0.41L26.95,19.28z"/>
				<path class="st81" d="M27.57,19.15h0.21v2.22h-0.21V19.15z"/>
				<path class="st81" d="M29.21,20c0.1,0.15,0.15,0.37,0.16,0.64h-1.08c0.01,0.18,0.05,0.32,0.12,0.41
					c0.07,0.1,0.18,0.15,0.31,0.15c0.11,0,0.2-0.03,0.27-0.1c0.06-0.05,0.1-0.14,0.14-0.25h0.21c-0.03,0.15-0.09,0.27-0.19,0.37
					c-0.12,0.12-0.26,0.18-0.44,0.18c-0.2,0-0.35-0.07-0.47-0.22c-0.12-0.15-0.18-0.35-0.18-0.61c0-0.24,0.06-0.43,0.17-0.58
					c0.12-0.16,0.27-0.25,0.47-0.25C28.94,19.75,29.1,19.83,29.21,20z M28.43,20.09c-0.07,0.09-0.12,0.21-0.13,0.37h0.85
					c-0.03-0.34-0.17-0.51-0.43-0.51C28.6,19.95,28.5,20,28.43,20.09z"/>
			</g>
		</g>
		<rect x="17.41" y="17.79" class="st183" width="18.7" height="4.45"/>
	</g>
	<g>
		<g>
			<g>
				<path class="st1" d="M84.51,19.41h1.55v0.22h-0.67v1.96h-0.21v-1.96h-0.67V19.41z"/>
				<path class="st1" d="M86.56,19.47c0.03,0.03,0.05,0.07,0.05,0.13c0,0.05-0.02,0.09-0.05,0.13c-0.03,0.03-0.07,0.05-0.11,0.05
					c-0.04,0-0.08-0.02-0.11-0.05c-0.03-0.03-0.05-0.08-0.05-0.13c0-0.06,0.01-0.1,0.05-0.13c0.03-0.03,0.07-0.05,0.11-0.05
					S86.53,19.44,86.56,19.47z M86.34,20.01h0.21v1.58h-0.21V20.01z"/>
				<path class="st1" d="M87.31,19.5v0.51h0.34v0.2h-0.34v1c0,0.06,0.01,0.1,0.03,0.12c0.02,0.03,0.05,0.04,0.1,0.04h0.17v0.2h-0.21
					c-0.11,0-0.19-0.03-0.24-0.1c-0.04-0.06-0.07-0.15-0.07-0.27v-1h-0.28v-0.2h0.28V19.6L87.31,19.5z"/>
				<path class="st1" d="M87.93,19.37h0.21v2.22h-0.21V19.37z"/>
				<path class="st1" d="M89.57,20.23c0.1,0.15,0.15,0.37,0.16,0.64h-1.08c0.01,0.18,0.05,0.32,0.12,0.41
					c0.07,0.1,0.18,0.15,0.31,0.15c0.11,0,0.2-0.03,0.27-0.1c0.06-0.05,0.1-0.14,0.14-0.25h0.21c-0.03,0.15-0.09,0.27-0.19,0.37
					c-0.12,0.12-0.26,0.18-0.44,0.18c-0.2,0-0.35-0.07-0.47-0.22c-0.12-0.15-0.18-0.35-0.18-0.61c0-0.24,0.06-0.43,0.17-0.58
					c0.12-0.16,0.27-0.25,0.47-0.25C89.29,19.97,89.46,20.05,89.57,20.23z M88.78,20.31c-0.07,0.09-0.12,0.21-0.13,0.37h0.85
					c-0.03-0.34-0.17-0.51-0.43-0.51C88.95,20.17,88.86,20.22,88.78,20.31z"/>
			</g>
		</g>
		<rect x="77.77" y="18.01" class="st180" width="18.7" height="4.45"/>
	</g>
</g>
</svg>
