<?xml version="1.0" encoding="utf-8"?>
<!-- Generator: Adobe Illustrator 23.0.0, SVG Export Plug-In . SVG Version: 6.00 Build 0)  -->
<svg version="1.1" id="图层_1" xmlns="http://www.w3.org/2000/svg" xmlns:xlink="http://www.w3.org/1999/xlink" x="0px" y="0px"
	 viewBox="0 0 114 65" style="enable-background:new 0 0 114 65;" xml:space="preserve">
<style type="text/css">
	.st0{fill:#4C7EF1;}
	.st1{fill:#29CB97;}
	.st2{fill:#FEC400;}
	.st3{fill:#29C997;}
	.st4{fill:#B35AF1;}
	.st5{fill:#FFFFFF;}
	.st6{fill:#6B6B6B;}
	.st7{fill:#444444;}
	.st8{opacity:0.1;fill:#FFFFFF;}
	.st9{opacity:0.1;}
	.st10{fill:none;stroke:#F24343;stroke-width:14;stroke-miterlimit:10;}
	.st11{fill:none;stroke:#FFFFFF;stroke-width:14;stroke-miterlimit:10;}
	.st12{fill:none;stroke:#4C7EF1;stroke-width:14;stroke-miterlimit:10;}
	.st13{fill:none;stroke:#FEAB05;stroke-width:14;stroke-miterlimit:10;}
	.st14{fill:none;stroke:#29CB97;stroke-width:8;stroke-miterlimit:10;}
	.st15{fill:none;stroke:#29CB97;stroke-width:16;stroke-miterlimit:10;}
	.st16{fill:none;stroke:#FEC400;stroke-width:16;stroke-miterlimit:10;}
	.st17{fill:none;stroke:#FEAB05;stroke-width:16;stroke-miterlimit:10;}
	.st18{fill:none;stroke:#FEC400;stroke-width:8;stroke-miterlimit:10;}
	.st19{fill:none;stroke:#676767;stroke-width:8;stroke-miterlimit:10;}
	.st20{fill:none;stroke:#FEC400;stroke-width:2;stroke-miterlimit:10;}
	.st21{fill:#E6E6E6;}
	.st22{fill:#74D889;}
	.st23{fill:#FFDC70;}
	.st24{fill:#47ABFC;}
	.st25{fill:none;stroke:#FFFFFF;stroke-miterlimit:10;}
	.st26{fill:#4C7EF1;stroke:#0B0C0E;stroke-miterlimit:10;}
	.st27{fill:#FEC400;stroke:#0B0C0E;stroke-miterlimit:10;}
	.st28{fill:none;stroke:#AAA9A9;stroke-miterlimit:10;}
	.st29{fill:none;stroke:#A5A4A4;stroke-width:2;stroke-miterlimit:10;stroke-dasharray:1.0005,4.002;}
	.st30{fill:none;stroke:#4C7EF1;stroke-width:40;stroke-miterlimit:10;}
	.st31{fill:none;stroke:#FEC400;stroke-width:40;stroke-miterlimit:10;}
	.st32{fill:none;stroke:#676767;stroke-width:20;stroke-miterlimit:10;}
	.st33{fill:none;stroke:#FEC400;stroke-width:20;stroke-miterlimit:10;}
	.st34{fill:none;stroke:#29C997;stroke-width:20;stroke-miterlimit:10;}
	.st35{fill:none;stroke:#FFFFFF;stroke-width:20;stroke-miterlimit:10;}
	.st36{fill:none;stroke:#000000;stroke-miterlimit:10;}
	.st37{fill:none;stroke:#FFFFFF;stroke-width:2;stroke-miterlimit:10;stroke-dasharray:3.941,3.941;}
	.st38{opacity:0.5;fill:none;stroke:#FFFFFF;stroke-width:0.4926;stroke-miterlimit:10;stroke-dasharray:3.941,3.941;}
	.st39{fill:none;stroke:#00B091;stroke-width:4;stroke-miterlimit:10;}
	.st40{fill:none;stroke:#EDBF00;stroke-width:4;stroke-miterlimit:10;}
	.st41{fill:#EDBF00;}
	.st42{fill:#00B091;}
	.st43{opacity:0.8;fill:#00B091;}
	.st44{opacity:0.8;fill:#EDBF00;}
	.st45{opacity:0.8;fill:#D85700;}
	.st46{fill:#4C7EF1;stroke:#4C7EF1;stroke-miterlimit:10;}
	.st47{fill:none;stroke:#676767;stroke-width:2;stroke-miterlimit:10;}
	.st48{fill:none;stroke:#FEC400;stroke-width:0.25;stroke-miterlimit:10;}
	.st49{fill:none;stroke:#999999;stroke-width:0.25;stroke-miterlimit:10;}
	.st50{fill:#4C7EF1;stroke:#0B0C0E;stroke-width:0.25;stroke-miterlimit:10;}
	.st51{fill:#FEC400;stroke:#0B0C0E;stroke-width:0.25;stroke-miterlimit:10;}
	.st52{fill:none;stroke:#AAA9A9;stroke-width:0.25;stroke-miterlimit:10;}
	.st53{fill:none;stroke:#A5A4A4;stroke-width:2;stroke-miterlimit:10;stroke-dasharray:0.9678,3.8712;}
	.st54{fill:none;stroke:#4C7EF1;stroke-width:4;stroke-miterlimit:10;}
	.st55{fill:none;stroke:#FEC400;stroke-width:4;stroke-miterlimit:10;}
	.st56{fill:none;stroke:#29C997;stroke-width:2;stroke-miterlimit:10;}
	.st57{fill:none;stroke:#FFFFFF;stroke-width:2;stroke-miterlimit:10;}
	.st58{fill:none;stroke:#000000;stroke-width:0.25;stroke-miterlimit:10;}
	.st59{fill:none;stroke:#FFFFFF;stroke-width:0.25;stroke-miterlimit:10;stroke-dasharray:3.941,3.941;}
	.st60{opacity:0.5;fill:none;stroke:#FFFFFF;stroke-width:0.25;stroke-miterlimit:10;stroke-dasharray:3.941,3.941;}
	.st61{fill:none;stroke:#00B091;stroke-width:0.5;stroke-miterlimit:10;}
	.st62{fill:none;stroke:#EDBF00;stroke-width:0.5;stroke-miterlimit:10;}
	.st63{opacity:0.65;fill:url(#SVGID_1_);}
	.st64{opacity:0.65;fill:url(#SVGID_2_);}
	.st65{opacity:0.65;fill:url(#SVGID_3_);}
	.st66{opacity:0.65;fill:url(#SVGID_4_);}
	.st67{opacity:0.65;fill:url(#SVGID_5_);}
	.st68{opacity:0.65;fill:url(#SVGID_6_);}
	.st69{fill:#292E34;}
	.st70{opacity:0.6;}
	.st71{fill:#334469;}
	.st72{fill:#FEAB05;}
	.st73{opacity:0.4;fill:#0B0C0E;}
	.st74{opacity:0.7;}
	.st75{fill:#F24343;}
	.st76{opacity:0.42;fill:#676767;stroke:#F0F2F8;stroke-miterlimit:10;}
	.st77{fill:none;stroke:#F0F2F8;stroke-width:2;stroke-miterlimit:10;}
	.st78{clip-path:url(#SVGID_8_);}
	.st79{fill:#3B86FF;}
	.st80{opacity:0.36;}
	.st81{fill:#4170ED;}
	.st82{fill:#999999;}
	.st83{opacity:0.15;}
	.st84{clip-path:url(#SVGID_10_);}
	.st85{fill:#1CCC96;}
	.st86{opacity:0.43;}
	.st87{clip-path:url(#SVGID_12_);}
	.st88{fill:#30C3E9;}
	.st89{clip-path:url(#SVGID_14_);}
	.st90{fill:#BCEAEC;}
	.st91{opacity:0.14;}
	.st92{clip-path:url(#SVGID_16_);}
	.st93{fill:#FBC400;}
	.st94{fill:#1F1F1F;}
	.st95{fill:none;stroke:url(#SVGID_17_);stroke-width:0.15;stroke-miterlimit:10;}
	.st96{fill:none;stroke:#00B091;stroke-width:0.15;stroke-miterlimit:10;}
	.st97{fill:none;stroke:url(#SVGID_18_);stroke-width:0.15;stroke-miterlimit:10;}
	.st98{fill:none;stroke:url(#SVGID_19_);stroke-width:0.15;stroke-miterlimit:10;}
	.st99{fill:none;stroke:url(#SVGID_20_);stroke-width:0.15;stroke-miterlimit:10;}
	.st100{fill:none;stroke:url(#SVGID_21_);stroke-width:0.15;stroke-miterlimit:10;}
	.st101{opacity:0.5;fill:#4170ED;}
	.st102{fill:#666666;}
	.st103{fill:none;stroke:#4170ED;stroke-width:0.5;stroke-miterlimit:10;}
	.st104{fill:none;stroke:url(#SVGID_22_);stroke-width:0.5;stroke-miterlimit:10;stroke-dasharray:0.9965,0.9965;}
	.st105{opacity:0.4;}
	.st106{fill:url(#SVGID_23_);stroke:url(#SVGID_24_);stroke-width:0.5;stroke-miterlimit:10;}
	.st107{fill:none;stroke:url(#SVGID_25_);stroke-width:0.5;stroke-miterlimit:10;}
	.st108{fill:url(#SVGID_26_);stroke:url(#SVGID_27_);stroke-width:0.5;stroke-miterlimit:10;}
	.st109{fill:none;stroke:url(#SVGID_28_);stroke-width:0.5;stroke-miterlimit:10;stroke-dasharray:0.9965,0.9965;}
	.st110{fill:url(#SVGID_29_);}
	.st111{fill:none;stroke:url(#SVGID_30_);stroke-width:0.5;stroke-miterlimit:10;stroke-dasharray:0.994,0.994;}
	.st112{fill:none;stroke:url(#SVGID_31_);stroke-width:0.5;stroke-miterlimit:10;}
	.st113{fill:none;stroke:url(#SVGID_32_);stroke-width:0.5;stroke-miterlimit:10;}
	.st114{fill:none;stroke:url(#SVGID_33_);stroke-width:0.5;stroke-miterlimit:10;}
	.st115{fill:url(#SVGID_34_);stroke:url(#SVGID_35_);stroke-width:0.5;stroke-miterlimit:10;}
	.st116{fill:#3885E9;}
	.st117{opacity:0.33;}
	.st118{fill:none;stroke:#999999;stroke-miterlimit:10;}
	.st119{fill:none;stroke:#4170ED;stroke-miterlimit:10;}
	.st120{fill:none;stroke:url(#SVGID_36_);stroke-width:0.5;stroke-miterlimit:10;}
	.st121{fill:url(#SVGID_37_);}
	.st122{opacity:0.3;fill:none;stroke:#4170ED;stroke-miterlimit:10;}
	.st123{opacity:0.87;fill:none;stroke:url(#SVGID_38_);stroke-miterlimit:10;}
	.st124{opacity:0.53;fill:#FFFFFF;}
	.st125{opacity:0.3;fill:none;stroke:#4170ED;stroke-width:0.25;stroke-miterlimit:10;}
	.st126{fill:url(#SVGID_39_);stroke:url(#SVGID_40_);stroke-width:0.25;stroke-miterlimit:10;}
	.st127{fill:url(#SVGID_41_);stroke:url(#SVGID_42_);stroke-width:0.25;stroke-miterlimit:10;}
	.st128{fill:url(#SVGID_43_);stroke:url(#SVGID_44_);stroke-width:0.25;stroke-miterlimit:10;}
	.st129{fill:url(#SVGID_45_);stroke:url(#SVGID_46_);stroke-width:0.25;stroke-miterlimit:10;}
	.st130{clip-path:url(#SVGID_48_);fill:#BFBFBF;}
	.st131{fill:#BFBFBF;}
	.st132{clip-path:url(#SVGID_50_);fill:#BFBFBF;}
	.st133{clip-path:url(#SVGID_52_);fill:#BFBFBF;}
	.st134{clip-path:url(#SVGID_54_);fill:#BFBFBF;}
	.st135{clip-path:url(#SVGID_56_);fill:#BFBFBF;}
	.st136{clip-path:url(#SVGID_58_);fill:#BFBFBF;}
	.st137{fill:none;}
	.st138{fill:#1B3E60;}
	.st139{fill:#31446D;stroke:#4170ED;stroke-width:0.5;stroke-miterlimit:10;}
	.st140{opacity:0.31;fill:#EDBF00;}
	.st141{opacity:0.31;fill:#00B091;}
	.st142{fill:#31446D;stroke:#4C7EF1;stroke-width:0.5;stroke-miterlimit:10;}
	.st143{clip-path:url(#SVGID_60_);fill:#BFBFBF;}
	.st144{clip-path:url(#SVGID_62_);fill:#BFBFBF;}
	.st145{clip-path:url(#SVGID_64_);fill:#BFBFBF;}
	.st146{clip-path:url(#SVGID_66_);fill:#BFBFBF;}
	.st147{clip-path:url(#SVGID_68_);fill:#BFBFBF;}
	.st148{clip-path:url(#SVGID_70_);fill:#BFBFBF;}
	.st149{fill:url(#XMLID_644_);}
	.st150{fill:none;stroke:#4C7EF1;stroke-width:0.25;stroke-miterlimit:10;}
	.st151{opacity:0.5;fill:#4C7EF1;}
	.st152{fill:url(#SVGID_71_);}
	.st153{fill:url(#SVGID_72_);}
	.st154{fill:url(#SVGID_73_);}
	.st155{fill:url(#SVGID_74_);}
	.st156{fill:url(#SVGID_75_);}
	.st157{fill:none;stroke:#F24343;stroke-width:2;stroke-miterlimit:10;}
	.st158{fill:none;stroke:#4C7EF1;stroke-width:2;stroke-miterlimit:10;}
	.st159{fill:none;stroke:#FEAB05;stroke-width:2;stroke-miterlimit:10;}
	.st160{fill:none;stroke:#29CB97;stroke-width:2;stroke-miterlimit:10;}
	.st161{opacity:0.42;fill:#676767;stroke:#F0F2F8;stroke-width:0.5;stroke-miterlimit:10;}
	.st162{fill:none;stroke:#F0F2F8;stroke-miterlimit:10;}
	.st163{clip-path:url(#SVGID_77_);}
	.st164{opacity:0.56;fill:#4C7EF1;}
	.st165{fill:none;stroke:url(#SVGID_78_);stroke-width:0.5;stroke-miterlimit:10;stroke-dasharray:1.0027,1.0027;}
	.st166{fill:none;stroke:url(#SVGID_79_);stroke-width:0.5;stroke-miterlimit:10;}
	.st167{fill:none;stroke:url(#SVGID_80_);stroke-width:0.5;stroke-miterlimit:10;}
	.st168{fill:none;stroke:url(#SVGID_81_);stroke-width:0.5;stroke-miterlimit:10;}
	.st169{opacity:0.14;fill:none;stroke:#4C7EF1;stroke-width:0.25;stroke-miterlimit:10;}
	.st170{fill:#F2F2F2;}
	.st171{fill:none;stroke:#3B86FF;stroke-width:0.25;stroke-miterlimit:10;}
	.st172{fill:#676767;stroke:#3B86FF;stroke-width:0.25;stroke-miterlimit:10;}
	.st173{fill:#606060;stroke:#3B86FF;stroke-width:0.25;stroke-miterlimit:10;}
	.st174{fill:url(#SVGID_82_);stroke:url(#SVGID_83_);stroke-width:0.25;stroke-miterlimit:10;}
	.st175{fill:url(#SVGID_84_);stroke:url(#SVGID_85_);stroke-width:0.25;stroke-miterlimit:10;}
	.st176{fill:url(#SVGID_86_);stroke:url(#SVGID_87_);stroke-width:0.25;stroke-miterlimit:10;}
	.st177{fill:url(#SVGID_88_);stroke:url(#SVGID_89_);stroke-width:0.25;stroke-miterlimit:10;}
	.st178{fill:url(#SVGID_90_);stroke:url(#SVGID_91_);stroke-width:0.25;stroke-miterlimit:10;}
	.st179{opacity:0.46;fill:url(#SVGID_92_);}
	.st180{opacity:0.14;fill:#29CB97;stroke:#4C7EF1;stroke-width:0.25;stroke-miterlimit:10;}
	.st181{opacity:0.35;fill:#999999;}
	.st182{fill:none;stroke:#3B86FF;stroke-width:0.1;stroke-miterlimit:10;}
	.st183{opacity:0.14;fill:#4170ED;stroke:#4C7EF1;stroke-width:0.25;stroke-miterlimit:10;}
</style>
<g>
	<g>
		<path class="st82" d="M71.41,21.51l-1.11,0.22c-0.29-0.01-0.52-0.26-0.51-0.55c0.01-0.2,0.13-0.38,0.31-0.46l1.11-0.22
			c0.29,0.01,0.52,0.26,0.51,0.55C71.71,21.25,71.59,21.43,71.41,21.51z M70.99,25.04c0.25,0.16,0.32,0.48,0.16,0.73
			c-0.11,0.17-0.3,0.26-0.5,0.24l-1.07-0.37c-0.25-0.16-0.32-0.48-0.16-0.73c0.11-0.17,0.3-0.27,0.51-0.24L70.99,25.04z M68.8,17.77
			c-0.24,0.17-0.57,0.11-0.74-0.13c-0.11-0.17-0.13-0.38-0.03-0.56l0.76-0.84c0.24-0.17,0.57-0.11,0.74,0.13
			c0.11,0.17,0.13,0.38,0.03,0.56L68.8,17.77z M68.83,24.77c-0.02,0.08-0.05,0.15-0.09,0.22c-0.02,0.04-0.02,0.07-0.04,0.11
			l-0.02-0.01c-0.13,0.16-0.32,0.26-0.52,0.27c-0.41,0.03-0.77-0.28-0.79-0.7c0,0,0,0,0,0c0-0.07,0.01-0.14,0.03-0.2l-0.02-0.01
			c0.01-0.02,0.02-0.04,0.02-0.06c0.01-0.02,0.01-0.04,0.02-0.05c0.98-2.35-0.13-5.05-2.49-6.03c-0.67-0.28-1.39-0.39-2.11-0.34
			c-0.52,0.04-1.03,0.17-1.51,0.38l-0.01-0.02c-0.04,0.01-0.07,0.02-0.11,0.03c-0.4,0.03-0.74-0.27-0.77-0.67c0,0,0,0,0,0
			c-0.01-0.21,0.07-0.41,0.22-0.56l-0.01-0.02c0.03-0.01,0.05-0.03,0.08-0.04c0.07-0.05,0.14-0.09,0.22-0.11
			c0.56-0.26,1.17-0.41,1.78-0.44c3.36-0.21,6.26,2.34,6.48,5.71C69.29,23.09,69.16,23.97,68.83,24.77L68.83,24.77z M64.48,15.96
			c-0.25-0.02-0.44-0.24-0.43-0.5l0.19-1.12c0.11-0.27,0.42-0.4,0.69-0.29c0.19,0.08,0.32,0.26,0.33,0.47l-0.2,1.12
			C64.98,15.89,64.73,16.03,64.48,15.96L64.48,15.96z M59.9,16.5l-0.61-0.96c-0.09-0.28,0.05-0.58,0.33-0.67
			c0.19-0.06,0.4-0.02,0.54,0.12l0.61,0.96c0.11,0.23,0.01,0.51-0.22,0.62C60.35,16.72,60.06,16.69,59.9,16.5L59.9,16.5z
			 M64.55,24.15c3.31,1.12,5.1,4.71,3.98,8.02c-0.73,2.18-2.59,3.79-4.85,4.21h-0.82l-14.62,0.03c-3.82-0.57-6.46-4.12-5.89-7.94
			c0.47-3.16,3.02-5.6,6.2-5.93c2.17-4.24,7.38-5.92,11.62-3.75C62.32,19.88,63.91,21.83,64.55,24.15L64.55,24.15z M56.23,19.21
			c-2.51,0.01-4.84,1.31-6.17,3.44c1.73,0.28,3.26,1.27,4.22,2.73c0.03,0.03,0.05,0.06,0.07,0.1c0.03,0.04,0.06,0.08,0.09,0.12
			h-0.01c0.04,0.09,0.06,0.18,0.06,0.28c0,0.38-0.31,0.69-0.69,0.69c-0.25,0-0.47-0.14-0.59-0.35h-0.01
			c-1.01-1.38-2.59-2.24-4.31-2.33c-3.1,0.2-5.45,2.86-5.25,5.96c0.18,2.85,2.46,5.11,5.31,5.25l0.31,0.02h13.55
			c2.74-0.17,4.82-2.52,4.65-5.26c-0.13-2.13-1.61-3.94-3.68-4.5l-0.39-0.11l-0.09-0.4C62.57,21.54,59.62,19.2,56.23,19.21
			L56.23,19.21z"/>
	</g>
	<g>
		<path class="st2" d="M48.44,40.89c0.55,0.5,0.82,1.14,0.82,1.94c0,0.79-0.3,1.51-0.9,2.16c-0.35,0.37-0.98,0.86-1.9,1.48
			c-1.16,0.78-1.83,1.48-2,2.11h4.81v0.94h-6.11c0-0.85,0.3-1.6,0.91-2.27c0.39-0.45,1.06-0.99,1.99-1.63
			c0.73-0.52,1.21-0.9,1.44-1.14c0.47-0.51,0.71-1.06,0.71-1.64c0-0.56-0.17-0.99-0.5-1.3c-0.33-0.31-0.8-0.46-1.4-0.46
			c-0.64,0-1.13,0.21-1.45,0.64c-0.37,0.42-0.56,1.03-0.56,1.84h-1.05c0-1.02,0.29-1.84,0.86-2.45c0.57-0.62,1.31-0.92,2.25-0.92
			C47.2,40.16,47.89,40.4,48.44,40.89z"/>
		<path class="st2" d="M56.15,40.89c0.55,0.5,0.82,1.14,0.82,1.94c0,0.79-0.3,1.51-0.9,2.16c-0.35,0.37-0.98,0.86-1.9,1.48
			c-1.16,0.78-1.83,1.48-2,2.11h4.81v0.94h-6.11c0-0.85,0.3-1.6,0.91-2.27c0.39-0.45,1.06-0.99,1.99-1.63
			c0.73-0.52,1.21-0.9,1.44-1.14c0.47-0.51,0.71-1.06,0.71-1.64c0-0.56-0.17-0.99-0.5-1.3c-0.33-0.31-0.8-0.46-1.4-0.46
			c-0.64,0-1.13,0.21-1.45,0.64c-0.37,0.42-0.56,1.03-0.56,1.84h-1.05c0-1.02,0.29-1.84,0.86-2.45c0.57-0.62,1.31-0.92,2.25-0.92
			C54.9,40.16,55.6,40.4,56.15,40.89z"/>
		<path class="st2" d="M61.01,39.32c0.32,0.32,0.48,0.69,0.48,1.12c0,0.43-0.16,0.8-0.48,1.12c-0.31,0.31-0.68,0.46-1.12,0.46
			c-0.44,0-0.81-0.15-1.12-0.46c-0.31-0.31-0.46-0.68-0.46-1.12c0-0.44,0.15-0.81,0.46-1.12c0.31-0.32,0.68-0.47,1.12-0.47
			C60.33,38.85,60.7,39,61.01,39.32z M59.2,39.73c-0.2,0.19-0.3,0.42-0.3,0.71c0,0.27,0.1,0.5,0.3,0.69c0.2,0.2,0.43,0.3,0.69,0.3
			c0.26,0,0.49-0.1,0.71-0.3c0.19-0.21,0.28-0.44,0.28-0.69c0-0.27-0.09-0.5-0.28-0.71c-0.2-0.19-0.43-0.28-0.71-0.28
			C59.62,39.45,59.39,39.54,59.2,39.73z"/>
		<path class="st2" d="M69.47,40.96c0.69,0.54,1.1,1.27,1.23,2.18h-1.01c-0.13-0.66-0.45-1.17-0.98-1.54
			c-0.5-0.34-1.1-0.51-1.82-0.51c-1.06,0-1.88,0.37-2.47,1.12c-0.54,0.69-0.81,1.61-0.81,2.75c0,1.16,0.27,2.06,0.8,2.72
			c0.56,0.71,1.38,1.07,2.45,1.07c0.73,0,1.35-0.19,1.86-0.58c0.55-0.42,0.91-1.02,1.09-1.81h1.01c-0.21,1.08-0.68,1.91-1.44,2.49
			c-0.71,0.56-1.55,0.83-2.53,0.83c-1.42,0-2.51-0.47-3.27-1.41c-0.68-0.84-1.03-1.94-1.03-3.31c0-1.37,0.35-2.49,1.05-3.35
			c0.76-0.97,1.86-1.45,3.29-1.45C67.92,40.16,68.78,40.42,69.47,40.96z"/>
	</g>
</g>
</svg>
