<?xml version="1.0" encoding="utf-8"?>
<!-- Generator: Adobe Illustrator 23.0.0, SVG Export Plug-In . SVG Version: 6.00 Build 0)  -->
<svg version="1.1" id="图层_1" xmlns="http://www.w3.org/2000/svg" xmlns:xlink="http://www.w3.org/1999/xlink" x="0px" y="0px"
	 viewBox="0 0 114 65" style="enable-background:new 0 0 114 65;" xml:space="preserve">
<style type="text/css">
	.st0{fill:#4C7EF1;}
	.st1{fill:#29CB97;}
	.st2{fill:#FEC400;}
	.st3{fill:#29C997;}
	.st4{fill:#B35AF1;}
	.st5{fill:#FFFFFF;}
	.st6{fill:#6B6B6B;}
	.st7{fill:#444444;}
	.st8{opacity:0.1;fill:#FFFFFF;}
	.st9{opacity:0.1;}
	.st10{fill:none;stroke:#F24343;stroke-width:14;stroke-miterlimit:10;}
	.st11{fill:none;stroke:#FFFFFF;stroke-width:14;stroke-miterlimit:10;}
	.st12{fill:none;stroke:#4C7EF1;stroke-width:14;stroke-miterlimit:10;}
	.st13{fill:none;stroke:#FEAB05;stroke-width:14;stroke-miterlimit:10;}
	.st14{fill:none;stroke:#29CB97;stroke-width:8;stroke-miterlimit:10;}
	.st15{fill:none;stroke:#29CB97;stroke-width:16;stroke-miterlimit:10;}
	.st16{fill:none;stroke:#FEC400;stroke-width:16;stroke-miterlimit:10;}
	.st17{fill:none;stroke:#FEAB05;stroke-width:16;stroke-miterlimit:10;}
	.st18{fill:none;stroke:#FEC400;stroke-width:8;stroke-miterlimit:10;}
	.st19{fill:none;stroke:#676767;stroke-width:8;stroke-miterlimit:10;}
	.st20{fill:none;stroke:#FEC400;stroke-width:2;stroke-miterlimit:10;}
	.st21{fill:#E6E6E6;}
	.st22{fill:#74D889;}
	.st23{fill:#FFDC70;}
	.st24{fill:#47ABFC;}
	.st25{fill:none;stroke:#FFFFFF;stroke-miterlimit:10;}
	.st26{fill:#4C7EF1;stroke:#0B0C0E;stroke-miterlimit:10;}
	.st27{fill:#FEC400;stroke:#0B0C0E;stroke-miterlimit:10;}
	.st28{fill:none;stroke:#AAA9A9;stroke-miterlimit:10;}
	.st29{fill:none;stroke:#A5A4A4;stroke-width:2;stroke-miterlimit:10;stroke-dasharray:1.0005,4.002;}
	.st30{fill:none;stroke:#4C7EF1;stroke-width:40;stroke-miterlimit:10;}
	.st31{fill:none;stroke:#FEC400;stroke-width:40;stroke-miterlimit:10;}
	.st32{fill:none;stroke:#676767;stroke-width:20;stroke-miterlimit:10;}
	.st33{fill:none;stroke:#FEC400;stroke-width:20;stroke-miterlimit:10;}
	.st34{fill:none;stroke:#29C997;stroke-width:20;stroke-miterlimit:10;}
	.st35{fill:none;stroke:#FFFFFF;stroke-width:20;stroke-miterlimit:10;}
	.st36{fill:none;stroke:#000000;stroke-miterlimit:10;}
	.st37{fill:none;stroke:#FFFFFF;stroke-width:2;stroke-miterlimit:10;stroke-dasharray:3.941,3.941;}
	.st38{opacity:0.5;fill:none;stroke:#FFFFFF;stroke-width:0.4926;stroke-miterlimit:10;stroke-dasharray:3.941,3.941;}
	.st39{fill:none;stroke:#00B091;stroke-width:4;stroke-miterlimit:10;}
	.st40{fill:none;stroke:#EDBF00;stroke-width:4;stroke-miterlimit:10;}
	.st41{fill:#EDBF00;}
	.st42{fill:#00B091;}
	.st43{opacity:0.8;fill:#00B091;}
	.st44{opacity:0.8;fill:#EDBF00;}
	.st45{opacity:0.8;fill:#D85700;}
	.st46{fill:#4C7EF1;stroke:#4C7EF1;stroke-miterlimit:10;}
	.st47{fill:none;stroke:#676767;stroke-width:2;stroke-miterlimit:10;}
	.st48{fill:none;stroke:#FEC400;stroke-width:0.25;stroke-miterlimit:10;}
	.st49{fill:none;stroke:#999999;stroke-width:0.25;stroke-miterlimit:10;}
	.st50{fill:#4C7EF1;stroke:#0B0C0E;stroke-width:0.25;stroke-miterlimit:10;}
	.st51{fill:#FEC400;stroke:#0B0C0E;stroke-width:0.25;stroke-miterlimit:10;}
	.st52{fill:none;stroke:#AAA9A9;stroke-width:0.25;stroke-miterlimit:10;}
	.st53{fill:none;stroke:#A5A4A4;stroke-width:2;stroke-miterlimit:10;stroke-dasharray:0.9678,3.8712;}
	.st54{fill:none;stroke:#4C7EF1;stroke-width:4;stroke-miterlimit:10;}
	.st55{fill:none;stroke:#FEC400;stroke-width:4;stroke-miterlimit:10;}
	.st56{fill:none;stroke:#29C997;stroke-width:2;stroke-miterlimit:10;}
	.st57{fill:none;stroke:#FFFFFF;stroke-width:2;stroke-miterlimit:10;}
	.st58{fill:none;stroke:#000000;stroke-width:0.25;stroke-miterlimit:10;}
	.st59{fill:none;stroke:#FFFFFF;stroke-width:0.25;stroke-miterlimit:10;stroke-dasharray:3.941,3.941;}
	.st60{opacity:0.5;fill:none;stroke:#FFFFFF;stroke-width:0.25;stroke-miterlimit:10;stroke-dasharray:3.941,3.941;}
	.st61{fill:none;stroke:#00B091;stroke-width:0.5;stroke-miterlimit:10;}
	.st62{fill:none;stroke:#EDBF00;stroke-width:0.5;stroke-miterlimit:10;}
	.st63{opacity:0.65;fill:url(#SVGID_1_);}
	.st64{opacity:0.65;fill:url(#SVGID_2_);}
	.st65{opacity:0.65;fill:url(#SVGID_3_);}
	.st66{opacity:0.65;fill:url(#SVGID_4_);}
	.st67{opacity:0.65;fill:url(#SVGID_5_);}
	.st68{opacity:0.65;fill:url(#SVGID_6_);}
	.st69{fill:#292E34;}
	.st70{opacity:0.6;}
	.st71{fill:#334469;}
	.st72{fill:#FEAB05;}
	.st73{opacity:0.4;fill:#0B0C0E;}
	.st74{opacity:0.7;}
	.st75{fill:#F24343;}
	.st76{opacity:0.42;fill:#676767;stroke:#F0F2F8;stroke-miterlimit:10;}
	.st77{fill:none;stroke:#F0F2F8;stroke-width:2;stroke-miterlimit:10;}
	.st78{clip-path:url(#SVGID_8_);}
	.st79{fill:#3B86FF;}
	.st80{opacity:0.36;}
	.st81{fill:#4170ED;}
	.st82{fill:#999999;}
	.st83{opacity:0.15;}
	.st84{clip-path:url(#SVGID_10_);}
	.st85{fill:#1CCC96;}
	.st86{opacity:0.43;}
	.st87{clip-path:url(#SVGID_12_);}
	.st88{fill:#30C3E9;}
	.st89{clip-path:url(#SVGID_14_);}
	.st90{fill:#BCEAEC;}
	.st91{opacity:0.14;}
	.st92{clip-path:url(#SVGID_16_);}
	.st93{fill:#FBC400;}
	.st94{fill:#1F1F1F;}
	.st95{fill:none;stroke:url(#SVGID_17_);stroke-width:0.15;stroke-miterlimit:10;}
	.st96{fill:none;stroke:#00B091;stroke-width:0.15;stroke-miterlimit:10;}
	.st97{fill:none;stroke:url(#SVGID_18_);stroke-width:0.15;stroke-miterlimit:10;}
	.st98{fill:none;stroke:url(#SVGID_19_);stroke-width:0.15;stroke-miterlimit:10;}
	.st99{fill:none;stroke:url(#SVGID_20_);stroke-width:0.15;stroke-miterlimit:10;}
	.st100{fill:none;stroke:url(#SVGID_21_);stroke-width:0.15;stroke-miterlimit:10;}
	.st101{opacity:0.5;fill:#4170ED;}
	.st102{fill:#666666;}
	.st103{fill:none;stroke:#4170ED;stroke-width:0.5;stroke-miterlimit:10;}
	.st104{fill:none;stroke:url(#SVGID_22_);stroke-width:0.5;stroke-miterlimit:10;stroke-dasharray:0.9965,0.9965;}
	.st105{opacity:0.4;}
	.st106{fill:url(#SVGID_23_);stroke:url(#SVGID_24_);stroke-width:0.5;stroke-miterlimit:10;}
	.st107{fill:none;stroke:url(#SVGID_25_);stroke-width:0.5;stroke-miterlimit:10;}
	.st108{fill:url(#SVGID_26_);stroke:url(#SVGID_27_);stroke-width:0.5;stroke-miterlimit:10;}
	.st109{fill:none;stroke:url(#SVGID_28_);stroke-width:0.5;stroke-miterlimit:10;stroke-dasharray:0.9965,0.9965;}
	.st110{fill:url(#SVGID_29_);}
	.st111{fill:none;stroke:url(#SVGID_30_);stroke-width:0.5;stroke-miterlimit:10;stroke-dasharray:0.994,0.994;}
	.st112{fill:none;stroke:url(#SVGID_31_);stroke-width:0.5;stroke-miterlimit:10;}
	.st113{fill:none;stroke:url(#SVGID_32_);stroke-width:0.5;stroke-miterlimit:10;}
	.st114{fill:none;stroke:url(#SVGID_33_);stroke-width:0.5;stroke-miterlimit:10;}
	.st115{fill:url(#SVGID_34_);stroke:url(#SVGID_35_);stroke-width:0.5;stroke-miterlimit:10;}
	.st116{fill:#3885E9;}
	.st117{opacity:0.33;}
	.st118{fill:none;stroke:#999999;stroke-miterlimit:10;}
	.st119{fill:none;stroke:#4170ED;stroke-miterlimit:10;}
	.st120{fill:none;stroke:url(#SVGID_36_);stroke-width:0.5;stroke-miterlimit:10;}
	.st121{fill:url(#SVGID_37_);}
	.st122{opacity:0.3;fill:none;stroke:#4170ED;stroke-miterlimit:10;}
	.st123{opacity:0.87;fill:none;stroke:url(#SVGID_38_);stroke-miterlimit:10;}
	.st124{opacity:0.53;fill:#FFFFFF;}
	.st125{opacity:0.3;fill:none;stroke:#4170ED;stroke-width:0.25;stroke-miterlimit:10;}
	.st126{fill:url(#SVGID_39_);stroke:url(#SVGID_40_);stroke-width:0.25;stroke-miterlimit:10;}
	.st127{fill:url(#SVGID_41_);stroke:url(#SVGID_42_);stroke-width:0.25;stroke-miterlimit:10;}
	.st128{fill:url(#SVGID_43_);stroke:url(#SVGID_44_);stroke-width:0.25;stroke-miterlimit:10;}
	.st129{fill:url(#SVGID_45_);stroke:url(#SVGID_46_);stroke-width:0.25;stroke-miterlimit:10;}
	.st130{clip-path:url(#SVGID_48_);fill:#BFBFBF;}
	.st131{fill:#BFBFBF;}
	.st132{clip-path:url(#SVGID_50_);fill:#BFBFBF;}
	.st133{clip-path:url(#SVGID_52_);fill:#BFBFBF;}
	.st134{clip-path:url(#SVGID_54_);fill:#BFBFBF;}
	.st135{clip-path:url(#SVGID_56_);fill:#BFBFBF;}
	.st136{clip-path:url(#SVGID_58_);fill:#BFBFBF;}
	.st137{fill:none;}
	.st138{fill:#1B3E60;}
	.st139{fill:#31446D;stroke:#4170ED;stroke-width:0.5;stroke-miterlimit:10;}
	.st140{opacity:0.31;fill:#EDBF00;}
	.st141{opacity:0.31;fill:#00B091;}
	.st142{fill:#31446D;stroke:#4C7EF1;stroke-width:0.5;stroke-miterlimit:10;}
	.st143{clip-path:url(#SVGID_60_);fill:#BFBFBF;}
	.st144{clip-path:url(#SVGID_62_);fill:#BFBFBF;}
	.st145{clip-path:url(#SVGID_64_);fill:#BFBFBF;}
	.st146{clip-path:url(#SVGID_66_);fill:#BFBFBF;}
	.st147{clip-path:url(#SVGID_68_);fill:#BFBFBF;}
	.st148{clip-path:url(#SVGID_70_);fill:#BFBFBF;}
	.st149{fill:url(#XMLID_644_);}
	.st150{fill:none;stroke:#4C7EF1;stroke-width:0.25;stroke-miterlimit:10;}
	.st151{opacity:0.5;fill:#4C7EF1;}
	.st152{fill:url(#SVGID_71_);}
	.st153{fill:url(#SVGID_72_);}
	.st154{fill:url(#SVGID_73_);}
	.st155{fill:url(#SVGID_74_);}
	.st156{fill:url(#SVGID_75_);}
	.st157{fill:none;stroke:#F24343;stroke-width:2;stroke-miterlimit:10;}
	.st158{fill:none;stroke:#4C7EF1;stroke-width:2;stroke-miterlimit:10;}
	.st159{fill:none;stroke:#FEAB05;stroke-width:2;stroke-miterlimit:10;}
	.st160{fill:none;stroke:#29CB97;stroke-width:2;stroke-miterlimit:10;}
	.st161{opacity:0.42;fill:#676767;stroke:#F0F2F8;stroke-width:0.5;stroke-miterlimit:10;}
	.st162{fill:none;stroke:#F0F2F8;stroke-miterlimit:10;}
	.st163{clip-path:url(#SVGID_77_);}
	.st164{opacity:0.56;fill:#4C7EF1;}
	.st165{fill:none;stroke:url(#SVGID_78_);stroke-width:0.5;stroke-miterlimit:10;stroke-dasharray:1.0027,1.0027;}
	.st166{fill:none;stroke:url(#SVGID_79_);stroke-width:0.5;stroke-miterlimit:10;}
	.st167{fill:none;stroke:url(#SVGID_80_);stroke-width:0.5;stroke-miterlimit:10;}
	.st168{fill:none;stroke:url(#SVGID_81_);stroke-width:0.5;stroke-miterlimit:10;}
	.st169{opacity:0.14;fill:none;stroke:#4C7EF1;stroke-width:0.25;stroke-miterlimit:10;}
	.st170{fill:#F2F2F2;}
	.st171{fill:none;stroke:#3B86FF;stroke-width:0.25;stroke-miterlimit:10;}
	.st172{fill:#676767;stroke:#3B86FF;stroke-width:0.25;stroke-miterlimit:10;}
	.st173{fill:#606060;stroke:#3B86FF;stroke-width:0.25;stroke-miterlimit:10;}
	.st174{fill:url(#SVGID_82_);stroke:url(#SVGID_83_);stroke-width:0.25;stroke-miterlimit:10;}
	.st175{fill:url(#SVGID_84_);stroke:url(#SVGID_85_);stroke-width:0.25;stroke-miterlimit:10;}
	.st176{fill:url(#SVGID_86_);stroke:url(#SVGID_87_);stroke-width:0.25;stroke-miterlimit:10;}
	.st177{fill:url(#SVGID_88_);stroke:url(#SVGID_89_);stroke-width:0.25;stroke-miterlimit:10;}
	.st178{fill:url(#SVGID_90_);stroke:url(#SVGID_91_);stroke-width:0.25;stroke-miterlimit:10;}
	.st179{opacity:0.46;fill:url(#SVGID_92_);}
	.st180{opacity:0.14;fill:#29CB97;stroke:#4C7EF1;stroke-width:0.25;stroke-miterlimit:10;}
	.st181{opacity:0.35;fill:#999999;}
	.st182{fill:none;stroke:#3B86FF;stroke-width:0.1;stroke-miterlimit:10;}
	.st183{opacity:0.14;fill:#4170ED;stroke:#4C7EF1;stroke-width:0.25;stroke-miterlimit:10;}
</style>
<g>
	<g>
		<g class="st86">
			<path class="st170" d="M30.69,27.02h-0.48l-0.34-0.92h-1.4l-0.32,0.92h-0.48l1.28-3.37h0.47L30.69,27.02z M29.73,25.72l-0.51-1.4
				c-0.02-0.04-0.03-0.12-0.05-0.23h-0.01c-0.02,0.1-0.03,0.18-0.05,0.23l-0.5,1.4H29.73z"/>
			<path class="st170" d="M34.53,28.13H34.1v-1.51h-0.01c-0.17,0.31-0.44,0.46-0.81,0.46c-0.3,0-0.55-0.11-0.73-0.32
				c-0.18-0.21-0.27-0.51-0.27-0.88c0-0.4,0.1-0.72,0.3-0.96c0.2-0.24,0.47-0.36,0.8-0.36c0.32,0,0.56,0.13,0.71,0.38h0.01v-0.33
				h0.43V28.13z M34.1,25.6c0-0.19-0.06-0.35-0.18-0.49c-0.12-0.13-0.28-0.2-0.48-0.2c-0.23,0-0.4,0.08-0.53,0.25
				c-0.13,0.17-0.19,0.4-0.19,0.7c0,0.27,0.06,0.48,0.19,0.63s0.29,0.23,0.49,0.23c0.22,0,0.39-0.08,0.52-0.23s0.19-0.34,0.19-0.57
				V25.6z"/>
			<path class="st170" d="M37.28,27.02h-0.43v-0.38h-0.01c-0.16,0.29-0.41,0.44-0.74,0.44c-0.57,0-0.85-0.34-0.85-1.02v-1.44h0.42
				v1.38c0,0.49,0.19,0.73,0.56,0.73c0.19,0,0.34-0.07,0.45-0.21c0.11-0.14,0.17-0.31,0.17-0.52v-1.39h0.43V27.02z"/>
			<path class="st170" d="M37.98,23.77c0-0.08,0.03-0.14,0.08-0.19c0.05-0.05,0.11-0.08,0.19-0.08c0.08,0,0.14,0.03,0.19,0.08
				c0.05,0.05,0.08,0.12,0.08,0.19c0,0.08-0.03,0.14-0.08,0.19s-0.12,0.08-0.19,0.08c-0.08,0-0.14-0.03-0.19-0.08
				S37.98,23.84,37.98,23.77z M38.03,27.02v-2.41h0.43v2.41H38.03z"/>
			<path class="st170" d="M40.88,26.91c-0.18,0.11-0.41,0.17-0.67,0.17c-0.35,0-0.63-0.11-0.84-0.33c-0.21-0.22-0.32-0.51-0.32-0.87
				c0-0.39,0.11-0.71,0.34-0.95c0.23-0.24,0.53-0.36,0.92-0.36c0.22,0,0.41,0.04,0.57,0.12v0.42c-0.17-0.13-0.36-0.19-0.57-0.19
				c-0.24,0-0.44,0.08-0.59,0.25s-0.23,0.39-0.23,0.67c0,0.28,0.07,0.49,0.22,0.65c0.14,0.16,0.34,0.24,0.58,0.24
				c0.21,0,0.4-0.07,0.59-0.2V26.91z"/>
			<path class="st170" d="M43.5,27.02h-0.58l-1.03-1.16h-0.01v1.16h-0.43v-3.56h0.43v2.26h0.01l0.98-1.1h0.55l-1.09,1.16L43.5,27.02
				z"/>
			<path class="st170" d="M45.63,26.68v0.34H45.2v-3.56h0.43v1.57h0.01c0.19-0.31,0.46-0.47,0.83-0.47c0.3,0,0.54,0.11,0.72,0.32
				c0.18,0.21,0.27,0.5,0.27,0.87c0,0.41-0.1,0.73-0.3,0.97c-0.2,0.24-0.47,0.36-0.8,0.36C46.04,27.08,45.8,26.94,45.63,26.68
				L45.63,26.68z M45.62,26.03c0,0.19,0.06,0.36,0.19,0.49s0.28,0.2,0.47,0.2c0.23,0,0.4-0.09,0.53-0.26
				c0.13-0.17,0.19-0.42,0.19-0.72c0-0.25-0.06-0.46-0.18-0.61c-0.12-0.15-0.28-0.23-0.49-0.23c-0.21,0-0.38,0.08-0.52,0.22
				c-0.14,0.15-0.2,0.34-0.2,0.57V26.03z"/>
			<path class="st170" d="M49.34,25.04c-0.07-0.05-0.17-0.08-0.29-0.08c-0.17,0-0.3,0.08-0.41,0.23s-0.16,0.36-0.16,0.61v1.22h-0.43
				v-2.41h0.43v0.49h0.01c0.12-0.35,0.33-0.53,0.63-0.53c0.1,0,0.17,0.01,0.22,0.03V25.04z"/>
			<path class="st170" d="M49.52,25.84c0-0.4,0.11-0.71,0.33-0.94c0.22-0.23,0.52-0.34,0.9-0.34c0.36,0,0.64,0.11,0.85,0.33
				c0.21,0.22,0.31,0.53,0.31,0.92c0,0.38-0.11,0.69-0.33,0.92s-0.51,0.35-0.88,0.35c-0.36,0-0.65-0.11-0.86-0.34
				C49.63,26.51,49.52,26.21,49.52,25.84z M49.96,25.83c0,0.28,0.07,0.5,0.21,0.65s0.33,0.24,0.56,0.24c0.24,0,0.43-0.08,0.56-0.23
				c0.13-0.16,0.19-0.38,0.19-0.67c0-0.29-0.06-0.52-0.19-0.67c-0.13-0.16-0.31-0.24-0.56-0.24c-0.24,0-0.43,0.08-0.57,0.25
				S49.96,25.54,49.96,25.83z"/>
			<path class="st170" d="M55.6,24.61l-0.72,2.41h-0.44l-0.48-1.69c-0.02-0.07-0.03-0.15-0.04-0.23h-0.01
				c0,0.06-0.02,0.14-0.05,0.23l-0.52,1.69h-0.43l-0.72-2.41h0.44l0.48,1.78c0.01,0.05,0.03,0.13,0.03,0.22h0.02
				c0.01-0.08,0.02-0.16,0.04-0.23l0.52-1.78h0.39l0.5,1.79c0.01,0.05,0.03,0.13,0.03,0.22h0.02c0-0.06,0.02-0.14,0.04-0.22
				l0.47-1.79H55.6z"/>
			<path class="st170" d="M58.07,27.02h-0.42v-1.37c0-0.5-0.18-0.74-0.54-0.74c-0.19,0-0.34,0.07-0.46,0.21
				c-0.12,0.14-0.18,0.32-0.18,0.53v1.37h-0.43v-2.41h0.43v0.4h0.01c0.18-0.3,0.44-0.46,0.79-0.46c0.26,0,0.46,0.08,0.6,0.25
				s0.21,0.42,0.21,0.74V27.02z"/>
			<path class="st170" d="M61.33,23.82c-0.08-0.04-0.17-0.06-0.26-0.06c-0.27,0-0.4,0.17-0.4,0.5v0.36h0.56v0.35h-0.56v2.05h-0.42
				v-2.05h-0.41v-0.35h0.41v-0.38c0-0.26,0.07-0.46,0.22-0.61s0.34-0.22,0.57-0.22c0.12,0,0.22,0.01,0.29,0.04V23.82z"/>
			<path class="st170" d="M61.48,25.84c0-0.4,0.11-0.71,0.33-0.94c0.22-0.23,0.52-0.34,0.9-0.34c0.36,0,0.64,0.11,0.85,0.33
				c0.21,0.22,0.31,0.53,0.31,0.92c0,0.38-0.11,0.69-0.33,0.92s-0.51,0.35-0.88,0.35c-0.36,0-0.65-0.11-0.86-0.34
				C61.59,26.51,61.48,26.21,61.48,25.84z M61.92,25.83c0,0.28,0.07,0.5,0.21,0.65s0.33,0.24,0.56,0.24c0.24,0,0.43-0.08,0.56-0.23
				c0.13-0.16,0.19-0.38,0.19-0.67c0-0.29-0.06-0.52-0.19-0.67c-0.13-0.16-0.31-0.24-0.56-0.24c-0.24,0-0.43,0.08-0.57,0.25
				S61.92,25.54,61.92,25.83z"/>
			<path class="st170" d="M66.24,24.61l-0.8,1.21l0.79,1.19h-0.5l-0.46-0.77c-0.02-0.04-0.06-0.1-0.1-0.19h-0.01
				c0,0.01-0.04,0.07-0.11,0.19l-0.47,0.77h-0.49l0.82-1.18l-0.78-1.22h0.5l0.45,0.8c0.03,0.05,0.06,0.11,0.1,0.19h0.01l0.59-1
				H66.24z"/>
			<path class="st170" d="M68.42,26.93c0,0.39-0.08,0.69-0.24,0.91c-0.16,0.21-0.39,0.32-0.69,0.32c-0.11,0-0.22-0.03-0.32-0.08
				v-0.39c0.11,0.07,0.22,0.1,0.32,0.1c0.34,0,0.51-0.27,0.51-0.81v-2.38h0.43V26.93z M67.94,23.77c0-0.08,0.03-0.14,0.08-0.19
				c0.05-0.05,0.11-0.08,0.19-0.08c0.08,0,0.14,0.03,0.2,0.08c0.05,0.05,0.08,0.12,0.08,0.19c0,0.07-0.03,0.14-0.08,0.19
				s-0.12,0.08-0.19,0.08s-0.14-0.03-0.19-0.08S67.94,23.84,67.94,23.77z"/>
			<path class="st170" d="M71.17,27.02h-0.43v-0.38h-0.01c-0.16,0.29-0.41,0.44-0.74,0.44c-0.57,0-0.85-0.34-0.85-1.02v-1.44h0.42
				v1.38c0,0.49,0.19,0.73,0.56,0.73c0.19,0,0.34-0.07,0.45-0.21c0.11-0.14,0.17-0.31,0.17-0.52v-1.39h0.43V27.02z"/>
			<path class="st170" d="M75.39,27.02h-0.43v-1.38c0-0.26-0.04-0.45-0.12-0.56c-0.08-0.11-0.21-0.17-0.4-0.17
				c-0.16,0-0.29,0.07-0.4,0.22c-0.11,0.15-0.17,0.32-0.17,0.52v1.37h-0.43V25.6c0-0.46-0.18-0.69-0.53-0.69
				c-0.16,0-0.3,0.07-0.4,0.21c-0.11,0.14-0.16,0.32-0.16,0.53v1.37h-0.43v-2.41h0.43v0.38h0.01c0.17-0.29,0.42-0.44,0.75-0.44
				c0.16,0,0.3,0.04,0.43,0.13c0.12,0.09,0.21,0.21,0.26,0.36c0.18-0.33,0.45-0.49,0.8-0.49c0.53,0,0.79,0.33,0.79,0.98V27.02z"/>
			<path class="st170" d="M76.53,26.68v1.45H76.1v-3.51h0.43v0.42h0.01c0.19-0.31,0.46-0.47,0.83-0.47c0.31,0,0.55,0.11,0.72,0.32
				c0.17,0.22,0.26,0.5,0.26,0.87c0,0.4-0.1,0.72-0.3,0.96c-0.2,0.24-0.46,0.36-0.8,0.36C76.94,27.08,76.7,26.94,76.53,26.68
				L76.53,26.68z M76.53,26.03c0,0.2,0.06,0.36,0.19,0.5s0.28,0.2,0.47,0.2c0.23,0,0.4-0.09,0.53-0.26
				c0.13-0.17,0.19-0.42,0.19-0.72c0-0.26-0.06-0.46-0.18-0.61c-0.12-0.15-0.28-0.22-0.49-0.22c-0.21,0-0.38,0.08-0.52,0.22
				c-0.14,0.15-0.2,0.34-0.2,0.57V26.03z"/>
			<path class="st170" d="M78.81,26.5c0.21,0.16,0.45,0.23,0.69,0.23c0.33,0,0.5-0.11,0.5-0.33c0-0.09-0.04-0.17-0.11-0.23
				c-0.07-0.06-0.22-0.13-0.44-0.21c-0.27-0.11-0.44-0.21-0.52-0.32c-0.08-0.11-0.12-0.23-0.12-0.38c0-0.21,0.09-0.38,0.27-0.51
				c0.18-0.13,0.4-0.19,0.67-0.19c0.2,0,0.39,0.04,0.57,0.11v0.41c-0.18-0.12-0.38-0.17-0.61-0.17c-0.14,0-0.25,0.03-0.33,0.09
				c-0.09,0.06-0.13,0.14-0.13,0.23c0,0.1,0.03,0.17,0.09,0.22c0.06,0.05,0.2,0.12,0.41,0.21c0.27,0.1,0.45,0.2,0.54,0.31
				s0.14,0.24,0.14,0.4c0,0.22-0.09,0.39-0.27,0.52c-0.18,0.13-0.41,0.19-0.7,0.19c-0.25,0-0.47-0.05-0.65-0.14V26.5z"/>
			<path class="st170" d="M82.17,25.84c0-0.4,0.11-0.71,0.33-0.94c0.22-0.23,0.52-0.34,0.9-0.34c0.36,0,0.64,0.11,0.85,0.33
				c0.21,0.22,0.31,0.53,0.31,0.92c0,0.38-0.11,0.69-0.33,0.92s-0.51,0.35-0.88,0.35c-0.36,0-0.65-0.11-0.86-0.34
				C82.27,26.51,82.17,26.21,82.17,25.84z M82.6,25.83c0,0.28,0.07,0.5,0.21,0.65s0.33,0.24,0.56,0.24c0.24,0,0.43-0.08,0.56-0.23
				c0.13-0.16,0.19-0.38,0.19-0.67c0-0.29-0.06-0.52-0.19-0.67c-0.13-0.16-0.31-0.24-0.56-0.24c-0.24,0-0.43,0.08-0.57,0.25
				S82.6,25.54,82.6,25.83z"/>
			<path class="st170" d="M87.1,24.61l-0.95,2.41h-0.43l-0.9-2.41h0.47l0.59,1.72c0.05,0.14,0.08,0.25,0.08,0.35h0.01
				c0.01-0.12,0.04-0.23,0.08-0.34l0.62-1.73H87.1z"/>
			<path class="st170" d="M89.43,25.93h-1.68c0.01,0.26,0.08,0.45,0.21,0.59c0.13,0.14,0.32,0.21,0.56,0.21
				c0.27,0,0.52-0.09,0.74-0.26v0.38c-0.21,0.15-0.49,0.22-0.84,0.22c-0.35,0-0.62-0.11-0.81-0.33c-0.2-0.22-0.29-0.53-0.29-0.92
				c0-0.37,0.11-0.67,0.32-0.91s0.48-0.36,0.8-0.36c0.31,0,0.56,0.1,0.74,0.3c0.18,0.2,0.27,0.49,0.27,0.85V25.93z M89,25.58
				c0-0.22-0.05-0.39-0.15-0.5c-0.1-0.12-0.24-0.18-0.43-0.18c-0.17,0-0.32,0.06-0.44,0.19s-0.2,0.29-0.23,0.49H89z"/>
			<path class="st170" d="M91.29,25.04c-0.07-0.05-0.17-0.08-0.29-0.08c-0.17,0-0.3,0.08-0.41,0.23s-0.16,0.36-0.16,0.61v1.22H90
				v-2.41h0.43v0.49h0.01c0.12-0.35,0.33-0.53,0.63-0.53c0.1,0,0.17,0.01,0.22,0.03V25.04z"/>
		</g>
		<g>
			<path class="st2" d="M22.6,27.02v-2.88c-0.07,0.07-0.18,0.14-0.34,0.22c-0.16,0.08-0.31,0.14-0.44,0.17v-0.42
				c0.18-0.05,0.37-0.13,0.57-0.24c0.2-0.11,0.36-0.21,0.47-0.31h0.16v3.44H22.6z"/>
		</g>
	</g>
	<g>
		<g class="st86">
			<path class="st170" d="M30.69,37.6h-0.48l-0.34-0.92h-1.4l-0.32,0.92h-0.48l1.28-3.37h0.47L30.69,37.6z M29.73,36.3l-0.51-1.4
				c-0.02-0.04-0.03-0.12-0.05-0.23h-0.01c-0.02,0.1-0.03,0.18-0.05,0.23l-0.5,1.4H29.73z"/>
			<path class="st170" d="M34.53,38.71H34.1v-1.51h-0.01c-0.17,0.31-0.44,0.46-0.81,0.46c-0.3,0-0.55-0.11-0.73-0.32
				c-0.18-0.21-0.27-0.51-0.27-0.88c0-0.4,0.1-0.72,0.3-0.96c0.2-0.24,0.47-0.36,0.8-0.36c0.32,0,0.56,0.13,0.71,0.38h0.01v-0.33
				h0.43V38.71z M34.1,36.18c0-0.19-0.06-0.35-0.18-0.49c-0.12-0.13-0.28-0.2-0.48-0.2c-0.23,0-0.4,0.08-0.53,0.25
				c-0.13,0.17-0.19,0.4-0.19,0.7c0,0.27,0.06,0.48,0.19,0.63s0.29,0.23,0.49,0.23c0.22,0,0.39-0.08,0.52-0.23s0.19-0.34,0.19-0.57
				V36.18z"/>
			<path class="st170" d="M37.28,37.6h-0.43v-0.38h-0.01c-0.16,0.29-0.41,0.44-0.74,0.44c-0.57,0-0.85-0.34-0.85-1.02v-1.44h0.42
				v1.38c0,0.49,0.19,0.73,0.56,0.73c0.19,0,0.34-0.07,0.45-0.21c0.11-0.14,0.17-0.31,0.17-0.52v-1.39h0.43V37.6z"/>
			<path class="st170" d="M37.98,34.34c0-0.08,0.03-0.14,0.08-0.19c0.05-0.05,0.11-0.08,0.19-0.08c0.08,0,0.14,0.03,0.19,0.08
				c0.05,0.05,0.08,0.12,0.08,0.19c0,0.08-0.03,0.14-0.08,0.19s-0.12,0.08-0.19,0.08c-0.08,0-0.14-0.03-0.19-0.08
				S37.98,34.42,37.98,34.34z M38.03,37.6v-2.41h0.43v2.41H38.03z"/>
			<path class="st170" d="M40.88,37.49c-0.18,0.11-0.41,0.17-0.67,0.17c-0.35,0-0.63-0.11-0.84-0.33c-0.21-0.22-0.32-0.51-0.32-0.87
				c0-0.39,0.11-0.71,0.34-0.95c0.23-0.24,0.53-0.36,0.92-0.36c0.22,0,0.41,0.04,0.57,0.12v0.42c-0.17-0.13-0.36-0.19-0.57-0.19
				c-0.24,0-0.44,0.08-0.59,0.25s-0.23,0.39-0.23,0.67c0,0.28,0.07,0.49,0.22,0.65c0.14,0.16,0.34,0.24,0.58,0.24
				c0.21,0,0.4-0.07,0.59-0.2V37.49z"/>
			<path class="st170" d="M43.5,37.6h-0.58l-1.03-1.16h-0.01v1.16h-0.43v-3.56h0.43v2.26h0.01l0.98-1.1h0.55l-1.09,1.16L43.5,37.6z"
				/>
			<path class="st170" d="M45.63,37.26v0.34H45.2v-3.56h0.43v1.57h0.01c0.19-0.31,0.46-0.47,0.83-0.47c0.3,0,0.54,0.11,0.72,0.32
				c0.18,0.21,0.27,0.5,0.27,0.87c0,0.41-0.1,0.73-0.3,0.97c-0.2,0.24-0.47,0.36-0.8,0.36C46.04,37.65,45.8,37.52,45.63,37.26
				L45.63,37.26z M45.62,36.61c0,0.19,0.06,0.36,0.19,0.49s0.28,0.2,0.47,0.2c0.23,0,0.4-0.09,0.53-0.26
				c0.13-0.17,0.19-0.42,0.19-0.72c0-0.25-0.06-0.46-0.18-0.61c-0.12-0.15-0.28-0.23-0.49-0.23c-0.21,0-0.38,0.08-0.52,0.22
				c-0.14,0.15-0.2,0.34-0.2,0.57V36.61z"/>
			<path class="st170" d="M49.34,35.61c-0.07-0.05-0.17-0.08-0.29-0.08c-0.17,0-0.3,0.08-0.41,0.23s-0.16,0.36-0.16,0.61v1.22h-0.43
				v-2.41h0.43v0.49h0.01c0.12-0.35,0.33-0.53,0.63-0.53c0.1,0,0.17,0.01,0.22,0.03V35.61z"/>
			<path class="st170" d="M49.52,36.42c0-0.4,0.11-0.71,0.33-0.94c0.22-0.23,0.52-0.34,0.9-0.34c0.36,0,0.64,0.11,0.85,0.33
				c0.21,0.22,0.31,0.53,0.31,0.92c0,0.38-0.11,0.69-0.33,0.92s-0.51,0.35-0.88,0.35c-0.36,0-0.65-0.11-0.86-0.34
				C49.63,37.09,49.52,36.79,49.52,36.42z M49.96,36.41c0,0.28,0.07,0.5,0.21,0.65s0.33,0.24,0.56,0.24c0.24,0,0.43-0.08,0.56-0.23
				c0.13-0.16,0.19-0.38,0.19-0.67c0-0.29-0.06-0.52-0.19-0.67c-0.13-0.16-0.31-0.24-0.56-0.24c-0.24,0-0.43,0.08-0.57,0.25
				S49.96,36.12,49.96,36.41z"/>
			<path class="st170" d="M55.6,35.19l-0.72,2.41h-0.44l-0.48-1.69c-0.02-0.07-0.03-0.15-0.04-0.23h-0.01
				c0,0.06-0.02,0.14-0.05,0.23l-0.52,1.69h-0.43l-0.72-2.41h0.44l0.48,1.78c0.01,0.05,0.03,0.13,0.03,0.22h0.02
				c0.01-0.08,0.02-0.16,0.04-0.23l0.52-1.78h0.39l0.5,1.79c0.01,0.05,0.03,0.13,0.03,0.22h0.02c0-0.06,0.02-0.14,0.04-0.22
				l0.47-1.79H55.6z"/>
			<path class="st170" d="M58.07,37.6h-0.42v-1.37c0-0.5-0.18-0.74-0.54-0.74c-0.19,0-0.34,0.07-0.46,0.21
				c-0.12,0.14-0.18,0.32-0.18,0.53v1.37h-0.43v-2.41h0.43v0.4h0.01c0.18-0.3,0.44-0.46,0.79-0.46c0.26,0,0.46,0.08,0.6,0.25
				s0.21,0.42,0.21,0.74V37.6z"/>
			<path class="st170" d="M61.33,34.4c-0.08-0.04-0.17-0.06-0.26-0.06c-0.27,0-0.4,0.17-0.4,0.5v0.36h0.56v0.35h-0.56v2.05h-0.42
				v-2.05h-0.41v-0.35h0.41v-0.38c0-0.26,0.07-0.46,0.22-0.61s0.34-0.22,0.57-0.22c0.12,0,0.22,0.01,0.29,0.04V34.4z"/>
			<path class="st170" d="M61.48,36.42c0-0.4,0.11-0.71,0.33-0.94c0.22-0.23,0.52-0.34,0.9-0.34c0.36,0,0.64,0.11,0.85,0.33
				c0.21,0.22,0.31,0.53,0.31,0.92c0,0.38-0.11,0.69-0.33,0.92s-0.51,0.35-0.88,0.35c-0.36,0-0.65-0.11-0.86-0.34
				C61.59,37.09,61.48,36.79,61.48,36.42z M61.92,36.41c0,0.28,0.07,0.5,0.21,0.65s0.33,0.24,0.56,0.24c0.24,0,0.43-0.08,0.56-0.23
				c0.13-0.16,0.19-0.38,0.19-0.67c0-0.29-0.06-0.52-0.19-0.67c-0.13-0.16-0.31-0.24-0.56-0.24c-0.24,0-0.43,0.08-0.57,0.25
				S61.92,36.12,61.92,36.41z"/>
			<path class="st170" d="M66.24,35.19l-0.8,1.21l0.79,1.19h-0.5l-0.46-0.77c-0.02-0.04-0.06-0.1-0.1-0.19h-0.01
				c0,0.01-0.04,0.07-0.11,0.19l-0.47,0.77h-0.49l0.82-1.18l-0.78-1.22h0.5l0.45,0.8c0.03,0.05,0.06,0.11,0.1,0.19h0.01l0.59-1
				H66.24z"/>
			<path class="st170" d="M68.42,37.5c0,0.39-0.08,0.69-0.24,0.91c-0.16,0.21-0.39,0.32-0.69,0.32c-0.11,0-0.22-0.03-0.32-0.08
				v-0.39c0.11,0.07,0.22,0.1,0.32,0.1c0.34,0,0.51-0.27,0.51-0.81v-2.38h0.43V37.5z M67.94,34.34c0-0.08,0.03-0.14,0.08-0.19
				c0.05-0.05,0.11-0.08,0.19-0.08c0.08,0,0.14,0.03,0.2,0.08c0.05,0.05,0.08,0.12,0.08,0.19c0,0.07-0.03,0.14-0.08,0.19
				s-0.12,0.08-0.19,0.08s-0.14-0.03-0.19-0.08S67.94,34.42,67.94,34.34z"/>
			<path class="st170" d="M71.17,37.6h-0.43v-0.38h-0.01c-0.16,0.29-0.41,0.44-0.74,0.44c-0.57,0-0.85-0.34-0.85-1.02v-1.44h0.42
				v1.38c0,0.49,0.19,0.73,0.56,0.73c0.19,0,0.34-0.07,0.45-0.21c0.11-0.14,0.17-0.31,0.17-0.52v-1.39h0.43V37.6z"/>
			<path class="st170" d="M75.39,37.6h-0.43v-1.38c0-0.26-0.04-0.45-0.12-0.56c-0.08-0.11-0.21-0.17-0.4-0.17
				c-0.16,0-0.29,0.07-0.4,0.22c-0.11,0.15-0.17,0.32-0.17,0.52v1.37h-0.43v-1.42c0-0.46-0.18-0.69-0.53-0.69
				c-0.16,0-0.3,0.07-0.4,0.21c-0.11,0.14-0.16,0.32-0.16,0.53v1.37h-0.43v-2.41h0.43v0.38h0.01c0.17-0.29,0.42-0.44,0.75-0.44
				c0.16,0,0.3,0.04,0.43,0.13c0.12,0.09,0.21,0.21,0.26,0.36c0.18-0.33,0.45-0.49,0.8-0.49c0.53,0,0.79,0.33,0.79,0.98V37.6z"/>
			<path class="st170" d="M76.53,37.26v1.45H76.1v-3.51h0.43v0.42h0.01c0.19-0.31,0.46-0.47,0.83-0.47c0.31,0,0.55,0.11,0.72,0.32
				c0.17,0.22,0.26,0.5,0.26,0.87c0,0.4-0.1,0.72-0.3,0.96c-0.2,0.24-0.46,0.36-0.8,0.36C76.94,37.65,76.7,37.52,76.53,37.26
				L76.53,37.26z M76.53,36.61c0,0.2,0.06,0.36,0.19,0.5s0.28,0.2,0.47,0.2c0.23,0,0.4-0.09,0.53-0.26
				c0.13-0.17,0.19-0.42,0.19-0.72c0-0.26-0.06-0.46-0.18-0.61c-0.12-0.15-0.28-0.22-0.49-0.22c-0.21,0-0.38,0.08-0.52,0.22
				c-0.14,0.15-0.2,0.34-0.2,0.57V36.61z"/>
			<path class="st170" d="M78.81,37.08c0.21,0.16,0.45,0.23,0.69,0.23c0.33,0,0.5-0.11,0.5-0.33c0-0.09-0.04-0.17-0.11-0.23
				c-0.07-0.06-0.22-0.13-0.44-0.21c-0.27-0.11-0.44-0.21-0.52-0.32c-0.08-0.11-0.12-0.23-0.12-0.38c0-0.21,0.09-0.38,0.27-0.51
				c0.18-0.13,0.4-0.19,0.67-0.19c0.2,0,0.39,0.04,0.57,0.11v0.41c-0.18-0.12-0.38-0.17-0.61-0.17c-0.14,0-0.25,0.03-0.33,0.09
				c-0.09,0.06-0.13,0.14-0.13,0.23c0,0.1,0.03,0.17,0.09,0.22c0.06,0.05,0.2,0.12,0.41,0.21c0.27,0.1,0.45,0.2,0.54,0.31
				s0.14,0.24,0.14,0.4c0,0.22-0.09,0.39-0.27,0.52c-0.18,0.13-0.41,0.19-0.7,0.19c-0.25,0-0.47-0.05-0.65-0.14V37.08z"/>
			<path class="st170" d="M82.17,36.42c0-0.4,0.11-0.71,0.33-0.94c0.22-0.23,0.52-0.34,0.9-0.34c0.36,0,0.64,0.11,0.85,0.33
				c0.21,0.22,0.31,0.53,0.31,0.92c0,0.38-0.11,0.69-0.33,0.92s-0.51,0.35-0.88,0.35c-0.36,0-0.65-0.11-0.86-0.34
				C82.27,37.09,82.17,36.79,82.17,36.42z M82.6,36.41c0,0.28,0.07,0.5,0.21,0.65s0.33,0.24,0.56,0.24c0.24,0,0.43-0.08,0.56-0.23
				c0.13-0.16,0.19-0.38,0.19-0.67c0-0.29-0.06-0.52-0.19-0.67c-0.13-0.16-0.31-0.24-0.56-0.24c-0.24,0-0.43,0.08-0.57,0.25
				S82.6,36.12,82.6,36.41z"/>
			<path class="st170" d="M87.1,35.19l-0.95,2.41h-0.43l-0.9-2.41h0.47l0.59,1.72c0.05,0.14,0.08,0.25,0.08,0.35h0.01
				c0.01-0.12,0.04-0.23,0.08-0.34l0.62-1.73H87.1z"/>
			<path class="st170" d="M89.43,36.5h-1.68c0.01,0.26,0.08,0.45,0.21,0.59c0.13,0.14,0.32,0.21,0.56,0.21
				c0.27,0,0.52-0.09,0.74-0.26v0.38c-0.21,0.15-0.49,0.22-0.84,0.22c-0.35,0-0.62-0.11-0.81-0.33c-0.2-0.22-0.29-0.53-0.29-0.92
				c0-0.37,0.11-0.67,0.32-0.91s0.48-0.36,0.8-0.36c0.31,0,0.56,0.1,0.74,0.3c0.18,0.2,0.27,0.49,0.27,0.85V36.5z M89,36.16
				c0-0.22-0.05-0.39-0.15-0.5c-0.1-0.12-0.24-0.18-0.43-0.18c-0.17,0-0.32,0.06-0.44,0.19s-0.2,0.29-0.23,0.49H89z"/>
			<path class="st170" d="M91.29,35.61c-0.07-0.05-0.17-0.08-0.29-0.08c-0.17,0-0.3,0.08-0.41,0.23s-0.16,0.36-0.16,0.61v1.22H90
				v-2.41h0.43v0.49h0.01c0.12-0.35,0.33-0.53,0.63-0.53c0.1,0,0.17,0.01,0.22,0.03V35.61z"/>
		</g>
		<g>
			<path class="st2" d="M23.22,35.11c0-0.18-0.06-0.32-0.17-0.43c-0.11-0.1-0.27-0.16-0.47-0.16c-0.14,0-0.28,0.04-0.42,0.11
				s-0.27,0.17-0.4,0.3v-0.41c0.11-0.12,0.24-0.2,0.38-0.26c0.14-0.06,0.3-0.09,0.49-0.09c0.3,0,0.55,0.08,0.74,0.24
				c0.19,0.16,0.28,0.38,0.28,0.66c0,0.25-0.06,0.46-0.17,0.64c-0.11,0.18-0.31,0.37-0.58,0.56c-0.28,0.19-0.47,0.33-0.56,0.42
				s-0.16,0.16-0.2,0.24c-0.04,0.08-0.06,0.17-0.06,0.28h1.68v0.38h-2.12v-0.17c0-0.19,0.03-0.36,0.08-0.49
				c0.05-0.14,0.14-0.27,0.26-0.4c0.12-0.13,0.31-0.28,0.57-0.46c0.26-0.19,0.44-0.35,0.54-0.49S23.22,35.29,23.22,35.11z"/>
		</g>
	</g>
</g>
</svg>
