<?xml version="1.0" encoding="utf-8"?>
<!-- Generator: Adobe Illustrator 23.0.0, SVG Export Plug-In . SVG Version: 6.00 Build 0)  -->
<svg version="1.1" id="图层_1" xmlns="http://www.w3.org/2000/svg" xmlns:xlink="http://www.w3.org/1999/xlink" x="0px" y="0px"
	 viewBox="0 0 114 65" style="enable-background:new 0 0 114 65;" xml:space="preserve">
<style type="text/css">
	.st0{fill:#4C7EF1;}
	.st1{fill:#29CB97;}
	.st2{fill:#FEC400;}
	.st3{fill:#29C997;}
	.st4{fill:#B35AF1;}
	.st5{fill:#FFFFFF;}
	.st6{fill:#6B6B6B;}
	.st7{fill:#444444;}
	.st8{opacity:0.1;fill:#FFFFFF;}
	.st9{opacity:0.1;}
	.st10{fill:none;stroke:#F24343;stroke-width:14;stroke-miterlimit:10;}
	.st11{fill:none;stroke:#FFFFFF;stroke-width:14;stroke-miterlimit:10;}
	.st12{fill:none;stroke:#4C7EF1;stroke-width:14;stroke-miterlimit:10;}
	.st13{fill:none;stroke:#FEAB05;stroke-width:14;stroke-miterlimit:10;}
	.st14{fill:none;stroke:#29CB97;stroke-width:8;stroke-miterlimit:10;}
	.st15{fill:none;stroke:#29CB97;stroke-width:16;stroke-miterlimit:10;}
	.st16{fill:none;stroke:#FEC400;stroke-width:16;stroke-miterlimit:10;}
	.st17{fill:none;stroke:#FEAB05;stroke-width:16;stroke-miterlimit:10;}
	.st18{fill:none;stroke:#FEC400;stroke-width:8;stroke-miterlimit:10;}
	.st19{fill:none;stroke:#676767;stroke-width:8;stroke-miterlimit:10;}
	.st20{fill:none;stroke:#FEC400;stroke-width:2;stroke-miterlimit:10;}
	.st21{fill:#E6E6E6;}
	.st22{fill:#74D889;}
	.st23{fill:#FFDC70;}
	.st24{fill:#47ABFC;}
	.st25{fill:none;stroke:#FFFFFF;stroke-miterlimit:10;}
	.st26{fill:#4C7EF1;stroke:#0B0C0E;stroke-miterlimit:10;}
	.st27{fill:#FEC400;stroke:#0B0C0E;stroke-miterlimit:10;}
	.st28{fill:none;stroke:#AAA9A9;stroke-miterlimit:10;}
	.st29{fill:none;stroke:#A5A4A4;stroke-width:2;stroke-miterlimit:10;stroke-dasharray:1.0005,4.002;}
	.st30{fill:none;stroke:#4C7EF1;stroke-width:40;stroke-miterlimit:10;}
	.st31{fill:none;stroke:#FEC400;stroke-width:40;stroke-miterlimit:10;}
	.st32{fill:none;stroke:#676767;stroke-width:20;stroke-miterlimit:10;}
	.st33{fill:none;stroke:#FEC400;stroke-width:20;stroke-miterlimit:10;}
	.st34{fill:none;stroke:#29C997;stroke-width:20;stroke-miterlimit:10;}
	.st35{fill:none;stroke:#FFFFFF;stroke-width:20;stroke-miterlimit:10;}
	.st36{fill:none;stroke:#000000;stroke-miterlimit:10;}
	.st37{fill:none;stroke:#FFFFFF;stroke-width:2;stroke-miterlimit:10;stroke-dasharray:3.941,3.941;}
	.st38{opacity:0.5;fill:none;stroke:#FFFFFF;stroke-width:0.4926;stroke-miterlimit:10;stroke-dasharray:3.941,3.941;}
	.st39{fill:none;stroke:#00B091;stroke-width:4;stroke-miterlimit:10;}
	.st40{fill:none;stroke:#EDBF00;stroke-width:4;stroke-miterlimit:10;}
	.st41{fill:#EDBF00;}
	.st42{fill:#00B091;}
	.st43{opacity:0.8;fill:#00B091;}
	.st44{opacity:0.8;fill:#EDBF00;}
	.st45{opacity:0.8;fill:#D85700;}
	.st46{fill:#4C7EF1;stroke:#4C7EF1;stroke-miterlimit:10;}
	.st47{fill:none;stroke:#676767;stroke-width:2;stroke-miterlimit:10;}
	.st48{fill:none;stroke:#FEC400;stroke-width:0.25;stroke-miterlimit:10;}
	.st49{fill:none;stroke:#999999;stroke-width:0.25;stroke-miterlimit:10;}
	.st50{fill:#4C7EF1;stroke:#0B0C0E;stroke-width:0.25;stroke-miterlimit:10;}
	.st51{fill:#FEC400;stroke:#0B0C0E;stroke-width:0.25;stroke-miterlimit:10;}
	.st52{fill:none;stroke:#AAA9A9;stroke-width:0.25;stroke-miterlimit:10;}
	.st53{fill:none;stroke:#A5A4A4;stroke-width:2;stroke-miterlimit:10;stroke-dasharray:0.9678,3.8712;}
	.st54{fill:none;stroke:#4C7EF1;stroke-width:4;stroke-miterlimit:10;}
	.st55{fill:none;stroke:#FEC400;stroke-width:4;stroke-miterlimit:10;}
	.st56{fill:none;stroke:#29C997;stroke-width:2;stroke-miterlimit:10;}
	.st57{fill:none;stroke:#FFFFFF;stroke-width:2;stroke-miterlimit:10;}
	.st58{fill:none;stroke:#000000;stroke-width:0.25;stroke-miterlimit:10;}
	.st59{fill:none;stroke:#FFFFFF;stroke-width:0.25;stroke-miterlimit:10;stroke-dasharray:3.941,3.941;}
	.st60{opacity:0.5;fill:none;stroke:#FFFFFF;stroke-width:0.25;stroke-miterlimit:10;stroke-dasharray:3.941,3.941;}
	.st61{fill:none;stroke:#00B091;stroke-width:0.5;stroke-miterlimit:10;}
	.st62{fill:none;stroke:#EDBF00;stroke-width:0.5;stroke-miterlimit:10;}
	.st63{opacity:0.65;fill:url(#SVGID_1_);}
	.st64{opacity:0.65;fill:url(#SVGID_2_);}
	.st65{opacity:0.65;fill:url(#SVGID_3_);}
	.st66{opacity:0.65;fill:url(#SVGID_4_);}
	.st67{opacity:0.65;fill:url(#SVGID_5_);}
	.st68{opacity:0.65;fill:url(#SVGID_6_);}
	.st69{fill:#292E34;}
	.st70{opacity:0.6;}
	.st71{fill:#334469;}
	.st72{fill:#FEAB05;}
	.st73{opacity:0.4;fill:#0B0C0E;}
	.st74{opacity:0.7;}
	.st75{fill:#F24343;}
	.st76{opacity:0.42;fill:#676767;stroke:#F0F2F8;stroke-miterlimit:10;}
	.st77{fill:none;stroke:#F0F2F8;stroke-width:2;stroke-miterlimit:10;}
	.st78{clip-path:url(#SVGID_8_);}
	.st79{fill:#3B86FF;}
	.st80{opacity:0.36;}
	.st81{fill:#4170ED;}
	.st82{fill:#999999;}
	.st83{opacity:0.15;}
	.st84{clip-path:url(#SVGID_10_);}
	.st85{fill:#1CCC96;}
	.st86{opacity:0.43;}
	.st87{clip-path:url(#SVGID_12_);}
	.st88{fill:#30C3E9;}
	.st89{clip-path:url(#SVGID_14_);}
	.st90{fill:#BCEAEC;}
	.st91{opacity:0.14;}
	.st92{clip-path:url(#SVGID_16_);}
	.st93{fill:#FBC400;}
	.st94{fill:#1F1F1F;}
	.st95{fill:none;stroke:url(#SVGID_17_);stroke-width:0.15;stroke-miterlimit:10;}
	.st96{fill:none;stroke:#00B091;stroke-width:0.15;stroke-miterlimit:10;}
	.st97{fill:none;stroke:url(#SVGID_18_);stroke-width:0.15;stroke-miterlimit:10;}
	.st98{fill:none;stroke:url(#SVGID_19_);stroke-width:0.15;stroke-miterlimit:10;}
	.st99{fill:none;stroke:url(#SVGID_20_);stroke-width:0.15;stroke-miterlimit:10;}
	.st100{fill:none;stroke:url(#SVGID_21_);stroke-width:0.15;stroke-miterlimit:10;}
	.st101{opacity:0.5;fill:#4170ED;}
	.st102{fill:#666666;}
	.st103{fill:none;stroke:#4170ED;stroke-width:0.5;stroke-miterlimit:10;}
	.st104{fill:none;stroke:url(#SVGID_22_);stroke-width:0.5;stroke-miterlimit:10;stroke-dasharray:0.9965,0.9965;}
	.st105{opacity:0.4;}
	.st106{fill:url(#SVGID_23_);stroke:url(#SVGID_24_);stroke-width:0.5;stroke-miterlimit:10;}
	.st107{fill:none;stroke:url(#SVGID_25_);stroke-width:0.5;stroke-miterlimit:10;}
	.st108{fill:url(#SVGID_26_);stroke:url(#SVGID_27_);stroke-width:0.5;stroke-miterlimit:10;}
	.st109{fill:none;stroke:url(#SVGID_28_);stroke-width:0.5;stroke-miterlimit:10;stroke-dasharray:0.9965,0.9965;}
	.st110{fill:url(#SVGID_29_);}
	.st111{fill:none;stroke:url(#SVGID_30_);stroke-width:0.5;stroke-miterlimit:10;stroke-dasharray:0.994,0.994;}
	.st112{fill:none;stroke:url(#SVGID_31_);stroke-width:0.5;stroke-miterlimit:10;}
	.st113{fill:none;stroke:url(#SVGID_32_);stroke-width:0.5;stroke-miterlimit:10;}
	.st114{fill:none;stroke:url(#SVGID_33_);stroke-width:0.5;stroke-miterlimit:10;}
	.st115{fill:url(#SVGID_34_);stroke:url(#SVGID_35_);stroke-width:0.5;stroke-miterlimit:10;}
	.st116{fill:#3885E9;}
	.st117{opacity:0.33;}
	.st118{fill:none;stroke:#999999;stroke-miterlimit:10;}
	.st119{fill:none;stroke:#4170ED;stroke-miterlimit:10;}
	.st120{fill:none;stroke:url(#SVGID_36_);stroke-width:0.5;stroke-miterlimit:10;}
	.st121{fill:url(#SVGID_37_);}
	.st122{opacity:0.3;fill:none;stroke:#4170ED;stroke-miterlimit:10;}
	.st123{opacity:0.87;fill:none;stroke:url(#SVGID_38_);stroke-miterlimit:10;}
	.st124{opacity:0.53;fill:#FFFFFF;}
	.st125{opacity:0.3;fill:none;stroke:#4170ED;stroke-width:0.25;stroke-miterlimit:10;}
	.st126{fill:url(#SVGID_39_);stroke:url(#SVGID_40_);stroke-width:0.25;stroke-miterlimit:10;}
	.st127{fill:url(#SVGID_41_);stroke:url(#SVGID_42_);stroke-width:0.25;stroke-miterlimit:10;}
	.st128{fill:url(#SVGID_43_);stroke:url(#SVGID_44_);stroke-width:0.25;stroke-miterlimit:10;}
	.st129{fill:url(#SVGID_45_);stroke:url(#SVGID_46_);stroke-width:0.25;stroke-miterlimit:10;}
	.st130{clip-path:url(#SVGID_48_);fill:#BFBFBF;}
	.st131{fill:#BFBFBF;}
	.st132{clip-path:url(#SVGID_50_);fill:#BFBFBF;}
	.st133{clip-path:url(#SVGID_52_);fill:#BFBFBF;}
	.st134{clip-path:url(#SVGID_54_);fill:#BFBFBF;}
	.st135{clip-path:url(#SVGID_56_);fill:#BFBFBF;}
	.st136{clip-path:url(#SVGID_58_);fill:#BFBFBF;}
	.st137{fill:none;}
	.st138{fill:#1B3E60;}
	.st139{fill:#31446D;stroke:#4170ED;stroke-width:0.5;stroke-miterlimit:10;}
	.st140{opacity:0.31;fill:#EDBF00;}
	.st141{opacity:0.31;fill:#00B091;}
	.st142{fill:#31446D;stroke:#4C7EF1;stroke-width:0.5;stroke-miterlimit:10;}
	.st143{clip-path:url(#SVGID_60_);fill:#BFBFBF;}
	.st144{clip-path:url(#SVGID_62_);fill:#BFBFBF;}
	.st145{clip-path:url(#SVGID_64_);fill:#BFBFBF;}
	.st146{clip-path:url(#SVGID_66_);fill:#BFBFBF;}
	.st147{clip-path:url(#SVGID_68_);fill:#BFBFBF;}
	.st148{clip-path:url(#SVGID_70_);fill:#BFBFBF;}
	.st149{fill:url(#XMLID_644_);}
	.st150{fill:none;stroke:#4C7EF1;stroke-width:0.25;stroke-miterlimit:10;}
	.st151{opacity:0.5;fill:#4C7EF1;}
	.st152{fill:url(#SVGID_71_);}
	.st153{fill:url(#SVGID_72_);}
	.st154{fill:url(#SVGID_73_);}
	.st155{fill:url(#SVGID_74_);}
	.st156{fill:url(#SVGID_75_);}
	.st157{fill:none;stroke:#F24343;stroke-width:2;stroke-miterlimit:10;}
	.st158{fill:none;stroke:#4C7EF1;stroke-width:2;stroke-miterlimit:10;}
	.st159{fill:none;stroke:#FEAB05;stroke-width:2;stroke-miterlimit:10;}
	.st160{fill:none;stroke:#29CB97;stroke-width:2;stroke-miterlimit:10;}
	.st161{opacity:0.42;fill:#676767;stroke:#F0F2F8;stroke-width:0.5;stroke-miterlimit:10;}
	.st162{fill:none;stroke:#F0F2F8;stroke-miterlimit:10;}
	.st163{clip-path:url(#SVGID_77_);}
	.st164{opacity:0.56;fill:#4C7EF1;}
	.st165{fill:none;stroke:url(#SVGID_78_);stroke-width:0.5;stroke-miterlimit:10;stroke-dasharray:1.0027,1.0027;}
	.st166{fill:none;stroke:url(#SVGID_79_);stroke-width:0.5;stroke-miterlimit:10;}
	.st167{fill:none;stroke:url(#SVGID_80_);stroke-width:0.5;stroke-miterlimit:10;}
	.st168{fill:none;stroke:url(#SVGID_81_);stroke-width:0.5;stroke-miterlimit:10;}
	.st169{opacity:0.14;fill:none;stroke:#4C7EF1;stroke-width:0.25;stroke-miterlimit:10;}
	.st170{fill:#F2F2F2;}
	.st171{fill:none;stroke:#3B86FF;stroke-width:0.25;stroke-miterlimit:10;}
	.st172{fill:#676767;stroke:#3B86FF;stroke-width:0.25;stroke-miterlimit:10;}
	.st173{fill:#606060;stroke:#3B86FF;stroke-width:0.25;stroke-miterlimit:10;}
	.st174{fill:url(#SVGID_82_);stroke:url(#SVGID_83_);stroke-width:0.25;stroke-miterlimit:10;}
	.st175{fill:url(#SVGID_84_);stroke:url(#SVGID_85_);stroke-width:0.25;stroke-miterlimit:10;}
	.st176{fill:url(#SVGID_86_);stroke:url(#SVGID_87_);stroke-width:0.25;stroke-miterlimit:10;}
	.st177{fill:url(#SVGID_88_);stroke:url(#SVGID_89_);stroke-width:0.25;stroke-miterlimit:10;}
	.st178{fill:url(#SVGID_90_);stroke:url(#SVGID_91_);stroke-width:0.25;stroke-miterlimit:10;}
	.st179{opacity:0.46;fill:url(#SVGID_92_);}
	.st180{opacity:0.14;fill:#29CB97;stroke:#4C7EF1;stroke-width:0.25;stroke-miterlimit:10;}
	.st181{opacity:0.35;fill:#999999;}
	.st182{fill:none;stroke:#3B86FF;stroke-width:0.1;stroke-miterlimit:10;}
	.st183{opacity:0.14;fill:#4170ED;stroke:#4C7EF1;stroke-width:0.25;stroke-miterlimit:10;}
</style>
<g>
	<g>
		<path class="st42" d="M35.35,24.23h3.5v0.42h-1.51v3.85h-0.48v-3.85h-1.51V24.23z"/>
		<path class="st42" d="M39.98,24.34c0.07,0.06,0.11,0.14,0.11,0.25c0,0.1-0.04,0.19-0.11,0.26c-0.08,0.07-0.16,0.1-0.26,0.1
			c-0.1,0-0.18-0.03-0.26-0.1c-0.07-0.07-0.1-0.15-0.1-0.26c0-0.11,0.03-0.2,0.1-0.25c0.07-0.07,0.15-0.1,0.26-0.1
			S39.91,24.27,39.98,24.34z M39.48,25.41h0.48v3.09h-0.48V25.41z"/>
		<path class="st42" d="M41.69,24.41v1h0.77v0.4h-0.77v1.97c0,0.12,0.02,0.2,0.07,0.25c0.04,0.05,0.12,0.08,0.23,0.08h0.39v0.4
			h-0.47c-0.26,0-0.44-0.07-0.54-0.2c-0.1-0.12-0.15-0.29-0.15-0.53v-1.97h-0.62v-0.4h0.62v-0.8L41.69,24.41z"/>
		<path class="st42" d="M43.08,24.14h0.47v4.36h-0.47V24.14z"/>
		<path class="st42" d="M46.79,25.83c0.23,0.3,0.35,0.72,0.36,1.26h-2.44c0.02,0.35,0.12,0.62,0.28,0.81
			c0.17,0.19,0.4,0.29,0.69,0.29c0.25,0,0.46-0.06,0.62-0.19c0.13-0.1,0.23-0.27,0.31-0.48h0.48c-0.07,0.3-0.21,0.54-0.42,0.73
			c-0.26,0.23-0.59,0.35-0.99,0.35c-0.44,0-0.8-0.15-1.07-0.44c-0.27-0.3-0.41-0.69-0.41-1.2c0-0.46,0.13-0.84,0.39-1.14
			c0.26-0.32,0.62-0.48,1.07-0.48C46.17,25.32,46.54,25.49,46.79,25.83z M45.01,25.99c-0.16,0.18-0.26,0.42-0.29,0.72h1.93
			c-0.06-0.66-0.39-0.99-0.98-0.99C45.4,25.72,45.18,25.81,45.01,25.99z"/>
	</g>
	<g>
		<g>
			<path class="st82" d="M78.25,33.13c-0.11,0.17-0.24,0.36-0.41,0.56l-0.08-0.32c0.4-0.53,0.69-1.12,0.87-1.79l0.24,0.14
				c-0.09,0.33-0.21,0.64-0.36,0.94v2.89h-0.27V33.13z M79.04,32.03h1.83v0.27c-0.51,0.61-0.87,1.05-1.08,1.33
				c-0.22,0.3-0.37,0.55-0.45,0.76c-0.07,0.17-0.1,0.31-0.1,0.41c0,0.08,0.02,0.15,0.07,0.21c0.05,0.06,0.14,0.09,0.29,0.09h0.97
				c0.11-0.01,0.19-0.06,0.24-0.15c0.04-0.1,0.07-0.34,0.07-0.7l0.25,0.09c0,0.44-0.04,0.72-0.11,0.85c-0.07,0.13-0.19,0.2-0.37,0.2
				h-1.09c-0.21,0-0.35-0.05-0.44-0.15c-0.09-0.12-0.13-0.27-0.13-0.45c0-0.14,0.03-0.3,0.1-0.47c0.09-0.24,0.26-0.52,0.5-0.84
				c0.23-0.33,0.54-0.72,0.91-1.16h-1.44V32.03z"/>
			<path class="st82" d="M81.53,33.12h3.1v0.3h-1v1.59c0,0.12,0.05,0.18,0.16,0.18h0.4c0.08,0,0.13-0.03,0.16-0.1
				c0.04-0.07,0.07-0.3,0.08-0.69l0.24,0.09c-0.03,0.47-0.07,0.75-0.14,0.85c-0.06,0.09-0.16,0.13-0.29,0.13h-0.53
				c-0.23,0-0.34-0.13-0.34-0.4v-1.66h-0.65v0.06c-0.01,0.56-0.11,1-0.29,1.34c-0.18,0.31-0.47,0.56-0.87,0.73l-0.14-0.26
				c0.39-0.17,0.66-0.4,0.82-0.68c0.15-0.3,0.22-0.67,0.23-1.14v-0.06h-0.94V33.12z M81.81,31.86h2.5v0.3h-2.5V31.86z"/>
		</g>
	</g>
	<g>
		<path class="st0" d="M36.4,35.06v-0.5h2.38v-1.58h-2.36V30.7h3.1v0.5h-2.36v1.29h2.36v2.58H36.4z"/>
		<path class="st0" d="M40.24,35.06V30.7h3.11v0.5h-2.37v1.27h2.38v2.59H40.24z M42.62,32.96h-1.63v1.6h1.63V32.96z"/>
		<path class="st0" d="M44.24,35.99l0.52-0.93h-0.47v-0.88h0.81v0.84l-0.55,0.96H44.24z"/>
		<path class="st0" d="M45.97,35.06v-2.01l0.34-0.31l-0.27-0.29v-1.77h2.98v1.77l-0.27,0.29l0.33,0.31v2.01H45.97z M46.71,34.56
			h1.64v-1.54h-1.64V34.56z M46.77,31.19v1.32h1.51v-1.32H46.77z"/>
		<path class="st0" d="M49.8,35.06v-0.5h2.41V33.3h-2.38v-2.61h3.11v4.37H49.8z M50.57,31.19v1.61h1.64v-1.61H50.57z"/>
		<path class="st0" d="M54.91,35.06v-3.87h-1.03v-0.5h1.78v4.37H54.91z"/>
	</g>
	<g>
		<path class="st42" d="M35.35,40.89h3.5v0.42h-1.51v3.85h-0.48v-3.85h-1.51V40.89z"/>
		<path class="st42" d="M39.98,41c0.07,0.06,0.11,0.14,0.11,0.25c0,0.1-0.04,0.19-0.11,0.26c-0.08,0.07-0.16,0.1-0.26,0.1
			c-0.1,0-0.18-0.03-0.26-0.1c-0.07-0.07-0.1-0.15-0.1-0.26c0-0.11,0.03-0.2,0.1-0.25c0.07-0.07,0.15-0.1,0.26-0.1
			S39.91,40.93,39.98,41z M39.48,42.07h0.48v3.09h-0.48V42.07z"/>
		<path class="st42" d="M41.69,41.07v1h0.77v0.4h-0.77v1.97c0,0.12,0.02,0.2,0.07,0.25c0.04,0.05,0.12,0.08,0.23,0.08h0.39v0.4
			h-0.47c-0.26,0-0.44-0.07-0.54-0.2c-0.1-0.12-0.15-0.29-0.15-0.53v-1.97h-0.62v-0.4h0.62v-0.8L41.69,41.07z"/>
		<path class="st42" d="M43.08,40.8h0.47v4.36h-0.47V40.8z"/>
		<path class="st42" d="M46.79,42.49c0.23,0.3,0.35,0.72,0.36,1.26h-2.44c0.02,0.35,0.12,0.62,0.28,0.81
			c0.17,0.19,0.4,0.29,0.69,0.29c0.25,0,0.46-0.06,0.62-0.19c0.13-0.1,0.23-0.27,0.31-0.48h0.48c-0.07,0.3-0.21,0.54-0.42,0.73
			c-0.26,0.23-0.59,0.35-0.99,0.35c-0.44,0-0.8-0.15-1.07-0.44c-0.27-0.3-0.41-0.69-0.41-1.2c0-0.46,0.13-0.84,0.39-1.14
			c0.26-0.32,0.62-0.48,1.07-0.48C46.17,41.98,46.54,42.15,46.79,42.49z M45.01,42.65c-0.16,0.18-0.26,0.42-0.29,0.72h1.93
			c-0.06-0.66-0.39-0.99-0.98-0.99C45.4,42.38,45.18,42.47,45.01,42.65z"/>
	</g>
	<g>
		<g>
			<path class="st82" d="M78.25,49.79c-0.11,0.17-0.24,0.36-0.41,0.56l-0.08-0.32c0.4-0.53,0.69-1.12,0.87-1.79l0.24,0.14
				c-0.09,0.33-0.21,0.64-0.36,0.94v2.89h-0.27V49.79z M79.04,48.69h1.83v0.27c-0.51,0.61-0.87,1.05-1.08,1.33
				c-0.22,0.3-0.37,0.55-0.45,0.76c-0.07,0.17-0.1,0.31-0.1,0.41c0,0.08,0.02,0.15,0.07,0.21c0.05,0.06,0.14,0.09,0.29,0.09h0.97
				c0.11-0.01,0.19-0.06,0.24-0.15c0.04-0.1,0.07-0.34,0.07-0.7L81.11,51c0,0.44-0.04,0.72-0.11,0.85c-0.07,0.13-0.19,0.2-0.37,0.2
				h-1.09c-0.21,0-0.35-0.05-0.44-0.15c-0.09-0.12-0.13-0.27-0.13-0.45c0-0.14,0.03-0.3,0.1-0.47c0.09-0.24,0.26-0.52,0.5-0.84
				c0.23-0.33,0.54-0.72,0.91-1.16h-1.44V48.69z"/>
			<path class="st82" d="M81.53,49.78h3.1v0.3h-1v1.59c0,0.12,0.05,0.18,0.16,0.18h0.4c0.08,0,0.13-0.03,0.16-0.1
				c0.04-0.07,0.07-0.3,0.08-0.69l0.24,0.09c-0.03,0.47-0.07,0.75-0.14,0.85c-0.06,0.09-0.16,0.13-0.29,0.13h-0.53
				c-0.23,0-0.34-0.13-0.34-0.4v-1.66h-0.65v0.06c-0.01,0.56-0.11,1-0.29,1.34c-0.18,0.31-0.47,0.56-0.87,0.73l-0.14-0.26
				c0.39-0.17,0.66-0.4,0.82-0.68c0.15-0.3,0.22-0.67,0.23-1.14v-0.06h-0.94V49.78z M81.81,48.52h2.5v0.3h-2.5V48.52z"/>
		</g>
	</g>
	<g>
		<path class="st0" d="M36.4,51.72v-0.5h2.38v-1.58h-2.36v-2.27h3.1v0.5h-2.36v1.29h2.36v2.58H36.4z"/>
		<path class="st0" d="M40.24,51.72v-4.36h3.11v0.5h-2.37v1.27h2.38v2.59H40.24z M42.62,49.62h-1.63v1.6h1.63V49.62z"/>
		<path class="st0" d="M44.24,52.65l0.52-0.93h-0.47v-0.88h0.81v0.84l-0.55,0.96H44.24z"/>
		<path class="st0" d="M45.97,51.72v-2.01l0.34-0.31l-0.27-0.29v-1.77h2.98v1.77l-0.27,0.29l0.33,0.31v2.01H45.97z M46.71,51.22
			h1.64v-1.54h-1.64V51.22z M46.77,47.85v1.32h1.51v-1.32H46.77z"/>
		<path class="st0" d="M49.8,51.72v-0.5h2.41v-1.26h-2.38v-2.61h3.11v4.37H49.8z M50.57,47.85v1.61h1.64v-1.61H50.57z"/>
		<path class="st0" d="M54.91,51.72v-3.87h-1.03v-0.5h1.78v4.37H54.91z"/>
	</g>
	<rect x="30.5" y="23.83" class="st164" width="0.4" height="29.28"/>
	<circle class="st41" cx="31.03" cy="15.85" r="1.71"/>
	<g>
		<path class="st5" d="M37.94,13.81c0.39,0.53,0.69,0.98,0.89,1.34l-0.38,0.27c-0.07-0.14-0.14-0.28-0.23-0.42
			c-0.66,0.11-1.47,0.18-2.44,0.24l-0.13-0.38c0.08-0.02,0.15-0.06,0.21-0.12c0.4-0.42,0.73-0.87,0.98-1.37l0.43,0.13
			c-0.3,0.57-0.62,1.02-0.97,1.34c0.56-0.03,1.13-0.09,1.7-0.16c-0.14-0.22-0.29-0.43-0.43-0.64L37.94,13.81z M36.48,17.99v1.21
			h-0.44v-3.59h2.38v2.98c0,0.37-0.18,0.56-0.53,0.56h-0.53l-0.11-0.43l0.49,0.02c0.16,0,0.24-0.08,0.24-0.24v-0.52H36.48z
			 M37.97,16.62v-0.61h-1.49v0.61H37.97z M36.48,17.01v0.59h1.49v-0.59H36.48z M39.58,16.12c-0.39,0-0.59-0.21-0.59-0.64v-2.13h0.45
			v0.85c0.69-0.11,1.26-0.22,1.72-0.34l0.15,0.4c-0.56,0.14-1.18,0.26-1.86,0.36v0.76c0,0.21,0.09,0.32,0.27,0.32h0.83
			c0.13,0,0.22-0.03,0.27-0.1c0.06-0.08,0.1-0.32,0.13-0.71l0.43,0.13c-0.04,0.5-0.12,0.82-0.24,0.93c-0.11,0.1-0.27,0.15-0.49,0.15
			H39.58z M39.46,18.45c0,0.15,0.08,0.23,0.25,0.23h0.83c0.13,0,0.22-0.03,0.27-0.09c0.06-0.08,0.11-0.32,0.13-0.72L41.36,18
			c-0.04,0.51-0.12,0.83-0.24,0.95c-0.11,0.1-0.27,0.15-0.5,0.15h-1.04c-0.38,0-0.57-0.18-0.57-0.55v-2.17h0.45v0.78
			c0.64-0.06,1.21-0.17,1.7-0.32l0.15,0.41c-0.55,0.16-1.17,0.27-1.85,0.34V18.45z"/>
		<path class="st5" d="M42.33,15.04c0.43,0.33,0.79,0.64,1.06,0.94l-0.31,0.31c-0.26-0.31-0.62-0.62-1.06-0.96L42.33,15.04z
			 M43.48,16.91c-0.3,0.82-0.62,1.58-0.97,2.26l-0.43-0.19c0.4-0.76,0.74-1.5,1-2.23L43.48,16.91z M42.45,13.48
			c0.45,0.33,0.84,0.66,1.15,0.97l-0.31,0.31c-0.28-0.31-0.67-0.64-1.15-0.99L42.45,13.48z M44.77,14.62h0.9
			c0.07-0.19,0.13-0.39,0.18-0.6h-1.53v1.85c-0.03,1.38-0.27,2.48-0.73,3.31l-0.34-0.31c0.4-0.72,0.61-1.72,0.62-3v-2.26h3.82v0.41
			h-1.41c-0.04,0.2-0.1,0.4-0.17,0.6h1.24v2.23H46.3v1.8c0,0.34-0.17,0.52-0.5,0.52h-0.53l-0.1-0.41c0.18,0.02,0.34,0.03,0.48,0.03
			c0.14,0,0.22-0.08,0.22-0.24v-1.69h-1.09V14.62z M45.34,17.39c-0.17,0.56-0.39,1.05-0.69,1.46l-0.37-0.23
			c0.3-0.4,0.52-0.84,0.65-1.32L45.34,17.39z M45.18,15.57h1.77v-0.58h-1.77V15.57z M46.95,16.48v-0.57h-1.77v0.57H46.95z
			 M47.1,17.27c0.26,0.45,0.49,0.91,0.68,1.41l-0.39,0.17c-0.19-0.51-0.42-0.99-0.67-1.44L47.1,17.27z"/>
		<path class="st5" d="M49.42,17.17c-0.17,0.67-0.39,1.25-0.69,1.73l-0.39-0.25c0.29-0.47,0.5-1,0.64-1.58L49.42,17.17z
			 M49.25,14.48h2.45c0.26-0.37,0.49-0.76,0.67-1.19l0.44,0.16c-0.21,0.42-0.41,0.76-0.62,1.03h1.06v2.07h-4.01V14.48z M50.04,13.31
			c0.24,0.28,0.47,0.6,0.69,0.95l-0.39,0.19c-0.21-0.34-0.44-0.66-0.69-0.95L50.04,13.31z M52.8,16.12v-1.21h-3.09v1.21H52.8z
			 M50.54,19.11c-0.4,0-0.6-0.21-0.6-0.64v-1.34h0.46v1.24c0,0.2,0.09,0.3,0.27,0.3h1.4c0.14,0,0.24-0.04,0.29-0.11
			c0.07-0.09,0.12-0.36,0.15-0.81l0.44,0.14c-0.04,0.57-0.13,0.93-0.26,1.06c-0.11,0.1-0.29,0.15-0.53,0.15H50.54z M51.38,16.8
			c0.24,0.34,0.45,0.69,0.61,1.06l-0.42,0.18c-0.17-0.42-0.37-0.79-0.59-1.11L51.38,16.8z M53.39,16.96c0.29,0.48,0.54,1,0.74,1.56
			l-0.42,0.18c-0.23-0.61-0.48-1.14-0.76-1.61L53.39,16.96z"/>
		<path class="st5" d="M54.77,15.36h5.7v0.34h-5.7V15.36z M55.41,16.02h4.43v1.62h-2V18H60v0.31h-2.16v0.38h2.62v0.36h-5.69v-0.36
			h2.61V18.3h-2.13V18h2.13v-0.36h-1.97V16.02z M55.55,13.46h4.15v1.57h-4.15V13.46z M55.85,16.7h1.53v-0.39h-1.53V16.7z
			 M57.38,17.36v-0.39h-1.53v0.39H57.38z M56,14.11h3.26v-0.37H56V14.11z M59.26,14.75v-0.38H56v0.38H59.26z M57.84,16.31v0.39h1.56
			v-0.39H57.84z M59.4,17.36v-0.39h-1.56v0.39H59.4z"/>
	</g>
</g>
</svg>
