<?xml version="1.0" encoding="utf-8"?>
<!-- Generator: Adobe Illustrator 23.0.0, SVG Export Plug-In . SVG Version: 6.00 Build 0)  -->
<svg version="1.1" id="图层_1" xmlns="http://www.w3.org/2000/svg" xmlns:xlink="http://www.w3.org/1999/xlink" x="0px" y="0px"
	 viewBox="0 0 114 65" style="enable-background:new 0 0 114 65;" xml:space="preserve">
<style type="text/css">
	.st0{fill:#4C7EF1;}
	.st1{fill:#29CB97;}
	.st2{fill:#FEC400;}
	.st3{fill:#29C997;}
	.st4{fill:#B35AF1;}
	.st5{fill:#FFFFFF;}
	.st6{fill:#6B6B6B;}
	.st7{fill:#444444;}
	.st8{opacity:0.1;fill:#FFFFFF;}
	.st9{opacity:0.1;}
	.st10{fill:none;stroke:#F24343;stroke-width:14;stroke-miterlimit:10;}
	.st11{fill:none;stroke:#FFFFFF;stroke-width:14;stroke-miterlimit:10;}
	.st12{fill:none;stroke:#4C7EF1;stroke-width:14;stroke-miterlimit:10;}
	.st13{fill:none;stroke:#FEAB05;stroke-width:14;stroke-miterlimit:10;}
	.st14{fill:none;stroke:#29CB97;stroke-width:8;stroke-miterlimit:10;}
	.st15{fill:none;stroke:#29CB97;stroke-width:16;stroke-miterlimit:10;}
	.st16{fill:none;stroke:#FEC400;stroke-width:16;stroke-miterlimit:10;}
	.st17{fill:none;stroke:#FEAB05;stroke-width:16;stroke-miterlimit:10;}
	.st18{fill:none;stroke:#FEC400;stroke-width:8;stroke-miterlimit:10;}
	.st19{fill:none;stroke:#676767;stroke-width:8;stroke-miterlimit:10;}
	.st20{fill:none;stroke:#FEC400;stroke-width:2;stroke-miterlimit:10;}
	.st21{fill:#E6E6E6;}
	.st22{fill:#74D889;}
	.st23{fill:#FFDC70;}
	.st24{fill:#47ABFC;}
	.st25{fill:none;stroke:#FFFFFF;stroke-miterlimit:10;}
	.st26{fill:#4C7EF1;stroke:#0B0C0E;stroke-miterlimit:10;}
	.st27{fill:#FEC400;stroke:#0B0C0E;stroke-miterlimit:10;}
	.st28{fill:none;stroke:#AAA9A9;stroke-miterlimit:10;}
	.st29{fill:none;stroke:#A5A4A4;stroke-width:2;stroke-miterlimit:10;stroke-dasharray:1.0005,4.002;}
	.st30{fill:none;stroke:#4C7EF1;stroke-width:40;stroke-miterlimit:10;}
	.st31{fill:none;stroke:#FEC400;stroke-width:40;stroke-miterlimit:10;}
	.st32{fill:none;stroke:#676767;stroke-width:20;stroke-miterlimit:10;}
	.st33{fill:none;stroke:#FEC400;stroke-width:20;stroke-miterlimit:10;}
	.st34{fill:none;stroke:#29C997;stroke-width:20;stroke-miterlimit:10;}
	.st35{fill:none;stroke:#FFFFFF;stroke-width:20;stroke-miterlimit:10;}
	.st36{fill:none;stroke:#000000;stroke-miterlimit:10;}
	.st37{fill:none;stroke:#FFFFFF;stroke-width:2;stroke-miterlimit:10;stroke-dasharray:3.941,3.941;}
	.st38{opacity:0.5;fill:none;stroke:#FFFFFF;stroke-width:0.4926;stroke-miterlimit:10;stroke-dasharray:3.941,3.941;}
	.st39{fill:none;stroke:#00B091;stroke-width:4;stroke-miterlimit:10;}
	.st40{fill:none;stroke:#EDBF00;stroke-width:4;stroke-miterlimit:10;}
	.st41{fill:#EDBF00;}
	.st42{fill:#00B091;}
	.st43{opacity:0.8;fill:#00B091;}
	.st44{opacity:0.8;fill:#EDBF00;}
	.st45{opacity:0.8;fill:#D85700;}
	.st46{fill:#4C7EF1;stroke:#4C7EF1;stroke-miterlimit:10;}
	.st47{fill:none;stroke:#676767;stroke-width:2;stroke-miterlimit:10;}
	.st48{fill:none;stroke:#FEC400;stroke-width:0.25;stroke-miterlimit:10;}
	.st49{fill:none;stroke:#999999;stroke-width:0.25;stroke-miterlimit:10;}
	.st50{fill:#4C7EF1;stroke:#0B0C0E;stroke-width:0.25;stroke-miterlimit:10;}
	.st51{fill:#FEC400;stroke:#0B0C0E;stroke-width:0.25;stroke-miterlimit:10;}
	.st52{fill:none;stroke:#AAA9A9;stroke-width:0.25;stroke-miterlimit:10;}
	.st53{fill:none;stroke:#A5A4A4;stroke-width:2;stroke-miterlimit:10;stroke-dasharray:0.9678,3.8712;}
	.st54{fill:none;stroke:#4C7EF1;stroke-width:4;stroke-miterlimit:10;}
	.st55{fill:none;stroke:#FEC400;stroke-width:4;stroke-miterlimit:10;}
	.st56{fill:none;stroke:#29C997;stroke-width:2;stroke-miterlimit:10;}
	.st57{fill:none;stroke:#FFFFFF;stroke-width:2;stroke-miterlimit:10;}
	.st58{fill:none;stroke:#000000;stroke-width:0.25;stroke-miterlimit:10;}
	.st59{fill:none;stroke:#FFFFFF;stroke-width:0.25;stroke-miterlimit:10;stroke-dasharray:3.941,3.941;}
	.st60{opacity:0.5;fill:none;stroke:#FFFFFF;stroke-width:0.25;stroke-miterlimit:10;stroke-dasharray:3.941,3.941;}
	.st61{fill:none;stroke:#00B091;stroke-width:0.5;stroke-miterlimit:10;}
	.st62{fill:none;stroke:#EDBF00;stroke-width:0.5;stroke-miterlimit:10;}
	.st63{opacity:0.65;fill:url(#SVGID_1_);}
	.st64{opacity:0.65;fill:url(#SVGID_2_);}
	.st65{opacity:0.65;fill:url(#SVGID_3_);}
	.st66{opacity:0.65;fill:url(#SVGID_4_);}
	.st67{opacity:0.65;fill:url(#SVGID_5_);}
	.st68{opacity:0.65;fill:url(#SVGID_6_);}
	.st69{fill:#292E34;}
	.st70{opacity:0.6;}
	.st71{fill:#334469;}
	.st72{fill:#FEAB05;}
	.st73{opacity:0.4;fill:#0B0C0E;}
	.st74{opacity:0.7;}
	.st75{fill:#F24343;}
	.st76{opacity:0.42;fill:#676767;stroke:#F0F2F8;stroke-miterlimit:10;}
	.st77{fill:none;stroke:#F0F2F8;stroke-width:2;stroke-miterlimit:10;}
	.st78{clip-path:url(#SVGID_8_);}
	.st79{fill:#3B86FF;}
	.st80{opacity:0.36;}
	.st81{fill:#4170ED;}
	.st82{fill:#999999;}
	.st83{opacity:0.15;}
	.st84{clip-path:url(#SVGID_10_);}
	.st85{fill:#1CCC96;}
	.st86{opacity:0.43;}
	.st87{clip-path:url(#SVGID_12_);}
	.st88{fill:#30C3E9;}
	.st89{clip-path:url(#SVGID_14_);}
	.st90{fill:#BCEAEC;}
	.st91{opacity:0.14;}
	.st92{clip-path:url(#SVGID_16_);}
	.st93{fill:#FBC400;}
	.st94{fill:#1F1F1F;}
	.st95{fill:none;stroke:url(#SVGID_17_);stroke-width:0.15;stroke-miterlimit:10;}
	.st96{fill:none;stroke:#00B091;stroke-width:0.15;stroke-miterlimit:10;}
	.st97{fill:none;stroke:url(#SVGID_18_);stroke-width:0.15;stroke-miterlimit:10;}
	.st98{fill:none;stroke:url(#SVGID_19_);stroke-width:0.15;stroke-miterlimit:10;}
	.st99{fill:none;stroke:url(#SVGID_20_);stroke-width:0.15;stroke-miterlimit:10;}
	.st100{fill:none;stroke:url(#SVGID_21_);stroke-width:0.15;stroke-miterlimit:10;}
	.st101{opacity:0.5;fill:#4170ED;}
	.st102{fill:#666666;}
	.st103{fill:none;stroke:#4170ED;stroke-width:0.5;stroke-miterlimit:10;}
	.st104{fill:none;stroke:url(#SVGID_22_);stroke-width:0.5;stroke-miterlimit:10;stroke-dasharray:0.9965,0.9965;}
	.st105{opacity:0.4;}
	.st106{fill:url(#SVGID_23_);stroke:url(#SVGID_24_);stroke-width:0.5;stroke-miterlimit:10;}
	.st107{fill:none;stroke:url(#SVGID_25_);stroke-width:0.5;stroke-miterlimit:10;}
	.st108{fill:url(#SVGID_26_);stroke:url(#SVGID_27_);stroke-width:0.5;stroke-miterlimit:10;}
	.st109{fill:none;stroke:url(#SVGID_28_);stroke-width:0.5;stroke-miterlimit:10;stroke-dasharray:0.9965,0.9965;}
	.st110{fill:url(#SVGID_29_);}
	.st111{fill:none;stroke:url(#SVGID_30_);stroke-width:0.5;stroke-miterlimit:10;stroke-dasharray:0.994,0.994;}
	.st112{fill:none;stroke:url(#SVGID_31_);stroke-width:0.5;stroke-miterlimit:10;}
	.st113{fill:none;stroke:url(#SVGID_32_);stroke-width:0.5;stroke-miterlimit:10;}
	.st114{fill:none;stroke:url(#SVGID_33_);stroke-width:0.5;stroke-miterlimit:10;}
	.st115{fill:url(#SVGID_34_);stroke:url(#SVGID_35_);stroke-width:0.5;stroke-miterlimit:10;}
	.st116{fill:#3885E9;}
	.st117{opacity:0.33;}
	.st118{fill:none;stroke:#999999;stroke-miterlimit:10;}
	.st119{fill:none;stroke:#4170ED;stroke-miterlimit:10;}
	.st120{fill:none;stroke:url(#SVGID_36_);stroke-width:0.5;stroke-miterlimit:10;}
	.st121{fill:url(#SVGID_37_);}
	.st122{opacity:0.3;fill:none;stroke:#4170ED;stroke-miterlimit:10;}
	.st123{opacity:0.87;fill:none;stroke:url(#SVGID_38_);stroke-miterlimit:10;}
	.st124{opacity:0.53;fill:#FFFFFF;}
	.st125{opacity:0.3;fill:none;stroke:#4170ED;stroke-width:0.25;stroke-miterlimit:10;}
	.st126{fill:url(#SVGID_39_);stroke:url(#SVGID_40_);stroke-width:0.25;stroke-miterlimit:10;}
	.st127{fill:url(#SVGID_41_);stroke:url(#SVGID_42_);stroke-width:0.25;stroke-miterlimit:10;}
	.st128{fill:url(#SVGID_43_);stroke:url(#SVGID_44_);stroke-width:0.25;stroke-miterlimit:10;}
	.st129{fill:url(#SVGID_45_);stroke:url(#SVGID_46_);stroke-width:0.25;stroke-miterlimit:10;}
	.st130{clip-path:url(#SVGID_48_);fill:#BFBFBF;}
	.st131{fill:#BFBFBF;}
	.st132{clip-path:url(#SVGID_50_);fill:#BFBFBF;}
	.st133{clip-path:url(#SVGID_52_);fill:#BFBFBF;}
	.st134{clip-path:url(#SVGID_54_);fill:#BFBFBF;}
	.st135{clip-path:url(#SVGID_56_);fill:#BFBFBF;}
	.st136{clip-path:url(#SVGID_58_);fill:#BFBFBF;}
	.st137{fill:none;}
	.st138{fill:#1B3E60;}
	.st139{fill:#31446D;stroke:#4170ED;stroke-width:0.5;stroke-miterlimit:10;}
	.st140{opacity:0.31;fill:#EDBF00;}
	.st141{opacity:0.31;fill:#00B091;}
	.st142{fill:#31446D;stroke:#4C7EF1;stroke-width:0.5;stroke-miterlimit:10;}
	.st143{clip-path:url(#SVGID_60_);fill:#BFBFBF;}
	.st144{clip-path:url(#SVGID_62_);fill:#BFBFBF;}
	.st145{clip-path:url(#SVGID_64_);fill:#BFBFBF;}
	.st146{clip-path:url(#SVGID_66_);fill:#BFBFBF;}
	.st147{clip-path:url(#SVGID_68_);fill:#BFBFBF;}
	.st148{clip-path:url(#SVGID_70_);fill:#BFBFBF;}
	.st149{fill:url(#XMLID_644_);}
	.st150{fill:none;stroke:#4C7EF1;stroke-width:0.25;stroke-miterlimit:10;}
	.st151{opacity:0.5;fill:#4C7EF1;}
	.st152{fill:url(#SVGID_71_);}
	.st153{fill:url(#SVGID_72_);}
	.st154{fill:url(#SVGID_73_);}
	.st155{fill:url(#SVGID_74_);}
	.st156{fill:url(#SVGID_75_);}
	.st157{fill:none;stroke:#F24343;stroke-width:2;stroke-miterlimit:10;}
	.st158{fill:none;stroke:#4C7EF1;stroke-width:2;stroke-miterlimit:10;}
	.st159{fill:none;stroke:#FEAB05;stroke-width:2;stroke-miterlimit:10;}
	.st160{fill:none;stroke:#29CB97;stroke-width:2;stroke-miterlimit:10;}
	.st161{opacity:0.42;fill:#676767;stroke:#F0F2F8;stroke-width:0.5;stroke-miterlimit:10;}
	.st162{fill:none;stroke:#F0F2F8;stroke-miterlimit:10;}
	.st163{clip-path:url(#SVGID_77_);}
	.st164{opacity:0.56;fill:#4C7EF1;}
	.st165{fill:none;stroke:url(#SVGID_78_);stroke-width:0.5;stroke-miterlimit:10;stroke-dasharray:1.0027,1.0027;}
	.st166{fill:none;stroke:url(#SVGID_79_);stroke-width:0.5;stroke-miterlimit:10;}
	.st167{fill:none;stroke:url(#SVGID_80_);stroke-width:0.5;stroke-miterlimit:10;}
	.st168{fill:none;stroke:url(#SVGID_81_);stroke-width:0.5;stroke-miterlimit:10;}
	.st169{opacity:0.14;fill:none;stroke:#4C7EF1;stroke-width:0.25;stroke-miterlimit:10;}
	.st170{fill:#F2F2F2;}
	.st171{fill:none;stroke:#3B86FF;stroke-width:0.25;stroke-miterlimit:10;}
	.st172{fill:#676767;stroke:#3B86FF;stroke-width:0.25;stroke-miterlimit:10;}
	.st173{fill:#606060;stroke:#3B86FF;stroke-width:0.25;stroke-miterlimit:10;}
	.st174{fill:url(#SVGID_82_);stroke:url(#SVGID_83_);stroke-width:0.25;stroke-miterlimit:10;}
	.st175{fill:url(#SVGID_84_);stroke:url(#SVGID_85_);stroke-width:0.25;stroke-miterlimit:10;}
	.st176{fill:url(#SVGID_86_);stroke:url(#SVGID_87_);stroke-width:0.25;stroke-miterlimit:10;}
	.st177{fill:url(#SVGID_88_);stroke:url(#SVGID_89_);stroke-width:0.25;stroke-miterlimit:10;}
	.st178{fill:url(#SVGID_90_);stroke:url(#SVGID_91_);stroke-width:0.25;stroke-miterlimit:10;}
	.st179{opacity:0.46;fill:url(#SVGID_92_);}
	.st180{opacity:0.14;fill:#29CB97;stroke:#4C7EF1;stroke-width:0.25;stroke-miterlimit:10;}
	.st181{opacity:0.35;fill:#999999;}
	.st182{fill:none;stroke:#3B86FF;stroke-width:0.1;stroke-miterlimit:10;}
	.st183{opacity:0.14;fill:#4170ED;stroke:#4C7EF1;stroke-width:0.25;stroke-miterlimit:10;}
</style>
<rect x="22.29" y="22.83" class="st0" width="0.25" height="23.41"/>
<g>
	<g>
		<path class="st82" d="M29.57,26.27h1.15c-0.08-0.16-0.17-0.31-0.28-0.45l0.2-0.08c0.1,0.14,0.2,0.31,0.29,0.53h1.06v0.22h-0.43
			c-0.14,0.48-0.34,0.88-0.61,1.2c0.29,0.27,0.66,0.49,1.11,0.67l-0.11,0.18c-0.46-0.19-0.84-0.42-1.14-0.7
			c-0.32,0.31-0.71,0.55-1.18,0.7l-0.11-0.19c0.47-0.14,0.85-0.35,1.15-0.64c-0.32-0.34-0.54-0.74-0.67-1.21h-0.43V26.27z
			 M30.2,26.49c0.12,0.41,0.32,0.76,0.61,1.06c0.25-0.29,0.43-0.64,0.54-1.06H30.2z"/>
		<path class="st82" d="M32.81,26.61h1.49v0.2c-0.16,0.13-0.37,0.26-0.61,0.4v0.2h1.09v0.21H33.7v0.64c0,0.17-0.08,0.25-0.24,0.25
			h-0.34l-0.05-0.2c0.13,0,0.24,0.01,0.32,0.01c0.07,0,0.11-0.04,0.11-0.13v-0.56h-1.16v-0.21h1.16v-0.29
			C33.7,27,33.87,26.9,34,26.81h-1.19V26.61z M34.74,26.08v0.67h-0.2v-0.46h-1.96v0.46h-0.2v-0.67h1.09
			c-0.04-0.1-0.08-0.2-0.12-0.29l0.23-0.04c0.04,0.1,0.08,0.21,0.12,0.33H34.74z"/>
		<path class="st82" d="M35.48,25.77h0.2v0.57H36v0.21h-0.32v0.23c0.13,0.15,0.27,0.31,0.41,0.5l-0.11,0.18
			c-0.11-0.19-0.21-0.34-0.29-0.45v1.51h-0.2v-1.51c-0.09,0.29-0.2,0.55-0.34,0.79l-0.09-0.24c0.2-0.29,0.34-0.63,0.42-1.01h-0.33
			v-0.21h0.34V25.77z M36.48,27.18c-0.09,0.41-0.22,0.78-0.39,1.09l-0.17-0.12c0.17-0.31,0.3-0.64,0.37-1.02L36.48,27.18z
			 M36.4,28.49l-0.04-0.2c0.12,0.01,0.2,0.01,0.25,0.01c0.08,0,0.11-0.04,0.11-0.13v-1.29h-0.68v-0.21h1.56v0.21h-0.68v1.34
			c0,0.18-0.08,0.27-0.24,0.27H36.4z M36.19,25.95h1.27v0.2h-1.27V25.95z M37.3,27.12c0.12,0.34,0.22,0.7,0.3,1.09l-0.18,0.09
			c-0.09-0.42-0.19-0.79-0.3-1.12L37.3,27.12z"/>
		<path class="st82" d="M39.18,26.52c0.35,0.27,0.75,0.49,1.2,0.65l-0.1,0.19c-0.46-0.17-0.85-0.39-1.16-0.66
			c-0.29,0.25-0.68,0.47-1.17,0.65l-0.09-0.19c0.48-0.18,0.88-0.39,1.2-0.64H39.18z M38.28,26.22c-0.07,0.15-0.16,0.29-0.24,0.42
			l-0.17-0.12c0.17-0.23,0.3-0.48,0.37-0.76l0.19,0.04c-0.02,0.05-0.04,0.13-0.07,0.22h0.73v0.19h-0.4c0.05,0.12,0.09,0.22,0.11,0.3
			l-0.18,0.07c-0.04-0.14-0.08-0.26-0.13-0.37H38.28z M39.96,27.55c-0.07,0.25-0.16,0.48-0.27,0.68h0.6v0.2h-2.34v-0.2h1.53
			c0.11-0.2,0.2-0.45,0.29-0.73L39.96,27.55z M38.44,27.53c0.08,0.16,0.15,0.35,0.22,0.56l-0.18,0.05
			c-0.06-0.19-0.13-0.38-0.22-0.55L38.44,27.53z M38.39,27.18h1.44v0.19h-1.44V27.18z M39.08,27.47c0.07,0.18,0.12,0.38,0.17,0.6
			l-0.18,0.05c-0.05-0.21-0.11-0.41-0.18-0.59L39.08,27.47z M39.45,26.22c-0.05,0.11-0.11,0.21-0.16,0.3l-0.17-0.12
			c0.13-0.19,0.23-0.41,0.28-0.64l0.19,0.04c-0.01,0.05-0.04,0.13-0.07,0.22h0.81v0.19H39.9c0.06,0.11,0.11,0.22,0.14,0.32
			l-0.18,0.07c-0.05-0.14-0.11-0.27-0.17-0.39H39.45z"/>
		<path class="st82" d="M40.67,26.93h0.56v-1.15h0.2v1.15h1.68v0.21h-0.91c0.12,0.48,0.43,0.86,0.95,1.13l-0.12,0.2
			c-0.56-0.32-0.9-0.76-1.02-1.33h-0.58v1.09c0.21-0.05,0.42-0.12,0.62-0.21l0.05,0.2c-0.27,0.1-0.56,0.19-0.87,0.27l-0.06-0.2
			c0.04-0.02,0.06-0.06,0.06-0.1v-1.05h-0.56V26.93z M42.83,25.95c-0.22,0.27-0.55,0.51-1,0.73l-0.12-0.17
			c0.44-0.21,0.77-0.45,0.99-0.71L42.83,25.95z"/>
		<path class="st82" d="M43.84,26.75v0.23c-0.01,0.64-0.11,1.15-0.3,1.54l-0.15-0.14c0.16-0.34,0.24-0.8,0.25-1.39V26h1.07
			c-0.04-0.08-0.07-0.15-0.11-0.21l0.21-0.04c0.04,0.08,0.07,0.16,0.1,0.25h0.95v0.2h-2.02v0.34h0.47V26.3h0.19v0.24h0.74V26.3h0.19
			v0.25h0.43v0.2h-0.43v0.47h-1.12v-0.47H43.84z M44.01,27.42h1.63v0.16c-0.16,0.21-0.35,0.39-0.57,0.53
			c0.25,0.11,0.54,0.2,0.87,0.24l-0.09,0.19c-0.39-0.07-0.71-0.18-0.97-0.32c-0.28,0.15-0.61,0.25-0.97,0.32l-0.09-0.19
			c0.33-0.05,0.61-0.14,0.86-0.25c-0.21-0.14-0.37-0.31-0.5-0.49h-0.17V27.42z M44.39,27.61c0.13,0.16,0.29,0.29,0.48,0.4
			c0.19-0.11,0.36-0.25,0.51-0.4H44.39z M44.5,26.75v0.29h0.74v-0.29H44.5z"/>
	</g>
	<g>
		<path class="st82" d="M55.23,26.27h1.15c-0.08-0.16-0.17-0.31-0.28-0.45l0.2-0.08c0.1,0.14,0.2,0.31,0.29,0.53h1.06v0.22h-0.43
			c-0.14,0.48-0.34,0.88-0.61,1.2c0.29,0.27,0.66,0.49,1.11,0.67l-0.11,0.18c-0.46-0.19-0.84-0.42-1.14-0.7
			c-0.32,0.31-0.71,0.55-1.18,0.7l-0.11-0.19c0.47-0.14,0.85-0.35,1.15-0.64c-0.32-0.34-0.54-0.74-0.67-1.21h-0.43V26.27z
			 M55.86,26.49c0.12,0.41,0.32,0.76,0.61,1.06c0.25-0.29,0.43-0.64,0.54-1.06H55.86z"/>
		<path class="st82" d="M58.47,26.61h1.49v0.2c-0.16,0.13-0.37,0.26-0.61,0.4v0.2h1.09v0.21h-1.09v0.64c0,0.17-0.08,0.25-0.24,0.25
			h-0.34l-0.05-0.2c0.13,0,0.24,0.01,0.32,0.01c0.07,0,0.11-0.04,0.11-0.13v-0.56H58v-0.21h1.16v-0.29
			c0.21-0.12,0.38-0.22,0.51-0.31h-1.19V26.61z M60.4,26.08v0.67h-0.2v-0.46h-1.96v0.46h-0.2v-0.67h1.09
			c-0.04-0.1-0.08-0.2-0.12-0.29l0.23-0.04c0.04,0.1,0.08,0.21,0.12,0.33H60.4z"/>
		<path class="st82" d="M61.14,25.77h0.2v0.57h0.32v0.21h-0.32v0.23c0.13,0.15,0.27,0.31,0.41,0.5l-0.11,0.18
			c-0.11-0.19-0.21-0.34-0.29-0.45v1.51h-0.2v-1.51c-0.09,0.29-0.2,0.55-0.34,0.79l-0.09-0.24c0.2-0.29,0.34-0.63,0.42-1.01H60.8
			v-0.21h0.34V25.77z M62.15,27.18c-0.09,0.41-0.22,0.78-0.39,1.09l-0.17-0.12c0.17-0.31,0.3-0.64,0.37-1.02L62.15,27.18z
			 M62.06,28.49l-0.04-0.2c0.12,0.01,0.2,0.01,0.25,0.01c0.08,0,0.11-0.04,0.11-0.13v-1.29h-0.68v-0.21h1.56v0.21h-0.68v1.34
			c0,0.18-0.08,0.27-0.24,0.27H62.06z M61.86,25.95h1.27v0.2h-1.27V25.95z M62.97,27.12c0.12,0.34,0.22,0.7,0.3,1.09l-0.18,0.09
			c-0.09-0.42-0.19-0.79-0.3-1.12L62.97,27.12z"/>
		<path class="st82" d="M64.84,26.52c0.35,0.27,0.75,0.49,1.2,0.65l-0.1,0.19c-0.46-0.17-0.85-0.39-1.16-0.66
			c-0.29,0.25-0.68,0.47-1.17,0.65l-0.09-0.19c0.48-0.18,0.88-0.39,1.2-0.64H64.84z M63.95,26.22c-0.07,0.15-0.16,0.29-0.24,0.42
			l-0.17-0.12c0.17-0.23,0.3-0.48,0.37-0.76l0.19,0.04c-0.02,0.05-0.04,0.13-0.07,0.22h0.73v0.19h-0.4c0.05,0.12,0.09,0.22,0.11,0.3
			l-0.18,0.07c-0.04-0.14-0.08-0.26-0.13-0.37H63.95z M65.62,27.55c-0.07,0.25-0.16,0.48-0.27,0.68h0.6v0.2h-2.34v-0.2h1.53
			c0.11-0.2,0.2-0.45,0.29-0.73L65.62,27.55z M64.1,27.53c0.08,0.16,0.15,0.35,0.22,0.56l-0.18,0.05c-0.06-0.19-0.13-0.38-0.22-0.55
			L64.1,27.53z M64.06,27.18h1.44v0.19h-1.44V27.18z M64.74,27.47c0.07,0.18,0.12,0.38,0.17,0.6l-0.18,0.05
			c-0.05-0.21-0.11-0.41-0.18-0.59L64.74,27.47z M65.12,26.22c-0.05,0.11-0.11,0.21-0.16,0.3l-0.17-0.12
			c0.13-0.19,0.23-0.41,0.28-0.64l0.19,0.04c-0.01,0.05-0.04,0.13-0.07,0.22h0.81v0.19h-0.44c0.06,0.11,0.11,0.22,0.14,0.32
			l-0.18,0.07c-0.05-0.14-0.11-0.27-0.17-0.39H65.12z"/>
		<path class="st82" d="M66.34,26.93h0.56v-1.15h0.2v1.15h1.68v0.21h-0.91c0.12,0.48,0.43,0.86,0.95,1.13l-0.12,0.2
			c-0.56-0.32-0.9-0.76-1.02-1.33H67.1v1.09c0.21-0.05,0.42-0.12,0.62-0.21l0.05,0.2c-0.27,0.1-0.56,0.19-0.87,0.27l-0.06-0.2
			c0.04-0.02,0.06-0.06,0.06-0.1v-1.05h-0.56V26.93z M68.5,25.95c-0.22,0.27-0.55,0.51-1,0.73l-0.12-0.17
			c0.44-0.21,0.77-0.45,0.99-0.71L68.5,25.95z"/>
		<path class="st82" d="M69.51,26.75v0.23c-0.01,0.64-0.11,1.15-0.3,1.54l-0.15-0.14c0.16-0.34,0.24-0.8,0.25-1.39V26h1.07
			c-0.04-0.08-0.07-0.15-0.11-0.21l0.21-0.04c0.04,0.08,0.07,0.16,0.1,0.25h0.95v0.2h-2.02v0.34h0.47V26.3h0.19v0.24h0.74V26.3h0.19
			v0.25h0.43v0.2H71.1v0.47h-1.12v-0.47H69.51z M69.67,27.42h1.63v0.16c-0.16,0.21-0.35,0.39-0.57,0.53
			c0.25,0.11,0.54,0.2,0.87,0.24l-0.09,0.19c-0.39-0.07-0.71-0.18-0.97-0.32c-0.28,0.15-0.61,0.25-0.97,0.32l-0.09-0.19
			c0.33-0.05,0.61-0.14,0.86-0.25c-0.21-0.14-0.37-0.31-0.5-0.49h-0.17V27.42z M70.05,27.61c0.13,0.16,0.29,0.29,0.48,0.4
			c0.19-0.11,0.36-0.25,0.51-0.4H70.05z M70.17,26.75v0.29h0.74v-0.29H70.17z"/>
	</g>
	<g>
		<path class="st82" d="M77.17,26.27h1.15c-0.08-0.16-0.17-0.31-0.28-0.45l0.2-0.08c0.1,0.14,0.2,0.31,0.29,0.53h1.06v0.22h-0.43
			c-0.14,0.48-0.34,0.88-0.61,1.2c0.29,0.27,0.66,0.49,1.11,0.67l-0.11,0.18c-0.46-0.19-0.84-0.42-1.14-0.7
			c-0.32,0.31-0.71,0.55-1.18,0.7l-0.11-0.19c0.47-0.14,0.85-0.35,1.15-0.64c-0.32-0.34-0.54-0.74-0.67-1.21h-0.43V26.27z
			 M77.8,26.49c0.12,0.41,0.32,0.76,0.61,1.06c0.25-0.29,0.43-0.64,0.54-1.06H77.8z"/>
		<path class="st82" d="M80.41,26.61h1.49v0.2c-0.16,0.13-0.37,0.26-0.61,0.4v0.2h1.09v0.21H81.3v0.64c0,0.17-0.08,0.25-0.24,0.25
			h-0.34l-0.05-0.2c0.13,0,0.24,0.01,0.32,0.01c0.07,0,0.11-0.04,0.11-0.13v-0.56h-1.16v-0.21h1.16v-0.29
			c0.21-0.12,0.38-0.22,0.51-0.31h-1.19V26.61z M82.34,26.08v0.67h-0.2v-0.46h-1.96v0.46h-0.2v-0.67h1.09
			c-0.04-0.1-0.08-0.2-0.12-0.29l0.23-0.04c0.04,0.1,0.08,0.21,0.12,0.33H82.34z"/>
		<path class="st82" d="M83.08,25.77h0.2v0.57h0.32v0.21h-0.32v0.23c0.13,0.15,0.27,0.31,0.41,0.5l-0.11,0.18
			c-0.11-0.19-0.21-0.34-0.29-0.45v1.51h-0.2v-1.51c-0.09,0.29-0.2,0.55-0.34,0.79l-0.09-0.24c0.2-0.29,0.34-0.63,0.42-1.01h-0.33
			v-0.21h0.34V25.77z M84.08,27.18c-0.09,0.41-0.22,0.78-0.39,1.09l-0.17-0.12c0.17-0.31,0.3-0.64,0.37-1.02L84.08,27.18z M84,28.49
			l-0.04-0.2c0.12,0.01,0.2,0.01,0.25,0.01c0.08,0,0.11-0.04,0.11-0.13v-1.29h-0.68v-0.21h1.56v0.21h-0.68v1.34
			c0,0.18-0.08,0.27-0.24,0.27H84z M83.8,25.95h1.27v0.2H83.8V25.95z M84.9,27.12c0.12,0.34,0.22,0.7,0.3,1.09l-0.18,0.09
			c-0.09-0.42-0.19-0.79-0.3-1.12L84.9,27.12z"/>
		<path class="st82" d="M86.78,26.52c0.35,0.27,0.75,0.49,1.2,0.65l-0.1,0.19c-0.46-0.17-0.85-0.39-1.16-0.66
			c-0.29,0.25-0.68,0.47-1.17,0.65l-0.09-0.19c0.48-0.18,0.88-0.39,1.2-0.64H86.78z M85.88,26.22c-0.07,0.15-0.16,0.29-0.24,0.42
			l-0.17-0.12c0.17-0.23,0.3-0.48,0.37-0.76l0.19,0.04c-0.02,0.05-0.04,0.13-0.07,0.22h0.73v0.19h-0.4c0.05,0.12,0.09,0.22,0.11,0.3
			l-0.18,0.07c-0.04-0.14-0.08-0.26-0.13-0.37H85.88z M87.56,27.55c-0.07,0.25-0.16,0.48-0.27,0.68h0.6v0.2h-2.34v-0.2h1.53
			c0.11-0.2,0.2-0.45,0.29-0.73L87.56,27.55z M86.04,27.53c0.08,0.16,0.15,0.35,0.22,0.56l-0.18,0.05
			c-0.06-0.19-0.13-0.38-0.22-0.55L86.04,27.53z M86,27.18h1.44v0.19H86V27.18z M86.68,27.47c0.07,0.18,0.12,0.38,0.17,0.6
			l-0.18,0.05c-0.05-0.21-0.11-0.41-0.18-0.59L86.68,27.47z M87.05,26.22c-0.05,0.11-0.11,0.21-0.16,0.3l-0.17-0.12
			c0.13-0.19,0.23-0.41,0.28-0.64l0.19,0.04c-0.01,0.05-0.04,0.13-0.07,0.22h0.81v0.19H87.5c0.06,0.11,0.11,0.22,0.14,0.32
			l-0.18,0.07c-0.05-0.14-0.11-0.27-0.17-0.39H87.05z"/>
		<path class="st82" d="M88.27,26.93h0.56v-1.15h0.2v1.15h1.68v0.21h-0.91c0.12,0.48,0.43,0.86,0.95,1.13l-0.12,0.2
			c-0.56-0.32-0.9-0.76-1.02-1.33h-0.58v1.09c0.21-0.05,0.42-0.12,0.62-0.21l0.05,0.2c-0.27,0.1-0.56,0.19-0.87,0.27l-0.06-0.2
			c0.04-0.02,0.06-0.06,0.06-0.1v-1.05h-0.56V26.93z M90.43,25.95c-0.22,0.27-0.55,0.51-1,0.73l-0.12-0.17
			c0.44-0.21,0.77-0.45,0.99-0.71L90.43,25.95z"/>
		<path class="st82" d="M91.44,26.75v0.23c-0.01,0.64-0.11,1.15-0.3,1.54L91,28.37c0.16-0.34,0.24-0.8,0.25-1.39V26h1.07
			c-0.04-0.08-0.07-0.15-0.11-0.21l0.21-0.04c0.04,0.08,0.07,0.16,0.1,0.25h0.95v0.2h-2.02v0.34h0.47V26.3h0.19v0.24h0.74V26.3h0.19
			v0.25h0.43v0.2h-0.43v0.47h-1.12v-0.47H91.44z M91.61,27.42h1.63v0.16c-0.16,0.21-0.35,0.39-0.57,0.53
			c0.25,0.11,0.54,0.2,0.87,0.24l-0.09,0.19c-0.39-0.07-0.71-0.18-0.97-0.32c-0.28,0.15-0.61,0.25-0.97,0.32l-0.09-0.19
			c0.33-0.05,0.61-0.14,0.86-0.25c-0.21-0.14-0.37-0.31-0.5-0.49h-0.17V27.42z M91.99,27.61c0.13,0.16,0.29,0.29,0.48,0.4
			c0.19-0.11,0.36-0.25,0.51-0.4H91.99z M92.11,26.75v0.29h0.74v-0.29H92.11z"/>
	</g>
	<g>
		<g>
			<path class="st2" d="M30.15,19.39h2.34v0.28h-1.01v2.57h-0.32v-2.57h-1.01V19.39z"/>
			<path class="st2" d="M33.25,19.46c0.05,0.04,0.07,0.1,0.07,0.17c0,0.07-0.02,0.12-0.07,0.17c-0.05,0.05-0.11,0.07-0.17,0.07
				c-0.06,0-0.12-0.02-0.17-0.07c-0.05-0.05-0.07-0.1-0.07-0.17c0-0.07,0.02-0.13,0.07-0.17c0.05-0.05,0.1-0.07,0.17-0.07
				S33.2,19.42,33.25,19.46z M32.92,20.18h0.32v2.07h-0.32V20.18z"/>
			<path class="st2" d="M34.39,19.51v0.67h0.51v0.27h-0.51v1.32c0,0.08,0.01,0.13,0.04,0.16c0.03,0.03,0.08,0.05,0.15,0.05h0.26
				v0.27h-0.31c-0.17,0-0.29-0.04-0.36-0.13c-0.07-0.08-0.1-0.19-0.1-0.35v-1.32h-0.42v-0.27h0.42v-0.54L34.39,19.51z"/>
			<path class="st2" d="M35.32,19.33h0.32v2.91h-0.32V19.33z"/>
			<path class="st2" d="M37.8,20.46c0.15,0.2,0.23,0.48,0.24,0.84h-1.63c0.02,0.23,0.08,0.41,0.19,0.54
				c0.11,0.13,0.27,0.19,0.46,0.19c0.17,0,0.31-0.04,0.41-0.13c0.09-0.07,0.15-0.18,0.21-0.32H38c-0.05,0.2-0.14,0.36-0.28,0.49
				c-0.18,0.15-0.4,0.23-0.66,0.23c-0.3,0-0.53-0.1-0.71-0.29c-0.18-0.2-0.27-0.46-0.27-0.8c0-0.31,0.09-0.56,0.26-0.76
				c0.18-0.22,0.41-0.32,0.71-0.32C37.38,20.12,37.64,20.23,37.8,20.46z M36.61,20.57c-0.11,0.12-0.17,0.28-0.2,0.48h1.29
				c-0.04-0.44-0.26-0.66-0.65-0.66C36.88,20.39,36.73,20.45,36.61,20.57z"/>
		</g>
	</g>
</g>
<g>
	<g>
		<path class="st82" d="M29.57,40.61h1.15c-0.08-0.16-0.17-0.31-0.28-0.45l0.2-0.08c0.1,0.14,0.2,0.31,0.29,0.53h1.06v0.22h-0.43
			c-0.14,0.48-0.34,0.88-0.61,1.2c0.29,0.27,0.66,0.49,1.11,0.67l-0.11,0.18c-0.46-0.19-0.84-0.42-1.14-0.7
			c-0.32,0.31-0.71,0.55-1.18,0.7l-0.11-0.19c0.47-0.14,0.85-0.35,1.15-0.64c-0.32-0.34-0.54-0.74-0.67-1.21h-0.43V40.61z
			 M30.2,40.83c0.12,0.41,0.32,0.76,0.61,1.06c0.25-0.29,0.43-0.64,0.54-1.06H30.2z"/>
		<path class="st82" d="M32.81,40.95h1.49v0.2c-0.16,0.13-0.37,0.26-0.61,0.4v0.2h1.09v0.21H33.7v0.64c0,0.17-0.08,0.25-0.24,0.25
			h-0.34l-0.05-0.2c0.13,0,0.24,0.01,0.32,0.01c0.07,0,0.11-0.04,0.11-0.13v-0.56h-1.16v-0.21h1.16v-0.29
			c0.21-0.12,0.38-0.22,0.51-0.31h-1.19V40.95z M34.74,40.41v0.67h-0.2v-0.46h-1.96v0.46h-0.2v-0.67h1.09
			c-0.04-0.1-0.08-0.2-0.12-0.29l0.23-0.04c0.04,0.1,0.08,0.21,0.12,0.33H34.74z"/>
		<path class="st82" d="M35.48,40.11h0.2v0.57H36v0.21h-0.32v0.23c0.13,0.15,0.27,0.31,0.41,0.5l-0.11,0.18
			c-0.11-0.19-0.21-0.34-0.29-0.45v1.51h-0.2v-1.51c-0.09,0.29-0.2,0.55-0.34,0.79l-0.09-0.24c0.2-0.29,0.34-0.63,0.42-1.01h-0.33
			v-0.21h0.34V40.11z M36.48,41.52c-0.09,0.41-0.22,0.78-0.39,1.09l-0.17-0.12c0.17-0.31,0.3-0.64,0.37-1.02L36.48,41.52z
			 M36.4,42.83l-0.04-0.2c0.12,0.01,0.2,0.01,0.25,0.01c0.08,0,0.11-0.04,0.11-0.13v-1.29h-0.68v-0.21h1.56v0.21h-0.68v1.34
			c0,0.18-0.08,0.27-0.24,0.27H36.4z M36.19,40.28h1.27v0.2h-1.27V40.28z M37.3,41.46c0.12,0.34,0.22,0.7,0.3,1.09l-0.18,0.09
			c-0.09-0.42-0.19-0.79-0.3-1.12L37.3,41.46z"/>
		<path class="st82" d="M39.18,40.85c0.35,0.27,0.75,0.49,1.2,0.65l-0.1,0.19c-0.46-0.17-0.85-0.39-1.16-0.66
			c-0.29,0.25-0.68,0.47-1.17,0.65l-0.09-0.19c0.48-0.18,0.88-0.39,1.2-0.64H39.18z M38.28,40.56c-0.07,0.15-0.16,0.29-0.24,0.42
			l-0.17-0.12c0.17-0.23,0.3-0.48,0.37-0.76l0.19,0.04c-0.02,0.05-0.04,0.13-0.07,0.22h0.73v0.19h-0.4c0.05,0.12,0.09,0.22,0.11,0.3
			l-0.18,0.07c-0.04-0.14-0.08-0.26-0.13-0.37H38.28z M39.96,41.89c-0.07,0.25-0.16,0.48-0.27,0.68h0.6v0.2h-2.34v-0.2h1.53
			c0.11-0.2,0.2-0.45,0.29-0.73L39.96,41.89z M38.44,41.87c0.08,0.16,0.15,0.35,0.22,0.56l-0.18,0.05
			c-0.06-0.19-0.13-0.38-0.22-0.55L38.44,41.87z M38.39,41.52h1.44v0.19h-1.44V41.52z M39.08,41.81c0.07,0.18,0.12,0.38,0.17,0.6
			l-0.18,0.05c-0.05-0.21-0.11-0.41-0.18-0.59L39.08,41.81z M39.45,40.56c-0.05,0.11-0.11,0.21-0.16,0.3l-0.17-0.12
			c0.13-0.19,0.23-0.41,0.28-0.64l0.19,0.04c-0.01,0.05-0.04,0.13-0.07,0.22h0.81v0.19H39.9c0.06,0.11,0.11,0.22,0.14,0.32
			l-0.18,0.07c-0.05-0.14-0.11-0.27-0.17-0.39H39.45z"/>
		<path class="st82" d="M40.67,41.27h0.56v-1.15h0.2v1.15h1.68v0.21h-0.91c0.12,0.48,0.43,0.86,0.95,1.13l-0.12,0.2
			c-0.56-0.32-0.9-0.76-1.02-1.33h-0.58v1.09c0.21-0.05,0.42-0.12,0.62-0.21l0.05,0.2c-0.27,0.1-0.56,0.19-0.87,0.27l-0.06-0.2
			c0.04-0.02,0.06-0.06,0.06-0.1v-1.05h-0.56V41.27z M42.83,40.29c-0.22,0.27-0.55,0.51-1,0.73l-0.12-0.17
			c0.44-0.21,0.77-0.45,0.99-0.71L42.83,40.29z"/>
		<path class="st82" d="M43.84,41.09v0.23c-0.01,0.64-0.11,1.15-0.3,1.54l-0.15-0.14c0.16-0.34,0.24-0.8,0.25-1.39v-0.98h1.07
			c-0.04-0.08-0.07-0.15-0.11-0.21l0.21-0.04c0.04,0.08,0.07,0.16,0.1,0.25h0.95v0.2h-2.02v0.34h0.47v-0.24h0.19v0.24h0.74v-0.25
			h0.19v0.25h0.43v0.2h-0.43v0.47h-1.12v-0.47H43.84z M44.01,41.76h1.63v0.16c-0.16,0.21-0.35,0.39-0.57,0.53
			c0.25,0.11,0.54,0.2,0.87,0.24l-0.09,0.19c-0.39-0.07-0.71-0.18-0.97-0.32c-0.28,0.15-0.61,0.25-0.97,0.32l-0.09-0.19
			c0.33-0.05,0.61-0.14,0.86-0.25c-0.21-0.14-0.37-0.31-0.5-0.49h-0.17V41.76z M44.39,41.95c0.13,0.16,0.29,0.29,0.48,0.4
			c0.19-0.11,0.36-0.25,0.51-0.4H44.39z M44.5,41.09v0.29h0.74v-0.29H44.5z"/>
	</g>
	<g>
		<path class="st82" d="M55.23,40.61h1.15c-0.08-0.16-0.17-0.31-0.28-0.45l0.2-0.08c0.1,0.14,0.2,0.31,0.29,0.53h1.06v0.22h-0.43
			c-0.14,0.48-0.34,0.88-0.61,1.2c0.29,0.27,0.66,0.49,1.11,0.67l-0.11,0.18c-0.46-0.19-0.84-0.42-1.14-0.7
			c-0.32,0.31-0.71,0.55-1.18,0.7l-0.11-0.19c0.47-0.14,0.85-0.35,1.15-0.64c-0.32-0.34-0.54-0.74-0.67-1.21h-0.43V40.61z
			 M55.86,40.83c0.12,0.41,0.32,0.76,0.61,1.06c0.25-0.29,0.43-0.64,0.54-1.06H55.86z"/>
		<path class="st82" d="M58.47,40.95h1.49v0.2c-0.16,0.13-0.37,0.26-0.61,0.4v0.2h1.09v0.21h-1.09v0.64c0,0.17-0.08,0.25-0.24,0.25
			h-0.34l-0.05-0.2c0.13,0,0.24,0.01,0.32,0.01c0.07,0,0.11-0.04,0.11-0.13v-0.56H58v-0.21h1.16v-0.29
			c0.21-0.12,0.38-0.22,0.51-0.31h-1.19V40.95z M60.4,40.41v0.67h-0.2v-0.46h-1.96v0.46h-0.2v-0.67h1.09
			c-0.04-0.1-0.08-0.2-0.12-0.29l0.23-0.04c0.04,0.1,0.08,0.21,0.12,0.33H60.4z"/>
		<path class="st82" d="M61.14,40.11h0.2v0.57h0.32v0.21h-0.32v0.23c0.13,0.15,0.27,0.31,0.41,0.5l-0.11,0.18
			c-0.11-0.19-0.21-0.34-0.29-0.45v1.51h-0.2v-1.51c-0.09,0.29-0.2,0.55-0.34,0.79l-0.09-0.24c0.2-0.29,0.34-0.63,0.42-1.01H60.8
			v-0.21h0.34V40.11z M62.15,41.52c-0.09,0.41-0.22,0.78-0.39,1.09l-0.17-0.12c0.17-0.31,0.3-0.64,0.37-1.02L62.15,41.52z
			 M62.06,42.83l-0.04-0.2c0.12,0.01,0.2,0.01,0.25,0.01c0.08,0,0.11-0.04,0.11-0.13v-1.29h-0.68v-0.21h1.56v0.21h-0.68v1.34
			c0,0.18-0.08,0.27-0.24,0.27H62.06z M61.86,40.28h1.27v0.2h-1.27V40.28z M62.97,41.46c0.12,0.34,0.22,0.7,0.3,1.09l-0.18,0.09
			c-0.09-0.42-0.19-0.79-0.3-1.12L62.97,41.46z"/>
		<path class="st82" d="M64.84,40.85c0.35,0.27,0.75,0.49,1.2,0.65l-0.1,0.19c-0.46-0.17-0.85-0.39-1.16-0.66
			c-0.29,0.25-0.68,0.47-1.17,0.65l-0.09-0.19c0.48-0.18,0.88-0.39,1.2-0.64H64.84z M63.95,40.56c-0.07,0.15-0.16,0.29-0.24,0.42
			l-0.17-0.12c0.17-0.23,0.3-0.48,0.37-0.76l0.19,0.04c-0.02,0.05-0.04,0.13-0.07,0.22h0.73v0.19h-0.4c0.05,0.12,0.09,0.22,0.11,0.3
			l-0.18,0.07c-0.04-0.14-0.08-0.26-0.13-0.37H63.95z M65.62,41.89c-0.07,0.25-0.16,0.48-0.27,0.68h0.6v0.2h-2.34v-0.2h1.53
			c0.11-0.2,0.2-0.45,0.29-0.73L65.62,41.89z M64.1,41.87c0.08,0.16,0.15,0.35,0.22,0.56l-0.18,0.05c-0.06-0.19-0.13-0.38-0.22-0.55
			L64.1,41.87z M64.06,41.52h1.44v0.19h-1.44V41.52z M64.74,41.81c0.07,0.18,0.12,0.38,0.17,0.6l-0.18,0.05
			c-0.05-0.21-0.11-0.41-0.18-0.59L64.74,41.81z M65.12,40.56c-0.05,0.11-0.11,0.21-0.16,0.3l-0.17-0.12
			c0.13-0.19,0.23-0.41,0.28-0.64l0.19,0.04c-0.01,0.05-0.04,0.13-0.07,0.22h0.81v0.19h-0.44c0.06,0.11,0.11,0.22,0.14,0.32
			l-0.18,0.07c-0.05-0.14-0.11-0.27-0.17-0.39H65.12z"/>
		<path class="st82" d="M66.34,41.27h0.56v-1.15h0.2v1.15h1.68v0.21h-0.91c0.12,0.48,0.43,0.86,0.95,1.13l-0.12,0.2
			c-0.56-0.32-0.9-0.76-1.02-1.33H67.1v1.09c0.21-0.05,0.42-0.12,0.62-0.21l0.05,0.2c-0.27,0.1-0.56,0.19-0.87,0.27l-0.06-0.2
			c0.04-0.02,0.06-0.06,0.06-0.1v-1.05h-0.56V41.27z M68.5,40.29c-0.22,0.27-0.55,0.51-1,0.73l-0.12-0.17
			c0.44-0.21,0.77-0.45,0.99-0.71L68.5,40.29z"/>
		<path class="st82" d="M69.51,41.09v0.23c-0.01,0.64-0.11,1.15-0.3,1.54l-0.15-0.14c0.16-0.34,0.24-0.8,0.25-1.39v-0.98h1.07
			c-0.04-0.08-0.07-0.15-0.11-0.21l0.21-0.04c0.04,0.08,0.07,0.16,0.1,0.25h0.95v0.2h-2.02v0.34h0.47v-0.24h0.19v0.24h0.74v-0.25
			h0.19v0.25h0.43v0.2H71.1v0.47h-1.12v-0.47H69.51z M69.67,41.76h1.63v0.16c-0.16,0.21-0.35,0.39-0.57,0.53
			c0.25,0.11,0.54,0.2,0.87,0.24l-0.09,0.19c-0.39-0.07-0.71-0.18-0.97-0.32c-0.28,0.15-0.61,0.25-0.97,0.32l-0.09-0.19
			c0.33-0.05,0.61-0.14,0.86-0.25c-0.21-0.14-0.37-0.31-0.5-0.49h-0.17V41.76z M70.05,41.95c0.13,0.16,0.29,0.29,0.48,0.4
			c0.19-0.11,0.36-0.25,0.51-0.4H70.05z M70.17,41.09v0.29h0.74v-0.29H70.17z"/>
	</g>
	<g>
		<path class="st82" d="M77.17,40.61h1.15c-0.08-0.16-0.17-0.31-0.28-0.45l0.2-0.08c0.1,0.14,0.2,0.31,0.29,0.53h1.06v0.22h-0.43
			c-0.14,0.48-0.34,0.88-0.61,1.2c0.29,0.27,0.66,0.49,1.11,0.67l-0.11,0.18c-0.46-0.19-0.84-0.42-1.14-0.7
			c-0.32,0.31-0.71,0.55-1.18,0.7l-0.11-0.19c0.47-0.14,0.85-0.35,1.15-0.64c-0.32-0.34-0.54-0.74-0.67-1.21h-0.43V40.61z
			 M77.8,40.83c0.12,0.41,0.32,0.76,0.61,1.06c0.25-0.29,0.43-0.64,0.54-1.06H77.8z"/>
		<path class="st82" d="M80.41,40.95h1.49v0.2c-0.16,0.13-0.37,0.26-0.61,0.4v0.2h1.09v0.21H81.3v0.64c0,0.17-0.08,0.25-0.24,0.25
			h-0.34l-0.05-0.2c0.13,0,0.24,0.01,0.32,0.01c0.07,0,0.11-0.04,0.11-0.13v-0.56h-1.16v-0.21h1.16v-0.29
			c0.21-0.12,0.38-0.22,0.51-0.31h-1.19V40.95z M82.34,40.41v0.67h-0.2v-0.46h-1.96v0.46h-0.2v-0.67h1.09
			c-0.04-0.1-0.08-0.2-0.12-0.29l0.23-0.04c0.04,0.1,0.08,0.21,0.12,0.33H82.34z"/>
		<path class="st82" d="M83.08,40.11h0.2v0.57h0.32v0.21h-0.32v0.23c0.13,0.15,0.27,0.31,0.41,0.5l-0.11,0.18
			c-0.11-0.19-0.21-0.34-0.29-0.45v1.51h-0.2v-1.51c-0.09,0.29-0.2,0.55-0.34,0.79l-0.09-0.24c0.2-0.29,0.34-0.63,0.42-1.01h-0.33
			v-0.21h0.34V40.11z M84.08,41.52c-0.09,0.41-0.22,0.78-0.39,1.09l-0.17-0.12c0.17-0.31,0.3-0.64,0.37-1.02L84.08,41.52z M84,42.83
			l-0.04-0.2c0.12,0.01,0.2,0.01,0.25,0.01c0.08,0,0.11-0.04,0.11-0.13v-1.29h-0.68v-0.21h1.56v0.21h-0.68v1.34
			c0,0.18-0.08,0.27-0.24,0.27H84z M83.8,40.28h1.27v0.2H83.8V40.28z M84.9,41.46c0.12,0.34,0.22,0.7,0.3,1.09l-0.18,0.09
			c-0.09-0.42-0.19-0.79-0.3-1.12L84.9,41.46z"/>
		<path class="st82" d="M86.78,40.85c0.35,0.27,0.75,0.49,1.2,0.65l-0.1,0.19c-0.46-0.17-0.85-0.39-1.16-0.66
			c-0.29,0.25-0.68,0.47-1.17,0.65l-0.09-0.19c0.48-0.18,0.88-0.39,1.2-0.64H86.78z M85.88,40.56c-0.07,0.15-0.16,0.29-0.24,0.42
			l-0.17-0.12c0.17-0.23,0.3-0.48,0.37-0.76l0.19,0.04c-0.02,0.05-0.04,0.13-0.07,0.22h0.73v0.19h-0.4c0.05,0.12,0.09,0.22,0.11,0.3
			l-0.18,0.07c-0.04-0.14-0.08-0.26-0.13-0.37H85.88z M87.56,41.89c-0.07,0.25-0.16,0.48-0.27,0.68h0.6v0.2h-2.34v-0.2h1.53
			c0.11-0.2,0.2-0.45,0.29-0.73L87.56,41.89z M86.04,41.87c0.08,0.16,0.15,0.35,0.22,0.56l-0.18,0.05
			c-0.06-0.19-0.13-0.38-0.22-0.55L86.04,41.87z M86,41.52h1.44v0.19H86V41.52z M86.68,41.81c0.07,0.18,0.12,0.38,0.17,0.6
			l-0.18,0.05c-0.05-0.21-0.11-0.41-0.18-0.59L86.68,41.81z M87.05,40.56c-0.05,0.11-0.11,0.21-0.16,0.3l-0.17-0.12
			c0.13-0.19,0.23-0.41,0.28-0.64l0.19,0.04c-0.01,0.05-0.04,0.13-0.07,0.22h0.81v0.19H87.5c0.06,0.11,0.11,0.22,0.14,0.32
			l-0.18,0.07c-0.05-0.14-0.11-0.27-0.17-0.39H87.05z"/>
		<path class="st82" d="M88.27,41.27h0.56v-1.15h0.2v1.15h1.68v0.21h-0.91c0.12,0.48,0.43,0.86,0.95,1.13l-0.12,0.2
			c-0.56-0.32-0.9-0.76-1.02-1.33h-0.58v1.09c0.21-0.05,0.42-0.12,0.62-0.21l0.05,0.2c-0.27,0.1-0.56,0.19-0.87,0.27l-0.06-0.2
			c0.04-0.02,0.06-0.06,0.06-0.1v-1.05h-0.56V41.27z M90.43,40.29c-0.22,0.27-0.55,0.51-1,0.73l-0.12-0.17
			c0.44-0.21,0.77-0.45,0.99-0.71L90.43,40.29z"/>
		<path class="st82" d="M91.44,41.09v0.23c-0.01,0.64-0.11,1.15-0.3,1.54L91,42.71c0.16-0.34,0.24-0.8,0.25-1.39v-0.98h1.07
			c-0.04-0.08-0.07-0.15-0.11-0.21l0.21-0.04c0.04,0.08,0.07,0.16,0.1,0.25h0.95v0.2h-2.02v0.34h0.47v-0.24h0.19v0.24h0.74v-0.25
			h0.19v0.25h0.43v0.2h-0.43v0.47h-1.12v-0.47H91.44z M91.61,41.76h1.63v0.16c-0.16,0.21-0.35,0.39-0.57,0.53
			c0.25,0.11,0.54,0.2,0.87,0.24l-0.09,0.19c-0.39-0.07-0.71-0.18-0.97-0.32c-0.28,0.15-0.61,0.25-0.97,0.32l-0.09-0.19
			c0.33-0.05,0.61-0.14,0.86-0.25c-0.21-0.14-0.37-0.31-0.5-0.49h-0.17V41.76z M91.99,41.95c0.13,0.16,0.29,0.29,0.48,0.4
			c0.19-0.11,0.36-0.25,0.51-0.4H91.99z M92.11,41.09v0.29h0.74v-0.29H92.11z"/>
	</g>
	<g>
		<g>
			<path class="st2" d="M30.15,33.73h2.34v0.28h-1.01v2.57h-0.32v-2.57h-1.01V33.73z"/>
			<path class="st2" d="M33.25,33.8c0.05,0.04,0.07,0.1,0.07,0.17c0,0.07-0.02,0.12-0.07,0.17c-0.05,0.05-0.11,0.07-0.17,0.07
				c-0.06,0-0.12-0.02-0.17-0.07c-0.05-0.05-0.07-0.1-0.07-0.17c0-0.07,0.02-0.13,0.07-0.17c0.05-0.05,0.1-0.07,0.17-0.07
				S33.2,33.76,33.25,33.8z M32.92,34.52h0.32v2.07h-0.32V34.52z"/>
			<path class="st2" d="M34.39,33.85v0.67h0.51v0.27h-0.51v1.32c0,0.08,0.01,0.13,0.04,0.16c0.03,0.03,0.08,0.05,0.15,0.05h0.26
				v0.27h-0.31c-0.17,0-0.29-0.04-0.36-0.13c-0.07-0.08-0.1-0.19-0.1-0.35v-1.32h-0.42v-0.27h0.42v-0.54L34.39,33.85z"/>
			<path class="st2" d="M35.32,33.67h0.32v2.91h-0.32V33.67z"/>
			<path class="st2" d="M37.8,34.8c0.15,0.2,0.23,0.48,0.24,0.84h-1.63c0.02,0.23,0.08,0.41,0.19,0.54
				c0.11,0.13,0.27,0.19,0.46,0.19c0.17,0,0.31-0.04,0.41-0.13c0.09-0.07,0.15-0.18,0.21-0.32H38c-0.05,0.2-0.14,0.36-0.28,0.49
				c-0.18,0.15-0.4,0.23-0.66,0.23c-0.3,0-0.53-0.1-0.71-0.29c-0.18-0.2-0.27-0.46-0.27-0.8c0-0.31,0.09-0.56,0.26-0.76
				c0.18-0.22,0.41-0.32,0.71-0.32C37.38,34.46,37.64,34.57,37.8,34.8z M36.61,34.91c-0.11,0.12-0.17,0.28-0.2,0.48h1.29
				c-0.04-0.44-0.26-0.66-0.65-0.66C36.88,34.73,36.73,34.79,36.61,34.91z"/>
		</g>
	</g>
</g>
<circle class="st172" cx="22.29" cy="20.82" r="2.05"/>
<circle class="st173" cx="22.42" cy="34.9" r="2.05"/>
</svg>
