<?xml version="1.0" standalone="no"?><!DOCTYPE svg PUBLIC "-//W3C//DTD SVG 1.1//EN" "http://www.w3.org/Graphics/SVG/1.1/DTD/svg11.dtd"><svg class="icon" width="200px" height="200.00px" viewBox="0 0 1024 1024" version="1.1" xmlns="http://www.w3.org/2000/svg"><path d="M448 896H163.04C143.904 896 128 879.68 128 859.072V164.928C128 144.32 143.904 128 163.04 128h569.92C752.096 128 768 144.32 768 164.928v182.464a32 32 0 0 0 64 0V164.928C832 109.376 787.84 64 732.96 64H163.04C108.16 64 64 109.376 64 164.928v694.144C64 914.624 108.16 960 163.04 960H448a32 32 0 0 0 0-64z" fill="#c0c4cc" /><path d="M736 448a256 256 0 1 0 0 512 256 256 0 0 0 0-512z m0 448a192 192 0 1 1 0-384 192 192 0 0 1 0 384z" fill="#c0c4cc" /><path d="M831.456 688H752v-64a32 32 0 0 0-64 0v96a32 32 0 0 0 32 32h111.456a32 32 0 0 0 0-64zM640 320a32 32 0 0 0-32-32H288a32 32 0 0 0 0 64h320a32 32 0 0 0 32-32zM288 544a32 32 0 0 0 0 64h80.288a32 32 0 0 0 0-64H288z" fill="#c0c4cc" /></svg>
