<?xml version="1.0" standalone="no"?><!DOCTYPE svg PUBLIC "-//W3C//DTD SVG 1.1//EN" "http://www.w3.org/Graphics/SVG/1.1/DTD/svg11.dtd"><svg class="icon" width="200px" height="200.00px" viewBox="0 0 1024 1024" version="1.1" xmlns="http://www.w3.org/2000/svg"><path d="M280.224 425.856h348.608a29.536 29.536 0 1 0 0-59.072H280.224c-52.448 0-93.152-34.304-93.152-73.856s40.704-73.856 93.152-73.856h140.128C432.096 258.816 468.448 288 512 288s79.904-29.184 91.648-68.928h178.08a29.536 29.536 0 1 0 0-59.072h-179.584C588.896 122.784 553.728 96 512 96s-76.896 26.784-90.112 64H280.224C197.184 160 128 218.272 128 292.928s69.184 132.928 152.224 132.928z" fill="#c0c4cc" /><path d="M895.936 415.2A96 96 0 1 0 800 512c30.656 0 57.632-14.624 75.2-36.992 10.56 12.064 16.832 26.56 16.832 41.92 0 39.552-40.704 73.856-93.152 73.856H306.016A95.584 95.584 0 0 0 224 544a95.68 95.68 0 0 0-95.232 88.352C89.888 656.224 64 695.424 64 740.928c0 74.656 69.184 132.928 152.224 132.928h241.728A95.808 95.808 0 0 0 544 928a96 96 0 1 0 0-192 95.904 95.904 0 0 0-94.272 78.752H216.224c-52.448 0-93.152-34.304-93.152-73.856 0-17.504 8.32-33.792 21.76-46.72A95.808 95.808 0 0 0 224 736a95.68 95.68 0 0 0 95.008-86.144h479.84c83.072 0 152.224-58.272 152.224-132.928 0.032-41.536-21.824-77.568-55.136-101.728z" fill="#c0c4cc" /></svg>
