<?xml version="1.0" standalone="no"?><!DOCTYPE svg PUBLIC "-//W3C//DTD SVG 1.1//EN" "http://www.w3.org/Graphics/SVG/1.1/DTD/svg11.dtd"><svg class="icon" width="200px" height="200.00px" viewBox="0 0 1024 1024" version="1.1" xmlns="http://www.w3.org/2000/svg"><path d="M1014.8 414.9c-3.4-17.8-16.9-32-34.5-36.2-45-10.5-82.5-38.5-105.4-78.7-23-40.3-28.1-87.2-14.6-132.2 5.2-17.3-0.2-36.1-13.7-47.9-49.1-43-105.1-75.7-166.4-97.4-17.1-6.1-36.1-1.3-48.5 12.1-31.4 34.2-74 53.1-119.7 53.1s-88.2-18.8-119.7-53c-12.4-13.4-31.4-18.1-48.5-12.1C282.4 44.2 226.4 77 177.4 120c-13.5 11.8-18.9 30.6-13.7 47.9 13.5 44.9 8.3 91.8-14.6 132.1s-60.3 68.3-105.3 78.7C26 382.8 12.5 397 9.2 414.9 3.1 447.5 0 480.2 0 512c0 31.8 3.1 64.5 9.3 97.2 3.4 17.9 16.9 32 34.5 36.1 45 10.5 82.5 38.5 105.4 78.7 22.9 40.4 28.1 87.3 14.6 132.2-5.2 17.3 0.2 36.1 13.7 47.9 49.1 43 105.1 75.7 166.4 97.4 4.9 1.7 10 2.6 15.1 2.6 12.7 0 24.9-5.4 33.4-14.7 31.5-34.2 74.1-53 119.7-53 45.8 0 88.3 18.8 119.7 53 12.3 13.3 31.3 18.1 48.5 12.2 61.2-21.6 117.2-54.4 166.4-97.4 13.5-11.8 18.9-30.7 13.7-47.9-13.5-44.9-8.3-91.8 14.7-132.2 22.9-40.3 60.4-68.2 105.3-78.7 17.6-4.1 31.1-18.2 34.5-36.2 6.1-32.7 9.2-65.4 9.2-97.1-0.1-31.9-3.2-64.6-9.3-97.2zM971 601c-0.1 0.6-0.5 1-0.8 1-57.2 13.4-104.8 48.9-133.9 100.1-29.1 51.1-35.7 110.4-18.6 167 0.2 0.6 0 1.2-0.4 1.6-44.9 39.3-96 69.2-151.8 88.9-0.4 0.1-0.7 0-1-0.3-39.9-43.5-94.1-67.4-152.4-67.4-58.3 0-112.4 23.9-152.5 67.4-0.2 0.2-0.4 0.3-0.9 0.2-56-19.8-107.1-49.7-151.9-88.9-0.4-0.4-0.6-1-0.4-1.6 17.1-56.7 10.5-116-18.5-167-29.1-51.2-76.7-86.7-134-100.1-0.3-0.1-0.7-0.5-0.8-1-5.6-29.9-8.5-59.8-8.5-88.9 0-29.1 2.9-59 8.5-89.1 0.1-0.5 0.5-0.9 0.8-0.9 57.3-13.3 104.8-48.8 134-100.1 29-51 35.6-110.3 18.5-166.9-0.2-0.6 0-1.3 0.4-1.6 44.8-39.2 95.8-69.2 151.9-88.9 0.3-0.1 0.7 0 1 0.3 40 43.5 94.1 67.4 152.4 67.4 58.4 0 112.5-24 152.5-67.4 0.3-0.3 0.6-0.4 0.9-0.3 56 19.8 107.1 49.7 151.9 88.9 0.4 0.4 0.6 1 0.4 1.6-17.1 56.7-10.5 116.1 18.5 167 29.1 51.2 76.7 86.7 133.8 100 0.4 0.1 0.8 0.6 0.9 1.1 5.6 29.9 8.5 59.9 8.5 89 0 29-2.9 58.9-8.5 88.9z" fill="#C0C4CC" /><path d="M512 311.7c-110.5 0-200.3 89.9-200.3 200.3S401.5 712.4 512 712.4c12.3 0 22.3-10 22.3-22.3s-10-22.3-22.3-22.3c-85.9 0-155.8-69.9-155.8-155.8S426.1 356.2 512 356.2 667.8 426.1 667.8 512c0 12.3 10 22.3 22.3 22.3s22.3-10 22.3-22.3c-0.1-110.5-89.9-200.3-200.4-200.3z" fill="#C0C4CC" /></svg>