<?xml version="1.0" standalone="no"?><!DOCTYPE svg PUBLIC "-//W3C//DTD SVG 1.1//EN" "http://www.w3.org/Graphics/SVG/1.1/DTD/svg11.dtd"><svg class="icon" width="200px" height="200.00px" viewBox="0 0 1024 1024" version="1.1" xmlns="http://www.w3.org/2000/svg"><path d="M928 576H608a32 32 0 0 0-32 32v128H288v-288h128a32 32 0 0 0 32-32V96a32 32 0 0 0-32-32H96a32 32 0 0 0-32 32v320a32 32 0 0 0 32 32h128v320a32 32 0 0 0 32 32h320v128a32 32 0 0 0 32 32h320a32 32 0 0 0 32-32V608a32 32 0 0 0-32-32zM128 384V128h256v256H128z m768 512h-256v-256h256v256z" fill="#c0c4cc" /></svg>
